<svg xmlns="http://www.w3.org/2000/svg" xmlns:xlink="http://www.w3.org/1999/xlink" width="580" height="1080" viewBox="0 0 580 1080"><defs><style>.cls-1{fill:gray;}.cls-2{fill:url(#radial-gradient);}.cls-3{fill:#999;}.cls-4{fill:url(#radial-gradient-2);}.cls-5{fill:#29abe2;}.cls-6{fill:#4d4d4d;}.cls-7{fill:url(#radial-gradient-3);}.cls-8{fill:url(#radial-gradient-4);}.cls-9{fill:url(#radial-gradient-5);}.cls-10{fill:url(#radial-gradient-6);}.cls-11{fill:#e6e6e6;}</style><radialGradient id="radial-gradient" cx="290.5" cy="520.5" r="376.4845" gradientTransform="translate(0 -311.7425) scale(1 1.5989)" gradientUnits="userSpaceOnUse"><stop offset="0" stop-color="#fff"/><stop offset="0.2473" stop-color="#f8f8f8"/><stop offset="0.4249" stop-color="#d8d8d8"/><stop offset="0.813" stop-color="#858585"/><stop offset="0.9987" stop-color="#5c5c5c"/></radialGradient><radialGradient id="radial-gradient-2" cx="290.5" r="368.7645" gradientTransform="translate(0 -324.2306) scale(1 1.6229)" xlink:href="#radial-gradient"/><radialGradient id="radial-gradient-3" cx="291" cy="905" r="46" gradientTransform="matrix(1, 0, 0, 1, 0, 0)" xlink:href="#radial-gradient"/><radialGradient id="radial-gradient-4" cx="217" cy="113.2349" r="8.1845" gradientTransform="translate(0 -5.1646) scale(1 1.0456)" xlink:href="#radial-gradient"/><radialGradient id="radial-gradient-5" cx="291" cy="88.1403" r="8.1845" gradientTransform="translate(0 -4.0201) scale(1 1.0456)" xlink:href="#radial-gradient"/><radialGradient id="radial-gradient-6" cx="291" cy="905" r="35" gradientTransform="matrix(1, 0, 0, 1, 0, 0)" xlink:href="#radial-gradient"/></defs><title>Artboard 27</title><g id="iphonebund"><rect class="cls-1" x="33.8702" y="54" width="513.2595" height="933" rx="41.256"/><path class="cls-2" d="M505.8738,55A40.3017,40.3017,0,0,1,546.13,95.256V945.744A40.3017,40.3017,0,0,1,505.8738,986H75.1262A40.3017,40.3017,0,0,1,34.87,945.744V95.256A40.3017,40.3017,0,0,1,75.1262,55H505.8738m0-1H75.1262A41.3773,41.3773,0,0,0,33.87,95.256V945.744A41.3773,41.3773,0,0,0,75.1262,987H505.8738a41.3773,41.3773,0,0,0,41.256-41.256V95.256A41.3773,41.3773,0,0,0,505.8738,54Z"/><rect class="cls-3" x="42" y="62" width="497" height="917" rx="35.2253"/><path class="cls-4" d="M503.7747,63A34.2641,34.2641,0,0,1,538,97.2253V943.7747A34.2641,34.2641,0,0,1,503.7747,978H77.2253A34.2641,34.2641,0,0,1,43,943.7747V97.2253A34.2641,34.2641,0,0,1,77.2253,63H503.7747m0-1H77.2253A35.3288,35.3288,0,0,0,42,97.2253V943.7747A35.3288,35.3288,0,0,0,77.2253,979H503.7747A35.3288,35.3288,0,0,0,539,943.7747V97.2253A35.3288,35.3288,0,0,0,503.7747,62Z"/><rect class="cls-5" x="80" y="149.8312" width="422" height="694.2851"/><circle class="cls-6" cx="291" cy="905" r="46"/><path class="cls-7" d="M291,860a45,45,0,1,1-45,45,45.0509,45.0509,0,0,1,45-45m0-1a46,46,0,1,0,46,46,46,46,0,0,0-46-46Z"/><rect class="cls-6" x="245" y="104.87" width="92" height="16.7298" rx="8"/><rect class="cls-6" x="209" y="104.87" width="16" height="16.7298" rx="8"/><path class="cls-8" d="M217,105.87a7.0079,7.0079,0,0,1,7,7v.73a7,7,0,1,1-14,0v-.73a7.0079,7.0079,0,0,1,7-7m0-1a8.0235,8.0235,0,0,0-8,8v.73a8,8,0,1,0,16,0v-.73a8.0235,8.0235,0,0,0-8-8Z"/><rect class="cls-6" x="283" y="79.7754" width="16" height="16.7298" rx="8"/><path class="cls-9" d="M291,80.7754a7.0079,7.0079,0,0,1,7,7v.73a7,7,0,0,1-14,0v-.73a7.0079,7.0079,0,0,1,7-7m0-1a8.0235,8.0235,0,0,0-8,8v.73a8,8,0,0,0,16,0v-.73a8.0235,8.0235,0,0,0-8-8Z"/><circle class="cls-3" cx="291" cy="905" r="35"/><path class="cls-10" d="M291,871a34,34,0,1,1-34,34,34.0385,34.0385,0,0,1,34-34m0-1a35,35,0,1,0,35,35,35,35,0,0,0-35-35Z"/></g><g id="Spørgsmål"><path class="cls-11" d="M438.24,171H143.76A42.76,42.76,0,0,0,101,213.76V344.24A42.76,42.76,0,0,0,143.76,387H380.525L372,449l59.675-62H438.24A42.76,42.76,0,0,0,481,344.24V213.76A42.76,42.76,0,0,0,438.24,171Z"/><path d="M112.66,193.5723a43.5836,43.5836,0,0,1,6.4755-.49c4.376,0,7.4913,1.0157,9.5567,2.9405,2.1,1.9248,3.3252,4.6552,3.3252,8.4707a12.4778,12.4778,0,0,1-3.3955,9.1709c-2.2051,2.205-5.8457,3.3955-10.4317,3.3955a48.9569,48.9569,0,0,1-5.53-.28Zm3.0459,20.8623a19.2712,19.2712,0,0,0,3.08.1748c6.5108,0,10.0459-3.6406,10.0459-10.0108.0352-5.5654-3.1152-9.1015-9.5556-9.1015a17.309,17.309,0,0,0-3.57.3154Z"/><path d="M139.2949,195.1475a1.9078,1.9078,0,0,1-3.8154,0,1.878,1.878,0,0,1,1.9258-1.9258A1.8284,1.8284,0,0,1,139.2949,195.1475Zm-3.43,21.7021V199.9082h3.08V216.85Z"/><path d="M144.0547,204.4932c0-1.75-.0352-3.1856-.1406-4.585h2.73l.1748,2.8h.07a6.2292,6.2292,0,0,1,5.6006-3.1855c2.3448,0,5.9854,1.4,5.9854,7.2109V216.85h-3.08V207.084c0-2.7305-1.0146-5.0059-3.9209-5.0059a4.3774,4.3774,0,0,0-4.13,3.15,4.4388,4.4388,0,0,0-.21,1.4346V216.85h-3.08Z"/><path d="M172.0889,199.9082l3.3252,9.52a43.32,43.32,0,0,1,1.3652,4.3408h.1055c.3847-1.4.875-2.8007,1.4345-4.3408l3.2911-9.52h3.22L178.18,216.85h-2.94l-6.44-16.9414Z"/><path d="M189.1,208.9385c.07,4.166,2.73,5.8808,5.8106,5.8808a11.1362,11.1362,0,0,0,4.69-.875l.5254,2.2051a13.7214,13.7214,0,0,1-5.6358,1.05c-5.2158,0-8.331-3.43-8.331-8.54s3.0107-9.1367,7.9463-9.1367c5.53,0,7,4.8662,7,7.9814a11.6033,11.6033,0,0,1-.1045,1.4346Zm9.0313-2.2051c.0341-1.96-.8057-5.0049-4.27-5.0049-3.1153,0-4.4805,2.87-4.7256,5.0049Z"/><path d="M204.92,204.4932c0-1.75-.0351-3.1856-.1406-4.585H207.51l.1748,2.8h.07a6.2289,6.2289,0,0,1,5.6006-3.1855c2.3447,0,5.9853,1.4,5.9853,7.2109V216.85h-3.08V207.084c0-2.7305-1.0146-5.0059-3.9209-5.0059a4.3773,4.3773,0,0,0-4.13,3.15,4.436,4.436,0,0,0-.21,1.4346V216.85h-3.08Z"/><path d="M227.7744,195.1475a1.9078,1.9078,0,0,1-3.8154,0,1.8779,1.8779,0,0,1,1.9258-1.9258A1.8284,1.8284,0,0,1,227.7744,195.1475Zm-3.43,21.7021V199.9082h3.08V216.85Z"/><path d="M232.5342,204.4932c0-1.75-.0352-3.1856-.1406-4.585h2.73l.1748,2.8h.07a6.2291,6.2291,0,0,1,5.6006-3.1855c2.3448,0,5.9854,1.4,5.9854,7.2109V216.85h-3.08V207.084c0-2.7305-1.0156-5.0059-3.9209-5.0059a4.3774,4.3774,0,0,0-4.13,3.15,4.4388,4.4388,0,0,0-.21,1.4346V216.85h-3.08Z"/><path d="M266.59,191.9971v20.4775c0,1.5049.0352,3.22.1407,4.375h-2.7657l-.14-2.94h-.07a6.2666,6.2666,0,0,1-5.7754,3.3252c-4.0957,0-7.2461-3.4649-7.2461-8.61-.0352-5.6357,3.4658-9.1015,7.5957-9.1015a5.663,5.663,0,0,1,5.11,2.5908h.07V191.9971Zm-3.08,14.8066a5.4614,5.4614,0,0,0-.14-1.2949,4.53,4.53,0,0,0-4.4463-3.57c-3.1845,0-5.0752,2.8-5.0752,6.5449,0,3.4307,1.6807,6.2656,5.0059,6.2656a4.631,4.631,0,0,0,4.5156-3.6748,5.3728,5.3728,0,0,0,.14-1.33Z"/><path d="M273.4141,208.9385c.07,4.166,2.73,5.8808,5.81,5.8808a11.1355,11.1355,0,0,0,4.69-.875l.5254,2.2051a13.72,13.72,0,0,1-5.6357,1.05c-5.2158,0-8.3311-3.43-8.3311-8.54s3.0108-9.1367,7.9463-9.1367c5.53,0,7,4.8662,7,7.9814a11.5834,11.5834,0,0,1-.1045,1.4346Zm9.0312-2.2051c.0342-1.96-.8057-5.0049-4.27-5.0049-3.1152,0-4.4805,2.87-4.7256,5.0049Z"/><path d="M297.8438,199.9082l3.3251,9.52a43.2955,43.2955,0,0,1,1.3653,4.3408h.1054c.3848-1.4.875-2.8007,1.4346-4.3408l3.291-9.52h3.22l-6.65,16.9414h-2.94l-6.44-16.9414Z"/><path d="M316.9189,195.1475a1.9078,1.9078,0,0,1-3.8154,0,1.878,1.878,0,0,1,1.9258-1.9258A1.8283,1.8283,0,0,1,316.9189,195.1475Zm-3.43,21.7021V199.9082h3.08V216.85Z"/><path d="M336.31,191.9971v20.4775c0,1.5049.0351,3.22.1406,4.375h-2.7656l-.14-2.94h-.07a6.2664,6.2664,0,0,1-5.7754,3.3252c-4.0957,0-7.2461-3.4649-7.2461-8.61-.0351-5.6357,3.4658-9.1015,7.5957-9.1015a5.663,5.663,0,0,1,5.11,2.5908h.07V191.9971Zm-3.08,14.8066a5.4614,5.4614,0,0,0-.14-1.2949,4.53,4.53,0,0,0-4.4453-3.57c-3.1855,0-5.0761,2.8-5.0761,6.5449,0,3.4307,1.6806,6.2656,5.0058,6.2656a4.631,4.631,0,0,0,4.5156-3.6748,5.3728,5.3728,0,0,0,.14-1.33Z"/><path d="M343.1338,208.9385c.07,4.166,2.7305,5.8808,5.81,5.8808a11.1363,11.1363,0,0,0,4.69-.875l.5254,2.2051a13.7214,13.7214,0,0,1-5.6358,1.05c-5.2158,0-8.331-3.43-8.331-8.54s3.0107-9.1367,7.9462-9.1367c5.53,0,7,4.8662,7,7.9814a11.6075,11.6075,0,0,1-.1044,1.4346Zm9.0312-2.2051c.0342-1.96-.8056-5.0049-4.2705-5.0049-3.1152,0-4.48,2.87-4.7256,5.0049Z"/><path d="M358.9541,205.1934c0-1.9952-.0352-3.71-.1406-5.2852h2.6953l.1055,3.3252h.14a5.0835,5.0835,0,0,1,4.69-3.7109,3.3159,3.3159,0,0,1,.875.1054v2.9053a4.602,4.602,0,0,0-1.05-.1055c-2.17,0-3.7109,1.6455-4.1308,3.9561a8.7353,8.7353,0,0,0-.14,1.4346V216.85h-3.0449Z"/><path d="M371.7646,208.9385c.07,4.166,2.7305,5.8808,5.8106,5.8808a11.1355,11.1355,0,0,0,4.69-.875l.5254,2.2051a13.72,13.72,0,0,1-5.6357,1.05c-5.2158,0-8.3311-3.43-8.3311-8.54s3.0108-9.1367,7.9463-9.1367c5.53,0,7,4.8662,7,7.9814a11.5834,11.5834,0,0,1-.1045,1.4346Zm9.0313-2.2051c.0342-1.96-.8057-5.0049-4.2705-5.0049-3.1152,0-4.4805,2.87-4.7256,5.0049Z"/><path d="M387.1641,213.6992a8.0772,8.0772,0,0,0,4.06,1.2256c2.24,0,3.291-1.12,3.291-2.52,0-1.4707-.875-2.2754-3.15-3.1152-3.0459-1.085-4.48-2.7657-4.48-4.7959,0-2.7305,2.205-4.9707,5.8457-4.9707a8.4509,8.4509,0,0,1,4.165,1.0507l-.7705,2.24a6.5918,6.5918,0,0,0-3.4648-.9805c-1.82,0-2.835,1.05-2.835,2.3106,0,1.3994,1.0146,2.03,3.22,2.87,2.9405,1.12,4.4453,2.59,4.4453,5.11,0,2.9756-2.31,5.0752-6.3349,5.0752a9.6725,9.6725,0,0,1-4.7608-1.1543Z"/><path d="M403.1592,208.9385c.07,4.166,2.73,5.8808,5.81,5.8808a11.1363,11.1363,0,0,0,4.69-.875l.5253,2.2051a13.72,13.72,0,0,1-5.6357,1.05c-5.2158,0-8.331-3.43-8.331-8.54s3.0107-9.1367,7.9462-9.1367c5.53,0,7,4.8662,7,7.9814a11.5834,11.5834,0,0,1-.1045,1.4346Zm9.0312-2.2051c.0342-1.96-.8056-5.0049-4.2705-5.0049-3.1152,0-4.48,2.87-4.7256,5.0049Z"/><path d="M418.98,204.4932c0-1.75-.0352-3.1856-.1406-4.585h2.73l.1748,2.8h.07a6.2289,6.2289,0,0,1,5.6005-3.1855c2.3448,0,5.9854,1.4,5.9854,7.2109V216.85h-3.08V207.084c0-2.7305-1.0156-5.0059-3.9209-5.0059a4.3774,4.3774,0,0,0-4.13,3.15,4.4388,4.4388,0,0,0-.21,1.4346V216.85h-3.08Z"/><path d="M453.0352,191.9971v20.4775c0,1.5049.0351,3.22.1406,4.375H450.41l-.14-2.94h-.07a6.2664,6.2664,0,0,1-5.7754,3.3252c-4.0957,0-7.2461-3.4649-7.2461-8.61-.0351-5.6357,3.4658-9.1015,7.5957-9.1015a5.663,5.663,0,0,1,5.11,2.5908h.07V191.9971Zm-3.08,14.8066a5.4614,5.4614,0,0,0-.14-1.2949,4.53,4.53,0,0,0-4.4463-3.57c-3.1845,0-5.0752,2.8-5.0752,6.5449,0,3.4307,1.6807,6.2656,5.0059,6.2656a4.631,4.631,0,0,0,4.5156-3.6748,5.3728,5.3728,0,0,0,.14-1.33Z"/><path d="M465.2852,206.2432v2.2754h-8.6465v-2.2754Z"/><path d="M114.2705,250.9385c.07,4.166,2.7305,5.8808,5.8106,5.8808a11.1362,11.1362,0,0,0,4.69-.875l.5254,2.2051a13.7214,13.7214,0,0,1-5.6358,1.05c-5.2158,0-8.331-3.43-8.331-8.54s3.0107-9.1367,7.9463-9.1367c5.53,0,7,4.8662,7,7.9814a11.6033,11.6033,0,0,1-.1045,1.4346Zm9.0313-2.2051c.0341-1.96-.8057-5.0049-4.2706-5.0049-3.1152,0-4.48,2.87-4.7255,5.0049Z"/><path d="M130.0908,247.1934c0-1.9952-.0351-3.71-.1406-5.2852h2.6953l.1055,3.3252h.14a5.0835,5.0835,0,0,1,4.69-3.7109,3.317,3.317,0,0,1,.875.1054v2.9053a4.6036,4.6036,0,0,0-1.05-.1055c-2.17,0-3.7109,1.6455-4.1308,3.9561a8.7463,8.7463,0,0,0-.14,1.4346V258.85h-3.0449Z"/><path d="M163.5869,233.9971v20.4775c0,1.5049.0352,3.22.1406,4.375h-2.7656l-.14-2.94h-.07a6.2667,6.2667,0,0,1-5.7754,3.3252c-4.0957,0-7.2461-3.4649-7.2461-8.61-.0352-5.6357,3.4658-9.1015,7.5957-9.1015a5.6627,5.6627,0,0,1,5.11,2.5908h.07V233.9971Zm-3.08,14.8066a5.4613,5.4613,0,0,0-.14-1.2949,4.53,4.53,0,0,0-4.4453-3.57c-3.1856,0-5.0762,2.8-5.0762,6.5449,0,3.4307,1.6807,6.2656,5.0059,6.2656a4.6311,4.6311,0,0,0,4.5156-3.6748,5.373,5.373,0,0,0,.14-1.33Z"/><path d="M172.126,237.1475a1.9078,1.9078,0,0,1-3.8155,0,1.878,1.878,0,0,1,1.9258-1.9258A1.8284,1.8284,0,0,1,172.126,237.1475Zm-3.43,21.7021V241.9082h3.08V258.85Z"/><path d="M191.4814,241.9082c-.0693,1.2246-.14,2.59-.14,4.6553v9.8359c0,3.8858-.7695,6.2656-2.415,7.7354a8.9781,8.9781,0,0,1-6.1612,2.03,10.9278,10.9278,0,0,1-5.6347-1.3994L177.9,262.42a9.5517,9.5517,0,0,0,4.9707,1.33c3.15,0,5.4609-1.6455,5.4609-5.915v-1.8907h-.07a6.0483,6.0483,0,0,1-5.3906,2.835c-4.2,0-7.2109-3.57-7.2109-8.2607,0-5.74,3.7451-8.9961,7.6308-8.9961a5.633,5.633,0,0,1,5.2852,2.94h.07l.14-2.5547Zm-3.1845,6.6856a4.3694,4.3694,0,0,0-.1758-1.4,4.4356,4.4356,0,0,0-4.3047-3.2549c-2.94,0-5.041,2.4844-5.041,6.4053,0,3.3251,1.6807,6.0908,5.0058,6.0908a4.5042,4.5042,0,0,0,4.2706-3.15,5.3679,5.3679,0,0,0,.2451-1.6455Z"/><path d="M205.585,250.9385c.07,4.166,2.73,5.8808,5.81,5.8808a11.1355,11.1355,0,0,0,4.69-.875l.5254,2.2051a13.72,13.72,0,0,1-5.6357,1.05c-5.2158,0-8.3311-3.43-8.3311-8.54s3.0108-9.1367,7.9463-9.1367c5.53,0,7,4.8662,7,7.9814a11.5834,11.5834,0,0,1-.1045,1.4346Zm9.0312-2.2051c.0342-1.96-.8057-5.0049-4.27-5.0049-3.1152,0-4.4805,2.87-4.7256,5.0049Z"/><path d="M225.1152,237.042v4.8662h4.41v2.3447h-4.41v9.1358c0,2.1006.5948,3.291,2.3106,3.291a6.8806,6.8806,0,0,0,1.7851-.21l.14,2.31a7.5381,7.5381,0,0,1-2.73.42,4.27,4.27,0,0,1-3.3252-1.2949c-.875-.91-1.19-2.415-1.19-4.41v-9.2412H219.48v-2.3447h2.625v-4.06Z"/><path d="M255.041,233.9971v20.4775c0,1.5049.0352,3.22.1406,4.375H252.416l-.14-2.94h-.07a6.2667,6.2667,0,0,1-5.7754,3.3252c-4.0957,0-7.2461-3.4649-7.2461-8.61-.0352-5.6357,3.4658-9.1015,7.5957-9.1015a5.6627,5.6627,0,0,1,5.11,2.5908h.07V233.9971Zm-3.08,14.8066a5.4613,5.4613,0,0,0-.14-1.2949,4.53,4.53,0,0,0-4.4463-3.57c-3.1846,0-5.0752,2.8-5.0752,6.5449,0,3.4307,1.6807,6.2656,5.0059,6.2656a4.6311,4.6311,0,0,0,4.5156-3.6748,5.373,5.373,0,0,0,.14-1.33Z"/><path d="M263.58,237.1475a1.9078,1.9078,0,0,1-3.8155,0,1.878,1.878,0,0,1,1.9258-1.9258A1.8284,1.8284,0,0,1,263.58,237.1475ZM260.15,258.85V241.9082h3.08V258.85Z"/><path d="M280.416,258.22a11.3551,11.3551,0,0,1-4.8662.98c-5.11,0-8.4355-3.4648-8.4355-8.6455,0-5.2158,3.57-8.9961,9.1005-8.9961a10.2985,10.2985,0,0,1,4.2706.875l-.7,2.3809a7.14,7.14,0,0,0-3.57-.8057c-3.8847,0-5.9853,2.87-5.9853,6.4063,0,3.92,2.5205,6.3349,5.8809,6.3349a8.7557,8.7557,0,0,0,3.78-.84Z"/><path d="M284.02,247.4385c0-2.17-.07-3.9209-.1406-5.53h2.7656l.14,2.9053h.07a6.66,6.66,0,0,1,6.0205-3.291c4.0957,0,7.1758,3.4658,7.1758,8.6113,0,6.0908-3.71,9.1006-7.7012,9.1006a5.938,5.938,0,0,1-5.2148-2.66h-.07V265.78H284.02Zm3.045,4.5156a6.9942,6.9942,0,0,0,.14,1.26,4.7537,4.7537,0,0,0,4.6211,3.6054c3.2549,0,5.1455-2.66,5.1455-6.5459,0-3.3955-1.7852-6.3007-5.041-6.3007a4.916,4.916,0,0,0-4.6553,3.8154,5.029,5.029,0,0,0-.21,1.2607Z"/><path d="M307.3633,237.1475a1.9078,1.9078,0,0,1-3.8154,0,1.8779,1.8779,0,0,1,1.9257-1.9258A1.8284,1.8284,0,0,1,307.3633,237.1475Zm-3.43,21.7021V241.9082h3.08V258.85Z"/><path d="M324.1992,258.22a11.3551,11.3551,0,0,1-4.8662.98c-5.11,0-8.4355-3.4648-8.4355-8.6455,0-5.2158,3.57-8.9961,9.1005-8.9961a10.2985,10.2985,0,0,1,4.2706.875l-.7,2.3809a7.14,7.14,0,0,0-3.57-.8057c-3.8847,0-5.9853,2.87-5.9853,6.4063,0,3.92,2.5205,6.3349,5.8809,6.3349a8.7557,8.7557,0,0,0,3.78-.84Z"/><path d="M334.8018,255.6992a8.0772,8.0772,0,0,0,4.06,1.2256c2.24,0,3.291-1.12,3.291-2.52,0-1.4707-.875-2.2754-3.15-3.1152-3.0459-1.085-4.48-2.7657-4.48-4.7959,0-2.7305,2.205-4.9707,5.8457-4.9707a8.4509,8.4509,0,0,1,4.165,1.0507l-.7705,2.24a6.5921,6.5921,0,0,0-3.4648-.9805c-1.82,0-2.835,1.05-2.835,2.3106,0,1.3994,1.0146,2.03,3.22,2.87,2.94,1.12,4.4453,2.59,4.4453,5.11,0,2.9756-2.31,5.0752-6.3349,5.0752a9.6725,9.6725,0,0,1-4.7608-1.1543Z"/><path d="M364.4141,250.2383c0,6.2656-4.34,8.9961-8.4356,8.9961-4.5859,0-8.1211-3.36-8.1211-8.7158,0-5.6709,3.711-8.9961,8.4014-8.9961C361.124,241.5225,364.4141,245.0586,364.4141,250.2383Zm-13.4414.1758c0,3.71,2.1357,6.5107,5.1455,6.5107,2.94,0,5.1455-2.7656,5.1455-6.581,0-2.87-1.4346-6.5108-5.0752-6.5108S350.9727,247.1934,350.9727,250.4141Z"/><path d="M368.2979,246.4932c0-1.75-.0352-3.1856-.1407-4.585h2.6953l.1407,2.73h.1045a5.841,5.841,0,0,1,5.32-3.1152,5.0092,5.0092,0,0,1,4.7959,3.3955h.07a6.9689,6.9689,0,0,1,1.89-2.2051,5.7814,5.7814,0,0,1,3.7451-1.19c2.24,0,5.5665,1.4707,5.5665,7.3515V258.85h-3.0108v-9.5908c0-3.2559-1.19-5.2158-3.6758-5.2158a3.986,3.986,0,0,0-3.64,2.8008,5.05,5.05,0,0,0-.2451,1.54V258.85h-3.0108V248.6982c0-2.6953-1.1894-4.6552-3.5351-4.6552a4.21,4.21,0,0,0-3.8155,3.08,4.2539,4.2539,0,0,0-.2451,1.5059V258.85h-3.01Z"/><path d="M404.9082,233.9971h3.08v10.5713h.07a5.7137,5.7137,0,0,1,2.2051-2.1709,6.3452,6.3452,0,0,1,3.15-.875c2.2744,0,5.915,1.4,5.915,7.2461V258.85h-3.08v-9.7314c0-2.73-1.0146-5.04-3.9209-5.04a4.425,4.425,0,0,0-4.13,3.08,3.7341,3.7341,0,0,0-.21,1.4707V258.85h-3.08Z"/><path d="M438.5088,254.23c0,1.75.0351,3.29.1406,4.62h-2.7305l-.1748-2.7656h-.07a6.3731,6.3731,0,0,1-5.6006,3.15c-2.66,0-5.8457-1.47-5.8457-7.4209v-9.9053h3.08v9.3809c0,3.22.9805,5.3906,3.78,5.3906a4.3348,4.3348,0,0,0,4.3408-4.376V241.9082h3.08Z"/><path d="M443.6182,246.4932c0-1.75-.0352-3.1856-.1407-4.585h2.7305l.1748,2.8h.07a6.2291,6.2291,0,0,1,5.6006-3.1855c2.3447,0,5.9854,1.4,5.9854,7.2109V258.85h-3.08V249.084c0-2.7305-1.0156-5.0059-3.9209-5.0059a4.3774,4.3774,0,0,0-4.13,3.15,4.4387,4.4387,0,0,0-.21,1.4346V258.85h-3.08Z"/><path d="M112.5557,275.9971h3.08v10.5713h.07a5.7127,5.7127,0,0,1,2.205-2.1709,6.3455,6.3455,0,0,1,3.15-.875c2.2744,0,5.9151,1.4,5.9151,7.2461V300.85h-3.08v-9.7314c0-2.73-1.0156-5.04-3.9209-5.04a4.425,4.425,0,0,0-4.13,3.08,3.734,3.734,0,0,0-.21,1.4707V300.85h-3.08Z"/><path d="M141.3613,300.85l-.2451-2.1348h-.1055a6.3078,6.3078,0,0,1-5.1806,2.52,4.8263,4.8263,0,0,1-5.18-4.8653c0-4.0957,3.64-6.3359,10.1855-6.3007v-.35c0-1.4-.3847-3.9209-3.8505-3.9209a8.4373,8.4373,0,0,0-4.41,1.2607l-.7-2.03a10.5159,10.5159,0,0,1,5.5654-1.5058c5.1807,0,6.44,3.5361,6.44,6.9306v6.336a23.8636,23.8636,0,0,0,.28,4.06Zm-.4551-8.6455c-3.36-.07-7.1757.5244-7.1757,3.8154a2.7252,2.7252,0,0,0,2.9052,2.94,4.215,4.215,0,0,0,4.0957-2.835,3.232,3.232,0,0,0,.1748-.98Z"/><path d="M148.8506,289.1934c0-1.9952-.0352-3.71-.1406-5.2852h2.6953l.1054,3.3252h.14a5.0835,5.0835,0,0,1,4.69-3.7109,3.3165,3.3165,0,0,1,.875.1054v2.9053a4.6026,4.6026,0,0,0-1.05-.1055c-2.17,0-3.7109,1.6455-4.1308,3.9561a8.7353,8.7353,0,0,0-.14,1.4346V300.85h-3.0449Z"/><path d="M168.03,300.85V286.2529h-2.38v-2.3447h2.38v-.8057c0-2.38.5254-4.55,1.96-5.915a5.895,5.895,0,0,1,4.1309-1.5752,7.1591,7.1591,0,0,1,2.625.4893l-.42,2.3808a4.6018,4.6018,0,0,0-1.96-.3847c-2.625,0-3.29,2.31-3.29,4.9v.91h4.0947v2.3447h-4.0947V300.85Z"/><path d="M187.3164,300.85l-.2451-2.1348h-.1055a6.3078,6.3078,0,0,1-5.1806,2.52,4.8263,4.8263,0,0,1-5.18-4.8653c0-4.0957,3.64-6.3359,10.1855-6.3007v-.35c0-1.4-.3848-3.9209-3.8506-3.9209a8.437,8.437,0,0,0-4.41,1.2607l-.7-2.03a10.5157,10.5157,0,0,1,5.5654-1.5058c5.1807,0,6.44,3.5361,6.44,6.9306v6.336a23.8527,23.8527,0,0,0,.28,4.06Zm-.4551-8.6455c-3.36-.07-7.1758.5244-7.1758,3.8154a2.7253,2.7253,0,0,0,2.9053,2.94,4.215,4.215,0,0,0,4.0957-2.835,3.232,3.232,0,0,0,.1748-.98Zm-6.6162-13.3369a3.3047,3.3047,0,0,1,3.57-3.3252,3.2477,3.2477,0,0,1,3.4658,3.29,3.5336,3.5336,0,0,1-7.0361.0352Zm5.3213-.07a1.7778,1.7778,0,1,0-3.5361.07,1.7749,1.7749,0,1,0,3.5361-.07Z"/><path d="M196.5205,292.9385c.07,4.166,2.7305,5.8808,5.8106,5.8808a11.1362,11.1362,0,0,0,4.69-.875l.5254,2.2051a13.7214,13.7214,0,0,1-5.6358,1.05c-5.2158,0-8.331-3.43-8.331-8.54s3.0107-9.1367,7.9463-9.1367c5.53,0,7,4.8662,7,7.9814a11.6033,11.6033,0,0,1-.1045,1.4346Zm9.0313-2.2051c.0341-1.96-.8057-5.0049-4.2706-5.0049-3.1152,0-4.48,2.87-4.7255,5.0049Z"/><path d="M216.0508,279.042v4.8662h4.41v2.3447h-4.41v9.1358c0,2.1006.5947,3.291,2.31,3.291a6.8821,6.8821,0,0,0,1.7852-.21l.14,2.31a7.5375,7.5375,0,0,1-2.73.42,4.27,4.27,0,0,1-3.3252-1.2949c-.875-.91-1.1905-2.415-1.1905-4.41v-9.2412h-2.625v-2.3447h2.625v-4.0605Z"/><path d="M240.7266,300.85l-.2452-2.1348h-.1054a6.3081,6.3081,0,0,1-5.1807,2.52,4.8263,4.8263,0,0,1-5.18-4.8653c0-4.0957,3.64-6.3359,10.1856-6.3007v-.35c0-1.4-.3848-3.9209-3.8506-3.9209a8.4376,8.4376,0,0,0-4.41,1.2607l-.7-2.03a10.516,10.516,0,0,1,5.5655-1.5058c5.1806,0,6.44,3.5361,6.44,6.9306v6.336a23.8527,23.8527,0,0,0,.28,4.06Zm-.4551-8.6455c-3.36-.07-7.1758.5244-7.1758,3.8154a2.7253,2.7253,0,0,0,2.9053,2.94,4.2151,4.2151,0,0,0,4.0957-2.835,3.232,3.232,0,0,0,.1748-.98Z"/><path d="M248.53,300.85V286.2529h-2.38v-2.3447h2.38v-.8057c0-2.38.5254-4.55,1.96-5.915a5.895,5.895,0,0,1,4.1309-1.5752,7.1591,7.1591,0,0,1,2.625.4893l-.42,2.3808a4.6018,4.6018,0,0,0-1.96-.3847c-2.625,0-3.29,2.31-3.29,4.9v.91h4.0947v2.3447h-4.0947V300.85Z"/><path d="M285.8418,290.4883c-.1748-3.29-.3848-7.2451-.35-10.1856h-.1055c-.8047,2.7647-1.7851,5.7051-2.9746,8.961l-4.166,11.4463h-2.31l-3.8154-11.2364c-1.12-3.3252-2.0654-6.3711-2.7305-9.1709h-.07c-.07,2.94-.2451,6.8955-.4551,10.4307l-.63,10.1162H265.33l1.6455-23.5928H270.86l4.0253,11.4112c.9805,2.9052,1.7852,5.4961,2.3809,7.9463h.1045c.5957-2.38,1.4355-4.9707,2.4853-7.9463l4.2-11.4112h3.8858l1.47,23.5928h-2.9746Z"/><path d="M303.5859,300.85l-.2451-2.1348h-.1054a6.3081,6.3081,0,0,1-5.1807,2.52,4.8263,4.8263,0,0,1-5.18-4.8653c0-4.0957,3.64-6.3359,10.1855-6.3007v-.35c0-1.4-.3847-3.9209-3.8505-3.9209a8.4373,8.4373,0,0,0-4.41,1.2607l-.7-2.03a10.5159,10.5159,0,0,1,5.5654-1.5058c5.1807,0,6.44,3.5361,6.44,6.9306v6.336a23.8636,23.8636,0,0,0,.28,4.06Zm-.455-8.6455c-3.36-.07-7.1758.5244-7.1758,3.8154a2.7253,2.7253,0,0,0,2.9053,2.94,4.2152,4.2152,0,0,0,4.0957-2.835,3.2351,3.2351,0,0,0,.1748-.98Z"/><path d="M325.7061,275.9971v20.4775c0,1.5049.0351,3.22.1406,4.375h-2.7656l-.14-2.94h-.07a6.2664,6.2664,0,0,1-5.7754,3.3252c-4.0957,0-7.2461-3.4649-7.2461-8.61-.0351-5.6357,3.4658-9.1015,7.5957-9.1015a5.663,5.663,0,0,1,5.11,2.5908h.07V275.9971Zm-3.08,14.8066a5.4614,5.4614,0,0,0-.14-1.2949,4.53,4.53,0,0,0-4.4453-3.57c-3.1855,0-5.0762,2.8-5.0762,6.5449,0,3.4307,1.6807,6.2656,5.0059,6.2656a4.631,4.631,0,0,0,4.5156-3.6748,5.3728,5.3728,0,0,0,.14-1.33Z"/><path d="M330.3945,297.6992a8.0776,8.0776,0,0,0,4.0606,1.2256c2.24,0,3.291-1.12,3.291-2.5205,0-1.4707-.875-2.2754-3.15-3.1152-3.0459-1.085-4.4805-2.7657-4.4805-4.7959,0-2.7305,2.2051-4.9707,5.8457-4.9707a8.451,8.451,0,0,1,4.1651,1.0507l-.77,2.24a6.5925,6.5925,0,0,0-3.4649-.98c-1.82,0-2.8349,1.05-2.8349,2.3106,0,1.3994,1.0146,2.03,3.22,2.87,2.94,1.12,4.4453,2.59,4.4453,5.11,0,2.9756-2.31,5.0752-6.335,5.0752a9.6721,9.6721,0,0,1-4.7607-1.1543Z"/><path d="M352.41,300.85V286.2529h-2.38v-2.3447h2.38v-.8057c0-2.38.5253-4.55,1.96-5.915a5.895,5.895,0,0,1,4.1309-1.5752,7.16,7.16,0,0,1,2.625.4893l-.42,2.3808a4.6018,4.6018,0,0,0-1.96-.3847c-2.625,0-3.29,2.31-3.29,4.9v.91h4.0947v2.3447h-4.0947V300.85Z"/><path d="M362.3154,289.1934c0-1.9952-.0351-3.71-.1406-5.2852H364.87l.1055,3.3252h.14a5.0835,5.0835,0,0,1,4.69-3.7109,3.317,3.317,0,0,1,.875.1054v2.9053a4.6033,4.6033,0,0,0-1.05-.1055c-2.17,0-3.711,1.6455-4.1309,3.9561a8.7469,8.7469,0,0,0-.14,1.4346V300.85h-3.045Z"/><path d="M382.9668,300.85l-.2451-2.1348h-.1055a6.3078,6.3078,0,0,1-5.1807,2.52,4.8262,4.8262,0,0,1-5.18-4.8653c0-4.0957,3.64-6.3359,10.1855-6.3007v-.35c0-1.4-.3848-3.9209-3.8506-3.9209a8.437,8.437,0,0,0-4.41,1.2607l-.7-2.03a10.5157,10.5157,0,0,1,5.5654-1.5058c5.1807,0,6.44,3.5361,6.44,6.9306v6.336a23.8527,23.8527,0,0,0,.28,4.06Zm-.4551-8.6455c-3.36-.07-7.1758.5244-7.1758,3.8154a2.7253,2.7253,0,0,0,2.9053,2.94,4.215,4.215,0,0,0,4.0957-2.835,3.232,3.232,0,0,0,.1748-.98Z"/><path d="M400.9209,291.6787h.07c.42-.5947,1.0147-1.33,1.5049-1.9248l4.9707-5.8457h3.71l-6.5459,6.9658,7.456,9.9756h-3.7451l-5.8457-8.1211-1.5752,1.75V300.85H397.876V275.9971h3.0449Z"/><path d="M414.8857,275.9971h3.08V300.85h-3.08Z"/><path d="M432.5264,300.85l-.2452-2.1348h-.1054a6.3094,6.3094,0,0,1-5.1807,2.52,4.8263,4.8263,0,0,1-5.18-4.8653c0-4.0957,3.64-6.3359,10.1856-6.3007v-.35c0-1.4-.3848-3.9209-3.8506-3.9209a8.4376,8.4376,0,0,0-4.41,1.2607l-.7-2.03a10.516,10.516,0,0,1,5.5655-1.5058c5.1806,0,6.44,3.5361,6.44,6.9306v6.336a23.8527,23.8527,0,0,0,.28,4.06Zm-.4551-8.6455c-3.36-.07-7.1758.5244-7.1758,3.8154a2.7253,2.7253,0,0,0,2.9053,2.94,4.2151,4.2151,0,0,0,4.0957-2.835,3.232,3.232,0,0,0,.1748-.98Z"/><path d="M439.5947,297.6992a8.0776,8.0776,0,0,0,4.0606,1.2256c2.24,0,3.291-1.12,3.291-2.5205,0-1.4707-.875-2.2754-3.15-3.1152-3.0459-1.085-4.4805-2.7657-4.4805-4.7959,0-2.7305,2.2051-4.9707,5.8457-4.9707a8.451,8.451,0,0,1,4.1651,1.0507l-.77,2.24a6.5925,6.5925,0,0,0-3.4649-.98c-1.82,0-2.8349,1.05-2.8349,2.3106,0,1.3994,1.0146,2.03,3.22,2.87,2.94,1.12,4.4453,2.59,4.4453,5.11,0,2.9756-2.31,5.0752-6.335,5.0752a9.6721,9.6721,0,0,1-4.7607-1.1543Z"/><path d="M461.0156,290.2432v2.2754h-8.6465v-2.2754Z"/><path d="M112.1348,339.6992a8.0772,8.0772,0,0,0,4.0605,1.2256c2.24,0,3.291-1.12,3.291-2.5205,0-1.4707-.875-2.2754-3.15-3.1152-3.0459-1.085-4.48-2.7657-4.48-4.7959,0-2.7305,2.205-4.9707,5.8457-4.9707a8.4509,8.4509,0,0,1,4.165,1.0507l-.7705,2.24a6.5918,6.5918,0,0,0-3.4648-.98c-1.82,0-2.835,1.05-2.835,2.3106,0,1.3994,1.0146,2.03,3.22,2.87,2.9405,1.12,4.4453,2.59,4.4453,5.11,0,2.9756-2.3095,5.0752-6.3349,5.0752a9.6725,9.6725,0,0,1-4.7608-1.1543Z"/><path d="M128.13,334.9385c.07,4.166,2.7305,5.8808,5.8105,5.8808a11.1363,11.1363,0,0,0,4.69-.875l.5253,2.2051a13.72,13.72,0,0,1-5.6357,1.05c-5.2158,0-8.331-3.43-8.331-8.54s3.0107-9.1367,7.9462-9.1367c5.53,0,7,4.8662,7,7.9814a11.5834,11.5834,0,0,1-.1045,1.4346Zm9.0312-2.2051c.0342-1.96-.8056-5.0049-4.27-5.0049-3.1152,0-4.48,2.87-4.7256,5.0049Z"/><path d="M143.95,330.4932c0-1.75-.0352-3.1856-.1406-4.585h2.73l.1748,2.8h.07a6.2289,6.2289,0,0,1,5.6005-3.1855c2.3448,0,5.9854,1.4,5.9854,7.2109V342.85h-3.08V333.084c0-2.7305-1.0156-5.0059-3.9209-5.0059a4.3774,4.3774,0,0,0-4.13,3.15,4.4388,4.4388,0,0,0-.21,1.4346V342.85h-3.08Z"/><path d="M162.64,341.0293a2.07,2.07,0,0,1,2.1006-2.2051,2.2087,2.2087,0,1,1-2.1006,2.2051Z"/><path d="M181.19,319.2568v9.8711h11.4111v-9.8711h3.08V342.85h-3.08V331.7881H181.19V342.85h-3.0459V319.2568Z"/><path d="M202.3623,325.9082l3.3252,9.52a43.32,43.32,0,0,1,1.3652,4.3408h.1055c.3848-1.4.875-2.8007,1.4346-4.3408l3.291-9.52h3.22l-6.65,16.9414h-2.94l-6.44-16.9414Z"/><path d="M227.249,342.85l-.2451-2.1348h-.1055a6.3092,6.3092,0,0,1-5.1806,2.52,4.8263,4.8263,0,0,1-5.18-4.8653c0-4.0957,3.64-6.3359,10.1855-6.3007v-.35c0-1.4-.3847-3.9209-3.8506-3.9209a8.4372,8.4372,0,0,0-4.41,1.2607l-.7-2.03a10.5159,10.5159,0,0,1,5.5654-1.5058c5.1807,0,6.44,3.5361,6.44,6.9306v6.336a23.8636,23.8636,0,0,0,.28,4.06Zm-.4551-8.6455c-3.36-.07-7.1757.5244-7.1757,3.8154a2.7252,2.7252,0,0,0,2.9052,2.94,4.215,4.215,0,0,0,4.0957-2.835,3.232,3.232,0,0,0,.1748-.98Z"/><path d="M249.3691,317.9971v20.4775c0,1.5049.0352,3.22.1407,4.375h-2.7657l-.14-2.94h-.07a6.2666,6.2666,0,0,1-5.7754,3.3252c-4.0957,0-7.2461-3.4649-7.2461-8.61-.0352-5.6357,3.4658-9.1015,7.5957-9.1015a5.663,5.663,0,0,1,5.11,2.5908h.07V317.9971Zm-3.08,14.8066a5.4614,5.4614,0,0,0-.14-1.2949,4.53,4.53,0,0,0-4.4463-3.57c-3.1845,0-5.0752,2.8-5.0752,6.5449,0,3.4307,1.6807,6.2656,5.0059,6.2656a4.631,4.631,0,0,0,4.5156-3.6748,5.3728,5.3728,0,0,0,.14-1.33Z"/><path d="M276.4941,325.9082c-.0693,1.2246-.14,2.59-.14,4.6553v9.8359c0,3.8858-.77,6.2656-2.415,7.7354a8.9781,8.9781,0,0,1-6.1612,2.03,10.9339,10.9339,0,0,1-5.6357-1.3994l.77-2.3457a9.5517,9.5517,0,0,0,4.9707,1.33c3.15,0,5.46-1.6455,5.46-5.915v-1.8907h-.0694a6.0483,6.0483,0,0,1-5.3906,2.835c-4.2,0-7.2109-3.57-7.2109-8.2607,0-5.74,3.7451-8.9961,7.6308-8.9961a5.633,5.633,0,0,1,5.2852,2.94h.07l.14-2.5547Zm-3.1845,6.6856a4.3694,4.3694,0,0,0-.1758-1.4,4.4356,4.4356,0,0,0-4.3047-3.2549c-2.94,0-5.041,2.4844-5.041,6.4053,0,3.3251,1.6807,6.0908,5.0058,6.0908a4.5042,4.5042,0,0,0,4.2706-3.15,5.3679,5.3679,0,0,0,.2451-1.6455Z"/><path d="M292.874,326.748l1.47-2.1005,1.3652.9453-1.47,2.17a8.7815,8.7815,0,0,1,2.5546,6.4756c0,6.2314-4.3056,8.9961-8.2607,8.9961a7.9347,7.9347,0,0,1-4.3408-1.19l-1.5049,2.1348-1.2949-1.05,1.47-2.1006a8.7109,8.7109,0,0,1-2.625-6.5459c0-5.6357,3.71-8.9609,8.3311-8.9609A8.0061,8.0061,0,0,1,292.874,326.748Zm-1.4,2.1a4.5608,4.5608,0,0,0-2.9756-1.0147c-3.78,0-5.2851,3.5-5.2851,6.5811a7.3358,7.3358,0,0,0,1.26,4.2353l.07.0352Zm-5.8808,11.0966a4.1837,4.1837,0,0,0,2.8349.9805c3.2207,0,5.3565-2.7656,5.3565-6.581a7.5737,7.5737,0,0,0-1.19-4.1309h-.07Z"/><path d="M300.6777,331.1934c0-1.9952-.0351-3.71-.1406-5.2852h2.6953l.1055,3.3252h.14a5.0835,5.0835,0,0,1,4.69-3.7109,3.3112,3.3112,0,0,1,.875.1054v2.9053a4.6033,4.6033,0,0,0-1.05-.1055c-2.17,0-3.71,1.6455-4.1309,3.9561a8.7469,8.7469,0,0,0-.14,1.4346V342.85h-3.045Z"/><path d="M334.1738,317.9971v20.4775c0,1.5049.0352,3.22.1407,4.375h-2.7657l-.14-2.94h-.07a6.2666,6.2666,0,0,1-5.7754,3.3252c-4.0957,0-7.2461-3.4649-7.2461-8.61-.0352-5.6357,3.4658-9.1015,7.5957-9.1015a5.6627,5.6627,0,0,1,5.11,2.5908h.07V317.9971Zm-3.08,14.8066a5.4614,5.4614,0,0,0-.14-1.2949,4.53,4.53,0,0,0-4.4463-3.57c-3.1846,0-5.0752,2.8-5.0752,6.5449,0,3.4307,1.6807,6.2656,5.0059,6.2656a4.631,4.631,0,0,0,4.5156-3.6748,5.3728,5.3728,0,0,0,.14-1.33Z"/><path d="M353.459,338.23c0,1.75.0351,3.29.1406,4.62h-2.7305l-.1748-2.7656h-.07a6.3731,6.3731,0,0,1-5.6006,3.15c-2.66,0-5.8457-1.47-5.8457-7.4209v-9.9053h3.08v9.3809c0,3.22.9805,5.3906,3.78,5.3906a4.3348,4.3348,0,0,0,4.3408-4.376V325.9082h3.08Z"/><path d="M360.9482,336.1641l-.07-.91a8.0333,8.0333,0,0,1,2.1709-6.0557c1.5752-1.8554,2.45-3.2207,2.45-4.7959,0-1.7851-1.12-2.9746-3.3252-3.01a6.2227,6.2227,0,0,0-3.5361,1.0849l-.84-2.205a9.18,9.18,0,0,1,5.0058-1.4c4.0254,0,5.8457,2.4853,5.8457,5.1455,0,2.38-1.33,4.0957-3.0107,6.0908a6.9129,6.9129,0,0,0-1.9951,5.1455l.0351.91Zm-.77,4.9a2.07,2.07,0,0,1,2.1006-2.2051,2.19,2.19,0,1,1-2.1006,2.2051Z"/></g></svg>