<svg id="iphonebund" xmlns="http://www.w3.org/2000/svg" xmlns:xlink="http://www.w3.org/1999/xlink" width="588" height="1080" viewBox="0 0 588 1080"><defs><style>.cls-1{fill:gray;}.cls-2{fill:url(#radial-gradient);}.cls-3{fill:#999;}.cls-4{fill:url(#radial-gradient-2);}.cls-5{fill:#4d4d4d;}.cls-6{fill:url(#radial-gradient-3);}.cls-7{fill:#333;}.cls-8{fill:url(#radial-gradient-4);}.cls-9{fill:url(#radial-gradient-5);}.cls-10{fill:url(#radial-gradient-6);}.cls-11{fill:url(#radial-gradient-7);}</style><radialGradient id="radial-gradient" cx="290.5" cy="520.5" r="376.4845" gradientTransform="translate(0 -311.7425) scale(1 1.5989)" gradientUnits="userSpaceOnUse"><stop offset="0" stop-color="#fff"/><stop offset="0.2473" stop-color="#f8f8f8"/><stop offset="0.4249" stop-color="#d8d8d8"/><stop offset="0.813" stop-color="#858585"/><stop offset="0.9987" stop-color="#5c5c5c"/></radialGradient><radialGradient id="radial-gradient-2" cx="290.5" r="368.7645" gradientTransform="translate(0 -324.2306) scale(1 1.6229)" xlink:href="#radial-gradient"/><radialGradient id="radial-gradient-3" cx="291" cy="496.9737" r="287.2533" gradientTransform="translate(0 -214.9659) scale(1 1.4325)" xlink:href="#radial-gradient"/><radialGradient id="radial-gradient-4" cx="291" cy="905" r="46" gradientTransform="matrix(1, 0, 0, 1, 0, 0)" xlink:href="#radial-gradient"/><radialGradient id="radial-gradient-5" cx="217" cy="113.2349" r="8.1845" gradientTransform="translate(0 -5.1646) scale(1 1.0456)" xlink:href="#radial-gradient"/><radialGradient id="radial-gradient-6" cx="291" cy="88.1403" r="8.1845" gradientTransform="translate(0 -4.0201) scale(1 1.0456)" xlink:href="#radial-gradient"/><radialGradient id="radial-gradient-7" cx="291" cy="905" r="35" gradientTransform="matrix(1, 0, 0, 1, 0, 0)" xlink:href="#radial-gradient"/></defs><title>Artboard 1</title><rect class="cls-1" x="33.8702" y="54" width="513.2595" height="933" rx="41.256"/><path class="cls-2" d="M505.8738,55A40.3017,40.3017,0,0,1,546.13,95.256V945.744A40.3017,40.3017,0,0,1,505.8738,986H75.1262A40.3017,40.3017,0,0,1,34.87,945.744V95.256A40.3017,40.3017,0,0,1,75.1262,55H505.8738m0-1H75.1262A41.3773,41.3773,0,0,0,33.87,95.256V945.744A41.3773,41.3773,0,0,0,75.1262,987H505.8738a41.3773,41.3773,0,0,0,41.256-41.256V95.256A41.3773,41.3773,0,0,0,505.8738,54Z"/><rect class="cls-3" x="42" y="62" width="497" height="917" rx="35.2253"/><path class="cls-4" d="M503.7747,63A34.2641,34.2641,0,0,1,538,97.2253V943.7747A34.2641,34.2641,0,0,1,503.7747,978H77.2253A34.2641,34.2641,0,0,1,43,943.7747V97.2253A34.2641,34.2641,0,0,1,77.2253,63H503.7747m0-1H77.2253A35.3289,35.3289,0,0,0,42,97.2253V943.7747A35.3289,35.3289,0,0,0,77.2253,979H503.7747A35.3289,35.3289,0,0,0,539,943.7747V97.2253A35.3289,35.3289,0,0,0,503.7747,62Z"/><rect class="cls-5" x="80" y="149.8312" width="422" height="694.2851"/><path class="cls-6" d="M501,150.8312V843.1163H81V150.8312H501m1-1H80V844.1163H502V149.8312Z"/><polygon class="cls-7" points="502 844.116 80 844.116 314 452 502 149.831 502 844.116"/><circle class="cls-5" cx="291" cy="905" r="46"/><path class="cls-8" d="M291,860a45,45,0,1,1-45,45,45.0509,45.0509,0,0,1,45-45m0-1a46,46,0,1,0,46,46,46,46,0,0,0-46-46Z"/><rect class="cls-5" x="245" y="104.87" width="92" height="16.7298" rx="8"/><rect class="cls-5" x="209" y="104.87" width="16" height="16.7298" rx="8"/><path class="cls-9" d="M217,105.87a7.0079,7.0079,0,0,1,7,7v.73a7,7,0,1,1-14,0v-.73a7.0079,7.0079,0,0,1,7-7m0-1a8.0235,8.0235,0,0,0-8,8v.73a8,8,0,1,0,16,0v-.73a8.0235,8.0235,0,0,0-8-8Z"/><rect class="cls-5" x="283" y="79.7754" width="16" height="16.7298" rx="8"/><path class="cls-10" d="M291,80.7754a7.0079,7.0079,0,0,1,7,7v.73a7,7,0,0,1-14,0v-.73a7.0079,7.0079,0,0,1,7-7m0-1a8.0235,8.0235,0,0,0-8,8v.73a8,8,0,0,0,16,0v-.73a8.0235,8.0235,0,0,0-8-8Z"/><circle class="cls-3" cx="291" cy="905" r="35"/><path class="cls-11" d="M291,871a34,34,0,1,1-34,34,34.0385,34.0385,0,0,1,34-34m0-1a35,35,0,1,0,35,35,35,35,0,0,0-35-35Z"/></svg>