<svg xmlns="http://www.w3.org/2000/svg" xmlns:xlink="http://www.w3.org/1999/xlink" width="588" height="1080" viewBox="0 0 588 1080"><defs><style>.cls-1{fill:gray;}.cls-2{fill:url(#radial-gradient);}.cls-3{fill:#999;}.cls-4{fill:url(#radial-gradient-2);}.cls-5{fill:#29abe2;}.cls-6{fill:#4d4d4d;}.cls-7{fill:url(#radial-gradient-3);}.cls-8{fill:url(#radial-gradient-4);}.cls-9{fill:url(#radial-gradient-5);}.cls-10{fill:url(#radial-gradient-6);}.cls-11{fill:#e6e6e6;}</style><radialGradient id="radial-gradient" cx="290.5" cy="520.5" r="376.4845" gradientTransform="translate(0 -311.7425) scale(1 1.5989)" gradientUnits="userSpaceOnUse"><stop offset="0" stop-color="#fff"/><stop offset="0.2473" stop-color="#f8f8f8"/><stop offset="0.4249" stop-color="#d8d8d8"/><stop offset="0.813" stop-color="#858585"/><stop offset="0.9987" stop-color="#5c5c5c"/></radialGradient><radialGradient id="radial-gradient-2" cx="290.5" r="368.7645" gradientTransform="translate(0 -324.2306) scale(1 1.6229)" xlink:href="#radial-gradient"/><radialGradient id="radial-gradient-3" cx="291" cy="905" r="46" gradientTransform="matrix(1, 0, 0, 1, 0, 0)" xlink:href="#radial-gradient"/><radialGradient id="radial-gradient-4" cx="217" cy="113.2349" r="8.1845" gradientTransform="translate(0 -5.1646) scale(1 1.0456)" xlink:href="#radial-gradient"/><radialGradient id="radial-gradient-5" cx="291" cy="88.1403" r="8.1845" gradientTransform="translate(0 -4.0201) scale(1 1.0456)" xlink:href="#radial-gradient"/><radialGradient id="radial-gradient-6" cx="291" cy="905" r="35" gradientTransform="matrix(1, 0, 0, 1, 0, 0)" xlink:href="#radial-gradient"/></defs><title>Artboard 1 copy 4</title><g id="iphonebund"><rect class="cls-1" x="33.8702" y="54" width="513.2595" height="933" rx="41.256"/><path class="cls-2" d="M505.8738,55A40.3017,40.3017,0,0,1,546.13,95.256V945.744A40.3017,40.3017,0,0,1,505.8738,986H75.1262A40.3017,40.3017,0,0,1,34.87,945.744V95.256A40.3017,40.3017,0,0,1,75.1262,55H505.8738m0-1H75.1262A41.3773,41.3773,0,0,0,33.87,95.256V945.744A41.3773,41.3773,0,0,0,75.1262,987H505.8738a41.3773,41.3773,0,0,0,41.256-41.256V95.256A41.3773,41.3773,0,0,0,505.8738,54Z"/><rect class="cls-3" x="42" y="62" width="497" height="917" rx="35.2253"/><path class="cls-4" d="M503.7747,63A34.2641,34.2641,0,0,1,538,97.2253V943.7747A34.2641,34.2641,0,0,1,503.7747,978H77.2253A34.2641,34.2641,0,0,1,43,943.7747V97.2253A34.2641,34.2641,0,0,1,77.2253,63H503.7747m0-1H77.2253A35.3288,35.3288,0,0,0,42,97.2253V943.7747A35.3288,35.3288,0,0,0,77.2253,979H503.7747A35.3288,35.3288,0,0,0,539,943.7747V97.2253A35.3288,35.3288,0,0,0,503.7747,62Z"/><rect class="cls-5" x="80" y="149.8312" width="422" height="694.2851"/><circle class="cls-6" cx="291" cy="905" r="46"/><path class="cls-7" d="M291,860a45,45,0,1,1-45,45,45.0509,45.0509,0,0,1,45-45m0-1a46,46,0,1,0,46,46,46,46,0,0,0-46-46Z"/><rect class="cls-6" x="245" y="104.87" width="92" height="16.7298" rx="8"/><rect class="cls-6" x="209" y="104.87" width="16" height="16.7298" rx="8"/><path class="cls-8" d="M217,105.87a7.0079,7.0079,0,0,1,7,7v.73a7,7,0,1,1-14,0v-.73a7.0079,7.0079,0,0,1,7-7m0-1a8.0235,8.0235,0,0,0-8,8v.73a8,8,0,1,0,16,0v-.73a8.0235,8.0235,0,0,0-8-8Z"/><rect class="cls-6" x="283" y="79.7754" width="16" height="16.7298" rx="8"/><path class="cls-9" d="M291,80.7754a7.0079,7.0079,0,0,1,7,7v.73a7,7,0,0,1-14,0v-.73a7.0079,7.0079,0,0,1,7-7m0-1a8.0235,8.0235,0,0,0-8,8v.73a8,8,0,0,0,16,0v-.73a8.0235,8.0235,0,0,0-8-8Z"/><circle class="cls-3" cx="291" cy="905" r="35"/><path class="cls-10" d="M291,871a34,34,0,1,1-34,34,34.0385,34.0385,0,0,1,34-34m0-1a35,35,0,1,0,35,35,35,35,0,0,0-35-35Z"/></g><g id="Spørgsmål"><path class="cls-11" d="M438.24,171H143.76A42.76,42.76,0,0,0,101,213.76V344.24A42.76,42.76,0,0,0,143.76,387H380.525L372,449l59.675-62H438.24A42.76,42.76,0,0,0,481,344.24V213.76A42.76,42.76,0,0,0,438.24,171Z"/><path d="M126.877,205.7881h-9.1709v8.5058h10.2207V216.85H114.66V193.2568h12.7412v2.5557h-9.6953v7.4561h9.1709Z"/><path d="M131.7754,204.4932c0-1.75-.0352-3.1856-.1406-4.585h2.73l.1748,2.8h.07a6.2289,6.2289,0,0,1,5.6005-3.1855c2.3448,0,5.9854,1.4,5.9854,7.2109V216.85h-3.08V207.084c0-2.7305-1.0146-5.0059-3.9209-5.0059a4.3774,4.3774,0,0,0-4.13,3.15,4.4388,4.4388,0,0,0-.21,1.4346V216.85h-3.08Z"/><path d="M158.62,191.9971h3.08V216.85h-3.08Z"/><path d="M178.6758,208.6934c-.1055,4.0254,2.2051,6.1611,5.3906,6.1611a9.8424,9.8424,0,0,0,4.62-.9805l.5606,2.1709a12.0513,12.0513,0,0,1-5.5655,1.1895c-2.8711,0-5.4609-1.3653-6.4414-3.7451h-.0693a6.6233,6.6233,0,0,1-6.3008,3.7451c-3.5351,0-5.2861-2.38-5.2861-4.83,0-3.9209,3.6406-6.1953,10.2217-6.126v-.7a3.7513,3.7513,0,0,0-3.9561-3.78,8.2665,8.2665,0,0,0-4.34,1.2949l-.7354-2.03a10.75,10.75,0,0,1,5.2852-1.54c3.0459,0,4.7607,1.4355,5.4609,3.6054h.07a6.4376,6.4376,0,0,1,5.9151-3.6054c5.1806,0,6.6162,5.0058,6.6162,7.8056a7.165,7.165,0,0,1-.1055,1.3653Zm-2.835-.35c-3.2558-.07-7.2109.49-7.2109,3.8154a2.7369,2.7369,0,0,0,2.94,2.8,4.14,4.14,0,0,0,4.0947-2.9053,3.5633,3.5633,0,0,0,.1758-1.2246Zm11.3057-1.8555c.1055-1.7149-.84-4.76-3.9551-4.76-3.0459,0-4.4453,2.835-4.5508,4.76Z"/><path d="M193.9346,205.1934c0-1.9952-.0352-3.71-.1407-5.2852h2.6954l.1054,3.3252h.14a5.0835,5.0835,0,0,1,4.69-3.7109,3.3165,3.3165,0,0,1,.875.1054v2.9053a4.6026,4.6026,0,0,0-1.05-.1055c-2.17,0-3.7109,1.6455-4.1309,3.9561a8.7469,8.7469,0,0,0-.14,1.4346V216.85h-3.0449Z"/><path d="M206.7451,208.9385c.07,4.166,2.73,5.8808,5.8106,5.8808a11.1362,11.1362,0,0,0,4.69-.875l.5254,2.2051a13.721,13.721,0,0,1-5.6358,1.05c-5.2158,0-8.331-3.43-8.331-8.54s3.0107-9.1367,7.9463-9.1367c5.53,0,7,4.8662,7,7.9814a11.6033,11.6033,0,0,1-.1045,1.4346Zm9.0313-2.2051c.0341-1.96-.8057-5.0049-4.27-5.0049-3.1153,0-4.4805,2.87-4.7256,5.0049Z"/><path d="M230.3,216.85V202.2529h-2.38v-2.3447h2.38v-.91c0-4.48,2.625-7.3857,7.3857-7.3857a8.4717,8.4717,0,0,1,4.3057,1.12l-.875,2.3447a6.4818,6.4818,0,0,0-3.57-.9794c-3.2559,0-4.2,2.2744-4.2,4.97v.8408h9.8359V216.85h-3.0459V202.2529h-6.79V216.85Z"/><path d="M248.29,204.4932c0-1.75-.0351-3.1856-.1406-4.585h2.73l.1748,2.8h.07a6.2289,6.2289,0,0,1,5.6006-3.1855c2.3447,0,5.9853,1.4,5.9853,7.2109V216.85h-3.08V207.084c0-2.7305-1.0157-5.0059-3.9209-5.0059a4.3774,4.3774,0,0,0-4.13,3.15,4.436,4.436,0,0,0-.21,1.4346V216.85h-3.08Z"/><path d="M282.3457,191.9971v20.4775c0,1.5049.0352,3.22.1406,4.375h-2.7656l-.14-2.94h-.07a6.2664,6.2664,0,0,1-5.7753,3.3252c-4.0958,0-7.2461-3.4649-7.2461-8.61-.0352-5.6357,3.4658-9.1015,7.5957-9.1015a5.6627,5.6627,0,0,1,5.11,2.5908h.07V191.9971Zm-3.08,14.8066a5.4613,5.4613,0,0,0-.14-1.2949,4.53,4.53,0,0,0-4.4463-3.57c-3.1846,0-5.0752,2.8-5.0752,6.5449,0,3.4307,1.6807,6.2656,5.0059,6.2656a4.6311,4.6311,0,0,0,4.5156-3.6748,5.373,5.373,0,0,0,.14-1.33Z"/><path d="M289.17,208.9385c.07,4.166,2.7305,5.8808,5.8106,5.8808a11.1362,11.1362,0,0,0,4.69-.875l.5254,2.2051a13.721,13.721,0,0,1-5.6358,1.05c-5.2158,0-8.331-3.43-8.331-8.54s3.0107-9.1367,7.9463-9.1367c5.53,0,7,4.8662,7,7.9814a11.6033,11.6033,0,0,1-.1045,1.4346Zm9.0313-2.2051c.0342-1.96-.8057-5.0049-4.27-5.0049-3.1153,0-4.4805,2.87-4.7256,5.0049Z"/><path d="M304.99,205.1934c0-1.9952-.0351-3.71-.1406-5.2852h2.6953l.1055,3.3252h.14a5.0835,5.0835,0,0,1,4.69-3.7109,3.3112,3.3112,0,0,1,.875.1054v2.9053a4.6033,4.6033,0,0,0-1.05-.1055c-2.17,0-3.71,1.6455-4.1309,3.9561a8.7469,8.7469,0,0,0-.14,1.4346V216.85H304.99Z"/><path d="M338.0312,212.23c0,1.75.0352,3.29.1407,4.62h-2.7305l-.1748-2.7656h-.07a6.3732,6.3732,0,0,1-5.6006,3.15c-2.66,0-5.8457-1.47-5.8457-7.4209v-9.9053h3.08v9.3809c0,3.22.98,5.3906,3.78,5.3906a4.3348,4.3348,0,0,0,4.3408-4.376V199.9082h3.08Z"/><path d="M357.7715,191.9971v20.4775c0,1.5049.0351,3.22.1406,4.375h-2.7656l-.14-2.94h-.07a6.2664,6.2664,0,0,1-5.7754,3.3252c-4.0957,0-7.2461-3.4649-7.2461-8.61-.0351-5.6357,3.4659-9.1015,7.5957-9.1015a5.6628,5.6628,0,0,1,5.11,2.5908h.07V191.9971Zm-3.08,14.8066a5.4665,5.4665,0,0,0-.14-1.2949,4.53,4.53,0,0,0-4.4463-3.57c-3.1846,0-5.0752,2.8-5.0752,6.5449,0,3.4307,1.6806,6.2656,5.0058,6.2656a4.6312,4.6312,0,0,0,4.5157-3.6748,5.3777,5.3777,0,0,0,.14-1.33Z"/><path d="M379.6816,216.85l-.2451-2.1348h-.1054a6.3081,6.3081,0,0,1-5.1807,2.52,4.8263,4.8263,0,0,1-5.18-4.8653c0-4.0957,3.64-6.3359,10.1855-6.3007v-.35c0-1.4-.3847-3.9209-3.8505-3.9209a8.4373,8.4373,0,0,0-4.41,1.2607l-.7-2.03a10.5159,10.5159,0,0,1,5.5654-1.5058c5.1807,0,6.44,3.5361,6.44,6.9306v6.336a23.8636,23.8636,0,0,0,.28,4.0605Zm-.455-8.6455c-3.36-.07-7.1758.5244-7.1758,3.8154a2.7253,2.7253,0,0,0,2.9053,2.94,4.2152,4.2152,0,0,0,4.0957-2.835,3.2351,3.2351,0,0,0,.1748-.98Z"/><path d="M387.4854,216.85V202.2529h-2.38v-2.3447h2.38v-.8057c0-2.38.5253-4.55,1.96-5.915a5.895,5.895,0,0,1,4.1309-1.5752,7.16,7.16,0,0,1,2.625.4893l-.42,2.3808a4.601,4.601,0,0,0-1.96-.3847c-2.625,0-3.29,2.3095-3.29,4.9v.91h4.0948v2.3447h-4.0948V216.85Z"/><path d="M114.5557,233.9971h3.08v10.5713h.07a5.7127,5.7127,0,0,1,2.205-2.1709,6.3455,6.3455,0,0,1,3.15-.875c2.2744,0,5.9151,1.4,5.9151,7.2461V258.85h-3.08v-9.7314c0-2.73-1.0156-5.04-3.9209-5.04a4.425,4.425,0,0,0-4.13,3.08,3.734,3.734,0,0,0-.21,1.4707V258.85h-3.08Z"/><path d="M134.7158,241.9082l3.3252,9.52a43.2938,43.2938,0,0,1,1.3652,4.3408h.1055c.3848-1.4.875-2.8007,1.4346-4.3408l3.291-9.52h3.22l-6.65,16.9414h-2.94l-6.44-16.9414Z"/><path d="M159.6016,258.85l-.2452-2.1348h-.1054a6.3081,6.3081,0,0,1-5.1807,2.52,4.8263,4.8263,0,0,1-5.18-4.8653c0-4.0957,3.64-6.3359,10.1856-6.3007v-.35c0-1.4-.3848-3.9209-3.8506-3.9209a8.4376,8.4376,0,0,0-4.41,1.2607l-.7-2.03a10.516,10.516,0,0,1,5.5655-1.5058c5.1806,0,6.44,3.5361,6.44,6.9306v6.336a23.8527,23.8527,0,0,0,.28,4.0605Zm-.4551-8.6455c-3.36-.07-7.1758.5244-7.1758,3.8154a2.7253,2.7253,0,0,0,2.9053,2.94,4.2151,4.2151,0,0,0,4.0957-2.835,3.232,3.232,0,0,0,.1748-.98Z"/><path d="M181.7217,233.9971v20.4775c0,1.5049.0351,3.22.1406,4.375h-2.7656l-.14-2.94h-.07a6.2664,6.2664,0,0,1-5.7754,3.3252c-4.0957,0-7.2461-3.4649-7.2461-8.61-.0351-5.6357,3.4659-9.1015,7.5957-9.1015a5.6628,5.6628,0,0,1,5.11,2.5908h.07V233.9971Zm-3.08,14.8066a5.4665,5.4665,0,0,0-.14-1.2949,4.53,4.53,0,0,0-4.4454-3.57c-3.1855,0-5.0761,2.8-5.0761,6.5449,0,3.4307,1.6806,6.2656,5.0058,6.2656a4.6312,4.6312,0,0,0,4.5157-3.6748,5.3777,5.3777,0,0,0,.14-1.33Z"/><path d="M208.8818,233.9971v20.4775c0,1.5049.0352,3.22.1407,4.375h-2.7657l-.14-2.94h-.07a6.2666,6.2666,0,0,1-5.7754,3.3252c-4.0957,0-7.2461-3.4649-7.2461-8.61-.0352-5.6357,3.4658-9.1015,7.5957-9.1015a5.6627,5.6627,0,0,1,5.11,2.5908h.07V233.9971Zm-3.08,14.8066a5.4614,5.4614,0,0,0-.14-1.2949,4.53,4.53,0,0,0-4.4453-3.57c-3.1856,0-5.0762,2.8-5.0762,6.5449,0,3.4307,1.6807,6.2656,5.0059,6.2656a4.631,4.631,0,0,0,4.5156-3.6748,5.3728,5.3728,0,0,0,.14-1.33Z"/><path d="M215.7061,250.9385c.07,4.166,2.73,5.8808,5.8105,5.8808a11.1355,11.1355,0,0,0,4.69-.875l.5254,2.2051a13.72,13.72,0,0,1-5.6357,1.05c-5.2158,0-8.3311-3.43-8.3311-8.54s3.0108-9.1367,7.9463-9.1367c5.53,0,7,4.8662,7,7.9814a11.5834,11.5834,0,0,1-.1045,1.4346Zm9.0312-2.2051c.0342-1.96-.8057-5.0049-4.27-5.0049-3.1152,0-4.4805,2.87-4.7256,5.0049Z"/><path d="M231.5264,247.1934c0-1.9952-.0352-3.71-.1407-5.2852h2.6954l.1054,3.3252h.14a5.0835,5.0835,0,0,1,4.69-3.7109,3.3165,3.3165,0,0,1,.875.1054v2.9053a4.6033,4.6033,0,0,0-1.05-.1055c-2.17,0-3.7109,1.6455-4.1309,3.9561a8.7469,8.7469,0,0,0-.14,1.4346V258.85h-3.0449Z"/><path d="M249.9707,255.6992a8.0775,8.0775,0,0,0,4.0605,1.2256c2.24,0,3.2911-1.12,3.2911-2.52,0-1.4707-.875-2.2754-3.15-3.1152-3.0459-1.085-4.4805-2.7657-4.4805-4.7959,0-2.7305,2.2051-4.9707,5.8457-4.9707a8.4506,8.4506,0,0,1,4.165,1.0507l-.77,2.24a6.5918,6.5918,0,0,0-3.4648-.9805c-1.82,0-2.835,1.05-2.835,2.3106,0,1.3994,1.0147,2.03,3.22,2.87,2.94,1.12,4.4453,2.59,4.4453,5.11,0,2.9756-2.31,5.0752-6.335,5.0752a9.6719,9.6719,0,0,1-4.7607-1.1543Z"/><path d="M267.2969,249.6787h.07c.42-.5947,1.0146-1.33,1.5049-1.9248l4.9707-5.8457h3.71l-6.5459,6.9658,7.4561,9.9756h-3.7451l-5.8457-8.1211-1.5752,1.75V258.85H264.252V233.9971h3.0449Z"/><path d="M282.3818,250.9385c.07,4.166,2.7305,5.8808,5.8106,5.8808a11.1358,11.1358,0,0,0,4.69-.875l.5254,2.2051a13.7208,13.7208,0,0,1-5.6357,1.05c-5.2159,0-8.3311-3.43-8.3311-8.54s3.0107-9.1367,7.9463-9.1367c5.53,0,7,4.8662,7,7.9814a11.5834,11.5834,0,0,1-.1045,1.4346Zm9.0313-2.2051c.0342-1.96-.8057-5.0049-4.27-5.0049-3.1153,0-4.4805,2.87-4.7256,5.0049Z"/><path d="M298.2021,247.1934c0-1.9952-.0351-3.71-.1406-5.2852h2.6953l.1055,3.3252h.14a5.0835,5.0835,0,0,1,4.69-3.7109,3.3165,3.3165,0,0,1,.875.1054v2.9053a4.6033,4.6033,0,0,0-1.05-.1055c-2.17,0-3.711,1.6455-4.1309,3.9561a8.7469,8.7469,0,0,0-.14,1.4346V258.85h-3.045Z"/><path d="M307.0576,257.0293a2.07,2.07,0,0,1,2.1006-2.2051,2.2088,2.2088,0,1,1-2.1006,2.2051Z"/><path d="M325.6074,235.2568v9.8711h11.4112v-9.8711h3.08V258.85h-3.08V247.7881H325.6074V258.85h-3.0459V235.2568Z"/><path d="M346.78,241.9082l3.3252,9.52a43.32,43.32,0,0,1,1.3652,4.3408h.1055c.3847-1.4.875-2.8007,1.4345-4.3408l3.2911-9.52h3.22l-6.65,16.9414h-2.94l-6.44-16.9414Z"/><path d="M371.667,258.85l-.2451-2.1348h-.1055a6.3093,6.3093,0,0,1-5.1807,2.52,4.8262,4.8262,0,0,1-5.18-4.8653c0-4.0957,3.64-6.3359,10.1855-6.3007v-.35c0-1.4-.3848-3.9209-3.8506-3.9209a8.437,8.437,0,0,0-4.41,1.2607l-.7-2.03a10.5157,10.5157,0,0,1,5.5654-1.5058c5.1807,0,6.44,3.5361,6.44,6.9306v6.336a23.8527,23.8527,0,0,0,.28,4.0605Zm-.4551-8.6455c-3.36-.07-7.1758.5244-7.1758,3.8154a2.7253,2.7253,0,0,0,2.9053,2.94,4.215,4.215,0,0,0,4.0957-2.835,3.232,3.232,0,0,0,.1748-.98Z"/><path d="M393.7871,233.9971v20.4775c0,1.5049.0352,3.22.1406,4.375h-2.7656l-.14-2.94h-.07a6.2664,6.2664,0,0,1-5.7753,3.3252c-4.0957,0-7.2461-3.4649-7.2461-8.61-.0352-5.6357,3.4658-9.1015,7.5957-9.1015a5.6627,5.6627,0,0,1,5.11,2.5908h.07V233.9971Zm-3.08,14.8066a5.4613,5.4613,0,0,0-.14-1.2949,4.53,4.53,0,0,0-4.4463-3.57c-3.1846,0-5.0752,2.8-5.0752,6.5449,0,3.4307,1.6807,6.2656,5.0059,6.2656a4.6311,4.6311,0,0,0,4.5156-3.6748,5.373,5.373,0,0,0,.14-1.33Z"/><path d="M405.8955,255.6992a8.0776,8.0776,0,0,0,4.0606,1.2256c2.24,0,3.291-1.12,3.291-2.52,0-1.4707-.875-2.2754-3.15-3.1152-3.0459-1.085-4.4805-2.7657-4.4805-4.7959,0-2.7305,2.2051-4.9707,5.8457-4.9707a8.4513,8.4513,0,0,1,4.1651,1.0507l-.7706,2.24a6.5918,6.5918,0,0,0-3.4648-.9805c-1.82,0-2.835,1.05-2.835,2.3106,0,1.3994,1.0147,2.03,3.22,2.87,2.94,1.12,4.4453,2.59,4.4453,5.11,0,2.9756-2.31,5.0752-6.335,5.0752a9.6719,9.6719,0,0,1-4.7607-1.1543Z"/><path d="M423.2207,249.6787h.07c.42-.5947,1.0147-1.33,1.5049-1.9248l4.9707-5.8457h3.71l-6.5459,6.9658,7.456,9.9756h-3.7451l-5.8457-8.1211-1.5752,1.75V258.85h-3.0449V233.9971h3.0449Z"/><path d="M438.3057,250.9385c.07,4.166,2.73,5.8808,5.81,5.8808a11.1355,11.1355,0,0,0,4.69-.875l.5254,2.2051a13.72,13.72,0,0,1-5.6357,1.05c-5.2158,0-8.3311-3.43-8.3311-8.54s3.0108-9.1367,7.9463-9.1367c5.53,0,7,4.8662,7,7.9814a11.5834,11.5834,0,0,1-.1045,1.4346Zm9.0312-2.2051c.0342-1.96-.8057-5.0049-4.2705-5.0049-3.1152,0-4.4805,2.87-4.7256,5.0049Z"/><path d="M454.126,247.1934c0-1.9952-.0352-3.71-.1406-5.2852h2.6953l.1054,3.3252h.14a5.0835,5.0835,0,0,1,4.69-3.7109,3.3165,3.3165,0,0,1,.875.1054v2.9053a4.6026,4.6026,0,0,0-1.05-.1055c-2.17,0-3.7109,1.6455-4.1309,3.9561a8.7469,8.7469,0,0,0-.14,1.4346V258.85H454.126Z"/><path d="M129.1865,275.9971v20.4775c0,1.5049.0352,3.22.1406,4.375h-2.7656l-.14-2.94h-.07a6.2667,6.2667,0,0,1-5.7754,3.3252c-4.0957,0-7.2461-3.4649-7.2461-8.61-.0352-5.6357,3.4658-9.1015,7.5957-9.1015a5.6627,5.6627,0,0,1,5.11,2.5908h.07V275.9971Zm-3.08,14.8066a5.4613,5.4613,0,0,0-.14-1.2949,4.53,4.53,0,0,0-4.4453-3.57c-3.1856,0-5.0762,2.8-5.0762,6.5449,0,3.4307,1.6807,6.2656,5.0059,6.2656a4.6311,4.6311,0,0,0,4.5156-3.6748,5.373,5.373,0,0,0,.14-1.33Z"/><path d="M136.0107,292.9385c.07,4.166,2.73,5.8808,5.8106,5.8808a11.1358,11.1358,0,0,0,4.69-.875l.5254,2.2051a13.7208,13.7208,0,0,1-5.6357,1.05c-5.2159,0-8.3311-3.43-8.3311-8.54s3.0108-9.1367,7.9463-9.1367c5.53,0,7,4.8662,7,7.9814a11.5834,11.5834,0,0,1-.1045,1.4346Zm9.0313-2.2051c.0342-1.96-.8057-5.0049-4.27-5.0049-3.1153,0-4.4805,2.87-4.7256,5.0049Z"/><path d="M151.8311,289.1934c0-1.9952-.0352-3.71-.1407-5.2852h2.6953l.1055,3.3252h.14a5.0835,5.0835,0,0,1,4.69-3.7109,3.3165,3.3165,0,0,1,.875.1054v2.9053a4.6033,4.6033,0,0,0-1.05-.1055c-2.17,0-3.711,1.6455-4.1309,3.9561a8.7469,8.7469,0,0,0-.14,1.4346V300.85h-3.0449Z"/><path d="M170.6963,288.4932c0-1.75-.0352-3.1856-.1406-4.585h2.6953l.1406,2.7295h.1045a5.841,5.841,0,0,1,5.32-3.1152,5.009,5.009,0,0,1,4.7959,3.3955h.07a6.9691,6.9691,0,0,1,1.89-2.2051,5.781,5.781,0,0,1,3.7451-1.19c2.24,0,5.5664,1.4707,5.5664,7.3515V300.85H191.873v-9.5908c0-3.2559-1.19-5.2158-3.6757-5.2158a3.9861,3.9861,0,0,0-3.64,2.8008,5.05,5.05,0,0,0-.2451,1.54V300.85h-3.0107V290.6982c0-2.6953-1.1895-4.6552-3.5352-4.6552a4.21,4.21,0,0,0-3.8154,3.08,4.2539,4.2539,0,0,0-.2451,1.5059V300.85h-3.01Z"/><path d="M201.6016,292.9385c.07,4.166,2.73,5.8808,5.8105,5.8808a11.1355,11.1355,0,0,0,4.69-.875l.5254,2.2051a13.72,13.72,0,0,1-5.6357,1.05c-5.2158,0-8.3311-3.43-8.3311-8.54s3.0108-9.1367,7.9463-9.1367c5.53,0,7,4.8662,7,7.9814a11.5834,11.5834,0,0,1-.1045,1.4346Zm9.0312-2.2051c.0342-1.96-.8057-5.0049-4.27-5.0049-3.1152,0-4.4805,2.87-4.7256,5.0049Z"/><path d="M217.4219,288.4932c0-1.75-.0352-3.1856-.1407-4.585h2.73l.1748,2.8h.07a6.2291,6.2291,0,0,1,5.6006-3.1855c2.3447,0,5.9854,1.4,5.9854,7.2109V300.85h-3.08V291.084c0-2.7305-1.0147-5.0059-3.9209-5.0059a4.3774,4.3774,0,0,0-4.13,3.15,4.4388,4.4388,0,0,0-.21,1.4346V300.85h-3.08Z"/><path d="M244.2666,275.9971h3.08v10.5713h.07a5.713,5.713,0,0,1,2.2051-2.1709,6.3452,6.3452,0,0,1,3.15-.875c2.2744,0,5.915,1.4,5.915,7.2461V300.85h-3.08v-9.7314c0-2.73-1.0156-5.04-3.9209-5.04a4.425,4.425,0,0,0-4.13,3.08,3.7341,3.7341,0,0,0-.21,1.4707V300.85h-3.08Z"/><path d="M265.4062,292.9385c.07,4.166,2.7305,5.8808,5.8106,5.8808a11.1355,11.1355,0,0,0,4.69-.875l.5254,2.2051a13.72,13.72,0,0,1-5.6357,1.05c-5.2158,0-8.3311-3.43-8.3311-8.54s3.0108-9.1367,7.9463-9.1367c5.53,0,7,4.8662,7,7.9814a11.5834,11.5834,0,0,1-.1045,1.4346Zm9.0313-2.2051c.0342-1.96-.8057-5.0049-4.2705-5.0049-3.1152,0-4.48,2.87-4.7256,5.0049Z"/><path d="M281.2266,288.4932c0-1.75-.0352-3.1856-.1407-4.585h2.7305l.1748,2.8h.07a6.2291,6.2291,0,0,1,5.6006-3.1855c2.3447,0,5.9854,1.4,5.9854,7.2109V300.85h-3.08V291.084c0-2.7305-1.0147-5.0059-3.9209-5.0059a4.3774,4.3774,0,0,0-4.13,3.15,4.4387,4.4387,0,0,0-.21,1.4346V300.85h-3.08Z"/><path d="M315.2822,275.9971v20.4775c0,1.5049.0352,3.22.1407,4.375h-2.7657l-.14-2.94h-.07a6.2666,6.2666,0,0,1-5.7754,3.3252c-4.0957,0-7.2461-3.4649-7.2461-8.61-.0352-5.6357,3.4658-9.1015,7.5957-9.1015a5.6627,5.6627,0,0,1,5.11,2.5908h.07V275.9971Zm-3.08,14.8066a5.4613,5.4613,0,0,0-.14-1.2949,4.53,4.53,0,0,0-4.4453-3.57c-3.1856,0-5.0762,2.8-5.0762,6.5449,0,3.4307,1.6807,6.2656,5.0059,6.2656a4.631,4.631,0,0,0,4.5156-3.6748,5.373,5.373,0,0,0,.14-1.33Z"/><path d="M322.1064,292.9385c.07,4.166,2.7305,5.8808,5.8106,5.8808a11.1358,11.1358,0,0,0,4.69-.875l.5254,2.2051a13.72,13.72,0,0,1-5.6357,1.05c-5.2159,0-8.3311-3.43-8.3311-8.54s3.0108-9.1367,7.9463-9.1367c5.53,0,7,4.8662,7,7.9814a11.5834,11.5834,0,0,1-.1045,1.4346Zm9.0313-2.2051c.0342-1.96-.8057-5.0049-4.27-5.0049-3.1152,0-4.4805,2.87-4.7256,5.0049Z"/><path d="M359.9775,275.9971v20.4775c0,1.5049.0352,3.22.1407,4.375h-2.7657l-.14-2.94h-.07a6.2666,6.2666,0,0,1-5.7754,3.3252c-4.0957,0-7.2461-3.4649-7.2461-8.61-.0352-5.6357,3.4658-9.1015,7.5957-9.1015a5.6627,5.6627,0,0,1,5.11,2.5908h.07V275.9971Zm-3.08,14.8066a5.4614,5.4614,0,0,0-.14-1.2949,4.53,4.53,0,0,0-4.4453-3.57c-3.1855,0-5.0762,2.8-5.0762,6.5449,0,3.4307,1.6807,6.2656,5.0059,6.2656a4.631,4.631,0,0,0,4.5156-3.6748,5.3728,5.3728,0,0,0,.14-1.33Z"/><path d="M366.8018,292.9385c.07,4.166,2.73,5.8808,5.81,5.8808a11.1355,11.1355,0,0,0,4.69-.875l.5254,2.2051a13.72,13.72,0,0,1-5.6357,1.05c-5.2158,0-8.3311-3.43-8.3311-8.54s3.0108-9.1367,7.9463-9.1367c5.53,0,7,4.8662,7,7.9814a11.5834,11.5834,0,0,1-.1045,1.4346Zm9.0312-2.2051c.0342-1.96-.8057-5.0049-4.2705-5.0049-3.1152,0-4.4805,2.87-4.7256,5.0049Z"/><path d="M382.6221,289.1934c0-1.9952-.0352-3.71-.1407-5.2852h2.6954l.1054,3.3252h.14a5.0835,5.0835,0,0,1,4.69-3.7109,3.3165,3.3165,0,0,1,.875.1054v2.9053a4.6026,4.6026,0,0,0-1.05-.1055c-2.17,0-3.7109,1.6455-4.1309,3.9561a8.7469,8.7469,0,0,0-.14,1.4346V300.85h-3.0449Z"/><path d="M114.1348,339.6992a8.0772,8.0772,0,0,0,4.0605,1.2256c2.24,0,3.291-1.12,3.291-2.5205,0-1.4707-.875-2.2754-3.15-3.1152-3.0459-1.085-4.48-2.7657-4.48-4.7959,0-2.7305,2.205-4.9707,5.8457-4.9707a8.4509,8.4509,0,0,1,4.165,1.0507l-.7705,2.24a6.5918,6.5918,0,0,0-3.4648-.98c-1.82,0-2.835,1.05-2.835,2.3106,0,1.3994,1.0146,2.03,3.22,2.87,2.9405,1.12,4.4453,2.59,4.4453,5.11,0,2.9756-2.3095,5.0752-6.3349,5.0752a9.6725,9.6725,0,0,1-4.7608-1.1543Z"/><path d="M130.13,334.9385c.07,4.166,2.7305,5.8808,5.8105,5.8808a11.1363,11.1363,0,0,0,4.69-.875l.5253,2.2051a13.72,13.72,0,0,1-5.6357,1.05c-5.2158,0-8.331-3.43-8.331-8.54s3.0107-9.1367,7.9462-9.1367c5.53,0,7,4.8662,7,7.9814a11.5834,11.5834,0,0,1-.1045,1.4346Zm9.0312-2.2051c.0342-1.96-.8056-5.0049-4.27-5.0049-3.1152,0-4.48,2.87-4.7256,5.0049Z"/><path d="M145.95,330.4932c0-1.75-.0352-3.1856-.1406-4.585h2.73l.1748,2.8h.07a6.2289,6.2289,0,0,1,5.6005-3.1855c2.3448,0,5.9854,1.4,5.9854,7.2109V342.85h-3.08V333.084c0-2.7305-1.0156-5.0059-3.9209-5.0059a4.3774,4.3774,0,0,0-4.13,3.15,4.4388,4.4388,0,0,0-.21,1.4346V342.85h-3.08Z"/><path d="M180.0059,317.9971v20.4775c0,1.5049.0351,3.22.1406,4.375h-2.7656l-.14-2.94h-.07a6.2664,6.2664,0,0,1-5.7754,3.3252c-4.0957,0-7.2461-3.4649-7.2461-8.61-.0351-5.6357,3.4658-9.1015,7.5957-9.1015a5.663,5.663,0,0,1,5.11,2.5908h.07V317.9971Zm-3.08,14.8066a5.4614,5.4614,0,0,0-.14-1.2949,4.53,4.53,0,0,0-4.4463-3.57c-3.1845,0-5.0752,2.8-5.0752,6.5449,0,3.4307,1.6807,6.2656,5.0059,6.2656a4.631,4.631,0,0,0,4.5156-3.6748,5.3728,5.3728,0,0,0,.14-1.33Z"/><path d="M188.8252,321.042v4.8662h4.41v2.3447h-4.41v9.1358c0,2.1006.5947,3.291,2.3105,3.291a6.8815,6.8815,0,0,0,1.7852-.21l.14,2.31a7.5375,7.5375,0,0,1-2.73.42,4.27,4.27,0,0,1-3.3252-1.2949c-.875-.91-1.19-2.415-1.19-4.41v-9.2412H183.19v-2.3447h2.625v-4.0605Z"/><path d="M198.2051,334.9385c.07,4.166,2.73,5.8808,5.8105,5.8808a11.1363,11.1363,0,0,0,4.69-.875l.5253,2.2051a13.72,13.72,0,0,1-5.6357,1.05c-5.2158,0-8.3311-3.43-8.3311-8.54s3.0108-9.1367,7.9463-9.1367c5.53,0,7,4.8662,7,7.9814a11.5834,11.5834,0,0,1-.1045,1.4346Zm9.0312-2.2051c.0342-1.96-.8056-5.0049-4.27-5.0049-3.1152,0-4.48,2.87-4.7256,5.0049Z"/><path d="M221.3047,342.85c.07-1.1553.1406-2.87.1406-4.375V317.9971H224.49v10.6406h.07a6.3105,6.3105,0,0,1,5.7754-3.1152c4.2,0,7.1758,3.5009,7.1407,8.6464,0,6.0557-3.8155,9.0655-7.5957,9.0655a6.0366,6.0366,0,0,1-5.6709-3.1856h-.1045l-.1407,2.8008Zm3.1855-6.791a5.8033,5.8033,0,0,0,.14,1.12,4.7536,4.7536,0,0,0,4.6211,3.6055c3.22,0,5.1455-2.625,5.1455-6.5108,0-3.3955-1.75-6.3007-5.041-6.3007a4.9116,4.9116,0,0,0-4.6905,3.7812,6.11,6.11,0,0,0-.1748,1.26Z"/><path d="M244.7891,321.1475a1.9078,1.9078,0,0,1-3.8155,0,1.878,1.878,0,0,1,1.9258-1.9258A1.8284,1.8284,0,0,1,244.7891,321.1475Zm-3.43,21.7021V325.9082h3.08V342.85Z"/><path d="M249.5488,317.9971h3.08V342.85h-3.08Z"/><path d="M257.8086,317.9971h3.08V342.85h-3.08Z"/><path d="M267.7832,334.9385c.07,4.166,2.73,5.8808,5.8106,5.8808a11.1362,11.1362,0,0,0,4.69-.875l.5254,2.2051a13.7214,13.7214,0,0,1-5.6358,1.05c-5.2158,0-8.331-3.43-8.331-8.54s3.0107-9.1367,7.9463-9.1367c5.53,0,7,4.8662,7,7.9814a11.6033,11.6033,0,0,1-.1045,1.4346Zm9.0313-2.2051c.0341-1.96-.8057-5.0049-4.2706-5.0049-3.1152,0-4.48,2.87-4.7255,5.0049Z"/><path d="M298.2344,317.9971v20.4775c0,1.5049.0351,3.22.1406,4.375h-2.7656l-.14-2.94h-.07a6.2664,6.2664,0,0,1-5.7754,3.3252c-4.0957,0-7.2461-3.4649-7.2461-8.61-.0351-5.6357,3.4659-9.1015,7.5957-9.1015a5.6628,5.6628,0,0,1,5.11,2.5908h.07V317.9971Zm-3.08,14.8066a5.4614,5.4614,0,0,0-.14-1.2949,4.53,4.53,0,0,0-4.4462-3.57c-3.1846,0-5.0752,2.8-5.0752,6.5449,0,3.4307,1.6806,6.2656,5.0058,6.2656a4.631,4.631,0,0,0,4.5156-3.6748,5.3728,5.3728,0,0,0,.14-1.33Z"/><path d="M305.0586,334.9385c.07,4.166,2.7305,5.8808,5.81,5.8808a11.1363,11.1363,0,0,0,4.69-.875l.5254,2.2051a13.7214,13.7214,0,0,1-5.6358,1.05c-5.2158,0-8.331-3.43-8.331-8.54s3.0107-9.1367,7.9463-9.1367c5.53,0,7,4.8662,7,7.9814a11.6033,11.6033,0,0,1-.1045,1.4346Zm9.0312-2.2051c.0342-1.96-.8056-5.0049-4.2705-5.0049-3.1152,0-4.48,2.87-4.7255,5.0049Z"/><path d="M324.5889,321.042v4.8662h4.41v2.3447h-4.41v9.1358c0,2.1006.5947,3.291,2.31,3.291a6.8821,6.8821,0,0,0,1.7852-.21l.14,2.31a7.5375,7.5375,0,0,1-2.73.42,4.27,4.27,0,0,1-3.3252-1.2949c-.875-.91-1.19-2.415-1.19-4.41v-9.2412h-2.625v-2.3447h2.625v-4.0605Z"/><path d="M341.0732,325.9082l3.3252,9.52a43.2955,43.2955,0,0,1,1.3653,4.3408h.1054c.3848-1.4.875-2.8007,1.4346-4.3408l3.291-9.52h3.22l-6.65,16.9414h-2.9405l-6.44-16.9414Z"/><path d="M360.1484,321.1475a1.9078,1.9078,0,0,1-3.8154,0,1.878,1.878,0,0,1,1.9258-1.9258A1.8283,1.8283,0,0,1,360.1484,321.1475Zm-3.43,21.7021V325.9082h3.08V342.85Z"/><path d="M379.5391,317.9971v20.4775c0,1.5049.0351,3.22.1406,4.375h-2.7656l-.14-2.94h-.07a6.2664,6.2664,0,0,1-5.7754,3.3252c-4.0957,0-7.2461-3.4649-7.2461-8.61-.0351-5.6357,3.4658-9.1015,7.5957-9.1015a5.663,5.663,0,0,1,5.11,2.5908h.07V317.9971Zm-3.08,14.8066a5.4614,5.4614,0,0,0-.14-1.2949,4.53,4.53,0,0,0-4.4463-3.57c-3.1845,0-5.0751,2.8-5.0751,6.5449,0,3.4307,1.6806,6.2656,5.0058,6.2656a4.631,4.631,0,0,0,4.5156-3.6748,5.3728,5.3728,0,0,0,.14-1.33Z"/><path d="M386.3633,334.9385c.07,4.166,2.7305,5.8808,5.8105,5.8808a11.1363,11.1363,0,0,0,4.69-.875l.5253,2.2051a13.72,13.72,0,0,1-5.6357,1.05c-5.2158,0-8.331-3.43-8.331-8.54s3.0107-9.1367,7.9462-9.1367c5.53,0,7,4.8662,7,7.9814a11.5834,11.5834,0,0,1-.1045,1.4346Zm9.0312-2.2051c.0342-1.96-.8056-5.0049-4.27-5.0049-3.1152,0-4.48,2.87-4.7256,5.0049Z"/><path d="M402.1836,331.1934c0-1.9952-.0352-3.71-.1406-5.2852h2.6953l.1055,3.3252h.14a5.0835,5.0835,0,0,1,4.69-3.7109,3.3112,3.3112,0,0,1,.875.1054v2.9053a4.6026,4.6026,0,0,0-1.05-.1055c-2.17,0-3.71,1.6455-4.1308,3.9561a8.7353,8.7353,0,0,0-.14,1.4346V342.85h-3.0449Z"/><path d="M414.9941,334.9385c.07,4.166,2.7305,5.8808,5.8106,5.8808a11.1358,11.1358,0,0,0,4.69-.875l.5254,2.2051a13.7208,13.7208,0,0,1-5.6357,1.05c-5.2159,0-8.3311-3.43-8.3311-8.54s3.0108-9.1367,7.9463-9.1367c5.53,0,7,4.8662,7,7.9814a11.5834,11.5834,0,0,1-.1045,1.4346Zm9.0313-2.2051c.0342-1.96-.8057-5.0049-4.27-5.0049-3.1153,0-4.4805,2.87-4.7256,5.0049Z"/><path d="M433.1943,336.1641l-.07-.91a8.0329,8.0329,0,0,1,2.1709-6.0557c1.5752-1.8554,2.45-3.2207,2.45-4.7959,0-1.7851-1.12-2.9746-3.3252-3.01a6.2227,6.2227,0,0,0-3.5361,1.0849l-.84-2.205a9.18,9.18,0,0,1,5.0059-1.4c4.0254,0,5.8457,2.4853,5.8457,5.1455,0,2.38-1.33,4.0957-3.0107,6.0908a6.9134,6.9134,0,0,0-1.9952,5.1455l.0352.91Zm-.77,4.9a2.07,2.07,0,0,1,2.1006-2.2051,2.19,2.19,0,1,1-2.1006,2.2051Z"/></g></svg>