<?xml version="1.0" encoding="utf-8"?>
<!-- Generator: Adobe Illustrator 23.0.0, SVG Export Plug-In . SVG Version: 6.00 Build 0)  -->
<svg version="1.1" id="Layer_1" xmlns="http://www.w3.org/2000/svg" xmlns:xlink="http://www.w3.org/1999/xlink" x="0px" y="0px"
	 viewBox="0 0 1920 1080" style="enable-background:new 0 0 1920 1080;" xml:space="preserve">
<style type="text/css">
	.st0{fill:#BCBFB8;}
	.st1{fill:#BBE1F5;}
	.st2{fill:#8DBC4F;}
	.st3{fill:#FFD485;}
	.st4{fill:#B4E3D7;stroke:#000000;stroke-miterlimit:10;}
	.st5{fill:#997355;stroke:#000000;stroke-miterlimit:10;}
	.st6{fill:#3D423D;stroke:#000000;stroke-miterlimit:10;}
	.st7{opacity:0.7;fill:#797C79;}
	.st8{opacity:0.7;fill:#0A0A0A;}
	.st9{opacity:0.79;fill:#020202;stroke:#000000;stroke-miterlimit:10;}
	.st10{fill:#353835;stroke:#353835;stroke-miterlimit:10;}
	.st11{fill:#277D38;}
	.st12{fill:#27A038;}
	.st13{fill:#278538;}
	.st14{fill:#2E7B00;}
	.st15{fill:#276F38;}
	.st16{fill:#B7BCB7;stroke:#2D2C2C;stroke-miterlimit:10;}
	.st17{fill:#187BBE;}
	.st18{fill:#5B4D45;}
	.st19{fill:#E73845;}
	.st20{fill:#237C2B;}
	.st21{fill:#2D2B2B;}
	.st22{fill:#824A1C;}
	.st23{fill:url(#SVGID_1_);}
	.st24{fill:#EFD90A;}
	.st25{fill:#FFFFFF;}
</style>
<title>baggrund</title>
<rect y="437" class="st0" width="1919" height="643"/>
<rect x="4" y="4" class="st1" width="839" height="451"/>
<polygon class="st2" points="482.7,454 479,799.2 1216.8,800 1326,454 "/>
<polygon class="st2" points="1918.8,784.5 1920.9,559.4 1461.6,559.2 1485.6,785.1 "/>
<rect x="839" class="st3" width="1080" height="575"/>
<rect x="889" y="355" class="st4" width="153" height="153"/>
<rect x="1086" y="355" class="st4" width="153" height="153"/>
<rect x="1506" y="355" class="st4" width="153" height="153"/>
<rect x="1705" y="357" class="st4" width="153" height="153"/>
<polygon class="st5" points="1294.9,575 1294.5,344.5 1458.5,346.5 1458.5,575 "/>
<rect x="1084" y="135" class="st4" width="153" height="153"/>
<rect x="889" y="137" class="st4" width="153" height="153"/>
<rect x="1706" y="137" class="st4" width="153" height="153"/>
<rect x="1506" y="137" class="st4" width="153" height="153"/>
<rect x="1294" y="137" class="st4" width="153" height="153"/>
<rect x="963" y="137" class="st6" width="3" height="153"/>
<rect x="889" y="212" class="st6" width="153" height="3"/>
<rect x="1159" y="135" class="st6" width="3" height="153"/>
<rect x="1083" y="212" class="st6" width="153" height="3"/>
<rect x="963" y="355" class="st6" width="3" height="153"/>
<rect x="889" y="430" class="st6" width="153" height="3"/>
<rect x="1159" y="355" class="st6" width="3" height="153"/>
<rect x="1085" y="430" class="st6" width="153" height="3"/>
<rect x="1779" y="136" class="st6" width="3" height="153"/>
<rect x="1705" y="211" class="st6" width="153" height="3"/>
<rect x="1780" y="356" class="st6" width="3" height="153"/>
<rect x="1706" y="432" class="st6" width="153" height="3"/>
<rect x="1580" y="137" class="st6" width="3" height="153"/>
<rect x="1506" y="212" class="st6" width="153" height="3"/>
<rect x="1581" y="355" class="st6" width="3" height="153"/>
<rect x="1507" y="430" class="st6" width="153" height="3"/>
<rect x="1368" y="137" class="st6" width="3" height="153"/>
<rect x="1294" y="213" class="st6" width="153" height="3"/>
<circle class="st7" cx="1368" cy="72" r="52.5"/>
<rect x="1364.5" y="21.5" class="st8" width="6" height="17"/>
<rect x="1364.5" y="105.5" class="st8" width="6" height="17"/>
<rect x="1317.5" y="69.5" class="st8" width="17" height="6"/>
<rect x="1401.5" y="69.5" class="st8" width="17" height="6"/>
<circle class="st9" cx="1367.5" cy="72.5" r="3.5"/>
<rect x="1364.4" y="62.4" transform="matrix(0.866 -0.5 0.5 0.866 153.2515 699.744)" class="st10" width="35.9" height="2.9"/>
<polygon class="st10" points="1351.9,51.4 1368,73.3 1366.5,74.5 1350.5,52.7 "/>
<polygon class="st10" points="1351.3,52.1 1354,50 1349,49 1349,54 "/>
<polygon class="st10" points="1398,54.2 1399.6,57.2 1401.3,52.4 1396.4,51.7 "/>
<path class="st11" d="M1275,564.9c0-15-22.7-27.2-50.8-27.2c-2.5,0-4.9,0.1-7.2,0.3c-9.1-7.2-24.6-12-42.1-12
	c-23.4,0-43.1,8.5-49,20.1c-18.4-2.2-36.1,1.9-44.3,11.5c-7.1,8.3-5.4,18.6,3,27.5c-7.2,4.2-11.8,9.8-12.5,16
	c-1.8,15,19.5,28.3,47.4,29.8c10.4,0.6,20.8-0.6,30.7-3.8c7.2,0.5,15,0.7,23.2,0.7c27.5,0,51.2-2.9,61.6-7.1
	c20.4-5.7,34.1-16.4,34.1-28.6c-0.1-4.1-1.5-8-4-11.2C1271.3,576.4,1275,570.9,1275,564.9z"/>
<path class="st12" d="M1267.1,568.5c0-14.2-21.5-25.7-48-25.7c-2.3,0-4.6,0.1-6.9,0.3c-8.6-6.8-23.2-11.3-39.8-11.3
	c-22.2,0-40.8,8.1-46.3,19c-17.4-2.1-34.1,1.8-41.9,10.8c-6.7,7.8-5.1,17.6,2.8,26c-6.8,4-11.2,9.2-11.9,15.1
	c-1.7,14.2,18.4,26.8,44.9,28.2c9.8,0.6,19.7-0.6,29.1-3.6c6.8,0.4,14.2,0.7,21.9,0.7c26,0,48.4-2.8,58.3-6.7
	c19.3-5.4,32.3-15.5,32.3-27.1c-0.1-3.8-1.4-7.6-3.8-10.6C1263.7,579.4,1267.1,574.1,1267.1,568.5z"/>
<path class="st13" d="M1631.5,631.6c34.9-0.7,63-13.2,62.7-28c-0.1-1.3-0.3-2.6-0.8-3.8c16.7-5.1,27.6-13.5,27.4-22.8
	c-0.2-12.4-20.2-22.4-47.2-25c4.9-9.8-4.8-19-27-22.9c-19.3-3.4-43.3-2.1-63.8,2.8c-9.9-3.6-22.8-5.8-37.3-5.9
	c-34.8-0.3-65.6,11.5-68.7,26.4c-1.3,6,2.2,11.6,9.1,16.1c-1.1,4-1.5,8.2-1.5,12.3c0.3,14.5,7.3,26.9,17.1,32.3
	c13.5,10.5,38.4,17.3,66.8,16.8c8.7-0.1,17.4-1,25.9-2.6C1606.3,630.5,1618.9,632,1631.5,631.6z"/>
<path class="st12" d="M1623.7,628.6c33.1-0.6,59.8-12.5,59.5-26.6c-0.1-1.2-0.3-2.5-0.8-3.6c15.8-4.9,26.2-12.8,26-21.6
	c-0.2-11.8-19.2-21.3-44.8-23.7c4.6-9.3-4.6-18-25.6-21.8c-18.3-3.2-41.1-2-60.6,2.6c-9.4-3.4-21.7-5.5-35.5-5.6
	c-33.1-0.3-62.3,11-65.2,25.1c-1.2,5.7,2.1,11,8.6,15.3c-1,3.8-1.5,7.7-1.4,11.7c0.3,13.8,6.9,25.6,16.3,30.6
	c12.8,10,36.5,16.5,63.4,16c8.3-0.1,16.5-1,24.6-2.5C1599.8,627.6,1611.8,629,1623.7,628.6z"/>
<path class="st14" d="M969.1,650.3c26.6-0.5,47.9-15.8,47.6-34.3c-0.1-1.6-0.3-3.2-0.6-4.8c12.7-6.2,20.9-16.5,20.7-28.1
	c-0.3-15.4-15.7-28.1-36.2-31.5c3.6-12.2-3.8-23.7-20.8-28.8c-14.7-4.4-33-3-48.6,2.9c-7.6-4.6-17.5-7.5-28.5-7.7
	c-26.6-0.7-49.9,13.8-52.2,32.2c-0.9,7.5,1.8,14.4,7.1,20.1c-0.8,5.1-1.1,10.2-1,15.3c0.3,18.1,5.8,33.6,13.4,40.3
	c10.4,13.2,29.4,21.9,51.1,21.5c6.7-0.1,13.3-1.1,19.8-3C949.5,648.5,959.2,650.6,969.1,650.3z"/>
<path class="st12" d="M962.5,645.2c24.6-0.5,44.2-14.6,43.9-31.6c0-1.5-0.2-3-0.6-4.4c11.7-5.8,19.3-15.3,19.1-25.9
	c-0.3-14.2-14.4-25.9-33.4-29.1c3.4-11.2-3.5-21.8-19.2-26.5c-13.6-4.1-30.5-2.8-44.9,2.7c-7-4.2-16.1-6.9-26.3-7.1
	c-24.5-0.6-46.1,12.7-48.1,29.7c-0.8,6.9,1.7,13.3,6.5,18.5c-0.7,4.7-1,9.4-0.9,14.1c0.3,16.7,5.4,31,12.3,37.2
	c9.6,12.2,27.2,20.2,47.1,19.8c6.2-0.1,12.3-1,18.2-2.8C944.4,643.6,953.4,645.4,962.5,645.2z"/>
<path class="st15" d="M1921.6,577c0.1-15-19.7-27.3-44.3-27.5c-2.2,0-4.3,0.1-6.4,0.3c-8-7.3-21.4-12.1-36.8-12.2
	c-20.6-0.1-37.9,8.3-43.1,19.8c-16.1-2.3-31.7,1.7-38.9,11.2c-6.3,8.2-4.9,18.6,2.4,27.5c-6.3,4.2-10.4,9.7-11.1,15.9
	c-1.6,15,16.9,28.4,41.4,30.1c9.2,0.7,18.3-0.5,27-3.6c6.3,0.5,13.2,0.8,20.3,0.9c24.1,0.2,44.9-2.6,54.1-6.8
	c17.9-5.6,30-16.2,30.1-28.4c0-4-1.2-7.9-3.4-11.2C1918.3,588.5,1921.6,583,1921.6,577z"/>
<path class="st12" d="M1902.6,578.7c0.1-13-17.1-23.7-38.4-23.9c-1.9,0-3.7,0.1-5.5,0.2c-6.9-6.3-18.6-10.5-31.9-10.6
	c-17.8-0.1-32.9,7.2-37.4,17.2c-14-2-27.5,1.5-33.8,9.7c-5.5,7.1-4.2,16.1,2.1,23.9c-5.5,3.6-9,8.4-9.6,13.8
	c-1.4,13,14.6,24.7,35.9,26.1c7.9,0.6,15.9-0.5,23.4-3.1c5.5,0.4,11.4,0.7,17.6,0.8c20.9,0.1,38.9-2.3,46.9-5.9
	c15.5-4.8,26-14,26.1-24.6c0-3.5-1.1-6.8-3-9.7C1899.7,588.7,1902.5,583.9,1902.6,578.7z"/>
<g id="hinkebane">

		<rect x="222.1" y="815.3" transform="matrix(0.9659 -0.259 0.259 0.9659 -208.4975 93.964)" class="st16" width="60.6" height="46.1"/>

		<rect x="260.7" y="852.6" transform="matrix(0.9659 -0.259 0.259 0.9659 -216.8521 105.2442)" class="st16" width="60.6" height="46.1"/>

		<rect x="201.6" y="868.5" transform="matrix(0.9659 -0.259 0.259 0.9659 -222.9787 90.4704)" class="st16" width="60.6" height="46.1"/>

		<rect x="243.4" y="905" transform="matrix(0.9659 -0.259 0.259 0.9659 -231.0026 102.5472)" class="st16" width="60.6" height="46.1"/>

		<rect x="254.7" y="949.6" transform="matrix(0.9659 -0.259 0.259 0.9659 -242.1885 106.9971)" class="st16" width="60.6" height="46.1"/>

		<rect x="266.2" y="995" transform="matrix(0.9659 -0.259 0.259 0.9659 -253.5458 111.5203)" class="st16" width="60.6" height="46.1"/>

		<rect x="195" y="726.3" transform="matrix(0.9659 -0.259 0.259 0.9659 -186.3815 83.903)" class="st16" width="60.6" height="46.1"/>

		<rect x="232.1" y="764.6" transform="matrix(0.9659 -0.259 0.259 0.9659 -195.0326 94.8341)" class="st16" width="60.6" height="46.1"/>

		<rect x="175" y="779.1" transform="matrix(0.9659 -0.259 0.259 0.9659 -200.7446 80.5401)" class="st16" width="60.6" height="46.1"/>
</g>
<polygon class="st17" points="51.6,502.9 63.1,503.9 81.9,243.1 70.3,242.1 "/>
<rect x="71.3" y="243" class="st17" width="321.7" height="9.6"/>
<polygon class="st17" points="398.6,503.5 410,502.9 397.7,242 386.4,242.7 "/>
<rect x="124.4" y="252.6" class="st18" width="6.7" height="159.1"/>
<rect x="186.3" y="252.6" class="st18" width="6.7" height="159.1"/>
<path class="st19" d="M123.1,410.6h73.2c6.6,0,12,5.4,12,12v3.6c0,6.6-5.4,12-12,12h-73.2c-6.6,0-12-5.4-12-12v-3.6
	C111.1,416,116.4,410.6,123.1,410.6z"/>
<rect x="268.2" y="251.5" class="st18" width="6.7" height="159.1"/>
<rect x="330.2" y="251.5" class="st18" width="6.7" height="159.1"/>
<path class="st19" d="M266.9,409.6h73.2c6.6,0,12,5.4,12,12v3.6c0,6.6-5.4,12-12,12h-73.2c-6.6,0-12-5.4-12-12v-3.6
	C254.9,415,260.3,409.6,266.9,409.6z"/>
<path class="st12" d="M829.2,454.6c0.1-17-25-31-56.2-31.2c-2.7,0-5.4,0.1-8.1,0.3c-10.1-8.3-27.2-13.8-46.6-13.9
	c-26-0.2-48,9.4-54.5,22.5c-20.4-2.6-40.1,1.9-49.3,12.7c-8,9.3-6.2,21.1,3.1,31.2c-8,4.8-13.2,11-14.1,18.1
	c-2.1,17,21.4,32.2,52.5,34.1c11.5,0.8,23.1-0.5,34.2-4c8,0.6,16.7,0.9,25.8,1c30.6,0.2,56.9-2.9,68.5-7.6
	c22.7-6.3,38-18.3,38.1-32.2c-0.1-4.6-1.6-9-4.4-12.7C825,467.7,829.1,461.4,829.2,454.6z"/>
<path class="st12" d="M729,384.9c0-15-22.7-27.2-50.8-27.2c-2.5,0-4.9,0.1-7.2,0.3c-9.1-7.2-24.6-12-42.1-12
	c-23.5,0-43.1,8.5-49,20.1c-18.4-2.2-36.1,1.9-44.3,11.5c-7.1,8.3-5.4,18.6,3,27.5c-7.2,4.2-11.8,9.8-12.5,16
	c-1.8,15,19.5,28.3,47.4,29.8c10.4,0.6,20.8-0.6,30.7-3.8c7.2,0.5,15,0.7,23.2,0.7c27.5,0,51.2-2.9,61.6-7.1
	c20.4-5.7,34.1-16.4,34.1-28.6c-0.1-4.1-1.5-8-4-11.2C725.3,396.4,729,390.9,729,384.9z"/>
<path class="st12" d="M618.8,528.3c26.4-3.2,46-20.7,43.8-39c-0.2-1.6-0.6-3.2-1.1-4.7c12-7.5,19.1-18.6,17.7-30
	c-1.9-15.3-18.5-26.3-39.3-27.6c2.4-12.5-6.2-23.1-23.7-26.5c-15.1-2.9-33.2,0.5-48.1,7.9c-8-3.8-18.1-5.6-29.2-4.7
	c-26.5,2.1-48.2,18.8-48.6,37.4c-0.1,7.5,3.3,14.1,9.1,19.3c-0.3,5.1-0.1,10.2,0.6,15.3c2.2,18,9.2,32.8,17.5,38.7
	c11.7,12,31.6,18.7,53.1,16.1c6.6-0.8,13.1-2.5,19.3-5C599.1,528.6,609,529.6,618.8,528.3z"/>
<path class="st20" d="M539,404c0.3-0.4,5-6.6,13-6s11.8,7.6,12,8c16.5-10,26.2-9.5,32-7c5.4,2.4,6.1,5.8,14,9c9.7,4,14.5,0.9,20,5
	c2.9,2.2,6.2,6.5,7,16c11.4,1,15.9,4.7,18,8c3.2,5.1,0.1,8.7,3,18c2.7,8.8,6.7,9.6,8,16c0.9,4.6,0.3,11.4-7,21c0.5,8-2,15.8-7,22
	c-4.5,5.4-10.7,9.1-17.7,10.5L628,519c9.3,1.1,18.3-2.7,23-10s3.4-15.1,3-17c7.5-8.5,8.5-14.8,8-19c-0.7-6-4.4-7.4-8-18
	c-2.8-8.1-1.5-10-4-14s-7.3-8-18-10c0.2-3.3-0.2-7.6-3-11c-4-4.8-9.3-3.4-19-7c-10.6-4-11-7.9-18-10c-6-1.8-15.5-1.7-30,8
	c-1.6-3-4-5.4-7-7C547.5,400.1,540,403.5,539,404z"/>
<path class="st20" d="M635.9,430.5c6.8-4,15.3-3.9,22,0.2c4.5-3.2,9.7-5.2,15.2-5.9c5.5-0.6,11,0.1,16.1,2.2
	c5.4-5.8,12.1-10.1,19.5-12.8c4.2-1.5,8.6-2.5,13-2.9l18.3,2.2c-8-1-16-0.4-23.8,1.8c-2.6,0.7-5.2,1.7-7.6,2.9
	c-5.8,3-10.6,7.4-14.2,12.8c-1.5-0.8-12.2-6.4-23.7-2.2c-4.1,1.5-7.7,4-10.5,7.3c-4-2.8-8.5-4.6-13.2-5.5
	C643.4,429.9,639.6,429.9,635.9,430.5z"/>
<rect x="1656.9" y="685" class="st21" width="10" height="78.9"/>
<rect x="1835.8" y="685" class="st21" width="10" height="78.9"/>
<polygon class="st21" points="1680.6,807.7 1689.2,805.4 1666.6,759.8 1656.9,762.3 "/>
<rect x="1835.3" y="751.1" class="st21" width="10" height="76.7"/>
<rect x="1656.4" y="751.1" class="st21" width="10" height="76.7"/>
<polygon class="st21" points="1862.7,812 1871.9,808.9 1843.1,757.6 1832.7,761.1 "/>
<rect x="1856.4" y="797.8" class="st21" width="10" height="52.2"/>
<rect x="1674.2" y="794.4" class="st21" width="10" height="52.2"/>
<rect x="1632.5" y="685" class="st22" width="240" height="21.1"/>
<rect x="1632.5" y="713.9" class="st22" width="240" height="21.1"/>
<rect x="1632.5" y="742.8" class="st22" width="240" height="21.1"/>
<polygon class="st22" points="1889.6,798.9 1644.7,798.3 1652.6,813.3 1899.7,812.2 "/>
<polygon class="st22" points="1875.8,776.1 1635.8,776.1 1643.6,791.1 1886.4,790 "/>
<rect x="885.5" y="715.5" class="st21" width="9" height="71"/>
<rect x="1046.5" y="715.5" class="st21" width="9" height="71"/>
<polygon class="st21" points="906.8,826 914.5,823.9 894.1,782.8 885.5,785.1 "/>
<rect x="1046" y="775" class="st21" width="9" height="69"/>
<rect x="885" y="775" class="st21" width="9" height="69"/>
<polygon class="st21" points="1070.6,829.8 1079,827 1053.1,780.8 1043.6,784 "/>
<rect x="1065" y="817" class="st21" width="9" height="47"/>
<rect x="901" y="814" class="st21" width="9" height="47"/>
<rect x="863.5" y="715.5" class="st22" width="216" height="19"/>
<rect x="863.5" y="741.5" class="st22" width="216" height="19"/>
<rect x="863.5" y="767.5" class="st22" width="216" height="19"/>
<polygon class="st22" points="1094.9,818 874.5,817.5 881.6,831 1104,830 "/>
<polygon class="st22" points="1082.5,797.5 866.5,797.5 873.5,811 1092,810 "/>
<radialGradient id="SVGID_1_" cx="679.5" cy="959.5" r="81" gradientTransform="matrix(1 0 0 -1 0 1080)" gradientUnits="userSpaceOnUse">
	<stop  offset="0" style="stop-color:#FFBA1E"/>
	<stop  offset="0.51" style="stop-color:#FFBC1F"/>
	<stop  offset="0.7" style="stop-color:#FFC323"/>
	<stop  offset="0.83" style="stop-color:#FFCE29"/>
	<stop  offset="0.93" style="stop-color:#FFDF31"/>
	<stop  offset="0.96" style="stop-color:#FFE635"/>
</radialGradient>
<circle class="st23" cx="679.5" cy="120.5" r="81"/>
<path class="st24" d="M679.5,40C724,40,760,76,760,120.5S724,201,679.5,201S599,165,599,120.5C599,76.1,635.1,40,679.5,40 M679.5,39
	c-45,0-81.5,36.5-81.5,81.5s36.5,81.5,81.5,81.5s81.5-36.5,81.5-81.5S724.5,39,679.5,39z"/>
<path class="st25" d="M149.6,184.4L422,185c-1.4-14.7-8.3-81.7-32-87.4c-2.8-0.7-13.7-3.3-18.2,1.7c-2.9,3.2-1.9,8-1.3,10.4
	c2.4-5.8,2.8-9.3,1.3-10.4c-4.4-3.2-24.5,12.3-60.2,46.3c2-27.4-8-50.2-25.7-57.3c-4.6-1.8-9.5-2.6-14.4-2.3
	c-2.5,0.1-5.1,0.5-7.5,1.2c-26.6,7.2-34.1,45.3-35.1,50.9c-1.6-6.2-8.6-30.4-32-41.1c-4.2-1.9-8.6-3.2-13.2-4
	c-3.9,0.8-7.7,2.1-11.3,4C137.9,115.7,148.8,179.9,149.6,184.4z"/>
</svg>
