<svg xmlns="http://www.w3.org/2000/svg" width="1920" height="1080" viewBox="0 0 1920 1080"><defs><style>.cls-1{fill:#b3b3b3;}.cls-2{fill:#e6e6e6;}.cls-11,.cls-3,.cls-7{fill:#fff;}.cls-3,.cls-5{opacity:0.47;}.cls-4,.cls-5{fill:none;}.cls-6{fill:#b4f6ff;}.cls-7{opacity:0.32;}.cls-8{fill:gray;}.cls-9{fill:#f2f2f2;}.cls-10{fill:#ccc;opacity:0.49;}.cls-12{fill:#999;}.cls-13{fill:#c1272d;}.cls-14{fill:#ed1c24;}.cls-15{fill:#2e3192;}.cls-16{fill:blue;}.cls-17{opacity:0.59;}</style></defs><title>baggrundsskaerm</title><g id="Layer_8" data-name="Layer 8"><rect class="cls-1" x="0.5" y="-0.5" width="1920" height="1080"/><rect class="cls-2" x="4.5" y="3.5" width="96" height="96"/><polygon class="cls-3" points="96.37 95.581 8.473 7.684 96.37 7.684 96.37 95.581"/><rect class="cls-2" x="4.5" y="104.5" width="96" height="96"/><polygon class="cls-3" points="96.37 196.581 8.473 108.684 96.37 108.684 96.37 196.581"/><rect class="cls-2" x="4.5" y="205.5" width="96" height="96"/><polygon class="cls-3" points="96.37 297.581 8.473 209.684 96.37 209.684 96.37 297.581"/><rect class="cls-2" x="4.5" y="306.5" width="96" height="96"/><polygon class="cls-3" points="96.37 398.581 8.473 310.684 96.37 310.684 96.37 398.581"/><rect class="cls-2" x="4.5" y="407.5" width="96" height="96"/><polygon class="cls-3" points="96.37 499.581 8.473 411.684 96.37 411.684 96.37 499.581"/><rect class="cls-2" x="4.5" y="508.5" width="96" height="96"/><polygon class="cls-3" points="96.37 600.581 8.473 512.684 96.37 512.684 96.37 600.581"/><rect class="cls-2" x="4.5" y="609.5" width="96" height="96"/><polygon class="cls-3" points="96.37 701.581 8.473 613.684 96.37 613.684 96.37 701.581"/><rect class="cls-2" x="4.5" y="710.5" width="96" height="96"/><polygon class="cls-3" points="96.37 802.581 8.473 714.684 96.37 714.684 96.37 802.581"/><rect class="cls-2" x="4.5" y="811.5" width="96" height="96"/><polygon class="cls-3" points="96.37 903.581 8.473 815.684 96.37 815.684 96.37 903.581"/><rect class="cls-2" x="4.5" y="912.5" width="96" height="96"/><polygon class="cls-3" points="96.37 1004.581 8.473 916.684 96.37 916.684 96.37 1004.581"/><path class="cls-2" d="M4.5,1013.5v66h96v-66Z"/><polygon class="cls-4" points="100.5 1079.5 100.5 1109.5 4.5 1109.5 4.5 1079.5 70.29 1079.5 96.37 1105.58 96.37 1079.5 100.5 1079.5"/><polygon class="cls-5" points="96.37 1079.5 96.37 1105.58 70.29 1079.5 96.37 1079.5"/><polygon class="cls-3" points="96.37 1017.68 96.37 1079.5 70.29 1079.5 8.47 1017.68 96.37 1017.68"/><rect class="cls-2" x="105.5" y="3.5" width="96" height="96"/><polygon class="cls-3" points="197.37 95.581 109.473 7.684 197.37 7.684 197.37 95.581"/><rect class="cls-2" x="105.5" y="104.5" width="96" height="96"/><polygon class="cls-3" points="197.37 196.581 109.473 108.684 197.37 108.684 197.37 196.581"/><rect class="cls-2" x="105.5" y="205.5" width="96" height="96"/><polygon class="cls-3" points="197.37 297.581 109.473 209.684 197.37 209.684 197.37 297.581"/><rect class="cls-2" x="105.5" y="306.5" width="96" height="96"/><polygon class="cls-3" points="197.37 398.581 109.473 310.684 197.37 310.684 197.37 398.581"/><rect class="cls-2" x="105.5" y="407.5" width="96" height="96"/><polygon class="cls-3" points="197.37 499.581 109.473 411.684 197.37 411.684 197.37 499.581"/><rect class="cls-2" x="105.5" y="508.5" width="96" height="96"/><polygon class="cls-3" points="197.37 600.581 109.473 512.684 197.37 512.684 197.37 600.581"/><rect class="cls-2" x="105.5" y="609.5" width="96" height="96"/><polygon class="cls-3" points="197.37 701.581 109.473 613.684 197.37 613.684 197.37 701.581"/><rect class="cls-2" x="105.5" y="710.5" width="96" height="96"/><polygon class="cls-3" points="197.37 802.581 109.473 714.684 197.37 714.684 197.37 802.581"/><rect class="cls-2" x="105.5" y="811.5" width="96" height="96"/><polygon class="cls-3" points="197.37 903.581 109.473 815.684 197.37 815.684 197.37 903.581"/><rect class="cls-2" x="105.5" y="912.5" width="96" height="96"/><polygon class="cls-3" points="197.37 1004.581 109.473 916.684 197.37 916.684 197.37 1004.581"/><path class="cls-2" d="M105.5,1013.5v66h96v-66Z"/><polygon class="cls-4" points="201.5 1079.5 201.5 1109.5 105.5 1109.5 105.5 1079.5 171.29 1079.5 197.37 1105.58 197.37 1079.5 201.5 1079.5"/><polygon class="cls-5" points="197.37 1079.5 197.37 1105.58 171.29 1079.5 197.37 1079.5"/><polygon class="cls-3" points="197.37 1017.68 197.37 1079.5 171.29 1079.5 109.47 1017.68 197.37 1017.68"/><rect class="cls-2" x="206.5" y="3.5" width="96" height="96"/><polygon class="cls-3" points="298.37 95.581 210.473 7.684 298.37 7.684 298.37 95.581"/><rect class="cls-2" x="206.5" y="104.5" width="96" height="96"/><polygon class="cls-3" points="298.37 196.581 210.473 108.684 298.37 108.684 298.37 196.581"/><rect class="cls-2" x="206.5" y="205.5" width="96" height="96"/><polygon class="cls-3" points="298.37 297.581 210.473 209.684 298.37 209.684 298.37 297.581"/><rect class="cls-2" x="206.5" y="306.5" width="96" height="96"/><polygon class="cls-3" points="298.37 398.581 210.473 310.684 298.37 310.684 298.37 398.581"/><rect class="cls-2" x="206.5" y="407.5" width="96" height="96"/><polygon class="cls-3" points="298.37 499.581 210.473 411.684 298.37 411.684 298.37 499.581"/><rect class="cls-2" x="206.5" y="508.5" width="96" height="96"/><polygon class="cls-3" points="298.37 600.581 210.473 512.684 298.37 512.684 298.37 600.581"/><rect class="cls-2" x="206.5" y="609.5" width="96" height="96"/><polygon class="cls-3" points="298.37 701.581 210.473 613.684 298.37 613.684 298.37 701.581"/><rect class="cls-2" x="206.5" y="710.5" width="96" height="96"/><polygon class="cls-3" points="298.37 802.581 210.473 714.684 298.37 714.684 298.37 802.581"/><rect class="cls-2" x="206.5" y="811.5" width="96" height="96"/><polygon class="cls-3" points="298.37 903.581 210.473 815.684 298.37 815.684 298.37 903.581"/><rect class="cls-2" x="206.5" y="912.5" width="96" height="96"/><polygon class="cls-3" points="298.37 1004.581 210.473 916.684 298.37 916.684 298.37 1004.581"/><path class="cls-2" d="M206.5,1013.5v66h96v-66Z"/><polygon class="cls-4" points="302.5 1079.5 302.5 1109.5 206.5 1109.5 206.5 1079.5 272.29 1079.5 298.37 1105.58 298.37 1079.5 302.5 1079.5"/><polygon class="cls-5" points="298.37 1079.5 298.37 1105.58 272.29 1079.5 298.37 1079.5"/><polygon class="cls-3" points="298.37 1017.68 298.37 1079.5 272.29 1079.5 210.47 1017.68 298.37 1017.68"/><rect class="cls-2" x="308.5" y="3.5" width="96" height="96"/><polygon class="cls-3" points="400.37 95.581 312.473 7.684 400.37 7.684 400.37 95.581"/><rect class="cls-2" x="308.5" y="104.5" width="96" height="96"/><polygon class="cls-3" points="400.37 196.581 312.473 108.684 400.37 108.684 400.37 196.581"/><rect class="cls-2" x="308.5" y="205.5" width="96" height="96"/><polygon class="cls-3" points="400.37 297.581 312.473 209.684 400.37 209.684 400.37 297.581"/><rect class="cls-2" x="308.5" y="306.5" width="96" height="96"/><polygon class="cls-3" points="400.37 398.581 312.473 310.684 400.37 310.684 400.37 398.581"/><rect class="cls-2" x="308.5" y="407.5" width="96" height="96"/><polygon class="cls-3" points="400.37 499.581 312.473 411.684 400.37 411.684 400.37 499.581"/><rect class="cls-2" x="308.5" y="508.5" width="96" height="96"/><polygon class="cls-3" points="400.37 600.581 312.473 512.684 400.37 512.684 400.37 600.581"/><rect class="cls-2" x="308.5" y="609.5" width="96" height="96"/><polygon class="cls-3" points="400.37 701.581 312.473 613.684 400.37 613.684 400.37 701.581"/><rect class="cls-2" x="308.5" y="710.5" width="96" height="96"/><polygon class="cls-3" points="400.37 802.581 312.473 714.684 400.37 714.684 400.37 802.581"/><rect class="cls-2" x="308.5" y="811.5" width="96" height="96"/><polygon class="cls-3" points="400.37 903.581 312.473 815.684 400.37 815.684 400.37 903.581"/><rect class="cls-2" x="308.5" y="912.5" width="96" height="96"/><polygon class="cls-3" points="400.37 1004.581 312.473 916.684 400.37 916.684 400.37 1004.581"/><path class="cls-2" d="M308.5,1013.5v66h96v-66Z"/><polygon class="cls-4" points="404.5 1079.5 404.5 1109.5 308.5 1109.5 308.5 1079.5 374.29 1079.5 400.37 1105.58 400.37 1079.5 404.5 1079.5"/><polygon class="cls-5" points="400.37 1079.5 400.37 1105.58 374.29 1079.5 400.37 1079.5"/><polygon class="cls-3" points="400.37 1017.68 400.37 1079.5 374.29 1079.5 312.47 1017.68 400.37 1017.68"/><rect class="cls-2" x="411.5" y="3.5" width="96" height="96"/><polygon class="cls-3" points="503.37 95.581 415.473 7.684 503.37 7.684 503.37 95.581"/><rect class="cls-2" x="411.5" y="104.5" width="96" height="96"/><polygon class="cls-3" points="503.37 196.581 415.473 108.684 503.37 108.684 503.37 196.581"/><rect class="cls-2" x="411.5" y="205.5" width="96" height="96"/><polygon class="cls-3" points="503.37 297.581 415.473 209.684 503.37 209.684 503.37 297.581"/><rect class="cls-2" x="411.5" y="306.5" width="96" height="96"/><polygon class="cls-3" points="503.37 398.581 415.473 310.684 503.37 310.684 503.37 398.581"/><rect class="cls-2" x="411.5" y="407.5" width="96" height="96"/><polygon class="cls-3" points="503.37 499.581 415.473 411.684 503.37 411.684 503.37 499.581"/><rect class="cls-2" x="411.5" y="508.5" width="96" height="96"/><polygon class="cls-3" points="503.37 600.581 415.473 512.684 503.37 512.684 503.37 600.581"/><rect class="cls-2" x="411.5" y="609.5" width="96" height="96"/><polygon class="cls-3" points="503.37 701.581 415.473 613.684 503.37 613.684 503.37 701.581"/><rect class="cls-2" x="411.5" y="710.5" width="96" height="96"/><polygon class="cls-3" points="503.37 802.581 415.473 714.684 503.37 714.684 503.37 802.581"/><rect class="cls-2" x="411.5" y="811.5" width="96" height="96"/><polygon class="cls-3" points="503.37 903.581 415.473 815.684 503.37 815.684 503.37 903.581"/><rect class="cls-2" x="411.5" y="912.5" width="96" height="96"/><polygon class="cls-3" points="503.37 1004.581 415.473 916.684 503.37 916.684 503.37 1004.581"/><path class="cls-2" d="M411.5,1013.5v66h96v-66Z"/><polygon class="cls-4" points="507.5 1079.5 507.5 1109.5 411.5 1109.5 411.5 1079.5 477.29 1079.5 503.37 1105.58 503.37 1079.5 507.5 1079.5"/><polygon class="cls-5" points="503.37 1079.5 503.37 1105.58 477.29 1079.5 503.37 1079.5"/><polygon class="cls-3" points="503.37 1017.68 503.37 1079.5 477.29 1079.5 415.47 1017.68 503.37 1017.68"/><rect class="cls-2" x="513.5" y="3.5" width="96" height="96"/><polygon class="cls-3" points="605.37 95.581 517.473 7.684 605.37 7.684 605.37 95.581"/><rect class="cls-2" x="513.5" y="104.5" width="96" height="96"/><polygon class="cls-3" points="605.37 196.581 517.473 108.684 605.37 108.684 605.37 196.581"/><rect class="cls-2" x="513.5" y="205.5" width="96" height="96"/><polygon class="cls-3" points="605.37 297.581 517.473 209.684 605.37 209.684 605.37 297.581"/><rect class="cls-2" x="513.5" y="306.5" width="96" height="96"/><polygon class="cls-3" points="605.37 398.581 517.473 310.684 605.37 310.684 605.37 398.581"/><rect class="cls-2" x="513.5" y="407.5" width="96" height="96"/><polygon class="cls-3" points="605.37 499.581 517.473 411.684 605.37 411.684 605.37 499.581"/><rect class="cls-2" x="513.5" y="508.5" width="96" height="96"/><polygon class="cls-3" points="605.37 600.581 517.473 512.684 605.37 512.684 605.37 600.581"/><rect class="cls-2" x="513.5" y="609.5" width="96" height="96"/><polygon class="cls-3" points="605.37 701.581 517.473 613.684 605.37 613.684 605.37 701.581"/><rect class="cls-2" x="513.5" y="710.5" width="96" height="96"/><polygon class="cls-3" points="605.37 802.581 517.473 714.684 605.37 714.684 605.37 802.581"/><rect class="cls-2" x="513.5" y="811.5" width="96" height="96"/><polygon class="cls-3" points="605.37 903.581 517.473 815.684 605.37 815.684 605.37 903.581"/><rect class="cls-2" x="513.5" y="912.5" width="96" height="96"/><polygon class="cls-3" points="605.37 1004.581 517.473 916.684 605.37 916.684 605.37 1004.581"/><path class="cls-2" d="M513.5,1013.5v66h96v-66Z"/><polygon class="cls-4" points="609.5 1079.5 609.5 1109.5 513.5 1109.5 513.5 1079.5 579.29 1079.5 605.37 1105.58 605.37 1079.5 609.5 1079.5"/><polygon class="cls-5" points="605.37 1079.5 605.37 1105.58 579.29 1079.5 605.37 1079.5"/><polygon class="cls-3" points="605.37 1017.68 605.37 1079.5 579.29 1079.5 517.47 1017.68 605.37 1017.68"/><rect class="cls-2" x="615.5" y="3.5" width="96" height="96"/><polygon class="cls-3" points="707.37 95.581 619.473 7.684 707.37 7.684 707.37 95.581"/><rect class="cls-2" x="615.5" y="104.5" width="96" height="96"/><polygon class="cls-3" points="707.37 196.581 619.473 108.684 707.37 108.684 707.37 196.581"/><rect class="cls-2" x="615.5" y="205.5" width="96" height="96"/><polygon class="cls-3" points="707.37 297.581 619.473 209.684 707.37 209.684 707.37 297.581"/><rect class="cls-2" x="615.5" y="306.5" width="96" height="96"/><polygon class="cls-3" points="707.37 398.581 619.473 310.684 707.37 310.684 707.37 398.581"/><rect class="cls-2" x="615.5" y="407.5" width="96" height="96"/><polygon class="cls-3" points="707.37 499.581 619.473 411.684 707.37 411.684 707.37 499.581"/><rect class="cls-2" x="615.5" y="508.5" width="96" height="96"/><polygon class="cls-3" points="707.37 600.581 619.473 512.684 707.37 512.684 707.37 600.581"/><rect class="cls-2" x="615.5" y="609.5" width="96" height="96"/><polygon class="cls-3" points="707.37 701.581 619.473 613.684 707.37 613.684 707.37 701.581"/><rect class="cls-2" x="615.5" y="710.5" width="96" height="96"/><polygon class="cls-3" points="707.37 802.581 619.473 714.684 707.37 714.684 707.37 802.581"/><rect class="cls-2" x="615.5" y="811.5" width="96" height="96"/><polygon class="cls-3" points="707.37 903.581 619.473 815.684 707.37 815.684 707.37 903.581"/><rect class="cls-2" x="615.5" y="912.5" width="96" height="96"/><polygon class="cls-3" points="707.37 1004.581 619.473 916.684 707.37 916.684 707.37 1004.581"/><path class="cls-2" d="M615.5,1013.5v66h96v-66Z"/><polygon class="cls-4" points="711.5 1079.5 711.5 1109.5 615.5 1109.5 615.5 1079.5 681.29 1079.5 707.37 1105.58 707.37 1079.5 711.5 1079.5"/><polygon class="cls-5" points="707.37 1079.5 707.37 1105.58 681.29 1079.5 707.37 1079.5"/><polygon class="cls-3" points="707.37 1017.68 707.37 1079.5 681.29 1079.5 619.47 1017.68 707.37 1017.68"/><rect class="cls-2" x="717.5" y="3.5" width="96" height="96"/><polygon class="cls-3" points="809.37 95.581 721.473 7.684 809.37 7.684 809.37 95.581"/><rect class="cls-2" x="717.5" y="104.5" width="96" height="96"/><polygon class="cls-3" points="809.37 196.581 721.473 108.684 809.37 108.684 809.37 196.581"/><rect class="cls-2" x="717.5" y="205.5" width="96" height="96"/><polygon class="cls-3" points="809.37 297.581 721.473 209.684 809.37 209.684 809.37 297.581"/><rect class="cls-2" x="717.5" y="306.5" width="96" height="96"/><polygon class="cls-3" points="809.37 398.581 721.473 310.684 809.37 310.684 809.37 398.581"/><rect class="cls-2" x="717.5" y="407.5" width="96" height="96"/><polygon class="cls-3" points="809.37 499.581 721.473 411.684 809.37 411.684 809.37 499.581"/><rect class="cls-2" x="717.5" y="508.5" width="96" height="96"/><polygon class="cls-3" points="809.37 600.581 721.473 512.684 809.37 512.684 809.37 600.581"/><rect class="cls-2" x="717.5" y="609.5" width="96" height="96"/><polygon class="cls-3" points="809.37 701.581 721.473 613.684 809.37 613.684 809.37 701.581"/><rect class="cls-2" x="717.5" y="710.5" width="96" height="96"/><polygon class="cls-3" points="809.37 802.581 721.473 714.684 809.37 714.684 809.37 802.581"/><rect class="cls-2" x="717.5" y="811.5" width="96" height="96"/><polygon class="cls-3" points="809.37 903.581 721.473 815.684 809.37 815.684 809.37 903.581"/><rect class="cls-2" x="717.5" y="912.5" width="96" height="96"/><polygon class="cls-3" points="809.37 1004.581 721.473 916.684 809.37 916.684 809.37 1004.581"/><path class="cls-2" d="M717.5,1013.5v66h96v-66Z"/><polygon class="cls-4" points="813.5 1079.5 813.5 1109.5 717.5 1109.5 717.5 1079.5 783.29 1079.5 809.37 1105.58 809.37 1079.5 813.5 1079.5"/><polygon class="cls-5" points="809.37 1079.5 809.37 1105.58 783.29 1079.5 809.37 1079.5"/><polygon class="cls-3" points="809.37 1017.68 809.37 1079.5 783.29 1079.5 721.47 1017.68 809.37 1017.68"/><rect class="cls-2" x="819.5" y="3.5" width="96" height="96"/><polygon class="cls-3" points="911.37 95.581 823.473 7.684 911.37 7.684 911.37 95.581"/><rect class="cls-2" x="819.5" y="104.5" width="96" height="96"/><polygon class="cls-3" points="911.37 196.581 823.473 108.684 911.37 108.684 911.37 196.581"/><rect class="cls-2" x="819.5" y="205.5" width="96" height="96"/><polygon class="cls-3" points="911.37 297.581 823.473 209.684 911.37 209.684 911.37 297.581"/><rect class="cls-2" x="819.5" y="306.5" width="96" height="96"/><polygon class="cls-3" points="911.37 398.581 823.473 310.684 911.37 310.684 911.37 398.581"/><rect class="cls-2" x="819.5" y="407.5" width="96" height="96"/><polygon class="cls-3" points="911.37 499.581 823.473 411.684 911.37 411.684 911.37 499.581"/><rect class="cls-2" x="819.5" y="508.5" width="96" height="96"/><polygon class="cls-3" points="911.37 600.581 823.473 512.684 911.37 512.684 911.37 600.581"/><rect class="cls-2" x="819.5" y="609.5" width="96" height="96"/><polygon class="cls-3" points="911.37 701.581 823.473 613.684 911.37 613.684 911.37 701.581"/><rect class="cls-2" x="819.5" y="710.5" width="96" height="96"/><polygon class="cls-3" points="911.37 802.581 823.473 714.684 911.37 714.684 911.37 802.581"/><rect class="cls-2" x="819.5" y="811.5" width="96" height="96"/><polygon class="cls-3" points="911.37 903.581 823.473 815.684 911.37 815.684 911.37 903.581"/><rect class="cls-2" x="819.5" y="912.5" width="96" height="96"/><polygon class="cls-3" points="911.37 1004.581 823.473 916.684 911.37 916.684 911.37 1004.581"/><path class="cls-2" d="M819.5,1013.5v66h96v-66Z"/><polygon class="cls-4" points="915.5 1079.5 915.5 1109.5 819.5 1109.5 819.5 1079.5 885.29 1079.5 911.37 1105.58 911.37 1079.5 915.5 1079.5"/><polygon class="cls-5" points="911.37 1079.5 911.37 1105.58 885.29 1079.5 911.37 1079.5"/><polygon class="cls-3" points="911.37 1017.68 911.37 1079.5 885.29 1079.5 823.47 1017.68 911.37 1017.68"/><rect class="cls-2" x="922.5" y="3.5" width="96" height="96"/><polygon class="cls-3" points="1014.37 95.581 926.473 7.684 1014.37 7.684 1014.37 95.581"/><rect class="cls-2" x="922.5" y="104.5" width="96" height="96"/><polygon class="cls-3" points="1014.37 196.581 926.473 108.684 1014.37 108.684 1014.37 196.581"/><rect class="cls-2" x="922.5" y="205.5" width="96" height="96"/><polygon class="cls-3" points="1014.37 297.581 926.473 209.684 1014.37 209.684 1014.37 297.581"/><rect class="cls-2" x="922.5" y="306.5" width="96" height="96"/><polygon class="cls-3" points="1014.37 398.581 926.473 310.684 1014.37 310.684 1014.37 398.581"/><rect class="cls-2" x="922.5" y="407.5" width="96" height="96"/><polygon class="cls-3" points="1014.37 499.581 926.473 411.684 1014.37 411.684 1014.37 499.581"/><rect class="cls-2" x="922.5" y="508.5" width="96" height="96"/><polygon class="cls-3" points="1014.37 600.581 926.473 512.684 1014.37 512.684 1014.37 600.581"/><rect class="cls-2" x="922.5" y="609.5" width="96" height="96"/><polygon class="cls-3" points="1014.37 701.581 926.473 613.684 1014.37 613.684 1014.37 701.581"/><rect class="cls-2" x="922.5" y="710.5" width="96" height="96"/><polygon class="cls-3" points="1014.37 802.581 926.473 714.684 1014.37 714.684 1014.37 802.581"/><rect class="cls-2" x="922.5" y="811.5" width="96" height="96"/><polygon class="cls-3" points="1014.37 903.581 926.473 815.684 1014.37 815.684 1014.37 903.581"/><rect class="cls-2" x="922.5" y="912.5" width="96" height="96"/><polygon class="cls-3" points="1014.37 1004.581 926.473 916.684 1014.37 916.684 1014.37 1004.581"/><path class="cls-2" d="M922.5,1013.5v66h96v-66Z"/><polygon class="cls-4" points="1018.5 1079.5 1018.5 1109.5 922.5 1109.5 922.5 1079.5 988.29 1079.5 1014.37 1105.58 1014.37 1079.5 1018.5 1079.5"/><polygon class="cls-5" points="1014.37 1079.5 1014.37 1105.58 988.29 1079.5 1014.37 1079.5"/><polygon class="cls-3" points="1014.37 1017.68 1014.37 1079.5 988.29 1079.5 926.47 1017.68 1014.37 1017.68"/><rect class="cls-2" x="1024.5" y="3.5" width="96" height="96"/><polygon class="cls-3" points="1116.37 95.581 1028.473 7.684 1116.37 7.684 1116.37 95.581"/><rect class="cls-2" x="1024.5" y="104.5" width="96" height="96"/><polygon class="cls-3" points="1116.37 196.581 1028.473 108.684 1116.37 108.684 1116.37 196.581"/><rect class="cls-2" x="1024.5" y="205.5" width="96" height="96"/><polygon class="cls-3" points="1116.37 297.581 1028.473 209.684 1116.37 209.684 1116.37 297.581"/><rect class="cls-2" x="1024.5" y="306.5" width="96" height="96"/><polygon class="cls-3" points="1116.37 398.581 1028.473 310.684 1116.37 310.684 1116.37 398.581"/><rect class="cls-2" x="1024.5" y="407.5" width="96" height="96"/><polygon class="cls-3" points="1116.37 499.581 1028.473 411.684 1116.37 411.684 1116.37 499.581"/><rect class="cls-2" x="1024.5" y="508.5" width="96" height="96"/><polygon class="cls-3" points="1116.37 600.581 1028.473 512.684 1116.37 512.684 1116.37 600.581"/><rect class="cls-2" x="1024.5" y="609.5" width="96" height="96"/><polygon class="cls-3" points="1116.37 701.581 1028.473 613.684 1116.37 613.684 1116.37 701.581"/><rect class="cls-2" x="1024.5" y="710.5" width="96" height="96"/><polygon class="cls-3" points="1116.37 802.581 1028.473 714.684 1116.37 714.684 1116.37 802.581"/><rect class="cls-2" x="1024.5" y="811.5" width="96" height="96"/><polygon class="cls-3" points="1116.37 903.581 1028.473 815.684 1116.37 815.684 1116.37 903.581"/><rect class="cls-2" x="1024.5" y="912.5" width="96" height="96"/><polygon class="cls-3" points="1116.37 1004.581 1028.473 916.684 1116.37 916.684 1116.37 1004.581"/><path class="cls-2" d="M1024.5,1013.5v66h96v-66Z"/><polygon class="cls-4" points="1120.5 1079.5 1120.5 1109.5 1024.5 1109.5 1024.5 1079.5 1090.29 1079.5 1116.37 1105.58 1116.37 1079.5 1120.5 1079.5"/><polygon class="cls-5" points="1116.37 1079.5 1116.37 1105.58 1090.29 1079.5 1116.37 1079.5"/><polygon class="cls-3" points="1116.37 1017.68 1116.37 1079.5 1090.29 1079.5 1028.47 1017.68 1116.37 1017.68"/><rect class="cls-2" x="1124.5" y="3.5" width="96" height="96"/><polygon class="cls-3" points="1216.37 95.581 1128.473 7.684 1216.37 7.684 1216.37 95.581"/><rect class="cls-2" x="1124.5" y="104.5" width="96" height="96"/><polygon class="cls-3" points="1216.37 196.581 1128.473 108.684 1216.37 108.684 1216.37 196.581"/><rect class="cls-2" x="1124.5" y="205.5" width="96" height="96"/><polygon class="cls-3" points="1216.37 297.581 1128.473 209.684 1216.37 209.684 1216.37 297.581"/><rect class="cls-2" x="1124.5" y="306.5" width="96" height="96"/><polygon class="cls-3" points="1216.37 398.581 1128.473 310.684 1216.37 310.684 1216.37 398.581"/><rect class="cls-2" x="1124.5" y="407.5" width="96" height="96"/><polygon class="cls-3" points="1216.37 499.581 1128.473 411.684 1216.37 411.684 1216.37 499.581"/><rect class="cls-2" x="1124.5" y="508.5" width="96" height="96"/><polygon class="cls-3" points="1216.37 600.581 1128.473 512.684 1216.37 512.684 1216.37 600.581"/><rect class="cls-2" x="1124.5" y="609.5" width="96" height="96"/><polygon class="cls-3" points="1216.37 701.581 1128.473 613.684 1216.37 613.684 1216.37 701.581"/><rect class="cls-2" x="1124.5" y="710.5" width="96" height="96"/><polygon class="cls-3" points="1216.37 802.581 1128.473 714.684 1216.37 714.684 1216.37 802.581"/><rect class="cls-2" x="1124.5" y="811.5" width="96" height="96"/><polygon class="cls-3" points="1216.37 903.581 1128.473 815.684 1216.37 815.684 1216.37 903.581"/><rect class="cls-2" x="1124.5" y="912.5" width="96" height="96"/><polygon class="cls-3" points="1216.37 1004.581 1128.473 916.684 1216.37 916.684 1216.37 1004.581"/><path class="cls-2" d="M1124.5,1013.5v66h96v-66Z"/><polygon class="cls-4" points="1220.5 1079.5 1220.5 1109.5 1124.5 1109.5 1124.5 1079.5 1190.29 1079.5 1216.37 1105.58 1216.37 1079.5 1220.5 1079.5"/><polygon class="cls-5" points="1216.37 1079.5 1216.37 1105.58 1190.29 1079.5 1216.37 1079.5"/><polygon class="cls-3" points="1216.37 1017.68 1216.37 1079.5 1190.29 1079.5 1128.47 1017.68 1216.37 1017.68"/><rect class="cls-2" x="1223.5" y="3.5" width="96" height="96"/><polygon class="cls-3" points="1315.37 95.581 1227.473 7.684 1315.37 7.684 1315.37 95.581"/><rect class="cls-2" x="1223.5" y="104.5" width="96" height="96"/><polygon class="cls-3" points="1315.37 196.581 1227.473 108.684 1315.37 108.684 1315.37 196.581"/><rect class="cls-2" x="1223.5" y="205.5" width="96" height="96"/><polygon class="cls-3" points="1315.37 297.581 1227.473 209.684 1315.37 209.684 1315.37 297.581"/><rect class="cls-2" x="1223.5" y="306.5" width="96" height="96"/><polygon class="cls-3" points="1315.37 398.581 1227.473 310.684 1315.37 310.684 1315.37 398.581"/><rect class="cls-2" x="1223.5" y="407.5" width="96" height="96"/><polygon class="cls-3" points="1315.37 499.581 1227.473 411.684 1315.37 411.684 1315.37 499.581"/><rect class="cls-2" x="1223.5" y="508.5" width="96" height="96"/><polygon class="cls-3" points="1315.37 600.581 1227.473 512.684 1315.37 512.684 1315.37 600.581"/><rect class="cls-2" x="1223.5" y="609.5" width="96" height="96"/><polygon class="cls-3" points="1315.37 701.581 1227.473 613.684 1315.37 613.684 1315.37 701.581"/><rect class="cls-2" x="1223.5" y="710.5" width="96" height="96"/><polygon class="cls-3" points="1315.37 802.581 1227.473 714.684 1315.37 714.684 1315.37 802.581"/><rect class="cls-2" x="1223.5" y="811.5" width="96" height="96"/><polygon class="cls-3" points="1315.37 903.581 1227.473 815.684 1315.37 815.684 1315.37 903.581"/><rect class="cls-2" x="1223.5" y="912.5" width="96" height="96"/><polygon class="cls-3" points="1315.37 1004.581 1227.473 916.684 1315.37 916.684 1315.37 1004.581"/><path class="cls-2" d="M1223.5,1013.5v66h96v-66Z"/><polygon class="cls-4" points="1319.5 1079.5 1319.5 1109.5 1223.5 1109.5 1223.5 1079.5 1289.29 1079.5 1315.37 1105.58 1315.37 1079.5 1319.5 1079.5"/><polygon class="cls-5" points="1315.37 1079.5 1315.37 1105.58 1289.29 1079.5 1315.37 1079.5"/><polygon class="cls-3" points="1315.37 1017.68 1315.37 1079.5 1289.29 1079.5 1227.47 1017.68 1315.37 1017.68"/><rect class="cls-2" x="1324.5" y="3.5" width="96" height="96"/><polygon class="cls-3" points="1416.37 95.581 1328.473 7.684 1416.37 7.684 1416.37 95.581"/><rect class="cls-2" x="1324.5" y="104.5" width="96" height="96"/><polygon class="cls-3" points="1416.37 196.581 1328.473 108.684 1416.37 108.684 1416.37 196.581"/><rect class="cls-2" x="1324.5" y="205.5" width="96" height="96"/><polygon class="cls-3" points="1416.37 297.581 1328.473 209.684 1416.37 209.684 1416.37 297.581"/><rect class="cls-2" x="1324.5" y="306.5" width="96" height="96"/><polygon class="cls-3" points="1416.37 398.581 1328.473 310.684 1416.37 310.684 1416.37 398.581"/><rect class="cls-2" x="1324.5" y="407.5" width="96" height="96"/><polygon class="cls-3" points="1416.37 499.581 1328.473 411.684 1416.37 411.684 1416.37 499.581"/><rect class="cls-2" x="1324.5" y="508.5" width="96" height="96"/><polygon class="cls-3" points="1416.37 600.581 1328.473 512.684 1416.37 512.684 1416.37 600.581"/><rect class="cls-2" x="1324.5" y="609.5" width="96" height="96"/><polygon class="cls-3" points="1416.37 701.581 1328.473 613.684 1416.37 613.684 1416.37 701.581"/><rect class="cls-2" x="1324.5" y="710.5" width="96" height="96"/><polygon class="cls-3" points="1416.37 802.581 1328.473 714.684 1416.37 714.684 1416.37 802.581"/><rect class="cls-2" x="1324.5" y="811.5" width="96" height="96"/><polygon class="cls-3" points="1416.37 903.581 1328.473 815.684 1416.37 815.684 1416.37 903.581"/><rect class="cls-2" x="1324.5" y="912.5" width="96" height="96"/><polygon class="cls-3" points="1416.37 1004.581 1328.473 916.684 1416.37 916.684 1416.37 1004.581"/><path class="cls-2" d="M1324.5,1013.5v66h96v-66Z"/><polygon class="cls-4" points="1420.5 1079.5 1420.5 1109.5 1324.5 1109.5 1324.5 1079.5 1390.29 1079.5 1416.37 1105.58 1416.37 1079.5 1420.5 1079.5"/><polygon class="cls-5" points="1416.37 1079.5 1416.37 1105.58 1390.29 1079.5 1416.37 1079.5"/><polygon class="cls-3" points="1416.37 1017.68 1416.37 1079.5 1390.29 1079.5 1328.47 1017.68 1416.37 1017.68"/><rect class="cls-2" x="1426.5" y="3.5" width="96" height="96"/><polygon class="cls-3" points="1518.37 95.581 1430.473 7.684 1518.37 7.684 1518.37 95.581"/><rect class="cls-2" x="1426.5" y="104.5" width="96" height="96"/><polygon class="cls-3" points="1518.37 196.581 1430.473 108.684 1518.37 108.684 1518.37 196.581"/><rect class="cls-2" x="1426.5" y="205.5" width="96" height="96"/><polygon class="cls-3" points="1518.37 297.581 1430.473 209.684 1518.37 209.684 1518.37 297.581"/><rect class="cls-2" x="1426.5" y="306.5" width="96" height="96"/><polygon class="cls-3" points="1518.37 398.581 1430.473 310.684 1518.37 310.684 1518.37 398.581"/><rect class="cls-2" x="1426.5" y="407.5" width="96" height="96"/><polygon class="cls-3" points="1518.37 499.581 1430.473 411.684 1518.37 411.684 1518.37 499.581"/><rect class="cls-2" x="1426.5" y="508.5" width="96" height="96"/><polygon class="cls-3" points="1518.37 600.581 1430.473 512.684 1518.37 512.684 1518.37 600.581"/><rect class="cls-2" x="1426.5" y="609.5" width="96" height="96"/><polygon class="cls-3" points="1518.37 701.581 1430.473 613.684 1518.37 613.684 1518.37 701.581"/><rect class="cls-2" x="1426.5" y="710.5" width="96" height="96"/><polygon class="cls-3" points="1518.37 802.581 1430.473 714.684 1518.37 714.684 1518.37 802.581"/><rect class="cls-2" x="1426.5" y="811.5" width="96" height="96"/><polygon class="cls-3" points="1518.37 903.581 1430.473 815.684 1518.37 815.684 1518.37 903.581"/><rect class="cls-2" x="1426.5" y="912.5" width="96" height="96"/><polygon class="cls-3" points="1518.37 1004.581 1430.473 916.684 1518.37 916.684 1518.37 1004.581"/><path class="cls-2" d="M1426.5,1013.5v66h96v-66Z"/><polygon class="cls-4" points="1522.5 1079.5 1522.5 1109.5 1426.5 1109.5 1426.5 1079.5 1492.29 1079.5 1518.37 1105.58 1518.37 1079.5 1522.5 1079.5"/><polygon class="cls-5" points="1518.37 1079.5 1518.37 1105.58 1492.29 1079.5 1518.37 1079.5"/><polygon class="cls-3" points="1518.37 1017.68 1518.37 1079.5 1492.29 1079.5 1430.47 1017.68 1518.37 1017.68"/><rect class="cls-2" x="1530.5" y="3.5" width="96" height="96"/><polygon class="cls-3" points="1622.37 95.581 1534.473 7.684 1622.37 7.684 1622.37 95.581"/><rect class="cls-2" x="1530.5" y="104.5" width="96" height="96"/><polygon class="cls-3" points="1622.37 196.581 1534.473 108.684 1622.37 108.684 1622.37 196.581"/><rect class="cls-2" x="1530.5" y="205.5" width="96" height="96"/><polygon class="cls-3" points="1622.37 297.581 1534.473 209.684 1622.37 209.684 1622.37 297.581"/><rect class="cls-2" x="1530.5" y="306.5" width="96" height="96"/><polygon class="cls-3" points="1622.37 398.581 1534.473 310.684 1622.37 310.684 1622.37 398.581"/><rect class="cls-2" x="1530.5" y="407.5" width="96" height="96"/><polygon class="cls-3" points="1622.37 499.581 1534.473 411.684 1622.37 411.684 1622.37 499.581"/><rect class="cls-2" x="1530.5" y="508.5" width="96" height="96"/><polygon class="cls-3" points="1622.37 600.581 1534.473 512.684 1622.37 512.684 1622.37 600.581"/><rect class="cls-2" x="1530.5" y="609.5" width="96" height="96"/><polygon class="cls-3" points="1622.37 701.581 1534.473 613.684 1622.37 613.684 1622.37 701.581"/><rect class="cls-2" x="1530.5" y="710.5" width="96" height="96"/><polygon class="cls-3" points="1622.37 802.581 1534.473 714.684 1622.37 714.684 1622.37 802.581"/><rect class="cls-2" x="1530.5" y="811.5" width="96" height="96"/><polygon class="cls-3" points="1622.37 903.581 1534.473 815.684 1622.37 815.684 1622.37 903.581"/><rect class="cls-2" x="1530.5" y="912.5" width="96" height="96"/><polygon class="cls-3" points="1622.37 1004.581 1534.473 916.684 1622.37 916.684 1622.37 1004.581"/><path class="cls-2" d="M1530.5,1013.5v66h96v-66Z"/><polygon class="cls-4" points="1626.5 1079.5 1626.5 1109.5 1530.5 1109.5 1530.5 1079.5 1596.29 1079.5 1622.37 1105.58 1622.37 1079.5 1626.5 1079.5"/><polygon class="cls-5" points="1622.37 1079.5 1622.37 1105.58 1596.29 1079.5 1622.37 1079.5"/><polygon class="cls-3" points="1622.37 1017.68 1622.37 1079.5 1596.29 1079.5 1534.47 1017.68 1622.37 1017.68"/><rect class="cls-2" x="1634.5" y="3.5" width="96" height="96"/><polygon class="cls-3" points="1726.37 95.581 1638.473 7.684 1726.37 7.684 1726.37 95.581"/><rect class="cls-2" x="1634.5" y="104.5" width="96" height="96"/><polygon class="cls-3" points="1726.37 196.581 1638.473 108.684 1726.37 108.684 1726.37 196.581"/><rect class="cls-2" x="1634.5" y="205.5" width="96" height="96"/><polygon class="cls-3" points="1726.37 297.581 1638.473 209.684 1726.37 209.684 1726.37 297.581"/><rect class="cls-2" x="1634.5" y="306.5" width="96" height="96"/><polygon class="cls-3" points="1726.37 398.581 1638.473 310.684 1726.37 310.684 1726.37 398.581"/><rect class="cls-2" x="1634.5" y="407.5" width="96" height="96"/><polygon class="cls-3" points="1726.37 499.581 1638.473 411.684 1726.37 411.684 1726.37 499.581"/><rect class="cls-2" x="1634.5" y="508.5" width="96" height="96"/><polygon class="cls-3" points="1726.37 600.581 1638.473 512.684 1726.37 512.684 1726.37 600.581"/><rect class="cls-2" x="1634.5" y="609.5" width="96" height="96"/><polygon class="cls-3" points="1726.37 701.581 1638.473 613.684 1726.37 613.684 1726.37 701.581"/><rect class="cls-2" x="1634.5" y="710.5" width="96" height="96"/><polygon class="cls-3" points="1726.37 802.581 1638.473 714.684 1726.37 714.684 1726.37 802.581"/><rect class="cls-2" x="1634.5" y="811.5" width="96" height="96"/><polygon class="cls-3" points="1726.37 903.581 1638.473 815.684 1726.37 815.684 1726.37 903.581"/><rect class="cls-2" x="1634.5" y="912.5" width="96" height="96"/><polygon class="cls-3" points="1726.37 1004.581 1638.473 916.684 1726.37 916.684 1726.37 1004.581"/><path class="cls-2" d="M1634.5,1013.5v66h96v-66Z"/><polygon class="cls-4" points="1730.5 1079.5 1730.5 1109.5 1634.5 1109.5 1634.5 1079.5 1700.29 1079.5 1726.37 1105.58 1726.37 1079.5 1730.5 1079.5"/><polygon class="cls-5" points="1726.37 1079.5 1726.37 1105.58 1700.29 1079.5 1726.37 1079.5"/><polygon class="cls-3" points="1726.37 1017.68 1726.37 1079.5 1700.29 1079.5 1638.47 1017.68 1726.37 1017.68"/><rect class="cls-2" x="1736.5" y="3.5" width="96" height="96"/><polygon class="cls-3" points="1828.37 95.581 1740.473 7.684 1828.37 7.684 1828.37 95.581"/><rect class="cls-2" x="1736.5" y="104.5" width="96" height="96"/><polygon class="cls-3" points="1828.37 196.581 1740.473 108.684 1828.37 108.684 1828.37 196.581"/><rect class="cls-2" x="1736.5" y="205.5" width="96" height="96"/><polygon class="cls-3" points="1828.37 297.581 1740.473 209.684 1828.37 209.684 1828.37 297.581"/><rect class="cls-2" x="1736.5" y="306.5" width="96" height="96"/><polygon class="cls-3" points="1828.37 398.581 1740.473 310.684 1828.37 310.684 1828.37 398.581"/><rect class="cls-2" x="1736.5" y="407.5" width="96" height="96"/><polygon class="cls-3" points="1828.37 499.581 1740.473 411.684 1828.37 411.684 1828.37 499.581"/><rect class="cls-2" x="1736.5" y="508.5" width="96" height="96"/><polygon class="cls-3" points="1828.37 600.581 1740.473 512.684 1828.37 512.684 1828.37 600.581"/><rect class="cls-2" x="1736.5" y="609.5" width="96" height="96"/><polygon class="cls-3" points="1828.37 701.581 1740.473 613.684 1828.37 613.684 1828.37 701.581"/><rect class="cls-2" x="1736.5" y="710.5" width="96" height="96"/><polygon class="cls-3" points="1828.37 802.581 1740.473 714.684 1828.37 714.684 1828.37 802.581"/><rect class="cls-2" x="1736.5" y="811.5" width="96" height="96"/><polygon class="cls-3" points="1828.37 903.581 1740.473 815.684 1828.37 815.684 1828.37 903.581"/><rect class="cls-2" x="1736.5" y="912.5" width="96" height="96"/><polygon class="cls-3" points="1828.37 1004.581 1740.473 916.684 1828.37 916.684 1828.37 1004.581"/><path class="cls-2" d="M1736.5,1013.5v66h96v-66Z"/><polygon class="cls-4" points="1832.5 1079.5 1832.5 1109.5 1736.5 1109.5 1736.5 1079.5 1802.29 1079.5 1828.37 1105.58 1828.37 1079.5 1832.5 1079.5"/><polygon class="cls-5" points="1828.37 1079.5 1828.37 1105.58 1802.29 1079.5 1828.37 1079.5"/><polygon class="cls-3" points="1828.37 1017.68 1828.37 1079.5 1802.29 1079.5 1740.47 1017.68 1828.37 1017.68"/><path class="cls-2" d="M1839.5,3.5v96h81V3.5Z"/><polygon class="cls-3" points="1920.5 7.68 1920.5 84.71 1843.47 7.68 1920.5 7.68"/><path class="cls-2" d="M1839.5,104.5v96h81v-96Z"/><polygon class="cls-3" points="1920.5 108.68 1920.5 185.71 1843.47 108.68 1920.5 108.68"/><path class="cls-2" d="M1839.5,205.5v96h81v-96Z"/><polygon class="cls-3" points="1920.5 209.68 1920.5 286.71 1843.47 209.68 1920.5 209.68"/><path class="cls-2" d="M1839.5,306.5v96h81v-96Z"/><polygon class="cls-3" points="1920.5 310.68 1920.5 387.71 1843.47 310.68 1920.5 310.68"/><path class="cls-2" d="M1839.5,407.5v96h81v-96Z"/><polygon class="cls-3" points="1920.5 411.68 1920.5 488.71 1843.47 411.68 1920.5 411.68"/><path class="cls-2" d="M1839.5,508.5v96h81v-96Z"/><polygon class="cls-3" points="1920.5 512.68 1920.5 589.71 1843.47 512.68 1920.5 512.68"/><path class="cls-2" d="M1839.5,609.5v96h81v-96Z"/><polygon class="cls-3" points="1920.5 613.68 1920.5 690.71 1843.47 613.68 1920.5 613.68"/><path class="cls-2" d="M1839.5,710.5v96h81v-96Z"/><polygon class="cls-3" points="1920.5 714.68 1920.5 791.71 1843.47 714.68 1920.5 714.68"/><path class="cls-2" d="M1839.5,811.5v96h81v-96Z"/><polygon class="cls-3" points="1920.5 815.68 1920.5 892.71 1843.47 815.68 1920.5 815.68"/><path class="cls-2" d="M1839.5,912.5v96h81v-96Z"/><polygon class="cls-3" points="1920.5 916.68 1920.5 993.71 1843.47 916.68 1920.5 916.68"/><path class="cls-2" d="M1839.5,1013.5v66h81v-66Z"/><polygon class="cls-4" points="1935.5 1013.5 1935.5 1109.5 1839.5 1109.5 1839.5 1079.5 1905.29 1079.5 1931.37 1105.58 1931.37 1017.68 1920.5 1017.68 1920.5 1013.5 1935.5 1013.5"/><polygon class="cls-5" points="1931.37 1017.68 1931.37 1105.58 1905.29 1079.5 1920.5 1079.5 1920.5 1017.68 1931.37 1017.68"/><polygon class="cls-3" points="1920.5 1017.68 1920.5 1079.5 1905.29 1079.5 1843.47 1017.68 1920.5 1017.68"/><rect class="cls-6" x="745.5" y="34.5" width="368" height="433"/><polygon class="cls-7" points="1113.5 467.5 745.5 34.5 1113.5 34.5 1113.5 467.5"/><ellipse class="cls-8" cx="934.0171" cy="1071.6807" rx="205.0433" ry="47.8193"/><ellipse class="cls-2" cx="928.9454" cy="638.409" rx="199.9716" ry="33.3286"/><path class="cls-2" d="M1010.0932,1048.4956c-3.9212,4.4395-30.325,33.3286-73.9025,33.3286s-69.9813-28.8891-73.9025-33.3286a305.0765,305.0765,0,0,0,13.0416-28.9814c37.3383-96.0769,18.0412-191.1959-1.4491-250.689l130.4163-2.8981c-19.8858,51.3452-47.6361,148.63-10.1435,247.7908A281.17,281.17,0,0,0,1010.0932,1048.4956Z"/><path class="cls-9" d="M1010.0932,1048.4956a106.1159,106.1159,0,0,1-73.9025,33.3286l1.6132-314.4194,66.4931-1.4777c-19.8858,51.3452-47.6347,148.629-10.1435,247.7908A281.17,281.17,0,0,0,1010.0932,1048.4956Z"/><path class="cls-10" d="M992.7044,799.2557a189.4624,189.4624,0,0,1-108.68,1.449q-5.0721-17.3887-10.1435-34.7776h128.9672Z"/><path class="cls-11" d="M931.8435,771.7234c-214.4623,0-202.87-89.3593-202.87-131.8653,53.6156,17.3888,124.4452,22.3846,207.2169,23.1851,75.8844.7339,141.3048-11.074,192.7262-21.7361C1128.9169,681.398,1120.2225,771.7234,931.8435,771.7234Z"/><path class="cls-2" d="M930.7153,739.8438c-109.7256.7246-125.369-53.431-125.369-79.6988,33.3624,8.1871,73.1725,7.4753,124.3236,7.97,46.8948.4535,91.055-.4854,122.8323-7.0744C1052.5022,685.8158,1026.7582,739.21,930.7153,739.8438Z"/><path class="cls-8" d="M1050.6672,577.5481V558.7027a5.3041,5.3041,0,0,0-5.722-5.2921c-31.8335,2.47-74.3759,1.2039-96.6341.2468l-1.9769-5.6143V516.6872h50.6452a8.7664,8.7664,0,0,0,8.7666-8.7663V496.472a8.7663,8.7663,0,0,0-8.7666-8.7662H876.851a8.7663,8.7663,0,0,0-8.7666,8.7662v11.4489a8.7664,8.7664,0,0,0,8.7666,8.7663h49.1962v31.88c-1.8269,8.2347-1.4653,21.6366,6.0015,22.47q24.9571.5245,50.5122.7148,27.1394.1977,53.6156,0v5.7963h-7.2454v14.4907h30.43V577.5481Z"/><path class="cls-12" d="M897.79,526.5053c-6.8831,1.1472-25.238,0-25.238,0,1.1472-8.03,3.4415-11.4718,3.4415-20.6493l-19.502-6.883c6.8831-14.9134,11.455-19.502,11.455-19.502l14.93,13.7661s12.4627-6.92,18.3549-13.7662c5.7359,9.1774,10.3246,18.3549,10.3246,18.3549l-20.6492,8.03A198.2244,198.2244,0,0,0,897.79,526.5053Z"/><path class="cls-1" d="M896.6432,524.5668c-6.3095,1.0515-23.1348,0-23.1348,0,1.0516-7.3611,3.1547-10.5159,3.1547-18.9285l-17.8769-6.31c6.3095-13.6706,10.5-17.8768,10.5-17.8768l13.6859,12.6189s11.4242-6.3433,16.8253-12.619c5.2579,8.4127,9.4643,16.8253,9.4643,16.8253l-18.9285,7.3611A181.7045,181.7045,0,0,0,896.6432,524.5668Z"/><circle class="cls-13" cx="884.0242" cy="502.1965" r="7.2453"/><circle class="cls-14" cx="884.0242" cy="502.1965" r="5.7963"/><path class="cls-12" d="M1013.0276,517.0781c-5.4943,4.3019-22.159,12.08-22.159,12.08-2.8365-7.6-2.4694-11.72-6.8622-19.7774q-10.2086,1.6455-20.4175,3.2914c-1.095-16.3886.7229-22.6058.7229-22.6058l19.6978,4.94s7.63-12.0411,9.5264-20.8724c9.429,5.3123,17.8507,11.1737,17.8507,11.1737L997.1,502.2426A198.2361,198.2361,0,0,0,1013.0276,517.0781Z"/><path class="cls-1" d="M1011.0925,515.9252c-5.0364,3.9433-20.3124,11.0736-20.3124,11.0736-2.6-6.9664-2.2636-10.743-6.29-18.1293l-18.716,3.0171c-1.0037-15.0229.6626-20.7219.6626-20.7219l18.0564,4.5285s6.9942-11.0376,8.7325-19.133c8.6432,4.87,16.3632,10.2425,16.3632,10.2425L996.4925,502.326A181.7148,181.7148,0,0,0,1011.0925,515.9252Z"/><circle class="cls-15" cx="988.3572" cy="502.1965" r="7.2453"/><circle class="cls-16" cx="988.3572" cy="502.1965" r="5.7963"/><path class="cls-13" d="M1416.5273,178.4028c1.8165-1.7534,2.9053.6934,3.2227,1.711.2061,11.2949-.7656,22.3979.0723,34.3569l3.2968-8.0547c3.087-7.21,5.2559-13.6123,7.6358-21.0552a2.298,2.298,0,0,1,2.7226-.7373,1.8335,1.8335,0,0,1,1.3985,1.3081c-5.2412,12.377-10.1641,25.7725-15.0283,39.1871l-.31.7465a2.4347,2.4347,0,0,1-1.7822.6548,2.8474,2.8474,0,0,1-1.2813-1.6611c-.0342-12.2168-.6172-24.353-.5127-36.59l-11.4443,33.4458c-2.3614,2.6186-3.9.35-3.3789-1.4366Z"/><path class="cls-13" d="M1453.5254,204.6553,1448.9766,218.5l13.3144,4.374-1.1611,3.5352-13.3145-4.374-4.5869,13.9624-3.77-1.2383,4.5869-13.9629-13.3144-4.374,1.1611-3.5347,13.3145,4.374,4.5488-13.8447Z"/><path class="cls-13" d="M1465.6406,236.3105c1.0225.4668,1.36,1.8184,2.5391,2.2051,1.59.5225,3.58-1.957,4.2031-3.0576,5.12-8.6309,8.1758-18.332,11.8779-28.4077a75.8276,75.8276,0,0,1,2.9659-7.8374c.4472-.7666.7187-1.5913,1.6621-1.2817.9619.4467,2.1816,1.3042,1.7363,2.6591-5.0879,11.3179-8.8184,24.0606-13.23,32.9243-2.0029,4.107-4.8408,9.7666-10.0244,8.0635a4.3209,4.3209,0,0,1-.8056-.33c-1.5333-.7-3.6573-2.1806-3.0186-4.1245l.1162-.3535C1464.07,235.9258,1464.9521,236.02,1465.6406,236.3105Z"/><path d="M1156.52,463.4111c-.3984-2.209.7871-3.809,4.2989-4.666,1.0839-.1953,4.332-1.2734,4.74.4863.1094.6065-.5527.9043-1.0215,1.0342-1.3066.1909-5.7324.4522-5.31,2.791l.0625.3467c.6817,2.7837,1.5235,6.209,2.2715,8.6226a15.247,15.247,0,0,0,2.4336-.3941c.6846-.1689,3.0166-1.6181,3.2979-.0586.3672,2.0352-4.2383,2.2852-5.1641,2.8545.5059,4.7832,2.4824,9.3,3.4785,14.5762l.0313.1729c.3359,1.8628-1.7256,1.832-2.2207.58-1.2852-4.1508-5.1436-17.8535-6.8828-26.2592Z"/><path d="M1181.3125,487.8242a10.1655,10.1655,0,0,1-1.0557.1016c-5.4423.3115-8.208-12.7837-11.3759-27.8633l-.4688-2.1064-.0391-.2164c-.1718-.9526,2.1309-1.3232,2.5909-.5117.9619,1.1226,4.1425,29.66,10.0761,28.5894,1.5157-.2735,1.5469-2.8281,1.3789-4.0059-.8388-5.3926-3.1054-17.46-4.8291-25.7793.09-.7314.334-.8652,1.1133-1.0058.6934-.125,1.3242-.1045,1.5.624,1.5928,7.5825,2.6358,15.3535,4.29,23.2832C1185.0859,482.7168,1185.8164,487.0117,1181.3125,487.8242Z"/><path d="M1194.9043,454.1152c.2734,1.5157-2.293,1.666-2.8994,1.7754l-.26.0469c-4.2.7578-4.4931,9.7988-3.61,14.6924,1,5.5434,2.0586,9.4219,6.4394,11.8955,2.1436,1.2236,4.7129-.895,5.5733.1572,1.14,1.3594-.3692,2.168-1.7549,2.418-9.87,1.5576-13.7373-11.2046-13.2686-20.0088.2266-4.6914,1.8252-11.1958,7.4551-12.2119C1193.4883,452.7158,1194.7246,453.1191,1194.9043,454.1152Z"/><path d="M1197.6191,452.3286a1.2141,1.2141,0,0,1,.9864-1.4746c.8652-.1562,1.35.293,1.5957,1.4111l3.0429,14.3868c1.6612-5.6661,2.9981-10.647,3.3819-14.4722.126-1.2749-.1426-3.0151,1.417-3.2969.6054-.1089,1.8222-.06,1.5586,1.9541L1205.5088,468.3l10.8105,13.5659a1.2983,1.2983,0,0,1-.7314,2.1445c-.5625.1016-.7793.1407-1.2275-.36-3.2149-3.9356-6.584-9.2305-10.3418-13.2031l.0625.3462c.3593,1.9921,2.2031,8.9926,3.1884,14.45-.2646,1.2553-1.998,2.06-2.3965.3432Z"/><path d="M1243.3574,450.8291l-2.5986,12.3633c.07.8818-1.95,1.3349-2.3672,1.0083a2.8,2.8,0,0,1-.3965-.4649c-1.7822-3.435-3.4267-6.85-5.4961-10.143.7324,8.2749,3.1416,16.4258,3.5625,24.7114a2.1555,2.1555,0,0,1-1.2881.5454c-.9091.1641-.9043-.06-1.0527-.8833-.25-1.3857-.0244-2.3652-5.04-29.6763-.2354-1.2993,1.5771-2.6547,2.3545-1.32l7.8935,13.5112c.9981-1.6552,2.57-14.5039,3.2334-16.2783.2774-.9448,1.252-.9863,2.4688-.4458.0429-.0078,2.8379,14.2442,3.9824,20.3428.7392,3.8467,1.6826,7.835,2.3857,11.7329a1.4031,1.4031,0,0,1-1.0771,1.7144c-.6934.125-.8965-.0166-1.2813-.6626C1247.1914,468.1128,1245.3613,459.4551,1243.3574,450.8291Z"/><path d="M1257.2461,467.104l-.2139.3066.1465,5.0269c.03.665.4111,2.5195-.8467,2.7461-.5605.1016-1.1552-.9541-1.2334-1.3877-1.1591-32.21-1.1318-32.3042-1.1318-32.3042.0664-.8623.15-2.1289,1.2344-2.3242a1.6444,1.6444,0,0,1,1.459.4072l.5107.8467c4.3018,9.4643,7.3076,19.43,10.3193,29.44l.77,2.7671c.0068.044-.0362.0518-.0284.0947-.1552.8775-.2656,1.2549-1.0888,1.4034l-.13.0234c-.26.0474-.6924.125-.79-.17l-2.5674-8.0327Zm.165-2.8022,5.4366-.8467-6.5508-19.7012Z"/><path d="M1266.3779,441.8906c-2.6533.6573-3.874.833-4.0937.1123-.1787-1.4873-.2735-2.0078,4.2783-2.56l3.6367-.6563c.961-.1284,2.5879-.2881,2.8145.9678a.9834.9834,0,0,1-.7188.98l-3.6367.6562,5.7832,27.3511c.07.39-.7568.7627-1.0156.81-.2608.0469-1.166-.0137-1.2363-.4033Z"/><path d="M1275.2422,440.9619a1.6221,1.6221,0,0,1,1.2422-1.79l6.8418-1.2349a2.4246,2.4246,0,0,1,1.3261.6563.3875.3875,0,0,1,.0831.2089c.1562.8653-.9434,1.4663-1.6368,1.5913l-5.1963.9375,2.8106,14.3394,4.5517-1.5371.2168-.0386c2.0352-.3677,1.6153,1.7652-.07,2.3374l-4.2138,1.4312,1.9091,11.3266c.3985-.0273,1.8711-.2929,2.26-.3633,2.9014-.5234,4.8447-1.9028,5.335.066.3515,1.457-9.3809,3.0337-9.5293,2.2114Z"/><path d="M1304.541,439.79l-2.5976,12.3637c.0693.8814-1.95,1.335-2.3682,1.0078a2.8214,2.8214,0,0,1-.3965-.4648c-1.7822-3.4346-3.4258-6.85-5.4961-10.1426.7324,8.2744,3.1416,16.4258,3.5625,24.7114a2.1553,2.1553,0,0,1-1.2871.5454c-.9092.1641-.9053-.06-1.0537-.8833-.25-1.3857-.0234-2.3652-5.04-29.6762-.2354-1.2993,1.5771-2.6553,2.3545-1.32l7.8935,13.5112c.9981-1.6558,2.57-14.5044,3.2334-16.2788.2773-.9444,1.252-.9864,2.4688-.4453.0429-.0079,2.8378,14.2441,3.9824,20.3427.74,3.8467,1.6826,7.835,2.3857,11.7329a1.4016,1.4016,0,0,1-1.0771,1.7144c-.6914.125-.8965-.0166-1.2813-.6626C1308.376,457.0737,1306.5449,448.416,1304.541,439.79Z"/><path d="M1331.4189,453.7212l-.2138.3066.1474,5.0269c.03.665.4092,2.5195-.8466,2.7461-.5625.1015-1.1553-.9541-1.2334-1.3877-1.1612-32.21-1.1319-32.3042-1.1319-32.3042.0664-.8623.15-2.1289,1.2334-2.3242a1.647,1.647,0,0,1,1.46.4072l.51.8467c4.3027,9.4643,7.3076,19.43,10.32,29.44l.77,2.7671c.0068.0439-.0371.0513-.0293.0947-.1553.877-.2656,1.2549-1.0879,1.4033l-.13.0235c-.2607.0473-.6924.125-.791-.17l-2.5674-8.0328Zm.1651-2.8023,5.4375-.8466-6.5508-19.7012Z"/><path d="M1340.5527,428.5078c-2.6543.6572-3.874.8325-4.0937.1123-.18-1.4878-.2735-2.0078,4.2773-2.56l3.6387-.6563c.959-.1289,2.5869-.2881,2.8125.9678a.9819.9819,0,0,1-.7178.9795l-3.6377.6562,5.7842,27.3516c.07.39-.7568.7627-1.0166.81s-1.165-.0137-1.2353-.4034Z"/><path d="M1351.3828,425.8379c.1465-.9209.3555-1.0029,1.2637-1.167,1.2578-.2266,1.3594.3359,1.5859,1.5928.0235.1289.0811.7.0967.7866l4.0449,29.8559c.2578,1.9219-2.1377,2.5328-2.3642,1.2769Z"/><path d="M1358.1777,423.36a1.2134,1.2134,0,0,1,.9864-1.4746c.8652-.1563,1.3486.2924,1.5957,1.4111l3.042,14.3867c1.6611-5.6665,2.999-10.647,3.3818-14.4722.1269-1.2754-.1426-3.0156,1.417-3.2968.6055-.1094,1.8232-.0606,1.56,1.9541l-4.0928,17.4633,10.81,13.566a1.298,1.298,0,0,1-.73,2.144c-.5645.1016-.7793.1406-1.2285-.36-3.2149-3.9355-6.584-9.23-10.3418-13.2031l.0625.3462c.3593,1.9922,2.2041,8.9927,3.1894,14.45-.2656,1.2549-1.999,2.06-2.3984.3433Z"/><path d="M1425.5381,710.5645a5.3182,5.3182,0,0,1-.8145,2.4863,5.1248,5.1248,0,0,1-1.6943,1.6279,5.5534,5.5534,0,0,1-2.2432.7261,6.124,6.124,0,0,1-2.42-.22,5.162,5.162,0,0,1-1.1221-.44,6.9587,6.9587,0,0,1-1.1-.7041,3.3533,3.3533,0,0,1-.8135-.9018,1.8459,1.8459,0,0,1-.2647-1.1221,1.35,1.35,0,0,1,.4619-.9458q.4629-.4621.8584-.8145a7.5855,7.5855,0,0,1,.9678-.4838.8759.8759,0,0,1,1.0127.2641,1.29,1.29,0,0,1,.1094,1.1q-.1977.5281-.33.9238-.1758.4849.44.66a3.8322,3.8322,0,0,0,1.4522.0879,2.8093,2.8093,0,0,0,1.9795-.814,3.5886,3.5886,0,0,0,.8584-1.8261,8.6213,8.6213,0,0,0,.0654-2.398q-.1318-1.2971-.3516-2.53a15.7253,15.7253,0,0,0-1.5625-4.2241,17.83,17.83,0,0,0-2.4853-3.52,2.1532,2.1532,0,0,1-.55-.99,1.0548,1.0548,0,0,1,.374-.99,1.4872,1.4872,0,0,1,1.1875-.352,2.76,2.76,0,0,1,1.0117.5717,15.7962,15.7962,0,0,1,3.916,6.1382A21.3334,21.3334,0,0,1,1425.5381,710.5645Z"/><path d="M1432.7969,702.5566q-.2637,1.188-.5283,2.6182t-.3741,2.75a12.8418,12.8418,0,0,0,0,2.376,2.4424,2.4424,0,0,0,.5508,1.4956,2.2328,2.2328,0,0,0,1.7158-.6377,11.5494,11.5494,0,0,0,1.8916-1.958,18.4655,18.4655,0,0,0,1.6719-2.5742,12.923,12.923,0,0,0,1.0566-2.4419c.1163-.3521.22-.7183.3077-1.1a5.2672,5.2672,0,0,0,.1318-1.188.8941.8941,0,0,1,.4619-.6821,1.9182,1.9182,0,0,1,.77-.3741.83.83,0,0,1,.5059.0884,1.8487,1.8487,0,0,1,.5283.374,3.0085,3.0085,0,0,1,.4395.5718,1.3125,1.3125,0,0,1,.1982.6821q.0879,1.32.2637,2.9038t.4179,3.168q.2418,1.5843.5059,3.08t.5283,2.6841a1.3722,1.3722,0,0,1-.2637,1.1,1.6061,1.6061,0,0,1-.88.748,1.3153,1.3153,0,0,1-.8145-.0884,1.2151,1.2151,0,0,1-.6377-.7036,12.5121,12.5121,0,0,1-.418-1.518q-.1977-.9016-.3525-1.8921t-.2851-1.8921q-.1334-.9009-.1768-1.5181a21.4592,21.4592,0,0,1-1.5615,2.398,17.5923,17.5923,0,0,1-1.9366,2.2,8.6147,8.6147,0,0,1-2.1552,1.54,4.1184,4.1184,0,0,1-2.3106.418q-1.7607-.22-2.6836-3.3a9.3468,9.3468,0,0,1-.33-2.7281,25.0831,25.0831,0,0,1,.22-2.97q.1977-1.4736.4844-2.7939t.5058-2.1563a1.4535,1.4535,0,0,1,.3516-.6377.5962.5962,0,0,1,.6162-.1982,2.1391,2.1391,0,0,1,1.21.792A1.493,1.493,0,0,1,1432.7969,702.5566Z"/><path d="M1450.748,694.9888q.22,4.7958.7481,9.9218t1.1435,9.79q.1334,1.9365-1.0556,1.98a.8791.8791,0,0,1-.5283-.1983,2.2737,2.2737,0,0,1-.4834-.5058,6.9092,6.9092,0,0,1-.418-.66,1.9663,1.9663,0,0,1-.2422-.6157q-.3529-2.2441-.66-4.752t-.55-5.0381q-.2432-2.53-.4179-4.95-.1773-2.4191-.22-4.4438a8.62,8.62,0,0,1,.3076-1.7822.84.84,0,0,1,.9238-.6817,1.2528,1.2528,0,0,1,1.0781.5938A2.8866,2.8866,0,0,1,1450.748,694.9888Z"/><path d="M1463.6406,697.6284a.5982.5982,0,0,1-.6162.4844q-.5287.044-.88.0439a20.5172,20.5172,0,0,0-4.708.7481,1.4637,1.4637,0,0,1-1.1445-.1323,1.4963,1.4963,0,0,1-.7481-1.232.7109.7109,0,0,1,.2647-.5717,3.15,3.15,0,0,1,.6162-.396,7.77,7.77,0,0,1,1.3633-.4624,11.9681,11.9681,0,0,1,1.6064-.2857,11.4086,11.4086,0,0,1,1.5616-.0659,5.4333,5.4333,0,0,1,1.2324.1538,2.5811,2.5811,0,0,1,1.122.66A1.2106,1.2106,0,0,1,1463.6406,697.6284Zm-1.0127,14.6524a4.0243,4.0243,0,0,1,.33,1.5175,1.184,1.184,0,0,1-.4619,1.1221,1.1484,1.1484,0,0,1-1.3193-.0439,2.7526,2.7526,0,0,1-1.0567-1.188,8.3409,8.3409,0,0,1-.748-2.2661q-.2637-1.3412-.3955-2.6617t-.1543-2.4643q-.022-1.1433-.0215-1.7158a2.5876,2.5876,0,0,1,.3515-1.1441,1.1572,1.1572,0,0,1,.792-.6157,1.6145,1.6145,0,0,1,1.2764.7256,2.65,2.65,0,0,1,.4395,1.6943q0,.7919.0439,1.76t.1758,1.936c.0889.6455.19,1.2691.3086,1.87A6.58,6.58,0,0,0,1462.6279,712.2808Z"/><path d="M1477.5439,705.2407a15.3029,15.3029,0,0,1-3.6962,1.562,15.8758,15.8758,0,0,1-4.2676.55,3.92,3.92,0,0,0,.88,2.4419,3.1719,3.1719,0,0,0,1.9795,1.0782,4.6929,4.6929,0,0,0,1.4306-.044,5.8762,5.8762,0,0,0,1.3633-.418,7.9061,7.9061,0,0,0,1.166-.6381,8.3294,8.3294,0,0,0,.9248-.7041,1.9853,1.9853,0,0,1,.836-.462,1.1429,1.1429,0,0,1,.6591-.0219q.6168.2211.44,1.32a6.7373,6.7373,0,0,1-2.0244,2.3979,6.61,6.61,0,0,1-2.9473,1.2539,6.5349,6.5349,0,0,1-2.9043-.1318,6.0694,6.0694,0,0,1-2.6836-1.54,6.7618,6.7618,0,0,1-1.54-2.376,10.3367,10.3367,0,0,1-.66-2.8164,6.6379,6.6379,0,0,1,.2422-2.5957,6.1081,6.1081,0,0,1,1.166-2.1782,6.3673,6.3673,0,0,1,1.9795-1.5621,6.8,6.8,0,0,1,2.7725-.7041,6.1564,6.1564,0,0,1,3.4316.7041,4.6235,4.6235,0,0,1,2.1562,2.3321,2.317,2.317,0,0,1,.1973,1.4521A1.914,1.914,0,0,1,1477.5439,705.2407Zm-5.06-2.9922a4.7483,4.7483,0,0,0-.9453.3081,4.1613,4.1613,0,0,0-.9238.55,4.5024,4.5024,0,0,0-.7481.7481,1.7164,1.7164,0,0,0-.374.9463,11.5046,11.5046,0,0,0,1.6494-.1323c.6006-.0879,1.1885-.1978,1.76-.33a13.4643,13.4643,0,0,0,1.584-.4619,6.1909,6.1909,0,0,0,1.21-.5718,1.6917,1.6917,0,0,0-1.2978-1.0342A4.9587,4.9587,0,0,0,1472.4834,702.2485Z"/><path d="M1504.4727,713.8647a1.5016,1.5016,0,0,1-.1983.99.716.716,0,0,1-.5937.33,1.8257,1.8257,0,0,1-1.3643-.418,2.8524,2.8524,0,0,1-.6162-1.0781q-.2637-1.188-.4395-2.5078t-.2646-2.5962q-1.6728.2211-3.0361.4179-1.3638.1986-1.8477.2862a2.1334,2.1334,0,0,1-1.4736-.2862,1.4671,1.4671,0,0,1-.8145-1.0776,1.1616,1.1616,0,0,1,.7266-1.0122,9.5426,9.5426,0,0,1,1.3418-.6162,21.0256,21.0256,0,0,1,2.1562-.418q1.32-.1977,2.8594-.374-.044-2.5079.11-4.4219a12.9524,12.9524,0,0,1,.374-2.5737q.1758-1.0122.8359-1.1221a1.3072,1.3072,0,0,1,.9678.11,3.286,3.286,0,0,1,.6377.6382.83.83,0,0,1,.2422.5937q-.1758,1.6729-.1973,3.2778-.0234,1.6069.0215,3.2344,1.54-.0879,2.9922-.1323a25.82,25.82,0,0,1,2.64.0439q1.4077.0894,1.2764,1.2764a1.1942,1.1942,0,0,1-.6377.9019,2.7778,2.7778,0,0,1-1.3428.4179q-1.0122.0886-2.2441.1983t-2.5957.2856q.0879,1.4093.22,2.8159Q1504.3414,712.4576,1504.4727,713.8647Z"/><path d="M1535.625,710.5645a5.3182,5.3182,0,0,1-.8145,2.4863,5.1248,5.1248,0,0,1-1.6943,1.6279,5.5529,5.5529,0,0,1-2.2432.7261,6.124,6.124,0,0,1-2.42-.22,5.1613,5.1613,0,0,1-1.122-.44,6.9551,6.9551,0,0,1-1.1006-.7041,3.355,3.355,0,0,1-.8135-.9018,1.8459,1.8459,0,0,1-.2647-1.1221,1.3494,1.3494,0,0,1,.462-.9458q.4629-.4621.8584-.8145a7.5775,7.5775,0,0,1,.9677-.4838.8759.8759,0,0,1,1.0127.2641,1.29,1.29,0,0,1,.1094,1.1q-.1977.5281-.33.9238-.1758.4849.44.66a3.8315,3.8315,0,0,0,1.4521.0879,2.8093,2.8093,0,0,0,1.9795-.814,3.5878,3.5878,0,0,0,.8584-1.8261,8.6213,8.6213,0,0,0,.0654-2.398q-.1318-1.2971-.3515-2.53a15.732,15.732,0,0,0-1.5625-4.2241,17.8343,17.8343,0,0,0-2.4854-3.52,2.1541,2.1541,0,0,1-.55-.99,1.0548,1.0548,0,0,1,.374-.99,1.4872,1.4872,0,0,1,1.1875-.352,2.76,2.76,0,0,1,1.0117.5717,15.7976,15.7976,0,0,1,3.9161,6.1382A21.3351,21.3351,0,0,1,1535.625,710.5645Z"/><path d="M1549.22,700.2246a5.6509,5.6509,0,0,1,2.2227,1.4522,6.9934,6.9934,0,0,1,1.3857,2.1777,7.7379,7.7379,0,0,1,.55,2.4858,6.6223,6.6223,0,0,1-.2861,2.3765,14.5628,14.5628,0,0,1-1.2314,2.42,11.0729,11.0729,0,0,1-1.7168,2.1118,8.1069,8.1069,0,0,1-2.1993,1.4961,6.4042,6.4042,0,0,1-2.7285.5718,5.28,5.28,0,0,1-3.0361-.8359,5.9406,5.9406,0,0,1-1.9356-2.1558,8.3856,8.3856,0,0,1-.9023-2.9922,13.0772,13.0772,0,0,1,.66-5.7422,8.098,8.098,0,0,1,1.0781-2.0678,6.042,6.042,0,0,1,1.5176-1.4742,3.4527,3.4527,0,0,1,1.958-.5717,6.3079,6.3079,0,0,1,1.54.2422,7.3828,7.3828,0,0,1,1.7158.6816A1.2222,1.2222,0,0,1,1549.22,700.2246Zm-1.6718,3.2119a13.28,13.28,0,0,1-1.1221-.8139,1.9212,1.9212,0,0,0-1.1221-.5059,1.5046,1.5046,0,0,0-1.0342.4839,5.1668,5.1668,0,0,0-.88,1.1221,9.656,9.656,0,0,0-.6376,1.2978,7.3131,7.3131,0,0,0-.3526,1.0562,10.8424,10.8424,0,0,0-.1758,1.5839,7.6142,7.6142,0,0,0,.1319,1.8257,4.2217,4.2217,0,0,0,.6826,1.6284,2.7419,2.7419,0,0,0,1.5176,1.0337,2.8674,2.8674,0,0,0,1.4521-.0219,5.2693,5.2693,0,0,0,1.65-.7261,6.8652,6.8652,0,0,0,1.54-1.4077,6.495,6.495,0,0,0,1.1221-2.0239,4.2441,4.2441,0,0,0,.0215-2.6622,3.1309,3.1309,0,0,0-1.6943-2.0019,1.0529,1.0529,0,0,1-.6153.22A1.09,1.09,0,0,1,1547.5479,703.4365Z"/><path d="M1559.9551,696.0884q0,1.0562-.0215,2.376-.0234,1.32,0,2.728.0205,1.4091.0439,2.9043t.0655,2.86a12.7074,12.7074,0,0,1,1.0566-1.7377,8.5294,8.5294,0,0,1,1.3858-1.5181,7.006,7.006,0,0,1,1.6279-1.0562,4.407,4.407,0,0,1,1.87-.396,3.007,3.007,0,0,1,1.958.7041,6.2877,6.2877,0,0,1,1.4961,1.87,14.0175,14.0175,0,0,1,1.0781,2.5957,28.3138,28.3138,0,0,1,.7256,2.9043q.2856,1.4743.418,2.8159t.22,2.31a1.7765,1.7765,0,0,1-.3516,1.1441,1.0452,1.0452,0,0,1-.8359.44,1.42,1.42,0,0,1-.8584-.4619,2.6144,2.6144,0,0,1-.7256-1.1221,14.5767,14.5767,0,0,1-.2636-1.54q-.1334-1.0122-.3086-2.1782t-.4395-2.354a14.3117,14.3117,0,0,0-.6387-2.1338,4.2937,4.2937,0,0,0-.9013-1.4741,1.3142,1.3142,0,0,0-1.2325-.396,3.0187,3.0187,0,0,0-1.914,1.54,15.6994,15.6994,0,0,0-1.4082,2.9922,27.8088,27.8088,0,0,0-.9678,3.3877q-.3735,1.716-.55,2.772a2.2549,2.2549,0,0,1-.4619,1.0781.8842.8842,0,0,1-.6387.2861.8181.8181,0,0,1-.6377-.352,4.197,4.197,0,0,1-.5273-.8579,8.1493,8.1493,0,0,1-.419-1.0562,5.0116,5.0116,0,0,1-.22-.9458q-.22-2.3768-.3516-4.5542t-.1982-4.3779q-.0658-2.1995-.0664-4.51t.0889-4.95q0-2.2,1.5839-1.98a1.3927,1.3927,0,0,1,.9239.77A2.8892,2.8892,0,0,1,1559.9551,696.0884Z"/><path d="M1586.0469,699.3008q.1758,1.232.2861,2.6177t.1758,2.7939q.0658,1.4092.0664,2.728,0,1.3206-.044,2.376a4.4392,4.4392,0,0,1,1.6944,1.7163,1.8128,1.8128,0,0,1,.0654,1.32,1.0119,1.0119,0,0,1-.9463.814,3.1,3.1,0,0,1-1.5615-.4619q-.6167.44-1.4082.9458t-1.6719.9683a18.86,18.86,0,0,1-1.76.8139,8.3148,8.3148,0,0,1-1.628.4839,3.4414,3.4414,0,0,1-2.53-.5278,3.7157,3.7157,0,0,1-1.5176-2.2442,5.5235,5.5235,0,0,1-.1328-2.09,5.9113,5.9113,0,0,1,.66-2.0684,6.3406,6.3406,0,0,1,1.4307-1.7817,6.5135,6.5135,0,0,1,2.1338-1.2319,3.78,3.78,0,0,1,.8574-.22,5.951,5.951,0,0,1,1.1445-.0659,4.06,4.06,0,0,1,1.21.2422,3.09,3.09,0,0,1,1.1435.7481q0-.7479-.0214-1.65-.0236-.9009-.0664-1.8257t-.1094-1.7383q-.066-.8138-.1543-1.3857a.8974.8974,0,0,0-.5059-.814,1.52,1.52,0,0,0-1.0342.0659,9.6886,9.6886,0,0,0-2.4638,1.3638,31.9431,31.9431,0,0,0-2.6846,2.1562,1.0958,1.0958,0,0,1-.9014.3521,1.3355,1.3355,0,0,1-.8584-.396,1.2922,1.2922,0,0,1-.3955-.814,1.44,1.44,0,0,1,.3516-.99q.747-.7917,1.6719-1.6279a17.3112,17.3112,0,0,1,1.9365-1.5181,11.88,11.88,0,0,1,2.0674-1.1221,6.1493,6.1493,0,0,1,2.1123-.4839,3.3641,3.3641,0,0,1,2.376.6822A3,3,0,0,1,1586.0469,699.3008Zm-5.1035,9.46a3.7968,3.7968,0,0,0-1.21.55,5.3461,5.3461,0,0,0-1.1445,1.0123,3.9469,3.9469,0,0,0-.7481,1.32,2.27,2.27,0,0,0-.0215,1.43.6606.6606,0,0,0,.3741.396.9368.9368,0,0,0,.6377.0439,10.8869,10.8869,0,0,0,2.3984-.8579,8.258,8.258,0,0,0,2.1338-1.3862,1.395,1.395,0,0,0-.2637-.6822,7.8437,7.8437,0,0,0-.6162-.8359,4.5528,4.5528,0,0,0-.7705-.7261A1.0964,1.0964,0,0,0,1580.9434,708.7607Z"/><path d="M1593.6592,701.0605q.1318.66.2861,1.4742t.33,1.6718q.1743.8585.3076,1.7378.1318.8811.22,1.6724.5289-1.144,1.1446-2.42a18.86,18.86,0,0,1,1.3418-2.354,8.9438,8.9438,0,0,1,1.54-1.7823,2.6693,2.6693,0,0,1,1.7822-.7041,3.2137,3.2137,0,0,1,2.4414,1.0562,9.1315,9.1315,0,0,1,1.6719,2.6182,18.59,18.59,0,0,1,1.0781,3.2778q.397,1.716.66,3.0361a1.4621,1.4621,0,0,1-1.0557,1.76q-.6166.3084-.9238.0879a.7752.7752,0,0,1-.3525-.44,14.774,14.774,0,0,1-.55-1.8476q-.33-1.3206-.7481-2.6841a14.0672,14.0672,0,0,0-.9463-2.376q-.5273-1.0122-1.1875-.9243-.7924.0447-1.4082,1.188-.5272.9243-1.0781,2.0464t-1.0781,2.2876q-.5274,1.1667-1.0342,2.332t-.9453,2.1343a1.5769,1.5769,0,0,1-.77.418,1.619,1.619,0,0,1-.9453-.066,1.4456,1.4456,0,0,1-.7041-.44.9471.9471,0,0,1-.2647-.6162q-.3955-3.4321-.8135-6.2481t-1.0781-5.7641a2.7238,2.7238,0,0,1-.11-1.606q.1977-.594,1.2978-.4619A2.2271,2.2271,0,0,1,1593.6592,701.0605Z"/><path d="M1509.3037,809.7783c-24.5176-36.1161-65.2024-55.978-92.9579-89.07a110.7673,110.7673,0,0,1-17.4553-27.6752c-4.5123-10.6377-8.48-24.173-4.2669-35.469,7.9591-21.34,38.2026-22.5946,56.3994-16.4783,20.9562,7.0438,38.1285,24.4862,43.05,46.2378a.3781.3781,0,0,0,.7232,0c6.121-20.08,22.5306-35.0749,41.7138-42.7072a108.3326,108.3326,0,0,1,32.7632-7.042c10.8576-.7332,22.7032-.9314,33.1591,2.4468,21.1965,6.8483,29.8821,33.765,30.925,53.9873,1.1834,22.9475-15.4778,39.0387-32.7072,51.4543a304.8006,304.8006,0,0,1-65.9885,35.9862c-.4435.1757-.25.9013.1994.7232a304.431,304.431,0,0,0,66.8881-36.5805c16.8844-12.2683,33.1747-28.2186,32.3913-50.6565-.3808-10.9075-3.4753-22.2548-7.83-32.2348-4.054-9.291-10.2689-17.6547-19.7251-21.9016-10.3506-4.6486-22.63-4.6362-33.7493-4.1686-12.4418.5231-24.9179,2.6513-36.5256,7.263a78.2018,78.2018,0,0,0-24.9925,15.7427,67.5365,67.5365,0,0,0-9.665,11.389c-2.8235,4.2139-4.378,8.8394-6.6747,13.2683-1.0925,2.1068.0825,1.7189-.8225.1572a19.032,19.032,0,0,1-.9853-3.2777,58.0957,58.0957,0,0,0-2.2834-5.8,61.64,61.64,0,0,0-7.0681-11.7324,68.47,68.47,0,0,0-21.8371-18.5942c-15.8411-8.5575-36.039-11.2311-52.6914-3.296-8.6,4.0982-15.1489,11.1426-16.7035,20.755-1.7479,10.807,1.8891,22.5123,6.2457,32.2966,22.349,50.1916,79.7664,71.0792,109.8233,115.355.27.3971.92.0223.6476-.3785Z"/><rect class="cls-17" x="-0.5" y="-0.5" width="1921" height="1080"/></g></svg>
