<svg xmlns="http://www.w3.org/2000/svg" width="420" height="305" viewBox="0 0 420 305"><defs><style>.cls-1{fill:#e6e6e6;}</style></defs><title>bobbel3</title><g id="Spørgsmål"><path class="cls-1" d="M348.24,11H53.76A42.76,42.76,0,0,0,11,53.76V184.24A42.76,42.76,0,0,0,53.76,227H290.525L282,289l59.675-62H348.24A42.76,42.76,0,0,0,391,184.24V53.76A42.76,42.76,0,0,0,348.24,11Z"/><path d="M35.5125,63.0293h7.2511a6.1561,6.1561,0,0,1,4.967,2.6216,9.873,9.873,0,0,1,2.0364,6.2947,10.82,10.82,0,0,1-2.0364,6.6332,6.0768,6.0768,0,0,1-4.967,2.7461H35.5125Zm7.2511,17.1229a4.9114,4.9114,0,0,0,4.0728-2.4065,9.81,9.81,0,0,0,1.6967-5.8,8.82,8.82,0,0,0-1.6967-5.4616,4.9871,4.9871,0,0,0-4.0728-2.2515H36.7474v15.92Z"/><path d="M52.667,63.0293h1.2349v1.8813H52.667Zm0,18.2956V68.1808h1.2349V81.3249Z"/><path d="M57.85,81.3249V68.1808h1.2349v2.222a4.21,4.21,0,0,1,1.6967-1.8508,4.9083,4.9083,0,0,1,5.8307.5547,4.08,4.08,0,0,1,1.3889,3.0857v9.1325H66.7675V72.1924a3.0566,3.0566,0,0,0-1.0187-2.3137,3.4324,3.4324,0,0,0-2.4371-.9565,4.0656,4.0656,0,0,0-2.746,1.0482,4.5479,4.5479,0,0,0-1.4806,2.6849v8.67Z"/><path d="M84.94,81.3249,80.0339,68.1808H81.176l4.4734,11.7246,4.2267-11.7246h1.1727l-4.813,13.1441Z"/><path d="M94.2262,79.8748a7.79,7.79,0,0,1-1.604-5.122,7.7872,7.7872,0,0,1,1.604-5.1209,5.2771,5.2771,0,0,1,4.2583-1.913,5.4833,5.4833,0,0,1,4.2572,1.758,6.6919,6.6919,0,0,1,1.604,4.69v.5863H93.856a6.7337,6.7337,0,0,0,1.2655,4.2889,4.0662,4.0662,0,0,0,3.363,1.604,5.0447,5.0447,0,0,0,2.8378-.8331,4.45,4.45,0,0,0,1.79-2.2515h1.2338a4.6042,4.6042,0,0,1-1.9741,3.0235,6.4615,6.4615,0,0,1-3.8871,1.2032A5.2768,5.2768,0,0,1,94.2262,79.8748Zm8.8857-6.2946v-.4619a4.6831,4.6831,0,0,0-1.4806-3.0857,4.538,4.538,0,0,0-3.1468-1.2338,4.3694,4.3694,0,0,0-3.1163,1.2644,4.7888,4.7888,0,0,0-1.5122,3.1785V73.58Z"/><path d="M107.2458,81.3249V68.1808h1.2348v2.222a4.2107,4.2107,0,0,1,1.6968-1.8508,4.9083,4.9083,0,0,1,5.8307.5547,4.08,4.08,0,0,1,1.3889,3.0857v9.1325h-1.2339V72.1924a3.0569,3.0569,0,0,0-1.0187-2.3137,3.4324,3.4324,0,0,0-2.4371-.9565,4.066,4.066,0,0,0-2.7461,1.0482,4.549,4.549,0,0,0-1.4806,2.6849v8.67Z"/><path d="M121.13,63.0293h1.2349v1.8813H121.13Zm0,18.2956V68.1808h1.2349V81.3249Z"/><path d="M126.3133,81.3249V68.1808h1.2348v2.222a4.2107,4.2107,0,0,1,1.6968-1.8508,4.9083,4.9083,0,0,1,5.8307.5547,4.08,4.08,0,0,1,1.3888,3.0857v9.1325h-1.2338V72.1924a3.0569,3.0569,0,0,0-1.0187-2.3137,3.4324,3.4324,0,0,0-2.4371-.9565,4.066,4.066,0,0,0-2.7461,1.0482,4.549,4.549,0,0,0-1.4806,2.6849v8.67Z"/><path d="M141,79.6281a7.2932,7.2932,0,0,1-1.6968-4.8753A7.5769,7.5769,0,0,1,141,69.7859a5.1127,5.1127,0,0,1,4.0727-2.067,4.709,4.709,0,0,1,2.7767.8943,5.244,5.244,0,0,1,1.79,2.4065v-7.99h1.2338V81.3249h-1.2338V78.641a4.36,4.36,0,0,1-1.759,2.19,4.8961,4.8961,0,0,1-2.8073.8331A5.1408,5.1408,0,0,1,141,79.6281Zm7.3123-.6486a6.8179,6.8179,0,0,0,1.3267-4.2267,6.6927,6.6927,0,0,0-1.3267-4.1961,3.9969,3.9969,0,0,0-3.24-1.7579,3.918,3.918,0,0,0-3.209,1.7579,6.686,6.686,0,0,0-1.3266,4.1961,6.8109,6.8109,0,0,0,1.3266,4.2267,3.919,3.919,0,0,0,3.209,1.759A3.9979,3.9979,0,0,0,148.3124,78.98Z"/><path d="M155.6247,79.8748a7.7906,7.7906,0,0,1-1.6039-5.122,7.7877,7.7877,0,0,1,1.6039-5.1209,5.2775,5.2775,0,0,1,4.2584-1.913,5.4833,5.4833,0,0,1,4.2572,1.758,6.6924,6.6924,0,0,1,1.604,4.69v.5863h-10.49a6.7337,6.7337,0,0,0,1.2655,4.2889,4.0662,4.0662,0,0,0,3.363,1.604,5.0447,5.0447,0,0,0,2.8378-.8331,4.451,4.451,0,0,0,1.79-2.2515h1.2338a4.6042,4.6042,0,0,1-1.9741,3.0235,6.4615,6.4615,0,0,1-3.8871,1.2032A5.2772,5.2772,0,0,1,155.6247,79.8748Zm8.8858-6.2946v-.4619a4.6831,4.6831,0,0,0-1.4806-3.0857,4.538,4.538,0,0,0-3.1468-1.2338,4.3694,4.3694,0,0,0-3.1163,1.2644,4.7888,4.7888,0,0,0-1.5122,3.1785V73.58Z"/><path d="M181.85,81.3249l-4.9058-13.1441h1.1421l4.4735,11.7246,4.2266-11.7246h1.1727l-4.813,13.1441Z"/><path d="M190.3335,63.0293h1.2349v1.8813h-1.2349Zm0,18.2956V68.1808h1.2349V81.3249Z"/><path d="M196.3192,79.6281a7.2927,7.2927,0,0,1-1.6968-4.8753,7.5764,7.5764,0,0,1,1.6968-4.9669,5.1124,5.1124,0,0,1,4.0727-2.067,4.7087,4.7087,0,0,1,2.7766.8943,5.2427,5.2427,0,0,1,1.79,2.4065v-7.99h1.2338V81.3249h-1.2338V78.641a4.3589,4.3589,0,0,1-1.759,2.19,4.8958,4.8958,0,0,1-2.8072.8331A5.14,5.14,0,0,1,196.3192,79.6281Zm7.3123-.6486a6.8178,6.8178,0,0,0,1.3266-4.2267,6.6926,6.6926,0,0,0-1.3266-4.1961,3.9969,3.9969,0,0,0-3.24-1.7579,3.9181,3.9181,0,0,0-3.2091,1.7579,6.6866,6.6866,0,0,0-1.3266,4.1961,6.8116,6.8116,0,0,0,1.3266,4.2267,3.919,3.919,0,0,0,3.2091,1.759A3.9979,3.9979,0,0,0,203.6315,78.98Z"/><path d="M210.9438,79.8748a7.7907,7.7907,0,0,1-1.604-5.122,7.7877,7.7877,0,0,1,1.604-5.1209,5.2773,5.2773,0,0,1,4.2583-1.913,5.4837,5.4837,0,0,1,4.2573,1.758,6.6923,6.6923,0,0,1,1.6039,4.69v.5863h-10.49a6.7343,6.7343,0,0,0,1.2655,4.2889,4.0662,4.0662,0,0,0,3.363,1.604,5.0445,5.0445,0,0,0,2.8378-.8331,4.45,4.45,0,0,0,1.79-2.2515h1.2338a4.6039,4.6039,0,0,1-1.9741,3.0235,6.4613,6.4613,0,0,1-3.8871,1.2032A5.277,5.277,0,0,1,210.9438,79.8748ZM219.83,73.58v-.4619a4.6827,4.6827,0,0,0-1.4806-3.0857,4.538,4.538,0,0,0-3.1468-1.2338,4.369,4.369,0,0,0-3.1162,1.2644,4.7884,4.7884,0,0,0-1.5123,3.1785V73.58Z"/><path d="M223.9634,81.3249V68.1808h1.2349v2.9623a5.5878,5.5878,0,0,1,1.5428-2.3137,3.44,3.44,0,0,1,2.2209-.8637h.71v1.4184a.4993.4993,0,0,1-.2162-.0612.3223.3223,0,0,0-.1233-.0622,3.55,3.55,0,0,0-2.6227,1.2349,5.9283,5.9283,0,0,0-1.5112,3.1162v7.7131Z"/><path d="M232.6329,79.8748a7.7907,7.7907,0,0,1-1.604-5.122,7.7877,7.7877,0,0,1,1.604-5.1209,5.2773,5.2773,0,0,1,4.2583-1.913,5.4835,5.4835,0,0,1,4.2573,1.758,6.6924,6.6924,0,0,1,1.604,4.69v.5863h-10.49a6.7343,6.7343,0,0,0,1.2654,4.2889,4.0662,4.0662,0,0,0,3.363,1.604,5.0448,5.0448,0,0,0,2.8379-.8331,4.4508,4.4508,0,0,0,1.79-2.2515h1.2339a4.6044,4.6044,0,0,1-1.9742,3.0235,6.4613,6.4613,0,0,1-3.8871,1.2032A5.277,5.277,0,0,1,232.6329,79.8748Zm8.8857-6.2946v-.4619a4.6822,4.6822,0,0,0-1.4806-3.0857,4.5379,4.5379,0,0,0-3.1468-1.2338,4.3692,4.3692,0,0,0-3.1162,1.2644,4.7883,4.7883,0,0,0-1.5122,3.1785V73.58Z"/><path d="M246.0543,80.4306a3.7686,3.7686,0,0,1-1.4816-2.9929h1.142a2.8938,2.8938,0,0,0,1.1411,2.2832,4.2238,4.2238,0,0,0,2.746.9248,4.9555,4.9555,0,0,0,2.9929-.8331,2.72,2.72,0,0,0,1.1115-2.2515,2.1211,2.1211,0,0,0-1.1727-1.79,7.4153,7.4153,0,0,0-3.1468-.8953,6.0663,6.0663,0,0,1-3.3324-1.1726,2.9857,2.9857,0,0,1-1.2655-2.4371,2.9183,2.9183,0,0,1,1.2655-2.53,6.0743,6.0743,0,0,1,3.5475-.8943,5.7415,5.7415,0,0,1,3.4864.9565,3,3,0,0,1,1.3267,2.5605h-1.1717a2.833,2.833,0,0,0-1.1726-1.8824,4.1708,4.1708,0,0,0-2.4688-.6781,4.6108,4.6108,0,0,0-2.6532.6781,2.0808,2.0808,0,0,0-.9871,1.79,2.1161,2.1161,0,0,0,1.2033,1.79,7.4119,7.4119,0,0,0,3.1468.8953,5.9145,5.9145,0,0,1,3.3324,1.2338,3.4243,3.4243,0,0,1-.2162,5.43,6.2988,6.2988,0,0,1-3.826,1.0493A5.2862,5.2862,0,0,1,246.0543,80.4306Z"/><path d="M258.55,79.8748a7.7907,7.7907,0,0,1-1.604-5.122,7.7877,7.7877,0,0,1,1.604-5.1209,5.2771,5.2771,0,0,1,4.2583-1.913,5.4837,5.4837,0,0,1,4.2573,1.758,6.6923,6.6923,0,0,1,1.6039,4.69v.5863H258.18a6.7343,6.7343,0,0,0,1.2655,4.2889,4.0662,4.0662,0,0,0,3.363,1.604,5.0445,5.0445,0,0,0,2.8378-.8331,4.45,4.45,0,0,0,1.79-2.2515h1.2338a4.6039,4.6039,0,0,1-1.9741,3.0235,6.4613,6.4613,0,0,1-3.8871,1.2032A5.2768,5.2768,0,0,1,258.55,79.8748Zm8.8857-6.2946v-.4619a4.6827,4.6827,0,0,0-1.4806-3.0857,4.538,4.538,0,0,0-3.1468-1.2338,4.369,4.369,0,0,0-3.1162,1.2644,4.7884,4.7884,0,0,0-1.5123,3.1785V73.58Z"/><path d="M271.5694,81.3249V68.1808h1.2349v2.222a4.21,4.21,0,0,1,1.6968-1.8508,4.9082,4.9082,0,0,1,5.8306.5547,4.08,4.08,0,0,1,1.3889,3.0857v9.1325h-1.2339V72.1924a3.0566,3.0566,0,0,0-1.0187-2.3137,3.4323,3.4323,0,0,0-2.4371-.9565,4.0656,4.0656,0,0,0-2.746,1.0482,4.5485,4.5485,0,0,0-1.4806,2.6849v8.67Z"/><path d="M286.2562,79.6281a7.2931,7.2931,0,0,1-1.6967-4.8753,7.5768,7.5768,0,0,1,1.6967-4.9669,5.1127,5.1127,0,0,1,4.0727-2.067,4.7088,4.7088,0,0,1,2.7767.8943,5.2433,5.2433,0,0,1,1.79,2.4065v-7.99h1.2338V81.3249h-1.2338V78.641a4.3594,4.3594,0,0,1-1.759,2.19,4.8961,4.8961,0,0,1-2.8073.8331A5.1408,5.1408,0,0,1,286.2562,79.6281Zm7.3124-.6486a6.8178,6.8178,0,0,0,1.3266-4.2267,6.6926,6.6926,0,0,0-1.3266-4.1961,3.9971,3.9971,0,0,0-3.24-1.7579,3.918,3.918,0,0,0-3.209,1.7579,6.686,6.686,0,0,0-1.3266,4.1961A6.8109,6.8109,0,0,0,287.12,78.98a3.919,3.919,0,0,0,3.209,1.759A3.9981,3.9981,0,0,0,293.5686,78.98Z"/><path d="M300.8809,79.8748a7.7907,7.7907,0,0,1-1.604-5.122,7.7877,7.7877,0,0,1,1.604-5.1209,5.2771,5.2771,0,0,1,4.2583-1.913,5.4833,5.4833,0,0,1,4.2572,1.758,6.6919,6.6919,0,0,1,1.604,4.69v.5863h-10.49a6.7337,6.7337,0,0,0,1.2655,4.2889,4.0662,4.0662,0,0,0,3.363,1.604,5.0445,5.0445,0,0,0,2.8378-.8331,4.45,4.45,0,0,0,1.79-2.2515H311a4.6042,4.6042,0,0,1-1.9741,3.0235,6.4615,6.4615,0,0,1-3.8871,1.2032A5.2768,5.2768,0,0,1,300.8809,79.8748Zm8.8857-6.2946v-.4619a4.6831,4.6831,0,0,0-1.4806-3.0857,4.538,4.538,0,0,0-3.1468-1.2338,4.369,4.369,0,0,0-3.1162,1.2644,4.7884,4.7884,0,0,0-1.5123,3.1785V73.58Z"/><path d="M313.9005,81.3249V68.1808h1.2349v2.9623a5.5868,5.5868,0,0,1,1.5428-2.3137,3.44,3.44,0,0,1,2.2209-.8637h.71v1.4184a.4989.4989,0,0,1-.2162-.0612.3217.3217,0,0,0-.1234-.0622,3.55,3.55,0,0,0-2.6227,1.2349,5.9282,5.9282,0,0,0-1.5111,3.1162v7.7131Z"/><path d="M332.4428,79.6281a7.2932,7.2932,0,0,1-1.6968-4.8753,7.5769,7.5769,0,0,1,1.6968-4.9669,5.1126,5.1126,0,0,1,4.0727-2.067,4.709,4.709,0,0,1,2.7767.8943,5.244,5.244,0,0,1,1.79,2.4065v-7.99h1.2338V81.3249h-1.2338V78.641a4.36,4.36,0,0,1-1.7591,2.19,4.8956,4.8956,0,0,1-2.8072.8331A5.1406,5.1406,0,0,1,332.4428,79.6281Zm7.3123-.6486a6.8179,6.8179,0,0,0,1.3267-4.2267,6.6927,6.6927,0,0,0-1.3267-4.1961,3.9969,3.9969,0,0,0-3.24-1.7579,3.918,3.918,0,0,0-3.209,1.7579,6.686,6.686,0,0,0-1.3267,4.1961,6.811,6.811,0,0,0,1.3267,4.2267,3.919,3.919,0,0,0,3.209,1.759A3.9979,3.9979,0,0,0,339.7551,78.98Z"/><path d="M346.2649,63.0293H347.5v1.8813h-1.2349Zm0,18.2956V68.1808H347.5V81.3249Z"/><path d="M352.3128,84.7806a3.713,3.713,0,0,1-1.6662-3.0234h1.1727a2.7872,2.7872,0,0,0,1.295,2.2831,5.4165,5.4165,0,0,0,3.1784.9249,4.6693,4.6693,0,0,0,3.24-1.08,3.66,3.66,0,0,0,1.2339-2.9V78.3014a4.5318,4.5318,0,0,1-1.79,2.0364,4.9134,4.9134,0,0,1-2.6533.7709,5.1417,5.1417,0,0,1-4.1339-1.82,8.3381,8.3381,0,0,1,0-9.7494,5.1417,5.1417,0,0,1,4.1339-1.82,4.9313,4.9313,0,0,1,2.7461.8015,4.3183,4.3183,0,0,1,1.6968,2.1291V68.1808H362V81.0159a4.5746,4.5746,0,0,1-1.5112,3.6719,6.0808,6.0808,0,0,1-4.1961,1.3267A6.4136,6.4136,0,0,1,352.3128,84.7806ZM359.47,78.486a7.0468,7.0468,0,0,0,0-8.1454,3.9579,3.9579,0,0,0-6.3864-.0918,7.6469,7.6469,0,0,0,0,8.33,3.9572,3.9572,0,0,0,6.3864-.0928Z"/><path d="M36.315,109.68a8.9784,8.9784,0,0,1,0-10.243,5.2773,5.2773,0,0,1,4.2583-1.913,5.4835,5.4835,0,0,1,4.2573,1.758,6.6926,6.6926,0,0,1,1.604,4.69v.5864h-10.49a6.7345,6.7345,0,0,0,1.2654,4.2889,4.0664,4.0664,0,0,0,3.363,1.6039,5.0442,5.0442,0,0,0,2.8378-.8331,4.4506,4.4506,0,0,0,1.79-2.2514h1.2339A4.6039,4.6039,0,0,1,44.46,110.39a6.4613,6.4613,0,0,1-3.8871,1.2032A5.2772,5.2772,0,0,1,36.315,109.68Zm8.8857-6.2947v-.4619A4.6822,4.6822,0,0,0,43.72,99.8377a4.5375,4.5375,0,0,0-3.1468-1.2339,4.3692,4.3692,0,0,0-3.1162,1.2644,4.7881,4.7881,0,0,0-1.5122,3.1785v.3385Z"/><path d="M50.1677,110.76a2.871,2.871,0,0,1-.71-1.9752V98.9423H47.5767v-.9565H49.458V94.2527h1.2349v3.7331h1.79v.9565h-1.79v9.8422a2.2062,2.2062,0,0,0,.4007,1.3277,1.0878,1.0878,0,0,0,.9259.5547,1.8777,1.8777,0,0,0,.9565-.2162v.8954a3.3537,3.3537,0,0,1-1.0493.2467A2.28,2.28,0,0,1,50.1677,110.76Z"/><path d="M65.8406,109.4331a7.2926,7.2926,0,0,1-1.6968-4.8752,7.5766,7.5766,0,0,1,1.6968-4.967,5.1124,5.1124,0,0,1,4.0727-2.067,4.7087,4.7087,0,0,1,2.7766.8943,5.2432,5.2432,0,0,1,1.79,2.4065v-7.99h1.2339V111.13H74.48V108.446a4.3589,4.3589,0,0,1-1.759,2.19,4.8956,4.8956,0,0,1-2.8072.8331A5.14,5.14,0,0,1,65.8406,109.4331Zm7.3123-.6486a6.8177,6.8177,0,0,0,1.3266-4.2266,6.6924,6.6924,0,0,0-1.3266-4.1961,3.9968,3.9968,0,0,0-3.24-1.758,3.9178,3.9178,0,0,0-3.209,1.758,6.6858,6.6858,0,0,0-1.3267,4.1961,6.8109,6.8109,0,0,0,1.3267,4.2266,3.9189,3.9189,0,0,0,3.209,1.759A3.9979,3.9979,0,0,0,73.1529,108.7845Z"/><path d="M79.6627,92.8343h1.2349v1.8814H79.6627Zm0,18.2956V97.9858h1.2349V111.13Z"/><path d="M85.7718,109.6176a7.4548,7.4548,0,0,1-1.82-5.06,7.2588,7.2588,0,0,1,1.82-4.967,5.6712,5.6712,0,0,1,4.4122-2.067,5.49,5.49,0,0,1,3.64,1.2645,3.9417,3.9417,0,0,1,1.5122,3.0856H94.1028a2.7811,2.7811,0,0,0-1.1421-2.2219,4.2676,4.2676,0,0,0-2.7767-.9249,4.5571,4.5571,0,0,0-3.5486,1.6968,6.22,6.22,0,0,0-1.45,4.1339,6.4254,6.4254,0,0,0,1.45,4.2266,4.4976,4.4976,0,0,0,3.5486,1.759,4.0181,4.0181,0,0,0,2.7155-.9564,2.891,2.891,0,0,0,1.1411-2.2832h1.296a3.97,3.97,0,0,1-1.5122,3.1163,5.4076,5.4076,0,0,1-3.64,1.296A5.6371,5.6371,0,0,1,85.7718,109.6176Z"/><path d="M98.0205,111.13V92.8343h1.2349v11.97l7.0339-6.8188h1.5428l-5.06,4.8141,5.6461,8.33h-1.296L101.97,103.633l-2.7144,2.5911V111.13Z"/><path d="M110.67,116.0663v-18.08h1.2349v2.7155a4.8957,4.8957,0,0,1,1.758-2.3137,4.6337,4.6337,0,0,1,2.7154-.8637,5.1877,5.1877,0,0,1,4.2267,1.913,7.7883,7.7883,0,0,1,1.6051,5.121,7.4635,7.4635,0,0,1-1.5429,4.9364,5.2614,5.2614,0,0,1-6.8493,1.0187,5.0757,5.0757,0,0,1-1.913-2.19v7.7437Zm9.0713-7.25a7.186,7.186,0,0,0,1.2339-4.3817,6.9119,6.9119,0,0,0-1.2339-4.32,3.8194,3.8194,0,0,0-3.24-1.6346,3.9406,3.9406,0,0,0-3.24,1.758,6.5869,6.5869,0,0,0-1.3572,4.1961,6.7629,6.7629,0,0,0,1.3572,4.2583,3.9433,3.9433,0,0,0,3.24,1.7579A3.8169,3.8169,0,0,0,119.7412,108.8162Z"/><path d="M125.3557,92.8343h1.2349v1.8814h-1.2349Zm0,18.2956V97.9858h1.2349V111.13Z"/><path d="M131.4648,109.6176a7.4548,7.4548,0,0,1-1.82-5.06,7.2588,7.2588,0,0,1,1.82-4.967,5.6713,5.6713,0,0,1,4.4123-2.067,5.49,5.49,0,0,1,3.64,1.2645,3.9414,3.9414,0,0,1,1.5122,3.0856h-1.2338a2.7809,2.7809,0,0,0-1.1421-2.2219,4.2673,4.2673,0,0,0-2.7766-.9249,4.5568,4.5568,0,0,0-3.5486,1.6968,6.2193,6.2193,0,0,0-1.45,4.1339,6.4249,6.4249,0,0,0,1.45,4.2266,4.4973,4.4973,0,0,0,3.5486,1.759,4.0181,4.0181,0,0,0,2.7154-.9564,2.891,2.891,0,0,0,1.1411-2.2832h1.296a3.97,3.97,0,0,1-1.5122,3.1163,5.4075,5.4075,0,0,1-3.64,1.296A5.6371,5.6371,0,0,1,131.4648,109.6176Z"/><path d="M143.8369,114.03c.2267,0,.4113-.1445.5557-.4313a2.0874,2.0874,0,0,0,.2468-1.0493V111.13h-.9259v-1.8824h1.79v3.3018a2.6606,2.6606,0,0,1-.4008,1.4806,1.2356,1.2356,0,0,1-1.0176.6169Z"/><path d="M159.727,110.2356a3.7685,3.7685,0,0,1-1.4817-2.9928h1.1421a2.894,2.894,0,0,0,1.141,2.2831,4.2241,4.2241,0,0,0,2.7461.9248,4.9555,4.9555,0,0,0,2.9929-.8331,2.72,2.72,0,0,0,1.1115-2.2514,2.1211,2.1211,0,0,0-1.1727-1.79,7.4153,7.4153,0,0,0-3.1468-.8954,6.0653,6.0653,0,0,1-3.3324-1.1726,2.9854,2.9854,0,0,1-1.2655-2.4371,2.9181,2.9181,0,0,1,1.2655-2.53,6.075,6.075,0,0,1,3.5475-.8943,5.7415,5.7415,0,0,1,3.4864.9565,3,3,0,0,1,1.3266,2.56h-1.1716a2.8336,2.8336,0,0,0-1.1727-1.8824,4.17,4.17,0,0,0-2.4687-.6781,4.6114,4.6114,0,0,0-2.6533.6781,2.0811,2.0811,0,0,0-.987,1.79,2.1161,2.1161,0,0,0,1.2032,1.79,7.4114,7.4114,0,0,0,3.1468.8953,5.9152,5.9152,0,0,1,3.3325,1.2338,3.4244,3.4244,0,0,1-.2162,5.43,6.2994,6.2994,0,0,1-3.826,1.0492A5.2857,5.2857,0,0,1,159.727,110.2356Z"/><path d="M172.2847,109.4943a7.0177,7.0177,0,0,1-1.6968-4.9364,7.5045,7.5045,0,0,1,1.6968-5.121,5.63,5.63,0,0,1,4.4734-1.913,5.6894,5.6894,0,0,1,4.4735,1.913,7.5969,7.5969,0,0,1,1.6662,5.121,7.101,7.101,0,0,1-1.6662,4.9364,5.7793,5.7793,0,0,1-4.4735,1.8518A5.718,5.718,0,0,1,172.2847,109.4943Zm8.0526-.74a6.3,6.3,0,0,0,1.3266-4.1961,6.5757,6.5757,0,0,0-1.3266-4.32,4.4268,4.4268,0,0,0-3.5792-1.6346,4.37,4.37,0,0,0-3.5792,1.6346,6.4721,6.4721,0,0,0-1.3572,4.32,6.2024,6.2024,0,0,0,1.3572,4.1961,4.4393,4.4393,0,0,0,3.5792,1.5734A4.4974,4.4974,0,0,0,180.3373,108.754Z"/><path d="M186.0129,111.13V97.9858h1.2349v2.222a4.4691,4.4691,0,0,1,1.5734-1.8507,3.7561,3.7561,0,0,1,2.19-.71,4.1175,4.1175,0,0,1,2.437.74,3.42,3.42,0,0,1,1.3889,1.9436,4.46,4.46,0,0,1,1.759-1.9436,4.9083,4.9083,0,0,1,2.6227-.74,4.2341,4.2341,0,0,1,3.0234,1.2033,3.9024,3.9024,0,0,1,1.2339,2.9V111.13h-1.2339v-9.3793a3.0826,3.0826,0,0,0-.8953-2.2219,2.7963,2.7963,0,0,0-2.1281-.9249,3.7822,3.7822,0,0,0-2.5921,1.0177,4.3915,4.3915,0,0,0-1.4195,2.5921V111.13h-1.2338v-9.3793a3.21,3.21,0,0,0-.8331-2.2219,2.6057,2.6057,0,0,0-2.0058-.9249,3.4972,3.4972,0,0,0-2.4993,1.08,5.2359,5.2359,0,0,0-1.3878,2.7766v8.67Z"/><path d="M217.113,111.13V92.8343h1.2349v7.62a5.0254,5.0254,0,0,1,1.8507-2.1292,4.6356,4.6356,0,0,1,2.6227-.8015A4.2417,4.2417,0,0,1,226,98.9118a4.5519,4.5519,0,0,1,1.3267,3.3018V111.13h-1.2349v-8.67a4.0163,4.0163,0,0,0-.9565-2.7154,2.92,2.92,0,0,0-2.3137-1.1411,4.0085,4.0085,0,0,0-2.7461,1.11,5.44,5.44,0,0,0-1.7273,2.8388V111.13Z"/><path d="M232.2006,110.2662a3.7765,3.7765,0,0,1-1.3267-2.9v-9.38h1.2339v9.38a2.9452,2.9452,0,0,0,.9564,2.19,3.2632,3.2632,0,0,0,2.3137.8942,4.0047,4.0047,0,0,0,2.8695-1.2338,5.6244,5.6244,0,0,0,1.605-3.1162V97.9858h1.2339V111.13h-1.2339v-2.3137a4.3968,4.3968,0,0,1-1.7895,1.9435,5.192,5.192,0,0,1-2.685.71A4.5681,4.5681,0,0,1,232.2006,110.2662Z"/><path d="M245.0345,111.13V97.9858h1.2349v2.222a4.21,4.21,0,0,1,1.6968-1.8507,4.9079,4.9079,0,0,1,5.8307.5547,4.0794,4.0794,0,0,1,1.3888,3.0856V111.13h-1.2338v-9.1325a3.0569,3.0569,0,0,0-1.0187-2.3137,3.4324,3.4324,0,0,0-2.4371-.9565,4.066,4.066,0,0,0-2.7461,1.0482,4.549,4.549,0,0,0-1.4806,2.6849v8.67Z"/><path d="M268.7917,111.13V92.8343h1.2349v7.62a5.0254,5.0254,0,0,1,1.8507-2.1292,4.6356,4.6356,0,0,1,2.6227-.8015,4.2417,4.2417,0,0,1,3.1784,1.3879,4.5519,4.5519,0,0,1,1.3267,3.3018V111.13H277.77v-8.67a4.0163,4.0163,0,0,0-.9565-2.7154A2.92,2.92,0,0,0,274.5,98.6038a4.0085,4.0085,0,0,0-2.7461,1.11,5.44,5.44,0,0,0-1.7273,2.8388V111.13Z"/><path d="M283.0462,110.513a3.1907,3.1907,0,0,1-.0306-5.2454,5.89,5.89,0,0,1,3.3324-1.2961,13.7344,13.7344,0,0,0,3.1774-.6169q1.2654-.4319,1.2654-1.0176v-1.1727a2.0416,2.0416,0,0,0-1.1115-1.7274,5.2442,5.2442,0,0,0-5.2137-.0316,2.0181,2.0181,0,0,0-1.0493,1.6662v.6791h-1.1727v-.8025a2.6785,2.6785,0,0,1,1.3889-2.2525,6.0741,6.0741,0,0,1,3.3936-.9249,6.5157,6.5157,0,0,1,3.4863.8943,2.5569,2.5569,0,0,1,1.45,2.16v7.96a2.4962,2.4962,0,0,0,.34,1.3277.9774.9774,0,0,0,.8331.5547,1.1226,1.1226,0,0,0,.2774-.0306.3878.3878,0,0,0,.1856-.0928v.5864a2.7866,2.7866,0,0,1-1.1727.2162,1.5749,1.5749,0,0,1-1.2338-.617,2.2974,2.2974,0,0,1-.4936-1.4816,3.128,3.128,0,0,1-1.5734,1.6968,5.765,5.765,0,0,1-2.7766.6485A5.1419,5.1419,0,0,1,283.0462,110.513Zm6.2018-.9259a4.3216,4.3216,0,0,0,1.5428-2.6839V103.88a3.7523,3.7523,0,0,1-1.5744.6169,21.7366,21.7366,0,0,1-2.8684.4007,4.127,4.127,0,0,0-2.4382.9871,2.5128,2.5128,0,0,0-.987,1.9752,2.4292,2.4292,0,0,0,1.0176,1.9741,3.605,3.605,0,0,0,2.4076.8331A4.3388,4.3388,0,0,0,289.248,109.5871Z"/><path d="M295.973,111.13V97.9858h1.2348v2.9623a5.5886,5.5886,0,0,1,1.5429-2.3137,3.44,3.44,0,0,1,2.2209-.8637h.71v1.4184a.4975.4975,0,0,1-.2162-.0612.3224.3224,0,0,0-.1234-.0622,3.55,3.55,0,0,0-2.6227,1.2349,5.9294,5.9294,0,0,0-1.5112,3.1162V111.13Z"/><path d="M313.9912,111.13V99.3135h-2.067V98.1092h2.067V95.6416a2.6349,2.6349,0,0,1,.8331-1.9752,2.7331,2.7331,0,0,1,2.0047-.8321h.7413V93.79h-.71a1.4318,1.4318,0,0,0-1.1421.5557,1.8214,1.8214,0,0,0-.4935,1.2961v2.4676H317.57v1.2043H315.225V111.13Z"/><path d="M320.038,110.513a3.1908,3.1908,0,0,1-.0306-5.2454,5.89,5.89,0,0,1,3.3324-1.2961,13.7333,13.7333,0,0,0,3.1774-.6169q1.2656-.4319,1.2655-1.0176v-1.1727a2.0416,2.0416,0,0,0-1.1115-1.7274,5.2444,5.2444,0,0,0-5.2138-.0316,2.0182,2.0182,0,0,0-1.0492,1.6662v.6791h-1.1727v-.8025a2.6783,2.6783,0,0,1,1.3888-2.2525,6.0743,6.0743,0,0,1,3.3936-.9249,6.5158,6.5158,0,0,1,3.4864.8943,2.557,2.557,0,0,1,1.45,2.16v7.96a2.4962,2.4962,0,0,0,.34,1.3277.9773.9773,0,0,0,.8331.5547,1.1212,1.1212,0,0,0,.2773-.0306.3873.3873,0,0,0,.1856-.0928v.5864a2.7861,2.7861,0,0,1-1.1726.2162,1.5753,1.5753,0,0,1-1.2339-.617,2.2973,2.2973,0,0,1-.4935-1.4816,3.1284,3.1284,0,0,1-1.5734,1.6968,5.7651,5.7651,0,0,1-2.7767.6485A5.1421,5.1421,0,0,1,320.038,110.513Zm6.2019-.9259a4.3216,4.3216,0,0,0,1.5428-2.6839V103.88a3.7534,3.7534,0,0,1-1.5745.6169,21.7341,21.7341,0,0,1-2.8684.4007,4.1264,4.1264,0,0,0-2.4381.9871,2.5126,2.5126,0,0,0-.9871,1.9752,2.4293,2.4293,0,0,0,1.0177,1.9741,3.6046,3.6046,0,0,0,2.4075.8331A4.3391,4.3391,0,0,0,326.24,109.5871Zm-3.826-16.4448a2.3171,2.3171,0,0,1,1.6968-.71,2.4234,2.4234,0,0,1,2.4371,2.4371,2.3155,2.3155,0,0,1-.71,1.6979,2.3491,2.3491,0,0,1-1.7274.71,2.4233,2.4233,0,0,1-2.4065-2.4076A2.3506,2.3506,0,0,1,322.4139,93.1423Zm.6169,2.8072a1.5124,1.5124,0,0,0,2.5922-1.08,1.5124,1.5124,0,1,0-3.0245,0A1.5311,1.5311,0,0,0,323.0308,95.95Z"/><path d="M333.7673,109.68a8.9784,8.9784,0,0,1,0-10.243,5.2773,5.2773,0,0,1,4.2583-1.913,5.4835,5.4835,0,0,1,4.2573,1.758,6.6926,6.6926,0,0,1,1.604,4.69v.5864h-10.49a6.7345,6.7345,0,0,0,1.2654,4.2889,4.0664,4.0664,0,0,0,3.363,1.6039,5.0448,5.0448,0,0,0,2.8379-.8331,4.451,4.451,0,0,0,1.79-2.2514h1.2339a4.6039,4.6039,0,0,1-1.9742,3.0234,6.4613,6.4613,0,0,1-3.8871,1.2032A5.2772,5.2772,0,0,1,333.7673,109.68Zm8.8857-6.2947v-.4619a4.6818,4.6818,0,0,0-1.4806-3.0856,4.5375,4.5375,0,0,0-3.1468-1.2339,4.3692,4.3692,0,0,0-3.1162,1.2644,4.7885,4.7885,0,0,0-1.5122,3.1785v.3385Z"/><path d="M347.62,110.76a2.871,2.871,0,0,1-.71-1.9752V98.9423H345.029v-.9565H346.91V94.2527h1.2349v3.7331h1.79v.9565h-1.79v9.8422a2.2062,2.2062,0,0,0,.4007,1.3277,1.0878,1.0878,0,0,0,.9259.5547,1.8777,1.8777,0,0,0,.9565-.2162v.8954a3.3537,3.3537,0,0,1-1.0493.2467A2.28,2.28,0,0,1,347.62,110.76Z"/><path d="M35.8215,140.3169a3.1906,3.1906,0,0,1-.0306-5.2453,5.89,5.89,0,0,1,3.3324-1.2961,13.74,13.74,0,0,0,3.1774-.6169q1.2654-.4319,1.2655-1.0177v-1.1726a2.0413,2.0413,0,0,0-1.1115-1.7274,5.2444,5.2444,0,0,0-5.2138-.0316,2.0181,2.0181,0,0,0-1.0493,1.6662v.6791H35.019v-.8025A2.6786,2.6786,0,0,1,36.4078,128.5a6.0749,6.0749,0,0,1,3.3936-.9248,6.5152,6.5152,0,0,1,3.4864.8943,2.5569,2.5569,0,0,1,1.45,2.16v7.96a2.4964,2.4964,0,0,0,.34,1.3277.9774.9774,0,0,0,.8331.5547,1.1226,1.1226,0,0,0,.2774-.0306.3882.3882,0,0,0,.1856-.0928v.5864a2.7867,2.7867,0,0,1-1.1727.2161,1.575,1.575,0,0,1-1.2338-.6169,2.2975,2.2975,0,0,1-.4935-1.4816A3.1286,3.1286,0,0,1,41.9,140.7482a5.7646,5.7646,0,0,1-2.7767.6486A5.142,5.142,0,0,1,35.8215,140.3169Zm6.2018-.9259a4.3212,4.3212,0,0,0,1.5429-2.6838v-3.0234a3.7534,3.7534,0,0,1-1.5745.6169,21.7366,21.7366,0,0,1-2.8684.4007,4.1264,4.1264,0,0,0-2.4381.9871,2.5125,2.5125,0,0,0-.9871,1.9752,2.43,2.43,0,0,0,1.0176,1.9741,3.605,3.605,0,0,0,2.4076.8331A4.3382,4.3382,0,0,0,42.0233,139.391Z"/><path d="M49.0267,140.9339V129.1175H46.96v-1.2043h2.067v-2.4677A2.6352,2.6352,0,0,1,49.86,123.47a2.733,2.733,0,0,1,2.0047-.832h.7413v.9554h-.71a1.4316,1.4316,0,0,0-1.1421.5558,1.8213,1.8213,0,0,0-.4935,1.296v2.4677h2.3453v1.2043H50.2605v11.8164Z"/><path d="M64.6373,140.9339V122.6383H76.5781v1.2032H65.8722v7.034h9.78v1.142h-9.78v7.7437H76.5781v1.1727Z"/><path d="M78.8908,140.9339V127.79h1.2348v2.222a4.4688,4.4688,0,0,1,1.5734-1.8508,3.756,3.756,0,0,1,2.19-.71,4.118,4.118,0,0,1,2.4371.74,3.42,3.42,0,0,1,1.3888,1.9436,4.46,4.46,0,0,1,1.759-1.9436,4.9083,4.9083,0,0,1,2.6227-.74,4.2336,4.2336,0,0,1,3.0234,1.2033,3.9022,3.9022,0,0,1,1.2339,2.9v9.3793H95.12v-9.3793a3.083,3.083,0,0,0-.8953-2.222,2.7962,2.7962,0,0,0-2.1281-.9248,3.7826,3.7826,0,0,0-2.5921,1.0176,4.3914,4.3914,0,0,0-1.4194,2.5921v8.9164H86.8516v-9.3793a3.2108,3.2108,0,0,0-.8331-2.222,2.6056,2.6056,0,0,0-2.0058-.9248,3.4972,3.4972,0,0,0-2.4993,1.08,5.2359,5.2359,0,0,0-1.3878,2.7766v8.67Z"/><path d="M100.118,122.6383h1.2349V124.52H100.118Zm0,18.2956V127.79h1.2349v13.1441Z"/><path d="M105.3011,140.9339V122.6383h1.2349v18.2956Z"/><path d="M120.6355,140.9339V129.1175h-2.0669v-1.2043h2.0669v-2.4677a2.6355,2.6355,0,0,1,.8331-1.9752,2.733,2.733,0,0,1,2.0047-.832h.7414v.9554h-.71a1.4315,1.4315,0,0,0-1.1421.5558,1.821,1.821,0,0,0-.4936,1.296v2.4677h2.3454v1.2043h-2.3454v11.8164Z"/><path d="M126.3734,140.9339V127.79h1.2349v2.9623a5.5868,5.5868,0,0,1,1.5428-2.3137,3.44,3.44,0,0,1,2.2209-.8637h.71v1.4184a.4989.4989,0,0,1-.2162-.0612.3224.3224,0,0,0-.1234-.0622,3.55,3.55,0,0,0-2.6227,1.2349,5.9282,5.9282,0,0,0-1.5111,3.1162v7.7131Z"/><path d="M134.5494,140.3169a3.1906,3.1906,0,0,1-.0306-5.2453,5.89,5.89,0,0,1,3.3324-1.2961,13.74,13.74,0,0,0,3.1774-.6169q1.2654-.4319,1.2655-1.0177v-1.1726a2.0414,2.0414,0,0,0-1.1116-1.7274,5.2442,5.2442,0,0,0-5.2137-.0316,2.0181,2.0181,0,0,0-1.0493,1.6662v.6791h-1.1727v-.8025a2.6787,2.6787,0,0,1,1.3889-2.2526,6.0749,6.0749,0,0,1,3.3936-.9248,6.5154,6.5154,0,0,1,3.4864.8943,2.5569,2.5569,0,0,1,1.45,2.16v7.96a2.4964,2.4964,0,0,0,.34,1.3277.9774.9774,0,0,0,.8331.5547,1.1226,1.1226,0,0,0,.2774-.0306.3886.3886,0,0,0,.1856-.0928v.5864a2.7867,2.7867,0,0,1-1.1727.2161,1.5748,1.5748,0,0,1-1.2338-.6169,2.2975,2.2975,0,0,1-.4935-1.4816,3.1284,3.1284,0,0,1-1.5735,1.6967,5.7639,5.7639,0,0,1-2.7766.6486A5.142,5.142,0,0,1,134.5494,140.3169Zm6.2018-.9259a4.3212,4.3212,0,0,0,1.5429-2.6838v-3.0234a3.7534,3.7534,0,0,1-1.5745.6169,21.7366,21.7366,0,0,1-2.8684.4007,4.1264,4.1264,0,0,0-2.4381.9871,2.5125,2.5125,0,0,0-.9871,1.9752,2.43,2.43,0,0,0,1.0176,1.9741,3.605,3.605,0,0,0,2.4076.8331A4.3382,4.3382,0,0,0,140.7512,139.391Z"/><path d="M157.349,145.87V127.79h1.2348v2.7155a4.8957,4.8957,0,0,1,1.758-2.3137,4.6337,4.6337,0,0,1,2.7155-.8637,5.1879,5.1879,0,0,1,4.2267,1.913,7.7881,7.7881,0,0,1,1.605,5.1209,7.4631,7.4631,0,0,1-1.5428,4.9364,5.2615,5.2615,0,0,1-6.8494,1.0187,5.0762,5.0762,0,0,1-1.913-2.19V145.87Zm9.0713-7.25a7.1865,7.1865,0,0,0,1.2338-4.3816,6.9123,6.9123,0,0,0-1.2338-4.3195,3.8194,3.8194,0,0,0-3.24-1.6346,3.94,3.94,0,0,0-3.24,1.758,6.5862,6.5862,0,0,0-1.3573,4.1961,6.7624,6.7624,0,0,0,1.3573,4.2583,3.9432,3.9432,0,0,0,3.24,1.7579A3.8167,3.8167,0,0,0,166.42,138.62Z"/><path d="M172.3437,140.3169a3.1907,3.1907,0,0,1-.0305-5.2453,5.89,5.89,0,0,1,3.3324-1.2961,13.74,13.74,0,0,0,3.1774-.6169q1.2654-.4319,1.2654-1.0177v-1.1726a2.0413,2.0413,0,0,0-1.1115-1.7274,5.2442,5.2442,0,0,0-5.2137-.0316,2.0181,2.0181,0,0,0-1.0493,1.6662v.6791h-1.1727v-.8025A2.6787,2.6787,0,0,1,172.93,128.5a6.0748,6.0748,0,0,1,3.3935-.9248,6.5149,6.5149,0,0,1,3.4864.8943,2.5567,2.5567,0,0,1,1.45,2.16v7.96a2.4965,2.4965,0,0,0,.34,1.3277.9773.9773,0,0,0,.8331.5547,1.1226,1.1226,0,0,0,.2774-.0306.3891.3891,0,0,0,.1856-.0928v.5864a2.7867,2.7867,0,0,1-1.1727.2161,1.5748,1.5748,0,0,1-1.2338-.6169,2.297,2.297,0,0,1-.4936-1.4816,3.1279,3.1279,0,0,1-1.5734,1.6967,5.7639,5.7639,0,0,1-2.7766.6486A5.1423,5.1423,0,0,1,172.3437,140.3169Zm6.2019-.9259a4.3211,4.3211,0,0,0,1.5428-2.6838v-3.0234a3.7523,3.7523,0,0,1-1.5744.6169,21.7366,21.7366,0,0,1-2.8684.4007,4.1267,4.1267,0,0,0-2.4382.9871,2.5127,2.5127,0,0,0-.987,1.9752,2.4294,2.4294,0,0,0,1.0176,1.9741,3.6048,3.6048,0,0,0,2.4076.8331A4.3384,4.3384,0,0,0,178.5456,139.391Z"/><path d="M185.2705,140.9339V127.79h1.2349v2.9623a5.5887,5.5887,0,0,1,1.5428-2.3137,3.44,3.44,0,0,1,2.2209-.8637h.71v1.4184a.4985.4985,0,0,1-.2162-.0612.3231.3231,0,0,0-.1234-.0622,3.55,3.55,0,0,0-2.6227,1.2349,5.929,5.929,0,0,0-1.5112,3.1162v7.7131Z"/><path d="M193.4465,140.3169a3.1907,3.1907,0,0,1-.03-5.2453,5.89,5.89,0,0,1,3.3324-1.2961,13.74,13.74,0,0,0,3.1774-.6169q1.2654-.4319,1.2654-1.0177v-1.1726a2.0413,2.0413,0,0,0-1.1115-1.7274,5.2442,5.2442,0,0,0-5.2137-.0316,2.0181,2.0181,0,0,0-1.0493,1.6662v.6791H192.644v-.8025a2.6787,2.6787,0,0,1,1.3889-2.2526,6.0748,6.0748,0,0,1,3.3935-.9248,6.5149,6.5149,0,0,1,3.4864.8943,2.5569,2.5569,0,0,1,1.45,2.16v7.96a2.4965,2.4965,0,0,0,.34,1.3277.9773.9773,0,0,0,.8331.5547,1.1226,1.1226,0,0,0,.2774-.0306.3891.3891,0,0,0,.1856-.0928v.5864a2.7867,2.7867,0,0,1-1.1727.2161,1.5748,1.5748,0,0,1-1.2338-.6169,2.297,2.297,0,0,1-.4936-1.4816,3.1279,3.1279,0,0,1-1.5734,1.6967,5.7639,5.7639,0,0,1-2.7766.6486A5.1423,5.1423,0,0,1,193.4465,140.3169Zm6.2019-.9259a4.3211,4.3211,0,0,0,1.5428-2.6838v-3.0234a3.7523,3.7523,0,0,1-1.5744.6169,21.7366,21.7366,0,0,1-2.8684.4007,4.1267,4.1267,0,0,0-2.4382.9871,2.5127,2.5127,0,0,0-.987,1.9752,2.4294,2.4294,0,0,0,1.0176,1.9741,3.6048,3.6048,0,0,0,2.4076.8331A4.3384,4.3384,0,0,0,199.6484,139.391Z"/><path d="M206.3733,140.9339V122.6383h1.2349v18.2956Z"/><path d="M211.5565,140.9339V122.6383h1.2349v18.2956Z"/><path d="M217.5422,139.4838a8.9782,8.9782,0,0,1,0-10.2429,5.2771,5.2771,0,0,1,4.2583-1.913,5.4833,5.4833,0,0,1,4.2572,1.758,6.6919,6.6919,0,0,1,1.604,4.69v.5863h-10.49a6.7337,6.7337,0,0,0,1.2655,4.2889,4.0662,4.0662,0,0,0,3.363,1.604,5.0445,5.0445,0,0,0,2.8378-.8331,4.45,4.45,0,0,0,1.79-2.2515h1.2338a4.6042,4.6042,0,0,1-1.9741,3.0235,6.4615,6.4615,0,0,1-3.8871,1.2032A5.2771,5.2771,0,0,1,217.5422,139.4838Zm8.8857-6.2946v-.4619a4.6831,4.6831,0,0,0-1.4806-3.0857,4.538,4.538,0,0,0-3.1468-1.2338,4.369,4.369,0,0,0-3.1162,1.2644,4.7884,4.7884,0,0,0-1.5123,3.1785v.3385Z"/><path d="M230.5618,140.9339V122.6383h1.2349v18.2956Z"/><path d="M235.7449,140.9339V122.6383H236.98v11.97l7.0339-6.8188h1.5429l-5.06,4.8141,5.6461,8.33h-1.2961l-5.1525-7.4969-2.7145,2.591v4.9059Z"/><path d="M248.3944,140.9339V122.6383h1.2349v18.2956Z"/><path d="M253.8865,140.3169a3.1907,3.1907,0,0,1-.0306-5.2453,5.8906,5.8906,0,0,1,3.3325-1.2961,13.7388,13.7388,0,0,0,3.1773-.6169q1.2656-.4319,1.2655-1.0177v-1.1726a2.0413,2.0413,0,0,0-1.1115-1.7274,5.2442,5.2442,0,0,0-5.2137-.0316,2.0181,2.0181,0,0,0-1.0493,1.6662v.6791H253.084v-.8025a2.6787,2.6787,0,0,1,1.3889-2.2526,6.0745,6.0745,0,0,1,3.3935-.9248,6.5149,6.5149,0,0,1,3.4864.8943,2.5569,2.5569,0,0,1,1.45,2.16v7.96a2.4965,2.4965,0,0,0,.34,1.3277.9773.9773,0,0,0,.8331.5547,1.1212,1.1212,0,0,0,.2773-.0306.3882.3882,0,0,0,.1856-.0928v.5864a2.7859,2.7859,0,0,1-1.1726.2161,1.5752,1.5752,0,0,1-1.2339-.6169,2.2975,2.2975,0,0,1-.4935-1.4816,3.1282,3.1282,0,0,1-1.5734,1.6967,5.7639,5.7639,0,0,1-2.7766.6486A5.1423,5.1423,0,0,1,253.8865,140.3169Zm6.2019-.9259a4.3211,4.3211,0,0,0,1.5428-2.6838v-3.0234a3.7529,3.7529,0,0,1-1.5744.6169,21.7366,21.7366,0,0,1-2.8684.4007,4.1267,4.1267,0,0,0-2.4382.9871,2.5128,2.5128,0,0,0-.9871,1.9752,2.43,2.43,0,0,0,1.0177,1.9741,3.6048,3.6048,0,0,0,2.4076.8331A4.3386,4.3386,0,0,0,260.0884,139.391Z"/><path d="M267.2151,140.04a3.7687,3.7687,0,0,1-1.4817-2.9929h1.1421a2.8938,2.8938,0,0,0,1.1411,2.2832,4.2238,4.2238,0,0,0,2.746.9248,4.9555,4.9555,0,0,0,2.9929-.8331,2.72,2.72,0,0,0,1.1115-2.2515,2.1211,2.1211,0,0,0-1.1727-1.79,7.4153,7.4153,0,0,0-3.1468-.8953,6.0664,6.0664,0,0,1-3.3324-1.1727,2.9853,2.9853,0,0,1-1.2655-2.437,2.9183,2.9183,0,0,1,1.2655-2.53,6.0743,6.0743,0,0,1,3.5475-.8943,5.7415,5.7415,0,0,1,3.4864.9565,3,3,0,0,1,1.3267,2.56H274.404a2.833,2.833,0,0,0-1.1726-1.8824,4.1708,4.1708,0,0,0-2.4688-.6781,4.6108,4.6108,0,0,0-2.6532.6781,2.0808,2.0808,0,0,0-.9871,1.79,2.1159,2.1159,0,0,0,1.2033,1.79,7.41,7.41,0,0,0,3.1468.8954,5.9145,5.9145,0,0,1,3.3324,1.2338,3.4243,3.4243,0,0,1-.2162,5.43,6.2988,6.2988,0,0,1-3.826,1.0493A5.2862,5.2862,0,0,1,267.2151,140.04Z"/><path d="M279.31,140.04a3.7687,3.7687,0,0,1-1.4817-2.9929H278.97a2.894,2.894,0,0,0,1.141,2.2832,4.2241,4.2241,0,0,0,2.7461.9248,4.9552,4.9552,0,0,0,2.9928-.8331,2.72,2.72,0,0,0,1.1115-2.2515,2.1212,2.1212,0,0,0-1.1726-1.79,7.4153,7.4153,0,0,0-3.1468-.8953,6.0661,6.0661,0,0,1-3.3324-1.1727,2.9851,2.9851,0,0,1-1.2655-2.437,2.9181,2.9181,0,0,1,1.2655-2.53,6.0741,6.0741,0,0,1,3.5475-.8943,5.7415,5.7415,0,0,1,3.4864.9565,3,3,0,0,1,1.3266,2.56h-1.1716a2.8331,2.8331,0,0,0-1.1727-1.8824,4.17,4.17,0,0,0-2.4687-.6781,4.6111,4.6111,0,0,0-2.6533.6781,2.081,2.081,0,0,0-.987,1.79,2.1159,2.1159,0,0,0,1.2032,1.79,7.41,7.41,0,0,0,3.1468.8954,5.9142,5.9142,0,0,1,3.3324,1.2338,3.4242,3.4242,0,0,1-.2162,5.43,6.2985,6.2985,0,0,1-3.8259,1.0493A5.2858,5.2858,0,0,1,279.31,140.04Z"/><path d="M291.8053,139.4838a8.9782,8.9782,0,0,1,0-10.2429,5.2774,5.2774,0,0,1,4.2583-1.913,5.4835,5.4835,0,0,1,4.2573,1.758,6.6924,6.6924,0,0,1,1.604,4.69v.5863h-10.49a6.7337,6.7337,0,0,0,1.2655,4.2889,4.0658,4.0658,0,0,0,3.3629,1.604,5.0448,5.0448,0,0,0,2.8379-.8331,4.451,4.451,0,0,0,1.79-2.2515h1.2338a4.6046,4.6046,0,0,1-1.9741,3.0235,6.4618,6.4618,0,0,1-3.8872,1.2032A5.2774,5.2774,0,0,1,291.8053,139.4838Zm8.8858-6.2946v-.4619a4.6831,4.6831,0,0,0-1.4806-3.0857,4.5381,4.5381,0,0,0-3.1469-1.2338,4.3692,4.3692,0,0,0-3.1162,1.2644,4.7888,4.7888,0,0,0-1.5122,3.1785v.3385Z"/><path d="M304.8249,140.9339V127.79H306.06v2.222a4.21,4.21,0,0,1,1.6968-1.8508,4.9083,4.9083,0,0,1,5.8307.5547,4.08,4.08,0,0,1,1.3888,3.0857v9.1325h-1.2338v-9.1325a3.0569,3.0569,0,0,0-1.0187-2.3137,3.4326,3.4326,0,0,0-2.4371-.9565,4.0657,4.0657,0,0,0-2.7461,1.0482,4.549,4.549,0,0,0-1.4806,2.6849v8.67Z"/><path d="M318.7093,139.0515h1.79v1.8824h-1.79Z"/><path d="M35.5125,170.7378V152.4423h1.2349v7.99H47.7928v-7.99h1.2339v18.2955H47.7928v-9.1325H36.7474v9.1325Z"/><path d="M56.3074,170.7378l-4.9059-13.144h1.1421l4.4735,11.7246,4.2266-11.7246h1.1727l-4.813,13.144Z"/><path d="M65.1,170.1209a3.1907,3.1907,0,0,1-.0306-5.2454,5.89,5.89,0,0,1,3.3324-1.296,13.74,13.74,0,0,0,3.1774-.6169q1.2654-.4318,1.2655-1.0177v-1.1727a2.0413,2.0413,0,0,0-1.1115-1.7273,5.244,5.244,0,0,0-5.2138-.0317,2.0182,2.0182,0,0,0-1.0493,1.6662v.6792H64.2978v-.8026a2.6785,2.6785,0,0,1,1.3888-2.2525,6.0749,6.0749,0,0,1,3.3936-.9248,6.5161,6.5161,0,0,1,3.4864.8942,2.5571,2.5571,0,0,1,1.45,2.16v7.96a2.4964,2.4964,0,0,0,.34,1.3277.9776.9776,0,0,0,.8331.5547,1.1226,1.1226,0,0,0,.2774-.0306.3882.3882,0,0,0,.1856-.0928v.5863a2.7866,2.7866,0,0,1-1.1727.2162,1.575,1.575,0,0,1-1.2338-.6169,2.2976,2.2976,0,0,1-.4935-1.4817,3.1284,3.1284,0,0,1-1.5734,1.6968,5.7646,5.7646,0,0,1-2.7767.6486A5.142,5.142,0,0,1,65.1,170.1209Zm6.2018-.9259a4.3214,4.3214,0,0,0,1.5429-2.6839v-3.0234a3.7521,3.7521,0,0,1-1.5745.6169,21.7173,21.7173,0,0,1-2.8684.4008,4.1263,4.1263,0,0,0-2.4381.987,2.5126,2.5126,0,0,0-.9871,1.9752,2.43,2.43,0,0,0,1.0176,1.9742,3.6055,3.6055,0,0,0,2.4076.8331A4.3382,4.3382,0,0,0,71.3021,169.195Z"/><path d="M78.83,169.041a7.2922,7.2922,0,0,1-1.6968-4.8752,7.5766,7.5766,0,0,1,1.6968-4.967,5.1123,5.1123,0,0,1,4.0727-2.0669,4.7083,4.7083,0,0,1,2.7767.8943,5.2432,5.2432,0,0,1,1.79,2.4065v-7.99h1.2339v18.2955H87.4685V168.054a4.3593,4.3593,0,0,1-1.759,2.19,4.8963,4.8963,0,0,1-2.8072.8331A5.14,5.14,0,0,1,78.83,169.041Zm7.3123-.6485a6.8178,6.8178,0,0,0,1.3266-4.2267,6.6924,6.6924,0,0,0-1.3266-4.1961,3.9967,3.9967,0,0,0-3.24-1.7579,3.9176,3.9176,0,0,0-3.209,1.7579,6.6858,6.6858,0,0,0-1.3267,4.1961,6.811,6.811,0,0,0,1.3267,4.2267,3.9189,3.9189,0,0,0,3.209,1.759A3.9979,3.9979,0,0,0,86.1419,168.3925Z"/><path d="M103.3892,174.1936a3.713,3.713,0,0,1-1.6662-3.0234h1.1727a2.7872,2.7872,0,0,0,1.295,2.2831,5.4173,5.4173,0,0,0,3.1784.9249,4.6692,4.6692,0,0,0,3.24-1.08,3.66,3.66,0,0,0,1.2339-2.9v-2.6839a4.5323,4.5323,0,0,1-1.79,2.0364,4.913,4.913,0,0,1-2.6533.7708,5.1418,5.1418,0,0,1-4.1339-1.82,8.3381,8.3381,0,0,1,0-9.7494,5.1418,5.1418,0,0,1,4.1339-1.82,4.9313,4.9313,0,0,1,2.7461.8015,4.3177,4.3177,0,0,1,1.6968,2.1291v-2.4687h1.2338v12.835a4.5748,4.5748,0,0,1-1.5112,3.672,6.0809,6.0809,0,0,1-4.1961,1.3267A6.4136,6.4136,0,0,1,103.3892,174.1936Zm7.1573-6.2947a7.0468,7.0468,0,0,0,0-8.1454,3.958,3.958,0,0,0-6.3864-.0917,7.6467,7.6467,0,0,0,0,8.33,3.9571,3.9571,0,0,0,6.3864-.0928Z"/><path d="M119.1549,170.1209l-1.2644,2.0975h-1.1727l1.604-2.6532a5.7453,5.7453,0,0,1-1.5428-2.2832,8.48,8.48,0,0,1-.5547-3.1162,7.5043,7.5043,0,0,1,1.6968-5.1209,5.6293,5.6293,0,0,1,4.4734-1.913,5.9759,5.9759,0,0,1,2.9623.74l1.4806-2.4382H128.01l-1.82,3.0245a6.1059,6.1059,0,0,1,1.7273,2.4371,8.423,8.423,0,0,1,.617,3.27,7.0955,7.0955,0,0,1-1.6662,4.9364,5.7759,5.7759,0,0,1-4.4735,1.8518A6.3942,6.3942,0,0,1,119.1549,170.1209Zm3.24-11.9091a4.37,4.37,0,0,0-3.5792,1.6345,6.4722,6.4722,0,0,0-1.3572,4.3195,8.0571,8.0571,0,0,0,.37,2.4993,5.1555,5.1555,0,0,0,1.11,1.8508l5.8623-9.6872A4.5516,4.5516,0,0,0,122.3945,158.2118Zm3.5792,10.15a6.2994,6.2994,0,0,0,1.3266-4.1961,8.0766,8.0766,0,0,0-.4323-2.6838,5.6165,5.6165,0,0,0-1.2645-2.0364l-5.8623,9.7188a4.7165,4.7165,0,0,0,2.6533.7709A4.4941,4.4941,0,0,0,125.9737,168.3619Z"/><path d="M131.65,170.7378v-13.144h1.2349v2.9622a5.5884,5.5884,0,0,1,1.5428-2.3137,3.4406,3.4406,0,0,1,2.2209-.8636h.71v1.4183a.4986.4986,0,0,1-.2162-.0611.32.32,0,0,0-.1234-.0622,3.55,3.55,0,0,0-2.6226,1.2348,5.9279,5.9279,0,0,0-1.5112,3.1163v7.713Z"/><path d="M150.1927,169.041a7.2927,7.2927,0,0,1-1.6968-4.8752,7.5772,7.5772,0,0,1,1.6968-4.967,5.1124,5.1124,0,0,1,4.0727-2.0669,4.7083,4.7083,0,0,1,2.7767.8943,5.244,5.244,0,0,1,1.79,2.4065v-7.99h1.2338v18.2955h-1.2338V168.054a4.36,4.36,0,0,1-1.759,2.19,4.8969,4.8969,0,0,1-2.8073.8331A5.14,5.14,0,0,1,150.1927,169.041Zm7.3123-.6485a6.8179,6.8179,0,0,0,1.3267-4.2267,6.6925,6.6925,0,0,0-1.3267-4.1961,3.9967,3.9967,0,0,0-3.24-1.7579,3.9178,3.9178,0,0,0-3.209,1.7579,6.6858,6.6858,0,0,0-1.3266,4.1961,6.8109,6.8109,0,0,0,1.3266,4.2267,3.919,3.919,0,0,0,3.209,1.759A3.9979,3.9979,0,0,0,157.505,168.3925Z"/><path d="M165.1569,169.8741a3.7764,3.7764,0,0,1-1.3266-2.9v-9.38h1.2338v9.38a2.9453,2.9453,0,0,0,.9565,2.19,3.2633,3.2633,0,0,0,2.3137.8943,4.0054,4.0054,0,0,0,2.8695-1.2338,5.6247,5.6247,0,0,0,1.605-3.1163v-8.1148h1.2338v13.144h-1.2338v-2.3137a4.3973,4.3973,0,0,1-1.79,1.9436,5.1926,5.1926,0,0,1-2.6849.71A4.5684,4.5684,0,0,1,165.1569,169.8741Z"/><path d="M182.6816,164.8755a4.4551,4.4551,0,0,1,.8015-2.4371,7.954,7.954,0,0,1,2.2219-2.2525,3.9854,3.9854,0,0,0,1.2338-1.4806,4.7572,4.7572,0,0,0,.4324-2.0364,3.43,3.43,0,0,0-1.2032-2.6532,4.1235,4.1235,0,0,0-2.9011-1.1115,4.0082,4.0082,0,0,0-2.9,1.1726,3.8225,3.8225,0,0,0-1.2032,2.8389v.6781h-1.1727v-.6781a4.6575,4.6575,0,0,1,1.5122-3.4864,5.0689,5.0689,0,0,1,3.64-1.45,5.81,5.81,0,0,1,3.8259,1.3266,4.1446,4.1446,0,0,1,1.5734,3.24,6.3243,6.3243,0,0,1-.6475,2.8694,4.6427,4.6427,0,0,1-1.82,1.9436,4.3872,4.3872,0,0,0-1.6357,1.6662,4.8332,4.8332,0,0,0-.5863,2.3443v.4629h-1.1716Zm0,3.98H184.1v1.8824h-1.4184Z"/></g></svg>
