<svg xmlns="http://www.w3.org/2000/svg" width="426" height="302" viewBox="0 0 426 302"><defs><style>.cls-1{fill:#e6e6e6;}</style></defs><title>bobbel1</title><g id="Spørgsmål"><path class="cls-1" d="M353.24,24H58.76A42.76,42.76,0,0,0,16,66.76V197.24A42.76,42.76,0,0,0,58.76,240H295.525L287,302l59.675-62H353.24A42.76,42.76,0,0,0,396,197.24V66.76A42.76,42.76,0,0,0,353.24,24Z"/><path d="M42.3057,85.3623V64h1.4414v9.33H56.6436V64h1.44V85.3623h-1.44V74.6992H43.7471V85.3623Z"/><path d="M66.5859,85.3623,60.8584,70.0156H62.19l5.2237,13.6895L72.35,70.0156h1.3692l-5.62,15.3467Z"/><path d="M77.501,83.4531A8.1962,8.1962,0,0,1,75.52,77.69a8.7646,8.7646,0,0,1,1.9815-5.98,6.5763,6.5763,0,0,1,5.2236-2.2334,6.645,6.645,0,0,1,5.2236,2.2334,8.87,8.87,0,0,1,1.9454,5.98,8.2916,8.2916,0,0,1-1.9454,5.7636,6.752,6.752,0,0,1-5.2236,2.1612A6.6814,6.6814,0,0,1,77.501,83.4531Zm9.4023-.8642A7.355,7.355,0,0,0,88.4521,77.69a7.6752,7.6752,0,0,0-1.5488-5.044,5.1671,5.1671,0,0,0-4.1787-1.9092,5.0991,5.0991,0,0,0-4.1787,1.9092A7.5507,7.5507,0,0,0,76.96,77.69a7.2382,7.2382,0,0,0,1.5859,4.8994,5.1818,5.1818,0,0,0,4.1787,1.8369A5.2518,5.2518,0,0,0,86.9033,82.5889Z"/><path d="M93.5312,85.3623V70.0156h1.4415v3.458a6.5217,6.5217,0,0,1,1.8007-2.7011,4.0221,4.0221,0,0,1,2.5938-1.0088h.8281v1.6572a.57.57,0,0,1-.2519-.0723.3815.3815,0,0,0-.1436-.0722,4.1411,4.1411,0,0,0-3.0625,1.4414,6.9219,6.9219,0,0,0-1.7646,3.6386v9.0059Z"/><path d="M103.6533,83.3809a8.5113,8.5113,0,0,1-1.9814-5.6914,8.8482,8.8482,0,0,1,1.9814-5.8008,5.9694,5.9694,0,0,1,4.7549-2.4131,5.4993,5.4993,0,0,1,3.2432,1.0449,6.1194,6.1194,0,0,1,2.0888,2.81V64h1.4414V85.3623H113.74V82.2285a5.0883,5.0883,0,0,1-2.0537,2.5576,5.7217,5.7217,0,0,1-3.2783.9727A6,6,0,0,1,103.6533,83.3809Zm8.5381-.7569A7.9589,7.9589,0,0,0,113.74,77.69a7.8079,7.8079,0,0,0-1.5488-4.8995,4.6715,4.6715,0,0,0-3.7832-2.0537,4.5742,4.5742,0,0,0-3.7461,2.0537,7.8019,7.8019,0,0,0-1.5488,4.8995,7.9527,7.9527,0,0,0,1.5488,4.9345,4.574,4.574,0,0,0,3.7461,2.0537A4.6712,4.6712,0,0,0,112.1914,82.624Z"/><path d="M120.1523,84.6416a3.726,3.726,0,0,1-.0361-6.124,6.8764,6.8764,0,0,1,3.8906-1.5127,16.0938,16.0938,0,0,0,3.711-.7207q1.4765-.504,1.4765-1.1885V73.7266a2.385,2.385,0,0,0-1.2968-2.0176,6.1182,6.1182,0,0,0-6.0879-.0361,2.3536,2.3536,0,0,0-1.2256,1.9453v.7929h-1.3682v-.9375a3.1226,3.1226,0,0,1,1.6211-2.6289,7.089,7.089,0,0,1,3.9629-1.081,7.6028,7.6028,0,0,1,4.07,1.0449,2.9847,2.9847,0,0,1,1.6934,2.5215V82.624a2.9119,2.9119,0,0,0,.3965,1.55,1.141,1.141,0,0,0,.9726.6485,1.328,1.328,0,0,0,.3242-.0362.4487.4487,0,0,0,.2159-.1084v.6846a3.2443,3.2443,0,0,1-1.3692.252,1.84,1.84,0,0,1-1.44-.7207,2.6756,2.6756,0,0,1-.5772-1.7286,3.6578,3.6578,0,0,1-1.8369,1.9815,6.738,6.738,0,0,1-3.2422.7558A5.9974,5.9974,0,0,1,120.1523,84.6416Zm7.2413-1.08a5.04,5.04,0,0,0,1.8007-3.1347v-3.53a4.382,4.382,0,0,1-1.8369.7207,25.3059,25.3059,0,0,1-3.3506.4678,4.8227,4.8227,0,0,0-2.8457,1.1533,2.93,2.93,0,0,0-1.1533,2.3056,2.8358,2.8358,0,0,0,1.1895,2.3057,4.2083,4.2083,0,0,0,2.81.9727A5.0681,5.0681,0,0,0,127.3936,83.5615Z"/><path d="M135.2461,85.3623V70.0156h1.4414v2.5938a4.9157,4.9157,0,0,1,1.9805-2.1612,5.73,5.73,0,0,1,6.8095.6485,4.7662,4.7662,0,0,1,1.6211,3.6025V85.3623h-1.4414V74.6992a3.5751,3.5751,0,0,0-1.1884-2.7021,4.0161,4.0161,0,0,0-2.8467-1.1172,4.7421,4.7421,0,0,0-3.2061,1.2256,5.3129,5.3129,0,0,0-1.7285,3.1338v10.123Z"/><path d="M163.957,84.93a3.3525,3.3525,0,0,1-.8291-2.3057V71.1328h-2.1972V70.0156h2.1972V65.6562h1.4414v4.3594h2.09v1.1172h-2.09V82.624a2.5756,2.5756,0,0,0,.4688,1.55,1.2711,1.2711,0,0,0,1.08.6485,2.19,2.19,0,0,0,1.1172-.253v1.045a3.908,3.908,0,0,1-1.2247.288A2.6614,2.6614,0,0,1,163.957,84.93Z"/><path d="M169.793,85.3623V70.0156h1.4414v3.458a6.521,6.521,0,0,1,1.8008-2.7011,4.0219,4.0219,0,0,1,2.5937-1.0088h.8281v1.6572a.57.57,0,0,1-.2519-.0723.3808.3808,0,0,0-.1436-.0722,4.1411,4.1411,0,0,0-3.0625,1.4414,6.9219,6.9219,0,0,0-1.7646,3.6386v9.0059Z"/><path d="M179.9873,83.4531a8.1962,8.1962,0,0,1-1.9814-5.7636,8.7645,8.7645,0,0,1,1.9814-5.98,6.5763,6.5763,0,0,1,5.2236-2.2334,6.6452,6.6452,0,0,1,5.2237,2.2334,8.8709,8.8709,0,0,1,1.9453,5.98,8.2921,8.2921,0,0,1-1.9453,5.7636,6.7522,6.7522,0,0,1-5.2237,2.1612A6.6814,6.6814,0,0,1,179.9873,83.4531Zm9.4023-.8642a7.3545,7.3545,0,0,0,1.5489-4.8994,7.6747,7.6747,0,0,0-1.5489-5.044,5.167,5.167,0,0,0-4.1787-1.9092,5.0992,5.0992,0,0,0-4.1787,1.9092,7.5507,7.5507,0,0,0-1.5859,5.044,7.2382,7.2382,0,0,0,1.5859,4.8994,5.1819,5.1819,0,0,0,4.1787,1.8369A5.2517,5.2517,0,0,0,189.39,82.5889Z"/><path d="M196.0176,85.3623V70.0156h1.4414v3.458a6.521,6.521,0,0,1,1.8008-2.7011,4.0219,4.0219,0,0,1,2.5937-1.0088h.8281v1.6572a.57.57,0,0,1-.2519-.0723.3808.3808,0,0,0-.1436-.0722,4.1411,4.1411,0,0,0-3.0625,1.4414,6.9226,6.9226,0,0,0-1.7646,3.6386v9.0059Z"/><path d="M217.667,83.3809a8.5114,8.5114,0,0,1-1.9815-5.6914,8.8483,8.8483,0,0,1,1.9815-5.8008,5.9694,5.9694,0,0,1,4.7549-2.4131,5.499,5.499,0,0,1,3.2431,1.0449,6.1189,6.1189,0,0,1,2.0889,2.81V64h1.4414V85.3623h-1.4414V82.2285A5.0893,5.0893,0,0,1,225.7,84.7861a5.7217,5.7217,0,0,1-3.2783.9727A6,6,0,0,1,217.667,83.3809Zm8.5381-.7569a7.9589,7.9589,0,0,0,1.5488-4.9345,7.8079,7.8079,0,0,0-1.5488-4.8995,4.6715,4.6715,0,0,0-3.7832-2.0537,4.5741,4.5741,0,0,0-3.7461,2.0537A7.8019,7.8019,0,0,0,217.127,77.69a7.9527,7.9527,0,0,0,1.5488,4.9345,4.5738,4.5738,0,0,0,3.7461,2.0537A4.6712,4.6712,0,0,0,226.2051,82.624Z"/><path d="M235.1387,84.3535a4.4093,4.4093,0,0,1-1.5489-3.3867V70.0156H235.03V80.9668a3.441,3.441,0,0,0,1.1172,2.5586,3.81,3.81,0,0,0,2.7011,1.0439,4.6741,4.6741,0,0,0,3.3506-1.44,6.5639,6.5639,0,0,0,1.8731-3.6387V70.0156h1.4414V85.3623h-1.4414V82.66a5.1285,5.1285,0,0,1-2.0889,2.2695,6.0516,6.0516,0,0,1-3.1348.8291A5.3322,5.3322,0,0,1,235.1387,84.3535Z"/><path d="M262.0127,84.6416a3.726,3.726,0,0,1-.0361-6.124,6.8764,6.8764,0,0,1,3.8906-1.5127,16.0917,16.0917,0,0,0,3.7109-.7207q1.4766-.504,1.4766-1.1885V73.7266a2.3849,2.3849,0,0,0-1.2969-2.0176,6.1182,6.1182,0,0,0-6.0879-.0361,2.3536,2.3536,0,0,0-1.2256,1.9453v.7929h-1.3681v-.9375a3.1224,3.1224,0,0,1,1.6211-2.6289,7.089,7.089,0,0,1,3.9629-1.081,7.603,7.603,0,0,1,4.07,1.0449,2.9845,2.9845,0,0,1,1.6933,2.5215V82.624a2.9128,2.9128,0,0,0,.3965,1.55,1.1412,1.1412,0,0,0,.9727.6485,1.3292,1.3292,0,0,0,.3242-.0362.4478.4478,0,0,0,.2158-.1084v.6846a3.2435,3.2435,0,0,1-1.3691.252,1.84,1.84,0,0,1-1.4405-.7207,2.6761,2.6761,0,0,1-.5771-1.7286,3.6582,3.6582,0,0,1-1.8369,1.9815,6.738,6.738,0,0,1-3.2422.7558A5.9972,5.9972,0,0,1,262.0127,84.6416Zm7.2412-1.08a5.04,5.04,0,0,0,1.8008-3.1347v-3.53a4.382,4.382,0,0,1-1.8369.7207,25.3059,25.3059,0,0,1-3.3506.4678,4.8225,4.8225,0,0,0-2.8457,1.1533,2.93,2.93,0,0,0-1.1533,2.3056,2.8357,2.8357,0,0,0,1.1894,2.3057,4.2088,4.2088,0,0,0,2.81.9727A5.0678,5.0678,0,0,0,269.2539,83.5615Z"/><path d="M278.0791,84.93a3.3525,3.3525,0,0,1-.8291-2.3057V71.1328h-2.1973V70.0156H277.25V65.6562h1.4414v4.3594h2.09v1.1172h-2.09V82.624a2.5756,2.5756,0,0,0,.4688,1.55,1.271,1.271,0,0,0,1.08.6485,2.19,2.19,0,0,0,1.1172-.253v1.045a3.907,3.907,0,0,1-1.2246.288A2.6613,2.6613,0,0,1,278.0791,84.93Z"/><path d="M295.4424,85.3623V64h13.9414v1.4043h-12.5v8.2139h11.4189v1.333H296.8838v9.042h12.5v1.3691Z"/><path d="M312.085,85.3623V70.0156h1.4414v2.5938a5.216,5.216,0,0,1,1.8369-2.1612,4.3837,4.3837,0,0,1,2.5576-.8291,4.8024,4.8024,0,0,1,2.8457.8653,3.9912,3.9912,0,0,1,1.6211,2.27,5.2112,5.2112,0,0,1,2.0537-2.27,5.7261,5.7261,0,0,1,3.0625-.8653,4.9468,4.9468,0,0,1,3.53,1.4053,4.56,4.56,0,0,1,1.44,3.3867V85.3623h-1.44V74.4111a3.599,3.599,0,0,0-1.0449-2.5937,3.266,3.266,0,0,0-2.4854-1.0811,4.4216,4.4216,0,0,0-3.0264,1.1885,5.1255,5.1255,0,0,0-1.6572,3.0264V85.3623h-1.4414V74.4111a3.7415,3.7415,0,0,0-.9727-2.5937,3.04,3.04,0,0,0-2.3408-1.0811,4.0829,4.0829,0,0,0-2.9179,1.2608,6.1135,6.1135,0,0,0-1.6211,3.2422v10.123Z"/><path d="M336.87,64h1.4414v2.1973H336.87Zm0,21.3623V70.0156h1.4414V85.3623Z"/><path d="M342.9219,85.3623V64h1.4414V85.3623Z"/><path d="M42.3057,120.1621V104.8154h1.4414v3.458a6.521,6.521,0,0,1,1.8008-2.7011,4.0219,4.0219,0,0,1,2.5937-1.0088H48.97v1.6572a.57.57,0,0,1-.2519-.0723.3808.3808,0,0,0-.1436-.0722,4.1411,4.1411,0,0,0-3.0625,1.4414,6.9219,6.9219,0,0,0-1.7646,3.6386v9.0059Z"/><path d="M52.4277,118.4688a10.4828,10.4828,0,0,1,0-11.96,6.1616,6.1616,0,0,1,4.9717-2.2334,6.4084,6.4084,0,0,1,4.9717,2.0527,7.8176,7.8176,0,0,1,1.873,5.4766v.6846H51.9951a7.8584,7.8584,0,0,0,1.4776,5.0068,4.7477,4.7477,0,0,0,3.9267,1.873,5.8969,5.8969,0,0,0,3.3145-.9726,5.1925,5.1925,0,0,0,2.0888-2.63h1.4414a5.375,5.375,0,0,1-2.3056,3.5313,7.55,7.55,0,0,1-4.5391,1.4042A6.1618,6.1618,0,0,1,52.4277,118.4688Zm10.375-7.3487v-.541a5.4653,5.4653,0,0,0-1.7285-3.6025,5.3013,5.3013,0,0,0-3.6748-1.44,5.1011,5.1011,0,0,0-3.6387,1.4766,5.5954,5.5954,0,0,0-1.7656,3.7109v.3965Z"/><path d="M67.99,119.4414a3.726,3.726,0,0,1-.0361-6.124,6.8764,6.8764,0,0,1,3.8906-1.5127,16.0938,16.0938,0,0,0,3.711-.7207q1.4764-.504,1.4765-1.1885v-1.3691a2.385,2.385,0,0,0-1.2968-2.0176,6.1182,6.1182,0,0,0-6.0879-.0361,2.3536,2.3536,0,0,0-1.2256,1.9453v.7929H67.0537v-.9375a3.1226,3.1226,0,0,1,1.6211-2.6289,7.089,7.089,0,0,1,3.9629-1.081,7.6028,7.6028,0,0,1,4.07,1.0449,2.9847,2.9847,0,0,1,1.6934,2.5215v9.2939a2.9119,2.9119,0,0,0,.3965,1.55,1.1409,1.1409,0,0,0,.9726.6485,1.3243,1.3243,0,0,0,.3242-.0362.4478.4478,0,0,0,.2158-.1084v.6846a3.2435,3.2435,0,0,1-1.3691.252,1.84,1.84,0,0,1-1.44-.7207,2.6756,2.6756,0,0,1-.5772-1.7286,3.6582,3.6582,0,0,1-1.8369,1.9815,6.738,6.738,0,0,1-3.2422.7558A5.9974,5.9974,0,0,1,67.99,119.4414Zm7.2412-1.08a5.04,5.04,0,0,0,1.8008-3.1347v-3.53a4.382,4.382,0,0,1-1.8369.7207,25.3059,25.3059,0,0,1-3.3506.4678,4.8227,4.8227,0,0,0-2.8457,1.1533,2.93,2.93,0,0,0-1.1533,2.3057,2.8358,2.8358,0,0,0,1.19,2.3056,4.2078,4.2078,0,0,0,2.81.9727A5.0676,5.0676,0,0,0,75.2314,118.3613Z"/><path d="M84.0928,124.1973a4.3383,4.3383,0,0,1-1.9453-3.5313h1.3691a3.2517,3.2517,0,0,0,1.5127,2.666,6.3186,6.3186,0,0,0,3.7109,1.0811,5.4553,5.4553,0,0,0,3.7823-1.2608,4.2767,4.2767,0,0,0,1.4414-3.3867v-3.1338a5.3,5.3,0,0,1-2.09,2.378,5.7422,5.7422,0,0,1-3.0986.9,6.0043,6.0043,0,0,1-4.8272-2.126,9.737,9.737,0,0,1,0-11.3838,6.0062,6.0062,0,0,1,4.8272-2.125,5.7652,5.7652,0,0,1,3.207.9365,5.0428,5.0428,0,0,1,1.9815,2.4854v-2.8819h1.44v14.9864a5.3416,5.3416,0,0,1-1.7647,4.2871,7.1009,7.1009,0,0,1-4.8994,1.5488A7.494,7.494,0,0,1,84.0928,124.1973Zm8.3574-7.35a8.2266,8.2266,0,0,0,0-9.5108,4.62,4.62,0,0,0-7.457-.1074,8.9251,8.9251,0,0,0,0,9.7266,4.6209,4.6209,0,0,0,7.457-.1084Z"/><path d="M100.9521,118.4688a10.4828,10.4828,0,0,1,0-11.96,6.1616,6.1616,0,0,1,4.9717-2.2334,6.4082,6.4082,0,0,1,4.9717,2.0527,7.8172,7.8172,0,0,1,1.8731,5.4766v.6846H100.52a7.8584,7.8584,0,0,0,1.4776,5.0068,4.7477,4.7477,0,0,0,3.9267,1.873,5.8969,5.8969,0,0,0,3.3145-.9726,5.192,5.192,0,0,0,2.0888-2.63h1.4415a5.3755,5.3755,0,0,1-2.3057,3.5313,7.55,7.55,0,0,1-4.5391,1.4042A6.1618,6.1618,0,0,1,100.9521,118.4688Zm10.375-7.3487v-.541a5.4649,5.4649,0,0,0-1.7285-3.6025,5.3013,5.3013,0,0,0-3.6748-1.44,5.1007,5.1007,0,0,0-3.6386,1.4766,5.5951,5.5951,0,0,0-1.7657,3.7109v.3965Z"/><path d="M116.1543,120.1621V104.8154h1.4414v3.458a6.521,6.521,0,0,1,1.8008-2.7011,4.0219,4.0219,0,0,1,2.5937-1.0088h.8282v1.6572a.57.57,0,0,1-.252-.0723.3813.3813,0,0,0-.1435-.0722,4.1411,4.1411,0,0,0-3.0625,1.4414,6.9228,6.9228,0,0,0-1.7647,3.6386v9.0059Z"/><path d="M126.2764,118.4688a10.4823,10.4823,0,0,1,0-11.96,6.1613,6.1613,0,0,1,4.9716-2.2334,6.4082,6.4082,0,0,1,4.9717,2.0527,7.8172,7.8172,0,0,1,1.8731,5.4766v.6846h-12.249a7.8584,7.8584,0,0,0,1.4775,5.0068,4.748,4.748,0,0,0,3.9267,1.873,5.8967,5.8967,0,0,0,3.3145-.9726,5.1927,5.1927,0,0,0,2.0889-2.63h1.4414a5.3755,5.3755,0,0,1-2.3057,3.5313,7.55,7.55,0,0,1-4.5391,1.4042A6.1615,6.1615,0,0,1,126.2764,118.4688Zm10.375-7.3487v-.541a5.4658,5.4658,0,0,0-1.7285-3.6025,5.3017,5.3017,0,0,0-3.6749-1.44,5.1007,5.1007,0,0,0-3.6386,1.4766,5.5954,5.5954,0,0,0-1.7656,3.7109v.3965Z"/><path d="M141.4785,120.1621V104.8154H142.92v3.458a6.521,6.521,0,0,1,1.8008-2.7011,4.0221,4.0221,0,0,1,2.5938-1.0088h.8281v1.6572a.57.57,0,0,1-.252-.0723.3806.3806,0,0,0-.1435-.0722,4.1411,4.1411,0,0,0-3.0625,1.4414,6.9228,6.9228,0,0,0-1.7647,3.6386v9.0059Z"/><path d="M150.8076,123.5488q.3971,0,.6485-.5049a2.431,2.431,0,0,0,.289-1.2246v-1.6572h-1.081v-2.1973h2.09v3.8545a3.1141,3.1141,0,0,1-.4687,1.73,1.4462,1.4462,0,0,1-1.1885.72Z"/><path d="M168.8916,120.1621V104.8154h1.4414v2.5938a4.9157,4.9157,0,0,1,1.9805-2.1612,5.73,5.73,0,0,1,6.8095.6485,4.7662,4.7662,0,0,1,1.6211,3.6025v10.6631h-1.4414V109.499a3.5751,3.5751,0,0,0-1.1884-2.7021,4.0161,4.0161,0,0,0-2.8467-1.1172,4.7421,4.7421,0,0,0-3.2061,1.2256,5.3129,5.3129,0,0,0-1.7285,3.1338v10.123Z"/><path d="M185.4629,119.4414a3.726,3.726,0,0,1-.0361-6.124,6.8764,6.8764,0,0,1,3.8906-1.5127,16.0917,16.0917,0,0,0,3.7109-.7207q1.4766-.504,1.4766-1.1885v-1.3691a2.3849,2.3849,0,0,0-1.2969-2.0176,6.1182,6.1182,0,0,0-6.0879-.0361,2.3536,2.3536,0,0,0-1.2256,1.9453v.7929h-1.3681v-.9375a3.1224,3.1224,0,0,1,1.6211-2.6289,7.089,7.089,0,0,1,3.9629-1.081,7.603,7.603,0,0,1,4.07,1.0449,2.9845,2.9845,0,0,1,1.6933,2.5215v9.2939a2.9128,2.9128,0,0,0,.3965,1.55,1.1412,1.1412,0,0,0,.9727.6485,1.3243,1.3243,0,0,0,.3242-.0362.4478.4478,0,0,0,.2158-.1084v.6846a3.2435,3.2435,0,0,1-1.3691.252,1.84,1.84,0,0,1-1.44-.7207,2.6761,2.6761,0,0,1-.5771-1.7286,3.6582,3.6582,0,0,1-1.8369,1.9815,6.7383,6.7383,0,0,1-3.2422.7558A5.9972,5.9972,0,0,1,185.4629,119.4414Zm7.2412-1.08a5.04,5.04,0,0,0,1.8008-3.1347v-3.53a4.382,4.382,0,0,1-1.8369.7207,25.3084,25.3084,0,0,1-3.3506.4678,4.8225,4.8225,0,0,0-2.8457,1.1533,2.93,2.93,0,0,0-1.1533,2.3057,2.8357,2.8357,0,0,0,1.1894,2.3056,4.2083,4.2083,0,0,0,2.81.9727A5.0678,5.0678,0,0,0,192.7041,118.3613Zm-4.4678-19.2021a2.7064,2.7064,0,0,1,1.9815-.8281,2.8275,2.8275,0,0,1,2.8457,2.8457,2.7035,2.7035,0,0,1-.8281,1.9814,2.7454,2.7454,0,0,1-2.0176.8291,2.8292,2.8292,0,0,1-2.81-2.8105A2.7458,2.7458,0,0,1,188.2363,99.1592Zm.7207,3.2783a1.7658,1.7658,0,0,0,3.0264-1.2607,1.7653,1.7653,0,1,0-3.53,0A1.7828,1.7828,0,0,0,188.957,102.4375Z"/><path d="M200.5566,120.1621V104.8154h1.4414v3.458a6.5229,6.5229,0,0,1,1.8008-2.7011,4.0221,4.0221,0,0,1,2.5938-1.0088h.8281v1.6572a.57.57,0,0,1-.2519-.0723.3815.3815,0,0,0-.1436-.0722,4.1411,4.1411,0,0,0-3.0625,1.4414,6.9228,6.9228,0,0,0-1.7647,3.6386v9.0059Z"/><path d="M221.27,120.1621V98.8h1.4414v8.8975a5.8524,5.8524,0,0,1,2.1612-2.4854,5.4111,5.4111,0,0,1,3.0615-.9365,4.9522,4.9522,0,0,1,3.7109,1.6211,5.311,5.311,0,0,1,1.5489,3.8545v10.4111h-1.44v-10.123a4.6927,4.6927,0,0,0-1.1172-3.17,3.4089,3.4089,0,0,0-2.7021-1.333,4.6825,4.6825,0,0,0-3.2061,1.2969,6.354,6.354,0,0,0-2.0166,3.3145v10.0146Z"/><path d="M237.9131,119.4414a3.726,3.726,0,0,1-.0361-6.124,6.8764,6.8764,0,0,1,3.8906-1.5127,16.0917,16.0917,0,0,0,3.7109-.7207q1.4766-.504,1.4766-1.1885v-1.3691a2.3849,2.3849,0,0,0-1.2969-2.0176,6.1182,6.1182,0,0,0-6.0879-.0361,2.3536,2.3536,0,0,0-1.2256,1.9453v.7929h-1.3681v-.9375a3.1224,3.1224,0,0,1,1.6211-2.6289,7.0886,7.0886,0,0,1,3.9628-1.081,7.6031,7.6031,0,0,1,4.07,1.0449,2.9845,2.9845,0,0,1,1.6933,2.5215v9.2939a2.9128,2.9128,0,0,0,.3965,1.55,1.1412,1.1412,0,0,0,.9727.6485,1.3243,1.3243,0,0,0,.3242-.0362.4478.4478,0,0,0,.2158-.1084v.6846a3.2438,3.2438,0,0,1-1.3691.252,1.84,1.84,0,0,1-1.44-.7207,2.6761,2.6761,0,0,1-.5771-1.7286,3.6582,3.6582,0,0,1-1.8369,1.9815,6.7383,6.7383,0,0,1-3.2422.7558A5.9972,5.9972,0,0,1,237.9131,119.4414Zm7.2412-1.08a5.04,5.04,0,0,0,1.8008-3.1347v-3.53a4.382,4.382,0,0,1-1.8369.7207,25.3084,25.3084,0,0,1-3.3506.4678,4.8225,4.8225,0,0,0-2.8457,1.1533,2.93,2.93,0,0,0-1.1533,2.3057,2.8357,2.8357,0,0,0,1.1894,2.3056,4.2083,4.2083,0,0,0,2.81.9727A5.068,5.068,0,0,0,245.1543,118.3613Z"/><path d="M253.0068,120.1621V104.8154h1.4414v2.5938a4.9163,4.9163,0,0,1,1.98-2.1612,5.73,5.73,0,0,1,6.81.6485,4.7662,4.7662,0,0,1,1.6211,3.6025v10.6631H263.418V109.499a3.5749,3.5749,0,0,0-1.1885-2.7021,4.0161,4.0161,0,0,0-2.8467-1.1172,4.7419,4.7419,0,0,0-3.206,1.2256,5.313,5.313,0,0,0-1.7286,3.1338v10.123Z"/><path d="M281.0693,120.1621V106.3643h-2.414V104.96h2.414v-2.8819a3.0738,3.0738,0,0,1,.9727-2.3056,3.1914,3.1914,0,0,1,2.3418-.9727h.8642V99.916H284.42a1.6684,1.6684,0,0,0-1.333.6485,2.1235,2.1235,0,0,0-.5762,1.5136V104.96h2.7373v1.4043h-2.7373v13.7978Z"/><path d="M287.77,98.8h1.4414v2.1973H287.77Zm0,21.3623V104.8154h1.4414v15.3467Z"/><path d="M293.8213,120.1621V104.8154h1.4414v2.5938a4.9157,4.9157,0,0,1,1.9805-2.1612,5.73,5.73,0,0,1,6.81.6485,4.7662,4.7662,0,0,1,1.6211,3.6025v10.6631h-1.4414V109.499a3.5749,3.5749,0,0,0-1.1885-2.7021,4.0157,4.0157,0,0,0-2.8466-1.1172,4.7421,4.7421,0,0,0-3.2061,1.2256,5.3129,5.3129,0,0,0-1.7285,3.1338v10.123Z"/><path d="M310.9688,118.1807a8.5114,8.5114,0,0,1-1.9815-5.6914,8.8485,8.8485,0,0,1,1.9815-5.8008,5.9693,5.9693,0,0,1,4.7548-2.4131,5.4993,5.4993,0,0,1,3.2432,1.0449,6.12,6.12,0,0,1,2.0889,2.81V98.8h1.4414v21.3623h-1.4414v-3.1338a5.0893,5.0893,0,0,1-2.0537,2.5576,5.7222,5.7222,0,0,1-3.2784.9727A5.9994,5.9994,0,0,1,310.9688,118.1807Zm8.538-.7569a7.9583,7.9583,0,0,0,1.5489-4.9345,7.8074,7.8074,0,0,0-1.5489-4.9,4.6713,4.6713,0,0,0-3.7832-2.0537,4.5743,4.5743,0,0,0-3.7461,2.0537,7.8019,7.8019,0,0,0-1.5488,4.9,7.9527,7.9527,0,0,0,1.5488,4.9345,4.5741,4.5741,0,0,0,3.7461,2.0537A4.6711,4.6711,0,0,0,319.5068,117.4238Z"/><path d="M328.0439,118.4688a10.4828,10.4828,0,0,1,0-11.96,6.1616,6.1616,0,0,1,4.9717-2.2334,6.4082,6.4082,0,0,1,4.9717,2.0527,7.8172,7.8172,0,0,1,1.8731,5.4766v.6846H327.6113a7.8584,7.8584,0,0,0,1.4776,5.0068,4.7477,4.7477,0,0,0,3.9267,1.873,5.8969,5.8969,0,0,0,3.3145-.9726,5.192,5.192,0,0,0,2.0888-2.63H339.86a5.3755,5.3755,0,0,1-2.3057,3.5313,7.55,7.55,0,0,1-4.5391,1.4042A6.1618,6.1618,0,0,1,328.0439,118.4688Zm10.375-7.3487v-.541a5.4649,5.4649,0,0,0-1.7285-3.6025,5.3013,5.3013,0,0,0-3.6748-1.44,5.1007,5.1007,0,0,0-3.6386,1.4766,5.5951,5.5951,0,0,0-1.7657,3.7109v.3965Z"/><path d="M343.2461,120.1621V104.8154h1.4414v3.458a6.521,6.521,0,0,1,1.8008-2.7011,4.0219,4.0219,0,0,1,2.5937-1.0088h.8282v1.6572a.57.57,0,0,1-.252-.0723.3808.3808,0,0,0-.1436-.0722,4.1414,4.1414,0,0,0-3.0625,1.4414,6.9234,6.9234,0,0,0-1.7646,3.6386v9.0059Z"/><path d="M43.6387,153.9531a4.4093,4.4093,0,0,1-1.5489-3.3867V139.6152H43.53v10.9512a3.4409,3.4409,0,0,0,1.1172,2.5586,3.81,3.81,0,0,0,2.7011,1.0439,4.6737,4.6737,0,0,0,3.3506-1.44,6.5636,6.5636,0,0,0,1.8731-3.6387v-9.4746h1.4414v15.3467H52.5723V152.26a5.1285,5.1285,0,0,1-2.0889,2.2695,6.0516,6.0516,0,0,1-3.1348.8291A5.3322,5.3322,0,0,1,43.6387,153.9531Z"/><path d="M59.5615,152.9805a8.5113,8.5113,0,0,1-1.9814-5.6914,8.8484,8.8484,0,0,1,1.9814-5.8008,5.9694,5.9694,0,0,1,4.7549-2.4131A5.4993,5.4993,0,0,1,67.56,140.12a6.1194,6.1194,0,0,1,2.0888,2.81V133.6H71.09v21.3623H69.6484v-3.1338a5.0883,5.0883,0,0,1-2.0537,2.5576,5.7217,5.7217,0,0,1-3.2783.9727A6,6,0,0,1,59.5615,152.9805Zm8.5381-.7569a7.9589,7.9589,0,0,0,1.5488-4.9345A7.8079,7.8079,0,0,0,68.1,142.39a4.6715,4.6715,0,0,0-3.7832-2.0537A4.5742,4.5742,0,0,0,60.57,142.39a7.8019,7.8019,0,0,0-1.5488,4.8995,7.9527,7.9527,0,0,0,1.5488,4.9345,4.574,4.574,0,0,0,3.7461,2.0537A4.6712,4.6712,0,0,0,68.1,152.2236Z"/><path d="M87.5879,154.2412a3.726,3.726,0,0,1-.0361-6.124,6.8764,6.8764,0,0,1,3.8906-1.5127,16.0917,16.0917,0,0,0,3.7109-.7207q1.4766-.5038,1.4766-1.1885v-1.3691a2.3849,2.3849,0,0,0-1.2969-2.0176,6.1182,6.1182,0,0,0-6.0879-.0361,2.3536,2.3536,0,0,0-1.2256,1.9453v.7929H86.6514v-.9375a3.1224,3.1224,0,0,1,1.6211-2.6289,7.089,7.089,0,0,1,3.9629-1.081,7.603,7.603,0,0,1,4.07,1.0449A2.9845,2.9845,0,0,1,97.999,142.93v9.2939a2.9128,2.9128,0,0,0,.3965,1.55,1.1412,1.1412,0,0,0,.9727.6485,1.3243,1.3243,0,0,0,.3242-.0362.4478.4478,0,0,0,.2158-.1084v.6846a3.2435,3.2435,0,0,1-1.3691.252,1.84,1.84,0,0,1-1.44-.7207,2.6761,2.6761,0,0,1-.5771-1.7286,3.6579,3.6579,0,0,1-1.8369,1.9815,6.7383,6.7383,0,0,1-3.2422.7559A5.9973,5.9973,0,0,1,87.5879,154.2412Zm7.2412-1.08a5.04,5.04,0,0,0,1.8008-3.1347v-3.53a4.382,4.382,0,0,1-1.8369.7207,25.3084,25.3084,0,0,1-3.3506.4678,4.8225,4.8225,0,0,0-2.8457,1.1533,2.93,2.93,0,0,0-1.1533,2.3057,2.8357,2.8357,0,0,0,1.1894,2.3056,4.2083,4.2083,0,0,0,2.81.9727A5.0673,5.0673,0,0,0,94.8291,153.1611Z"/><path d="M103.0059,154.9619V141.1641h-2.4141V139.76h2.4141v-2.8819a3.0737,3.0737,0,0,1,.9726-2.3056A3.1916,3.1916,0,0,1,106.32,133.6h.8643v1.1162h-.8282a1.6684,1.6684,0,0,0-1.333.6485,2.1238,2.1238,0,0,0-.5761,1.5136V139.76h2.7373v1.4043h-2.7373v13.7978Z"/><path d="M121.5938,154.2412a3.726,3.726,0,0,1-.0362-6.124,6.8764,6.8764,0,0,1,3.8906-1.5127,16.0938,16.0938,0,0,0,3.711-.7207q1.4766-.5038,1.4765-1.1885v-1.3691a2.385,2.385,0,0,0-1.2968-2.0176,6.1182,6.1182,0,0,0-6.0879-.0361,2.3536,2.3536,0,0,0-1.2256,1.9453v.7929h-1.3682v-.9375a3.1226,3.1226,0,0,1,1.6211-2.6289,7.089,7.089,0,0,1,3.9629-1.081,7.6028,7.6028,0,0,1,4.07,1.0449,2.9847,2.9847,0,0,1,1.6934,2.5215v9.2939a2.9119,2.9119,0,0,0,.3965,1.55,1.141,1.141,0,0,0,.9726.6485,1.3231,1.3231,0,0,0,.3242-.0362.4487.4487,0,0,0,.2159-.1084v.6846a3.2439,3.2439,0,0,1-1.3692.252,1.84,1.84,0,0,1-1.44-.7207,2.6756,2.6756,0,0,1-.5772-1.7286,3.6571,3.6571,0,0,1-1.8369,1.9815,6.7378,6.7378,0,0,1-3.2422.7559A5.997,5.997,0,0,1,121.5938,154.2412Zm7.2412-1.08a5.04,5.04,0,0,0,1.8007-3.1347v-3.53a4.382,4.382,0,0,1-1.8369.7207,25.3059,25.3059,0,0,1-3.3506.4678,4.8227,4.8227,0,0,0-2.8457,1.1533,2.93,2.93,0,0,0-1.1533,2.3057,2.8358,2.8358,0,0,0,1.1895,2.3056,4.208,4.208,0,0,0,2.81.9727A5.0676,5.0676,0,0,0,128.835,153.1611Z"/><path d="M137.66,154.5293a3.352,3.352,0,0,1-.8291-2.3057V140.7324h-2.1973v-1.1172h2.1973v-4.3593h1.4414v4.3593h2.09v1.1172h-2.09v11.4912a2.5755,2.5755,0,0,0,.4687,1.55,1.2711,1.2711,0,0,0,1.08.6485,2.19,2.19,0,0,0,1.1172-.253v1.045a3.9077,3.9077,0,0,1-1.2246.2881A2.6612,2.6612,0,0,1,137.66,154.5293Z"/><path d="M155.3477,154.9619V141.1641h-2.4141V139.76h2.4141v-2.8819a3.0737,3.0737,0,0,1,.9726-2.3056,3.1916,3.1916,0,0,1,2.3418-.9727h.8643v1.1162h-.8282a1.6684,1.6684,0,0,0-1.333.6485,2.1238,2.1238,0,0,0-.5761,1.5136V139.76h2.7373v1.4043h-2.7373v13.7978Z"/><path d="M162.0479,154.9619V133.6h1.4414v21.3623Z"/><path d="M169.0361,153.2686a10.4828,10.4828,0,0,1,0-11.96,6.1616,6.1616,0,0,1,4.9717-2.2334,6.4084,6.4084,0,0,1,4.9717,2.0527,7.8176,7.8176,0,0,1,1.873,5.4766v.6846h-12.249a7.8582,7.8582,0,0,0,1.4776,5.0068,4.7477,4.7477,0,0,0,3.9267,1.873,5.8969,5.8969,0,0,0,3.3145-.9726,5.1925,5.1925,0,0,0,2.0888-2.63h1.4414a5.375,5.375,0,0,1-2.3056,3.5313,7.55,7.55,0,0,1-4.5391,1.4043A6.1619,6.1619,0,0,1,169.0361,153.2686Zm10.375-7.3487v-.541a5.4653,5.4653,0,0,0-1.7285-3.6025,5.3013,5.3013,0,0,0-3.6748-1.44,5.1011,5.1011,0,0,0-3.6387,1.4766,5.5954,5.5954,0,0,0-1.7656,3.7109v.3965Z"/><path d="M184.2383,154.9619V139.6152H185.68v3.458a6.521,6.521,0,0,1,1.8008-2.7011,4.0219,4.0219,0,0,1,2.5937-1.0088h.8281v1.6572a.57.57,0,0,1-.2519-.0723.3808.3808,0,0,0-.1436-.0722,4.1412,4.1412,0,0,0-3.0625,1.4414,6.9226,6.9226,0,0,0-1.7646,3.6387v9.0058Z"/><path d="M194.36,153.2686a10.4823,10.4823,0,0,1,0-11.96,6.1613,6.1613,0,0,1,4.9716-2.2334,6.4082,6.4082,0,0,1,4.9717,2.0527,7.8172,7.8172,0,0,1,1.8731,5.4766v.6846H193.9277a7.8582,7.8582,0,0,0,1.4776,5.0068,4.7477,4.7477,0,0,0,3.9267,1.873,5.8969,5.8969,0,0,0,3.3145-.9726,5.1927,5.1927,0,0,0,2.0889-2.63h1.4414a5.3755,5.3755,0,0,1-2.3057,3.5313,7.55,7.55,0,0,1-4.5391,1.4043A6.1616,6.1616,0,0,1,194.36,153.2686Zm10.375-7.3487v-.541a5.4655,5.4655,0,0,0-1.7286-3.6025,5.3013,5.3013,0,0,0-3.6748-1.44,5.1007,5.1007,0,0,0-3.6386,1.4766,5.5956,5.5956,0,0,0-1.7657,3.7109v.3965Z"/><path d="M221.09,154.9619V133.6h1.4414v8.8975a5.8524,5.8524,0,0,1,2.1612-2.4854,5.4111,5.4111,0,0,1,3.0615-.9365,4.9522,4.9522,0,0,1,3.7109,1.6211,5.311,5.311,0,0,1,1.5489,3.8545v10.4111h-1.44v-10.123a4.6931,4.6931,0,0,0-1.1171-3.17,3.4093,3.4093,0,0,0-2.7022-1.333,4.682,4.682,0,0,0-3.206,1.2969,6.3535,6.3535,0,0,0-2.0167,3.3145v10.0146Z"/><path d="M237.7334,154.2412a3.726,3.726,0,0,1-.0361-6.124,6.8764,6.8764,0,0,1,3.8906-1.5127,16.0917,16.0917,0,0,0,3.7109-.7207q1.4766-.5038,1.4766-1.1885v-1.3691a2.3849,2.3849,0,0,0-1.2969-2.0176,6.1182,6.1182,0,0,0-6.0879-.0361,2.3536,2.3536,0,0,0-1.2256,1.9453v.7929h-1.3681v-.9375a3.1224,3.1224,0,0,1,1.6211-2.6289,7.089,7.089,0,0,1,3.9629-1.081,7.603,7.603,0,0,1,4.07,1.0449,2.9845,2.9845,0,0,1,1.6933,2.5215v9.2939a2.9128,2.9128,0,0,0,.3965,1.55,1.1412,1.1412,0,0,0,.9727.6485,1.3243,1.3243,0,0,0,.3242-.0362.4478.4478,0,0,0,.2158-.1084v.6846a3.2435,3.2435,0,0,1-1.3691.252,1.84,1.84,0,0,1-1.44-.7207,2.6761,2.6761,0,0,1-.5771-1.7286,3.6579,3.6579,0,0,1-1.8369,1.9815,6.7381,6.7381,0,0,1-3.2422.7559A5.9973,5.9973,0,0,1,237.7334,154.2412Zm7.2412-1.08a5.04,5.04,0,0,0,1.8008-3.1347v-3.53a4.382,4.382,0,0,1-1.8369.7207,25.3059,25.3059,0,0,1-3.3506.4678,4.8225,4.8225,0,0,0-2.8457,1.1533,2.93,2.93,0,0,0-1.1533,2.3057,2.8359,2.8359,0,0,0,1.1894,2.3056,4.2083,4.2083,0,0,0,2.81.9727A5.0671,5.0671,0,0,0,244.9746,153.1611Z"/><path d="M252.8271,154.9619V139.6152h1.4415v3.458a6.5217,6.5217,0,0,1,1.8007-2.7011,4.0221,4.0221,0,0,1,2.5938-1.0088h.8281v1.6572a.57.57,0,0,1-.2519-.0723.3815.3815,0,0,0-.1436-.0722,4.1411,4.1411,0,0,0-3.0625,1.4414,6.9219,6.9219,0,0,0-1.7646,3.6387v9.0058Z"/><path d="M274.0078,153.917a4.3966,4.3966,0,0,1-1.7285-3.4941h1.333a3.3717,3.3717,0,0,0,1.333,2.666,4.9256,4.9256,0,0,0,3.2061,1.08,5.7909,5.7909,0,0,0,3.4941-.9726,3.1768,3.1768,0,0,0,1.2969-2.63,2.4753,2.4753,0,0,0-1.3692-2.0889,8.6644,8.6644,0,0,0-3.6738-1.0449,7.0834,7.0834,0,0,1-3.8916-1.3691,3.486,3.486,0,0,1-1.4766-2.8457,3.408,3.408,0,0,1,1.4766-2.9541,7.0955,7.0955,0,0,1,4.1436-1.0449,6.71,6.71,0,0,1,4.07,1.1171,3.5069,3.5069,0,0,1,1.55,2.99h-1.3692a3.3091,3.3091,0,0,0-1.3691-2.1983,4.8774,4.8774,0,0,0-2.8818-.792,5.3933,5.3933,0,0,0-3.0987.792,2.43,2.43,0,0,0-1.1523,2.09,2.4715,2.4715,0,0,0,1.4053,2.09,8.6422,8.6422,0,0,0,3.6738,1.044,6.9058,6.9058,0,0,1,3.8906,1.4414,3.9982,3.9982,0,0,1-.2519,6.3408,7.3551,7.3551,0,0,1-4.4668,1.2246A6.1738,6.1738,0,0,1,274.0078,153.917Z"/><path d="M288.5986,153.2686a10.4828,10.4828,0,0,1,0-11.96,6.1616,6.1616,0,0,1,4.9717-2.2334,6.4084,6.4084,0,0,1,4.9717,2.0527,7.8176,7.8176,0,0,1,1.873,5.4766v.6846H288.166a7.8582,7.8582,0,0,0,1.4776,5.0068,4.7477,4.7477,0,0,0,3.9267,1.873,5.8969,5.8969,0,0,0,3.3145-.9726,5.1925,5.1925,0,0,0,2.0888-2.63h1.4414a5.3754,5.3754,0,0,1-2.3056,3.5313,7.55,7.55,0,0,1-4.5391,1.4043A6.1619,6.1619,0,0,1,288.5986,153.2686Zm10.375-7.3487v-.541a5.4653,5.4653,0,0,0-1.7285-3.6025,5.3013,5.3013,0,0,0-3.6748-1.44,5.1011,5.1011,0,0,0-3.6387,1.4766,5.5954,5.5954,0,0,0-1.7656,3.7109v.3965Z"/><path d="M304.7734,154.5293a3.3525,3.3525,0,0,1-.8291-2.3057V140.7324h-2.1972v-1.1172h2.1972v-4.3593h1.4414v4.3593h2.09v1.1172h-2.09v11.4912a2.5756,2.5756,0,0,0,.4688,1.55,1.2711,1.2711,0,0,0,1.08.6485,2.19,2.19,0,0,0,1.1172-.253v1.045a3.9088,3.9088,0,0,1-1.2247.2881A2.6615,2.6615,0,0,1,304.7734,154.5293Z"/><path d="M45.9443,189.33a6.0007,6.0007,0,0,1-2.1972-2.5576v2.99H42.3057V168.4h1.4414v9.4736a5.6621,5.6621,0,0,1,5.3672-3.71,5.9214,5.9214,0,0,1,4.8271,2.1972,10.3,10.3,0,0,1,0,11.7442,5.9214,5.9214,0,0,1-4.8271,2.1972A5.6574,5.6574,0,0,1,45.9443,189.33Zm7.0606-2.125a9.2949,9.2949,0,0,0,0-9.9434,4.7175,4.7175,0,0,0-3.8906-1.873,4.627,4.627,0,0,0-3.7823,2.0175,8.1435,8.1435,0,0,0,0,9.6543,4.6245,4.6245,0,0,0,3.7823,2.0176A4.7148,4.7148,0,0,0,53.0049,187.2051Z"/><path d="M59.4531,168.4h1.4414v2.1973H59.4531Zm0,21.3623V174.416h1.4414v15.3467Z"/><path d="M65.5049,189.7627V168.4h1.4414v21.3623Z"/><path d="M71.5566,189.7627V168.4H72.998v21.3623Z"/><path d="M78.5449,188.0693a10.4826,10.4826,0,0,1,0-11.96,6.1616,6.1616,0,0,1,4.9717-2.2334,6.408,6.408,0,0,1,4.9717,2.0527,7.8176,7.8176,0,0,1,1.873,5.4766v.6845H78.1123a7.8591,7.8591,0,0,0,1.4775,5.0069,4.748,4.748,0,0,0,3.9268,1.873,5.8969,5.8969,0,0,0,3.3145-.9726,5.1934,5.1934,0,0,0,2.0888-2.63h1.4414a5.375,5.375,0,0,1-2.3056,3.5312,7.5494,7.5494,0,0,1-4.5391,1.4043A6.1616,6.1616,0,0,1,78.5449,188.0693Zm10.375-7.3486v-.541a5.4658,5.4658,0,0,0-1.7285-3.6026,5.3017,5.3017,0,0,0-3.6748-1.44,5.101,5.101,0,0,0-3.6387,1.4766,5.5954,5.5954,0,0,0-1.7656,3.7109v.3965Z"/><path d="M94.6836,187.7812a8.5112,8.5112,0,0,1-1.9815-5.6914,8.8482,8.8482,0,0,1,1.9815-5.8007,5.9694,5.9694,0,0,1,4.7549-2.4131,5.499,5.499,0,0,1,3.2431,1.0449,6.1184,6.1184,0,0,1,2.0889,2.81V168.4h1.4414v21.3623h-1.4414v-3.1338a5.09,5.09,0,0,1-2.0537,2.5576,5.7217,5.7217,0,0,1-3.2783.9727A5.9994,5.9994,0,0,1,94.6836,187.7812Zm8.5381-.7568a7.9594,7.9594,0,0,0,1.5488-4.9346,7.8078,7.8078,0,0,0-1.5488-4.8994,4.6715,4.6715,0,0,0-3.7832-2.0537,4.5741,4.5741,0,0,0-3.7461,2.0537,7.8018,7.8018,0,0,0-1.5488,4.8994,7.9532,7.9532,0,0,0,1.5488,4.9346,4.5738,4.5738,0,0,0,3.7461,2.0537A4.6712,4.6712,0,0,0,103.2217,187.0244Z"/><path d="M111.7588,188.0693a10.4822,10.4822,0,0,1,0-11.96,6.1615,6.1615,0,0,1,4.9717-2.2334,6.4078,6.4078,0,0,1,4.9716,2.0527,7.8172,7.8172,0,0,1,1.8731,5.4766v.6845h-12.249a7.8591,7.8591,0,0,0,1.4775,5.0069,4.748,4.748,0,0,0,3.9268,1.873,5.8964,5.8964,0,0,0,3.3144-.9726,5.1931,5.1931,0,0,0,2.0889-2.63h1.4414a5.3748,5.3748,0,0,1-2.3057,3.5312,7.5488,7.5488,0,0,1-4.539,1.4043A6.1615,6.1615,0,0,1,111.7588,188.0693Zm10.375-7.3486v-.541a5.4658,5.4658,0,0,0-1.7285-3.6026,5.3018,5.3018,0,0,0-3.6748-1.44,5.1008,5.1008,0,0,0-3.6387,1.4766,5.5954,5.5954,0,0,0-1.7656,3.7109v.3965Z"/><path d="M127.9336,189.33a3.3525,3.3525,0,0,1-.8291-2.3057V175.5332h-2.1973V174.416h2.1973v-4.3594h1.4414v4.3594h2.09v1.1172h-2.09v11.4912a2.5755,2.5755,0,0,0,.4687,1.55,1.2713,1.2713,0,0,0,1.08.6485,2.19,2.19,0,0,0,1.1172-.253v1.0449a3.9049,3.9049,0,0,1-1.2246.2881A2.6613,2.6613,0,0,1,127.9336,189.33Z"/><path d="M139.2451,182.918a5.2,5.2,0,0,1,.9365-2.8457,9.2933,9.2933,0,0,1,2.5938-2.63,4.6462,4.6462,0,0,0,1.4414-1.73,5.5573,5.5573,0,0,0,.5039-2.3779,4.0018,4.0018,0,0,0-1.4043-3.0977A4.8186,4.8186,0,0,0,139.93,168.94a4.677,4.677,0,0,0-3.3867,1.3692,4.4571,4.4571,0,0,0-1.4043,3.3144v.792H133.77v-.792a5.4363,5.4363,0,0,1,1.7657-4.0713,5.9176,5.9176,0,0,1,4.25-1.6933,6.7907,6.7907,0,0,1,4.4677,1.5488,4.844,4.844,0,0,1,1.8369,3.7832,7.3809,7.3809,0,0,1-.7568,3.3506,5.4194,5.4194,0,0,1-2.125,2.2695,5.1124,5.1124,0,0,0-1.9092,1.9453,5.64,5.64,0,0,0-.6845,2.7373v.5411h-1.3692Zm0,4.6474h1.6572v2.1973h-1.6572Z"/></g></svg>
