<svg xmlns="http://www.w3.org/2000/svg" width="419" height="312" viewBox="0 0 419 312"><defs><style>.cls-1{fill:#e6e6e6;}</style></defs><title>bobbel2</title><g id="Spørgsmål"><path class="cls-1" d="M347.24,15H52.76A42.76,42.76,0,0,0,10,57.76V188.24A42.76,42.76,0,0,0,52.76,231H289.525L281,293l59.675-62H347.24A42.76,42.76,0,0,0,390,188.24V57.76A42.76,42.76,0,0,0,347.24,15Z"/><path d="M38.0674,76.1523V57h12.499v1.2588H39.3594V65.623H49.5977v1.1954H39.3594v8.1064h11.207v1.2275Z"/><path d="M52.9883,76.1523V62.3936H54.28v2.3252a4.4092,4.4092,0,0,1,1.7763-1.9376,5.1379,5.1379,0,0,1,6.1045.5811,4.2714,4.2714,0,0,1,1.4532,3.23v9.56h-1.292v-9.56A3.2,3.2,0,0,0,61.2559,64.17a3.5961,3.5961,0,0,0-2.5508-1.001,4.2543,4.2543,0,0,0-2.875,1.0977,4.7606,4.7606,0,0,0-1.55,2.81v9.0761Z"/><path d="M77.8574,76.1523V57h1.292V76.1523Z"/><path d="M83.6055,75.5068a3.3414,3.3414,0,0,1-.0323-5.4912,6.1666,6.1666,0,0,1,3.4883-1.3564,14.4121,14.4121,0,0,0,3.3272-.6455q1.3242-.4527,1.3242-1.0664V65.72A2.4326,2.4326,0,0,0,90.55,63.7178a4.657,4.657,0,0,0-2.7773-.8076,4.4912,4.4912,0,0,0-2.6807.8076,2.2779,2.2779,0,0,0-1.0986,1.9052v.711H82.7666v-.84a3.0273,3.0273,0,0,1,1.4531-2.52,5.93,5.93,0,0,1,3.5528-1.0654,6.31,6.31,0,0,1,3.23.8076,3.5044,3.5044,0,0,1,1.7441,2.0986,5.6356,5.6356,0,0,1,2.1318-2.1318,5.8246,5.8246,0,0,1,2.94-.7744,5.7426,5.7426,0,0,1,4.457,1.8408,7.0061,7.0061,0,0,1,1.68,4.9092v.6133H92.9727v1.26a4.7009,4.7009,0,0,0,1.4209,3.4561,4.6142,4.6142,0,0,0,3.4238,1.4531,5.2771,5.2771,0,0,0,2.9707-.8721,4.6631,4.6631,0,0,0,1.874-2.3574h1.292a4.82,4.82,0,0,1-2.0674,3.1651,6.7681,6.7681,0,0,1-4.0693,1.26,5.7705,5.7705,0,0,1-3.2949-1.001,5.6523,5.6523,0,0,1-2.1-2.6484,5.4588,5.4588,0,0,1-2.0665,2.6484,5.7728,5.7728,0,0,1-3.2949,1.001A5.3814,5.3814,0,0,1,83.6055,75.5068Zm6.4922-.97a4.5191,4.5191,0,0,0,1.6152-2.81v-3.165a3.9242,3.9242,0,0,1-1.6475.6455,22.6862,22.6862,0,0,1-3.0039.42A4.3282,4.3282,0,0,0,84.51,70.6621a2.63,2.63,0,0,0-1.0332,2.0664,2.542,2.542,0,0,0,1.0664,2.0674,3.7738,3.7738,0,0,0,2.5185.8721A4.5409,4.5409,0,0,0,90.0977,74.5371Zm12.5644-6.4912v-.4844a4.9027,4.9027,0,0,0-1.5508-3.23,4.7521,4.7521,0,0,0-3.2939-1.292,4.5748,4.5748,0,0,0-3.2627,1.3242,5.0179,5.0179,0,0,0-1.582,3.3271v.3555Z"/><path d="M106.9893,76.1523V62.3936h1.2919v3.1005a5.8606,5.8606,0,0,1,1.6143-2.4228,3.6065,3.6065,0,0,1,2.3262-.9043h.7422v1.4863a.5093.5093,0,0,1-.2256-.0654.35.35,0,0,0-.13-.0645,3.7187,3.7187,0,0,0-2.7451,1.292,6.2086,6.2086,0,0,0-1.5821,3.2627v8.0742Z"/><path d="M116.0645,74.6348a8.1523,8.1523,0,0,1-1.68-5.3623,8.1514,8.1514,0,0,1,1.68-5.3614,5.5243,5.5243,0,0,1,4.457-2.0019,5.7426,5.7426,0,0,1,4.457,1.8408,7.0061,7.0061,0,0,1,1.68,4.9092v.6133H115.6768a7.047,7.047,0,0,0,1.3242,4.49,4.2583,4.2583,0,0,0,3.52,1.6787,5.2771,5.2771,0,0,0,2.9707-.8721,4.6579,4.6579,0,0,0,1.874-2.3574h1.292a4.82,4.82,0,0,1-2.0674,3.1651,6.7681,6.7681,0,0,1-4.0693,1.26A5.5243,5.5243,0,0,1,116.0645,74.6348Zm9.3017-6.5889v-.4844a4.9027,4.9027,0,0,0-1.5508-3.23,4.7521,4.7521,0,0,0-3.2939-1.292,4.5748,4.5748,0,0,0-3.2627,1.3242,5.0179,5.0179,0,0,0-1.582,3.3271v.3555Z"/><path d="M129.6943,76.1523V62.3936h1.292v3.1005a5.8606,5.8606,0,0,1,1.6143-2.4228,3.6065,3.6065,0,0,1,2.3262-.9043h.7421v1.4863a.5093.5093,0,0,1-.2255-.0654.35.35,0,0,0-.13-.0645,3.7187,3.7187,0,0,0-2.7451,1.292,6.2086,6.2086,0,0,0-1.5821,3.2627v8.0742Z"/><path d="M148.5547,76.1523v-12.37h-2.1641v-1.26h2.1641v-2.584a2.7572,2.7572,0,0,1,.8721-2.0664,2.86,2.86,0,0,1,2.1-.8721h.7754v1.001h-.7432a1.4979,1.4979,0,0,0-1.1953.581,1.9073,1.9073,0,0,0-.5166,1.3565v2.584h2.4551v1.26h-2.4551v12.37Z"/><path d="M154.5625,57h1.292v1.97h-1.292Zm0,19.1523V62.3936h1.292V76.1523Z"/><path d="M159.9883,76.1523V62.3936h1.292v2.3252a4.4092,4.4092,0,0,1,1.7763-1.9376,5.1379,5.1379,0,0,1,6.1045.5811,4.2714,4.2714,0,0,1,1.4532,3.23v9.56h-1.292v-9.56a3.2,3.2,0,0,0-1.0664-2.4219,3.5961,3.5961,0,0,0-2.5508-1.001,4.2543,4.2543,0,0,0-2.875,1.0977,4.7606,4.7606,0,0,0-1.55,2.81v9.0761Z"/><path d="M175.3623,74.376a7.6326,7.6326,0,0,1-1.7764-5.1035,7.93,7.93,0,0,1,1.7764-5.1993,5.351,5.351,0,0,1,4.2627-2.164,4.93,4.93,0,0,1,2.9072.9365,5.49,5.49,0,0,1,1.8731,2.52V57h1.292V76.1523h-1.292V73.3428a4.5631,4.5631,0,0,1-1.8408,2.2929,5.1335,5.1335,0,0,1-2.94.8721A5.3783,5.3783,0,0,1,175.3623,74.376Zm7.6543-.6787a7.1327,7.1327,0,0,0,1.3887-4.4248,7.0032,7.0032,0,0,0-1.3887-4.3926,4.1893,4.1893,0,0,0-3.3916-1.8408,4.1013,4.1013,0,0,0-3.3584,1.8408,6.9977,6.9977,0,0,0-1.39,4.3926,7.1271,7.1271,0,0,0,1.39,4.4248,4.1,4.1,0,0,0,3.3584,1.8418A4.1881,4.1881,0,0,0,183.0166,73.6973Z"/><path d="M190.6709,74.6348a8.1529,8.1529,0,0,1-1.68-5.3623,8.152,8.152,0,0,1,1.68-5.3614,5.5244,5.5244,0,0,1,4.457-2.0019A5.7428,5.7428,0,0,1,199.585,63.75a7.0065,7.0065,0,0,1,1.68,4.9092v.6133H190.2832a7.047,7.047,0,0,0,1.3242,4.49,4.2584,4.2584,0,0,0,3.52,1.6787,5.2769,5.2769,0,0,0,2.9707-.8721,4.6586,4.6586,0,0,0,1.8741-2.3574h1.2919a4.82,4.82,0,0,1-2.0673,3.1651,6.7684,6.7684,0,0,1-4.0694,1.26A5.5244,5.5244,0,0,1,190.6709,74.6348Zm9.3018-6.5889v-.4844a4.9027,4.9027,0,0,0-1.5508-3.23,4.7524,4.7524,0,0,0-3.294-1.292,4.5748,4.5748,0,0,0-3.2627,1.3242,5.0184,5.0184,0,0,0-1.582,3.3271v.3555Z"/><path d="M204.3008,76.1523V62.3936h1.292v3.1005a5.86,5.86,0,0,1,1.6142-2.4228,3.6069,3.6069,0,0,1,2.3262-.9043h.7422v1.4863a.5093.5093,0,0,1-.2256-.0654.3494.3494,0,0,0-.13-.0645,3.7189,3.7189,0,0,0-2.7451,1.292,6.2077,6.2077,0,0,0-1.582,3.2627v8.0742Z"/><path d="M224.0654,75.248a3.9545,3.9545,0,0,1-1.3886-3.0361V62.3936h1.292v9.8183a3.0863,3.0863,0,0,0,1.0009,2.293,3.4161,3.4161,0,0,0,2.4229.9365,4.19,4.19,0,0,0,3.0039-1.292,5.886,5.886,0,0,0,1.68-3.2617V62.3936h1.292V76.1523h-1.292V73.7305a4.6037,4.6037,0,0,1-1.8741,2.0341,5.4277,5.4277,0,0,1-2.81.7432A4.7815,4.7815,0,0,1,224.0654,75.248Z"/><path d="M238.3418,74.376a7.6326,7.6326,0,0,1-1.7764-5.1035,7.93,7.93,0,0,1,1.7764-5.1993,5.351,5.351,0,0,1,4.2627-2.164,4.93,4.93,0,0,1,2.9072.9365,5.49,5.49,0,0,1,1.8731,2.52V57h1.292V76.1523h-1.292V73.3428a4.5627,4.5627,0,0,1-1.8409,2.2929,5.1329,5.1329,0,0,1-2.9394.8721A5.3783,5.3783,0,0,1,238.3418,74.376Zm7.6543-.6787a7.1327,7.1327,0,0,0,1.3887-4.4248,7.0032,7.0032,0,0,0-1.3887-4.3926,4.1893,4.1893,0,0,0-3.3916-1.8408,4.1013,4.1013,0,0,0-3.3584,1.8408,6.9978,6.9978,0,0,0-1.39,4.3926,7.1272,7.1272,0,0,0,1.39,4.4248,4.1,4.1,0,0,0,3.3584,1.8418A4.1881,4.1881,0,0,0,245.9961,73.6973Z"/><path d="M263.4678,75.5068a3.3414,3.3414,0,0,1-.0323-5.4912,6.1666,6.1666,0,0,1,3.4883-1.3564,14.4121,14.4121,0,0,0,3.3272-.6455q1.3242-.4527,1.3242-1.0664V65.72a2.1392,2.1392,0,0,0-1.1631-1.8086,5.4919,5.4919,0,0,0-5.458-.0322,2.112,2.112,0,0,0-1.0986,1.7441v.711h-1.2266v-.84a2.8036,2.8036,0,0,1,1.4531-2.3584,6.3625,6.3625,0,0,1,3.5528-.9687,6.8185,6.8185,0,0,1,3.6494.9365,2.6791,2.6791,0,0,1,1.5185,2.2617v8.3321a2.6184,2.6184,0,0,0,.3545,1.39,1.0248,1.0248,0,0,0,.8721.5811,1.2052,1.2052,0,0,0,.291-.0323.4089.4089,0,0,0,.1934-.0966v.6132a2.9056,2.9056,0,0,1-1.2266.2266,1.6491,1.6491,0,0,1-1.292-.6465,2.4026,2.4026,0,0,1-.5166-1.55,3.2818,3.2818,0,0,1-1.6474,1.7764,6.0379,6.0379,0,0,1-2.9073.6777A5.3814,5.3814,0,0,1,263.4678,75.5068Zm6.4922-.97a4.5191,4.5191,0,0,0,1.6152-2.81v-3.165a3.9242,3.9242,0,0,1-1.6475.6455,22.6838,22.6838,0,0,1-3.0039.42,4.3282,4.3282,0,0,0-2.5517,1.0342,2.63,2.63,0,0,0-1.0332,2.0664,2.542,2.542,0,0,0,1.0664,2.0674,3.774,3.774,0,0,0,2.5185.8721A4.5409,4.5409,0,0,0,269.96,74.5371Z"/><path d="M277.291,76.1523v-12.37h-2.164v-1.26h2.164v-2.584a2.7572,2.7572,0,0,1,.8721-2.0664,2.86,2.86,0,0,1,2.1-.8721h.7754v1.001h-.7432a1.498,1.498,0,0,0-1.1953.581,1.9078,1.9078,0,0,0-.5166,1.3565v2.584h2.4551v1.26H278.583v12.37Z"/><path d="M283.4277,79.1885c.2364,0,.4307-.1514.5811-.4522a2.1774,2.1774,0,0,0,.2588-1.0986V76.1523h-.9688v-1.97h1.8731v3.4551a2.7908,2.7908,0,0,1-.42,1.5508,1.2944,1.2944,0,0,1-1.0655.6455Z"/><path d="M299.9629,75.5068a3.3415,3.3415,0,0,1-.0322-5.4912,6.166,6.166,0,0,1,3.4882-1.3564,14.411,14.411,0,0,0,3.3272-.6455q1.3242-.4527,1.3242-1.0664V65.72a2.1392,2.1392,0,0,0-1.1631-1.8086,5.4919,5.4919,0,0,0-5.458-.0322,2.112,2.112,0,0,0-1.0986,1.7441v.711H299.124v-.84a2.8036,2.8036,0,0,1,1.4531-2.3584,6.3628,6.3628,0,0,1,3.5528-.9687,6.8185,6.8185,0,0,1,3.6494.9365,2.6793,2.6793,0,0,1,1.5186,2.2617v8.3321a2.6184,2.6184,0,0,0,.3544,1.39,1.0248,1.0248,0,0,0,.8721.5811,1.2052,1.2052,0,0,0,.291-.0323.4085.4085,0,0,0,.1934-.0966v.6132a2.9056,2.9056,0,0,1-1.2266.2266,1.6491,1.6491,0,0,1-1.292-.6465,2.4026,2.4026,0,0,1-.5166-1.55,3.2818,3.2818,0,0,1-1.6474,1.7764,6.0379,6.0379,0,0,1-2.9073.6777A5.3816,5.3816,0,0,1,299.9629,75.5068Zm6.4922-.97a4.5191,4.5191,0,0,0,1.6152-2.81v-3.165a3.9237,3.9237,0,0,1-1.6474.6455,22.6881,22.6881,0,0,1-3.004.42,4.3282,4.3282,0,0,0-2.5517,1.0342,2.63,2.63,0,0,0-1.0332,2.0664A2.5423,2.5423,0,0,0,300.9,74.7959a3.774,3.774,0,0,0,2.5185.8721A4.5407,4.5407,0,0,0,306.4551,74.5371Z"/><path d="M314.3682,75.7646a3.0021,3.0021,0,0,1-.7432-2.0673V63.3945h-1.97V62.3936h1.97V58.4854h1.292v3.9082h1.873v1.0009h-1.873V73.6973a2.307,2.307,0,0,0,.42,1.39,1.1393,1.1393,0,0,0,.9688.5811,1.96,1.96,0,0,0,1.0009-.2266v.9375a3.5154,3.5154,0,0,1-1.0976.2578A2.3859,2.3859,0,0,1,314.3682,75.7646Z"/><path d="M41.3291,106.9648a5.3857,5.3857,0,0,1-1.97-2.2929v2.6806h-1.292V88.2h1.292v8.4941a5.0757,5.0757,0,0,1,4.8125-3.3271,5.3067,5.3067,0,0,1,4.3271,1.9707,9.2354,9.2354,0,0,1,0,10.5293,5.3059,5.3059,0,0,1-4.3271,1.97A5.0755,5.0755,0,0,1,41.3291,106.9648Zm6.33-1.9052a8.3338,8.3338,0,0,0,0-8.9141,4.2251,4.2251,0,0,0-3.4873-1.68A4.1474,4.1474,0,0,0,40.78,96.2744a7.3024,7.3024,0,0,0,0,8.6563,4.1474,4.1474,0,0,0,3.3916,1.8086A4.2251,4.2251,0,0,0,47.6592,105.06Z"/><path d="M53.4414,88.2h1.292v1.97h-1.292Zm0,19.1523V93.5938h1.292v13.7587Z"/><path d="M58.8672,107.3525V88.2h1.292v19.1523Z"/><path d="M64.293,107.3525V88.2h1.292v19.1523Z"/><path d="M70.5586,105.835a9.3978,9.3978,0,0,1,0-10.7237,5.5244,5.5244,0,0,1,4.457-2.0019A5.7428,5.7428,0,0,1,79.4727,94.95a7.0065,7.0065,0,0,1,1.68,4.9092v.6133H70.1709a7.047,7.047,0,0,0,1.3242,4.49,4.2584,4.2584,0,0,0,3.5205,1.6787,5.2769,5.2769,0,0,0,2.9707-.8721,4.6586,4.6586,0,0,0,1.8741-2.3574h1.2919a4.82,4.82,0,0,1-2.0673,3.165,6.7678,6.7678,0,0,1-4.0694,1.26A5.5244,5.5244,0,0,1,70.5586,105.835ZM79.86,99.2461v-.4844A4.9032,4.9032,0,0,0,78.31,95.5312a4.7527,4.7527,0,0,0-3.294-1.2919,4.5748,4.5748,0,0,0-3.2627,1.3242,5.0182,5.0182,0,0,0-1.582,3.3271v.3555Z"/><path d="M85.0283,105.5762a7.6331,7.6331,0,0,1-1.7763-5.1035,7.93,7.93,0,0,1,1.7763-5.1993,5.351,5.351,0,0,1,4.2627-2.164,4.93,4.93,0,0,1,2.9072.9365,5.4893,5.4893,0,0,1,1.8731,2.5195V88.2h1.292v19.1523h-1.292V104.543a4.5625,4.5625,0,0,1-1.8408,2.2929,5.1335,5.1335,0,0,1-2.94.8721A5.3783,5.3783,0,0,1,85.0283,105.5762Zm7.6543-.6787a7.1327,7.1327,0,0,0,1.3887-4.4248A7.0032,7.0032,0,0,0,92.6826,96.08a4.1893,4.1893,0,0,0-3.3916-1.8408A4.1013,4.1013,0,0,0,85.9326,96.08a6.9983,6.9983,0,0,0-1.39,4.3926,7.1277,7.1277,0,0,0,1.39,4.4248,4.1,4.1,0,0,0,3.3584,1.8418A4.1881,4.1881,0,0,0,92.6826,104.8975Z"/><path d="M100.3369,105.835a9.3978,9.3978,0,0,1,0-10.7237,5.5245,5.5245,0,0,1,4.457-2.0019A5.7427,5.7427,0,0,1,109.251,94.95a7.0066,7.0066,0,0,1,1.68,4.9092v.6133H99.9492a7.047,7.047,0,0,0,1.3242,4.49,4.2584,4.2584,0,0,0,3.52,1.6787,5.2769,5.2769,0,0,0,2.9707-.8721,4.6586,4.6586,0,0,0,1.8741-2.3574h1.292a4.82,4.82,0,0,1-2.0674,3.165,6.7676,6.7676,0,0,1-4.0694,1.26A5.5245,5.5245,0,0,1,100.3369,105.835Zm9.3018-6.5889v-.4844a4.9032,4.9032,0,0,0-1.5508-3.2305,4.7527,4.7527,0,0,0-3.294-1.2919,4.5748,4.5748,0,0,0-3.2627,1.3242,5.0182,5.0182,0,0,0-1.582,3.3271v.3555Z"/><path d="M114.8389,106.9648a3.0021,3.0021,0,0,1-.7432-2.0673V94.5947h-1.97V93.5938h1.97V89.6855h1.292v3.9083h1.873v1.0009h-1.873v10.3028a2.307,2.307,0,0,0,.42,1.39,1.1393,1.1393,0,0,0,.9688.5811,1.96,1.96,0,0,0,1.0009-.2266v.9375a3.5154,3.5154,0,0,1-1.0976.2578A2.386,2.386,0,0,1,114.8389,106.9648Z"/><path d="M131.2461,105.835a9.3978,9.3978,0,0,1,0-10.7237,5.5244,5.5244,0,0,1,4.457-2.0019A5.7428,5.7428,0,0,1,140.16,94.95a7.0065,7.0065,0,0,1,1.68,4.9092v.6133H130.8584a7.047,7.047,0,0,0,1.3242,4.49,4.2584,4.2584,0,0,0,3.52,1.6787,5.2769,5.2769,0,0,0,2.9707-.8721,4.6586,4.6586,0,0,0,1.8741-2.3574H141.84a4.82,4.82,0,0,1-2.0673,3.165,6.7678,6.7678,0,0,1-4.0694,1.26A5.5244,5.5244,0,0,1,131.2461,105.835Zm9.3018-6.5889v-.4844a4.9032,4.9032,0,0,0-1.5508-3.2305,4.7527,4.7527,0,0,0-3.294-1.2919,4.5748,4.5748,0,0,0-3.2627,1.3242,5.0182,5.0182,0,0,0-1.582,3.3271v.3555Z"/><path d="M144.876,107.3525V93.5938h1.292v3.1a5.86,5.86,0,0,1,1.6142-2.4228,3.6062,3.6062,0,0,1,2.3262-.9043h.7422v1.4863a.5093.5093,0,0,1-.2256-.0654.35.35,0,0,0-.13-.0645,3.7189,3.7189,0,0,0-2.7451,1.292,6.2077,6.2077,0,0,0-1.582,3.2627v8.0742Z"/><path d="M166.708,106.9648a5.3857,5.3857,0,0,1-1.97-2.2929v2.6806h-1.292V88.2h1.292v8.4941a5.0757,5.0757,0,0,1,4.8125-3.3271,5.3067,5.3067,0,0,1,4.3271,1.9707,9.2354,9.2354,0,0,1,0,10.5293,5.3059,5.3059,0,0,1-4.3271,1.97A5.0755,5.0755,0,0,1,166.708,106.9648Zm6.33-1.9052a8.3338,8.3338,0,0,0,0-8.9141,4.2251,4.2251,0,0,0-3.4873-1.68,4.1474,4.1474,0,0,0-3.3916,1.8086,7.3024,7.3024,0,0,0,0,8.6563,4.1474,4.1474,0,0,0,3.3916,1.8086A4.2251,4.2251,0,0,0,173.0381,105.06Z"/><path d="M178.82,107.3525V88.2h1.292v19.1523Z"/><path d="M185.0859,105.835a9.3978,9.3978,0,0,1,0-10.7237,5.5246,5.5246,0,0,1,4.4571-2.0019A5.7426,5.7426,0,0,1,194,94.95a7.0066,7.0066,0,0,1,1.68,4.9092v.6133H184.6982a7.047,7.047,0,0,0,1.3243,4.49,4.2583,4.2583,0,0,0,3.52,1.6787,5.2771,5.2771,0,0,0,2.9707-.8721,4.6584,4.6584,0,0,0,1.874-2.3574h1.292a4.82,4.82,0,0,1-2.0674,3.165,6.7675,6.7675,0,0,1-4.0693,1.26A5.5246,5.5246,0,0,1,185.0859,105.835Zm9.3018-6.5889v-.4844a4.9032,4.9032,0,0,0-1.5508-3.2305,4.7527,4.7527,0,0,0-3.2939-1.2919,4.5747,4.5747,0,0,0-3.2627,1.3242,5.0183,5.0183,0,0,0-1.5821,3.3271v.3555Z"/><path d="M202.2041,107.3525l-5.1357-13.7587h1.1953l4.6826,12.2734,4.4248-12.2734h1.2275l-5.0381,13.7587Z"/><path d="M211.9258,105.835a9.3978,9.3978,0,0,1,0-10.7237,5.5244,5.5244,0,0,1,4.457-2.0019A5.7424,5.7424,0,0,1,220.84,94.95a7.0061,7.0061,0,0,1,1.68,4.9092v.6133H211.5381a7.047,7.047,0,0,0,1.3242,4.49,4.2584,4.2584,0,0,0,3.52,1.6787,5.2769,5.2769,0,0,0,2.9707-.8721,4.6579,4.6579,0,0,0,1.874-2.3574h1.292a4.82,4.82,0,0,1-2.0674,3.165,6.7673,6.7673,0,0,1-4.0693,1.26A5.5244,5.5244,0,0,1,211.9258,105.835Zm9.3017-6.5889v-.4844a4.9035,4.9035,0,0,0-1.5507-3.2305,4.7527,4.7527,0,0,0-3.294-1.2919,4.5748,4.5748,0,0,0-3.2627,1.3242,5.0182,5.0182,0,0,0-1.582,3.3271v.3555Z"/><path d="M226.4277,106.9648a3.002,3.002,0,0,1-.7431-2.0673V94.5947h-1.97V93.5938h1.97V89.6855h1.292v3.9083h1.873v1.0009h-1.873v10.3028a2.307,2.307,0,0,0,.42,1.39,1.1391,1.1391,0,0,0,.9687.5811,1.96,1.96,0,0,0,1.001-.2266v.9375a3.5154,3.5154,0,0,1-1.0976.2578A2.3861,2.3861,0,0,1,226.4277,106.9648Z"/><path d="M242.835,105.5762a7.6326,7.6326,0,0,1-1.7764-5.1035,7.93,7.93,0,0,1,1.7764-5.1993,5.351,5.351,0,0,1,4.2627-2.164,4.93,4.93,0,0,1,2.9072.9365,5.49,5.49,0,0,1,1.873,2.5195V88.2h1.292v19.1523h-1.292V104.543a4.5625,4.5625,0,0,1-1.8408,2.2929,5.1329,5.1329,0,0,1-2.9394.8721A5.3783,5.3783,0,0,1,242.835,105.5762Zm7.6543-.6787a7.1333,7.1333,0,0,0,1.3886-4.4248,7.0037,7.0037,0,0,0-1.3886-4.3926,4.19,4.19,0,0,0-3.3916-1.8408,4.1013,4.1013,0,0,0-3.3584,1.8408,6.9978,6.9978,0,0,0-1.39,4.3926,7.1272,7.1272,0,0,0,1.39,4.4248,4.1,4.1,0,0,0,3.3584,1.8418A4.1883,4.1883,0,0,0,250.4893,104.8975Z"/><path d="M258.1436,105.835a9.3978,9.3978,0,0,1,0-10.7237,5.5243,5.5243,0,0,1,4.457-2.0019,5.7426,5.7426,0,0,1,4.457,1.8408,7.0061,7.0061,0,0,1,1.68,4.9092v.6133H257.7559a7.047,7.047,0,0,0,1.3242,4.49,4.2583,4.2583,0,0,0,3.52,1.6787,5.2771,5.2771,0,0,0,2.9707-.8721,4.6579,4.6579,0,0,0,1.874-2.3574h1.292a4.82,4.82,0,0,1-2.0674,3.165,6.7675,6.7675,0,0,1-4.0693,1.26A5.5243,5.5243,0,0,1,258.1436,105.835Zm9.3017-6.5889v-.4844a4.9032,4.9032,0,0,0-1.5508-3.2305,4.7525,4.7525,0,0,0-3.2939-1.2919,4.5748,4.5748,0,0,0-3.2627,1.3242,5.0177,5.0177,0,0,0-1.582,3.3271v.3555Z"/><path d="M271.7734,107.3525V88.2h1.292v19.1523Z"/><path d="M278.0713,106.9648a3.0021,3.0021,0,0,1-.7432-2.0673V94.5947h-1.97V93.5938h1.97V89.6855h1.292v3.9083h1.8731v1.0009H278.62v10.3028a2.3077,2.3077,0,0,0,.42,1.39,1.1394,1.1394,0,0,0,.9688.5811,1.96,1.96,0,0,0,1.001-.2266v.9375a3.5165,3.5165,0,0,1-1.0977.2578A2.386,2.386,0,0,1,278.0713,106.9648Z"/><path d="M283.3037,105.3828h1.8731v1.97h-1.8731Z"/><path d="M299.6455,107.3525V88.2h1.292v8.3652H312.5V88.2h1.292v19.1523H312.5V97.792H300.9375v9.5605Z"/><path d="M321.4141,107.3525l-5.1358-13.7587h1.1953l4.6826,12.2734,4.4249-12.2734h1.2275l-5.0381,13.7587Z"/><path d="M330.6182,106.707a3.3414,3.3414,0,0,1-.0323-5.4912,6.1666,6.1666,0,0,1,3.4883-1.3564,14.4121,14.4121,0,0,0,3.3272-.6455q1.3242-.4527,1.3242-1.0664V96.92a2.1392,2.1392,0,0,0-1.1631-1.8086,5.4919,5.4919,0,0,0-5.458-.0322,2.1119,2.1119,0,0,0-1.0986,1.7441v.711h-1.2266v-.84a2.8036,2.8036,0,0,1,1.4531-2.3584,6.3625,6.3625,0,0,1,3.5528-.9687,6.8185,6.8185,0,0,1,3.6494.9365,2.6791,2.6791,0,0,1,1.5185,2.2617v8.3321a2.6184,2.6184,0,0,0,.3545,1.39,1.0248,1.0248,0,0,0,.8721.5811,1.2052,1.2052,0,0,0,.291-.0323.4089.4089,0,0,0,.1934-.0966v.6132a2.9056,2.9056,0,0,1-1.2266.2266,1.6489,1.6489,0,0,1-1.292-.6465,2.4026,2.4026,0,0,1-.5166-1.55,3.2816,3.2816,0,0,1-1.6475,1.7764,6.0372,6.0372,0,0,1-2.9072.6777A5.3814,5.3814,0,0,1,330.6182,106.707Zm6.4922-.97a4.52,4.52,0,0,0,1.6152-2.81v-3.165a3.9242,3.9242,0,0,1-1.6475.6455,22.6862,22.6862,0,0,1-3.0039.42,4.3282,4.3282,0,0,0-2.5517,1.0342,2.63,2.63,0,0,0-1.0332,2.0664,2.542,2.542,0,0,0,1.0664,2.0674,3.7743,3.7743,0,0,0,2.5185.8721A4.5409,4.5409,0,0,0,337.11,105.7373Z"/><path d="M344.9912,105.5762a7.6326,7.6326,0,0,1-1.7764-5.1035,7.93,7.93,0,0,1,1.7764-5.1993,5.351,5.351,0,0,1,4.2627-2.164,4.93,4.93,0,0,1,2.9072.9365,5.4893,5.4893,0,0,1,1.8731,2.5195V88.2h1.292v19.1523h-1.292V104.543a4.5625,4.5625,0,0,1-1.8408,2.2929,5.1335,5.1335,0,0,1-2.94.8721A5.3783,5.3783,0,0,1,344.9912,105.5762Zm7.6543-.6787a7.1327,7.1327,0,0,0,1.3887-4.4248,7.0032,7.0032,0,0,0-1.3887-4.3926,4.1893,4.1893,0,0,0-3.3916-1.8408,4.1013,4.1013,0,0,0-3.3584,1.8408,6.9983,6.9983,0,0,0-1.39,4.3926,7.1277,7.1277,0,0,0,1.39,4.4248,4.1,4.1,0,0,0,3.3584,1.8418A4.1881,4.1881,0,0,0,352.6455,104.8975Z"/><path d="M38.0674,138.5527V119.4h1.292v12.5312l7.3633-7.1377h1.6152L43.041,129.832l5.91,8.7207H47.5947l-5.3935-7.8486-2.8418,2.7129v5.1357Z"/><path d="M51.6318,137.9072A3.3415,3.3415,0,0,1,51.6,132.416a6.1666,6.1666,0,0,1,3.4883-1.3564,14.4111,14.4111,0,0,0,3.3271-.6455q1.3244-.4527,1.3243-1.0664V128.12a2.1392,2.1392,0,0,0-1.1631-1.8086,5.4919,5.4919,0,0,0-5.458-.0322,2.1118,2.1118,0,0,0-1.0987,1.7441v.711H50.793v-.84a2.8033,2.8033,0,0,1,1.4531-2.3584,6.3622,6.3622,0,0,1,3.5527-.9687,6.8185,6.8185,0,0,1,3.6494.9365,2.6791,2.6791,0,0,1,1.5186,2.2617v8.3321a2.6184,2.6184,0,0,0,.3545,1.39,1.0247,1.0247,0,0,0,.8721.5811,1.2058,1.2058,0,0,0,.291-.0323.409.409,0,0,0,.1933-.0966v.6132a2.9048,2.9048,0,0,1-1.2265.2266,1.6489,1.6489,0,0,1-1.292-.6465,2.4029,2.4029,0,0,1-.5166-1.55,3.2816,3.2816,0,0,1-1.6475,1.7764,6.0375,6.0375,0,0,1-2.9072.6777A5.3816,5.3816,0,0,1,51.6318,137.9072Zm6.4922-.97a4.52,4.52,0,0,0,1.6153-2.81v-3.165a3.9242,3.9242,0,0,1-1.6475.6455,22.703,22.703,0,0,1-3.0039.42,4.3288,4.3288,0,0,0-2.5518,1.0342,2.63,2.63,0,0,0-1.0332,2.0664,2.5423,2.5423,0,0,0,1.0664,2.0674,3.7748,3.7748,0,0,0,2.5186.8721A4.54,4.54,0,0,0,58.124,136.9375Z"/><path d="M65.165,138.5527V124.7939h1.292v2.3252a4.4091,4.4091,0,0,1,1.7764-1.9375,5.1379,5.1379,0,0,1,6.1045.5811,4.2715,4.2715,0,0,1,1.4531,3.23v9.56H74.499v-9.56a3.2,3.2,0,0,0-1.0664-2.4219,3.5957,3.5957,0,0,0-2.5508-1.001,4.2542,4.2542,0,0,0-2.875,1.0977,4.7617,4.7617,0,0,0-1.55,2.81v9.0761Z"/><path d="M90.874,136.7764a7.6331,7.6331,0,0,1-1.7763-5.1035,7.93,7.93,0,0,1,1.7763-5.1993,5.3507,5.3507,0,0,1,4.2627-2.164,4.93,4.93,0,0,1,2.9072.9365,5.4893,5.4893,0,0,1,1.8731,2.52V119.4h1.292v19.1523H99.917v-2.8095a4.5625,4.5625,0,0,1-1.8408,2.2929,5.1332,5.1332,0,0,1-2.9395.8721A5.3783,5.3783,0,0,1,90.874,136.7764Zm7.6543-.6787a7.1327,7.1327,0,0,0,1.3887-4.4248,7.0032,7.0032,0,0,0-1.3887-4.3926,4.1893,4.1893,0,0,0-3.3916-1.8408,4.1013,4.1013,0,0,0-3.3584,1.8408,6.9983,6.9983,0,0,0-1.39,4.3926,7.1277,7.1277,0,0,0,1.39,4.4248,4.1,4.1,0,0,0,3.3584,1.8418A4.1881,4.1881,0,0,0,98.5283,136.0977Z"/><path d="M106.1826,137.0352a9.3978,9.3978,0,0,1,0-10.7237,5.5245,5.5245,0,0,1,4.457-2.0019,5.7427,5.7427,0,0,1,4.4571,1.8408,7.0064,7.0064,0,0,1,1.68,4.9092v.6133H105.7949a7.0476,7.0476,0,0,0,1.3242,4.49,4.2585,4.2585,0,0,0,3.52,1.6787,5.2775,5.2775,0,0,0,2.9708-.8721,4.6589,4.6589,0,0,0,1.874-2.3574h1.292a4.82,4.82,0,0,1-2.0674,3.165,6.7676,6.7676,0,0,1-4.0694,1.26A5.5245,5.5245,0,0,1,106.1826,137.0352Zm9.3018-6.5889v-.4844a4.9032,4.9032,0,0,0-1.5508-3.2305,4.7527,4.7527,0,0,0-3.294-1.2919,4.5744,4.5744,0,0,0-3.2626,1.3242,5.0178,5.0178,0,0,0-1.5821,3.3271v.3555Z"/><path d="M119.8125,138.5527V124.7939h1.292v3.1006a5.86,5.86,0,0,1,1.6143-2.4228,3.6059,3.6059,0,0,1,2.3261-.9043h.7422v1.4863a.51.51,0,0,1-.2256-.0654.3494.3494,0,0,0-.13-.0645,3.7189,3.7189,0,0,0-2.7451,1.292,6.2081,6.2081,0,0,0-1.582,3.2627v8.0742Z"/><path d="M138.8027,137.6162a3.941,3.941,0,0,1-1.5507-3.1328h1.1953a3.0243,3.0243,0,0,0,1.1953,2.39,4.413,4.413,0,0,0,2.874.9688,5.1861,5.1861,0,0,0,3.1328-.8721,2.8471,2.8471,0,0,0,1.1631-2.3574,2.22,2.22,0,0,0-1.2275-1.873,7.7649,7.7649,0,0,0-3.294-.9366,6.3574,6.3574,0,0,1-3.4883-1.2275,3.1229,3.1229,0,0,1-1.3242-2.5518,3.0529,3.0529,0,0,1,1.3242-2.6484,6.3562,6.3562,0,0,1,3.7139-.9365,6.0171,6.0171,0,0,1,3.6494,1.001,3.1446,3.1446,0,0,1,1.39,2.6806h-1.2276a2.9619,2.9619,0,0,0-1.2275-1.97,4.3666,4.3666,0,0,0-2.584-.7109,4.8236,4.8236,0,0,0-2.7773.7109,2.1754,2.1754,0,0,0-1.0342,1.873,2.2147,2.2147,0,0,0,1.26,1.8731,7.7486,7.7486,0,0,0,3.295.9365,6.2029,6.2029,0,0,1,3.4882,1.292,3.5843,3.5843,0,0,1-.2265,5.6846,6.591,6.591,0,0,1-4.0049,1.0986A5.5325,5.5325,0,0,1,138.8027,137.6162Z"/><path d="M151.0439,138.5527V119.4h1.292v12.5312l7.3633-7.1377h1.6153l-5.2969,5.0381,5.91,8.7207h-1.3564l-5.3936-7.8486-2.8418,2.7129v5.1357Z"/><path d="M165.126,137.0352a9.3978,9.3978,0,0,1,0-10.7237,5.5244,5.5244,0,0,1,4.457-2.0019,5.7424,5.7424,0,0,1,4.457,1.8408,7.0059,7.0059,0,0,1,1.68,4.9092v.6133H164.7383a7.047,7.047,0,0,0,1.3242,4.49,4.2584,4.2584,0,0,0,3.52,1.6787,5.2769,5.2769,0,0,0,2.9707-.8721,4.6579,4.6579,0,0,0,1.874-2.3574h1.292a4.82,4.82,0,0,1-2.0674,3.165,6.7673,6.7673,0,0,1-4.0693,1.26A5.5244,5.5244,0,0,1,165.126,137.0352Zm9.3017-6.5889v-.4844a4.9035,4.9035,0,0,0-1.5507-3.2305,4.7527,4.7527,0,0,0-3.294-1.2919,4.5748,4.5748,0,0,0-3.2627,1.3242,5.0177,5.0177,0,0,0-1.582,3.3271v.3555Z"/><path d="M189.0908,138.5527V124.7939h1.292v2.3252a4.684,4.684,0,0,1,1.6465-1.9375,3.9359,3.9359,0,0,1,2.2939-.7431,4.31,4.31,0,0,1,2.5508.7754,3.583,3.583,0,0,1,1.4541,2.0341,4.6715,4.6715,0,0,1,1.8408-2.0341,5.1423,5.1423,0,0,1,2.7452-.7754,4.4314,4.4314,0,0,1,3.165,1.26,4.0868,4.0868,0,0,1,1.292,3.0362v9.8183h-1.292v-9.8183a3.2313,3.2313,0,0,0-.9365-2.3262,2.9289,2.9289,0,0,0-2.2285-.9687,3.96,3.96,0,0,0-2.7129,1.0664,4.5867,4.5867,0,0,0-1.4854,2.7129v9.3339h-1.292v-9.8183a3.3607,3.3607,0,0,0-.872-2.3262,2.7292,2.7292,0,0,0-2.1-.9687,3.6632,3.6632,0,0,0-2.6162,1.1308,5.4926,5.4926,0,0,0-1.4531,2.9063v9.0761Z"/><path d="M212.1514,137.0352a9.3978,9.3978,0,0,1,0-10.7237,5.5244,5.5244,0,0,1,4.457-2.0019,5.7424,5.7424,0,0,1,4.457,1.8408,7.0059,7.0059,0,0,1,1.68,4.9092v.6133H211.7637a7.047,7.047,0,0,0,1.3242,4.49,4.2584,4.2584,0,0,0,3.52,1.6787,5.2769,5.2769,0,0,0,2.9707-.8721,4.6579,4.6579,0,0,0,1.874-2.3574h1.292a4.82,4.82,0,0,1-2.0674,3.165,6.7675,6.7675,0,0,1-4.0693,1.26A5.5244,5.5244,0,0,1,212.1514,137.0352Zm9.3017-6.5889v-.4844a4.9032,4.9032,0,0,0-1.5508-3.2305,4.7525,4.7525,0,0,0-3.2939-1.2919,4.5748,4.5748,0,0,0-3.2627,1.3242,5.0177,5.0177,0,0,0-1.582,3.3271v.3555Z"/><path d="M226.6211,136.7764a7.6326,7.6326,0,0,1-1.7764-5.1035,7.93,7.93,0,0,1,1.7764-5.1993,5.3507,5.3507,0,0,1,4.2627-2.164,4.93,4.93,0,0,1,2.9072.9365,5.4893,5.4893,0,0,1,1.8731,2.52V119.4h1.292v19.1523h-1.292v-2.8095a4.5627,4.5627,0,0,1-1.8409,2.2929,5.1329,5.1329,0,0,1-2.9394.8721A5.3783,5.3783,0,0,1,226.6211,136.7764Zm7.6543-.6787a7.1327,7.1327,0,0,0,1.3887-4.4248,7.0032,7.0032,0,0,0-1.3887-4.3926,4.1894,4.1894,0,0,0-3.3916-1.8408,4.1013,4.1013,0,0,0-3.3584,1.8408,6.9978,6.9978,0,0,0-1.39,4.3926,7.1272,7.1272,0,0,0,1.39,4.4248,4.1,4.1,0,0,0,3.3584,1.8418A4.1882,4.1882,0,0,0,234.2754,136.0977Z"/><path d="M251.4248,138.5527V119.4h1.292v7.9775a5.2418,5.2418,0,0,1,1.9375-2.2285,4.8449,4.8449,0,0,1,2.7451-.84,4.4413,4.4413,0,0,1,3.3272,1.4531,4.7611,4.7611,0,0,1,1.3886,3.4561v9.3339h-1.292v-9.0761a4.2076,4.2076,0,0,0-1.0009-2.8418,3.0577,3.0577,0,0,0-2.4229-1.1953,4.1929,4.1929,0,0,0-2.874,1.163,5.69,5.69,0,0,0-1.8086,2.9717v8.9785Z"/><path d="M266.8633,137.0352a9.3978,9.3978,0,0,1,0-10.7237,5.5244,5.5244,0,0,1,4.457-2.0019,5.7424,5.7424,0,0,1,4.457,1.8408,7.0059,7.0059,0,0,1,1.68,4.9092v.6133H266.4756a7.047,7.047,0,0,0,1.3242,4.49,4.2584,4.2584,0,0,0,3.52,1.6787,5.2769,5.2769,0,0,0,2.9707-.8721,4.6579,4.6579,0,0,0,1.874-2.3574h1.292a4.82,4.82,0,0,1-2.0674,3.165,6.7673,6.7673,0,0,1-4.0693,1.26A5.5244,5.5244,0,0,1,266.8633,137.0352Zm9.3017-6.5889v-.4844a4.9035,4.9035,0,0,0-1.5507-3.2305,4.7527,4.7527,0,0,0-3.294-1.2919,4.5748,4.5748,0,0,0-3.2627,1.3242,5.0182,5.0182,0,0,0-1.582,3.3271v.3555Z"/><path d="M280.4932,138.5527V124.7939h1.292v2.3252a4.4089,4.4089,0,0,1,1.7763-1.9375,5.1379,5.1379,0,0,1,6.1045.5811,4.2711,4.2711,0,0,1,1.4531,3.23v9.56h-1.292v-9.56a3.2,3.2,0,0,0-1.0664-2.4219,3.5957,3.5957,0,0,0-2.5507-1.001,4.2538,4.2538,0,0,0-2.875,1.0977,4.7606,4.7606,0,0,0-1.55,2.81v9.0761Z"/><path d="M295.8672,136.7764a7.6326,7.6326,0,0,1-1.7764-5.1035,7.93,7.93,0,0,1,1.7764-5.1993,5.3507,5.3507,0,0,1,4.2627-2.164,4.93,4.93,0,0,1,2.9072.9365,5.4893,5.4893,0,0,1,1.8731,2.52V119.4h1.2919v19.1523H304.91v-2.8095a4.5633,4.5633,0,0,1-1.8409,2.2929,5.1329,5.1329,0,0,1-2.9394.8721A5.3783,5.3783,0,0,1,295.8672,136.7764Zm7.6543-.6787a7.1327,7.1327,0,0,0,1.3887-4.4248,7.0032,7.0032,0,0,0-1.3887-4.3926A4.1894,4.1894,0,0,0,300.13,125.44a4.1013,4.1013,0,0,0-3.3584,1.8408,6.9978,6.9978,0,0,0-1.39,4.3926,7.1272,7.1272,0,0,0,1.39,4.4248A4.1,4.1,0,0,0,300.13,137.94,4.1882,4.1882,0,0,0,303.5215,136.0977Z"/><path d="M311.1758,137.0352a9.3978,9.3978,0,0,1,0-10.7237,5.5244,5.5244,0,0,1,4.457-2.0019,5.7424,5.7424,0,0,1,4.457,1.8408,7.0059,7.0059,0,0,1,1.68,4.9092v.6133H310.7881a7.047,7.047,0,0,0,1.3242,4.49,4.2584,4.2584,0,0,0,3.52,1.6787,5.2769,5.2769,0,0,0,2.9707-.8721,4.6579,4.6579,0,0,0,1.874-2.3574h1.292a4.82,4.82,0,0,1-2.0674,3.165,6.7673,6.7673,0,0,1-4.0693,1.26A5.5244,5.5244,0,0,1,311.1758,137.0352Zm9.3017-6.5889v-.4844a4.9035,4.9035,0,0,0-1.5507-3.2305,4.7527,4.7527,0,0,0-3.294-1.2919,4.5748,4.5748,0,0,0-3.2627,1.3242,5.0182,5.0182,0,0,0-1.582,3.3271v.3555Z"/><path d="M38.9072,167.9766a7.6333,7.6333,0,0,1-1.7763-5.1036,7.93,7.93,0,0,1,1.7763-5.1992A5.3507,5.3507,0,0,1,43.17,155.51a4.93,4.93,0,0,1,2.9072.9365,5.4893,5.4893,0,0,1,1.8731,2.5195v-8.3652h1.292v19.1523H47.95v-2.81a4.5625,4.5625,0,0,1-1.8408,2.2929,5.1332,5.1332,0,0,1-2.94.8721A5.3783,5.3783,0,0,1,38.9072,167.9766Zm7.6543-.6787A7.1328,7.1328,0,0,0,47.95,162.873a7.0031,7.0031,0,0,0-1.3887-4.3925A4.1894,4.1894,0,0,0,43.17,156.64a4.1014,4.1014,0,0,0-3.3584,1.8409,6.9982,6.9982,0,0,0-1.39,4.3925,7.1278,7.1278,0,0,0,1.39,4.4249A4.1,4.1,0,0,0,43.17,169.14,4.1879,4.1879,0,0,0,46.5615,167.2979Z"/><path d="M54.2158,168.2354a9.3978,9.3978,0,0,1,0-10.7237,5.5246,5.5246,0,0,1,4.4571-2.0019,5.7423,5.7423,0,0,1,4.457,1.8408,7.0064,7.0064,0,0,1,1.68,4.9092v.6132H53.8281a7.0477,7.0477,0,0,0,1.3242,4.49,4.2586,4.2586,0,0,0,3.5206,1.6787,5.2774,5.2774,0,0,0,2.9707-.8721,4.6588,4.6588,0,0,0,1.874-2.3574H64.81a4.82,4.82,0,0,1-2.0674,3.165,6.7675,6.7675,0,0,1-4.0693,1.26A5.5246,5.5246,0,0,1,54.2158,168.2354Zm9.3018-6.5889v-.4844a4.9032,4.9032,0,0,0-1.5508-3.2305,4.7528,4.7528,0,0,0-3.2939-1.292,4.5746,4.5746,0,0,0-3.2627,1.3243,5.0178,5.0178,0,0,0-1.5821,3.3271v.3555Z"/><path d="M67.8457,169.7529V155.9941h1.292v3.1006a5.86,5.86,0,0,1,1.6143-2.4228,3.6059,3.6059,0,0,1,2.3261-.9043H73.82v1.4863a.51.51,0,0,1-.2256-.0654.3494.3494,0,0,0-.13-.0645,3.7189,3.7189,0,0,0-2.7451,1.292,6.2081,6.2081,0,0,0-1.582,3.2627v8.0742Z"/><path d="M86.8359,168.8164a3.941,3.941,0,0,1-1.5507-3.1328h1.1953a3.0244,3.0244,0,0,0,1.1953,2.39,4.413,4.413,0,0,0,2.874.9688,5.1861,5.1861,0,0,0,3.1328-.8721,2.8472,2.8472,0,0,0,1.1631-2.3574,2.22,2.22,0,0,0-1.2275-1.873,7.7649,7.7649,0,0,0-3.294-.9366,6.3582,6.3582,0,0,1-3.4883-1.2275,3.1229,3.1229,0,0,1-1.3242-2.5518,3.0529,3.0529,0,0,1,1.3242-2.6484,6.3562,6.3562,0,0,1,3.7139-.9365,6.0178,6.0178,0,0,1,3.6494,1.0009,3.1449,3.1449,0,0,1,1.39,2.6807H94.3613a2.9619,2.9619,0,0,0-1.2275-1.97,4.3667,4.3667,0,0,0-2.584-.711,4.8236,4.8236,0,0,0-2.7773.711,2.1754,2.1754,0,0,0-1.0342,1.873,2.2147,2.2147,0,0,0,1.26,1.8731,7.7486,7.7486,0,0,0,3.295.9365,6.2027,6.2027,0,0,1,3.4882,1.292,3.5843,3.5843,0,0,1-.2265,5.6846,6.5908,6.5908,0,0,1-4.0049,1.0986A5.5325,5.5325,0,0,1,86.8359,168.8164Z"/><path d="M99.917,168.2354a9.3978,9.3978,0,0,1,0-10.7237,5.5244,5.5244,0,0,1,4.457-2.0019,5.7425,5.7425,0,0,1,4.4571,1.8408,7.0063,7.0063,0,0,1,1.68,4.9092v.6132H99.5293a7.0471,7.0471,0,0,0,1.3242,4.49,4.2584,4.2584,0,0,0,3.52,1.6787,5.2769,5.2769,0,0,0,2.9707-.8721,4.659,4.659,0,0,0,1.8741-2.3574h1.2919a4.82,4.82,0,0,1-2.0673,3.165,6.7678,6.7678,0,0,1-4.0694,1.26A5.5244,5.5244,0,0,1,99.917,168.2354Zm9.3018-6.5889v-.4844a4.9032,4.9032,0,0,0-1.5508-3.2305,4.7528,4.7528,0,0,0-3.294-1.292,4.5749,4.5749,0,0,0-3.2627,1.3243,5.0182,5.0182,0,0,0-1.582,3.3271v.3555Z"/><path d="M113.5469,169.7529V155.9941h1.292v2.3252a4.4094,4.4094,0,0,1,1.7763-1.9375,5.1379,5.1379,0,0,1,6.1045.5811,4.2712,4.2712,0,0,1,1.4532,3.23v9.5605h-1.292v-9.5605a3.2,3.2,0,0,0-1.0664-2.4219,3.5961,3.5961,0,0,0-2.5508-1.001,4.2538,4.2538,0,0,0-2.875,1.0977,4.7606,4.7606,0,0,0-1.55,2.81v9.0761Z"/><path d="M128.9209,167.9766a7.6329,7.6329,0,0,1-1.7764-5.1036,7.93,7.93,0,0,1,1.7764-5.1992,5.3507,5.3507,0,0,1,4.2627-2.164,4.93,4.93,0,0,1,2.9072.9365,5.4893,5.4893,0,0,1,1.8731,2.5195v-8.3652h1.292v19.1523h-1.292v-2.81a4.5627,4.5627,0,0,1-1.8409,2.2929,5.1329,5.1329,0,0,1-2.9394.8721A5.3783,5.3783,0,0,1,128.9209,167.9766Zm7.6543-.6787a7.1328,7.1328,0,0,0,1.3887-4.4249,7.0031,7.0031,0,0,0-1.3887-4.3925,4.1894,4.1894,0,0,0-3.3916-1.8409,4.1014,4.1014,0,0,0-3.3584,1.8409,6.9977,6.9977,0,0,0-1.39,4.3925,7.1272,7.1272,0,0,0,1.39,4.4249,4.1,4.1,0,0,0,3.3584,1.8417A4.1879,4.1879,0,0,0,136.5752,167.2979Z"/><path d="M144.2617,169.3652a3.002,3.002,0,0,1-.7431-2.0673V156.9951h-1.97v-1.001h1.97v-3.9082h1.2919v3.9082h1.8731v1.001h-1.8731v10.3028a2.3071,2.3071,0,0,0,.42,1.39,1.1391,1.1391,0,0,0,.9687.5811,1.96,1.96,0,0,0,1.001-.2266v.9375a3.5153,3.5153,0,0,1-1.0977.2578A2.386,2.386,0,0,1,144.2617,169.3652Z"/><path d="M150.334,168.2354a9.3978,9.3978,0,0,1,0-10.7237,5.5244,5.5244,0,0,1,4.457-2.0019,5.7421,5.7421,0,0,1,4.457,1.8408,7.0059,7.0059,0,0,1,1.68,4.9092v.6132H149.9463a7.0471,7.0471,0,0,0,1.3242,4.49,4.2584,4.2584,0,0,0,3.52,1.6787,5.2769,5.2769,0,0,0,2.9707-.8721,4.6583,4.6583,0,0,0,1.874-2.3574h1.292a4.82,4.82,0,0,1-2.0673,3.165,6.7678,6.7678,0,0,1-4.0694,1.26A5.5244,5.5244,0,0,1,150.334,168.2354Zm9.3017-6.5889v-.4844a4.9035,4.9035,0,0,0-1.5507-3.2305,4.7528,4.7528,0,0,0-3.294-1.292,4.5749,4.5749,0,0,0-3.2627,1.3243,5.0182,5.0182,0,0,0-1.582,3.3271v.3555Z"/><path d="M177.5605,169.3652a5.3864,5.3864,0,0,1-1.97-2.2929v2.6806h-1.292V150.6006h1.292v8.4941a5.0759,5.0759,0,0,1,4.8125-3.3271,5.3071,5.3071,0,0,1,4.3272,1.9707,9.2359,9.2359,0,0,1,0,10.5293,5.3062,5.3062,0,0,1-4.3272,1.97A5.0758,5.0758,0,0,1,177.5605,169.3652Zm6.33-1.9052a8.3338,8.3338,0,0,0,0-8.9141,4.2251,4.2251,0,0,0-3.4873-1.68,4.1475,4.1475,0,0,0-3.3916,1.8086,7.3024,7.3024,0,0,0,0,8.6563,4.1474,4.1474,0,0,0,3.3916,1.8085A4.225,4.225,0,0,0,183.8906,167.46Z"/><path d="M189.6729,150.6006h1.2919v1.97h-1.2919Zm0,19.1523V155.9941h1.2919v13.7588Z"/><path d="M195.0986,169.7529V150.6006h1.292v19.1523Z"/><path d="M200.5244,169.7529V150.6006h1.292v19.1523Z"/><path d="M206.79,168.2354a9.3982,9.3982,0,0,1,0-10.7237,5.5246,5.5246,0,0,1,4.4571-2.0019,5.7423,5.7423,0,0,1,4.457,1.8408,7.0064,7.0064,0,0,1,1.68,4.9092v.6132H206.4023a7.0472,7.0472,0,0,0,1.3243,4.49,4.2583,4.2583,0,0,0,3.52,1.6787,5.2771,5.2771,0,0,0,2.9707-.8721,4.6588,4.6588,0,0,0,1.874-2.3574h1.292a4.82,4.82,0,0,1-2.0674,3.165,6.7675,6.7675,0,0,1-4.0693,1.26A5.5246,5.5246,0,0,1,206.79,168.2354Zm9.3018-6.5889v-.4844a4.9032,4.9032,0,0,0-1.5508-3.2305,4.7526,4.7526,0,0,0-3.2939-1.292,4.5748,4.5748,0,0,0-3.2627,1.3243,5.0183,5.0183,0,0,0-1.5821,3.3271v.3555Z"/><path d="M221.26,167.9766a7.6329,7.6329,0,0,1-1.7764-5.1036,7.93,7.93,0,0,1,1.7764-5.1992,5.3507,5.3507,0,0,1,4.2627-2.164,4.93,4.93,0,0,1,2.9072.9365,5.49,5.49,0,0,1,1.873,2.5195v-8.3652h1.292v19.1523h-1.292v-2.81a4.5625,4.5625,0,0,1-1.8408,2.2929,5.1329,5.1329,0,0,1-2.9394.8721A5.3783,5.3783,0,0,1,221.26,167.9766Zm7.6543-.6787a7.1334,7.1334,0,0,0,1.3886-4.4249,7.0036,7.0036,0,0,0-1.3886-4.3925,4.19,4.19,0,0,0-3.3916-1.8409,4.1014,4.1014,0,0,0-3.3584,1.8409,6.9977,6.9977,0,0,0-1.39,4.3925,7.1272,7.1272,0,0,0,1.39,4.4249,4.1,4.1,0,0,0,3.3584,1.8417A4.1882,4.1882,0,0,0,228.9141,167.2979Z"/><path d="M236.5684,168.2354a9.3978,9.3978,0,0,1,0-10.7237,5.5244,5.5244,0,0,1,4.457-2.0019,5.7421,5.7421,0,0,1,4.457,1.8408,7.0059,7.0059,0,0,1,1.68,4.9092v.6132H236.1807a7.0471,7.0471,0,0,0,1.3242,4.49,4.2583,4.2583,0,0,0,3.52,1.6787,5.2771,5.2771,0,0,0,2.9707-.8721,4.6583,4.6583,0,0,0,1.874-2.3574h1.292a4.82,4.82,0,0,1-2.0674,3.165,6.7675,6.7675,0,0,1-4.0693,1.26A5.5244,5.5244,0,0,1,236.5684,168.2354Zm9.3017-6.5889v-.4844a4.9032,4.9032,0,0,0-1.5508-3.2305,4.7526,4.7526,0,0,0-3.2939-1.292,4.5749,4.5749,0,0,0-3.2627,1.3243,5.0177,5.0177,0,0,0-1.582,3.3271v.3555Z"/><path d="M251.07,169.3652a3.0021,3.0021,0,0,1-.7432-2.0673V156.9951h-1.97v-1.001h1.97v-3.9082h1.292v3.9082h1.8731v1.001h-1.8731v10.3028a2.3071,2.3071,0,0,0,.42,1.39,1.1391,1.1391,0,0,0,.9687.5811,1.96,1.96,0,0,0,1.001-.2266v.9375a3.5159,3.5159,0,0,1-1.0977.2578A2.386,2.386,0,0,1,251.07,169.3652Z"/><path d="M270.126,169.7529,264.99,155.9941h1.1953l4.6827,12.2735,4.4248-12.2735h1.2275l-5.0381,13.7588Z"/><path d="M279.0078,150.6006H280.3v1.97h-1.292Zm0,19.1523V155.9941H280.3v13.7588Z"/><path d="M285.2734,167.9766a7.6333,7.6333,0,0,1-1.7763-5.1036,7.93,7.93,0,0,1,1.7763-5.1992,5.3507,5.3507,0,0,1,4.2627-2.164,4.93,4.93,0,0,1,2.9073.9365,5.49,5.49,0,0,1,1.873,2.5195v-8.3652h1.292v19.1523h-1.292v-2.81a4.5625,4.5625,0,0,1-1.8408,2.2929,5.133,5.133,0,0,1-2.94.8721A5.3783,5.3783,0,0,1,285.2734,167.9766Zm7.6543-.6787a7.1328,7.1328,0,0,0,1.3887-4.4249,7.0031,7.0031,0,0,0-1.3887-4.3925,4.1894,4.1894,0,0,0-3.3916-1.8409,4.1016,4.1016,0,0,0-3.3584,1.8409,6.9982,6.9982,0,0,0-1.39,4.3925,7.1278,7.1278,0,0,0,1.39,4.4249,4.1,4.1,0,0,0,3.3584,1.8417A4.1879,4.1879,0,0,0,292.9277,167.2979Z"/><path d="M300.582,168.2354a9.3978,9.3978,0,0,1,0-10.7237,5.5246,5.5246,0,0,1,4.4571-2.0019,5.7423,5.7423,0,0,1,4.457,1.8408,7.0064,7.0064,0,0,1,1.68,4.9092v.6132H300.1943a7.0472,7.0472,0,0,0,1.3243,4.49,4.2583,4.2583,0,0,0,3.5205,1.6787,5.2771,5.2771,0,0,0,2.9707-.8721,4.6588,4.6588,0,0,0,1.874-2.3574h1.292a4.82,4.82,0,0,1-2.0674,3.165,6.7675,6.7675,0,0,1-4.0693,1.26A5.5246,5.5246,0,0,1,300.582,168.2354Zm9.3018-6.5889v-.4844a4.9032,4.9032,0,0,0-1.5508-3.2305,4.7528,4.7528,0,0,0-3.2939-1.292,4.5746,4.5746,0,0,0-3.2627,1.3243,5.0183,5.0183,0,0,0-1.5821,3.3271v.3555Z"/><path d="M314.2119,169.7529V155.9941h1.292v3.1006a5.86,5.86,0,0,1,1.6143-2.4228,3.6059,3.6059,0,0,1,2.3261-.9043h.7422v1.4863a.51.51,0,0,1-.2256-.0654.35.35,0,0,0-.13-.0645,3.719,3.719,0,0,0-2.7452,1.292,6.2081,6.2081,0,0,0-1.582,3.2627v8.0742Z"/><path d="M323.2871,168.2354a9.3978,9.3978,0,0,1,0-10.7237,5.5244,5.5244,0,0,1,4.457-2.0019,5.7423,5.7423,0,0,1,4.4571,1.8408,7.0064,7.0064,0,0,1,1.68,4.9092v.6132H322.8994a7.0471,7.0471,0,0,0,1.3242,4.49,4.2584,4.2584,0,0,0,3.5205,1.6787,5.2769,5.2769,0,0,0,2.9707-.8721,4.659,4.659,0,0,0,1.8741-2.3574h1.292a4.82,4.82,0,0,1-2.0674,3.165,6.7678,6.7678,0,0,1-4.0694,1.26A5.5244,5.5244,0,0,1,323.2871,168.2354Zm9.3018-6.5889v-.4844a4.9032,4.9032,0,0,0-1.5508-3.2305,4.7528,4.7528,0,0,0-3.294-1.292,4.5749,4.5749,0,0,0-3.2627,1.3243,5.0182,5.0182,0,0,0-1.582,3.3271v.3555Z"/><path d="M341.8262,163.6162a4.6614,4.6614,0,0,1,.84-2.5517,8.3333,8.3333,0,0,1,2.3252-2.3575,4.1659,4.1659,0,0,0,1.292-1.5508,4.9849,4.9849,0,0,0,.4522-2.1308,3.5892,3.5892,0,0,0-1.26-2.7783,4.32,4.32,0,0,0-3.0361-1.1621,4.1959,4.1959,0,0,0-3.0362,1.2265,3.9989,3.9989,0,0,0-1.26,2.9717v.7109H336.917v-.7109a4.8783,4.8783,0,0,1,1.582-3.6494,5.3107,5.3107,0,0,1,3.8115-1.5186,6.0871,6.0871,0,0,1,4.0049,1.39,4.3385,4.3385,0,0,1,1.6475,3.3906,6.622,6.622,0,0,1-.6787,3.0039,4.8588,4.8588,0,0,1-1.9053,2.0352,4.5917,4.5917,0,0,0-1.7119,1.7441,5.0606,5.0606,0,0,0-.6133,2.4541v.4844h-1.2275Zm0,4.167h1.4853v1.97h-1.4853Z"/></g></svg>
