<svg xmlns="http://www.w3.org/2000/svg" width="420" height="305" viewBox="0 0 420 305"><defs><style>.cls-1{fill:#e6e6e6;}</style></defs><title>bobbel3</title><g id="Spørgsmål"><path class="cls-1" d="M348.24,11H53.76A42.76,42.76,0,0,0,11,53.76V184.24A42.76,42.76,0,0,0,53.76,227H290.525L282,289l59.675-62H348.24A42.76,42.76,0,0,0,391,184.24V53.76A42.76,42.76,0,0,0,348.24,11Z"/><path d="M45.0674,59h7.59a6.4446,6.4446,0,0,1,5.2,2.7451,10.3386,10.3386,0,0,1,2.1319,6.5889,11.33,11.33,0,0,1-2.1319,6.9433,6.3619,6.3619,0,0,1-5.2,2.875h-7.59Zm7.59,17.9248a5.1431,5.1431,0,0,0,4.2637-2.52,10.2671,10.2671,0,0,0,1.7764-6.0713,9.23,9.23,0,0,0-1.7764-5.7168,5.2215,5.2215,0,0,0-4.2637-2.3584H46.3594v16.666Z"/><path d="M63.0244,59h1.292v1.97h-1.292Zm0,19.1523V64.3936h1.292V78.1523Z"/><path d="M68.45,78.1523V64.3936h1.292v2.3252a4.4088,4.4088,0,0,1,1.7764-1.9376,5.1378,5.1378,0,0,1,6.1044.5811,4.2714,4.2714,0,0,1,1.4532,3.23v9.56h-1.292v-9.56A3.2,3.2,0,0,0,76.7178,66.17a3.5961,3.5961,0,0,0-2.5508-1.001,4.2543,4.2543,0,0,0-2.875,1.0977,4.7606,4.7606,0,0,0-1.55,2.81v9.0761Z"/><path d="M96.8076,78.1523,91.6719,64.3936h1.1953L97.55,76.667l4.4248-12.2734h1.2275l-5.038,13.7587Z"/><path d="M106.5293,76.6348a8.1529,8.1529,0,0,1-1.68-5.3623,8.152,8.152,0,0,1,1.68-5.3614,5.5244,5.5244,0,0,1,4.457-2.0019,5.7428,5.7428,0,0,1,4.4571,1.8408,7.0065,7.0065,0,0,1,1.68,4.9092v.6133H106.1416a7.047,7.047,0,0,0,1.3242,4.49,4.2584,4.2584,0,0,0,3.52,1.6787,5.2769,5.2769,0,0,0,2.9707-.8721,4.6586,4.6586,0,0,0,1.8741-2.3574h1.2919a4.82,4.82,0,0,1-2.0673,3.1651,6.7684,6.7684,0,0,1-4.0694,1.26A5.5244,5.5244,0,0,1,106.5293,76.6348Zm9.3018-6.5889v-.4844a4.9027,4.9027,0,0,0-1.5508-3.23,4.7524,4.7524,0,0,0-3.294-1.292,4.5748,4.5748,0,0,0-3.2627,1.3242,5.0184,5.0184,0,0,0-1.582,3.3271v.3555Z"/><path d="M120.1592,78.1523V64.3936h1.292v2.3252a4.4092,4.4092,0,0,1,1.7763-1.9376,5.1379,5.1379,0,0,1,6.1045.5811,4.2714,4.2714,0,0,1,1.4532,3.23v9.56h-1.292v-9.56a3.2,3.2,0,0,0-1.0664-2.4219,3.5961,3.5961,0,0,0-2.5508-1.001,4.2543,4.2543,0,0,0-2.875,1.0977,4.7606,4.7606,0,0,0-1.55,2.81v9.0761Z"/><path d="M134.6934,59h1.292v1.97h-1.292Zm0,19.1523V64.3936h1.292V78.1523Z"/><path d="M140.1191,78.1523V64.3936h1.292v2.3252a4.4088,4.4088,0,0,1,1.7764-1.9376,5.1379,5.1379,0,0,1,6.1045.5811,4.2716,4.2716,0,0,1,1.4531,3.23v9.56h-1.292v-9.56a3.2,3.2,0,0,0-1.0664-2.4219,3.5957,3.5957,0,0,0-2.5508-1.001,4.2547,4.2547,0,0,0-2.875,1.0977,4.7617,4.7617,0,0,0-1.55,2.81v9.0761Z"/><path d="M155.4932,76.376a7.6326,7.6326,0,0,1-1.7764-5.1035,7.93,7.93,0,0,1,1.7764-5.1993,5.351,5.351,0,0,1,4.2627-2.164,4.93,4.93,0,0,1,2.9072.9365,5.49,5.49,0,0,1,1.873,2.52V59h1.292V78.1523h-1.292V75.3428a4.5625,4.5625,0,0,1-1.8408,2.2929,5.1329,5.1329,0,0,1-2.9394.8721A5.3783,5.3783,0,0,1,155.4932,76.376Zm7.6543-.6787a7.1333,7.1333,0,0,0,1.3886-4.4248,7.0037,7.0037,0,0,0-1.3886-4.3926,4.19,4.19,0,0,0-3.3916-1.8408,4.1013,4.1013,0,0,0-3.3584,1.8408,6.9978,6.9978,0,0,0-1.39,4.3926,7.1272,7.1272,0,0,0,1.39,4.4248,4.1,4.1,0,0,0,3.3584,1.8418A4.1883,4.1883,0,0,0,163.1475,75.6973Z"/><path d="M170.8018,76.6348a8.1523,8.1523,0,0,1-1.68-5.3623,8.1514,8.1514,0,0,1,1.68-5.3614,5.5243,5.5243,0,0,1,4.457-2.0019,5.7424,5.7424,0,0,1,4.457,1.8408,7.0061,7.0061,0,0,1,1.68,4.9092v.6133H170.4141a7.047,7.047,0,0,0,1.3242,4.49,4.2583,4.2583,0,0,0,3.52,1.6787,5.2771,5.2771,0,0,0,2.9707-.8721,4.6579,4.6579,0,0,0,1.874-2.3574h1.292a4.82,4.82,0,0,1-2.0674,3.1651,6.7681,6.7681,0,0,1-4.0693,1.26A5.5243,5.5243,0,0,1,170.8018,76.6348Zm9.3017-6.5889v-.4844a4.9027,4.9027,0,0,0-1.5508-3.23,4.7521,4.7521,0,0,0-3.2939-1.292,4.5748,4.5748,0,0,0-3.2627,1.3242,5.0179,5.0179,0,0,0-1.582,3.3271v.3555Z"/><path d="M198.2549,78.1523l-5.1358-13.7587h1.1954l4.6826,12.2734,4.4248-12.2734h1.2275l-5.0381,13.7587Z"/><path d="M207.1367,59h1.292v1.97h-1.292Zm0,19.1523V64.3936h1.292V78.1523Z"/><path d="M213.4023,76.376a7.6331,7.6331,0,0,1-1.7763-5.1035,7.93,7.93,0,0,1,1.7763-5.1993,5.351,5.351,0,0,1,4.2627-2.164,4.93,4.93,0,0,1,2.9073.9365,5.49,5.49,0,0,1,1.873,2.52V59h1.292V78.1523h-1.292V75.3428a4.5625,4.5625,0,0,1-1.8408,2.2929,5.133,5.133,0,0,1-2.94.8721A5.3783,5.3783,0,0,1,213.4023,76.376Zm7.6543-.6787a7.1327,7.1327,0,0,0,1.3887-4.4248,7.0032,7.0032,0,0,0-1.3887-4.3926,4.1893,4.1893,0,0,0-3.3916-1.8408,4.1015,4.1015,0,0,0-3.3584,1.8408,6.9983,6.9983,0,0,0-1.39,4.3926,7.1277,7.1277,0,0,0,1.39,4.4248,4.1,4.1,0,0,0,3.3584,1.8418A4.1881,4.1881,0,0,0,221.0566,75.6973Z"/><path d="M228.7109,76.6348a8.1529,8.1529,0,0,1-1.68-5.3623,8.152,8.152,0,0,1,1.68-5.3614,5.5246,5.5246,0,0,1,4.4571-2.0019,5.7426,5.7426,0,0,1,4.457,1.8408,7.0066,7.0066,0,0,1,1.68,4.9092v.6133H228.3232a7.047,7.047,0,0,0,1.3243,4.49,4.2583,4.2583,0,0,0,3.52,1.6787,5.2771,5.2771,0,0,0,2.9707-.8721,4.6584,4.6584,0,0,0,1.874-2.3574h1.292a4.82,4.82,0,0,1-2.0674,3.1651,6.7681,6.7681,0,0,1-4.0693,1.26A5.5246,5.5246,0,0,1,228.7109,76.6348Zm9.3018-6.5889v-.4844a4.9027,4.9027,0,0,0-1.5508-3.23,4.7523,4.7523,0,0,0-3.2939-1.292,4.5747,4.5747,0,0,0-3.2627,1.3242,5.0185,5.0185,0,0,0-1.5821,3.3271v.3555Z"/><path d="M242.3408,78.1523V64.3936h1.292v3.1a5.86,5.86,0,0,1,1.6143-2.4228,3.6065,3.6065,0,0,1,2.3261-.9043h.7422v1.4863a.51.51,0,0,1-.2256-.0654.35.35,0,0,0-.13-.0645,3.719,3.719,0,0,0-2.7452,1.292,6.2085,6.2085,0,0,0-1.582,3.2627v8.0742Z"/><path d="M251.416,76.6348a8.1529,8.1529,0,0,1-1.68-5.3623,8.152,8.152,0,0,1,1.68-5.3614,5.5245,5.5245,0,0,1,4.457-2.0019A5.7427,5.7427,0,0,1,260.33,65.75a7.0066,7.0066,0,0,1,1.68,4.9092v.6133H251.0283a7.0476,7.0476,0,0,0,1.3242,4.49,4.2585,4.2585,0,0,0,3.52,1.6787,5.2775,5.2775,0,0,0,2.9708-.8721,4.6589,4.6589,0,0,0,1.874-2.3574h1.292a4.8207,4.8207,0,0,1-2.0674,3.1651,6.7682,6.7682,0,0,1-4.0694,1.26A5.5245,5.5245,0,0,1,251.416,76.6348Zm9.3018-6.5889v-.4844a4.9027,4.9027,0,0,0-1.5508-3.23,4.7524,4.7524,0,0,0-3.294-1.292,4.5744,4.5744,0,0,0-3.2626,1.3242,5.0181,5.0181,0,0,0-1.5821,3.3271v.3555Z"/><path d="M265.4658,77.2158a3.9408,3.9408,0,0,1-1.5508-3.1328H265.11a3.0246,3.0246,0,0,0,1.1953,2.39,4.4135,4.4135,0,0,0,2.874.9687,5.1861,5.1861,0,0,0,3.1328-.8721,2.8471,2.8471,0,0,0,1.1631-2.3574,2.22,2.22,0,0,0-1.2276-1.873,7.7654,7.7654,0,0,0-3.2939-.9366,6.3566,6.3566,0,0,1-3.4883-1.2275,3.1229,3.1229,0,0,1-1.3242-2.5518,3.0529,3.0529,0,0,1,1.3242-2.6484,6.356,6.356,0,0,1,3.7139-.9365,6.0171,6.0171,0,0,1,3.6494,1.001,3.1446,3.1446,0,0,1,1.39,2.6806h-1.2276a2.9622,2.9622,0,0,0-1.2275-1.97,4.3666,4.3666,0,0,0-2.584-.7109,4.8242,4.8242,0,0,0-2.7774.7109,2.1757,2.1757,0,0,0-1.0341,1.873,2.2147,2.2147,0,0,0,1.26,1.8731,7.7481,7.7481,0,0,0,3.295.9365,6.2032,6.2032,0,0,1,3.4882,1.292,3.5843,3.5843,0,0,1-.2265,5.6846,6.591,6.591,0,0,1-4.0049,1.0986A5.5322,5.5322,0,0,1,265.4658,77.2158Z"/><path d="M278.5469,76.6348a8.1529,8.1529,0,0,1-1.68-5.3623,8.152,8.152,0,0,1,1.68-5.3614,5.5244,5.5244,0,0,1,4.457-2.0019,5.7424,5.7424,0,0,1,4.457,1.8408,7.0061,7.0061,0,0,1,1.68,4.9092v.6133H278.1592a7.047,7.047,0,0,0,1.3242,4.49,4.2584,4.2584,0,0,0,3.52,1.6787,5.2769,5.2769,0,0,0,2.9707-.8721,4.6579,4.6579,0,0,0,1.874-2.3574h1.292a4.82,4.82,0,0,1-2.0674,3.1651,6.7679,6.7679,0,0,1-4.0693,1.26A5.5244,5.5244,0,0,1,278.5469,76.6348Zm9.3017-6.5889v-.4844a4.9031,4.9031,0,0,0-1.5507-3.23,4.7524,4.7524,0,0,0-3.294-1.292,4.5748,4.5748,0,0,0-3.2627,1.3242,5.0179,5.0179,0,0,0-1.582,3.3271v.3555Z"/><path d="M292.1768,78.1523V64.3936h1.292v2.3252a4.408,4.408,0,0,1,1.7763-1.9376,5.1379,5.1379,0,0,1,6.1045.5811,4.2713,4.2713,0,0,1,1.4531,3.23v9.56h-1.292v-9.56a3.2,3.2,0,0,0-1.0664-2.4219,3.5957,3.5957,0,0,0-2.5507-1.001,4.2543,4.2543,0,0,0-2.875,1.0977,4.7606,4.7606,0,0,0-1.55,2.81v9.0761Z"/><path d="M307.5508,76.376a7.6326,7.6326,0,0,1-1.7764-5.1035,7.93,7.93,0,0,1,1.7764-5.1993,5.351,5.351,0,0,1,4.2627-2.164,4.93,4.93,0,0,1,2.9072.9365,5.49,5.49,0,0,1,1.8731,2.52V59h1.2919V78.1523h-1.2919V75.3428a4.5633,4.5633,0,0,1-1.8409,2.2929,5.1329,5.1329,0,0,1-2.9394.8721A5.3783,5.3783,0,0,1,307.5508,76.376Zm7.6543-.6787a7.1327,7.1327,0,0,0,1.3887-4.4248,7.0032,7.0032,0,0,0-1.3887-4.3926,4.1894,4.1894,0,0,0-3.3916-1.8408,4.1013,4.1013,0,0,0-3.3584,1.8408,6.9978,6.9978,0,0,0-1.39,4.3926,7.1272,7.1272,0,0,0,1.39,4.4248,4.1,4.1,0,0,0,3.3584,1.8418A4.1882,4.1882,0,0,0,315.2051,75.6973Z"/><path d="M322.8594,76.6348a8.1529,8.1529,0,0,1-1.68-5.3623,8.152,8.152,0,0,1,1.68-5.3614,5.5244,5.5244,0,0,1,4.457-2.0019,5.7424,5.7424,0,0,1,4.457,1.8408,7.0061,7.0061,0,0,1,1.68,4.9092v.6133H322.4717a7.047,7.047,0,0,0,1.3242,4.49,4.2584,4.2584,0,0,0,3.52,1.6787,5.2769,5.2769,0,0,0,2.9707-.8721,4.6579,4.6579,0,0,0,1.874-2.3574h1.292a4.82,4.82,0,0,1-2.0674,3.1651,6.7679,6.7679,0,0,1-4.0693,1.26A5.5244,5.5244,0,0,1,322.8594,76.6348Zm9.3017-6.5889v-.4844a4.9031,4.9031,0,0,0-1.5507-3.23,4.7524,4.7524,0,0,0-3.294-1.292,4.5748,4.5748,0,0,0-3.2627,1.3242,5.0179,5.0179,0,0,0-1.582,3.3271v.3555Z"/><path d="M336.4893,78.1523V64.3936h1.2919v3.1a5.8606,5.8606,0,0,1,1.6143-2.4228,3.6065,3.6065,0,0,1,2.3262-.9043h.7422v1.4863a.5093.5093,0,0,1-.2256-.0654.35.35,0,0,0-.13-.0645,3.7187,3.7187,0,0,0-2.7451,1.292,6.2086,6.2086,0,0,0-1.5821,3.2627v8.0742Z"/><path d="M45.9072,107.5762a7.6331,7.6331,0,0,1-1.7763-5.1035,7.93,7.93,0,0,1,1.7763-5.1993,5.351,5.351,0,0,1,4.2627-2.164,4.93,4.93,0,0,1,2.9072.9365A5.4893,5.4893,0,0,1,54.95,98.5654V90.2h1.292v19.1523H54.95V106.543a4.5625,4.5625,0,0,1-1.8408,2.2929,5.1332,5.1332,0,0,1-2.94.8721A5.3783,5.3783,0,0,1,45.9072,107.5762Zm7.6543-.6787a7.1327,7.1327,0,0,0,1.3887-4.4248A7.0032,7.0032,0,0,0,53.5615,98.08,4.1893,4.1893,0,0,0,50.17,96.2393,4.1013,4.1013,0,0,0,46.8115,98.08a6.9983,6.9983,0,0,0-1.39,4.3926,7.1277,7.1277,0,0,0,1.39,4.4248,4.1,4.1,0,0,0,3.3584,1.8418A4.1881,4.1881,0,0,0,53.5615,106.8975Z"/><path d="M60.376,90.2h1.292v1.97H60.376Zm0,19.1523V95.5938h1.292v13.7587Z"/><path d="M66.7061,112.97a3.8862,3.8862,0,0,1-1.7442-3.165H66.19a2.9154,2.9154,0,0,0,1.3564,2.39,5.6594,5.6594,0,0,0,3.3262.97,4.889,4.889,0,0,0,3.3916-1.1309,3.8313,3.8313,0,0,0,1.292-3.0361v-2.81a4.7517,4.7517,0,0,1-1.8731,2.1318,5.1537,5.1537,0,0,1-2.7783.8067,5.3847,5.3847,0,0,1-4.3281-1.9053,8.7313,8.7313,0,0,1,0-10.2061,5.3846,5.3846,0,0,1,4.3281-1.9052,5.16,5.16,0,0,1,2.875.84,4.5153,4.5153,0,0,1,1.7764,2.2285V95.5938h1.292v13.4355a4.7879,4.7879,0,0,1-1.5831,3.8437,6.3617,6.3617,0,0,1-4.3925,1.3887A6.7129,6.7129,0,0,1,66.7061,112.97Zm7.4931-6.5888a7.3774,7.3774,0,0,0,0-8.5264,4.1424,4.1424,0,0,0-6.6855-.0967,8.0022,8.0022,0,0,0,0,8.72,4.1424,4.1424,0,0,0,6.6855-.0966Z"/><path d="M92.1562,107.835a9.3982,9.3982,0,0,1,0-10.7237,5.5246,5.5246,0,0,1,4.4571-2.0019A5.7426,5.7426,0,0,1,101.07,96.95a7.0061,7.0061,0,0,1,1.68,4.9092v.6133H91.7686a7.047,7.047,0,0,0,1.3242,4.49,4.2583,4.2583,0,0,0,3.52,1.6787,5.2771,5.2771,0,0,0,2.9707-.8721,4.6579,4.6579,0,0,0,1.874-2.3574h1.292a4.82,4.82,0,0,1-2.0674,3.165,6.7675,6.7675,0,0,1-4.0693,1.26A5.5246,5.5246,0,0,1,92.1562,107.835Zm9.3018-6.5889v-.4844a4.9032,4.9032,0,0,0-1.5508-3.2305,4.7525,4.7525,0,0,0-3.2939-1.2919,4.5748,4.5748,0,0,0-3.2627,1.3242,5.0177,5.0177,0,0,0-1.582,3.3271v.3555Z"/><path d="M106.6582,108.9648a3.0021,3.0021,0,0,1-.7432-2.0673V96.5947h-1.97V95.5938h1.97V91.6855h1.292v3.9083H109.08v1.0009H107.207v10.3028a2.3071,2.3071,0,0,0,.42,1.39,1.1391,1.1391,0,0,0,.9687.5811,1.96,1.96,0,0,0,1.001-.2266v.9375a3.5165,3.5165,0,0,1-1.0977.2578A2.386,2.386,0,0,1,106.6582,108.9648Z"/><path d="M123.0654,107.5762a7.6331,7.6331,0,0,1-1.7763-5.1035,7.93,7.93,0,0,1,1.7763-5.1993,5.351,5.351,0,0,1,4.2627-2.164,4.93,4.93,0,0,1,2.9073.9365,5.49,5.49,0,0,1,1.873,2.5195V90.2H133.4v19.1523h-1.292V106.543a4.5625,4.5625,0,0,1-1.8408,2.2929,5.1332,5.1332,0,0,1-2.9395.8721A5.3783,5.3783,0,0,1,123.0654,107.5762Zm7.6543-.6787a7.1327,7.1327,0,0,0,1.3887-4.4248A7.0032,7.0032,0,0,0,130.72,98.08a4.1893,4.1893,0,0,0-3.3916-1.8408A4.1013,4.1013,0,0,0,123.97,98.08a6.9983,6.9983,0,0,0-1.39,4.3926,7.1277,7.1277,0,0,0,1.39,4.4248,4.1,4.1,0,0,0,3.3584,1.8418A4.1881,4.1881,0,0,0,130.72,106.8975Z"/><path d="M137.5342,90.2h1.292v1.97h-1.292Zm0,19.1523V95.5938h1.292v13.7587Z"/><path d="M143.9287,107.77a7.8056,7.8056,0,0,1-1.9053-5.2968,7.5978,7.5978,0,0,1,1.9053-5.1993,5.9367,5.9367,0,0,1,4.6182-2.164,5.7453,5.7453,0,0,1,3.8115,1.3242,4.1279,4.1279,0,0,1,1.583,3.23h-1.292a2.9091,2.9091,0,0,0-1.1953-2.3252,4.4652,4.4652,0,0,0-2.9072-.9688,4.7678,4.7678,0,0,0-3.7139,1.7764,6.51,6.51,0,0,0-1.5185,4.3272,6.7247,6.7247,0,0,0,1.5185,4.4248,4.7062,4.7062,0,0,0,3.7139,1.8418,4.204,4.204,0,0,0,2.8427-1.002,3.0276,3.0276,0,0,0,1.1954-2.39h1.3564a4.1571,4.1571,0,0,1-1.583,3.2617,5.6609,5.6609,0,0,1-3.8115,1.3564A5.8986,5.8986,0,0,1,143.9287,107.77Z"/><path d="M156.751,109.3525V90.2h1.292v12.5312l7.3632-7.1376h1.6153l-5.2969,5.038,5.91,8.7207h-1.3565l-5.3935-7.8486-2.8418,2.7129v5.1357Z"/><path d="M169.9932,114.5205V95.5938h1.292v2.8417a5.1178,5.1178,0,0,1,1.8408-2.4218,4.8481,4.8481,0,0,1,2.8418-.9043,5.4332,5.4332,0,0,1,4.4248,2.0019,8.1575,8.1575,0,0,1,1.68,5.3614,7.8108,7.8108,0,0,1-1.6153,5.1679,5.5077,5.5077,0,0,1-7.17,1.0664,5.3167,5.3167,0,0,1-2.0019-2.2939v8.1074Zm9.4951-7.59a7.52,7.52,0,0,0,1.292-4.5869,7.2323,7.2323,0,0,0-1.292-4.5215,3.9944,3.9944,0,0,0-3.3906-1.7119,4.1267,4.1267,0,0,0-3.3916,1.8408,6.8866,6.8866,0,0,0-1.4209,4.3926,7.0711,7.0711,0,0,0,1.4209,4.457,4.1269,4.1269,0,0,0,3.3916,1.8408A3.996,3.996,0,0,0,179.4883,106.9307Z"/><path d="M185.3672,90.2h1.292v1.97h-1.292Zm0,19.1523V95.5938h1.292v13.7587Z"/><path d="M191.7617,107.77a7.8056,7.8056,0,0,1-1.9053-5.2968,7.5978,7.5978,0,0,1,1.9053-5.1993,5.9367,5.9367,0,0,1,4.6182-2.164,5.7453,5.7453,0,0,1,3.8115,1.3242,4.1279,4.1279,0,0,1,1.583,3.23h-1.292a2.9091,2.9091,0,0,0-1.1953-2.3252,4.4652,4.4652,0,0,0-2.9072-.9688,4.7678,4.7678,0,0,0-3.7139,1.7764,6.51,6.51,0,0,0-1.5185,4.3272,6.7247,6.7247,0,0,0,1.5185,4.4248,4.7062,4.7062,0,0,0,3.7139,1.8418,4.2044,4.2044,0,0,0,2.8428-1.002,3.0275,3.0275,0,0,0,1.1953-2.39h1.3564a4.1571,4.1571,0,0,1-1.583,3.2617,5.6609,5.6609,0,0,1-3.8115,1.3564A5.8986,5.8986,0,0,1,191.7617,107.77Z"/><path d="M204.7129,112.3887c.2363,0,.4307-.1514.581-.4522a2.1763,2.1763,0,0,0,.2588-1.0986v-1.4854h-.9687v-1.97h1.873v3.4551a2.79,2.79,0,0,1-.42,1.5508,1.2941,1.2941,0,0,1-1.0654.6455Z"/><path d="M221.3457,108.416a3.9408,3.9408,0,0,1-1.5508-3.1328H220.99a3.0249,3.0249,0,0,0,1.1953,2.39,4.4137,4.4137,0,0,0,2.8741.9687,5.1861,5.1861,0,0,0,3.1328-.8721,2.8471,2.8471,0,0,0,1.1631-2.3574,2.22,2.22,0,0,0-1.2276-1.873,7.7644,7.7644,0,0,0-3.2939-.9366,6.3563,6.3563,0,0,1-3.4883-1.2275,3.1229,3.1229,0,0,1-1.3242-2.5518,3.0529,3.0529,0,0,1,1.3242-2.6484,6.3558,6.3558,0,0,1,3.7139-.9365,6.0171,6.0171,0,0,1,3.6494,1.001,3.1445,3.1445,0,0,1,1.39,2.6806h-1.2275a2.9626,2.9626,0,0,0-1.2275-1.97,4.3666,4.3666,0,0,0-2.584-.7109,4.8242,4.8242,0,0,0-2.7774.7109,2.1758,2.1758,0,0,0-1.0342,1.873,2.2148,2.2148,0,0,0,1.26,1.8731,7.7481,7.7481,0,0,0,3.2949.9365,6.2033,6.2033,0,0,1,3.4883,1.292,3.5843,3.5843,0,0,1-.2265,5.6846,6.591,6.591,0,0,1-4.0049,1.0986A5.5322,5.5322,0,0,1,221.3457,108.416Z"/><path d="M234.4912,107.6406a7.3486,7.3486,0,0,1-1.7764-5.1679,7.859,7.859,0,0,1,1.7764-5.3614,5.8951,5.8951,0,0,1,4.6826-2.0019,5.9577,5.9577,0,0,1,4.6836,2.0019,7.9521,7.9521,0,0,1,1.7442,5.3614,7.4324,7.4324,0,0,1-1.7442,5.1679,6.0517,6.0517,0,0,1-4.6836,1.9385A5.9875,5.9875,0,0,1,234.4912,107.6406Zm8.43-.7754a6.5877,6.5877,0,0,0,1.3887-4.3925,6.8778,6.8778,0,0,0-1.3887-4.5215,4.6331,4.6331,0,0,0-3.7471-1.7119,4.5736,4.5736,0,0,0-3.7461,1.7119,6.7679,6.7679,0,0,0-1.4209,4.5215,6.4846,6.4846,0,0,0,1.4209,4.3925,4.6453,4.6453,0,0,0,3.7461,1.6475A4.7065,4.7065,0,0,0,242.9209,106.8652Z"/><path d="M248.8633,109.3525V95.5938h1.292v2.3251a4.684,4.684,0,0,1,1.6465-1.9375,3.9359,3.9359,0,0,1,2.2939-.7431,4.31,4.31,0,0,1,2.5508.7754,3.5829,3.5829,0,0,1,1.4541,2.0342,4.6706,4.6706,0,0,1,1.8408-2.0342,5.142,5.142,0,0,1,2.7451-.7754,4.4314,4.4314,0,0,1,3.1651,1.26,4.0868,4.0868,0,0,1,1.292,3.0362v9.8183h-1.292V99.5342a3.231,3.231,0,0,0-.9366-2.3262,2.9288,2.9288,0,0,0-2.2285-.9687,3.96,3.96,0,0,0-2.7129,1.0664,4.5866,4.5866,0,0,0-1.4853,2.7129v9.3339h-1.292V99.5342a3.36,3.36,0,0,0-.8721-2.3262,2.7289,2.7289,0,0,0-2.1-.9687,3.6632,3.6632,0,0,0-2.6162,1.1308,5.4919,5.4919,0,0,0-1.4531,2.9063v9.0761Z"/><path d="M281.4189,109.3525V90.2h1.292v7.9775a5.2424,5.2424,0,0,1,1.9375-2.2285,4.8452,4.8452,0,0,1,2.7452-.84,4.4416,4.4416,0,0,1,3.3271,1.4531,4.7608,4.7608,0,0,1,1.3887,3.4561v9.3339h-1.292v-9.0761a4.2077,4.2077,0,0,0-1.001-2.8418,3.0576,3.0576,0,0,0-2.4228-1.1953,4.1938,4.1938,0,0,0-2.8741,1.163,5.69,5.69,0,0,0-1.8086,2.9717v8.9785Z"/><path d="M297.2119,108.4482a3.9546,3.9546,0,0,1-1.3887-3.0361V95.5938h1.292v9.8183a3.0864,3.0864,0,0,0,1.001,2.293,3.4161,3.4161,0,0,0,2.4229.9365,4.19,4.19,0,0,0,3.0039-1.292,5.886,5.886,0,0,0,1.68-3.2617V95.5938h1.2919v13.7587h-1.2919v-2.4218a4.6037,4.6037,0,0,1-1.8741,2.0341,5.4277,5.4277,0,0,1-2.8095.7432A4.7815,4.7815,0,0,1,297.2119,108.4482Z"/><path d="M310.6484,109.3525V95.5938h1.292v2.3251a4.4091,4.4091,0,0,1,1.7764-1.9375,5.1379,5.1379,0,0,1,6.1045.5811,4.2715,4.2715,0,0,1,1.4531,3.23v9.5605h-1.292V99.792A3.2,3.2,0,0,0,318.916,97.37a3.5957,3.5957,0,0,0-2.5508-1.001,4.2547,4.2547,0,0,0-2.875,1.0977,4.7617,4.7617,0,0,0-1.55,2.81v9.0761Z"/><path d="M335.5176,109.3525V90.2h1.292v7.9775a5.2417,5.2417,0,0,1,1.9375-2.2285,4.8449,4.8449,0,0,1,2.7451-.84,4.4413,4.4413,0,0,1,3.3271,1.4531,4.7608,4.7608,0,0,1,1.3887,3.4561v9.3339h-1.292v-9.0761a4.2077,4.2077,0,0,0-1.001-2.8418,3.0574,3.0574,0,0,0-2.4228-1.1953,4.1934,4.1934,0,0,0-2.874,1.163,5.69,5.69,0,0,0-1.8086,2.9717v8.9785Z"/><path d="M350.4385,108.707a3.3415,3.3415,0,0,1-.0323-5.4912,6.1666,6.1666,0,0,1,3.4883-1.3564,14.411,14.411,0,0,0,3.3272-.6455q1.3242-.4527,1.3242-1.0664V98.92a2.1392,2.1392,0,0,0-1.1631-1.8086,5.4919,5.4919,0,0,0-5.458-.0322,2.1119,2.1119,0,0,0-1.0986,1.7441v.711H349.6v-.84a2.8036,2.8036,0,0,1,1.4531-2.3584,6.3625,6.3625,0,0,1,3.5528-.9687,6.8185,6.8185,0,0,1,3.6494.9365,2.6791,2.6791,0,0,1,1.5185,2.2617v8.3321a2.6184,2.6184,0,0,0,.3545,1.39,1.0248,1.0248,0,0,0,.8721.5811,1.2052,1.2052,0,0,0,.291-.0323.4085.4085,0,0,0,.1934-.0966v.6132a2.9056,2.9056,0,0,1-1.2266.2266,1.6491,1.6491,0,0,1-1.292-.6465,2.4026,2.4026,0,0,1-.5166-1.55,3.2818,3.2818,0,0,1-1.6474,1.7764,6.0379,6.0379,0,0,1-2.9073.6777A5.3814,5.3814,0,0,1,350.4385,108.707Zm6.4922-.97a4.5191,4.5191,0,0,0,1.6152-2.81v-3.165a3.9242,3.9242,0,0,1-1.6475.6455,22.6838,22.6838,0,0,1-3.0039.42,4.3282,4.3282,0,0,0-2.5517,1.0342,2.63,2.63,0,0,0-1.0332,2.0664,2.542,2.542,0,0,0,1.0664,2.0674,3.7745,3.7745,0,0,0,2.5185.8721A4.5407,4.5407,0,0,0,356.9307,107.7373Z"/><path d="M363.9717,109.3525V95.5938h1.292v3.1a5.86,5.86,0,0,1,1.6142-2.4228,3.6064,3.6064,0,0,1,2.3262-.9043h.7422v1.4863a.5093.5093,0,0,1-.2256-.0654.35.35,0,0,0-.13-.0645,3.7189,3.7189,0,0,0-2.7451,1.292,6.2077,6.2077,0,0,0-1.582,3.2627v8.0742Z"/><path d="M45.3574,140.5527v-12.37h-2.164v-1.26h2.164v-2.584a2.7572,2.7572,0,0,1,.8721-2.0664,2.86,2.86,0,0,1,2.1-.8721h.7754v1.001h-.7432a1.498,1.498,0,0,0-1.1953.581,1.9078,1.9078,0,0,0-.5166,1.3565v2.584h2.4551v1.26H46.6494v12.37Z"/><path d="M51.6875,139.9072a3.3415,3.3415,0,0,1-.0322-5.4912,6.1663,6.1663,0,0,1,3.4883-1.3564,14.4111,14.4111,0,0,0,3.3271-.6455q1.3242-.4527,1.3242-1.0664V130.12a2.1392,2.1392,0,0,0-1.1631-1.8086,5.4919,5.4919,0,0,0-5.458-.0322,2.1119,2.1119,0,0,0-1.0986,1.7441v.711H50.8486v-.84a2.8035,2.8035,0,0,1,1.4532-2.3584,6.3622,6.3622,0,0,1,3.5527-.9687,6.8185,6.8185,0,0,1,3.6494.9365,2.6793,2.6793,0,0,1,1.5186,2.2617v8.3321a2.6175,2.6175,0,0,0,.3545,1.39,1.0247,1.0247,0,0,0,.872.5811,1.2052,1.2052,0,0,0,.291-.0323.4094.4094,0,0,0,.1934-.0966v.6132a2.9052,2.9052,0,0,1-1.2266.2266,1.6491,1.6491,0,0,1-1.292-.6465,2.4029,2.4029,0,0,1-.5166-1.55,3.2814,3.2814,0,0,1-1.6474,1.7764,6.0378,6.0378,0,0,1-2.9072.6777A5.3816,5.3816,0,0,1,51.6875,139.9072Zm6.4922-.97a4.5191,4.5191,0,0,0,1.6152-2.81v-3.165a3.9237,3.9237,0,0,1-1.6474.6455,22.703,22.703,0,0,1-3.0039.42,4.3283,4.3283,0,0,0-2.5518,1.0342,2.63,2.63,0,0,0-1.0332,2.0664,2.5423,2.5423,0,0,0,1.0664,2.0674,3.7746,3.7746,0,0,0,2.5186.8721A4.54,4.54,0,0,0,58.18,138.9375Zm-4.0049-17.2148a2.4226,2.4226,0,0,1,1.7764-.7422,2.5357,2.5357,0,0,1,2.5517,2.5507,2.4239,2.4239,0,0,1-.7431,1.7764,2.4578,2.4578,0,0,1-1.8086.7432,2.5377,2.5377,0,0,1-2.52-2.52A2.4644,2.4644,0,0,1,54.1748,121.7227Zm.6465,2.9394a1.5827,1.5827,0,0,0,2.7129-1.1309,1.5827,1.5827,0,1,0-3.1651,0A1.6028,1.6028,0,0,0,54.8213,124.6621Z"/><path d="M66.0605,139.0352a9.3982,9.3982,0,0,1,0-10.7237,5.5246,5.5246,0,0,1,4.4571-2.0019,5.7426,5.7426,0,0,1,4.457,1.8408,7.0059,7.0059,0,0,1,1.68,4.9092v.6133H65.6729a7.047,7.047,0,0,0,1.3242,4.49,4.2583,4.2583,0,0,0,3.52,1.6787,5.2771,5.2771,0,0,0,2.9707-.8721,4.6579,4.6579,0,0,0,1.874-2.3574h1.292a4.82,4.82,0,0,1-2.0674,3.165,6.7675,6.7675,0,0,1-4.0693,1.26A5.5246,5.5246,0,0,1,66.0605,139.0352Zm9.3018-6.5889v-.4844a4.9032,4.9032,0,0,0-1.5508-3.2305,4.7525,4.7525,0,0,0-3.2939-1.2919,4.5748,4.5748,0,0,0-3.2627,1.3242,5.0177,5.0177,0,0,0-1.582,3.3271v.3555Z"/><path d="M80.5625,140.165a3.0021,3.0021,0,0,1-.7432-2.0673V127.7949H77.85v-1.001h1.97v-3.9082h1.292v3.9082h1.8731v1.001H81.1113v10.3028a2.3077,2.3077,0,0,0,.42,1.39,1.1394,1.1394,0,0,0,.9688.5811,1.96,1.96,0,0,0,1.001-.2266v.9375a3.5165,3.5165,0,0,1-1.0977.2578A2.386,2.386,0,0,1,80.5625,140.165Z"/><path d="M96.4521,139.9072a3.3415,3.3415,0,0,1-.0322-5.4912,6.1666,6.1666,0,0,1,3.4883-1.3564,14.4132,14.4132,0,0,0,3.3272-.6455q1.3242-.4527,1.3242-1.0664V130.12a2.1392,2.1392,0,0,0-1.1631-1.8086,5.4919,5.4919,0,0,0-5.458-.0322,2.112,2.112,0,0,0-1.0987,1.7441v.711H95.6133v-.84a2.8036,2.8036,0,0,1,1.4531-2.3584,6.3622,6.3622,0,0,1,3.5527-.9687,6.8191,6.8191,0,0,1,3.65.9365,2.6791,2.6791,0,0,1,1.5185,2.2617v8.3321a2.6184,2.6184,0,0,0,.3545,1.39,1.0247,1.0247,0,0,0,.8721.5811,1.2052,1.2052,0,0,0,.291-.0323.409.409,0,0,0,.1933-.0966v.6132a2.9048,2.9048,0,0,1-1.2265.2266,1.6489,1.6489,0,0,1-1.292-.6465,2.4029,2.4029,0,0,1-.5166-1.55,3.2816,3.2816,0,0,1-1.6475,1.7764,6.0375,6.0375,0,0,1-2.9072.6777A5.3818,5.3818,0,0,1,96.4521,139.9072Zm6.4922-.97a4.52,4.52,0,0,0,1.6153-2.81v-3.165a3.9242,3.9242,0,0,1-1.6475.6455,22.703,22.703,0,0,1-3.0039.42,4.3288,4.3288,0,0,0-2.5518,1.0342,2.63,2.63,0,0,0-1.0332,2.0664,2.5423,2.5423,0,0,0,1.0664,2.0674,3.7748,3.7748,0,0,0,2.5186.8721A4.54,4.54,0,0,0,102.9443,138.9375Z"/><path d="M110.2754,140.5527v-12.37h-2.1641v-1.26h2.1641v-2.584a2.7572,2.7572,0,0,1,.8721-2.0664,2.86,2.86,0,0,1,2.1-.8721h.7754v1.001h-.7432a1.4979,1.4979,0,0,0-1.1953.581,1.9073,1.9073,0,0,0-.5166,1.3565v2.584h2.4551v1.26h-2.4551v12.37Z"/><path d="M126.6182,140.5527V121.4h12.499v1.2588H127.91v7.3642h10.2382v1.1954H127.91v8.1064h11.207v1.2275Z"/><path d="M141.5391,140.5527V126.7939h1.292v2.3252a4.6846,4.6846,0,0,1,1.6464-1.9375,3.9362,3.9362,0,0,1,2.294-.7431,4.31,4.31,0,0,1,2.5508.7754,3.5835,3.5835,0,0,1,1.4541,2.0341,4.6709,4.6709,0,0,1,1.8408-2.0341,5.142,5.142,0,0,1,2.7451-.7754,4.4314,4.4314,0,0,1,3.165,1.26,4.0864,4.0864,0,0,1,1.292,3.0362v9.8183h-1.292v-9.8183a3.2313,3.2313,0,0,0-.9365-2.3262,2.9288,2.9288,0,0,0-2.2285-.9687,3.96,3.96,0,0,0-2.7129,1.0664,4.5861,4.5861,0,0,0-1.4853,2.7129v9.3339h-1.292v-9.8183A3.36,3.36,0,0,0,149,128.4082a2.7289,2.7289,0,0,0-2.1-.9687,3.6631,3.6631,0,0,0-2.6162,1.1308,5.4919,5.4919,0,0,0-1.4531,2.9063v9.0761Z"/><path d="M163.76,121.4h1.292v1.97H163.76Zm0,19.1523V126.7939h1.292v13.7588Z"/><path d="M169.1855,140.5527V121.4h1.292v19.1523Z"/><path d="M185.2363,140.5527v-12.37h-2.164v-1.26h2.164v-2.584a2.7572,2.7572,0,0,1,.8721-2.0664,2.86,2.86,0,0,1,2.1-.8721h.7754v1.001H188.24a1.498,1.498,0,0,0-1.1953.581,1.9078,1.9078,0,0,0-.5166,1.3565v2.584h2.4551v1.26h-2.4551v12.37Z"/><path d="M191.2441,140.5527V126.7939h1.292v3.1006a5.8606,5.8606,0,0,1,1.6143-2.4228,3.606,3.606,0,0,1,2.3262-.9043h.7422v1.4863a.5093.5093,0,0,1-.2256-.0654.35.35,0,0,0-.13-.0645,3.7187,3.7187,0,0,0-2.7451,1.292,6.2082,6.2082,0,0,0-1.5821,3.2627v8.0742Z"/><path d="M199.8018,139.9072a3.3414,3.3414,0,0,1-.0323-5.4912,6.1666,6.1666,0,0,1,3.4883-1.3564,14.4121,14.4121,0,0,0,3.3272-.6455q1.3242-.4527,1.3242-1.0664V130.12a2.1392,2.1392,0,0,0-1.1631-1.8086,5.4919,5.4919,0,0,0-5.458-.0322,2.1119,2.1119,0,0,0-1.0986,1.7441v.711h-1.2266v-.84a2.8036,2.8036,0,0,1,1.4531-2.3584,6.3623,6.3623,0,0,1,3.5528-.9687,6.819,6.819,0,0,1,3.6494.9365,2.6791,2.6791,0,0,1,1.5185,2.2617v8.3321a2.6184,2.6184,0,0,0,.3545,1.39,1.0248,1.0248,0,0,0,.8721.5811,1.2052,1.2052,0,0,0,.291-.0323.41.41,0,0,0,.1934-.0966v.6132a2.9056,2.9056,0,0,1-1.2266.2266,1.6489,1.6489,0,0,1-1.292-.6465,2.4029,2.4029,0,0,1-.5166-1.55,3.2816,3.2816,0,0,1-1.6475,1.7764,6.0375,6.0375,0,0,1-2.9072.6777A5.3814,5.3814,0,0,1,199.8018,139.9072Zm6.4921-.97a4.5192,4.5192,0,0,0,1.6153-2.81v-3.165a3.9242,3.9242,0,0,1-1.6475.6455,22.703,22.703,0,0,1-3.0039.42,4.3282,4.3282,0,0,0-2.5517,1.0342,2.63,2.63,0,0,0-1.0332,2.0664,2.542,2.542,0,0,0,1.0664,2.0674,3.7743,3.7743,0,0,0,2.5185.8721A4.54,4.54,0,0,0,206.2939,138.9375Z"/><path d="M223.67,140.5527V121.4h1.292v12.5312l7.3633-7.1377H233.94l-5.2968,5.0381,5.91,8.7207h-1.3564l-5.3936-7.8486-2.8418,2.7129v5.1357Z"/><path d="M236.9121,140.5527V121.4h1.292v19.1523Z"/><path d="M242.66,139.9072a3.3414,3.3414,0,0,1-.0323-5.4912,6.1666,6.1666,0,0,1,3.4883-1.3564,14.4121,14.4121,0,0,0,3.3272-.6455q1.3242-.4527,1.3242-1.0664V130.12a2.1392,2.1392,0,0,0-1.1631-1.8086,5.4919,5.4919,0,0,0-5.458-.0322,2.1119,2.1119,0,0,0-1.0986,1.7441v.711h-1.2266v-.84a2.8036,2.8036,0,0,1,1.4531-2.3584,6.3622,6.3622,0,0,1,3.5527-.9687,6.8191,6.8191,0,0,1,3.6495.9365,2.6791,2.6791,0,0,1,1.5185,2.2617v8.3321a2.6184,2.6184,0,0,0,.3545,1.39,1.0248,1.0248,0,0,0,.8721.5811,1.2052,1.2052,0,0,0,.291-.0323.41.41,0,0,0,.1934-.0966v.6132a2.9056,2.9056,0,0,1-1.2266.2266,1.6489,1.6489,0,0,1-1.292-.6465,2.4029,2.4029,0,0,1-.5166-1.55,3.2816,3.2816,0,0,1-1.6475,1.7764,6.0375,6.0375,0,0,1-2.9072.6777A5.3814,5.3814,0,0,1,242.66,139.9072Zm6.4921-.97a4.5192,4.5192,0,0,0,1.6153-2.81v-3.165a3.9242,3.9242,0,0,1-1.6475.6455,22.703,22.703,0,0,1-3.0039.42,4.3282,4.3282,0,0,0-2.5517,1.0342,2.63,2.63,0,0,0-1.0333,2.0664,2.5421,2.5421,0,0,0,1.0665,2.0674,3.7743,3.7743,0,0,0,2.5185.8721A4.54,4.54,0,0,0,249.1523,138.9375Z"/><path d="M256.6133,139.6162a3.9408,3.9408,0,0,1-1.5508-3.1328h1.1953a3.0243,3.0243,0,0,0,1.1953,2.39,4.413,4.413,0,0,0,2.874.9688,5.1864,5.1864,0,0,0,3.1329-.8721,2.847,2.847,0,0,0,1.163-2.3574,2.22,2.22,0,0,0-1.2275-1.873,7.7648,7.7648,0,0,0-3.2939-.9366,6.3568,6.3568,0,0,1-3.4883-1.2275,3.1229,3.1229,0,0,1-1.3242-2.5518,3.0529,3.0529,0,0,1,1.3242-2.6484,6.3557,6.3557,0,0,1,3.7138-.9365,6.0173,6.0173,0,0,1,3.65,1.001,3.1447,3.1447,0,0,1,1.39,2.6806h-1.2275a2.9624,2.9624,0,0,0-1.2276-1.97,4.3664,4.3664,0,0,0-2.584-.7109,4.824,4.824,0,0,0-2.7773.7109,2.1757,2.1757,0,0,0-1.0342,1.873,2.2146,2.2146,0,0,0,1.26,1.8731,7.7481,7.7481,0,0,0,3.2949.9365,6.2033,6.2033,0,0,1,3.4883,1.292,3.5842,3.5842,0,0,1-.2266,5.6846,6.5908,6.5908,0,0,1-4.0049,1.0986A5.5321,5.5321,0,0,1,256.6133,139.6162Z"/><path d="M269.2744,139.6162a3.9408,3.9408,0,0,1-1.5508-3.1328h1.1953a3.0244,3.0244,0,0,0,1.1954,2.39,4.413,4.413,0,0,0,2.874.9688,5.1861,5.1861,0,0,0,3.1328-.8721,2.8471,2.8471,0,0,0,1.1631-2.3574,2.22,2.22,0,0,0-1.2276-1.873,7.7644,7.7644,0,0,0-3.2939-.9366,6.3574,6.3574,0,0,1-3.4883-1.2275,3.1229,3.1229,0,0,1-1.3242-2.5518,3.0529,3.0529,0,0,1,1.3242-2.6484,6.3558,6.3558,0,0,1,3.7139-.9365,6.0171,6.0171,0,0,1,3.6494,1.001,3.1445,3.1445,0,0,1,1.39,2.6806H276.8a2.9622,2.9622,0,0,0-1.2275-1.97,4.3666,4.3666,0,0,0-2.584-.7109,4.8242,4.8242,0,0,0-2.7774.7109,2.1756,2.1756,0,0,0-1.0341,1.873,2.2147,2.2147,0,0,0,1.26,1.8731,7.7481,7.7481,0,0,0,3.2949.9365,6.2033,6.2033,0,0,1,3.4883,1.292,3.5843,3.5843,0,0,1-.2265,5.6846,6.591,6.591,0,0,1-4.0049,1.0986A5.5322,5.5322,0,0,1,269.2744,139.6162Z"/><path d="M282.3555,139.0352a9.3978,9.3978,0,0,1,0-10.7237,5.5244,5.5244,0,0,1,4.457-2.0019,5.7424,5.7424,0,0,1,4.457,1.8408,7.0059,7.0059,0,0,1,1.68,4.9092v.6133H281.9678a7.047,7.047,0,0,0,1.3242,4.49,4.2584,4.2584,0,0,0,3.5205,1.6787,5.2769,5.2769,0,0,0,2.9707-.8721,4.6579,4.6579,0,0,0,1.874-2.3574h1.292a4.82,4.82,0,0,1-2.0674,3.165,6.7673,6.7673,0,0,1-4.0693,1.26A5.5244,5.5244,0,0,1,282.3555,139.0352Zm9.3017-6.5889v-.4844a4.9032,4.9032,0,0,0-1.5508-3.2305,4.7525,4.7525,0,0,0-3.2939-1.2919,4.5748,4.5748,0,0,0-3.2627,1.3242,5.0177,5.0177,0,0,0-1.582,3.3271v.3555Z"/><path d="M295.9854,140.5527V126.7939h1.2919v2.3252a4.4091,4.4091,0,0,1,1.7764-1.9375,5.1379,5.1379,0,0,1,6.1045.5811,4.2711,4.2711,0,0,1,1.4531,3.23v9.56h-1.292v-9.56a3.2,3.2,0,0,0-1.0664-2.4219,3.5957,3.5957,0,0,0-2.5508-1.001,4.2542,4.2542,0,0,0-2.875,1.0977,4.7617,4.7617,0,0,0-1.55,2.81v9.0761Z"/><path d="M310.52,138.583h1.8731v1.97H310.52Z"/><path d="M45.0674,171.7529V152.6006h1.292v8.3652H57.9219v-8.3652h1.292v19.1523h-1.292v-9.5605H46.3594v9.5605Z"/><path d="M66.8359,171.7529,61.7,157.9941h1.1953l4.6826,12.2735,4.4248-12.2735h1.2276l-5.0381,13.7588Z"/><path d="M76.04,171.1074a3.3415,3.3415,0,0,1-.0322-5.4912,6.1666,6.1666,0,0,1,3.4883-1.3564,14.4111,14.4111,0,0,0,3.3271-.6455q1.3244-.4527,1.3243-1.0664V161.32a2.1392,2.1392,0,0,0-1.1631-1.8086,5.4919,5.4919,0,0,0-5.458-.0322,2.1118,2.1118,0,0,0-1.0987,1.7441v.711H75.2012v-.84a2.8032,2.8032,0,0,1,1.4531-2.3584,6.3622,6.3622,0,0,1,3.5527-.9687,6.8185,6.8185,0,0,1,3.6494.9365,2.6791,2.6791,0,0,1,1.5186,2.2617v8.3321a2.6184,2.6184,0,0,0,.3545,1.39,1.0247,1.0247,0,0,0,.8721.5811,1.2058,1.2058,0,0,0,.291-.0323.4081.4081,0,0,0,.1933-.0967v.6133a2.9048,2.9048,0,0,1-1.2265.2266,1.6489,1.6489,0,0,1-1.292-.6465,2.4029,2.4029,0,0,1-.5166-1.55,3.2819,3.2819,0,0,1-1.6475,1.7764,6.0375,6.0375,0,0,1-2.9072.6777A5.3816,5.3816,0,0,1,76.04,171.1074Zm6.4922-.97a4.52,4.52,0,0,0,1.6153-2.81v-3.165a3.9242,3.9242,0,0,1-1.6475.6455,22.703,22.703,0,0,1-3.0039.42,4.3288,4.3288,0,0,0-2.5518,1.0342,2.63,2.63,0,0,0-1.0332,2.0664,2.5423,2.5423,0,0,0,1.0664,2.0674,3.7748,3.7748,0,0,0,2.5186.8721A4.54,4.54,0,0,0,82.5322,170.1377Z"/><path d="M90.4131,169.9766a7.6329,7.6329,0,0,1-1.7764-5.1036,7.93,7.93,0,0,1,1.7764-5.1992,5.3507,5.3507,0,0,1,4.2627-2.164,4.93,4.93,0,0,1,2.9072.9365,5.4893,5.4893,0,0,1,1.8731,2.5195v-8.3652h1.2919v19.1523H99.4561v-2.81a4.5633,4.5633,0,0,1-1.8409,2.2929,5.1329,5.1329,0,0,1-2.9394.8721A5.3783,5.3783,0,0,1,90.4131,169.9766Zm7.6543-.6787a7.1328,7.1328,0,0,0,1.3887-4.4249,7.0031,7.0031,0,0,0-1.3887-4.3925,4.19,4.19,0,0,0-3.3916-1.8409,4.1014,4.1014,0,0,0-3.3584,1.8409,6.9977,6.9977,0,0,0-1.39,4.3925,7.1272,7.1272,0,0,0,1.39,4.4249,4.1,4.1,0,0,0,3.3584,1.8417A4.1881,4.1881,0,0,0,98.0674,169.2979Z"/><path d="M116.1211,175.37a3.8861,3.8861,0,0,1-1.7441-3.165h1.2275a2.9154,2.9154,0,0,0,1.3564,2.39,5.6594,5.6594,0,0,0,3.3262.97,4.8888,4.8888,0,0,0,3.3916-1.1309,3.8313,3.8313,0,0,0,1.292-3.0361v-2.81a4.7526,4.7526,0,0,1-1.873,2.1318,5.1537,5.1537,0,0,1-2.7784.8067,5.3848,5.3848,0,0,1-4.3281-1.9053,8.7313,8.7313,0,0,1,0-10.2061,5.3847,5.3847,0,0,1,4.3281-1.9052,5.16,5.16,0,0,1,2.875.84,4.5138,4.5138,0,0,1,1.7764,2.2285v-2.584h1.292V171.43a4.788,4.788,0,0,1-1.583,3.8437,6.362,6.362,0,0,1-4.3926,1.3887A6.7135,6.7135,0,0,1,116.1211,175.37Zm7.4932-6.5889a7.3777,7.3777,0,0,0,0-8.5263,4.1424,4.1424,0,0,0-6.6856-.0967,8.0022,8.0022,0,0,0,0,8.72,4.1424,4.1424,0,0,0,6.6856-.0967Z"/><path d="M132.625,171.1074l-1.3242,2.1963h-1.2276l1.68-2.7783a6.0153,6.0153,0,0,1-1.6152-2.39,8.8763,8.8763,0,0,1-.5811-3.2627,7.8587,7.8587,0,0,1,1.7764-5.3613,5.8951,5.8951,0,0,1,4.6826-2.0019,6.2523,6.2523,0,0,1,3.1006.7744l1.5508-2.5508h1.2275l-1.9062,3.165a6.3994,6.3994,0,0,1,1.81,2.5518,8.8338,8.8338,0,0,1,.6455,3.4228,7.4325,7.4325,0,0,1-1.7442,5.168,6.0519,6.0519,0,0,1-4.6836,1.9385A6.6841,6.6841,0,0,1,132.625,171.1074Zm3.3906-12.4678a4.5737,4.5737,0,0,0-3.7461,1.712,6.7678,6.7678,0,0,0-1.4209,4.5214,8.421,8.421,0,0,0,.3877,2.6163,5.4049,5.4049,0,0,0,1.1621,1.9384l6.1368-10.1416A4.7651,4.7651,0,0,0,136.0156,158.64Zm3.7471,10.626a6.5878,6.5878,0,0,0,1.3887-4.3926,8.4409,8.4409,0,0,0-.4522-2.8095,5.8983,5.8983,0,0,0-1.3242-2.1319l-6.1367,10.1739a4.9354,4.9354,0,0,0,2.7773.8076A4.7065,4.7065,0,0,0,139.7627,169.2656Z"/><path d="M145.7051,171.7529V157.9941h1.292v3.1006a5.86,5.86,0,0,1,1.6142-2.4228,3.6064,3.6064,0,0,1,2.3262-.9043h.7422v1.4863a.5093.5093,0,0,1-.2256-.0654.35.35,0,0,0-.13-.0645,3.7189,3.7189,0,0,0-2.7451,1.292,6.2074,6.2074,0,0,0-1.582,3.2627v8.0742Z"/><path d="M165.1152,169.9766a7.6333,7.6333,0,0,1-1.7763-5.1036,7.93,7.93,0,0,1,1.7763-5.1992,5.3507,5.3507,0,0,1,4.2627-2.164,4.93,4.93,0,0,1,2.9073.9365,5.49,5.49,0,0,1,1.873,2.5195v-8.3652h1.292v19.1523h-1.292v-2.81a4.5625,4.5625,0,0,1-1.8408,2.2929,5.133,5.133,0,0,1-2.9395.8721A5.3783,5.3783,0,0,1,165.1152,169.9766Zm7.6543-.6787a7.1328,7.1328,0,0,0,1.3887-4.4249,7.0031,7.0031,0,0,0-1.3887-4.3925,4.1894,4.1894,0,0,0-3.3916-1.8409,4.1016,4.1016,0,0,0-3.3584,1.8409,6.9982,6.9982,0,0,0-1.39,4.3925,7.1278,7.1278,0,0,0,1.39,4.4249,4.1,4.1,0,0,0,3.3584,1.8417A4.1879,4.1879,0,0,0,172.77,169.2979Z"/><path d="M180.7783,170.8486a3.9546,3.9546,0,0,1-1.3887-3.0361v-9.8184h1.292v9.8184a3.0864,3.0864,0,0,0,1.001,2.293,3.4161,3.4161,0,0,0,2.4229.9365,4.19,4.19,0,0,0,3.0039-1.292,5.8863,5.8863,0,0,0,1.68-3.2617v-8.4942h1.292v13.7588h-1.292v-2.4218a4.6037,4.6037,0,0,1-1.8741,2.0341,5.4277,5.4277,0,0,1-2.8095.7432A4.7815,4.7815,0,0,1,180.7783,170.8486Z"/><path d="M199.124,165.6162a4.6607,4.6607,0,0,1,.84-2.5517,8.3307,8.3307,0,0,1,2.3252-2.3575,4.1677,4.1677,0,0,0,1.292-1.5508,4.9863,4.9863,0,0,0,.4521-2.1308,3.5889,3.5889,0,0,0-1.26-2.7783,4.32,4.32,0,0,0-3.0361-1.1621,4.1955,4.1955,0,0,0-3.0361,1.2265,3.9986,3.9986,0,0,0-1.26,2.9717v.7109h-1.2266v-.7109a4.8784,4.8784,0,0,1,1.5821-3.6494,5.3105,5.3105,0,0,1,3.8115-1.5186,6.0873,6.0873,0,0,1,4.0049,1.39,4.3387,4.3387,0,0,1,1.6474,3.3906,6.6207,6.6207,0,0,1-.6787,3.0039,4.8579,4.8579,0,0,1-1.9052,2.0352,4.5913,4.5913,0,0,0-1.712,1.7441,5.0617,5.0617,0,0,0-.6132,2.4541v.4844H199.124Zm0,4.167h1.4854v1.97H199.124Z"/></g></svg>
