<svg id="Layer_1" data-name="Layer 1" xmlns="http://www.w3.org/2000/svg" width="758" height="555" viewBox="0 0 758 555"><defs><style>.cls-1{fill:#fff;}</style></defs><title>COMPLETE</title><rect class="cls-1" x="19" y="12" width="713" height="518" rx="12" ry="12"/><path d="M59,52.47H76.14V57.1H70.23V91.68H65.05V57.1H59Z"/><path d="M82.31,54.23a3.28,3.28,0,0,1,3.25,3.27,3.31,3.31,0,0,1-5.64,2.34A3.23,3.23,0,0,1,79,57.48a3.14,3.14,0,0,1,1-2.29A3.38,3.38,0,0,1,82.31,54.23ZM80,65.4H84.9V91.68H80Z"/><path d="M90.36,48.54h4.85V91.68H90.36Z"/><path d="M100.72,48.54h4.85V91.68h-4.85Z"/><path d="M108.84,65.4h5.49l3.86,18.33,4.52-18.33h4.92l-10.74,37h-5.1l4-12.87Z"/><path d="M130.55,48.54h4.85V77.1l6.17-11.7h5.49l-6.71,11.7L148,91.68h-5.69l-6.86-14v14h-4.85Z"/><path d="M150.89,48.54h4.85V77.1l6.17-11.7h5.49l-6.71,11.7,7.59,14.58H162.6l-6.86-14v14h-4.85Z"/><path d="M180.6,82.82h4.52q-.54,9.27-7.62,9.26a7.83,7.83,0,0,1-3.62-.78,6.42,6.42,0,0,1-2.5-2.44,12.76,12.76,0,0,1-1.46-4.19,34,34,0,0,1-.47-6q0-7,1.94-10.31a6.47,6.47,0,0,1,6-3.35q7.89,0,7.9,13.91v.61H174.2q0,8.43,3.35,8.43Q180.6,87.92,180.6,82.82ZM180.34,76a17.91,17.91,0,0,0-.93-5.44,2.23,2.23,0,0,0-2.14-1.44,2.18,2.18,0,0,0-2.13,1.44A17.82,17.82,0,0,0,174.2,76Z"/><path d="M194.16,85.81a3.13,3.13,0,0,1,2.18,5.33,3.21,3.21,0,0,1-4.44,0,3,3,0,0,1-.92-2.23,2.92,2.92,0,0,1,.92-2.18A3.12,3.12,0,0,1,194.16,85.81Zm-2.59-33.34h5.13V82.26h-5.13Z"/><path d="M215.16,52.47h6.5a16.37,16.37,0,0,1,5,.66A8,8,0,0,1,230,55.39a14.34,14.34,0,0,1,3.15,6.35,48.07,48.07,0,0,1,.94,10.84,44.29,44.29,0,0,1-1,10.57,11.59,11.59,0,0,1-3.36,6q-2.87,2.56-10.28,2.57h-4.26Zm5.28,34.59c3.21,0,5.36-1,6.45-2.92s1.67-5.73,1.67-11.35q0-9.08-1.6-12.47c-1.06-2.27-3-3.4-5.86-3.4h-.66Z"/><path d="M239.07,65.4h4.85V83a7,7,0,0,0,.73,3.48,2.46,2.46,0,0,0,2.24,1,2.66,2.66,0,0,0,2.31-.92,6.22,6.22,0,0,0,.66-3.35V65.4h4.85V81.12q0,5.5-.81,7.36c-1.13,2.4-3.49,3.6-7.06,3.6-2.81,0-4.8-.71-6-2.13s-1.78-3.83-1.78-7.18Z"/><path d="M271.55,58h4.85V65.4H279v3.86H276.4V91.68h-4.85V69.26h-2.67V65.4h2.67Z"/><path d="M297.93,78.75q0,13.34-8.25,13.33t-8.26-13.53q0-13.58,8.23-13.58a8,8,0,0,1,3.7.81,6.44,6.44,0,0,1,2.57,2.51,13.22,13.22,0,0,1,1.51,4.29A33.37,33.37,0,0,1,297.93,78.75Zm-5-.12a26,26,0,0,0-.68-7.21,2.52,2.52,0,0,0-2.44-2.06,2.58,2.58,0,0,0-2.46,2,24.92,24.92,0,0,0-.69,7.08,24.57,24.57,0,0,0,.69,7.06,2.57,2.57,0,0,0,2.46,2,2.49,2.49,0,0,0,2.41-2A22.64,22.64,0,0,0,292.9,78.63Z"/><path d="M312.63,65.4h4.87V92.52q0,4.88-1,6.75-1.77,3.45-7.13,3.45a7.51,7.51,0,0,1-5.54-2,7.41,7.41,0,0,1-2-5.46l0-.81h4.7q0,4.18,3.12,4.18A2.44,2.44,0,0,0,312,97.57a8.62,8.62,0,0,0,.63-4v-5c-1,2.4-2.62,3.6-4.75,3.6a5.11,5.11,0,0,1-4.86-3.2q-1.56-3.19-1.56-10,0-7.22,1.5-10.64a5,5,0,0,1,4.9-3.27,4.23,4.23,0,0,1,2.64.78,9.54,9.54,0,0,1,2.13,2.8Zm.08,13.38q0-9.42-3.25-9.42c-1,0-1.79.71-2.26,2.12a23.11,23.11,0,0,0-.71,6.79,26.4,26.4,0,0,0,.73,7.29c.51,1.44,1.36,2.16,2.54,2.16a2.37,2.37,0,0,0,2.31-1.93A25.09,25.09,0,0,0,312.71,78.78Z"/><path d="M348.76,48.54V91.68h-4.85V88.3a8.39,8.39,0,0,1-2.08,3,4.41,4.41,0,0,1-2.77.81,5,5,0,0,1-4.77-3.33q-1.53-3.34-1.53-10.5a39.53,39.53,0,0,1,.39-6,14.59,14.59,0,0,1,1.15-4.14,5.67,5.67,0,0,1,2-2.4,5.36,5.36,0,0,1,2.9-.77,4.36,4.36,0,0,1,2.64.76,5.4,5.4,0,0,1,1,1,10,10,0,0,1,1,1.63V48.54Zm-11,29.88a25.82,25.82,0,0,0,.69,7.24A2.57,2.57,0,0,0,341,87.72c1.08,0,1.87-.71,2.36-2.14a24.72,24.72,0,0,0,.73-7,25,25,0,0,0-.73-7.06c-.49-1.42-1.28-2.13-2.36-2.13a2.58,2.58,0,0,0-2.47,2A23.15,23.15,0,0,0,337.79,78.42Z"/><path d="M364.43,82.82H369q-.54,9.27-7.62,9.26a7.8,7.8,0,0,1-3.62-.78,6.35,6.35,0,0,1-2.5-2.44,12.54,12.54,0,0,1-1.46-4.19,34,34,0,0,1-.47-6q0-7,1.94-10.31a6.47,6.47,0,0,1,6-3.35q7.89,0,7.89,13.91v.61H358q0,8.43,3.35,8.43Q364.43,87.92,364.43,82.82ZM364.17,76a17.5,17.5,0,0,0-.94-5.44,2.21,2.21,0,0,0-2.13-1.44A2.18,2.18,0,0,0,359,70.55,17.5,17.5,0,0,0,358,76Z"/><path d="M384.21,65.4h4.85v3.27a9.29,9.29,0,0,1,2.46-2.92,6.36,6.36,0,0,1,3.22-1v5.08a6.09,6.09,0,0,0-.86-.08,4.59,4.59,0,0,0-3.73,1.35c-.73.88-1.09,2.42-1.09,4.62V91.68h-4.85Z"/><path d="M400.48,54.23a3.28,3.28,0,0,1,3.25,3.27,3.31,3.31,0,0,1-5.64,2.34,3.23,3.23,0,0,1-.93-2.36,3.14,3.14,0,0,1,1-2.29A3.38,3.38,0,0,1,400.48,54.23ZM398.2,65.4h4.87V91.68H398.2Z"/><path d="M418.71,65.4h4.88V92.52q0,4.88-1,6.75-1.77,3.45-7.13,3.45a7.51,7.51,0,0,1-5.54-2,7.41,7.41,0,0,1-2-5.46l0-.81h4.69q0,4.18,3.13,4.18a2.43,2.43,0,0,0,2.31-1.06,8.62,8.62,0,0,0,.63-4v-5q-1.54,3.6-4.75,3.6a5.11,5.11,0,0,1-4.86-3.2q-1.56-3.19-1.56-10,0-7.22,1.5-10.64a5,5,0,0,1,4.9-3.27,4.23,4.23,0,0,1,2.64.78,9.21,9.21,0,0,1,2.13,2.8Zm.08,13.38q0-9.42-3.25-9.42c-1,0-1.79.71-2.26,2.12a23.11,23.11,0,0,0-.71,6.79,26.4,26.4,0,0,0,.73,7.29c.51,1.44,1.36,2.16,2.54,2.16a2.37,2.37,0,0,0,2.31-1.93A24.7,24.7,0,0,0,418.79,78.78Z"/><path d="M429.66,58h4.84V65.4h2.65v3.86H434.5V91.68h-4.84V69.26H427V65.4h2.67Z"/><path d="M442.91,54.23a3.3,3.3,0,0,1,3.25,3.27,3.31,3.31,0,0,1-5.64,2.34,3.24,3.24,0,0,1-.94-2.36,3.11,3.11,0,0,1,1-2.29A3.38,3.38,0,0,1,442.91,54.23ZM440.62,65.4h4.88V91.68h-4.88Z"/><path d="M461.14,65.4H466V92.52q0,4.88-1,6.75-1.77,3.45-7.13,3.45a7.51,7.51,0,0,1-5.54-2,7.41,7.41,0,0,1-2-5.46l0-.81h4.7q0,4.18,3.12,4.18a2.41,2.41,0,0,0,2.31-1.06,8.46,8.46,0,0,0,.64-4v-5c-1,2.4-2.62,3.6-4.75,3.6a5.11,5.11,0,0,1-4.86-3.2q-1.56-3.19-1.56-10,0-7.22,1.5-10.64a5,5,0,0,1,4.9-3.27,4.23,4.23,0,0,1,2.64.78,9.54,9.54,0,0,1,2.13,2.8Zm.08,13.38q0-9.42-3.25-9.42c-1,0-1.79.71-2.26,2.12a23.11,23.11,0,0,0-.71,6.79,26.4,26.4,0,0,0,.73,7.29c.51,1.44,1.36,2.16,2.54,2.16a2.37,2.37,0,0,0,2.31-1.93A25.09,25.09,0,0,0,461.22,78.78Z"/><path d="M481.66,82.82h4.51q-.53,9.27-7.61,9.26a7.8,7.8,0,0,1-3.62-.78,6.35,6.35,0,0,1-2.5-2.44A12.54,12.54,0,0,1,471,84.67a34,34,0,0,1-.47-6q0-7,1.94-10.31a6.47,6.47,0,0,1,6-3.35q7.89,0,7.89,13.91v.61H475.26c0,5.62,1.11,8.43,3.35,8.43Q481.66,87.92,481.66,82.82ZM481.4,76a17.82,17.82,0,0,0-.94-5.44,2.21,2.21,0,0,0-2.13-1.44,2.18,2.18,0,0,0-2.13,1.44,17.5,17.5,0,0,0-.94,5.44Z"/><path d="M498.9,65.4h5.2l1.9,8.33q.58,2.53,1,5.37t.66,6.18c.1-.53.15-.83.15-.91l.58-3.91c.22-1.49.65-3.74,1.3-6.73l1.75-8.33h4.7l-6.86,26.28H506Z"/><path d="M533.93,65.4V91.68h-4.85V88.3a8.27,8.27,0,0,1-2.08,3,4.34,4.34,0,0,1-2.74.81,5,5,0,0,1-4.8-3.35q-1.51-3.35-1.52-10.51,0-6.82,1.52-10a5,5,0,0,1,4.8-3.21q3,0,4.82,3.4v-3Zm-11,13a25.92,25.92,0,0,0,.68,7.24,2.58,2.58,0,0,0,2.49,2.06c1.08,0,1.87-.71,2.36-2.14a24.65,24.65,0,0,0,.74-7,24.89,24.89,0,0,0-.74-7.06c-.49-1.42-1.28-2.13-2.36-2.13a2.58,2.58,0,0,0-2.46,2C523.2,72.64,523,75,523,78.42Z"/><path d="M539.44,48.54h4.85V91.68h-4.85Z"/><path d="M560,65.4h4.87V92.52q0,4.88-1,6.75-1.78,3.45-7.14,3.45a7.49,7.49,0,0,1-5.53-2,7.38,7.38,0,0,1-2-5.46l0-.81h4.7q0,4.18,3.12,4.18a2.43,2.43,0,0,0,2.31-1.06,8.59,8.59,0,0,0,.64-4v-5q-1.56,3.6-4.75,3.6a5.13,5.13,0,0,1-4.87-3.2q-1.56-3.19-1.56-10,0-7.22,1.5-10.64a5,5,0,0,1,4.9-3.27,4.21,4.21,0,0,1,2.64.78,9.37,9.37,0,0,1,2.14,2.8Zm.07,13.38q0-9.42-3.25-9.42c-1,0-1.78.71-2.26,2.12a23.46,23.46,0,0,0-.71,6.79,26.32,26.32,0,0,0,.74,7.29c.5,1.44,1.35,2.16,2.54,2.16a2.39,2.39,0,0,0,2.31-1.93A25.21,25.21,0,0,0,560.06,78.78Z"/><path d="M573.06,85.79a2.9,2.9,0,0,1,2.16.94,3.13,3.13,0,0,1,0,4.41,3.19,3.19,0,0,1-4.44,0,3,3,0,0,1-.68-1,3.14,3.14,0,0,1-.24-1.23,3,3,0,0,1,.92-2.21A3.12,3.12,0,0,1,573.06,85.79Z"/><path d="M62.08,114.87h6.5a16.37,16.37,0,0,1,5,.66,8,8,0,0,1,3.35,2.26,14.34,14.34,0,0,1,3.15,6.35A48.07,48.07,0,0,1,81,135a44.29,44.29,0,0,1-1,10.57,11.59,11.59,0,0,1-3.36,6q-2.87,2.56-10.28,2.57H62.08Zm5.28,34.59c3.21,0,5.36-1,6.45-2.92s1.67-5.73,1.67-11.35q0-9.08-1.6-12.47c-1.06-2.27-3-3.4-5.86-3.4h-.66Z"/><path d="M96.15,145.22h4.52q-.54,9.27-7.62,9.26a7.83,7.83,0,0,1-3.62-.78,6.42,6.42,0,0,1-2.5-2.44,12.76,12.76,0,0,1-1.46-4.19,34,34,0,0,1-.47-6q0-7,2-10.31a6.44,6.44,0,0,1,6-3.35q7.89,0,7.9,13.91v.61H89.75q0,8.43,3.35,8.43Q96.15,150.32,96.15,145.22Zm-.25-6.83A18.14,18.14,0,0,0,95,133a2.22,2.22,0,0,0-2.14-1.44A2.18,2.18,0,0,0,90.69,133a17.82,17.82,0,0,0-.94,5.44Z"/><path d="M105.75,120.44h4.85v7.36h2.64v3.86H110.6v22.42h-4.85V131.66h-2.67V127.8h2.67Z"/><path d="M137.64,145.22h4.52q-.54,9.27-7.62,9.26a7.8,7.8,0,0,1-3.62-.78,6.42,6.42,0,0,1-2.5-2.44,12.54,12.54,0,0,1-1.46-4.19,34,34,0,0,1-.47-6q0-7,1.94-10.31a6.47,6.47,0,0,1,6-3.35q7.89,0,7.89,13.91v.61H131.24q0,8.43,3.35,8.43Q137.64,150.32,137.64,145.22Zm-.26-6.83a17.5,17.5,0,0,0-.94-5.44,2.21,2.21,0,0,0-2.13-1.44,2.18,2.18,0,0,0-2.13,1.44,17.82,17.82,0,0,0-.94,5.44Z"/><path d="M146.65,127.8h4.85v3.27a9.42,9.42,0,0,1,2.46-2.92,6.39,6.39,0,0,1,3.23-1v5.08a6.23,6.23,0,0,0-.86-.08,4.61,4.61,0,0,0-3.74,1.35c-.72.88-1.09,2.42-1.09,4.62v15.92h-4.85Z"/><path d="M171.31,127.8h4.85v17.57a7,7,0,0,0,.72,3.48,2.49,2.49,0,0,0,2.25,1,2.66,2.66,0,0,0,2.31-.92,6.22,6.22,0,0,0,.66-3.35V127.8H187v15.72q0,5.5-.82,7.36-1.69,3.6-7,3.6-4.22,0-6-2.13t-1.77-7.18Z"/><path d="M192.43,110.94h4.85v43.14h-4.85Z"/><path d="M218.3,141.15q0,13.33-8.25,13.33T201.8,141q0-13.57,8.23-13.58a7.91,7.91,0,0,1,3.69.81,6.53,6.53,0,0,1,2.58,2.51,13.46,13.46,0,0,1,1.51,4.29A33.45,33.45,0,0,1,218.3,141.15Zm-5-.12a25.47,25.47,0,0,0-.69-7.21,2.52,2.52,0,0,0-2.44-2.06,2.58,2.58,0,0,0-2.46,2,24.92,24.92,0,0,0-.69,7.08,24.57,24.57,0,0,0,.69,7.06,2.57,2.57,0,0,0,2.46,2,2.5,2.5,0,0,0,2.42-2A22.64,22.64,0,0,0,213.28,141Z"/><path d="M220,127.8h5.2l1.91,8.33q.58,2.53,1,5.37t.66,6.18c.1-.53.15-.83.15-.91l.59-3.92c.22-1.48.65-3.73,1.29-6.72l1.75-8.33h4.7l-6.86,26.28h-3.27Z"/><path d="M240.47,110.94h4.85v43.14h-4.85Z"/><path d="M253.11,116.63a3.28,3.28,0,0,1,3.25,3.27,3.29,3.29,0,1,1-6.57,0,3.14,3.14,0,0,1,1-2.29A3.4,3.4,0,0,1,253.11,116.63Zm-2.28,11.17h4.87v26.28h-4.87Z"/><path d="M271.34,127.8h4.88v27.12q0,4.88-1,6.75-1.77,3.45-7.13,3.45a7.53,7.53,0,0,1-5.54-2,7.41,7.41,0,0,1-2-5.46l0-.81h4.7q0,4.18,3.12,4.18a2.43,2.43,0,0,0,2.31-1.06,8.62,8.62,0,0,0,.63-4v-5.05q-1.54,3.6-4.74,3.6a5.13,5.13,0,0,1-4.87-3.2q-1.56-3.19-1.56-10,0-7.22,1.5-10.64a5,5,0,0,1,4.9-3.27,4.21,4.21,0,0,1,2.64.78,9.21,9.21,0,0,1,2.13,2.8Zm.08,13.38q0-9.42-3.25-9.42c-1,0-1.79.71-2.26,2.12a23.46,23.46,0,0,0-.71,6.79,26.32,26.32,0,0,0,.74,7.29c.5,1.44,1.35,2.16,2.54,2.16a2.39,2.39,0,0,0,2.31-1.93A25.21,25.21,0,0,0,271.42,141.18Z"/><path d="M282.29,120.44h4.85v7.36h2.64v3.86h-2.64v22.42h-4.85V131.66h-2.67V127.8h2.67Z"/><path d="M319,127.8v26.28h-4.85V150.7a8.52,8.52,0,0,1-2.08,3,4.37,4.37,0,0,1-2.75.81,5,5,0,0,1-4.79-3.35Q303,147.79,303,140.62q0-6.83,1.53-10a5,5,0,0,1,4.79-3.21q3,0,4.83,3.4v-3Zm-11,13a25.82,25.82,0,0,0,.69,7.24,2.57,2.57,0,0,0,2.48,2.06c1.09,0,1.87-.71,2.36-2.14a24.29,24.29,0,0,0,.74-7,24.52,24.52,0,0,0-.74-7.06c-.49-1.42-1.27-2.13-2.36-2.13a2.58,2.58,0,0,0-2.46,2A23.15,23.15,0,0,0,308.06,140.82Z"/><path d="M325.12,120.44H330v7.36h2.64v3.86H330v22.42h-4.85V131.66h-2.66V127.8h2.66Z"/><path d="M361.86,110.94v43.14H357V150.7a8.39,8.39,0,0,1-2.08,3,4.39,4.39,0,0,1-2.77.81,5,5,0,0,1-4.77-3.33q-1.53-3.35-1.52-10.5a39.56,39.56,0,0,1,.38-6,14.93,14.93,0,0,1,1.15-4.14,5.62,5.62,0,0,1,2-2.4,5.22,5.22,0,0,1,2.89-.77,4.32,4.32,0,0,1,2.64.76,5.13,5.13,0,0,1,1,1,10,10,0,0,1,1,1.63V110.94Zm-11,29.88a25.82,25.82,0,0,0,.69,7.24,2.57,2.57,0,0,0,2.49,2.06c1.08,0,1.87-.71,2.36-2.14a24.65,24.65,0,0,0,.74-7,24.89,24.89,0,0,0-.74-7.06c-.49-1.42-1.28-2.13-2.36-2.13a2.6,2.6,0,0,0-2.47,2A23.15,23.15,0,0,0,350.89,140.82Z"/><path d="M377.53,145.22h4.52q-.54,9.27-7.62,9.26a7.83,7.83,0,0,1-3.62-.78,6.42,6.42,0,0,1-2.5-2.44,12.76,12.76,0,0,1-1.46-4.19,34,34,0,0,1-.47-6q0-7,1.94-10.31a6.47,6.47,0,0,1,6-3.35q7.89,0,7.9,13.91v.61h-11.1q0,8.43,3.35,8.43Q377.53,150.32,377.53,145.22Zm-.26-6.83a17.5,17.5,0,0,0-.94-5.44,2.21,2.21,0,0,0-2.13-1.44,2.18,2.18,0,0,0-2.13,1.44,17.82,17.82,0,0,0-.94,5.44Z"/><path d="M386.54,110.94h4.85v43.14h-4.85Z"/><path d="M407.06,145.22h4.52q-.54,9.27-7.62,9.26a7.8,7.8,0,0,1-3.62-.78,6.35,6.35,0,0,1-2.5-2.44,12.54,12.54,0,0,1-1.46-4.19,34,34,0,0,1-.47-6q0-7,1.94-10.31a6.47,6.47,0,0,1,6-3.35q7.89,0,7.89,13.91v.61H400.66q0,8.43,3.35,8.43Q407.06,150.32,407.06,145.22Zm-.26-6.83a17.5,17.5,0,0,0-.94-5.44,2.21,2.21,0,0,0-2.13-1.44A2.18,2.18,0,0,0,401.6,133a17.82,17.82,0,0,0-.94,5.44Z"/><path d="M437,145.22h4.52q-.52,9.27-7.61,9.26a7.77,7.77,0,0,1-3.62-.78,6.35,6.35,0,0,1-2.5-2.44,12.54,12.54,0,0,1-1.46-4.19,33.06,33.06,0,0,1-.47-6q0-7,1.94-10.31a6.45,6.45,0,0,1,6-3.35q7.9,0,7.9,13.91v.61h-11.1q0,8.43,3.36,8.43Q437,150.32,437,145.22Zm-.25-6.83a17.82,17.82,0,0,0-.94-5.44,2.3,2.3,0,0,0-4.27,0,18.14,18.14,0,0,0-.94,5.44Z"/><path d="M446.59,120.44h4.85v7.36h2.64v3.86h-2.64v22.42h-4.85V131.66h-2.67V127.8h2.67Z"/><path d="M468.33,110.94h4.84v19.83a10,10,0,0,1,1.05-1.63,5.13,5.13,0,0,1,1-1,4.24,4.24,0,0,1,2.64-.76,5.24,5.24,0,0,1,2.89.77,5.69,5.69,0,0,1,2,2.4,14.93,14.93,0,0,1,1.15,4.14,40.92,40.92,0,0,1,.38,6q0,7.15-1.52,10.5a5,5,0,0,1-4.78,3.33,4.36,4.36,0,0,1-2.76-.81,8.39,8.39,0,0,1-2.09-3v3.38h-4.84Zm11,30.14c0-3.57-.23-6-.71-7.26a2.52,2.52,0,0,0-2.46-2.06c-1.12,0-1.9.69-2.36,2.08a25.17,25.17,0,0,0-.69,7.11,25.36,25.36,0,0,0,.69,7.11c.46,1.37,1.24,2.06,2.36,2.06a2.58,2.58,0,0,0,2.46-2C479.06,146.83,479.29,144.5,479.29,141.08Z"/><path d="M491.13,116.63a3.11,3.11,0,0,1,2.28,1,3.16,3.16,0,0,1,1,2.31,3.29,3.29,0,1,1-6.58,0,3.14,3.14,0,0,1,1-2.29A3.42,3.42,0,0,1,491.13,116.63Zm-2.29,11.17h4.88v26.28h-4.88Z"/><path d="M499.17,110.94H504v43.14h-4.85Z"/><path d="M509.53,110.94h4.85v43.14h-4.85Z"/><path d="M530.05,145.22h4.52q-.54,9.27-7.62,9.26a7.83,7.83,0,0,1-3.62-.78,6.42,6.42,0,0,1-2.5-2.44,12.76,12.76,0,0,1-1.46-4.19,34,34,0,0,1-.47-6q0-7,2-10.31a6.44,6.44,0,0,1,6-3.35q7.9,0,7.9,13.91v.61h-11.1q0,8.43,3.35,8.43Q530,150.32,530.05,145.22Zm-.25-6.83a18.14,18.14,0,0,0-.94-5.44,2.22,2.22,0,0,0-2.14-1.44,2.18,2.18,0,0,0-2.13,1.44,17.82,17.82,0,0,0-.94,5.44Z"/><path d="M554.07,110.94v43.14h-4.85V150.7a8.39,8.39,0,0,1-2.08,3,4.41,4.41,0,0,1-2.77.81,5,5,0,0,1-4.77-3.33q-1.53-3.35-1.53-10.5a40.92,40.92,0,0,1,.38-6,14.91,14.91,0,0,1,1.16-4.14,5.67,5.67,0,0,1,2-2.4,5.28,5.28,0,0,1,2.9-.77,4.36,4.36,0,0,1,2.64.76,5.4,5.4,0,0,1,1,1,10.72,10.72,0,0,1,1,1.63V110.94Zm-11,29.88a25.82,25.82,0,0,0,.69,7.24,2.57,2.57,0,0,0,2.48,2.06c1.09,0,1.87-.71,2.37-2.14a24.72,24.72,0,0,0,.73-7,25,25,0,0,0-.73-7.06c-.5-1.42-1.28-2.13-2.37-2.13a2.58,2.58,0,0,0-2.46,2A23.15,23.15,0,0,0,543.1,140.82Z"/><path d="M569.74,145.22h4.51q-.53,9.27-7.61,9.26a7.8,7.8,0,0,1-3.62-.78,6.35,6.35,0,0,1-2.5-2.44,12.54,12.54,0,0,1-1.46-4.19,34,34,0,0,1-.47-6q0-7,1.94-10.31a6.47,6.47,0,0,1,6-3.35q7.89,0,7.89,13.91v.61H563.34c0,5.62,1.11,8.43,3.35,8.43Q569.74,150.32,569.74,145.22Zm-.26-6.83a17.82,17.82,0,0,0-.94-5.44,2.21,2.21,0,0,0-2.13-1.44,2.18,2.18,0,0,0-2.13,1.44,17.5,17.5,0,0,0-.94,5.44Z"/><path d="M589.51,127.8h4.85v3.25c1.34-2.46,3.12-3.68,5.34-3.68a4.87,4.87,0,0,1,4.92,3.68c1.29-2.46,3.12-3.68,5.49-3.68a5.68,5.68,0,0,1,4.22,1.46,5.79,5.79,0,0,1,1.46,4.3v21h-4.87V136.79a9.48,9.48,0,0,0-.56-4,2.12,2.12,0,0,0-2.08-1,2.53,2.53,0,0,0-2.39,1.07,8.79,8.79,0,0,0-.61,4v17.29h-5V136.79a17.48,17.48,0,0,0-.13-2.36,4.59,4.59,0,0,0-.47-1.55,2,2,0,0,0-.87-.85,2.87,2.87,0,0,0-1.32-.27,2.57,2.57,0,0,0-2.38,1.14,7.7,7.7,0,0,0-.72,3.89v17.29h-4.85Z"/><path d="M631.43,145.22H636q-.53,9.27-7.61,9.26a7.8,7.8,0,0,1-3.62-.78,6.35,6.35,0,0,1-2.5-2.44,12.54,12.54,0,0,1-1.46-4.19,33.06,33.06,0,0,1-.47-6q0-7,1.94-10.31a6.47,6.47,0,0,1,6-3.35q7.89,0,7.89,13.91v.61H625c0,5.62,1.11,8.43,3.35,8.43Q631.43,150.32,631.43,145.22Zm-.25-6.83a17.82,17.82,0,0,0-.94-5.44,2.21,2.21,0,0,0-2.13-1.44A2.18,2.18,0,0,0,626,133a17.5,17.5,0,0,0-.94,5.44Z"/><path d="M655.45,110.94v43.14H650.6V150.7a8.27,8.27,0,0,1-2.08,3,4.37,4.37,0,0,1-2.77.81,5,5,0,0,1-4.77-3.33q-1.51-3.35-1.52-10.5a39.56,39.56,0,0,1,.38-6,14.93,14.93,0,0,1,1.15-4.14,5.62,5.62,0,0,1,2-2.4,5.22,5.22,0,0,1,2.89-.77,4.32,4.32,0,0,1,2.64.76,5.13,5.13,0,0,1,1,1,9.37,9.37,0,0,1,1,1.63V110.94Zm-11,29.88a25.92,25.92,0,0,0,.68,7.24,2.57,2.57,0,0,0,2.49,2.06c1.08,0,1.87-.71,2.36-2.14a24.65,24.65,0,0,0,.74-7,24.89,24.89,0,0,0-.74-7.06c-.49-1.42-1.28-2.13-2.36-2.13a2.58,2.58,0,0,0-2.46,2C644.72,135,644.49,137.39,644.49,140.82Z"/><path d="M681.89,145.22h4.52q-.54,9.27-7.62,9.26a7.8,7.8,0,0,1-3.62-.78,6.35,6.35,0,0,1-2.5-2.44,12.54,12.54,0,0,1-1.46-4.19,34,34,0,0,1-.47-6q0-7,1.94-10.31a6.47,6.47,0,0,1,6-3.35q7.89,0,7.89,13.91v.61H675.49c0,5.62,1.11,8.43,3.35,8.43Q681.89,150.32,681.89,145.22Zm-.26-6.83a17.5,17.5,0,0,0-.94-5.44,2.21,2.21,0,0,0-2.13-1.44,2.18,2.18,0,0,0-2.13,1.44,17.5,17.5,0,0,0-.94,5.44Z"/><path d="M691.48,120.44h4.85v7.36H699v3.86h-2.64v22.42h-4.85V131.66h-2.66V127.8h2.66Z"/><path d="M61.8,173.34h4.85V201.9l6.17-11.7H78.3l-6.7,11.7,7.59,14.58H73.5l-6.85-14v14H61.8Z"/><path d="M96.45,189.31,99,190.93l-2.38,4.3A27.14,27.14,0,0,1,97.67,204q0,12.93-8.25,12.92a6.88,6.88,0,0,1-5.36-2.13l-1.77,2.57-2.47-1.71,2.42-3.83a35.61,35.61,0,0,1-1.07-8.73q0-6.86,2-10.07a6.76,6.76,0,0,1,6.19-3.21A7.77,7.77,0,0,1,94.83,192Zm-4.67,6.75a2.29,2.29,0,0,0-2.41-1.9A2.49,2.49,0,0,0,87,196a20.44,20.44,0,0,0-.68,6.27l.07,3.43Zm-4.67,14.65a2.46,2.46,0,0,0,2.46,2,2.41,2.41,0,0,0,2.36-1.88,24.74,24.74,0,0,0,.66-6.85l0-3.18Z"/><path d="M102.17,190.2H107v3c1.38-2.3,3.18-3.45,5.38-3.45a4.78,4.78,0,0,1,4.57,2.51c.51.95.76,2.78.76,5.51v18.69h-4.85l0-17.57a8.24,8.24,0,0,0-.64-3.79A2.3,2.3,0,0,0,110,194a3,3,0,0,0-1.41.29,2.22,2.22,0,0,0-.93.94,5.11,5.11,0,0,0-.52,1.69,16.79,16.79,0,0,0-.16,2.56v17h-4.85Z"/><path d="M133.37,190.73v4.55a6.16,6.16,0,0,0-3.73-1.32,3.08,3.08,0,0,0-2.2.85,2.75,2.75,0,0,0-.66.94,2.82,2.82,0,0,0-.24,1.15c0,1.25,1.14,2.74,3.4,4.47a23.92,23.92,0,0,1,2.29,2,9.48,9.48,0,0,1,1.4,1.73,7.52,7.52,0,0,1,1,4,7.84,7.84,0,0,1-2.06,5.67,7.23,7.23,0,0,1-5.46,2.1,8.52,8.52,0,0,1-4.27-1.24v-4.7a6.81,6.81,0,0,0,4,1.58c2.22,0,3.33-1.1,3.33-3.28a3.71,3.71,0,0,0-.61-2.11,6,6,0,0,0-.89-1c-.41-.38-.91-.81-1.5-1.28a19.55,19.55,0,0,1-4.16-4,7.4,7.4,0,0,1-1.07-4,7.19,7.19,0,0,1,2-5.21,6.93,6.93,0,0,1,5.15-2A9,9,0,0,1,133.37,190.73Z"/><path d="M154,203.55q0,13.33-8.25,13.33t-8.25-13.53q0-13.59,8.23-13.58a7.91,7.91,0,0,1,3.69.81,6.53,6.53,0,0,1,2.58,2.51,13.22,13.22,0,0,1,1.51,4.29A33.45,33.45,0,0,1,154,203.55Zm-5-.12a25.47,25.47,0,0,0-.69-7.21,2.52,2.52,0,0,0-2.44-2.06,2.58,2.58,0,0,0-2.46,2,25,25,0,0,0-.68,7.08,24.66,24.66,0,0,0,.68,7.06,2.57,2.57,0,0,0,2.46,2,2.49,2.49,0,0,0,2.42-2A22.64,22.64,0,0,0,149,203.43Z"/><path d="M158.53,190.2h4.85v3.27a9.3,9.3,0,0,1,2.47-2.92,6.32,6.32,0,0,1,3.22-1v5.08a6.09,6.09,0,0,0-.86-.08,4.57,4.57,0,0,0-3.73,1.35c-.73.88-1.1,2.42-1.1,4.62v15.92h-4.85Z"/><path d="M182.91,190.2h4.87v27.12q0,4.88-1,6.75c-1.19,2.3-3.56,3.45-7.14,3.45a7.5,7.5,0,0,1-5.53-2,7.37,7.37,0,0,1-2-5.46l0-.81h4.7q0,4.19,3.12,4.18a2.41,2.41,0,0,0,2.31-1.06,8.46,8.46,0,0,0,.64-4v-5.05c-1,2.4-2.62,3.6-4.75,3.6a5.11,5.11,0,0,1-4.86-3.2q-1.56-3.19-1.56-10,0-7.22,1.5-10.64a5,5,0,0,1,4.9-3.27,4.23,4.23,0,0,1,2.64.78,9.54,9.54,0,0,1,2.13,2.8Zm.08,13.38q0-9.42-3.25-9.42c-1,0-1.79.71-2.26,2.12a23,23,0,0,0-.72,6.79,26.32,26.32,0,0,0,.74,7.29c.51,1.44,1.36,2.16,2.54,2.16a2.37,2.37,0,0,0,2.31-1.93A25.09,25.09,0,0,0,183,203.58Z"/><path d="M208.33,190.2v26.28h-4.85V213.1a8.39,8.39,0,0,1-2.09,3,4.32,4.32,0,0,1-2.74.81,5,5,0,0,1-4.8-3.35q-1.51-3.34-1.52-10.51,0-6.83,1.52-10a5,5,0,0,1,4.8-3.21q3,0,4.83,3.4v-3Zm-11,13a25.92,25.92,0,0,0,.68,7.24,2.59,2.59,0,0,0,2.49,2.06c1.08,0,1.87-.71,2.36-2.14a33.91,33.91,0,0,0,0-14.09c-.49-1.42-1.28-2.13-2.36-2.13a2.58,2.58,0,0,0-2.46,2C197.59,197.44,197.36,199.79,197.36,203.22Z"/><path d="M213.83,190.2h4.85v3q2.08-3.45,5.39-3.45a4.79,4.79,0,0,1,4.57,2.51c.51.95.76,2.78.76,5.51v18.69h-4.85l0-17.57a8.27,8.27,0,0,0-.63-3.79,2.3,2.3,0,0,0-2.18-1.11,3,3,0,0,0-1.41.29,2.22,2.22,0,0,0-.93.94,5.11,5.11,0,0,0-.52,1.69,16.64,16.64,0,0,0-.17,2.56v17h-4.85Z"/><path d="M245.65,190.2h4.85v17.57a7,7,0,0,0,.72,3.48,2.49,2.49,0,0,0,2.25,1,2.66,2.66,0,0,0,2.31-.92,6.22,6.22,0,0,0,.66-3.35V190.2h4.85v15.72q0,5.51-.81,7.36-1.71,3.6-7.06,3.6-4.21,0-6-2.13t-1.78-7.18Z"/><path d="M281.78,173.34v43.14h-4.85V213.1a8.39,8.39,0,0,1-2.08,3,4.41,4.41,0,0,1-2.77.81,5,5,0,0,1-4.77-3.34q-1.53-3.33-1.53-10.49a39.43,39.43,0,0,1,.39-6,14.59,14.59,0,0,1,1.15-4.14,5.67,5.67,0,0,1,2-2.4,5.28,5.28,0,0,1,2.9-.77,4.36,4.36,0,0,1,2.64.76,5.4,5.4,0,0,1,1,1,10,10,0,0,1,1,1.63V173.34Zm-11,29.88a25.82,25.82,0,0,0,.69,7.24,2.57,2.57,0,0,0,2.49,2.06c1.08,0,1.87-.71,2.36-2.14a34.36,34.36,0,0,0,0-14.09c-.49-1.42-1.28-2.13-2.36-2.13a2.58,2.58,0,0,0-2.47,2A23.15,23.15,0,0,0,270.81,203.22Z"/><path d="M297.45,207.62H302q-.54,9.25-7.62,9.26a7.8,7.8,0,0,1-3.62-.78,6.35,6.35,0,0,1-2.5-2.44,12.54,12.54,0,0,1-1.46-4.19,34,34,0,0,1-.47-6q0-7,1.94-10.31a6.47,6.47,0,0,1,6-3.35q7.89,0,7.89,13.91v.61H291.05q0,8.43,3.35,8.43Q297.45,212.72,297.45,207.62Zm-.26-6.83a17.5,17.5,0,0,0-.94-5.44,2.21,2.21,0,0,0-2.13-1.44,2.18,2.18,0,0,0-2.13,1.44,17.5,17.5,0,0,0-.94,5.44Z"/><path d="M306.46,190.2h4.85v3q2.08-3.45,5.38-3.45a4.77,4.77,0,0,1,4.57,2.51c.51.95.76,2.78.76,5.51v18.69h-4.85l0-17.57a8.11,8.11,0,0,0-.64-3.79,2.3,2.3,0,0,0-2.18-1.11,3,3,0,0,0-1.41.29,2.15,2.15,0,0,0-.92.94,5.1,5.1,0,0,0-.53,1.69,16.79,16.79,0,0,0-.16,2.56v17h-4.85Z"/><path d="M338.86,182.83h4.85v7.37h2.64v3.86h-2.64v22.42h-4.85V194.06h-2.67V190.2h2.67Z"/><path d="M352.11,179a3.28,3.28,0,0,1,3.25,3.27,3.29,3.29,0,1,1-6.57,0,3.14,3.14,0,0,1,1-2.29A3.4,3.4,0,0,1,352.11,179Zm-2.28,11.17h4.87v26.28h-4.87Z"/><path d="M360.16,173.34H365v43.14h-4.85Z"/><path d="M370.52,173.34h4.85v43.14h-4.85Z"/><path d="M395.89,190.2v26.28H391V213.1a8.39,8.39,0,0,1-2.09,3,4.32,4.32,0,0,1-2.74.81,5,5,0,0,1-4.8-3.35q-1.52-3.34-1.52-10.51,0-6.83,1.52-10a5,5,0,0,1,4.8-3.21q3,0,4.83,3.4v-3Zm-11,13a26.31,26.31,0,0,0,.68,7.24,2.59,2.59,0,0,0,2.49,2.06c1.08,0,1.87-.71,2.36-2.14a33.91,33.91,0,0,0,0-14.09c-.49-1.42-1.28-2.13-2.36-2.13a2.58,2.58,0,0,0-2.46,2C385.15,197.44,384.92,199.79,384.92,203.22Z"/><path d="M416.4,173.34v43.14h-4.85V213.1a8.39,8.39,0,0,1-2.08,3,4.39,4.39,0,0,1-2.77.81,5,5,0,0,1-4.77-3.34q-1.53-3.33-1.52-10.49a39.56,39.56,0,0,1,.38-6,14.59,14.59,0,0,1,1.15-4.14,5.67,5.67,0,0,1,2-2.4,5.28,5.28,0,0,1,2.9-.77,4.32,4.32,0,0,1,2.64.76,5.13,5.13,0,0,1,1,1,10,10,0,0,1,1,1.63V173.34Zm-11,29.88a25.82,25.82,0,0,0,.69,7.24,2.57,2.57,0,0,0,2.49,2.06c1.08,0,1.87-.71,2.36-2.14a34.36,34.36,0,0,0,0-14.09c-.49-1.42-1.28-2.13-2.36-2.13a2.59,2.59,0,0,0-2.47,2A23.15,23.15,0,0,0,405.43,203.22Z"/><path d="M432.07,207.62h4.52q-.54,9.25-7.62,9.26a7.8,7.8,0,0,1-3.62-.78,6.35,6.35,0,0,1-2.5-2.44,12.54,12.54,0,0,1-1.46-4.19,34,34,0,0,1-.47-6q0-7,1.94-10.31a6.47,6.47,0,0,1,6-3.35q7.89,0,7.89,13.91v.61H425.67q0,8.43,3.35,8.43Q432.07,212.72,432.07,207.62Zm-.26-6.83a17.5,17.5,0,0,0-.94-5.44,2.21,2.21,0,0,0-2.13-1.44,2.18,2.18,0,0,0-2.13,1.44,17.82,17.82,0,0,0-.94,5.44Z"/><path d="M441.08,173.34h4.85v43.14h-4.85Z"/><path d="M461.6,190.73v4.55a6.18,6.18,0,0,0-3.74-1.32,3.18,3.18,0,0,0-1.21.22,3.11,3.11,0,0,0-1,.63,2.75,2.75,0,0,0-.66.94,2.82,2.82,0,0,0-.24,1.15q0,1.88,3.4,4.47a25,25,0,0,1,2.28,2,9.08,9.08,0,0,1,1.4,1.73,7.52,7.52,0,0,1,1,4,7.8,7.8,0,0,1-2.06,5.67,7.22,7.22,0,0,1-5.45,2.1,8.49,8.49,0,0,1-4.27-1.24v-4.7a6.76,6.76,0,0,0,4,1.58c2.21,0,3.32-1.1,3.32-3.28a3.64,3.64,0,0,0-.61-2.11,5.6,5.6,0,0,0-.89-1c-.4-.38-.9-.81-1.49-1.28a19.91,19.91,0,0,1-4.17-4,7.4,7.4,0,0,1-1.06-4,7.22,7.22,0,0,1,2-5.21,7,7,0,0,1,5.15-2A9.06,9.06,0,0,1,461.6,190.73Z"/><path d="M476.88,207.62h4.52q-.52,9.25-7.62,9.26a7.76,7.76,0,0,1-3.61-.78,6.35,6.35,0,0,1-2.5-2.44,12.32,12.32,0,0,1-1.46-4.19,33.06,33.06,0,0,1-.47-6q0-7,1.94-10.31a6.44,6.44,0,0,1,6-3.35q7.9,0,7.9,13.91v.61h-11.1q0,8.43,3.35,8.43C475.87,212.72,476.88,211,476.88,207.62Zm-.25-6.83a18.14,18.14,0,0,0-.94-5.44,2.3,2.3,0,0,0-4.27,0,18.14,18.14,0,0,0-.94,5.44Z"/><path d="M488.61,210.59a2.9,2.9,0,0,1,2.16.94,3.13,3.13,0,0,1,0,4.41,3.22,3.22,0,0,1-3.44.65,3.22,3.22,0,0,1-1-.66,3,3,0,0,1-.92-2.22,3,3,0,0,1,.92-2.21A3.12,3.12,0,0,1,488.61,210.59Z"/><path d="M62.31,239.75h7.51q5.43,0,7.89,2.55c1.65,1.72,2.47,4.43,2.47,8.15,0,5.24-1.66,8.61-5,10.14A19.32,19.32,0,0,1,68,261.64v17.45h-5.7ZM68,257.1q3.54,0,4.88-1.32T74.26,251c0-2.35-.44-4.06-1.31-5.15a5,5,0,0,0-4.14-1.63H68Z"/><path d="M100.29,252.72v26.37H95.06V275.7a8.5,8.5,0,0,1-2.25,3,4.89,4.89,0,0,1-3,.82,5.43,5.43,0,0,1-5.18-3.37Q83,272.77,83,265.59q0-6.85,1.64-10.08a5.44,5.44,0,0,1,5.18-3.22q3.23,0,5.21,3.41v-3Zm-8-11.95a4.35,4.35,0,0,1,3.15,1.28,4,4,0,0,1,0,6,4.67,4.67,0,0,1-3.23,1.23A4.6,4.6,0,0,1,89,248a4,4,0,0,1-1.32-3,3.9,3.9,0,0,1,1.34-3A4.69,4.69,0,0,1,92.34,240.77Zm-3.89,25a24.37,24.37,0,0,0,.74,7.26,2.74,2.74,0,0,0,2.69,2.06c1.17,0,2-.71,2.54-2.13a31.64,31.64,0,0,0,0-14.14c-.52-1.43-1.37-2.14-2.54-2.14a2.75,2.75,0,0,0-2.66,2Q88.45,260.62,88.45,265.79Zm3.87-22.6a2,2,0,0,0-1.36.52A1.63,1.63,0,0,0,90.4,245a1.67,1.67,0,0,0,.55,1.26,1.85,1.85,0,0,0,1.34.52,1.92,1.92,0,0,0,1.35-.51,1.6,1.6,0,0,0,.57-1.24,1.65,1.65,0,0,0-.57-1.25A1.83,1.83,0,0,0,92.32,243.19Z"/><path d="M117.85,252.72h5.23v3a6.72,6.72,0,0,1,5.81-3.46,5.27,5.27,0,0,1,4.94,2.52c.54.95.82,2.79.82,5.53v18.75h-5.24l0-17.63a7.68,7.68,0,0,0-.69-3.8,2.54,2.54,0,0,0-2.35-1.12,3.51,3.51,0,0,0-1.53.3,2.31,2.31,0,0,0-1,.94,5.15,5.15,0,0,0-.56,1.69,15.6,15.6,0,0,0-.18,2.58v17h-5.23Z"/><path d="M151.53,270.2h4.87q-.57,9.3-8.22,9.3a9,9,0,0,1-3.9-.79,6.59,6.59,0,0,1-2.7-2.45,12.08,12.08,0,0,1-1.58-4.2,32.23,32.23,0,0,1-.5-6.07q0-7,2.09-10.34a7.1,7.1,0,0,1,6.48-3.36q8.52,0,8.52,14v.61h-12q0,8.46,3.62,8.46Q151.53,275.32,151.53,270.2Zm-.28-6.86a17,17,0,0,0-1-5.45,2.56,2.56,0,0,0-4.61,0,17,17,0,0,0-1,5.45Z"/><path d="M177.44,235.8v43.29h-5.23V275.7a8.5,8.5,0,0,1-2.25,3,4.92,4.92,0,0,1-3,.82,5.41,5.41,0,0,1-5.15-3.35q-1.65-3.36-1.65-10.54a38.39,38.39,0,0,1,.41-6,14.27,14.27,0,0,1,1.25-4.15,5.79,5.79,0,0,1,2.15-2.41,6.12,6.12,0,0,1,3.12-.77,4.94,4.94,0,0,1,2.85.76,5.71,5.71,0,0,1,1.13,1,10.71,10.71,0,0,1,1.12,1.63V235.8Zm-11.83,30a24,24,0,0,0,.74,7.26,2.72,2.72,0,0,0,2.68,2.06q1.75,0,2.55-2.13a32,32,0,0,0,0-14.14c-.53-1.43-1.38-2.14-2.55-2.14a2.76,2.76,0,0,0-2.66,2Q165.61,260.62,165.61,265.79Z"/><path d="M194.35,270.2h4.88q-.58,9.3-8.22,9.3a9,9,0,0,1-3.91-.79,6.72,6.72,0,0,1-2.7-2.45,12.08,12.08,0,0,1-1.57-4.2,31.35,31.35,0,0,1-.51-6.07q0-7,2.1-10.34a7.08,7.08,0,0,1,6.48-3.36q8.52,0,8.52,14v.61h-12q0,8.46,3.62,8.46Q194.35,275.32,194.35,270.2Zm-.27-6.86a16.63,16.63,0,0,0-1-5.45,2.38,2.38,0,0,0-2.3-1.45,2.36,2.36,0,0,0-2.3,1.45,16.63,16.63,0,0,0-1,5.45Z"/><path d="M204.08,252.72h5.23v3a6.7,6.7,0,0,1,5.81-3.46,5.26,5.26,0,0,1,4.93,2.52q.82,1.43.82,5.53v18.75h-5.23l0-17.63a7.68,7.68,0,0,0-.69-3.8,2.54,2.54,0,0,0-2.35-1.12,3.46,3.46,0,0,0-1.52.3,2.26,2.26,0,0,0-1,.94,4.93,4.93,0,0,0-.56,1.69,15.6,15.6,0,0,0-.18,2.58v17h-5.23Z"/><path d="M237.75,253.26v4.56a6.94,6.94,0,0,0-4-1.33,3.72,3.72,0,0,0-1.31.23,3.21,3.21,0,0,0-1.06.63,2.75,2.75,0,0,0-.71.94,2.56,2.56,0,0,0-.26,1.16c0,1.25,1.22,2.75,3.67,4.48a25.84,25.84,0,0,1,2.47,2,9.25,9.25,0,0,1,1.5,1.73,7.1,7.1,0,0,1,1.07,4.05,7.52,7.52,0,0,1-2.22,5.68A8.12,8.12,0,0,1,231,279.5a9.68,9.68,0,0,1-4.6-1.25v-4.71a7.62,7.62,0,0,0,4.3,1.57q3.58,0,3.59-3.28a3.47,3.47,0,0,0-.66-2.12,6.08,6.08,0,0,0-1-1c-.44-.38-1-.81-1.61-1.29a21.19,21.19,0,0,1-4.5-4,7.1,7.1,0,0,1-1.15-4.06,6.93,6.93,0,0,1,2.11-5.22,7.8,7.8,0,0,1,5.56-2A10.25,10.25,0,0,1,237.75,253.26Z"/><path d="M244.19,245.33h5.23v7.39h2.85v3.87h-2.85v22.5h-5.23v-22.5h-2.88v-3.87h2.88Z"/><path d="M272.27,252.72v26.37H267V275.7a8.5,8.5,0,0,1-2.25,3,4.87,4.87,0,0,1-3,.82,5.44,5.44,0,0,1-5.18-3.37Q255,272.77,255,265.59q0-6.85,1.64-10.08a5.45,5.45,0,0,1,5.18-3.22c2.16,0,3.89,1.14,5.21,3.41v-3Zm-7.94-11.95a4.38,4.38,0,0,1,3.15,1.28,4,4,0,0,1,0,6,4.7,4.7,0,0,1-3.24,1.23A4.6,4.6,0,0,1,261,248a4,4,0,0,1-1.31-3,3.87,3.87,0,0,1,1.34-3A4.65,4.65,0,0,1,264.33,240.77Zm-3.9,25a24.37,24.37,0,0,0,.74,7.26,2.74,2.74,0,0,0,2.69,2.06q1.75,0,2.55-2.13a32,32,0,0,0,0-14.14c-.53-1.43-1.38-2.14-2.55-2.14a2.76,2.76,0,0,0-2.66,2Q260.44,260.62,260.43,265.79Zm3.87-22.6a2,2,0,0,0-1.36.52,1.69,1.69,0,0,0,0,2.5,1.85,1.85,0,0,0,1.34.52,2,2,0,0,0,1.36-.51,1.62,1.62,0,0,0,.56-1.24,1.67,1.67,0,0,0-.56-1.25A1.87,1.87,0,0,0,264.3,243.19Z"/><path d="M289.18,270.2h4.87q-.57,9.3-8.22,9.3a9,9,0,0,1-3.9-.79,6.59,6.59,0,0,1-2.7-2.45,11.89,11.89,0,0,1-1.57-4.2,31.35,31.35,0,0,1-.51-6.07q0-7,2.09-10.34a7.1,7.1,0,0,1,6.48-3.36q8.52,0,8.53,14v.61h-12q0,8.46,3.62,8.46Q289.17,275.32,289.18,270.2Zm-.28-6.86a17,17,0,0,0-1-5.45,2.39,2.39,0,0,0-2.3-1.45,2.35,2.35,0,0,0-2.3,1.45,16.63,16.63,0,0,0-1,5.45Z"/><path d="M298.9,252.72h5.24v3a6.69,6.69,0,0,1,5.8-3.46,5.27,5.27,0,0,1,4.94,2.52c.54.95.82,2.79.82,5.53v18.75h-5.24l0-17.63a7.68,7.68,0,0,0-.69-3.8,2.54,2.54,0,0,0-2.35-1.12,3.51,3.51,0,0,0-1.53.3,2.31,2.31,0,0,0-1,.94,5.15,5.15,0,0,0-.56,1.69,15.73,15.73,0,0,0-.17,2.58v17H298.9Z"/><path d="M337.81,235.8v43.29h-5.23V275.7a8.5,8.5,0,0,1-2.25,3,5,5,0,0,1-3,.82,5.42,5.42,0,0,1-5.15-3.35q-1.63-3.36-1.64-10.54a37.21,37.21,0,0,1,.41-6,14,14,0,0,1,1.25-4.15,5.72,5.72,0,0,1,2.15-2.41,6.06,6.06,0,0,1,3.12-.77,5,5,0,0,1,2.85.76,5.69,5.69,0,0,1,1.12,1,10,10,0,0,1,1.13,1.63V235.8Zm-11.84,30a24.37,24.37,0,0,0,.74,7.26,2.74,2.74,0,0,0,2.69,2.06q1.75,0,2.55-2.13a32,32,0,0,0,0-14.14c-.53-1.43-1.38-2.14-2.55-2.14a2.76,2.76,0,0,0-2.66,2Q326,260.62,326,265.79Z"/><path d="M354.71,270.2h4.88q-.57,9.3-8.22,9.3a8.92,8.92,0,0,1-3.9-.79,6.59,6.59,0,0,1-2.7-2.45,12.08,12.08,0,0,1-1.58-4.2,31.42,31.42,0,0,1-.5-6.07q0-7,2.09-10.34a7.1,7.1,0,0,1,6.48-3.36q8.52,0,8.52,14v.61h-12q0,8.46,3.62,8.46Q354.72,275.32,354.71,270.2Zm-.27-6.86a17,17,0,0,0-1-5.45,2.41,2.41,0,0,0-2.31-1.45,2.37,2.37,0,0,0-2.3,1.45,17,17,0,0,0-1,5.45Z"/><path d="M376.06,235.8h5.23v43.29h-5.23Z"/><path d="M389.7,241.51a3.5,3.5,0,0,1,2.47,1,3.13,3.13,0,0,1,0,4.66,3.76,3.76,0,0,1-5,0,3.1,3.1,0,0,1-1-2.37,3,3,0,0,1,1-2.29A3.78,3.78,0,0,1,389.7,241.51Zm-2.46,11.21h5.26v26.37h-5.26Z"/><path d="M398.39,252.72h5.23v3a6.7,6.7,0,0,1,5.81-3.46,5.26,5.26,0,0,1,4.93,2.52q.83,1.43.82,5.53v18.75H410l0-17.63a7.82,7.82,0,0,0-.68-3.8,2.56,2.56,0,0,0-2.36-1.12,3.46,3.46,0,0,0-1.52.3,2.31,2.31,0,0,0-1,.94,4.93,4.93,0,0,0-.56,1.69,15.6,15.6,0,0,0-.18,2.58v17h-5.23Z"/><path d="M421.1,235.8h5.23v28.67L433,252.72h5.92l-7.23,11.75,8.19,14.62h-6.14l-7.4-14v14H421.1Z"/><path d="M454.66,235.8h5.24v28.67l6.66-11.75h5.91l-7.23,11.75,8.19,14.62h-6.14l-7.39-14v14h-5.24Z"/><path d="M492.25,252.72v26.37H487V275.7a8.61,8.61,0,0,1-2.24,3,4.89,4.89,0,0,1-3,.82,5.42,5.42,0,0,1-5.18-3.37Q475,272.77,475,265.59q0-6.85,1.65-10.08a5.44,5.44,0,0,1,5.18-3.22c2.15,0,3.89,1.14,5.2,3.41v-3Zm-11.83,13.07a24.37,24.37,0,0,0,.74,7.26,2.73,2.73,0,0,0,2.68,2.06q1.76,0,2.55-2.13a31.64,31.64,0,0,0,0-14.14c-.53-1.43-1.38-2.14-2.55-2.14a2.75,2.75,0,0,0-2.65,2C480.67,260,480.42,262.34,480.42,265.79Z"/><path d="M498.2,252.72h5.23v3a6.72,6.72,0,0,1,5.81-3.46,5.25,5.25,0,0,1,4.93,2.52q.83,1.43.83,5.53v18.75h-5.24l0-17.63a7.68,7.68,0,0,0-.69-3.8,2.55,2.55,0,0,0-2.35-1.12,3.48,3.48,0,0,0-1.53.3,2.31,2.31,0,0,0-1,.94,5.15,5.15,0,0,0-.56,1.69,15.6,15.6,0,0,0-.18,2.58v17H498.2Z"/><path d="M548.72,235.8v43.29h-5.23V275.7a8.61,8.61,0,0,1-2.24,3,5,5,0,0,1-3,.82,5.41,5.41,0,0,1-5.15-3.35q-1.65-3.36-1.65-10.54a38.39,38.39,0,0,1,.41-6,14.27,14.27,0,0,1,1.25-4.15,5.86,5.86,0,0,1,2.15-2.41,6.13,6.13,0,0,1,3.13-.77,5,5,0,0,1,2.85.76,5.69,5.69,0,0,1,1.12,1,10,10,0,0,1,1.12,1.63V235.8Zm-11.83,30a24.37,24.37,0,0,0,.74,7.26,2.73,2.73,0,0,0,2.68,2.06q1.76,0,2.55-2.13a31.64,31.64,0,0,0,0-14.14c-.53-1.43-1.38-2.14-2.55-2.14a2.75,2.75,0,0,0-2.65,2C537.14,260,536.89,262.34,536.89,265.79Z"/><path d="M554.67,252.72h5.23v17.63a6.65,6.65,0,0,0,.78,3.49,2.76,2.76,0,0,0,2.43,1.05,3,3,0,0,0,2.49-.92,5.86,5.86,0,0,0,.71-3.36V252.72h5.24v15.77c0,3.69-.3,6.15-.88,7.39q-1.83,3.62-7.62,3.62c-3,0-5.18-.72-6.46-2.14s-1.92-3.85-1.92-7.21Z"/><path d="M600,253.26v4.56a6.94,6.94,0,0,0-4-1.33,3.72,3.72,0,0,0-1.31.23,3.43,3.43,0,0,0-1.06.63,2.88,2.88,0,0,0-.71.94,2.7,2.7,0,0,0-.26,1.16c0,1.25,1.23,2.75,3.67,4.48a25.84,25.84,0,0,1,2.47,2,9.34,9.34,0,0,1,1.51,1.73,7.18,7.18,0,0,1,1.06,4.05,7.51,7.51,0,0,1-2.21,5.68,8.15,8.15,0,0,1-5.89,2.12,9.72,9.72,0,0,1-4.61-1.25v-4.71a7.65,7.65,0,0,0,4.3,1.57c2.4,0,3.59-1.09,3.59-3.28a3.53,3.53,0,0,0-.65-2.12,7.07,7.07,0,0,0-1-1q-.66-.57-1.62-1.29a20.83,20.83,0,0,1-4.49-4,7,7,0,0,1-1.15-4.06,6.93,6.93,0,0,1,2.11-5.22,7.77,7.77,0,0,1,5.56-2A10.21,10.21,0,0,1,600,253.26Z"/><path d="M606.48,245.33h5.23v7.39h2.85v3.87h-2.85v22.5h-5.23v-22.5H603.6v-3.87h2.88Z"/><path d="M620.78,241.51a3.5,3.5,0,0,1,2.47,1,3.13,3.13,0,0,1,0,4.66,3.76,3.76,0,0,1-5,0,3.1,3.1,0,0,1-1-2.37,3,3,0,0,1,1-2.29A3.74,3.74,0,0,1,620.78,241.51Zm-2.46,11.21h5.26v26.37h-5.26Z"/><path d="M629.47,235.8h5.23v43.29h-5.23Z"/><path d="M640.65,235.8h5.23v43.29h-5.23Z"/><path d="M662.79,270.2h4.87q-.57,9.3-8.22,9.3a9,9,0,0,1-3.9-.79,6.59,6.59,0,0,1-2.7-2.45,12.08,12.08,0,0,1-1.58-4.2,32.23,32.23,0,0,1-.5-6.07q0-7,2.09-10.34a7.1,7.1,0,0,1,6.48-3.36q8.52,0,8.52,14v.61h-12q0,8.46,3.62,8.46Q662.79,275.32,662.79,270.2Zm-.28-6.86a17,17,0,0,0-1-5.45,2.39,2.39,0,0,0-2.3-1.45,2.35,2.35,0,0,0-2.3,1.45,16.63,16.63,0,0,0-1,5.45Z"/><path d="M78.21,315.33V341.7H73v-3.39a8.52,8.52,0,0,1-2.24,3,4.89,4.89,0,0,1-3,.82,5.42,5.42,0,0,1-5.18-3.36q-1.65-3.37-1.65-10.55,0-6.85,1.65-10.08a5.44,5.44,0,0,1,5.18-3.22c2.15,0,3.89,1.14,5.2,3.41v-3ZM66.37,328.4a24.37,24.37,0,0,0,.74,7.26,2.74,2.74,0,0,0,2.68,2.07c1.17,0,2-.72,2.55-2.14a31.64,31.64,0,0,0,0-14.14c-.53-1.43-1.38-2.14-2.55-2.14a2.75,2.75,0,0,0-2.65,2C66.62,322.6,66.37,325,66.37,328.4Z"/><path d="M84.15,315.33h5.23v3a6.72,6.72,0,0,1,5.81-3.46,5.24,5.24,0,0,1,4.93,2.52c.55.95.83,2.8.83,5.53V341.7H95.71l0-17.63a7.68,7.68,0,0,0-.69-3.8,2.55,2.55,0,0,0-2.35-1.12,3.51,3.51,0,0,0-1.53.3,2.31,2.31,0,0,0-1,.94,5.15,5.15,0,0,0-.56,1.69,15.6,15.6,0,0,0-.18,2.58v17H84.15Z"/><path d="M123.61,328.73q0,13.38-8.91,13.38t-8.9-13.58q0-13.63,8.87-13.63a9.1,9.1,0,0,1,4,.81,6.87,6.87,0,0,1,2.78,2.53,12.66,12.66,0,0,1,1.63,4.3A30.84,30.84,0,0,1,123.61,328.73Zm-5.43-.12a24.17,24.17,0,0,0-.74-7.24,2.67,2.67,0,0,0-2.63-2.06,2.76,2.76,0,0,0-2.66,2,34.43,34.43,0,0,0,0,14.2,2.76,2.76,0,0,0,2.66,2,2.65,2.65,0,0,0,2.6-2C117.92,334.3,118.18,332,118.18,328.61Z"/><path d="M128.48,315.33h5.24v3a6.69,6.69,0,0,1,5.8-3.46,5.27,5.27,0,0,1,4.94,2.52c.54.95.82,2.8.82,5.53V341.7H140l0-17.63a7.68,7.68,0,0,0-.69-3.8,2.54,2.54,0,0,0-2.35-1.12,3.43,3.43,0,0,0-1.52.3,2.21,2.21,0,0,0-1,.94,4.92,4.92,0,0,0-.57,1.69,15.73,15.73,0,0,0-.17,2.58v17h-5.24Z"/><path d="M148.18,315.33h5.92l4.16,18.4,4.88-18.4h5.32L156.87,352.5h-5.51l4.36-12.91Z"/><path d="M171.61,315.33h5.23v3.26q2.16-3.69,5.75-3.69a5.24,5.24,0,0,1,5.32,3.69,7,7,0,0,1,10.48-2.23,5.62,5.62,0,0,1,1.57,4.32v21h-5.25V324.35a8.85,8.85,0,0,0-.61-4,2.31,2.31,0,0,0-2.24-1,2.81,2.81,0,0,0-2.58,1.07,8.16,8.16,0,0,0-.66,4V341.7H183.2V324.35a15.9,15.9,0,0,0-.15-2.37,4.21,4.21,0,0,0-.51-1.55,2.19,2.19,0,0,0-.93-.86,3.55,3.55,0,0,0-1.43-.26,2.87,2.87,0,0,0-2.57,1.14,7.37,7.37,0,0,0-.77,3.9V341.7h-5.23Z"/><path d="M216.84,332.81h4.88q-.57,9.3-8.22,9.3a8.92,8.92,0,0,1-3.9-.79,6.59,6.59,0,0,1-2.7-2.45,12.08,12.08,0,0,1-1.58-4.2,31.38,31.38,0,0,1-.5-6.06q0-7,2.09-10.35a7.1,7.1,0,0,1,6.48-3.36q8.52,0,8.52,14v.61h-12q0,8.46,3.62,8.46Q216.85,337.93,216.84,332.81Zm-.27-6.85a17,17,0,0,0-1-5.46,2.42,2.42,0,0,0-2.31-1.45,2.38,2.38,0,0,0-2.3,1.45,17,17,0,0,0-1,5.46Z"/><path d="M249.15,315.87v4.56a7,7,0,0,0-4-1.33,3.77,3.77,0,0,0-1.32.23,3.27,3.27,0,0,0-1.05.63,2.75,2.75,0,0,0-.71.94,2.56,2.56,0,0,0-.26,1.16q0,1.89,3.67,4.48a27.21,27.21,0,0,1,2.46,2,9.34,9.34,0,0,1,1.51,1.73,7.18,7.18,0,0,1,1.07,4.05,7.52,7.52,0,0,1-2.22,5.68,8.13,8.13,0,0,1-5.89,2.12,9.68,9.68,0,0,1-4.6-1.25v-4.71a7.64,7.64,0,0,0,4.3,1.58q3.58,0,3.59-3.29a3.42,3.42,0,0,0-.66-2.11,5.71,5.71,0,0,0-1-1q-.66-.57-1.62-1.29a20.81,20.81,0,0,1-4.49-4,7.61,7.61,0,0,1,1-9.28,7.78,7.78,0,0,1,5.56-2A10.25,10.25,0,0,1,249.15,315.87Z"/><path d="M254.68,352.5V315.33h5.23v3.42a8.29,8.29,0,0,1,2.25-3,5,5,0,0,1,3-.84,5.38,5.38,0,0,1,5.14,3.37q1.63,3.39,1.63,10.56T270.27,339a5.54,5.54,0,0,1-5.29,3.16,5.12,5.12,0,0,1-2.87-.74,4.9,4.9,0,0,1-1.1-1,12.3,12.3,0,0,1-1.1-1.6V352.5Zm11.84-23.84q0-5.39-.77-7.29a2.68,2.68,0,0,0-5.23.08c-.52,1.32-.77,3.68-.77,7.08s.25,5.76.77,7.08,1.38,2.12,2.57,2.12a2.76,2.76,0,0,0,2.66-2Q266.52,333.8,266.52,328.66Z"/><path d="M292.27,314.44l2.74,1.63-2.57,4.31a25.6,25.6,0,0,1,1.15,8.76q0,13-8.91,13A7.69,7.69,0,0,1,278.9,340L277,342.54l-2.65-1.71,2.6-3.84a33.68,33.68,0,0,1-1.15-8.77q0-6.87,2.14-10.1t6.68-3.22a8.73,8.73,0,0,1,5.92,2.19Zm-5,6.78a2.43,2.43,0,0,0-2.6-1.91,2.65,2.65,0,0,0-2.52,1.88,18.78,18.78,0,0,0-.74,6.29l.08,3.44Zm-5,14.7a2.63,2.63,0,0,0,2.66,2A2.58,2.58,0,0,0,287.4,336a23.3,23.3,0,0,0,.71-6.87l-.06-3.19Z"/><path d="M298.44,315.33h5.23v3.29a9.46,9.46,0,0,1,2.66-2.93,7.21,7.21,0,0,1,3.48-1v5.1a7.28,7.28,0,0,0-.93-.08c-1.89,0-3.23.45-4,1.35s-1.18,2.43-1.18,4.64v16h-5.23Z"/><path d="M324.74,315.33H330v27.21q0,4.89-1,6.78-1.92,3.46-7.7,3.46a8.42,8.42,0,0,1-6-2,7.12,7.12,0,0,1-2.19-5.48l0-.81h5.07c0,2.8,1.13,4.2,3.37,4.2a2.68,2.68,0,0,0,2.49-1.07q.69-1,.69-4.05v-5.07q-1.67,3.61-5.12,3.62a5.55,5.55,0,0,1-5.25-3.21c-1.12-2.14-1.69-5.49-1.69-10q0-7.23,1.62-10.67a5.44,5.44,0,0,1,5.29-3.29,4.74,4.74,0,0,1,2.85.79,9.42,9.42,0,0,1,2.3,2.8Zm.08,13.43q0-9.45-3.5-9.45c-1.12,0-1.93.71-2.44,2.12a21.89,21.89,0,0,0-.77,6.82,24.6,24.6,0,0,0,.79,7.31,2.87,2.87,0,0,0,2.74,2.17,2.53,2.53,0,0,0,2.5-1.94Q324.81,334,324.82,328.76Z"/><path d="M346.88,315.87v4.56a6.94,6.94,0,0,0-4-1.33,3.68,3.68,0,0,0-1.31.23,3.21,3.21,0,0,0-1.06.63,2.75,2.75,0,0,0-.71.94,2.56,2.56,0,0,0-.26,1.16q0,1.89,3.67,4.48a25.87,25.87,0,0,1,2.46,2,9.34,9.34,0,0,1,1.51,1.73,7.18,7.18,0,0,1,1.07,4.05A7.52,7.52,0,0,1,346,340a8.12,8.12,0,0,1-5.89,2.12,9.68,9.68,0,0,1-4.6-1.25v-4.71a7.64,7.64,0,0,0,4.3,1.58q3.58,0,3.59-3.29a3.42,3.42,0,0,0-.66-2.11,5.71,5.71,0,0,0-1-1c-.44-.38-1-.81-1.61-1.29a20.67,20.67,0,0,1-4.5-4,7.61,7.61,0,0,1,1-9.28,7.78,7.78,0,0,1,5.56-2A10.25,10.25,0,0,1,346.88,315.87Z"/><path d="M352.41,315.33h5.24v3.26q2.16-3.69,5.75-3.69a5.24,5.24,0,0,1,5.31,3.69,7,7,0,0,1,10.48-2.23,5.59,5.59,0,0,1,1.58,4.32v21h-5.26V324.35a8.88,8.88,0,0,0-.6-4,2.34,2.34,0,0,0-2.25-1,2.82,2.82,0,0,0-2.58,1.07,8.31,8.31,0,0,0-.65,4V341.7H364V324.35a15.9,15.9,0,0,0-.15-2.37,4.21,4.21,0,0,0-.51-1.55,2.08,2.08,0,0,0-.93-.86,3.5,3.5,0,0,0-1.42-.26,2.88,2.88,0,0,0-2.58,1.14,7.39,7.39,0,0,0-.76,3.9V341.7h-5.24Z"/><path d="M402.88,315.33V341.7h-5.23v-3.39a8.4,8.4,0,0,1-2.25,3,4.87,4.87,0,0,1-3,.82,5.44,5.44,0,0,1-5.18-3.36q-1.63-3.37-1.64-10.55,0-6.85,1.64-10.08a5.45,5.45,0,0,1,5.18-3.22c2.16,0,3.89,1.14,5.21,3.41v-3Zm-7.94-11.95a4.38,4.38,0,0,1,3.15,1.28,4,4,0,0,1,0,6,4.7,4.7,0,0,1-3.24,1.23,4.6,4.6,0,0,1-3.23-1.23,4,4,0,0,1-1.31-3,3.87,3.87,0,0,1,1.34-3A4.65,4.65,0,0,1,394.94,303.38Zm-3.9,25a24,24,0,0,0,.75,7.26,2.73,2.73,0,0,0,2.68,2.07c1.17,0,2-.72,2.55-2.14a32,32,0,0,0,0-14.14c-.53-1.43-1.38-2.14-2.55-2.14a2.76,2.76,0,0,0-2.66,2Q391,323.23,391,328.4Zm3.87-22.6a1.94,1.94,0,0,0-1.36.53,1.63,1.63,0,0,0-.56,1.23,1.65,1.65,0,0,0,.55,1.26,1.86,1.86,0,0,0,1.34.53,2,2,0,0,0,1.36-.51,1.64,1.64,0,0,0,.56-1.25,1.69,1.69,0,0,0-.56-1.25A1.87,1.87,0,0,0,394.91,305.8Z"/><path d="M408.83,298.42h5.23V341.7h-5.23Z"/><path d="M428.88,315.33h5.62l2.05,8.36c.42,1.7.78,3.49,1.07,5.39s.53,4,.71,6.2a9,9,0,0,0,.17-.92l.63-3.92c.24-1.49.7-3.75,1.4-6.75l1.89-8.36h5.07l-7.4,26.37h-3.54Z"/><path d="M461.3,332.81h4.87q-.57,9.3-8.22,9.3a9,9,0,0,1-3.9-.79,6.59,6.59,0,0,1-2.7-2.45,12.08,12.08,0,0,1-1.58-4.2,32.19,32.19,0,0,1-.5-6.06q0-7,2.09-10.35a7.1,7.1,0,0,1,6.48-3.36q8.52,0,8.52,14v.61h-12q0,8.46,3.62,8.46Q461.29,337.93,461.3,332.81ZM461,326a17,17,0,0,0-1-5.46,2.41,2.41,0,0,0-2.3-1.45,2.36,2.36,0,0,0-2.3,1.45,16.64,16.64,0,0,0-1,5.46Z"/><path d="M487.21,298.42V341.7H482v-3.39a8.4,8.4,0,0,1-2.25,3,4.9,4.9,0,0,1-3,.82,5.41,5.41,0,0,1-5.15-3.35Q470,335.4,470,328.22a38.16,38.16,0,0,1,.41-6,14.34,14.34,0,0,1,1.25-4.16,5.7,5.7,0,0,1,2.15-2.4,6,6,0,0,1,3.12-.78,4.92,4.92,0,0,1,2.85.76,5.71,5.71,0,0,1,1.13,1,10,10,0,0,1,1.12,1.63V298.42Zm-11.83,30a24,24,0,0,0,.74,7.26,2.73,2.73,0,0,0,2.68,2.07c1.17,0,2-.72,2.55-2.14a31.64,31.64,0,0,0,0-14.14c-.53-1.43-1.38-2.14-2.55-2.14a2.74,2.74,0,0,0-2.65,2C475.63,322.6,475.38,325,475.38,328.4Z"/><path d="M493.16,315.33h5.23v3.29a9.58,9.58,0,0,1,2.66-2.93,7.28,7.28,0,0,1,3.48-1v5.1a7.14,7.14,0,0,0-.93-.08c-1.88,0-3.23.45-4,1.35s-1.18,2.43-1.18,4.64v16h-5.23Z"/><path d="M523.76,314.44l2.74,1.63-2.57,4.31a25.35,25.35,0,0,1,1.15,8.76q0,13-8.91,13a7.69,7.69,0,0,1-5.78-2.14l-1.91,2.57-2.66-1.71,2.6-3.84a33.68,33.68,0,0,1-1.15-8.77q0-6.87,2.14-10.1t6.68-3.22a8.73,8.73,0,0,1,5.92,2.19Zm-5,6.78a2.43,2.43,0,0,0-2.6-1.91,2.65,2.65,0,0,0-2.52,1.88,19,19,0,0,0-.74,6.29l.08,3.44Zm-5,14.7a2.63,2.63,0,0,0,2.66,2,2.58,2.58,0,0,0,2.55-1.89,23.3,23.3,0,0,0,.71-6.87l-.06-3.19Z"/><path d="M529.93,315.33h5.23v3.29a9.58,9.58,0,0,1,2.66-2.93,7.28,7.28,0,0,1,3.48-1v5.1a7.28,7.28,0,0,0-.93-.08c-1.88,0-3.23.45-4,1.35s-1.18,2.43-1.18,4.64v16h-5.23Z"/><path d="M556,332.81h4.88q-.58,9.3-8.22,9.3a9,9,0,0,1-3.91-.79,6.72,6.72,0,0,1-2.7-2.45,12.08,12.08,0,0,1-1.57-4.2,31.31,31.31,0,0,1-.51-6.06q0-7,2.1-10.35a7.09,7.09,0,0,1,6.48-3.36q8.52,0,8.52,14v.61h-12q0,8.46,3.62,8.46Q556,337.93,556,332.81Zm-.27-6.85a16.64,16.64,0,0,0-1-5.46,2.4,2.4,0,0,0-2.3-1.45,2.37,2.37,0,0,0-2.3,1.45,16.64,16.64,0,0,0-1,5.46Z"/><path d="M565.77,315.33H571v3a6.7,6.7,0,0,1,5.81-3.46,5.26,5.26,0,0,1,4.93,2.52c.55.95.82,2.8.82,5.53V341.7h-5.23l0-17.63a7.82,7.82,0,0,0-.68-3.8,2.57,2.57,0,0,0-2.36-1.12,3.46,3.46,0,0,0-1.52.3,2.31,2.31,0,0,0-1,.94,4.93,4.93,0,0,0-.56,1.69,15.6,15.6,0,0,0-.18,2.58v17h-5.23Z"/><path d="M604.67,298.42V341.7h-5.23v-3.39a8.4,8.4,0,0,1-2.25,3,4.92,4.92,0,0,1-3,.82,5.41,5.41,0,0,1-5.15-3.35q-1.65-3.36-1.65-10.54a38.16,38.16,0,0,1,.41-6,14.34,14.34,0,0,1,1.25-4.16,5.7,5.7,0,0,1,2.15-2.4,6,6,0,0,1,3.12-.78,4.94,4.94,0,0,1,2.85.76,5.71,5.71,0,0,1,1.13,1,10.71,10.71,0,0,1,1.12,1.63V298.42Zm-11.83,30a24,24,0,0,0,.74,7.26,2.73,2.73,0,0,0,2.68,2.07c1.17,0,2-.72,2.55-2.14a32,32,0,0,0,0-14.14c-.53-1.43-1.38-2.14-2.55-2.14a2.76,2.76,0,0,0-2.66,2Q592.84,323.23,592.84,328.4Z"/><path d="M621.58,332.81h4.88q-.59,9.3-8.22,9.3a9,9,0,0,1-3.91-.79,6.59,6.59,0,0,1-2.7-2.45,11.89,11.89,0,0,1-1.57-4.2,31.31,31.31,0,0,1-.51-6.06q0-7,2.1-10.35a7.08,7.08,0,0,1,6.48-3.36q8.52,0,8.52,14v.61h-12q0,8.46,3.62,8.46Q621.58,337.93,621.58,332.81ZM621.3,326a16.72,16.72,0,0,0-1-5.46,2.41,2.41,0,0,0-2.3-1.45,2.36,2.36,0,0,0-2.3,1.45,16.64,16.64,0,0,0-1,5.46Z"/><path d="M653.88,315.87v4.56a6.94,6.94,0,0,0-4-1.33,3.72,3.72,0,0,0-1.31.23,3.43,3.43,0,0,0-1.06.63,2.88,2.88,0,0,0-.71.94,2.7,2.7,0,0,0-.26,1.16q0,1.89,3.67,4.48a27.49,27.49,0,0,1,2.47,2,9.34,9.34,0,0,1,1.51,1.73,7.18,7.18,0,0,1,1.06,4.05A7.52,7.52,0,0,1,653,340a8.12,8.12,0,0,1-5.89,2.12,9.72,9.72,0,0,1-4.6-1.25v-4.71a7.67,7.67,0,0,0,4.3,1.58c2.4,0,3.59-1.1,3.59-3.29a3.42,3.42,0,0,0-.66-2.11,6,6,0,0,0-1-1q-.66-.57-1.62-1.29a20.56,20.56,0,0,1-4.49-4,7.58,7.58,0,0,1,1-9.28,7.81,7.81,0,0,1,5.57-2A10.21,10.21,0,0,1,653.88,315.87Z"/><path d="M670.37,332.81h4.88q-.57,9.3-8.22,9.3a9,9,0,0,1-3.9-.79,6.59,6.59,0,0,1-2.7-2.45,12.08,12.08,0,0,1-1.58-4.2,32.19,32.19,0,0,1-.5-6.06q0-7,2.09-10.35a7.1,7.1,0,0,1,6.48-3.36q8.52,0,8.52,14v.61h-12q0,8.46,3.62,8.46Q670.38,337.93,670.37,332.81ZM670.1,326a17,17,0,0,0-1-5.46,2.42,2.42,0,0,0-2.3-1.45,2.38,2.38,0,0,0-2.31,1.45,17,17,0,0,0-1,5.46Z"/><path d="M677,315.33h6.19l2.49,5.1c.3.59.57,1.22.83,1.87s.48,1.35.68,2.08c.15-.65.32-1.27.52-1.86a18.87,18.87,0,0,1,.69-1.76l.35-.77,2.06-4.66h5.5l-6.41,12.46,7.76,13.91h-6.25l-2.49-5a20,20,0,0,1-2.17-5.66,17.8,17.8,0,0,1-1.75,5.2l-2.52,5.5H677l7.09-13.91Z"/><path d="M78.75,391.34q0,13.38-8.9,13.38t-8.91-13.58q0-13.63,8.88-13.63a9,9,0,0,1,4,.82,6.77,6.77,0,0,1,2.78,2.52,12.74,12.74,0,0,1,1.63,4.3A31,31,0,0,1,78.75,391.34Zm-5.42-.12a24.17,24.17,0,0,0-.74-7.24A2.68,2.68,0,0,0,70,381.92a2.76,2.76,0,0,0-2.66,2,34.38,34.38,0,0,0,0,14.19,2.76,2.76,0,0,0,2.66,2,2.66,2.66,0,0,0,2.6-2Q73.32,396.3,73.33,391.22Z"/><path d="M94.62,377.94h5.26v27.21q0,4.89-1,6.78-1.92,3.46-7.7,3.47a8.47,8.47,0,0,1-6-2A7.12,7.12,0,0,1,83,407.9l0-.81h5.07q0,4.2,3.37,4.2a2.68,2.68,0,0,0,2.49-1.07q.69-1,.69-4.05V401.1q-1.68,3.61-5.13,3.62a5.54,5.54,0,0,1-5.24-3.21q-1.69-3.21-1.69-10,0-7.23,1.62-10.67a5.46,5.46,0,0,1,5.29-3.29,4.78,4.78,0,0,1,2.85.79,9.57,9.57,0,0,1,2.3,2.8Zm.08,13.43q0-9.45-3.51-9.45c-1.11,0-1.93.71-2.44,2.13a21.88,21.88,0,0,0-.76,6.81,24.6,24.6,0,0,0,.79,7.31,2.85,2.85,0,0,0,2.74,2.17A2.51,2.51,0,0,0,94,398.4C94.47,397.2,94.7,394.85,94.7,391.37Z"/><path d="M115.41,377.94H118v-9.19q0-4.51,1.43-6.37t5-1.86a11.27,11.27,0,0,1,3.56.69v5.14a5.1,5.1,0,0,0-2.22-.63,2.23,2.23,0,0,0-1.9.73,4.21,4.21,0,0,0-.57,2.5l0,2v7h4.43v3.88h-4.43v22.49H118V381.82h-2.63Z"/><path d="M146.67,377.05l2.75,1.63L146.84,383a25.35,25.35,0,0,1,1.15,8.76q0,13-8.91,13a7.69,7.69,0,0,1-5.78-2.14l-1.91,2.57-2.66-1.7,2.6-3.85a33.66,33.66,0,0,1-1.15-8.76q0-6.88,2.14-10.11c1.42-2.14,3.65-3.22,6.68-3.22a8.73,8.73,0,0,1,5.92,2.19Zm-5,6.78a2.44,2.44,0,0,0-2.6-1.91,2.65,2.65,0,0,0-2.52,1.88,19.07,19.07,0,0,0-.74,6.3l.08,3.44Zm-5,14.7a2.63,2.63,0,0,0,2.66,2,2.58,2.58,0,0,0,2.55-1.88,23.38,23.38,0,0,0,.71-6.88l0-3.19Z"/><path d="M152.84,361h5.23v43.28h-5.23Z"/><path d="M175,395.42h4.88q-.59,9.3-8.22,9.3a8.86,8.86,0,0,1-3.91-.79,6.66,6.66,0,0,1-2.7-2.45,11.89,11.89,0,0,1-1.57-4.2,31.31,31.31,0,0,1-.51-6.06c0-4.66.7-8.1,2.1-10.35a7.08,7.08,0,0,1,6.48-3.36q8.52,0,8.52,14v.61h-12q0,8.46,3.62,8.46Q175,400.54,175,395.42Zm-.28-6.85a16.31,16.31,0,0,0-1-5.45,2.4,2.4,0,0,0-2.3-1.46,2.36,2.36,0,0,0-2.3,1.46,16.5,16.5,0,0,0-1,5.45Z"/><path d="M184.7,361h5.24v43.28H184.7Z"/><path d="M206.84,378.48V383a7,7,0,0,0-4-1.33,3.72,3.72,0,0,0-1.31.23,3.87,3.87,0,0,0-1.06.63,3,3,0,0,0-.71.94,2.73,2.73,0,0,0-.26,1.16c0,1.26,1.23,2.75,3.67,4.48a27.49,27.49,0,0,1,2.47,2,9.34,9.34,0,0,1,1.51,1.73,7.18,7.18,0,0,1,1.06,4.05,7.53,7.53,0,0,1-2.21,5.69,8.14,8.14,0,0,1-5.89,2.11,9.72,9.72,0,0,1-4.61-1.25v-4.71a7.67,7.67,0,0,0,4.3,1.58c2.4,0,3.59-1.1,3.59-3.29a3.5,3.5,0,0,0-.65-2.11,6.57,6.57,0,0,0-1-1q-.66-.57-1.62-1.29a20.31,20.31,0,0,1-4.49-4,7.59,7.59,0,0,1,1-9.27,7.73,7.73,0,0,1,5.56-2A10.21,10.21,0,0,1,206.84,378.48Z"/><path d="M223.34,395.42h4.87q-.57,9.3-8.22,9.3a8.84,8.84,0,0,1-3.9-.79,6.59,6.59,0,0,1-2.7-2.45,11.89,11.89,0,0,1-1.57-4.2,31.31,31.31,0,0,1-.51-6.06c0-4.66.7-8.1,2.09-10.35a7.1,7.1,0,0,1,6.48-3.36q8.52,0,8.53,14v.61h-12q0,8.46,3.62,8.46Q223.34,400.54,223.34,395.42Zm-.28-6.85a16.86,16.86,0,0,0-1-5.45,2.4,2.4,0,0,0-2.3-1.46,2.36,2.36,0,0,0-2.3,1.46,16.5,16.5,0,0,0-1,5.45Z"/><path d="M233.06,377.94h5.24v3.29A9.57,9.57,0,0,1,241,378.3a7.28,7.28,0,0,1,3.48-1v5.1a7,7,0,0,0-.93-.08,5.19,5.19,0,0,0-4,1.35c-.78.88-1.17,2.43-1.17,4.64v16h-5.24Z"/><path d="M249.17,398.4a3.27,3.27,0,0,1,2.33.94,3,3,0,0,1,0,4.44,3.57,3.57,0,0,1-2.38.89,3.61,3.61,0,0,1-1.33-.24,3.51,3.51,0,0,1-1.08-.67,3.11,3.11,0,0,1-.73-1,3,3,0,0,1-.26-1.23,2.91,2.91,0,0,1,1-2.22A3.54,3.54,0,0,1,249.17,398.4Z"/></svg>
