<svg xmlns="http://www.w3.org/2000/svg" xmlns:xlink="http://www.w3.org/1999/xlink" width="588" height="1080" viewBox="0 0 588 1080"><defs><style>.cls-1{fill:gray;}.cls-2{fill:url(#radial-gradient);}.cls-3{fill:#999;}.cls-4{fill:url(#radial-gradient-2);}.cls-5{fill:#4d4d4d;}.cls-6{fill:url(#radial-gradient-3);}.cls-7{fill:url(#radial-gradient-4);}.cls-8{fill:url(#radial-gradient-5);}.cls-9{fill:url(#radial-gradient-6);}.cls-10{font-size:27.7396px;fill:none;font-family:MyriadPro-Regular, Myriad Pro;}.cls-11{letter-spacing:-0.014em;}.cls-12{fill:#f7931e;opacity:0.86;}.cls-13{fill:#ff0;}.cls-14{fill:#f0f;}</style><radialGradient id="radial-gradient" cx="290.5" cy="524.5" r="376.4845" gradientTransform="translate(0 -314.1382) scale(1 1.5989)" gradientUnits="userSpaceOnUse"><stop offset="0" stop-color="#fff"/><stop offset="0.2473" stop-color="#f8f8f8"/><stop offset="0.4249" stop-color="#d8d8d8"/><stop offset="0.813" stop-color="#858585"/><stop offset="0.9987" stop-color="#5c5c5c"/></radialGradient><radialGradient id="radial-gradient-2" r="368.7645" gradientTransform="translate(0 -326.7223) scale(1 1.6229)" xlink:href="#radial-gradient"/><radialGradient id="radial-gradient-3" cx="291" cy="909" r="46" gradientTransform="matrix(1, 0, 0, 1, 0, 0)" xlink:href="#radial-gradient"/><radialGradient id="radial-gradient-4" cx="217" cy="117.2349" r="8.1845" gradientTransform="translate(0 -5.3471) scale(1 1.0456)" xlink:href="#radial-gradient"/><radialGradient id="radial-gradient-5" cx="291" cy="92.1402" r="8.1845" gradientTransform="translate(0 -4.2025) scale(1 1.0456)" xlink:href="#radial-gradient"/><radialGradient id="radial-gradient-6" cx="291" cy="909" r="35" gradientTransform="matrix(1, 0, 0, 1, 0, 0)" xlink:href="#radial-gradient"/></defs><title>complete</title><g id="iphonebund"><rect class="cls-1" x="33.8702" y="58" width="513.2595" height="933" rx="41.256"/><path class="cls-2" d="M505.8738,59A40.3017,40.3017,0,0,1,546.13,99.256V949.744A40.3017,40.3017,0,0,1,505.8738,990H75.1262A40.3017,40.3017,0,0,1,34.87,949.744V99.256A40.3017,40.3017,0,0,1,75.1262,59H505.8738m0-1H75.1262A41.3773,41.3773,0,0,0,33.87,99.256V949.744A41.3773,41.3773,0,0,0,75.1262,991H505.8738A41.3773,41.3773,0,0,0,547.13,949.744V99.256A41.3773,41.3773,0,0,0,505.8738,58Z"/><rect class="cls-3" x="42" y="66" width="497" height="917" rx="35.2253"/><path class="cls-4" d="M503.7747,67A34.2641,34.2641,0,0,1,538,101.2253V947.7747A34.2641,34.2641,0,0,1,503.7747,982H77.2253A34.2641,34.2641,0,0,1,43,947.7747V101.2253A34.2641,34.2641,0,0,1,77.2253,67H503.7747m0-1H77.2253A35.3288,35.3288,0,0,0,42,101.2253V947.7747A35.3287,35.3287,0,0,0,77.2253,983H503.7747A35.3287,35.3287,0,0,0,539,947.7747V101.2253A35.3288,35.3288,0,0,0,503.7747,66Z"/><circle class="cls-5" cx="291" cy="909" r="46"/><path class="cls-6" d="M291,864a45,45,0,1,1-45,45,45.051,45.051,0,0,1,45-45m0-1a46,46,0,1,0,46,46,46,46,0,0,0-46-46Z"/><rect class="cls-5" x="245" y="108.87" width="92" height="16.7298" rx="8"/><rect class="cls-5" x="209" y="108.87" width="16" height="16.7298" rx="8"/><path class="cls-7" d="M217,109.87a7.0079,7.0079,0,0,1,7,7v.73a7,7,0,1,1-14,0v-.73a7.0079,7.0079,0,0,1,7-7m0-1a8.0236,8.0236,0,0,0-8,8v.73a8,8,0,1,0,16,0v-.73a8.0236,8.0236,0,0,0-8-8Z"/><rect class="cls-5" x="283" y="83.7754" width="16" height="16.7298" rx="8"/><path class="cls-8" d="M291,84.7754a7.0079,7.0079,0,0,1,7,7v.73a7,7,0,0,1-14,0v-.73a7.0079,7.0079,0,0,1,7-7m0-1a8.0236,8.0236,0,0,0-8,8v.73a8,8,0,0,0,16,0v-.73a8.0236,8.0236,0,0,0-8-8Z"/><circle class="cls-3" cx="291" cy="909" r="35"/><path class="cls-9" d="M291,875a34,34,0,1,1-34,34,34.0385,34.0385,0,0,1,34-34m0-1a35,35,0,1,0,35,35,35,35,0,0,0-35-35Z"/><text class="cls-10" transform="translate(426.9326 191.3604)"><tspan class="cls-11">L</tspan><tspan x="12.7051" y="0">o</tspan></text></g><g id="snap_personer" data-name="snap personer"><rect class="cls-12" x="79.5" y="154.5" width="422" height="695"/><path class="cls-13" d="M415.3072,232.69a199.4844,199.4844,0,0,0-126.3633-22.9226c-1.9028.285-1.0942,3.1762.7975,2.8928A196.1321,196.1321,0,0,1,413.793,235.28c1.6881.9409,3.2026-1.6493,1.5142-2.59Z"/><path class="cls-13" d="M411.3926,230.0771c-47.4708-1.5011-99.0355-.749-137.9692,30.379-1.5077,1.2055.6272,3.3159,2.1213,2.1214,38.2222-30.5592,89.3147-30.9718,135.8479-29.5,1.9311.061,1.929-2.9391,0-3Z"/><path class="cls-13" d="M414.2873,231.9062a154.0044,154.0044,0,0,0-67.4513,24.44c-19.0377,12.6039-38.6732,30.4155-43.8339,53.5736-.4192,1.8809,2.4724,2.6841,2.8928.7975,5.0985-22.8788,24.9157-40.4272,43.8171-52.6725a150.548,150.548,0,0,1,64.5753-23.1391c1.8959-.2174,1.9179-3.22,0-3Z"/><path class="cls-13" d="M410.8006,233.6021c-32.9976,35.07-41.7136,84.1545-40.3709,130.7415.0555,1.9264,3.0557,1.9344,3,0-1.3192-45.7733,7.0407-94.1311,39.4922-128.62,1.3224-1.4054-.7949-3.531-2.1213-2.1213Z"/><path class="cls-13" d="M409.8628,235.1142c21.6448,15.5461,32.595,40.8606,39.9829,65.6361.55,1.8457,3.4466,1.06,2.8928-.7975-7.6355-25.6059-19.0258-51.3867-41.3615-67.429-1.5707-1.128-3.07,1.473-1.5142,2.59Z"/><path class="cls-13" d="M408.914,237.4357a306.2327,306.2327,0,0,1,88.5234-4.06c1.92.19,1.9066-2.8109,0-3a309.009,309.009,0,0,0-89.3209,4.1675c-1.8934.3668-1.0918,3.2588.7975,2.8929Z"/><path class="cls-13" d="M413.2207,235.5155a76.4291,76.4291,0,0,1,50.5152-50.9636c1.84-.5641,1.0556-3.4608-.7976-2.8929a79.5424,79.5424,0,0,0-52.61,53.059c-.5509,1.8546,2.3435,2.6469,2.8928.7975Z"/><path class="cls-13" d="M411.09,227.79a266.8457,266.8457,0,0,1-14.1862-57.5175c-.2467-1.8873-3.25-1.9118-3,0a270.2765,270.2765,0,0,0,14.2934,58.315c.66,1.7971,3.561,1.02,2.8928-.7975Z"/><path class="cls-13" d="M168.2714,401.9447c8.0762-17.5465,29.1955-27.8068,46.7413-33.2216,18.199-5.6163,37.3725-7.08,56.33-6.6828,1.9312.0405,1.9309-2.9595,0-3-20.267-.425-40.8984,1.2686-60.21,7.785-17.2421,5.818-37.477,16.2807-45.4511,33.6053-.8017,1.7418,1.7832,3.2678,2.59,1.5141Z"/><path class="cls-13" d="M167.3345,402.26c-1.0948-17.731-2.24-35.9139,1.9214-53.3575,4.1871-17.5525,14.4594-32.13,26.185-45.5041,1.2681-1.4464-.8455-3.5764-2.1213-2.1213-11.636,13.2714-22.0257,27.7814-26.5265,45.0987-4.7343,18.2162-3.6062,37.2978-2.4586,55.8842.1185,1.9179,3.1193,1.9314,3,0Z"/><path class="cls-13" d="M168.2419,400.3345c-3.5719-29.0444-10.2244-59.2107-30.6788-81.3418-1.3132-1.4209-3.4307.7046-2.1213,2.1213,19.8638,21.4921,26.332,51.02,29.8,79.2205.2326,1.8915,3.2355,1.9149,3,0Z"/><path class="cls-13" d="M163.8759,404.2644a208.7892,208.7892,0,0,0-60.5516-5.3211c-1.9189.1124-1.9318,3.1132,0,3a205.8321,205.8321,0,0,1,59.7541,5.214c1.8771.4458,2.6781-2.4462.7975-2.8929Z"/><path class="cls-13" d="M167.4668,403.1906a274.4278,274.4278,0,0,0-37.3978-33.1558c-1.556-1.146-3.054,1.4564-1.5142,2.59a270.27,270.27,0,0,1,36.7906,32.6867c1.3243,1.4106,3.4426-.7139,2.1214-2.1213Z"/><path class="cls-13" d="M164.3829,400.6715c-28.5378,19.1515-57.7732,44.7676-59.3251,81.71-.0811,1.93,2.9191,1.9266,3,0,1.5037-35.7967,30.2565-60.6091,57.8393-79.12,1.595-1.07.095-3.67-1.5142-2.59Z"/><path class="cls-13" d="M165.8272,406.906a175.967,175.967,0,0,0-8.9687,55.4284,1.5009,1.5009,0,0,0,3,0,173.3513,173.3513,0,0,1,8.8615-54.6309c.6095-1.8366-2.2867-2.624-2.8928-.7975Z"/><path class="cls-13" d="M161.7366,407.3966a90.83,90.83,0,0,1,35.4856,65.9753c.1274,1.9164,3.1283,1.9306,3,0a94.0728,94.0728,0,0,0-36.9714-68.5657c-1.5378-1.167-3.0341,1.437-1.5142,2.59Z"/><path class="cls-13" d="M166.3266,409.8847c16.8021.1478,33.8386-2.9338,50.5448-.102,15.4092,2.6119,29.2185,10.351,42.6747,17.9089,1.6853.9466,3.1994-1.6438,1.5141-2.59-13.6671-7.6764-27.7423-15.5446-43.3913-18.2114-17.0016-2.8972-34.2458.1453-51.3423-.0051a1.5009,1.5009,0,0,0,0,3Z"/><path class="cls-14" d="M409.9475,226.7972c-25.2588,4.8282-47.56,19.9556-62.87,40.44-17.1667,22.97-24.8624,51.7129-25.2861,80.1109a1.5009,1.5009,0,0,0,3,0c.4088-27.4015,7.7168-54.9852,23.9624-77.3572,14.88-20.4911,37.0125-35.5265,61.9908-40.3011,1.8942-.3621,1.0921-3.254-.7976-2.8928Z"/><path class="cls-14" d="M411.5625,228.1205c-11.8983-13.392-25.24-25.8447-40.9013-34.7308a95.9,95.9,0,0,0-23.4969-9.6492c-7.2508-1.8508-15.7567-3.7828-22.6374.1111a1.5011,1.5011,0,0,0,1.5141,2.59c7.3857-4.18,18.0327-.7419,25.5924,1.7166a98.6215,98.6215,0,0,1,21.5851,10.246c13.7222,8.5546,25.5233,19.7947,36.2227,31.8372,1.2849,1.4463,3.4-.6817,2.1213-2.1213Z"/><path class="cls-14" d="M411.1878,227.2441a83.8669,83.8669,0,0,1,5.8676-43.825c5.3642-12.5174,14.738-25.91,29.3238-27.6956,1.8919-.2316,1.9151-3.2344,0-3-14.2612,1.7461-24.1389,13.1314-30.18,25.3935a86.2247,86.2247,0,0,0-8.011,49.1271c.2431,1.8883,3.2462,1.9126,3,0Z"/><path class="cls-14" d="M412.222,228.9739c19.4215-9.1759,42.7016-24.1845,64.7213-15.1833,1.786.73,2.5636-2.171.7975-2.8929-22.8316-9.333-46.9169,5.9818-67.033,15.4858-1.7445.8242-.2236,3.4114,1.5142,2.59Z"/><path class="cls-14" d="M408.0452,228.1952a116.0154,116.0154,0,0,1,37.4156,11.7021c10.6538,5.498,24.6035,13.2269,27.7393,25.7333.4692,1.8715,3.3632,1.0786,2.8928-.7975-3.0965-12.35-15.6361-20.1046-26.0687-25.8916a118.1179,118.1179,0,0,0-41.1815-13.6392c-1.8881-.2609-2.7046,2.6293-.7975,2.8929Z"/><path class="cls-14" d="M409.38,229.284c-1.4451,23.109-2.441,48.0408,11.8441,67.7225,1.1232,1.5475,3.7271.052,2.59-1.5142-13.9853-19.2686-12.8483-43.6-11.4345-66.2083.1206-1.9281-2.88-1.9209-3,0Z"/><path class="cls-14" d="M165.8918,404.3158c-2.5567-19.42,10.6172-38.8822,21.4915-53.9488A188.6886,188.6886,0,0,1,226.8169,310.23c1.5227-1.1479.0293-3.754-1.5142-2.59a193.3933,193.3933,0,0,0-40.51,41.2128c-11.1531,15.4528-24.53,35.49-21.9011,55.463.2484,1.8867,3.2517,1.9115,3,0Z"/><path class="cls-14" d="M167.1987,404.8412c-10.2741-24.0165-16.3279-51.6861-37.7237-68.7891-1.4935-1.1939-3.63.9155-2.1213,2.1213,21.1576,16.9126,27.0911,44.4241,37.2546,68.182.757,1.77,3.3421.2431,2.59-1.5142Z"/><path class="cls-14" d="M162.55,405.4282a33.2863,33.2863,0,0,0-42.3028,25.5652c-.3714,1.8858,2.52,2.6931,2.8928.7975a30.2816,30.2816,0,0,1,38.6124-23.47c1.8564.5443,2.6492-2.35.7976-2.8928Z"/><path class="cls-14" d="M163.8558,407.4723a131.2059,131.2059,0,0,0-14.6064,69.8328c.1331,1.9154,3.1341,1.93,3,0a128.247,128.247,0,0,1,14.1968-68.3186c.8913-1.71-1.6968-3.2287-2.59-1.5142Z"/><path class="cls-14" d="M160.46,414.558c17.9932-1.5513,36.8237-3.1568,54.0579,3.4832,17.106,6.5907,26.4277,20.9372,33.4021,37.1147.7622,1.7679,3.3474.2418,2.59-1.5142-7.0152-16.2721-16.41-30.62-33.2891-37.7248-17.9552-7.5576-37.8307-5.991-56.7613-4.3589-1.909.1646-1.9265,3.1661,0,3Z"/><path class="cls-14" d="M167.3845,411.3781A110.8337,110.8337,0,0,1,248.4468,389.03c1.9127.23,1.8961-2.772,0-3a113.733,113.733,0,0,0-83.1836,23.2264c-1.5222,1.1839.6146,3.2932,2.1213,2.1213Z"/></g></svg>
