<svg xmlns="http://www.w3.org/2000/svg" width="2415" height="699" viewBox="0 0 2415 699"><defs><style>.cls-1{fill:#ffcd9f;}.cls-2{fill:#c45833;}.cls-10,.cls-16,.cls-3{fill:none;stroke-miterlimit:10;}.cls-3{stroke:#a67c52;}.cls-4{fill:#333;}.cls-5{fill:#fff;}.cls-6{fill:#603813;}.cls-7{fill:#66482d;}.cls-8{fill:#83a1d6;}.cls-9{fill:#ffe2b4;}.cls-10,.cls-16{stroke:#6569c2;}.cls-10{stroke-width:12px;}.cls-11{fill:#7883b0;}.cls-12{fill:#534741;}.cls-13{fill:#754c42;}.cls-14{fill:#c7b299;}.cls-15{fill:#998675;}.cls-16{stroke-width:10px;}</style></defs><title>dansemand1</title><g id="Layer_2" data-name="Layer 2"><path class="cls-1" d="M203.37,226.55H153.62V198.12h49.75v28.43Z"/><path class="cls-1" d="M153.87,205.28a116.3,116.3,0,0,1,16.23,1.81,40.6,40.6,0,0,0,5.79.84c1.84.08,3.68-.13,5.52,0,1.64.08,3.26.41,4.9.52,5.9.39,11.58-2,17-4.44"/><path class="cls-1" d="M233.57,130.59c0,43.66-11.5,78.19-54.19,78.19s-59.51-34.53-59.51-78.19,16.83-79.93,59.51-79.93S233.57,86.93,233.57,130.59Z"/><path class="cls-2" d="M201.59,175c0,4.41-11.13,12.43-24.87,12.43s-24.87-8-24.87-12.43,11.13-3.56,24.87-3.56S201.59,170.61,201.59,175Z"/><path class="cls-3" d="M180.27,162.59c-21.32,1.78-3.55-12.44-5.33-30.2"/><ellipse class="cls-4" cx="154.51" cy="127.06" rx="4.44" ry="5.33"/><circle class="cls-5" cx="155.4" cy="128.83" r="0.89"/><ellipse class="cls-4" cx="198.93" cy="127.06" rx="4.44" ry="5.33"/><circle class="cls-5" cx="199.82" cy="128.83" r="0.89"/><path class="cls-6" d="M160,118c-.3-.94-9.49-3.54-18.6,3"/><path class="cls-6" d="M192.53,120.08c.26-.94,9.35-3.88,18.69,2.36"/><ellipse class="cls-7" cx="128.44" cy="98.63" rx="8.62" ry="6.08" transform="translate(-33.47 95.35) rotate(-36.36)"/><ellipse class="cls-7" cx="146.14" cy="91.52" rx="11.38" ry="10.66"/><ellipse class="cls-7" cx="124.65" cy="108.11" rx="10.11" ry="5.92"/><ellipse class="cls-7" cx="138.56" cy="97.45" rx="11.38" ry="11.84"/><ellipse class="cls-7" cx="156.25" cy="103.37" rx="8.68" ry="6.04" transform="translate(-30.8 92.89) rotate(-30.28)"/><ellipse class="cls-7" cx="163.84" cy="103.37" rx="6.32" ry="5.92"/><ellipse class="cls-7" cx="162.57" cy="111.66" rx="5.06" ry="7.11"/><ellipse class="cls-7" cx="168.9" cy="105.74" rx="8.81" ry="5.95" transform="translate(-20.68 44.37) rotate(-14.11)"/><ellipse class="cls-7" cx="173.95" cy="112.84" rx="3.79" ry="5.92"/><ellipse class="cls-7" cx="171.42" cy="115.21" rx="13.91" ry="3.55"/><ellipse class="cls-7" cx="185.33" cy="108.11" rx="7.12" ry="8.84" transform="translate(56.13 279.4) rotate(-83.23)"/><ellipse class="cls-7" cx="180.27" cy="117.58" rx="2.53" ry="3.55"/><ellipse class="cls-7" cx="186.59" cy="117.58" rx="6.32" ry="3.55"/><ellipse class="cls-7" cx="195.44" cy="112.84" rx="5.06" ry="3.55"/><ellipse class="cls-7" cx="192.91" cy="116.4" rx="5.06" ry="4.74"/><ellipse class="cls-7" cx="201.76" cy="116.4" rx="6.32" ry="4.74"/><ellipse class="cls-7" cx="199.23" cy="108.11" rx="6.32" ry="5.92"/><ellipse class="cls-7" cx="146.14" cy="108.11" rx="8.62" ry="6.08" transform="translate(-35.64 107.69) rotate(-36.36)"/><ellipse class="cls-7" cx="153.73" cy="110.47" rx="6.32" ry="5.92"/><ellipse class="cls-7" cx="204.29" cy="110.47" rx="8.85" ry="3.55"/><ellipse class="cls-7" cx="211.88" cy="115.21" rx="6.32" ry="3.55"/><ellipse class="cls-7" cx="215.67" cy="112.84" rx="5.06" ry="10.66"/><ellipse class="cls-7" cx="223.25" cy="112.84" rx="10.11" ry="5.92"/><ellipse class="cls-7" cx="228.31" cy="105.74" rx="5.06" ry="10.66"/><ellipse class="cls-7" cx="220.73" cy="103.37" rx="10.11" ry="8.29"/><ellipse class="cls-7" cx="234.63" cy="103.37" rx="11.38" ry="8.29"/><ellipse class="cls-7" cx="139.82" cy="108.11" rx="5.06" ry="5.92"/><path class="cls-8" d="M208.7,86.19h-64c-11.73,0-23.1,11.73-23.1,0L123.42,72c3.55-12.44,8.88-16,21.32-21.32l32-7.11,32,7.11c12.44,3.55,19.54,12.44,19.54,24.87V86.19C228.24,97.92,220.42,86.19,208.7,86.19Z"/><path class="cls-9" d="M231.8,109.29c-7.22,3.09-12.09,5.33-53.3,5.33S114.62,89.7,121.64,86.19c3.56-1.77,75.65-17.76,111.93,1.78C256.67,100.41,244.23,104,231.8,109.29Z"/><ellipse class="cls-9" cx="176.72" cy="42.66" rx="5.33" ry="2.66"/><path class="cls-10" d="M145.63,236.32C91,247,65,282,45,314"/><path class="cls-11" d="M214.41,383.12h-64c-12.19,0-33.36-9.93-33.36-22.12l11.2-115.62a22.22,22.22,0,0,1,22.16-22.16h64a22.22,22.22,0,0,1,22.16,22.16L221,358C221,370.19,226.6,383.12,214.41,383.12Z"/><rect class="cls-12" x="115.2" y="342.14" width="108.38" height="45.3" rx="2.3" ry="2.3"/><path class="cls-13" d="M115.7,372.51c6.62,6.68,15.46,8.65,19.75,4.4s2.42-13.12-4.2-19.8"/><path class="cls-13" d="M206.48,357.27c-6.15,7.11-7.43,16.08-2.85,20s13.26,1.39,19.41-5.73"/><rect class="cls-12" x="115.2" y="382.89" width="44.42" height="191.88"/><rect class="cls-12" x="177.38" y="380.89" width="46.19" height="191.88"/><path class="cls-14" d="M161.49,592.31l-57.17,5.3c-7.09.69-13.51-5.14-14.27-13l-.12-1.24c-.76-7.81,4.42-14.76,11.5-15.45l58.22-3.69"/><path class="cls-14" d="M177.19,599.63l57.41,1.15c7.12.17,13.1-6.11,13.29-13.95l0-1.25c.2-7.84-5.47-14.41-12.59-14.58l-58.33.54"/><path class="cls-1" d="M503.37,226.05H453.62V197.62h49.75v28.43Z"/><path class="cls-15" d="M453.87,207.28c8.65.42,17.08,2.45,25.7,2.6,4.05.07,7.94.91,12,.21s7.95-2.45,11.74-4.11c.64-.28-.58-4.74,0-5a53.31,53.31,0,0,1-11.74,4.11c-4.06.72-7.93-.14-12-.21-8.62-.15-17.05-2.18-25.7-2.6.05,0-.12,5,0,5Z"/><path class="cls-1" d="M533.57,130.09c0,43.66-11.5,78.19-54.19,78.19s-59.51-34.53-59.51-78.19,16.83-79.93,59.51-79.93S533.57,86.43,533.57,130.09Z"/><path class="cls-2" d="M501.59,174.53c0,4.41-11.13,12.43-24.87,12.43s-24.87-8-24.87-12.43S463,171,476.72,171,501.59,170.11,501.59,174.53Z"/><path class="cls-3" d="M480.27,162.09c-21.32,1.78-3.55-12.44-5.33-30.2"/><ellipse class="cls-4" cx="454.51" cy="126.56" rx="4.44" ry="5.33"/><circle class="cls-5" cx="455.4" cy="128.33" r="0.89"/><ellipse class="cls-4" cx="498.93" cy="126.56" rx="4.44" ry="5.33"/><circle class="cls-5" cx="499.82" cy="128.33" r="0.89"/><path class="cls-6" d="M460,117.46c-.3-.94-9.49-3.54-18.6,3"/><path class="cls-6" d="M492.53,119.58c.26-.94,9.35-3.88,18.69,2.36"/><ellipse class="cls-7" cx="428.44" cy="98.13" rx="8.62" ry="6.08" transform="translate(25.24 273.11) rotate(-36.36)"/><ellipse class="cls-7" cx="446.14" cy="91.02" rx="11.38" ry="10.66"/><ellipse class="cls-7" cx="424.65" cy="107.61" rx="10.11" ry="5.92"/><ellipse class="cls-7" cx="438.56" cy="96.95" rx="11.38" ry="11.84"/><ellipse class="cls-7" cx="456.25" cy="102.87" rx="8.68" ry="6.04" transform="translate(10.38 244.09) rotate(-30.28)"/><ellipse class="cls-7" cx="463.84" cy="102.87" rx="6.32" ry="5.92"/><ellipse class="cls-7" cx="462.57" cy="111.16" rx="5.06" ry="7.11"/><ellipse class="cls-7" cx="468.9" cy="105.24" rx="8.81" ry="5.95" transform="translate(-11.51 117.51) rotate(-14.11)"/><ellipse class="cls-7" cx="473.95" cy="112.34" rx="3.79" ry="5.92"/><ellipse class="cls-7" cx="471.42" cy="114.71" rx="13.91" ry="3.55"/><ellipse class="cls-7" cx="485.33" cy="107.61" rx="7.12" ry="8.84" transform="translate(321.26 576.86) rotate(-83.23)"/><ellipse class="cls-7" cx="480.27" cy="117.08" rx="2.53" ry="3.55"/><ellipse class="cls-7" cx="486.59" cy="117.08" rx="6.32" ry="3.55"/><ellipse class="cls-7" cx="495.44" cy="112.34" rx="5.06" ry="3.55"/><ellipse class="cls-7" cx="492.91" cy="115.9" rx="5.06" ry="4.74"/><ellipse class="cls-7" cx="501.76" cy="115.9" rx="6.32" ry="4.74"/><ellipse class="cls-7" cx="499.23" cy="107.61" rx="6.32" ry="5.92"/><ellipse class="cls-7" cx="446.14" cy="107.61" rx="8.62" ry="6.08" transform="translate(23.06 285.44) rotate(-36.36)"/><ellipse class="cls-7" cx="453.73" cy="109.97" rx="6.32" ry="5.92"/><ellipse class="cls-7" cx="504.29" cy="109.97" rx="8.85" ry="3.55"/><ellipse class="cls-7" cx="511.88" cy="114.71" rx="6.32" ry="3.55"/><ellipse class="cls-7" cx="515.67" cy="112.34" rx="5.06" ry="10.66"/><ellipse class="cls-7" cx="523.25" cy="112.34" rx="10.11" ry="5.92"/><ellipse class="cls-7" cx="528.31" cy="105.24" rx="5.06" ry="10.66"/><ellipse class="cls-7" cx="520.73" cy="102.87" rx="10.11" ry="8.29"/><ellipse class="cls-7" cx="534.63" cy="102.87" rx="11.38" ry="8.29"/><ellipse class="cls-7" cx="439.82" cy="107.61" rx="5.06" ry="5.92"/><path class="cls-8" d="M508.7,85.69h-64c-11.73,0-23.1,11.73-23.1,0l1.78-14.21c3.55-12.44,8.88-16,21.32-21.32l32-7.11,32,7.11C521.14,53.71,528.24,62.6,528.24,75V85.69C528.24,97.42,520.42,85.69,508.7,85.69Z"/><path class="cls-9" d="M531.8,108.79c-7.22,3.09-12.09,5.33-53.3,5.33S414.62,89.2,421.64,85.69c3.56-1.77,75.65-17.76,111.93,1.78C556.67,99.91,544.23,103.46,531.8,108.79Z"/><ellipse class="cls-9" cx="476.72" cy="42.16" rx="5.33" ry="2.66"/><path class="cls-16" d="M445.63,235.82C401.43,221,402.11,319.4,420,353"/><path class="cls-16" d="M510.25,231.31C546,211.84,550,321,550,360"/><rect class="cls-11" x="425.2" y="220.72" width="108.38" height="159.9" rx="22.16" ry="22.16"/><rect class="cls-12" x="425.2" y="340.64" width="108.38" height="45.3" rx="2.3" ry="2.3"/><path class="cls-13" d="M424.7,371c6.62,6.68,15.46,8.65,19.75,4.4s2.42-13.12-4.2-19.8"/><path class="cls-13" d="M517.48,355.77c-6.15,7.11-7.43,16.08-2.85,20s13.26,1.39,19.41-5.73"/><rect class="cls-12" x="425.2" y="382.39" width="44.42" height="191.88"/><rect class="cls-12" x="487.38" y="382.39" width="46.19" height="191.88"/><path class="cls-14" d="M471.49,593.81l-57.17,5.3c-7.09.69-13.51-5.14-14.27-13l-.12-1.24c-.76-7.81,4.42-14.76,11.5-15.45l58.22-3.69"/><path class="cls-14" d="M487.57,599.35,545,600.5c7.12.17,13.1-6.11,13.29-14l0-1.24c.2-7.85-5.47-14.41-12.59-14.59l-58.33.55"/><path class="cls-1" d="M803.37,226.05H753.62V197.62h49.75v28.43Z"/><path class="cls-15" d="M753.87,207.28c8.65.42,17.08,2.45,25.7,2.6,4,.07,7.94.91,12,.21s8-2.45,11.74-4.11c.64-.28-.58-4.74,0-5a53.31,53.31,0,0,1-11.74,4.11c-4.06.72-7.93-.14-12-.21-8.62-.15-17.05-2.18-25.7-2.6,0,0-.12,5,0,5Z"/><path class="cls-1" d="M833.57,130.09c0,43.66-11.5,78.19-54.19,78.19s-59.51-34.53-59.51-78.19,16.83-79.93,59.51-79.93S833.57,86.43,833.57,130.09Z"/><path class="cls-2" d="M801.59,174.53c0,4.41-11.13,12.43-24.87,12.43s-24.87-8-24.87-12.43S763,171,776.72,171,801.59,170.11,801.59,174.53Z"/><path class="cls-3" d="M780.27,162.09c-21.32,1.78-3.55-12.44-5.33-30.2"/><ellipse class="cls-4" cx="754.51" cy="126.56" rx="4.44" ry="5.33"/><circle class="cls-5" cx="755.4" cy="128.33" r="0.89"/><ellipse class="cls-4" cx="798.93" cy="126.56" rx="4.44" ry="5.33"/><circle class="cls-5" cx="799.82" cy="128.33" r="0.89"/><path class="cls-6" d="M760,117.46c-.3-.94-9.49-3.54-18.6,3"/><path class="cls-6" d="M792.53,119.58c.26-.94,9.35-3.88,18.69,2.36"/><ellipse class="cls-7" cx="728.44" cy="98.13" rx="8.62" ry="6.08" transform="translate(83.64 450.96) rotate(-36.36)"/><ellipse class="cls-7" cx="746.14" cy="91.02" rx="11.38" ry="10.66"/><ellipse class="cls-7" cx="724.65" cy="107.61" rx="10.11" ry="5.92"/><ellipse class="cls-7" cx="738.56" cy="96.95" rx="11.38" ry="11.84"/><ellipse class="cls-7" cx="756.25" cy="102.87" rx="8.68" ry="6.04" transform="translate(51.31 395.36) rotate(-30.28)"/><ellipse class="cls-7" cx="763.84" cy="102.87" rx="6.32" ry="5.92"/><ellipse class="cls-7" cx="762.57" cy="111.16" rx="5.06" ry="7.11"/><ellipse class="cls-7" cx="768.9" cy="105.24" rx="8.81" ry="5.95" transform="translate(-2.45 190.66) rotate(-14.11)"/><ellipse class="cls-7" cx="773.95" cy="112.34" rx="3.79" ry="5.92"/><ellipse class="cls-7" cx="771.42" cy="114.71" rx="13.91" ry="3.55"/><ellipse class="cls-7" cx="785.33" cy="107.61" rx="7.12" ry="8.84" transform="translate(585.89 874.77) rotate(-83.23)"/><ellipse class="cls-7" cx="780.27" cy="117.08" rx="2.53" ry="3.55"/><ellipse class="cls-7" cx="786.59" cy="117.08" rx="6.32" ry="3.55"/><ellipse class="cls-7" cx="795.44" cy="112.34" rx="5.06" ry="3.55"/><ellipse class="cls-7" cx="792.91" cy="115.9" rx="5.06" ry="4.74"/><ellipse class="cls-7" cx="801.76" cy="115.9" rx="6.32" ry="4.74"/><ellipse class="cls-7" cx="799.23" cy="107.61" rx="6.32" ry="5.92"/><ellipse class="cls-7" cx="746.14" cy="107.61" rx="8.62" ry="6.08" transform="translate(81.47 463.3) rotate(-36.36)"/><ellipse class="cls-7" cx="753.73" cy="109.97" rx="6.32" ry="5.92"/><ellipse class="cls-7" cx="804.29" cy="109.97" rx="8.85" ry="3.55"/><ellipse class="cls-7" cx="811.88" cy="114.71" rx="6.32" ry="3.55"/><ellipse class="cls-7" cx="815.67" cy="112.34" rx="5.06" ry="10.66"/><ellipse class="cls-7" cx="823.25" cy="112.34" rx="10.11" ry="5.92"/><ellipse class="cls-7" cx="828.31" cy="105.24" rx="5.06" ry="10.66"/><ellipse class="cls-7" cx="820.73" cy="102.87" rx="10.11" ry="8.29"/><ellipse class="cls-7" cx="834.63" cy="102.87" rx="11.38" ry="8.29"/><ellipse class="cls-7" cx="739.82" cy="107.61" rx="5.06" ry="5.92"/><path class="cls-8" d="M808.7,85.69h-64c-11.73,0-23.1,11.73-23.1,0l1.78-14.21c3.55-12.44,8.88-16,21.32-21.32l32-7.11,32,7.11C821.14,53.71,828.24,62.6,828.24,75V85.69C828.24,97.42,820.42,85.69,808.7,85.69Z"/><path class="cls-9" d="M831.8,108.79c-7.22,3.09-12.09,5.33-53.3,5.33S714.62,89.2,721.64,85.69c3.56-1.77,75.65-17.76,111.93,1.78C856.67,99.91,844.23,103.46,831.8,108.79Z"/><ellipse class="cls-9" cx="776.72" cy="42.16" rx="5.33" ry="2.66"/><path class="cls-16" d="M810.25,231.31C846,211.84,852,287,873,341"/><path class="cls-11" d="M811.41,380.62h-64c-12.19,0-33.36-8.43-33.36-20.62l11.2-117.12a22.22,22.22,0,0,1,22.16-22.16h64a22.22,22.22,0,0,1,22.16,22.16L818,356C818,368.19,823.6,380.62,811.41,380.62Z"/><rect class="cls-12" x="713.2" y="341.64" width="108.38" height="45.3" rx="2.3" ry="2.3"/><path class="cls-13" d="M718.7,371c6.62,6.68,15.46,8.65,19.75,4.4s2.42-13.12-4.2-19.8"/><path class="cls-13" d="M804.48,355.77c-6.15,7.11-7.43,16.08-2.85,20s13.26,1.39,19.41-5.73"/><rect class="cls-12" x="712.2" y="382.39" width="44.42" height="191.88"/><rect class="cls-12" x="774.38" y="382.39" width="46.19" height="191.88"/><path class="cls-14" d="M759.49,593.81l-57.17,5.3c-7.09.69-13.51-5.14-14.27-13l-.12-1.24c-.76-7.81,4.42-14.76,11.5-15.45l58.22-3.69"/><path class="cls-14" d="M774.19,599.63l57.41,1.15c7.12.17,13.1-6.11,13.29-13.95l0-1.25c.2-7.84-5.47-14.41-12.59-14.58l-58.33.54"/><path class="cls-1" d="M1119.92,226.05h-49.75V197.62h49.75v28.43Z"/><path class="cls-15" d="M1070.42,207.28c8.65.42,17.08,2.45,25.7,2.6,4.05.07,7.94.91,12,.21s8-2.45,11.73-4.11c.65-.28-.58-4.74,0-5a53,53,0,0,1-11.73,4.11c-4.06.72-7.93-.14-12-.21-8.62-.15-17-2.18-25.7-2.6,0,0-.12,5,0,5Z"/><path class="cls-1" d="M1150.12,130.09c0,43.66-11.5,78.19-54.19,78.19s-59.52-34.53-59.52-78.19,16.84-79.93,59.52-79.93S1150.12,86.43,1150.12,130.09Z"/><path class="cls-2" d="M1118.14,174.53c0,4.41-11.14,12.43-24.87,12.43s-24.88-8-24.88-12.43,11.14-3.56,24.88-3.56S1118.14,170.11,1118.14,174.53Z"/><path class="cls-3" d="M1096.82,162.09c-21.32,1.78-3.55-12.44-5.33-30.2"/><ellipse class="cls-4" cx="1071.06" cy="126.56" rx="4.44" ry="5.33"/><circle class="cls-5" cx="1071.95" cy="128.33" r="0.89"/><ellipse class="cls-4" cx="1115.48" cy="126.56" rx="4.44" ry="5.33"/><circle class="cls-5" cx="1116.36" cy="128.33" r="0.89"/><path class="cls-6" d="M1076.54,117.46c-.29-.94-9.49-3.54-18.59,3"/><path class="cls-6" d="M1109.08,119.58c.25-.94,9.35-3.88,18.69,2.36"/><ellipse class="cls-7" cx="1044.99" cy="98.13" rx="8.62" ry="6.08" transform="translate(145.27 638.63) rotate(-36.36)"/><ellipse class="cls-7" cx="1062.69" cy="91.02" rx="11.38" ry="10.66"/><ellipse class="cls-7" cx="1041.2" cy="107.61" rx="10.11" ry="5.92"/><ellipse class="cls-7" cx="1055.1" cy="96.95" rx="11.38" ry="11.84"/><ellipse class="cls-7" cx="1072.8" cy="102.87" rx="8.68" ry="6.04" transform="translate(94.49 554.97) rotate(-30.28)"/><ellipse class="cls-7" cx="1080.39" cy="102.87" rx="6.32" ry="5.92"/><ellipse class="cls-7" cx="1079.12" cy="111.16" rx="5.06" ry="7.11"/><ellipse class="cls-7" cx="1085.44" cy="105.24" rx="8.81" ry="5.95" transform="translate(7.1 267.85) rotate(-14.11)"/><ellipse class="cls-7" cx="1090.5" cy="112.34" rx="3.79" ry="5.92"/><ellipse class="cls-7" cx="1087.97" cy="114.71" rx="13.91" ry="3.55"/><ellipse class="cls-7" cx="1101.88" cy="107.61" rx="7.12" ry="8.84" transform="translate(865.13 1189.11) rotate(-83.23)"/><ellipse class="cls-7" cx="1096.82" cy="117.08" rx="2.53" ry="3.55"/><ellipse class="cls-7" cx="1103.14" cy="117.08" rx="6.32" ry="3.55"/><ellipse class="cls-7" cx="1111.99" cy="112.34" rx="5.06" ry="3.55"/><ellipse class="cls-7" cx="1109.46" cy="115.9" rx="5.06" ry="4.74"/><ellipse class="cls-7" cx="1118.31" cy="115.9" rx="6.32" ry="4.74"/><ellipse class="cls-7" cx="1115.78" cy="107.61" rx="6.32" ry="5.92"/><ellipse class="cls-7" cx="1062.69" cy="107.61" rx="8.62" ry="6.08" transform="translate(143.1 650.97) rotate(-36.36)"/><ellipse class="cls-7" cx="1070.27" cy="109.97" rx="6.32" ry="5.92"/><ellipse class="cls-7" cx="1120.84" cy="109.97" rx="8.85" ry="3.55"/><ellipse class="cls-7" cx="1128.42" cy="114.71" rx="6.32" ry="3.55"/><ellipse class="cls-7" cx="1132.22" cy="112.34" rx="5.06" ry="10.66"/><ellipse class="cls-7" cx="1139.8" cy="112.34" rx="10.11" ry="5.92"/><ellipse class="cls-7" cx="1144.86" cy="105.24" rx="5.06" ry="10.66"/><ellipse class="cls-7" cx="1137.27" cy="102.87" rx="10.11" ry="8.29"/><ellipse class="cls-7" cx="1151.18" cy="102.87" rx="11.38" ry="8.29"/><ellipse class="cls-7" cx="1056.37" cy="107.61" rx="5.06" ry="5.92"/><path class="cls-8" d="M1125.25,85.69h-64c-11.73,0-23.1,11.73-23.1,0L1040,71.48c3.55-12.44,8.88-16,21.32-21.32l32-7.11,32,7.11c12.43,3.55,19.54,12.44,19.54,24.87V85.69C1144.79,97.42,1137,85.69,1125.25,85.69Z"/><path class="cls-9" d="M1148.34,108.79c-7.21,3.09-12.08,5.33-53.3,5.33s-63.87-24.92-56.85-28.43c3.55-1.77,75.65-17.76,111.93,1.78C1173.22,99.91,1160.78,103.46,1148.34,108.79Z"/><ellipse class="cls-9" cx="1093.27" cy="42.16" rx="5.33" ry="2.66"/><path class="cls-16" d="M1062.18,235.82c-43.53-15.1-56.63,91.18-61.63,127.18"/><path class="cls-16" d="M1126.8,231.31c35.76-19.47,65.75,66.69-6.25,104.69"/><rect class="cls-11" x="1041.74" y="220.72" width="108.38" height="159.9" rx="22.16" ry="22.16"/><rect class="cls-12" x="1041.74" y="340.64" width="108.38" height="45.3" rx="2.3" ry="2.3"/><path class="cls-13" d="M1041.25,371c6.61,6.68,15.46,8.65,19.75,4.4s2.42-13.12-4.2-19.8"/><path class="cls-13" d="M1134,355.77c-6.14,7.11-7.42,16.08-2.84,20s13.26,1.39,19.4-5.73"/><rect class="cls-12" x="1041.74" y="382.39" width="44.42" height="191.88"/><rect class="cls-12" x="1103.93" y="382.39" width="46.19" height="191.88"/><path class="cls-14" d="M1088,593.81l-57.17,5.3c-7.09.69-13.51-5.14-14.27-13l-.12-1.24c-.76-7.81,4.41-14.76,11.5-15.45l58.22-3.69"/><path class="cls-14" d="M1104.12,599.35l57.41,1.15c7.12.17,13.1-6.11,13.29-14l0-1.24c.2-7.85-5.47-14.41-12.59-14.59l-58.33.55"/><path class="cls-1" d="M1443.37,226.05h-49.75V197.62h49.75v28.43Z"/><path class="cls-15" d="M1393.87,207.28c8.65.42,17.08,2.45,25.7,2.6,4,.07,7.94.91,12,.21s8-2.45,11.74-4.11c.64-.28-.58-4.74,0-5a53.31,53.31,0,0,1-11.74,4.11c-4.06.72-7.93-.14-12-.21-8.62-.15-17-2.18-25.7-2.6.05,0-.12,5,0,5Z"/><path class="cls-1" d="M1473.57,130.09c0,43.66-11.5,78.19-54.19,78.19s-59.51-34.53-59.51-78.19,16.83-79.93,59.51-79.93S1473.57,86.43,1473.57,130.09Z"/><path class="cls-2" d="M1441.59,174.53c0,4.41-11.13,12.43-24.87,12.43s-24.87-8-24.87-12.43S1403,171,1416.72,171,1441.59,170.11,1441.59,174.53Z"/><path class="cls-3" d="M1420.27,162.09c-21.32,1.78-3.55-12.44-5.33-30.2"/><ellipse class="cls-4" cx="1394.51" cy="126.56" rx="4.44" ry="5.33"/><circle class="cls-5" cx="1395.4" cy="128.33" r="0.89"/><ellipse class="cls-4" cx="1438.93" cy="126.56" rx="4.44" ry="5.33"/><circle class="cls-5" cx="1439.82" cy="128.33" r="0.89"/><path class="cls-6" d="M1400,117.46c-.3-.94-9.49-3.54-18.6,3"/><path class="cls-6" d="M1432.53,119.58c.26-.94,9.35-3.88,18.69,2.36"/><ellipse class="cls-7" cx="1368.44" cy="98.13" rx="8.62" ry="6.08" transform="translate(208.24 830.39) rotate(-36.36)"/><ellipse class="cls-7" cx="1386.14" cy="91.02" rx="11.38" ry="10.66"/><ellipse class="cls-7" cx="1364.65" cy="107.61" rx="10.11" ry="5.92"/><ellipse class="cls-7" cx="1378.56" cy="96.95" rx="11.38" ry="11.84"/><ellipse class="cls-7" cx="1396.25" cy="102.87" rx="8.68" ry="6.04" transform="translate(138.62 718.07) rotate(-30.28)"/><ellipse class="cls-7" cx="1403.84" cy="102.87" rx="6.32" ry="5.92"/><ellipse class="cls-7" cx="1402.57" cy="111.16" rx="5.06" ry="7.11"/><ellipse class="cls-7" cx="1408.9" cy="105.24" rx="8.81" ry="5.95" transform="translate(16.86 346.71) rotate(-14.11)"/><ellipse class="cls-7" cx="1413.95" cy="112.34" rx="3.79" ry="5.92"/><ellipse class="cls-7" cx="1411.42" cy="114.71" rx="13.91" ry="3.55"/><ellipse class="cls-7" cx="1425.33" cy="107.61" rx="7.12" ry="8.84" transform="translate(1150.45 1510.31) rotate(-83.23)"/><ellipse class="cls-7" cx="1420.27" cy="117.08" rx="2.53" ry="3.55"/><ellipse class="cls-7" cx="1426.59" cy="117.08" rx="6.32" ry="3.55"/><ellipse class="cls-7" cx="1435.44" cy="112.34" rx="5.06" ry="3.55"/><ellipse class="cls-7" cx="1432.91" cy="115.9" rx="5.06" ry="4.74"/><ellipse class="cls-7" cx="1441.76" cy="115.9" rx="6.32" ry="4.74"/><ellipse class="cls-7" cx="1439.24" cy="107.61" rx="6.32" ry="5.92"/><ellipse class="cls-7" cx="1386.14" cy="107.61" rx="8.62" ry="6.08" transform="translate(206.07 842.73) rotate(-36.36)"/><ellipse class="cls-7" cx="1393.73" cy="109.97" rx="6.32" ry="5.92"/><ellipse class="cls-7" cx="1444.29" cy="109.97" rx="8.85" ry="3.55"/><ellipse class="cls-7" cx="1451.88" cy="114.71" rx="6.32" ry="3.55"/><ellipse class="cls-7" cx="1455.67" cy="112.34" rx="5.06" ry="10.66"/><ellipse class="cls-7" cx="1463.25" cy="112.34" rx="10.11" ry="5.92"/><ellipse class="cls-7" cx="1468.31" cy="105.24" rx="5.06" ry="10.66"/><ellipse class="cls-7" cx="1460.73" cy="102.87" rx="10.11" ry="8.29"/><ellipse class="cls-7" cx="1474.63" cy="102.87" rx="11.38" ry="8.29"/><ellipse class="cls-7" cx="1379.82" cy="107.61" rx="5.06" ry="5.92"/><path class="cls-8" d="M1448.7,85.69h-64c-11.73,0-23.1,11.73-23.1,0l1.78-14.21c3.55-12.44,8.88-16,21.32-21.32l32-7.11,32,7.11c12.44,3.55,19.54,12.44,19.54,24.87V85.69C1468.24,97.42,1460.43,85.69,1448.7,85.69Z"/><path class="cls-9" d="M1471.8,108.79c-7.22,3.09-12.09,5.33-53.3,5.33s-63.88-24.92-56.86-28.43c3.56-1.77,75.65-17.76,111.93,1.78C1496.67,99.91,1484.23,103.46,1471.8,108.79Z"/><ellipse class="cls-9" cx="1416.72" cy="42.16" rx="5.33" ry="2.66"/><path class="cls-16" d="M1385.63,235.82C1342.1,220.72,1320,287,1276,321"/><path class="cls-16" d="M1465,231c53,38-85,124-131,110"/><path class="cls-11" d="M1451.41,380.62h-64.05c-12.19,0-27.36-10.43-27.36-22.62l5.2-115.12a22.22,22.22,0,0,1,22.16-22.16h64.05a22.22,22.22,0,0,1,22.16,22.16L1463,358C1463,370.19,1463.6,380.62,1451.41,380.62Z"/><rect class="cls-12" x="1357.2" y="340.64" width="108.38" height="45.3" rx="2.3" ry="2.3"/><path class="cls-13" d="M1359.7,371c6.62,6.68,15.46,8.65,19.75,4.4s2.42-13.12-4.2-19.8"/><path class="cls-13" d="M1448.48,355.77c-6.15,7.11-7.42,16.08-2.85,20s13.26,1.39,19.41-5.73"/><rect class="cls-12" x="1357" y="382.39" width="49.61" height="191.88"/><rect class="cls-12" x="1418.38" y="382.39" width="46.19" height="191.88"/><path class="cls-14" d="M1408.65,594.07l-57.17,5.3c-4.25.43-10.67-5.4-11.43-13.21l-.12-1.24c-.76-7.81,4.42-14.76,11.5-15.45l58.22-3.69"/><path class="cls-14" d="M1419.19,599.63l57.41,1.15c7.12.17,13.1-6.11,13.29-13.95l0-1.25c.2-7.84-5.47-14.41-12.59-14.58l-58.33.54"/><path class="cls-10" d="M225,234c35.76-19.47,85,80-45,80"/><ellipse class="cls-1" cx="166.02" cy="313.57" rx="10.36" ry="16.8" transform="translate(-164.94 441.47) rotate(-83.23)"/><ellipse class="cls-1" cx="38.22" cy="323.36" rx="16.8" ry="10.36" transform="translate(-235.08 146.37) rotate(-50.33)"/><ellipse class="cls-1" cx="424.22" cy="363.86" rx="10.36" ry="16.8" transform="translate(-112.8 209.06) rotate(-24.54)"/><ellipse class="cls-1" cx="553.02" cy="371.07" rx="10.36" ry="16.8" transform="translate(-80.05 164.31) rotate(-15.77)"/><path class="cls-16" d="M736,229c-43.53-15.1-69,98,27,121"/><ellipse class="cls-1" cx="772.22" cy="355.86" rx="10.36" ry="16.8" transform="matrix(0.55, -0.84, 0.84, 0.55, 52.59, 808.74)"/><ellipse class="cls-1" cx="877.02" cy="349.07" rx="10.36" ry="16.8" transform="translate(-66.37 381.17) rotate(-23.65)"/><ellipse class="cls-1" cx="993.77" cy="371.86" rx="16.8" ry="10.36" transform="translate(139.83 1001.66) rotate(-56.92)"/><ellipse class="cls-1" cx="1272.22" cy="327.86" rx="16.8" ry="10.36" transform="translate(207.84 1098.01) rotate(-50.34)"/><ellipse class="cls-1" cx="1325.02" cy="342.07" rx="10.36" ry="16.8" transform="translate(829.13 1617.53) rotate(-83.23)"/><path class="cls-1" d="M1720.37,226.05h-49.75V197.62h49.75v28.43Z"/><path class="cls-15" d="M1670.87,207.28c8.65.42,17.08,2.45,25.7,2.6,4,.07,7.94.91,12,.21s8-2.45,11.74-4.11c.64-.28-.58-4.74,0-5a53.31,53.31,0,0,1-11.74,4.11c-4.06.72-7.93-.14-12-.21-8.62-.15-17-2.18-25.7-2.6.05,0-.12,5,0,5Z"/><path class="cls-1" d="M1750.57,130.09c0,43.66-11.5,78.19-54.19,78.19s-59.51-34.53-59.51-78.19,16.83-79.93,59.51-79.93S1750.57,86.43,1750.57,130.09Z"/><path class="cls-2" d="M1718.59,174.53c0,4.41-11.13,12.43-24.87,12.43s-24.87-8-24.87-12.43S1680,171,1693.72,171,1718.59,170.11,1718.59,174.53Z"/><path class="cls-3" d="M1697.27,162.09c-21.32,1.78-3.55-12.44-5.33-30.2"/><ellipse class="cls-4" cx="1671.51" cy="126.56" rx="4.44" ry="5.33"/><circle class="cls-5" cx="1672.4" cy="128.33" r="0.89"/><ellipse class="cls-4" cx="1715.93" cy="126.56" rx="4.44" ry="5.33"/><circle class="cls-5" cx="1716.82" cy="128.33" r="0.89"/><path class="cls-6" d="M1677,117.46c-.3-.94-9.49-3.54-18.6,3"/><path class="cls-6" d="M1709.53,119.58c.26-.94,9.35-3.88,18.69,2.36"/><ellipse class="cls-7" cx="1645.44" cy="98.13" rx="8.62" ry="6.08" transform="translate(262.17 994.61) rotate(-36.36)"/><ellipse class="cls-7" cx="1663.14" cy="91.02" rx="11.38" ry="10.66"/><ellipse class="cls-7" cx="1641.65" cy="107.61" rx="10.11" ry="5.92"/><ellipse class="cls-7" cx="1655.56" cy="96.95" rx="11.38" ry="11.84"/><ellipse class="cls-7" cx="1673.25" cy="102.87" rx="8.68" ry="6.04" transform="translate(176.41 857.74) rotate(-30.28)"/><ellipse class="cls-7" cx="1680.84" cy="102.87" rx="6.32" ry="5.92"/><ellipse class="cls-7" cx="1679.57" cy="111.16" rx="5.06" ry="7.11"/><ellipse class="cls-7" cx="1685.9" cy="105.24" rx="8.81" ry="5.95" transform="translate(25.23 414.26) rotate(-14.11)"/><ellipse class="cls-7" cx="1690.95" cy="112.34" rx="3.79" ry="5.92"/><ellipse class="cls-7" cx="1688.42" cy="114.71" rx="13.91" ry="3.55"/><ellipse class="cls-7" cx="1702.33" cy="107.61" rx="7.12" ry="8.84" transform="translate(1394.79 1785.38) rotate(-83.23)"/><ellipse class="cls-7" cx="1697.27" cy="117.08" rx="2.53" ry="3.55"/><ellipse class="cls-7" cx="1703.59" cy="117.08" rx="6.32" ry="3.55"/><ellipse class="cls-7" cx="1712.44" cy="112.34" rx="5.06" ry="3.55"/><ellipse class="cls-7" cx="1709.91" cy="115.9" rx="5.06" ry="4.74"/><ellipse class="cls-7" cx="1718.76" cy="115.9" rx="6.32" ry="4.74"/><ellipse class="cls-7" cx="1716.24" cy="107.61" rx="6.32" ry="5.92"/><ellipse class="cls-7" cx="1663.14" cy="107.61" rx="8.62" ry="6.08" transform="translate(260 1006.95) rotate(-36.36)"/><ellipse class="cls-7" cx="1670.73" cy="109.97" rx="6.32" ry="5.92"/><ellipse class="cls-7" cx="1721.29" cy="109.97" rx="8.85" ry="3.55"/><ellipse class="cls-7" cx="1728.88" cy="114.71" rx="6.32" ry="3.55"/><ellipse class="cls-7" cx="1732.67" cy="112.34" rx="5.06" ry="10.66"/><ellipse class="cls-7" cx="1740.25" cy="112.34" rx="10.11" ry="5.92"/><ellipse class="cls-7" cx="1745.31" cy="105.24" rx="5.06" ry="10.66"/><ellipse class="cls-7" cx="1737.73" cy="102.87" rx="10.11" ry="8.29"/><ellipse class="cls-7" cx="1751.63" cy="102.87" rx="11.38" ry="8.29"/><ellipse class="cls-7" cx="1656.82" cy="107.61" rx="5.06" ry="5.92"/><path class="cls-8" d="M1725.7,85.69h-64c-11.73,0-23.1,11.73-23.1,0l1.78-14.21c3.55-12.44,8.88-16,21.32-21.32l32-7.11,32,7.11c12.44,3.55,19.54,12.44,19.54,24.87V85.69C1745.24,97.42,1737.43,85.69,1725.7,85.69Z"/><path class="cls-9" d="M1748.8,108.79c-7.22,3.09-12.09,5.33-53.3,5.33s-63.88-24.92-56.86-28.43c3.56-1.77,75.65-17.76,111.93,1.78C1773.67,99.91,1761.23,103.46,1748.8,108.79Z"/><ellipse class="cls-9" cx="1693.72" cy="42.16" rx="5.33" ry="2.66"/><path class="cls-16" d="M1662.63,235.82C1619.1,220.72,1606,327,1601,363"/><path class="cls-16" d="M1727.25,231.31C1763,211.84,1793,298,1721,336"/><rect class="cls-11" x="1642.2" y="220.72" width="108.38" height="159.9" rx="22.16" ry="22.16"/><rect class="cls-12" x="1642.2" y="340.64" width="108.38" height="45.3" rx="2.3" ry="2.3"/><path class="cls-13" d="M1641.7,371c6.62,6.68,15.46,8.65,19.75,4.4s2.42-13.12-4.2-19.8"/><path class="cls-13" d="M1734.48,355.77c-6.15,7.11-7.43,16.08-2.85,20s13.26,1.39,19.41-5.73"/><rect class="cls-12" x="1642.2" y="382.39" width="44.42" height="191.88"/><rect class="cls-12" x="1704.38" y="382.39" width="46.19" height="191.88"/><path class="cls-14" d="M1688.49,593.81l-57.17,5.3c-7.09.69-13.51-5.14-14.27-13l-.12-1.24c-.76-7.81,4.42-14.76,11.5-15.45l58.22-3.69"/><path class="cls-14" d="M1704.57,599.35,1762,600.5c7.12.17,13.1-6.11,13.29-14l0-1.24c.2-7.85-5.47-14.41-12.59-14.59l-58.33.55"/><ellipse class="cls-1" cx="1594.22" cy="371.86" rx="16.8" ry="10.36" transform="translate(412.59 1504.81) rotate(-56.92)"/><path class="cls-1" d="M1978.37,226.05h-49.75V197.62h49.75v28.43Z"/><path class="cls-15" d="M1928.87,207.28c8.65.42,17.08,2.45,25.7,2.6,4,.07,7.94.91,12,.21s8-2.45,11.74-4.11c.64-.28-.58-4.74,0-5a53.31,53.31,0,0,1-11.74,4.11c-4.06.72-7.93-.14-12-.21-8.62-.15-17-2.18-25.7-2.6.05,0-.12,5,0,5Z"/><path class="cls-1" d="M2008.57,130.09c0,43.66-11.5,78.19-54.19,78.19s-59.51-34.53-59.51-78.19,16.83-79.93,59.51-79.93S2008.57,86.43,2008.57,130.09Z"/><path class="cls-2" d="M1976.59,174.53c0,4.41-11.13,12.43-24.87,12.43s-24.87-8-24.87-12.43S1938,171,1951.72,171,1976.59,170.11,1976.59,174.53Z"/><path class="cls-3" d="M1955.27,162.09c-21.32,1.78-3.55-12.44-5.33-30.2"/><ellipse class="cls-4" cx="1929.51" cy="126.56" rx="4.44" ry="5.33"/><circle class="cls-5" cx="1930.4" cy="128.33" r="0.89"/><ellipse class="cls-4" cx="1973.93" cy="126.56" rx="4.44" ry="5.33"/><circle class="cls-5" cx="1974.82" cy="128.33" r="0.89"/><path class="cls-6" d="M1935,117.46c-.3-.94-9.49-3.54-18.6,3"/><path class="cls-6" d="M1967.53,119.58c.26-.94,9.35-3.88,18.69,2.36"/><ellipse class="cls-7" cx="1903.44" cy="98.13" rx="8.62" ry="6.08" transform="translate(312.4 1147.56) rotate(-36.36)"/><ellipse class="cls-7" cx="1921.14" cy="91.02" rx="11.38" ry="10.66"/><ellipse class="cls-7" cx="1899.65" cy="107.61" rx="10.11" ry="5.92"/><ellipse class="cls-7" cx="1913.56" cy="96.95" rx="11.38" ry="11.84"/><ellipse class="cls-7" cx="1931.25" cy="102.87" rx="8.68" ry="6.04" transform="translate(211.61 987.83) rotate(-30.28)"/><ellipse class="cls-7" cx="1938.84" cy="102.87" rx="6.32" ry="5.92"/><ellipse class="cls-7" cx="1937.57" cy="111.16" rx="5.06" ry="7.11"/><ellipse class="cls-7" cx="1943.9" cy="105.24" rx="8.81" ry="5.95" transform="translate(33.01 477.17) rotate(-14.11)"/><ellipse class="cls-7" cx="1948.95" cy="112.34" rx="3.79" ry="5.92"/><ellipse class="cls-7" cx="1946.42" cy="114.71" rx="13.91" ry="3.55"/><ellipse class="cls-7" cx="1960.33" cy="107.61" rx="7.12" ry="8.84" transform="translate(1622.38 2041.58) rotate(-83.23)"/><ellipse class="cls-7" cx="1955.27" cy="117.08" rx="2.53" ry="3.55"/><ellipse class="cls-7" cx="1961.59" cy="117.08" rx="6.32" ry="3.55"/><ellipse class="cls-7" cx="1970.44" cy="112.34" rx="5.06" ry="3.55"/><ellipse class="cls-7" cx="1967.91" cy="115.9" rx="5.06" ry="4.74"/><ellipse class="cls-7" cx="1976.76" cy="115.9" rx="6.32" ry="4.74"/><ellipse class="cls-7" cx="1974.24" cy="107.61" rx="6.32" ry="5.92"/><ellipse class="cls-7" cx="1921.14" cy="107.61" rx="8.62" ry="6.08" transform="translate(310.23 1159.9) rotate(-36.36)"/><ellipse class="cls-7" cx="1928.73" cy="109.97" rx="6.32" ry="5.92"/><ellipse class="cls-7" cx="1979.29" cy="109.97" rx="8.85" ry="3.55"/><ellipse class="cls-7" cx="1986.88" cy="114.71" rx="6.32" ry="3.55"/><ellipse class="cls-7" cx="1990.67" cy="112.34" rx="5.06" ry="10.66"/><ellipse class="cls-7" cx="1998.25" cy="112.34" rx="10.11" ry="5.92"/><ellipse class="cls-7" cx="2003.31" cy="105.24" rx="5.06" ry="10.66"/><ellipse class="cls-7" cx="1995.73" cy="102.87" rx="10.11" ry="8.29"/><ellipse class="cls-7" cx="2009.63" cy="102.87" rx="11.38" ry="8.29"/><ellipse class="cls-7" cx="1914.82" cy="107.61" rx="5.06" ry="5.92"/><path class="cls-8" d="M1983.7,85.69h-64c-11.73,0-23.1,11.73-23.1,0l1.78-14.21c3.55-12.44,8.88-16,21.32-21.32l32-7.11,32,7.11c12.44,3.55,19.54,12.44,19.54,24.87V85.69C2003.24,97.42,1995.43,85.69,1983.7,85.69Z"/><path class="cls-9" d="M2006.8,108.79c-7.22,3.09-12.09,5.33-53.3,5.33s-63.88-24.92-56.86-28.43c3.56-1.77,75.65-17.76,111.93,1.78C2031.67,99.91,2019.23,103.46,2006.8,108.79Z"/><ellipse class="cls-9" cx="1951.72" cy="42.16" rx="5.33" ry="2.66"/><path class="cls-16" d="M1985.25,231.31C2021,211.84,2040,286,2069,336"/><path class="cls-11" d="M1986.41,380.62h-64.05c-12.19,0-12.36-5.43-12.36-17.62l-9.8-120.12a22.22,22.22,0,0,1,22.16-22.16h64.05a22.22,22.22,0,0,1,22.16,22.16L2017,357C2017,369.19,1998.6,380.62,1986.41,380.62Z"/><rect class="cls-12" x="1911.2" y="341.64" width="108.38" height="45.3" rx="2.3" ry="2.3"/><path class="cls-13" d="M1915.7,371c6.62,6.68,15.46,8.65,19.75,4.4s2.42-13.12-4.2-19.8"/><path class="cls-13" d="M2000.48,355.77c-6.15,7.11-7.42,16.08-2.85,20s13.26,1.39,19.41-5.73"/><rect class="cls-12" x="1911.2" y="382.39" width="44.42" height="191.88"/><rect class="cls-12" x="1973.38" y="382.39" width="46.19" height="191.88"/><path class="cls-14" d="M1958.49,593.81l-57.17,5.3c-7.09.69-13.51-5.14-14.27-13l-.12-1.24c-.76-7.81,4.42-14.76,11.5-15.45l58.22-3.69"/><path class="cls-14" d="M1973.19,599.63l57.41,1.15c7.12.17,13.1-6.11,13.29-13.95l0-1.25c.2-7.84-5.47-14.41-12.59-14.58l-58.33.54"/><path class="cls-16" d="M1911,229c-43.53-15.1-69,98,27,121"/><ellipse class="cls-1" cx="1947.22" cy="355.86" rx="10.36" ry="16.8" transform="matrix(0.55, -0.84, 0.84, 0.55, 586.35, 1793.34)"/><ellipse class="cls-1" cx="2074.02" cy="347.07" rx="10.36" ry="16.8" transform="translate(34.98 861.21) rotate(-23.65)"/><path class="cls-1" d="M2257.48,226.05h49.75V197.62h-49.75v28.43Z"/><path class="cls-15" d="M2307,202.28c-8.65.42-17.08,2.45-25.7,2.6-4.05.07-7.94.91-12,.21s-8-2.45-11.74-4.11c.58.26-.64,4.72,0,5a53.31,53.31,0,0,0,11.74,4.11c4.06.72,7.93-.14,12-.21,8.62-.15,17-2.18,25.7-2.6.11,0-.05-5,0-5Z"/><path class="cls-1" d="M2227.28,130.09c0,43.66,11.5,78.19,54.18,78.19S2341,173.75,2341,130.09s-16.83-79.93-59.52-79.93S2227.28,86.43,2227.28,130.09Z"/><path class="cls-2" d="M2259.26,174.53c0,4.41,11.13,12.43,24.87,12.43s24.87-8,24.87-12.43-11.13-3.56-24.87-3.56S2259.26,170.11,2259.26,174.53Z"/><path class="cls-3" d="M2280.58,162.09c21.32,1.78,3.55-12.44,5.33-30.2"/><ellipse class="cls-4" cx="2306.34" cy="126.56" rx="4.44" ry="5.33"/><circle class="cls-5" cx="2305.45" cy="128.33" r="0.89"/><ellipse class="cls-4" cx="2261.92" cy="126.56" rx="4.44" ry="5.33"/><circle class="cls-5" cx="2261.03" cy="128.33" r="0.89"/><path class="cls-6" d="M2300.85,117.46c.3-.94,9.49-3.54,18.6,3"/><path class="cls-6" d="M2268.32,119.58c-.26-.94-9.35-3.88-18.7,2.36"/><ellipse class="cls-7" cx="2332.41" cy="98.13" rx="6.08" ry="8.62" transform="translate(870.61 1918.27) rotate(-53.64)"/><ellipse class="cls-7" cx="2314.71" cy="91.02" rx="11.38" ry="10.66"/><ellipse class="cls-7" cx="2336.2" cy="107.61" rx="10.11" ry="5.92"/><ellipse class="cls-7" cx="2322.29" cy="96.95" rx="11.38" ry="11.84"/><ellipse class="cls-7" cx="2304.59" cy="102.87" rx="6.04" ry="8.68" transform="translate(1053.71 2041.17) rotate(-59.72)"/><ellipse class="cls-7" cx="2297.01" cy="102.87" rx="6.32" ry="5.92"/><ellipse class="cls-7" cx="2298.27" cy="111.16" rx="5.06" ry="7.11"/><ellipse class="cls-7" cx="2291.95" cy="105.24" rx="5.95" ry="8.81" transform="translate(1631.03 2302.35) rotate(-75.89)"/><ellipse class="cls-7" cx="2286.9" cy="112.34" rx="3.79" ry="5.92"/><ellipse class="cls-7" cx="2289.42" cy="114.71" rx="13.91" ry="3.55"/><ellipse class="cls-7" cx="2275.52" cy="107.61" rx="8.84" ry="7.12" transform="translate(3.18 269) rotate(-6.77)"/><ellipse class="cls-7" cx="2280.58" cy="117.08" rx="2.53" ry="3.55"/><ellipse class="cls-7" cx="2274.25" cy="117.08" rx="6.32" ry="3.55"/><ellipse class="cls-7" cx="2265.41" cy="112.34" rx="5.06" ry="3.55"/><ellipse class="cls-7" cx="2267.93" cy="115.9" rx="5.06" ry="4.74"/><ellipse class="cls-7" cx="2259.08" cy="115.9" rx="6.32" ry="4.74"/><ellipse class="cls-7" cx="2261.61" cy="107.61" rx="6.32" ry="5.92"/><ellipse class="cls-7" cx="2314.71" cy="107.61" rx="6.08" ry="8.62" transform="translate(855.77 1907.87) rotate(-53.64)"/><ellipse class="cls-7" cx="2307.12" cy="109.97" rx="6.32" ry="5.92"/><ellipse class="cls-7" cx="2256.56" cy="109.97" rx="8.85" ry="3.55"/><ellipse class="cls-7" cx="2248.97" cy="114.71" rx="6.32" ry="3.55"/><ellipse class="cls-7" cx="2245.18" cy="112.34" rx="5.06" ry="10.66"/><ellipse class="cls-7" cx="2237.59" cy="112.34" rx="10.11" ry="5.92"/><ellipse class="cls-7" cx="2232.54" cy="105.24" rx="5.06" ry="10.66"/><ellipse class="cls-7" cx="2240.12" cy="102.87" rx="10.11" ry="8.29"/><ellipse class="cls-7" cx="2226.22" cy="102.87" rx="11.38" ry="8.29"/><ellipse class="cls-7" cx="2321.03" cy="107.61" rx="5.06" ry="5.92"/><path class="cls-8" d="M2252.15,85.69h64c11.72,0,23.1,11.73,23.1,0l-1.78-14.21c-3.55-12.44-8.88-16-21.32-21.32l-32-7.11-32,7.11c-12.44,3.55-19.54,12.44-19.54,24.87V85.69C2232.61,97.42,2240.42,85.69,2252.15,85.69Z"/><path class="cls-9" d="M2229.05,108.79c7.22,3.09,12.09,5.33,53.3,5.33s63.88-24.92,56.86-28.43c-3.56-1.77-75.65-17.76-111.93,1.78C2204.18,99.91,2216.62,103.46,2229.05,108.79Z"/><ellipse class="cls-9" cx="2284.13" cy="42.16" rx="5.33" ry="2.66"/><path class="cls-16" d="M2315.22,235.82c44.19-14.87,43.52,83.58,25.63,117.18"/><path class="cls-16" d="M2250.6,231.31c-35.76-19.47-39.75,89.69-39.75,128.69"/><rect class="cls-11" x="2227.28" y="220.72" width="108.38" height="159.9" rx="22.16" ry="22.16" transform="translate(4562.93 601.34) rotate(-180)"/><rect class="cls-12" x="2227.28" y="340.64" width="108.38" height="45.3" rx="2.3" ry="2.3" transform="translate(4562.93 726.59) rotate(-180)"/><path class="cls-13" d="M2336.15,371c-6.62,6.68-15.46,8.65-19.75,4.4s-2.42-13.12,4.19-19.8"/><path class="cls-13" d="M2243.37,355.77c6.15,7.11,7.42,16.08,2.85,20s-13.26,1.39-19.41-5.73"/><rect class="cls-12" x="2291.24" y="382.39" width="44.42" height="191.88" transform="translate(4626.89 956.67) rotate(-180)"/><rect class="cls-12" x="2227.28" y="382.39" width="46.19" height="191.88" transform="translate(4500.74 956.67) rotate(-180)"/><path class="cls-14" d="M2289.36,593.81l57.17,5.3c7.09.69,13.51-5.14,14.27-13l.12-1.24c.76-7.81-4.42-14.76-11.51-15.45l-58.21-3.69"/><path class="cls-14" d="M2273.28,599.35l-57.41,1.15c-7.12.17-13.1-6.11-13.3-14l0-1.24c-.19-7.85,5.48-14.41,12.6-14.59l58.33.55"/><ellipse class="cls-1" cx="2336.63" cy="363.86" rx="16.8" ry="10.36" transform="translate(1035.16 2338.3) rotate(-65.46)"/><ellipse class="cls-1" cx="2207.82" cy="371.07" rx="16.8" ry="10.36" transform="translate(1250.54 2394.88) rotate(-74.23)"/></g></svg>
