<svg xmlns="http://www.w3.org/2000/svg" width="3305" height="699" viewBox="0 0 3305 699"><defs><style>.cls-1{fill:#efc39c;}.cls-11,.cls-12,.cls-2,.cls-3,.cls-5,.cls-7,.cls-9{fill:none;}.cls-2,.cls-3{stroke:red;}.cls-2{stroke-linecap:round;}.cls-11,.cls-12,.cls-2,.cls-3,.cls-5,.cls-7{stroke-miterlimit:10;}.cls-11,.cls-12,.cls-2,.cls-3{stroke-width:10px;}.cls-4{fill:#9b8f8f;}.cls-5,.cls-7{stroke:#000;}.cls-5{stroke-width:3px;}.cls-6{fill:#964e18;}.cls-8{fill:#fff;}.cls-10{fill:#e82121;}.cls-11{stroke:#e82121;}.cls-12{stroke:#ff0013;}</style></defs><title>danse</title><g id="dreng"><path class="cls-1" d="M2799,413.81c-.66-2.74-7.55-4.48-15.38-3.89s-13.66,3.29-13,6,5.76,4.48,13.59,3.89,15.45-3.28,14.79-6"/><line class="cls-2" x1="2588.1" y1="387" x2="2670.43" y2="422"/><line class="cls-2" x1="2672.22" y1="422" x2="2759.91" y2="416"/><line class="cls-3" x1="2759.79" y1="416.37" x2="2784.77" y2="414.88"/><path class="cls-1" d="M1730,417.81c.55-2.74,6.23-4.48,12.69-3.89s11.27,3.29,10.73,6-4.75,4.48-11.22,3.89-12.74-3.28-12.2-6"/><line class="cls-2" x1="1904" y1="391" x2="1836.08" y2="426"/><line class="cls-2" x1="1834.6" y1="426" x2="1762.25" y2="420"/><line class="cls-3" x1="1762.35" y1="420.37" x2="1741.74" y2="418.88"/><polygon points="216.82 585.75 203.87 584.72 211.1 494 227.05 495.28 216.82 585.75"/><path class="cls-1" d="M391,251c0,74-64.64,109-145,109S100,325,100,251s65.14-134,145.5-134S391,177,391,251Z"/><rect x="270.18" y="494.19" width="16" height="91" transform="translate(16.77 -8.32) rotate(1.77)"/><rect class="cls-4" x="191.39" y="584.62" width="22" height="12" rx="6" ry="6" transform="translate(357.18 1195.46) rotate(-175.44)"/><rect class="cls-4" x="208.36" y="585.41" width="8" height="12" transform="translate(377.03 1197.84) rotate(-175.44)"/><rect class="cls-4" x="256.6" y="584.89" width="22" height="12" rx="6" ry="6" transform="translate(516.85 1189.74) rotate(-178.23)"/><rect class="cls-4" x="273.59" y="585.24" width="11" height="12" transform="translate(539.82 1190.81) rotate(-178.23)"/><path class="cls-5" d="M156.5,229.5c-3.86,7.54,36.37-59.85,80-3"/><path class="cls-5" d="M302.24,282.1c3.87-7.54-36.37,59.85-80,3"/><path class="cls-5" d="M282.5,227.5c-3.86,7.54,36.37-59.85,80-3"/><ellipse class="cls-6" cx="159.5" cy="157" rx="20.5" ry="10"/><ellipse class="cls-6" cx="173.5" cy="137" rx="20.5" ry="10"/><ellipse class="cls-6" cx="169.5" cy="147" rx="20.5" ry="10"/><ellipse class="cls-6" cx="152.5" cy="140" rx="20.5" ry="10"/><ellipse class="cls-6" cx="138.5" cy="154" rx="20.5" ry="10"/><ellipse class="cls-6" cx="131.5" cy="165" rx="20.5" ry="10"/><ellipse class="cls-6" cx="131.5" cy="176" rx="20.5" ry="10"/><ellipse class="cls-6" cx="156.5" cy="172" rx="20.5" ry="10"/><ellipse class="cls-6" cx="181.5" cy="166" rx="20.5" ry="10"/><ellipse class="cls-6" cx="156.5" cy="132" rx="20.5" ry="10"/><ellipse class="cls-6" cx="180.5" cy="154" rx="20.5" ry="10"/><ellipse class="cls-6" cx="194.5" cy="142" rx="20.5" ry="10"/><path class="cls-7" d="M379,166c0,3.59-1.57,6.5-3.5,6.5"/><ellipse class="cls-6" cx="201.5" cy="127" rx="20.5" ry="10"/><ellipse class="cls-6" cx="221.5" cy="120" rx="20.5" ry="10"/><ellipse class="cls-6" cx="228.5" cy="110" rx="20.5" ry="10"/><ellipse class="cls-6" cx="257.5" cy="112" rx="20.5" ry="10"/><ellipse class="cls-6" cx="250.5" cy="127" rx="20.5" ry="10"/><ellipse class="cls-6" cx="197.5" cy="117" rx="20.5" ry="10"/><ellipse class="cls-6" cx="176.5" cy="122" rx="20.5" ry="10"/><ellipse class="cls-6" cx="225.5" cy="137" rx="20.5" ry="10"/><ellipse class="cls-6" cx="217.5" cy="150" rx="20.5" ry="10"/><ellipse class="cls-6" cx="204.5" cy="160" rx="20.5" ry="10"/><ellipse class="cls-6" cx="269.5" cy="165" rx="20.5" ry="10"/><ellipse class="cls-6" cx="249.5" cy="147" rx="20.5" ry="10"/><ellipse class="cls-6" cx="280.5" cy="117" rx="20.5" ry="10"/><ellipse class="cls-6" cx="301.5" cy="127" rx="20.5" ry="10"/><ellipse class="cls-6" cx="274.5" cy="134" rx="20.5" ry="10"/><ellipse class="cls-6" cx="303.5" cy="137" rx="20.5" ry="10"/><ellipse class="cls-6" cx="274.5" cy="150" rx="20.5" ry="10"/><ellipse class="cls-6" cx="257.5" cy="130" rx="20.5" ry="10"/><ellipse class="cls-6" cx="304.5" cy="147" rx="20.5" ry="10"/><ellipse class="cls-6" cx="332.5" cy="134" rx="20.5" ry="10"/><ellipse class="cls-6" cx="379.5" cy="162" rx="20.5" ry="10"/><ellipse class="cls-6" cx="332.5" cy="147" rx="20.5" ry="10"/><ellipse class="cls-6" cx="353.5" cy="147" rx="20.5" ry="10"/><ellipse class="cls-6" cx="305.5" cy="147" rx="20.5" ry="10"/><ellipse class="cls-6" cx="235.5" cy="160" rx="20.5" ry="10"/><ellipse class="cls-6" cx="333.5" cy="164" rx="20.5" ry="10"/><ellipse class="cls-6" cx="321.5" cy="162" rx="20.5" ry="10"/><ellipse class="cls-6" cx="305.5" cy="164" rx="20.5" ry="10"/><ellipse class="cls-6" cx="290.5" cy="165" rx="20.5" ry="10"/><ellipse class="cls-6" cx="274.5" cy="162" rx="20.5" ry="10"/><ellipse class="cls-6" cx="240.5" cy="160" rx="20.5" ry="10"/><ellipse class="cls-6" cx="368.5" cy="160" rx="20.5" ry="10"/><ellipse class="cls-6" cx="371.5" cy="157" rx="20.5" ry="10"/><ellipse class="cls-6" cx="373.5" cy="172" rx="20.5" ry="10"/><ellipse class="cls-6" cx="262.5" cy="152" rx="20.5" ry="10"/><ellipse class="cls-6" cx="356.5" cy="165" rx="20.5" ry="10"/><ellipse class="cls-6" cx="353.5" cy="162" rx="20.5" ry="10"/><path class="cls-7" d="M379,166c0,3.59-1.57,6.5-3.5,6.5"/><path class="cls-7" d="M353.14,157.22c3.21,1.62,5.09,4.33,4.22,6.06"/><path class="cls-7" d="M341,157c0,3.59-1.57,6.5-3.5,6.5"/><path class="cls-7" d="M314,154c0,3.59-1.57,6.5-3.5,6.5"/><path class="cls-7" d="M279.76,158.46c2.43-2.65,5.56-3.73,7-2.42"/><path class="cls-7" d="M276,130c0,3.59-1.57,6.5-3.5,6.5"/><path class="cls-7" d="M242.15,154.25c1.73-3.14,4.5-4.94,6.2-4"/><path class="cls-7" d="M225.4,143.59c0,.21,4.37.38,9.77.38"/><path class="cls-7" d="M177,140c0,3.59-1.57,6.5-3.5,6.5"/><path class="cls-7" d="M156,162c0,3.59-1.57,6.5-3.5,6.5"/><path class="cls-7" d="M206,151c0,3.59-1.57,6.5-3.5,6.5"/><path class="cls-7" d="M212,123c0,3.59-1.57,6.5-3.5,6.5"/><path class="cls-7" d="M241.63,123.52c3.44-1,6.68-.39,7.24,1.46"/><path class="cls-8" d="M312.46,495H176.2a3.83,3.83,0,0,1-1.37-1.16c-3.27-4.63,8-13.77,7-23.84-.61-6.09-5.45-10-7-11.51-7.42-7.35-11.84-32.33,0-107.85a1.43,1.43,0,0,1,.55-.93,1.61,1.61,0,0,1,1.21-.19c39.78,9.73,123.39,1.8,135.71.56a1.31,1.31,0,0,1,1.53,1.15c-9,34.47-5.41,57.94,0,73.38,3.75,10.72,14.48,35,7,46.39-1.19,1.82-4,9-7,18.19-.62,1.89,0,3.81,0,4.65C313.83,494,313.83,495,312.46,495Z"/><path class="cls-9" d="M182,472.26H165v-8.11h15a13.85,13.85,0,0,1,2,5.85A12.2,12.2,0,0,1,182,472.26Z"/><path class="cls-9" d="M168.13,436.36H165V425.94h2.69C167.73,429.81,167.88,433.27,168.13,436.36Z"/><path class="cls-9" d="M326,464.15v8.11h-5.65A11.76,11.76,0,0,1,321,471a16.22,16.22,0,0,0,2.35-6.85Z"/><path class="cls-9" d="M172.41,454.89H165v-9.27h4.37A34.11,34.11,0,0,0,172.41,454.89Z"/><path class="cls-9" d="M326,425.94v10.42h-7.68c-1.39-4-2.78-7.56-3.81-10.42Z"/><path class="cls-9" d="M168.35,406.25c-.25,3.71-.42,7.18-.53,10.42H165V406.25Z"/><path class="cls-9" d="M326,445.62v9.27h-2.81a73.3,73.3,0,0,0-2-9.27Z"/><path class="cls-9" d="M179,481.52c-1.85,3.57-3.95,6.74-4.45,9.27H165v-9.27Z"/><path class="cls-9" d="M326,481.52v9.27H313.74a5.35,5.35,0,0,1,.26-1.6c.9-2.77,1.79-5.35,2.62-7.67Z"/><path class="cls-9" d="M326,365.72v10.42H309.33c.36-3.34.85-6.81,1.49-10.42Z"/><path class="cls-9" d="M326,406.25v10.42H311.62a98.73,98.73,0,0,1-2-10.42Z"/><path class="cls-9" d="M326,500.05v5.6a1.48,1.48,0,0,1-1.59,1.35H166.59a1.48,1.48,0,0,1-1.59-1.35v-5.6Z"/><path class="cls-9" d="M326,385.4V397H308.69q-.3-5.46-.07-11.59Z"/><path class="cls-9" d="M170.25,385.4c-.45,4.08-.84,7.93-1.17,11.59H165V385.4Z"/><path class="cls-9" d="M172.76,365.72c-.51,3.6-1,7.08-1.4,10.42H165V365.72Z"/><path class="cls-9" d="M326,340.51v15.94H312.72c.4-1.71.82-3.45,1.28-5.22a1.31,1.31,0,0,0-1.53-1.15c-12.32,1.24-95.93,9.17-135.7-.56a1.62,1.62,0,0,0-1.22.19,1.43,1.43,0,0,0-.55.93q-.47,3-.89,5.81H165V339.82a1.56,1.56,0,0,1,2-1.29c46.07,11.26,142.89,2.08,157.16.64A1.52,1.52,0,0,1,326,340.51Z"/><path class="cls-10" d="M174.11,356.45c-.48,3.19-.93,6.27-1.35,9.27H310.82q.8-4.49,1.9-9.27Z"/><path class="cls-10" d="M170.25,385.4H308.62c.13-3,.36-6,.71-9.26h-138Q170.76,380.94,170.25,385.4Z"/><path class="cls-10" d="M167.69,425.94H314.48c-.17-.46-.33-.91-.48-1.33-.85-2.44-1.66-5.09-2.38-7.94H167.82Q167.66,421.65,167.69,425.94Z"/><path class="cls-10" d="M169.37,445.62H321.21c-.87-3.18-1.89-6.32-2.92-9.26H168.13A78.63,78.63,0,0,0,169.37,445.62Z"/><path class="cls-10" d="M175,458.49a27.57,27.57,0,0,1,5,5.66H323.35a34.93,34.93,0,0,0-.19-9.26H172.41A14.65,14.65,0,0,0,175,458.49Z"/><path class="cls-10" d="M179,481.52H316.62c1.49-4.15,2.8-7.41,3.7-9.26H182A23.93,23.93,0,0,1,179,481.52Z"/><path class="cls-10" d="M175,493.84a3.83,3.83,0,0,0,1.37,1.16H312.63c1.37,0,1.37-1,1.37-1.16a27.78,27.78,0,0,1-.26-3H174.52A3.79,3.79,0,0,0,175,493.84Z"/><path class="cls-10" d="M168.35,406.25H309.58c-.41-2.92-.72-6-.89-9.26H169.08Q168.65,401.85,168.35,406.25Z"/><path class="cls-1" d="M84.83,358.63c-.56,2.71-4.53,4.17-8.85,3.26s-7.38-3.82-6.81-6.52,4.53-4.17,8.85-3.26,7.38,3.82,6.81,6.52"/><line class="cls-11" x1="172" y1="379" x2="77" y2="357"/><path class="cls-1" d="M186.18,415.81c.37-2.74,4.22-4.48,8.6-3.89s7.63,3.29,7.26,6-3.22,4.48-7.6,3.89-8.63-3.28-8.26-6"/><line class="cls-2" x1="304" y1="389" x2="258" y2="424"/><line class="cls-2" x1="257" y1="424" x2="208" y2="418"/><line class="cls-3" x1="208.07" y1="418.37" x2="194.11" y2="416.88"/><polygon points="1816.83 587.75 1803.87 586.72 1811.1 496 1827.05 497.28 1816.83 587.75"/><path class="cls-1" d="M1991,253c0,74-64.64,109-145,109s-146-35-146-109,65.14-134,145.5-134S1991,179,1991,253Z"/><rect x="1870.18" y="496.19" width="16" height="91" transform="translate(17.6 -57.66) rotate(1.77)"/><rect class="cls-4" x="1791.39" y="586.62" width="22" height="12" rx="6" ry="6" transform="translate(3551.96 1326.66) rotate(-175.44)"/><rect class="cls-4" x="1808.36" y="587.41" width="8" height="12" transform="translate(3571.8 1329.04) rotate(-175.44)"/><rect class="cls-4" x="1856.6" y="586.89" width="22" height="12" rx="6" ry="6" transform="translate(3716.03 1243.08) rotate(-178.23)"/><rect class="cls-4" x="1873.59" y="587.24" width="11" height="12" transform="translate(3739 1244.14) rotate(-178.23)"/><path class="cls-5" d="M1756.5,231.5c-3.86,7.54,36.37-59.85,80-3"/><path class="cls-5" d="M1902.24,284.1c3.87-7.54-36.37,59.85-80,3"/><path class="cls-5" d="M1882.5,229.5c-3.86,7.54,36.37-59.85,80-3"/><ellipse class="cls-6" cx="1759.5" cy="159" rx="20.5" ry="10"/><ellipse class="cls-6" cx="1773.5" cy="139" rx="20.5" ry="10"/><ellipse class="cls-6" cx="1769.5" cy="149" rx="20.5" ry="10"/><ellipse class="cls-6" cx="1752.5" cy="142" rx="20.5" ry="10"/><ellipse class="cls-6" cx="1738.5" cy="156" rx="20.5" ry="10"/><ellipse class="cls-6" cx="1731.5" cy="167" rx="20.5" ry="10"/><ellipse class="cls-6" cx="1731.5" cy="178" rx="20.5" ry="10"/><ellipse class="cls-6" cx="1756.5" cy="174" rx="20.5" ry="10"/><ellipse class="cls-6" cx="1781.5" cy="168" rx="20.5" ry="10"/><ellipse class="cls-6" cx="1756.5" cy="134" rx="20.5" ry="10"/><ellipse class="cls-6" cx="1780.5" cy="156" rx="20.5" ry="10"/><ellipse class="cls-6" cx="1794.5" cy="144" rx="20.5" ry="10"/><path class="cls-7" d="M1979,168c0,3.59-1.57,6.5-3.5,6.5"/><ellipse class="cls-6" cx="1801.5" cy="129" rx="20.5" ry="10"/><ellipse class="cls-6" cx="1821.5" cy="122" rx="20.5" ry="10"/><ellipse class="cls-6" cx="1828.5" cy="112" rx="20.5" ry="10"/><ellipse class="cls-6" cx="1857.5" cy="114" rx="20.5" ry="10"/><ellipse class="cls-6" cx="1850.5" cy="129" rx="20.5" ry="10"/><ellipse class="cls-6" cx="1797.5" cy="119" rx="20.5" ry="10"/><ellipse class="cls-6" cx="1776.5" cy="124" rx="20.5" ry="10"/><ellipse class="cls-6" cx="1825.5" cy="139" rx="20.5" ry="10"/><ellipse class="cls-6" cx="1817.5" cy="152" rx="20.5" ry="10"/><ellipse class="cls-6" cx="1804.5" cy="162" rx="20.5" ry="10"/><ellipse class="cls-6" cx="1869.5" cy="167" rx="20.5" ry="10"/><ellipse class="cls-6" cx="1849.5" cy="149" rx="20.5" ry="10"/><ellipse class="cls-6" cx="1880.5" cy="119" rx="20.5" ry="10"/><ellipse class="cls-6" cx="1901.5" cy="129" rx="20.5" ry="10"/><ellipse class="cls-6" cx="1874.5" cy="136" rx="20.5" ry="10"/><ellipse class="cls-6" cx="1903.5" cy="139" rx="20.5" ry="10"/><ellipse class="cls-6" cx="1874.5" cy="152" rx="20.5" ry="10"/><ellipse class="cls-6" cx="1857.5" cy="132" rx="20.5" ry="10"/><ellipse class="cls-6" cx="1904.5" cy="149" rx="20.5" ry="10"/><ellipse class="cls-6" cx="1932.5" cy="136" rx="20.5" ry="10"/><ellipse class="cls-6" cx="1979.5" cy="164" rx="20.5" ry="10"/><ellipse class="cls-6" cx="1932.5" cy="149" rx="20.5" ry="10"/><ellipse class="cls-6" cx="1953.5" cy="149" rx="20.5" ry="10"/><ellipse class="cls-6" cx="1905.5" cy="149" rx="20.5" ry="10"/><ellipse class="cls-6" cx="1835.5" cy="162" rx="20.5" ry="10"/><ellipse class="cls-6" cx="1933.5" cy="166" rx="20.5" ry="10"/><ellipse class="cls-6" cx="1921.5" cy="164" rx="20.5" ry="10"/><ellipse class="cls-6" cx="1905.5" cy="166" rx="20.5" ry="10"/><ellipse class="cls-6" cx="1890.5" cy="167" rx="20.5" ry="10"/><ellipse class="cls-6" cx="1874.5" cy="164" rx="20.5" ry="10"/><ellipse class="cls-6" cx="1840.5" cy="162" rx="20.5" ry="10"/><ellipse class="cls-6" cx="1968.5" cy="162" rx="20.5" ry="10"/><ellipse class="cls-6" cx="1971.5" cy="159" rx="20.5" ry="10"/><ellipse class="cls-6" cx="1973.5" cy="174" rx="20.5" ry="10"/><ellipse class="cls-6" cx="1862.5" cy="154" rx="20.5" ry="10"/><ellipse class="cls-6" cx="1956.5" cy="167" rx="20.5" ry="10"/><ellipse class="cls-6" cx="1953.5" cy="164" rx="20.5" ry="10"/><path class="cls-7" d="M1979,168c0,3.59-1.57,6.5-3.5,6.5"/><path class="cls-7" d="M1953.14,159.22c3.21,1.62,5.09,4.33,4.22,6.06"/><path class="cls-7" d="M1941,159c0,3.59-1.57,6.5-3.5,6.5"/><path class="cls-7" d="M1914,156c0,3.59-1.57,6.5-3.5,6.5"/><path class="cls-7" d="M1879.76,160.46c2.43-2.65,5.56-3.73,7-2.42"/><path class="cls-7" d="M1876,132c0,3.59-1.57,6.5-3.5,6.5"/><path class="cls-7" d="M1842.15,156.25c1.73-3.14,4.5-4.94,6.2-4"/><path class="cls-7" d="M1825.4,145.59c0,.21,4.37.38,9.77.38"/><path class="cls-7" d="M1777,142c0,3.59-1.57,6.5-3.5,6.5"/><path class="cls-7" d="M1756,164c0,3.59-1.57,6.5-3.5,6.5"/><path class="cls-7" d="M1806,153c0,3.59-1.57,6.5-3.5,6.5"/><path class="cls-7" d="M1812,125c0,3.59-1.57,6.5-3.5,6.5"/><path class="cls-7" d="M1841.63,125.52c3.44-1,6.68-.39,7.24,1.46"/><path class="cls-8" d="M1912.46,497H1776.2a3.83,3.83,0,0,1-1.37-1.16c-3.27-4.63,8-13.77,7-23.84-.61-6.09-5.45-10-7-11.51-7.42-7.35-11.84-32.33,0-107.85a1.43,1.43,0,0,1,.55-.93,1.61,1.61,0,0,1,1.21-.19c39.78,9.73,123.39,1.8,135.71.56a1.31,1.31,0,0,1,1.53,1.15c-9,34.47-5.41,57.94,0,73.38,3.75,10.72,14.48,35,7,46.39-1.19,1.82-4,9-7,18.19-.62,1.89,0,3.81,0,4.65C1913.83,496,1913.83,497,1912.46,497Z"/><path class="cls-9" d="M1782,474.26h-17v-8.11h15a13.85,13.85,0,0,1,2,5.85A12.2,12.2,0,0,1,1782,474.26Z"/><path class="cls-9" d="M1768.13,438.36H1765V427.94h2.69C1767.73,431.81,1767.88,435.27,1768.13,438.36Z"/><path class="cls-9" d="M1926,466.15v8.11h-5.65A11.76,11.76,0,0,1,1921,473a16.22,16.22,0,0,0,2.35-6.85Z"/><path class="cls-9" d="M1772.41,456.89H1765v-9.27h4.37A34.11,34.11,0,0,0,1772.41,456.89Z"/><path class="cls-9" d="M1926,427.94v10.42h-7.68c-1.39-4-2.78-7.56-3.81-10.42Z"/><path class="cls-9" d="M1768.35,408.25c-.25,3.71-.42,7.18-.53,10.42H1765V408.25Z"/><path class="cls-9" d="M1926,447.62v9.27h-2.81a73.3,73.3,0,0,0-2-9.27Z"/><path class="cls-9" d="M1779,483.52c-1.85,3.57-4,6.74-4.45,9.27H1765v-9.27Z"/><path class="cls-9" d="M1926,483.52v9.27h-12.23a5.35,5.35,0,0,1,.26-1.6c.9-2.77,1.79-5.35,2.62-7.67Z"/><path class="cls-9" d="M1926,367.72v10.42h-16.64c.36-3.34.85-6.81,1.49-10.42Z"/><path class="cls-9" d="M1926,408.25v10.42h-14.35a98.73,98.73,0,0,1-2-10.42Z"/><path class="cls-9" d="M1926,502.05v5.6a1.48,1.48,0,0,1-1.59,1.35H1766.59a1.48,1.48,0,0,1-1.59-1.35v-5.6Z"/><path class="cls-9" d="M1926,387.4V399h-17.28q-.3-5.46-.07-11.59Z"/><path class="cls-9" d="M1770.25,387.4c-.45,4.08-.84,7.93-1.17,11.59H1765V387.4Z"/><path class="cls-9" d="M1772.76,367.72c-.51,3.6-1,7.08-1.4,10.42H1765V367.72Z"/><path class="cls-9" d="M1926,342.51v15.94h-13.25c.4-1.71.82-3.45,1.28-5.22a1.31,1.31,0,0,0-1.53-1.15c-12.32,1.24-95.93,9.17-135.7-.56a1.62,1.62,0,0,0-1.22.19,1.43,1.43,0,0,0-.55.93q-.46,3-.89,5.81H1765V341.82a1.56,1.56,0,0,1,2-1.29c46.07,11.26,142.89,2.08,157.16.64A1.52,1.52,0,0,1,1926,342.51Z"/><path class="cls-10" d="M1774.11,358.45c-.48,3.19-.93,6.27-1.35,9.27h138.06q.79-4.49,1.9-9.27Z"/><path class="cls-10" d="M1770.25,387.4h138.37c.13-3,.36-6,.71-9.26h-138Q1770.76,382.94,1770.25,387.4Z"/><path class="cls-10" d="M1767.69,427.94h146.79c-.17-.46-.33-.91-.48-1.33-.85-2.44-1.66-5.09-2.38-7.94h-143.8Q1767.66,423.65,1767.69,427.94Z"/><path class="cls-10" d="M1769.37,447.62h151.84c-.87-3.18-1.89-6.32-2.92-9.26H1768.13A78.63,78.63,0,0,0,1769.37,447.62Z"/><path class="cls-10" d="M1775,460.49a27.57,27.57,0,0,1,5,5.66h143.39a34.93,34.93,0,0,0-.19-9.26H1772.41A14.65,14.65,0,0,0,1775,460.49Z"/><path class="cls-10" d="M1779,483.52h137.65c1.49-4.15,2.8-7.41,3.7-9.26H1782A23.93,23.93,0,0,1,1779,483.52Z"/><path class="cls-10" d="M1775,495.84a3.83,3.83,0,0,0,1.37,1.16h136.26c1.37,0,1.37-1,1.37-1.16a27.78,27.78,0,0,1-.26-3H1774.52A3.79,3.79,0,0,0,1775,495.84Z"/><path class="cls-10" d="M1768.35,408.25h141.23c-.41-2.92-.72-6-.89-9.26H1769.08Q1768.65,403.85,1768.35,408.25Z"/><path class="cls-1" d="M1684.83,360.63c-.56,2.71-4.53,4.17-8.85,3.26s-7.38-3.82-6.81-6.52,4.53-4.17,8.85-3.26,7.38,3.82,6.81,6.52"/><line class="cls-11" x1="1772" y1="381" x2="1677" y2="359"/><polygon points="1075.28 585.75 1088.24 584.72 1081 494 1065.05 495.28 1075.28 585.75"/><path class="cls-1" d="M901.1,251c0,74,64.64,109,145,109s146-35,146-109S1127,117,1046.6,117,901.1,177,901.1,251Z"/><rect x="1005.92" y="494.19" width="16" height="91" transform="translate(2044 1047.85) rotate(178.23)"/><rect class="cls-4" x="1078.71" y="584.62" width="22" height="12" rx="6" ry="6" transform="translate(-43.51 88.51) rotate(-4.56)"/><rect class="cls-4" x="1075.74" y="585.41" width="8" height="12" transform="translate(-43.6 87.72) rotate(-4.56)"/><rect class="cls-4" x="1013.5" y="584.89" width="22" height="12" rx="6" ry="6" transform="translate(-17.73 31.87) rotate(-1.77)"/><rect class="cls-4" x="1007.51" y="585.24" width="11" height="12" transform="translate(-17.75 31.52) rotate(-1.77)"/><path class="cls-8" d="M982.47,495h136.26a3.83,3.83,0,0,0,1.37-1.16c3.27-4.63-8-13.77-7-23.84.61-6.09,5.45-10,7-11.51,7.42-7.35,11.84-32.33,0-107.85a1.43,1.43,0,0,0-.55-.93,1.61,1.61,0,0,0-1.21-.19c-39.78,9.73-123.39,1.8-135.71.56a1.31,1.31,0,0,0-1.53,1.15c9,34.47,5.41,57.94,0,73.38-3.75,10.72-14.48,35-7,46.39,1.19,1.82,4,9,7,18.19.62,1.89,0,3.81,0,4.65C981.1,494,981.1,495,982.47,495Z"/><path class="cls-5" d="M1135.6,229.5c3.86,7.54-36.37-59.85-80-3"/><path class="cls-5" d="M989.86,282.1c-3.86-7.54,36.37,59.85,80,3"/><path class="cls-5" d="M1009.6,227.5c3.86,7.54-36.37-59.85-80-3"/><ellipse class="cls-6" cx="1132.6" cy="157" rx="20.5" ry="10"/><ellipse class="cls-6" cx="1118.6" cy="137" rx="20.5" ry="10"/><ellipse class="cls-6" cx="1122.6" cy="147" rx="20.5" ry="10"/><ellipse class="cls-6" cx="1139.6" cy="140" rx="20.5" ry="10"/><ellipse class="cls-6" cx="1153.6" cy="154" rx="20.5" ry="10"/><ellipse class="cls-6" cx="1160.6" cy="165" rx="20.5" ry="10"/><ellipse class="cls-6" cx="1160.6" cy="176" rx="20.5" ry="10"/><ellipse class="cls-6" cx="1135.6" cy="172" rx="20.5" ry="10"/><ellipse class="cls-6" cx="1110.6" cy="166" rx="20.5" ry="10"/><ellipse class="cls-6" cx="1135.6" cy="132" rx="20.5" ry="10"/><ellipse class="cls-6" cx="1111.6" cy="154" rx="20.5" ry="10"/><ellipse class="cls-6" cx="1097.6" cy="142" rx="20.5" ry="10"/><path class="cls-7" d="M913.1,166c0,3.59,1.57,6.5,3.5,6.5"/><ellipse class="cls-6" cx="1090.6" cy="127" rx="20.5" ry="10"/><ellipse class="cls-6" cx="1070.6" cy="120" rx="20.5" ry="10"/><ellipse class="cls-6" cx="1063.6" cy="110" rx="20.5" ry="10"/><ellipse class="cls-6" cx="1034.6" cy="112" rx="20.5" ry="10"/><ellipse class="cls-6" cx="1041.6" cy="127" rx="20.5" ry="10"/><ellipse class="cls-6" cx="1094.6" cy="117" rx="20.5" ry="10"/><ellipse class="cls-6" cx="1115.6" cy="122" rx="20.5" ry="10"/><ellipse class="cls-6" cx="1066.6" cy="137" rx="20.5" ry="10"/><ellipse class="cls-6" cx="1074.6" cy="150" rx="20.5" ry="10"/><ellipse class="cls-6" cx="1087.6" cy="160" rx="20.5" ry="10"/><ellipse class="cls-6" cx="1022.6" cy="165" rx="20.5" ry="10"/><ellipse class="cls-6" cx="1042.6" cy="147" rx="20.5" ry="10"/><ellipse class="cls-6" cx="1011.6" cy="117" rx="20.5" ry="10"/><ellipse class="cls-6" cx="990.6" cy="127" rx="20.5" ry="10"/><ellipse class="cls-6" cx="1017.6" cy="134" rx="20.5" ry="10"/><ellipse class="cls-6" cx="988.6" cy="137" rx="20.5" ry="10"/><ellipse class="cls-6" cx="1017.6" cy="150" rx="20.5" ry="10"/><ellipse class="cls-6" cx="1034.6" cy="130" rx="20.5" ry="10"/><ellipse class="cls-6" cx="987.6" cy="147" rx="20.5" ry="10"/><ellipse class="cls-6" cx="959.6" cy="134" rx="20.5" ry="10"/><ellipse class="cls-6" cx="912.6" cy="162" rx="20.5" ry="10"/><ellipse class="cls-6" cx="959.6" cy="147" rx="20.5" ry="10"/><ellipse class="cls-6" cx="938.6" cy="147" rx="20.5" ry="10"/><ellipse class="cls-6" cx="986.6" cy="147" rx="20.5" ry="10"/><ellipse class="cls-6" cx="1056.6" cy="160" rx="20.5" ry="10"/><ellipse class="cls-6" cx="958.6" cy="164" rx="20.5" ry="10"/><ellipse class="cls-6" cx="970.6" cy="162" rx="20.5" ry="10"/><ellipse class="cls-6" cx="986.6" cy="164" rx="20.5" ry="10"/><ellipse class="cls-6" cx="1001.6" cy="165" rx="20.5" ry="10"/><ellipse class="cls-6" cx="1017.6" cy="162" rx="20.5" ry="10"/><ellipse class="cls-6" cx="1051.6" cy="160" rx="20.5" ry="10"/><ellipse class="cls-6" cx="923.6" cy="160" rx="20.5" ry="10"/><ellipse class="cls-6" cx="920.6" cy="157" rx="20.5" ry="10"/><ellipse class="cls-6" cx="918.6" cy="172" rx="20.5" ry="10"/><ellipse class="cls-6" cx="1029.6" cy="152" rx="20.5" ry="10"/><ellipse class="cls-6" cx="935.6" cy="165" rx="20.5" ry="10"/><ellipse class="cls-6" cx="938.6" cy="162" rx="20.5" ry="10"/><path class="cls-9" d="M1113,472.26h17v-8.11h-15a13.85,13.85,0,0,0-2,5.85A12.2,12.2,0,0,0,1113,472.26Z"/><path class="cls-9" d="M1126.84,436.36H1130V425.94h-2.69C1127.24,429.81,1127.09,433.27,1126.84,436.36Z"/><path class="cls-9" d="M969,464.15v8.11h5.65A11.76,11.76,0,0,0,974,471a16.22,16.22,0,0,1-2.35-6.85Z"/><path class="cls-9" d="M1122.56,454.89H1130v-9.27h-4.37A34.11,34.11,0,0,1,1122.56,454.89Z"/><path class="cls-9" d="M969,425.94v10.42h7.68c1.39-4,2.78-7.56,3.81-10.42Z"/><path class="cls-9" d="M1126.62,406.25c.25,3.71.42,7.18.53,10.42H1130V406.25Z"/><path class="cls-9" d="M969,445.62v9.27h2.81a73.3,73.3,0,0,1,2-9.27Z"/><path class="cls-9" d="M1116,481.52c1.85,3.57,4,6.74,4.45,9.27H1130v-9.27Z"/><path class="cls-9" d="M969,481.52v9.27h12.23a5.35,5.35,0,0,0-.26-1.6c-.9-2.77-1.79-5.35-2.62-7.67Z"/><path class="cls-9" d="M969,365.72v10.42h16.64c-.36-3.34-.85-6.81-1.49-10.42Z"/><path class="cls-9" d="M969,406.25v10.42h14.35a98.73,98.73,0,0,0,2-10.42Z"/><path class="cls-9" d="M969,500.05v5.6a1.48,1.48,0,0,0,1.59,1.35h157.79a1.48,1.48,0,0,0,1.59-1.35v-5.6Z"/><path class="cls-9" d="M969,385.4V397h17.28q.3-5.46.07-11.59Z"/><path class="cls-9" d="M1124.72,385.4c.45,4.08.84,7.93,1.17,11.59H1130V385.4Z"/><path class="cls-9" d="M1122.21,365.72c.51,3.6,1,7.08,1.4,10.42H1130V365.72Z"/><path class="cls-9" d="M969,340.51v15.94h13.25c-.4-1.71-.82-3.45-1.28-5.22a1.31,1.31,0,0,1,1.53-1.15c12.32,1.24,95.93,9.17,135.7-.56a1.62,1.62,0,0,1,1.22.19,1.43,1.43,0,0,1,.55.93q.46,3,.89,5.81H1130V339.82a1.56,1.56,0,0,0-2-1.29c-46.07,11.26-142.89,2.08-157.16.64A1.52,1.52,0,0,0,969,340.51Z"/><path class="cls-10" d="M1120.86,356.45c.48,3.19.93,6.27,1.35,9.27H984.15q-.79-4.49-1.9-9.27Z"/><path class="cls-10" d="M1124.72,385.4H986.35c-.13-3-.36-6-.71-9.26h138Q1124.21,380.94,1124.72,385.4Z"/><path class="cls-10" d="M1127.28,425.94H980.49c.17-.46.33-.91.48-1.33.85-2.44,1.66-5.09,2.38-7.94h143.8Q1127.32,421.65,1127.28,425.94Z"/><path class="cls-10" d="M1125.6,445.62H973.76c.87-3.18,1.89-6.32,2.92-9.26h150.16A80.79,80.79,0,0,1,1125.6,445.62Z"/><path class="cls-10" d="M1120,458.49a27.57,27.57,0,0,0-5,5.66H971.62a34.93,34.93,0,0,1,.19-9.26h150.75A14.65,14.65,0,0,1,1120,458.49Z"/><path class="cls-10" d="M1116,481.52H978.35c-1.49-4.15-2.8-7.41-3.7-9.26H1113A23.93,23.93,0,0,0,1116,481.52Z"/><path class="cls-10" d="M1120,493.84a3.83,3.83,0,0,1-1.37,1.16H982.34c-1.37,0-1.37-1-1.37-1.16a27.78,27.78,0,0,0,.26-3h139.22A3.79,3.79,0,0,1,1120,493.84Z"/><path class="cls-10" d="M1126.62,406.25H985.39c.41-2.92.72-6,.89-9.26h139.61Q1126.33,401.85,1126.62,406.25Z"/><path class="cls-7" d="M913.1,166c0,3.59,1.57,6.5,3.5,6.5"/><path class="cls-7" d="M939,157.22c-3.21,1.62-5.09,4.33-4.22,6.06"/><path class="cls-7" d="M951.1,157c0,3.59,1.57,6.5,3.5,6.5"/><path class="cls-7" d="M978.1,154c0,3.59,1.57,6.5,3.5,6.5"/><path class="cls-7" d="M1012.34,158.46c-2.43-2.65-5.55-3.73-7-2.42"/><path class="cls-7" d="M1016.1,130c0,3.59,1.57,6.5,3.5,6.5"/><path class="cls-7" d="M1050,154.25c-1.73-3.14-4.5-4.94-6.2-4"/><path class="cls-7" d="M1066.7,143.59c0,.21-4.37.38-9.77.38"/><path class="cls-7" d="M1115.1,140c0,3.59,1.57,6.5,3.5,6.5"/><path class="cls-7" d="M1136.1,162c0,3.59,1.57,6.5,3.5,6.5"/><path class="cls-7" d="M1086.1,151c0,3.59,1.57,6.5,3.5,6.5"/><path class="cls-7" d="M1080.1,123c0,3.59,1.57,6.5,3.5,6.5"/><path class="cls-7" d="M1050.47,123.52c-3.44-1-6.68-.39-7.24,1.46"/><path class="cls-1" d="M1209.27,358.63c.56,2.71,4.53,4.17,8.85,3.26s7.38-3.82,6.81-6.52-4.52-4.17-8.85-3.26-7.37,3.82-6.81,6.52"/><line class="cls-11" x1="1122.1" y1="379" x2="1217.1" y2="357"/><path class="cls-1" d="M1105.92,415.81c-.37-2.74-4.22-4.48-8.6-3.89s-7.63,3.29-7.26,6,3.22,4.48,7.6,3.89,8.63-3.28,8.26-6"/><line class="cls-2" x1="988.1" y1="389" x2="1034.1" y2="424"/><line class="cls-2" x1="1035.1" y1="424" x2="1084.1" y2="418"/><line class="cls-3" x1="1084.03" y1="418.37" x2="1097.99" y2="416.88"/><polygon points="2675.28 583.75 2688.24 582.72 2681 492 2665.05 493.28 2675.28 583.75"/><path class="cls-1" d="M2501.1,249c0,74,64.64,109,145,109s146-35,146-109S2727,115,2646.6,115,2501.1,175,2501.1,249Z"/><rect x="2605.92" y="492.19" width="16" height="91" transform="translate(5243.18 994.52) rotate(178.23)"/><rect class="cls-4" x="2678.71" y="582.62" width="22" height="12" rx="6" ry="6" transform="translate(-38.28 215.72) rotate(-4.56)"/><rect class="cls-4" x="2675.74" y="583.41" width="8" height="12" transform="translate(-38.38 214.93) rotate(-4.56)"/><rect class="cls-4" x="2613.5" y="582.89" width="22" height="12" rx="6" ry="6" transform="translate(-16.91 81.21) rotate(-1.77)"/><rect class="cls-4" x="2607.51" y="583.24" width="11" height="12" transform="translate(-16.93 80.86) rotate(-1.77)"/><path class="cls-8" d="M2582.47,493h136.26a3.83,3.83,0,0,0,1.37-1.16c3.27-4.63-8-13.77-7-23.84.61-6.09,5.45-10,7-11.51,7.42-7.35,11.84-32.33,0-107.85a1.43,1.43,0,0,0-.55-.93,1.61,1.61,0,0,0-1.21-.19c-39.78,9.73-123.39,1.8-135.71.56a1.31,1.31,0,0,0-1.53,1.15c9,34.47,5.41,57.94,0,73.38-3.75,10.72-14.48,35-7,46.39,1.19,1.82,4,9,7,18.19.62,1.89,0,3.81,0,4.65C2581.1,492,2581.1,493,2582.47,493Z"/><path class="cls-5" d="M2735.6,227.5c3.86,7.54-36.37-59.85-80-3"/><path class="cls-5" d="M2589.86,280.1c-3.86-7.54,36.37,59.85,80,3"/><path class="cls-5" d="M2609.6,225.5c3.86,7.54-36.37-59.85-80-3"/><ellipse class="cls-6" cx="2732.6" cy="155" rx="20.5" ry="10"/><ellipse class="cls-6" cx="2718.6" cy="135" rx="20.5" ry="10"/><ellipse class="cls-6" cx="2722.6" cy="145" rx="20.5" ry="10"/><ellipse class="cls-6" cx="2739.6" cy="138" rx="20.5" ry="10"/><ellipse class="cls-6" cx="2753.6" cy="152" rx="20.5" ry="10"/><ellipse class="cls-6" cx="2760.6" cy="163" rx="20.5" ry="10"/><ellipse class="cls-6" cx="2760.6" cy="174" rx="20.5" ry="10"/><ellipse class="cls-6" cx="2735.6" cy="170" rx="20.5" ry="10"/><ellipse class="cls-6" cx="2710.6" cy="164" rx="20.5" ry="10"/><ellipse class="cls-6" cx="2735.6" cy="130" rx="20.5" ry="10"/><ellipse class="cls-6" cx="2711.6" cy="152" rx="20.5" ry="10"/><ellipse class="cls-6" cx="2697.6" cy="140" rx="20.5" ry="10"/><path class="cls-7" d="M2513.1,164c0,3.59,1.57,6.5,3.5,6.5"/><ellipse class="cls-6" cx="2690.6" cy="125" rx="20.5" ry="10"/><ellipse class="cls-6" cx="2670.6" cy="118" rx="20.5" ry="10"/><ellipse class="cls-6" cx="2663.6" cy="108" rx="20.5" ry="10"/><ellipse class="cls-6" cx="2634.6" cy="110" rx="20.5" ry="10"/><ellipse class="cls-6" cx="2641.6" cy="125" rx="20.5" ry="10"/><ellipse class="cls-6" cx="2694.6" cy="115" rx="20.5" ry="10"/><ellipse class="cls-6" cx="2715.6" cy="120" rx="20.5" ry="10"/><ellipse class="cls-6" cx="2666.6" cy="135" rx="20.5" ry="10"/><ellipse class="cls-6" cx="2674.6" cy="148" rx="20.5" ry="10"/><ellipse class="cls-6" cx="2687.6" cy="158" rx="20.5" ry="10"/><ellipse class="cls-6" cx="2622.6" cy="163" rx="20.5" ry="10"/><ellipse class="cls-6" cx="2642.6" cy="145" rx="20.5" ry="10"/><ellipse class="cls-6" cx="2611.6" cy="115" rx="20.5" ry="10"/><ellipse class="cls-6" cx="2590.6" cy="125" rx="20.5" ry="10"/><ellipse class="cls-6" cx="2617.6" cy="132" rx="20.5" ry="10"/><ellipse class="cls-6" cx="2588.6" cy="135" rx="20.5" ry="10"/><ellipse class="cls-6" cx="2617.6" cy="148" rx="20.5" ry="10"/><ellipse class="cls-6" cx="2634.6" cy="128" rx="20.5" ry="10"/><ellipse class="cls-6" cx="2587.6" cy="145" rx="20.5" ry="10"/><ellipse class="cls-6" cx="2559.6" cy="132" rx="20.5" ry="10"/><ellipse class="cls-6" cx="2512.6" cy="160" rx="20.5" ry="10"/><ellipse class="cls-6" cx="2559.6" cy="145" rx="20.5" ry="10"/><ellipse class="cls-6" cx="2538.6" cy="145" rx="20.5" ry="10"/><ellipse class="cls-6" cx="2586.6" cy="145" rx="20.5" ry="10"/><ellipse class="cls-6" cx="2656.6" cy="158" rx="20.5" ry="10"/><ellipse class="cls-6" cx="2558.6" cy="162" rx="20.5" ry="10"/><ellipse class="cls-6" cx="2570.6" cy="160" rx="20.5" ry="10"/><ellipse class="cls-6" cx="2586.6" cy="162" rx="20.5" ry="10"/><ellipse class="cls-6" cx="2601.6" cy="163" rx="20.5" ry="10"/><ellipse class="cls-6" cx="2617.6" cy="160" rx="20.5" ry="10"/><ellipse class="cls-6" cx="2651.6" cy="158" rx="20.5" ry="10"/><ellipse class="cls-6" cx="2523.6" cy="158" rx="20.5" ry="10"/><ellipse class="cls-6" cx="2520.6" cy="155" rx="20.5" ry="10"/><ellipse class="cls-6" cx="2518.6" cy="170" rx="20.5" ry="10"/><ellipse class="cls-6" cx="2629.6" cy="150" rx="20.5" ry="10"/><ellipse class="cls-6" cx="2535.6" cy="163" rx="20.5" ry="10"/><ellipse class="cls-6" cx="2538.6" cy="160" rx="20.5" ry="10"/><path class="cls-9" d="M2713,470.26h17v-8.11h-15a13.85,13.85,0,0,0-2,5.85A12.2,12.2,0,0,0,2713,470.26Z"/><path class="cls-9" d="M2726.84,434.36H2730V423.94h-2.69C2727.24,427.81,2727.09,431.27,2726.84,434.36Z"/><path class="cls-9" d="M2569,462.15v8.11h5.65A11.76,11.76,0,0,0,2574,469a16.22,16.22,0,0,1-2.35-6.85Z"/><path class="cls-9" d="M2722.56,452.89H2730v-9.27h-4.37A34.11,34.11,0,0,1,2722.56,452.89Z"/><path class="cls-9" d="M2569,423.94v10.42h7.68c1.39-4,2.78-7.56,3.81-10.42Z"/><path class="cls-9" d="M2726.62,404.25c.25,3.71.42,7.18.53,10.42H2730V404.25Z"/><path class="cls-9" d="M2569,443.62v9.27h2.81a73.3,73.3,0,0,1,2-9.27Z"/><path class="cls-9" d="M2716,479.52c1.85,3.57,3.95,6.74,4.45,9.27H2730v-9.27Z"/><path class="cls-9" d="M2569,479.52v9.27h12.23a5.35,5.35,0,0,0-.26-1.6c-.9-2.77-1.79-5.35-2.62-7.67Z"/><path class="cls-9" d="M2569,363.72v10.42h16.64c-.36-3.34-.85-6.81-1.49-10.42Z"/><path class="cls-9" d="M2569,404.25v10.42h14.35a98.73,98.73,0,0,0,2-10.42Z"/><path class="cls-9" d="M2569,498.05v5.6a1.48,1.48,0,0,0,1.59,1.35h157.79a1.48,1.48,0,0,0,1.59-1.35v-5.6Z"/><path class="cls-9" d="M2569,383.4V395h17.28q.3-5.46.07-11.59Z"/><path class="cls-9" d="M2724.72,383.4c.45,4.08.84,7.93,1.17,11.59H2730V383.4Z"/><path class="cls-9" d="M2722.21,363.72c.51,3.6,1,7.08,1.4,10.42H2730V363.72Z"/><path class="cls-9" d="M2569,338.51v15.94h13.25c-.4-1.71-.82-3.45-1.28-5.22a1.31,1.31,0,0,1,1.53-1.15c12.32,1.24,95.93,9.17,135.7-.56a1.62,1.62,0,0,1,1.22.19,1.43,1.43,0,0,1,.55.93q.47,3,.89,5.81H2730V337.82a1.56,1.56,0,0,0-2-1.29c-46.07,11.26-142.89,2.08-157.16.64A1.52,1.52,0,0,0,2569,338.51Z"/><path class="cls-10" d="M2720.86,354.45c.48,3.19.93,6.27,1.35,9.27H2584.15q-.8-4.49-1.9-9.27Z"/><path class="cls-10" d="M2724.72,383.4H2586.35c-.13-3-.36-6-.71-9.26h138Q2724.21,378.94,2724.72,383.4Z"/><path class="cls-10" d="M2727.28,423.94H2580.49c.17-.46.33-.91.48-1.33.85-2.44,1.66-5.09,2.38-7.94h143.8Q2727.32,419.65,2727.28,423.94Z"/><path class="cls-10" d="M2725.6,443.62H2573.76c.87-3.18,1.89-6.32,2.92-9.26h150.16A80.79,80.79,0,0,1,2725.6,443.62Z"/><path class="cls-10" d="M2720,456.49a27.57,27.57,0,0,0-5,5.66H2571.62a34.93,34.93,0,0,1,.19-9.26h150.75A14.65,14.65,0,0,1,2720,456.49Z"/><path class="cls-10" d="M2716,479.52H2578.35c-1.49-4.15-2.8-7.41-3.7-9.26H2713A23.93,23.93,0,0,0,2716,479.52Z"/><path class="cls-10" d="M2720,491.84a3.83,3.83,0,0,1-1.37,1.16H2582.34c-1.37,0-1.37-1-1.37-1.16a27.78,27.78,0,0,0,.26-3h139.22A3.79,3.79,0,0,1,2720,491.84Z"/><path class="cls-10" d="M2726.62,404.25H2585.39c.41-2.92.72-6,.89-9.26h139.61Q2726.33,399.85,2726.62,404.25Z"/><path class="cls-7" d="M2513.1,164c0,3.59,1.57,6.5,3.5,6.5"/><path class="cls-7" d="M2539,155.22c-3.21,1.62-5.09,4.33-4.22,6.06"/><path class="cls-7" d="M2551.1,155c0,3.59,1.57,6.5,3.5,6.5"/><path class="cls-7" d="M2578.1,152c0,3.59,1.57,6.5,3.5,6.5"/><path class="cls-7" d="M2612.34,156.46c-2.43-2.65-5.55-3.73-7-2.42"/><path class="cls-7" d="M2616.1,128c0,3.59,1.57,6.5,3.5,6.5"/><path class="cls-7" d="M2650,152.25c-1.73-3.14-4.5-4.94-6.2-4"/><path class="cls-7" d="M2666.7,141.59c0,.21-4.37.38-9.77.38"/><path class="cls-7" d="M2715.1,138c0,3.59,1.57,6.5,3.5,6.5"/><path class="cls-7" d="M2736.1,160c0,3.59,1.57,6.5,3.5,6.5"/><path class="cls-7" d="M2686.1,149c0,3.59,1.57,6.5,3.5,6.5"/><path class="cls-7" d="M2680.1,121c0,3.59,1.57,6.5,3.5,6.5"/><path class="cls-7" d="M2650.47,121.52c-3.44-1-6.68-.39-7.24,1.46"/><path class="cls-1" d="M2809.27,356.63c.56,2.71,4.53,4.17,8.85,3.26s7.38-3.82,6.81-6.52-4.52-4.17-8.85-3.26-7.37,3.82-6.81,6.52"/><line class="cls-11" x1="2722.1" y1="377" x2="2817.1" y2="355"/></g><g id="Layer_2" data-name="Layer 2"><path class="cls-1" d="M742,482c2.76,0,5,3.58,5,8s-2.24,8-5,8-5-3.58-5-8,2.24-8,5-8"/><path class="cls-1" d="M792,252c0,74-64.64,109-145,109S501,326,501,252s65.14-134,145.5-134S792,178,792,252Z"/><rect x="607" y="496" width="16" height="91"/><rect x="670" y="496" width="16" height="91"/><rect class="cls-4" x="608" y="587" width="22" height="12" rx="6" ry="6"/><rect class="cls-4" x="607" y="587" width="7" height="12"/><rect class="cls-4" x="671" y="587" width="22" height="12" rx="6" ry="6"/><rect class="cls-4" x="670" y="587" width="7" height="12"/><path class="cls-8" d="M714.63,496H578.37a1.28,1.28,0,0,1-1.37-1.16V351.64a1.36,1.36,0,0,1,1.77-1.12c39.77,9.73,123.38,1.8,135.7.56a1.31,1.31,0,0,1,1.53,1.15V494.84A1.28,1.28,0,0,1,714.63,496Z"/><path class="cls-12" d="M742,490c-.31-51.93-12-93.88-26.22-93.79"/><path class="cls-5" d="M557.5,230.5c-3.86,7.54,36.37-59.85,80-3"/><path class="cls-5" d="M703.24,283.1c3.87-7.54-36.37,59.85-80,3"/><path class="cls-5" d="M683.5,228.5c-3.86,7.54,36.37-59.85,80-3"/><ellipse class="cls-6" cx="560.5" cy="158" rx="20.5" ry="10"/><ellipse class="cls-6" cx="574.5" cy="138" rx="20.5" ry="10"/><ellipse class="cls-6" cx="570.5" cy="148" rx="20.5" ry="10"/><ellipse class="cls-6" cx="553.5" cy="141" rx="20.5" ry="10"/><ellipse class="cls-6" cx="539.5" cy="155" rx="20.5" ry="10"/><ellipse class="cls-6" cx="532.5" cy="166" rx="20.5" ry="10"/><ellipse class="cls-6" cx="532.5" cy="177" rx="20.5" ry="10"/><ellipse class="cls-6" cx="557.5" cy="173" rx="20.5" ry="10"/><ellipse class="cls-6" cx="582.5" cy="167" rx="20.5" ry="10"/><ellipse class="cls-6" cx="557.5" cy="133" rx="20.5" ry="10"/><ellipse class="cls-6" cx="581.5" cy="155" rx="20.5" ry="10"/><ellipse class="cls-6" cx="595.5" cy="143" rx="20.5" ry="10"/><ellipse class="cls-6" cx="602.5" cy="128" rx="20.5" ry="10"/><ellipse class="cls-6" cx="622.5" cy="121" rx="20.5" ry="10"/><ellipse class="cls-6" cx="629.5" cy="111" rx="20.5" ry="10"/><ellipse class="cls-6" cx="658.5" cy="113" rx="20.5" ry="10"/><ellipse class="cls-6" cx="651.5" cy="128" rx="20.5" ry="10"/><ellipse class="cls-6" cx="598.5" cy="118" rx="20.5" ry="10"/><ellipse class="cls-6" cx="577.5" cy="123" rx="20.5" ry="10"/><ellipse class="cls-6" cx="626.5" cy="138" rx="20.5" ry="10"/><ellipse class="cls-6" cx="618.5" cy="151" rx="20.5" ry="10"/><ellipse class="cls-6" cx="605.5" cy="161" rx="20.5" ry="10"/><ellipse class="cls-6" cx="670.5" cy="166" rx="20.5" ry="10"/><ellipse class="cls-6" cx="650.5" cy="148" rx="20.5" ry="10"/><ellipse class="cls-6" cx="681.5" cy="118" rx="20.5" ry="10"/><ellipse class="cls-6" cx="702.5" cy="128" rx="20.5" ry="10"/><ellipse class="cls-6" cx="675.5" cy="135" rx="20.5" ry="10"/><ellipse class="cls-6" cx="704.5" cy="138" rx="20.5" ry="10"/><ellipse class="cls-6" cx="675.5" cy="151" rx="20.5" ry="10"/><ellipse class="cls-6" cx="658.5" cy="131" rx="20.5" ry="10"/><ellipse class="cls-6" cx="705.5" cy="148" rx="20.5" ry="10"/><ellipse class="cls-6" cx="733.5" cy="135" rx="20.5" ry="10"/><ellipse class="cls-6" cx="780.5" cy="163" rx="20.5" ry="10"/><ellipse class="cls-6" cx="733.5" cy="148" rx="20.5" ry="10"/><ellipse class="cls-6" cx="754.5" cy="148" rx="20.5" ry="10"/><ellipse class="cls-6" cx="706.5" cy="148" rx="20.5" ry="10"/><ellipse class="cls-6" cx="636.5" cy="161" rx="20.5" ry="10"/><ellipse class="cls-6" cx="734.5" cy="165" rx="20.5" ry="10"/><ellipse class="cls-6" cx="722.5" cy="163" rx="20.5" ry="10"/><ellipse class="cls-6" cx="706.5" cy="165" rx="20.5" ry="10"/><ellipse class="cls-6" cx="691.5" cy="166" rx="20.5" ry="10"/><ellipse class="cls-6" cx="675.5" cy="163" rx="20.5" ry="10"/><ellipse class="cls-6" cx="641.5" cy="161" rx="20.5" ry="10"/><ellipse class="cls-6" cx="769.5" cy="161" rx="20.5" ry="10"/><ellipse class="cls-6" cx="772.5" cy="158" rx="20.5" ry="10"/><ellipse class="cls-6" cx="774.5" cy="173" rx="20.5" ry="10"/><ellipse class="cls-6" cx="663.5" cy="153" rx="20.5" ry="10"/><ellipse class="cls-6" cx="757.5" cy="166" rx="20.5" ry="10"/><ellipse class="cls-6" cx="754.5" cy="163" rx="20.5" ry="10"/><path class="cls-7" d="M754.14,158.22c3.21,1.62,5.09,4.33,4.22,6.06"/><path class="cls-7" d="M742,158c0,3.59-1.57,6.5-3.5,6.5"/><path class="cls-7" d="M715,155c0,3.59-1.57,6.5-3.5,6.5"/><path class="cls-7" d="M680.76,159.46c2.43-2.65,5.56-3.73,7-2.42"/><path class="cls-7" d="M677,131c0,3.59-1.57,6.5-3.5,6.5"/><path class="cls-7" d="M643.15,155.25c1.73-3.14,4.5-4.94,6.2-4"/><path class="cls-7" d="M626.4,144.59c0,.21,4.37.38,9.77.38"/><path class="cls-7" d="M578,141c0,3.59-1.57,6.5-3.5,6.5"/><path class="cls-7" d="M557,163c0,3.59-1.57,6.5-3.5,6.5"/><path class="cls-7" d="M607,152c0,3.59-1.57,6.5-3.5,6.5"/><path class="cls-7" d="M613,124c0,3.59-1.57,6.5-3.5,6.5"/><path class="cls-7" d="M642.63,124.52c3.44-1,6.68-.39,7.24,1.46"/><path class="cls-1" d="M587.87,481.16c2.57-1,6,1.51,7.57,5.63s.83,8.26-1.74,9.27-6-1.51-7.57-5.63-.83-8.26,1.74-9.27"/><path class="cls-12" d="M589.85,486.83c-18.64-48.47-23-91.81-9.78-96.9"/><path class="cls-9" d="M565.94,494.8H543V483.08h20.17a21,21,0,0,1,2.75,8.45A17.87,17.87,0,0,1,565.94,494.8Z"/><path class="cls-9" d="M547.22,442.92H543V427.87h3.63C546.68,433.46,546.88,438.46,547.22,442.92Z"/><path class="cls-9" d="M760,483.08V494.8h-7.62a16.6,16.6,0,0,1,.92-1.82,24.52,24.52,0,0,0,3.17-9.9Z"/><path class="cls-9" d="M553,469.7H543V456.3h5.89A51.85,51.85,0,0,0,553,469.7Z"/><path class="cls-9" d="M760,427.87v15.05H749.65c-1.88-5.72-3.75-10.92-5.14-15.05Z"/><path class="cls-9" d="M547.52,399.41c-.34,5.36-.57,10.38-.72,15.06H543V399.41Z"/><path class="cls-9" d="M760,456.3v13.4h-3.79a110.24,110.24,0,0,0-2.63-13.39H760Z"/><path class="cls-9" d="M561.83,508.18c-2.49,5.16-5.32,9.74-6,13.39H543v-13.4Z"/><path class="cls-9" d="M760,508.18v13.4H743.51a8.52,8.52,0,0,1,.35-2.31c1.22-4,2.42-7.72,3.53-11.08Z"/><path class="cls-9" d="M760,340.84V355.9H737.57c.48-4.82,1.14-9.84,2-15.06Z"/><path class="cls-9" d="M760,399.41v15.06H740.66a148.05,148.05,0,0,1-2.75-15.06Z"/><path class="cls-9" d="M760,535v8.09a2.05,2.05,0,0,1-2.14,2H545.14a2.05,2.05,0,0,1-2.14-2V535Z"/><path class="cls-9" d="M760,369.28V386H736.71c-.27-5.26-.31-10.83-.1-16.74H760Z"/><path class="cls-9" d="M550.08,369.28h0c-.61,5.9-1.13,11.45-1.58,16.73H543V369.28Z"/><path class="cls-9" d="M553.46,340.84c-.69,5.21-1.32,10.24-1.89,15.06H543V340.84Z"/><path class="cls-9" d="M760,304.42v23H742.14c.54-2.47,1.1-5,1.72-7.54a1.79,1.79,0,0,0-2.06-1.67c-16.61,1.8-129.32,13.26-182.93-.8a2.07,2.07,0,0,0-1.65.27,2.09,2.09,0,0,0-.74,1.34q-.63,4.27-1.2,8.4H543v-24a2.12,2.12,0,0,1,2.75-1.87c62.11,16.28,192.63,3,211.86.93A2.08,2.08,0,0,1,760,304.42Z"/><path class="cls-9" d="M743.86,319.91c-.62,2.55-1.18,5.07-1.72,7.54H555.28q.57-4.12,1.2-8.4a2.09,2.09,0,0,1,.74-1.34,2.07,2.07,0,0,1,1.65-.27c53.61,14.06,166.32,2.6,182.93.8A1.79,1.79,0,0,1,743.86,319.91Z"/><path class="cls-9" d="M742.14,327.45q-1.5,6.92-2.56,13.39H553.46q.84-6.49,1.82-13.39Z"/><path class="cls-9" d="M578,355.9v13.39H550.08q.67-6.43,1.5-13.38Z"/><path class="cls-9" d="M737.56,355.9q-.69,7-.94,13.38H717V355.9Z"/><path class="cls-9" d="M744.51,427.86H717V414.47h23.65c1,4.12,2.06,7.94,3.21,11.47C744.06,426.55,744.28,427.19,744.51,427.86Z"/><path class="cls-9" d="M578,414.47v13.39H546.63q0-6.19.17-13.39Z"/><path class="cls-9" d="M753.58,456.3H717V442.92h32.65C751,447.17,752.41,451.7,753.58,456.3Z"/><path class="cls-9" d="M578,442.92v13.39H548.89a122.71,122.71,0,0,1-1.68-13.38Z"/><path class="cls-9" d="M756.47,483.08H717V469.7h39.22A54.48,54.48,0,0,1,756.47,483.08Z"/><path class="cls-9" d="M578,469.7v13.38H563.17a39.23,39.23,0,0,0-6.69-8.18,21.35,21.35,0,0,1-3.49-5.2Z"/><path class="cls-9" d="M752.38,494.8c-.6,1.34-1.35,3.18-2.19,5.44s-1.79,4.94-2.79,7.94H561.84c2-4.15,3.8-8.67,4.11-13.38h12v0a1.28,1.28,0,0,0,1.37,1.16H715.63a1.28,1.28,0,0,0,1.37-1.16v0Z"/><path class="cls-9" d="M743.86,526c0,.23,0,1.68-1.84,1.68H558.33a5.33,5.33,0,0,1-1.85-1.68,5.8,5.8,0,0,1-.65-4.4H743.51C743.45,523.46,743.86,525.12,743.86,526Z"/><path class="cls-9" d="M737.91,399.41H717V386h19.7Q737.06,393.1,737.91,399.41Z"/><path class="cls-9" d="M578,386v13.39H547.52q.39-6.35,1-13.38H578Z"/><rect class="cls-10" x="578" y="427.86" width="139" height="15.06"/><rect class="cls-10" x="578" y="399.41" width="139" height="15.06"/><path class="cls-9" d="M578,369.29V386H548.5c.45-5.28,1-10.83,1.58-16.73Z"/><rect class="cls-10" x="578" y="369.29" width="139" height="16.73"/><rect class="cls-10" x="578" y="456.31" width="139" height="13.39"/><path class="cls-10" d="M717,352.23a1.31,1.31,0,0,0-1.53-1.15c-12.32,1.24-95.93,9.17-135.7-.56a1.36,1.36,0,0,0-1.77,1.12v4.26H717Z"/><rect class="cls-10" x="578" y="483.08" width="139" height="11.71"/><path class="cls-1" d="M2344,480c2.76,0,5,3.58,5,8s-2.24,8-5,8-5-3.58-5-8,2.24-8,5-8"/><path class="cls-1" d="M2394,250c0,74-64.64,109-145,109s-146-35-146-109,65.14-134,145.5-134S2394,176,2394,250Z"/><rect x="2209" y="494" width="16" height="91"/><rect x="2272" y="494" width="16" height="91"/><rect class="cls-4" x="2210" y="585" width="22" height="12" rx="6" ry="6"/><rect class="cls-4" x="2209" y="585" width="7" height="12"/><rect class="cls-4" x="2273" y="585" width="22" height="12" rx="6" ry="6"/><rect class="cls-4" x="2272" y="585" width="7" height="12"/><path class="cls-8" d="M2316.63,494H2180.37a1.28,1.28,0,0,1-1.37-1.16V349.64a1.36,1.36,0,0,1,1.77-1.12c39.77,9.73,123.38,1.8,135.7.56a1.31,1.31,0,0,1,1.53,1.15V492.84A1.28,1.28,0,0,1,2316.63,494Z"/><path class="cls-12" d="M2344,488c-.31-51.93-12-93.88-26.22-93.79"/><path class="cls-5" d="M2159.5,228.5c-3.86,7.54,36.37-59.85,80-3"/><path class="cls-5" d="M2305.24,281.1c3.87-7.54-36.37,59.85-80,3"/><path class="cls-5" d="M2285.5,226.5c-3.86,7.54,36.37-59.85,80-3"/><ellipse class="cls-6" cx="2162.5" cy="156" rx="20.5" ry="10"/><ellipse class="cls-6" cx="2176.5" cy="136" rx="20.5" ry="10"/><ellipse class="cls-6" cx="2172.5" cy="146" rx="20.5" ry="10"/><ellipse class="cls-6" cx="2155.5" cy="139" rx="20.5" ry="10"/><ellipse class="cls-6" cx="2141.5" cy="153" rx="20.5" ry="10"/><ellipse class="cls-6" cx="2134.5" cy="164" rx="20.5" ry="10"/><ellipse class="cls-6" cx="2134.5" cy="175" rx="20.5" ry="10"/><ellipse class="cls-6" cx="2159.5" cy="171" rx="20.5" ry="10"/><ellipse class="cls-6" cx="2184.5" cy="165" rx="20.5" ry="10"/><ellipse class="cls-6" cx="2159.5" cy="131" rx="20.5" ry="10"/><ellipse class="cls-6" cx="2183.5" cy="153" rx="20.5" ry="10"/><ellipse class="cls-6" cx="2197.5" cy="141" rx="20.5" ry="10"/><ellipse class="cls-6" cx="2204.5" cy="126" rx="20.5" ry="10"/><ellipse class="cls-6" cx="2224.5" cy="119" rx="20.5" ry="10"/><ellipse class="cls-6" cx="2231.5" cy="109" rx="20.5" ry="10"/><ellipse class="cls-6" cx="2260.5" cy="111" rx="20.5" ry="10"/><ellipse class="cls-6" cx="2253.5" cy="126" rx="20.5" ry="10"/><ellipse class="cls-6" cx="2200.5" cy="116" rx="20.5" ry="10"/><ellipse class="cls-6" cx="2179.5" cy="121" rx="20.5" ry="10"/><ellipse class="cls-6" cx="2228.5" cy="136" rx="20.5" ry="10"/><ellipse class="cls-6" cx="2220.5" cy="149" rx="20.5" ry="10"/><ellipse class="cls-6" cx="2207.5" cy="159" rx="20.5" ry="10"/><ellipse class="cls-6" cx="2272.5" cy="164" rx="20.5" ry="10"/><ellipse class="cls-6" cx="2252.5" cy="146" rx="20.5" ry="10"/><ellipse class="cls-6" cx="2283.5" cy="116" rx="20.5" ry="10"/><ellipse class="cls-6" cx="2304.5" cy="126" rx="20.5" ry="10"/><ellipse class="cls-6" cx="2277.5" cy="133" rx="20.5" ry="10"/><ellipse class="cls-6" cx="2306.5" cy="136" rx="20.5" ry="10"/><ellipse class="cls-6" cx="2277.5" cy="149" rx="20.5" ry="10"/><ellipse class="cls-6" cx="2260.5" cy="129" rx="20.5" ry="10"/><ellipse class="cls-6" cx="2307.5" cy="146" rx="20.5" ry="10"/><ellipse class="cls-6" cx="2335.5" cy="133" rx="20.5" ry="10"/><ellipse class="cls-6" cx="2382.5" cy="161" rx="20.5" ry="10"/><ellipse class="cls-6" cx="2335.5" cy="146" rx="20.5" ry="10"/><ellipse class="cls-6" cx="2356.5" cy="146" rx="20.5" ry="10"/><ellipse class="cls-6" cx="2308.5" cy="146" rx="20.5" ry="10"/><ellipse class="cls-6" cx="2238.5" cy="159" rx="20.5" ry="10"/><ellipse class="cls-6" cx="2336.5" cy="163" rx="20.5" ry="10"/><ellipse class="cls-6" cx="2324.5" cy="161" rx="20.5" ry="10"/><ellipse class="cls-6" cx="2308.5" cy="163" rx="20.5" ry="10"/><ellipse class="cls-6" cx="2293.5" cy="164" rx="20.5" ry="10"/><ellipse class="cls-6" cx="2277.5" cy="161" rx="20.5" ry="10"/><ellipse class="cls-6" cx="2243.5" cy="159" rx="20.5" ry="10"/><ellipse class="cls-6" cx="2371.5" cy="159" rx="20.5" ry="10"/><ellipse class="cls-6" cx="2374.5" cy="156" rx="20.5" ry="10"/><ellipse class="cls-6" cx="2376.5" cy="171" rx="20.5" ry="10"/><ellipse class="cls-6" cx="2265.5" cy="151" rx="20.5" ry="10"/><ellipse class="cls-6" cx="2359.5" cy="164" rx="20.5" ry="10"/><ellipse class="cls-6" cx="2356.5" cy="161" rx="20.5" ry="10"/><path class="cls-7" d="M2356.14,156.22c3.21,1.62,5.09,4.33,4.22,6.06"/><path class="cls-7" d="M2344,156c0,3.59-1.57,6.5-3.5,6.5"/><path class="cls-7" d="M2317,153c0,3.59-1.57,6.5-3.5,6.5"/><path class="cls-7" d="M2282.76,157.46c2.43-2.65,5.56-3.73,7-2.42"/><path class="cls-7" d="M2279,129c0,3.59-1.57,6.5-3.5,6.5"/><path class="cls-7" d="M2245.15,153.25c1.73-3.14,4.5-4.94,6.2-4"/><path class="cls-7" d="M2228.4,142.59c0,.21,4.37.38,9.77.38"/><path class="cls-7" d="M2180,139c0,3.59-1.57,6.5-3.5,6.5"/><path class="cls-7" d="M2159,161c0,3.59-1.57,6.5-3.5,6.5"/><path class="cls-7" d="M2209,150c0,3.59-1.57,6.5-3.5,6.5"/><path class="cls-7" d="M2215,122c0,3.59-1.57,6.5-3.5,6.5"/><path class="cls-7" d="M2244.63,122.52c3.44-1,6.68-.39,7.24,1.46"/><path class="cls-1" d="M2189.87,479.16c2.57-1,6,1.51,7.57,5.63s.83,8.26-1.74,9.27-6-1.51-7.57-5.63-.83-8.26,1.74-9.27"/><path class="cls-12" d="M2191.85,484.83c-18.64-48.47-23-91.81-9.78-96.9"/><path class="cls-9" d="M2167.94,492.8H2145V481.08h20.17a21,21,0,0,1,2.75,8.45A17.87,17.87,0,0,1,2167.94,492.8Z"/><path class="cls-9" d="M2149.22,440.92H2145V425.87h3.63C2148.68,431.46,2148.88,436.46,2149.22,440.92Z"/><path class="cls-9" d="M2362,481.08V492.8h-7.62a16.6,16.6,0,0,1,.92-1.82,24.52,24.52,0,0,0,3.17-9.9Z"/><path class="cls-9" d="M2155,467.7h-10V454.3h5.89A51.85,51.85,0,0,0,2155,467.7Z"/><path class="cls-9" d="M2362,425.87v15.05h-10.35c-1.88-5.72-3.75-10.92-5.14-15.05Z"/><path class="cls-9" d="M2149.52,397.41c-.34,5.36-.57,10.38-.72,15.06H2145V397.41Z"/><path class="cls-9" d="M2362,454.3v13.4h-3.79a110.24,110.24,0,0,0-2.63-13.39H2362Z"/><path class="cls-9" d="M2163.83,506.18c-2.49,5.16-5.32,9.74-6,13.39H2145v-13.4Z"/><path class="cls-9" d="M2362,506.18v13.4h-16.49a8.52,8.52,0,0,1,.35-2.31c1.22-4,2.42-7.72,3.53-11.08Z"/><path class="cls-9" d="M2362,338.84V353.9h-22.43c.48-4.82,1.14-9.84,2-15.06Z"/><path class="cls-9" d="M2362,397.41v15.06h-19.34a148.05,148.05,0,0,1-2.75-15.06Z"/><path class="cls-9" d="M2362,533v8.09a2.05,2.05,0,0,1-2.14,2H2147.14a2.05,2.05,0,0,1-2.14-2V533Z"/><path class="cls-9" d="M2362,367.28V384h-23.29c-.27-5.26-.31-10.83-.1-16.74H2362Z"/><path class="cls-9" d="M2152.08,367.28h0c-.61,5.9-1.13,11.45-1.58,16.73H2145V367.28Z"/><path class="cls-9" d="M2155.46,338.84c-.69,5.21-1.32,10.24-1.89,15.06H2145V338.84Z"/><path class="cls-9" d="M2362,302.42v23h-17.86c.54-2.47,1.1-5,1.72-7.54a1.79,1.79,0,0,0-2.06-1.67c-16.61,1.8-129.32,13.26-182.93-.8a2.07,2.07,0,0,0-1.65.27,2.09,2.09,0,0,0-.74,1.34q-.63,4.27-1.2,8.4H2145v-24a2.12,2.12,0,0,1,2.75-1.87c62.11,16.28,192.63,3,211.86.93A2.08,2.08,0,0,1,2362,302.42Z"/><path class="cls-9" d="M2345.86,317.91c-.62,2.55-1.18,5.07-1.72,7.54H2157.28q.57-4.12,1.2-8.4a2.09,2.09,0,0,1,.74-1.34,2.07,2.07,0,0,1,1.65-.27c53.61,14.06,166.32,2.6,182.93.8A1.79,1.79,0,0,1,2345.86,317.91Z"/><path class="cls-9" d="M2344.14,325.45q-1.5,6.92-2.56,13.39H2155.46q.84-6.49,1.82-13.39Z"/><path class="cls-9" d="M2180,353.9v13.39h-27.92q.68-6.43,1.5-13.38Z"/><path class="cls-9" d="M2339.56,353.9q-.69,7-.94,13.38H2319V353.9Z"/><path class="cls-9" d="M2346.51,425.86H2319V412.47h23.65c1,4.12,2.06,7.94,3.21,11.47C2346.06,424.55,2346.28,425.19,2346.51,425.86Z"/><path class="cls-9" d="M2180,412.47v13.39h-31.37q0-6.19.17-13.39Z"/><path class="cls-9" d="M2355.58,454.3H2319V440.92h32.65C2353,445.17,2354.41,449.7,2355.58,454.3Z"/><path class="cls-9" d="M2180,440.92v13.39h-29.11a122.71,122.71,0,0,1-1.68-13.38Z"/><path class="cls-9" d="M2358.47,481.08H2319V467.7h39.22A54.48,54.48,0,0,1,2358.47,481.08Z"/><path class="cls-9" d="M2180,467.7v13.38h-14.83a39.23,39.23,0,0,0-6.69-8.18,21.35,21.35,0,0,1-3.49-5.2Z"/><path class="cls-9" d="M2354.38,492.8c-.6,1.34-1.35,3.18-2.19,5.44s-1.79,4.94-2.79,7.94H2163.84c2-4.15,3.8-8.67,4.11-13.38H2180v0a1.28,1.28,0,0,0,1.37,1.16h136.26a1.28,1.28,0,0,0,1.37-1.16v0Z"/><path class="cls-9" d="M2345.86,524c0,.23,0,1.68-1.84,1.68H2160.33a5.33,5.33,0,0,1-1.85-1.68,5.8,5.8,0,0,1-.65-4.4h187.68C2345.45,521.46,2345.86,523.12,2345.86,524Z"/><path class="cls-9" d="M2339.91,397.41H2319V384h19.7Q2339.06,391.1,2339.91,397.41Z"/><path class="cls-9" d="M2180,384v13.39h-30.48q.39-6.35,1-13.38H2180Z"/><rect class="cls-10" x="2180" y="425.86" width="139" height="15.06"/><rect class="cls-10" x="2180" y="397.41" width="139" height="15.06"/><path class="cls-9" d="M2180,367.29V384h-29.5c.45-5.28,1-10.83,1.58-16.73Z"/><rect class="cls-10" x="2180" y="367.29" width="139" height="16.73"/><rect class="cls-10" x="2180" y="454.31" width="139" height="13.39"/><path class="cls-10" d="M2319,350.23a1.31,1.31,0,0,0-1.53-1.15c-12.32,1.24-95.93,9.17-135.7-.56a1.36,1.36,0,0,0-1.77,1.12v4.26h139Z"/><rect class="cls-10" x="2180" y="481.08" width="139" height="11.71"/><path class="cls-1" d="M1348,481c-2.76,0-5,3.58-5,8s2.24,8,5,8,5-3.58,5-8-2.24-8-5-8"/><path class="cls-1" d="M1298,251c0,74,64.64,109,145,109s146-35,146-109-65.14-134-145.5-134S1298,177,1298,251Z"/><rect x="1467" y="495" width="16" height="91" transform="translate(2950 1081) rotate(-180)"/><rect x="1404" y="495" width="16" height="91" transform="translate(2824 1081) rotate(-180)"/><rect class="cls-4" x="1460" y="586" width="22" height="12" rx="6" ry="6" transform="translate(2942 1184) rotate(-180)"/><rect class="cls-4" x="1476" y="586" width="7" height="12" transform="translate(2959 1184) rotate(-180)"/><rect class="cls-4" x="1397" y="586" width="22" height="12" rx="6" ry="6" transform="translate(2816 1184) rotate(-180)"/><rect class="cls-4" x="1413" y="586" width="7" height="12" transform="translate(2833 1184) rotate(-180)"/><path class="cls-8" d="M1375.37,495h136.26a1.28,1.28,0,0,0,1.37-1.16V350.64a1.36,1.36,0,0,0-1.77-1.12c-39.77,9.73-123.38,1.8-135.7.56a1.31,1.31,0,0,0-1.53,1.15V493.84A1.28,1.28,0,0,0,1375.37,495Z"/><path class="cls-12" d="M1348,489c.31-51.93,12-93.88,26.22-93.79"/><path class="cls-5" d="M1532.5,229.5c3.86,7.54-36.37-59.85-80-3"/><path class="cls-5" d="M1386.76,282.1c-3.87-7.54,36.37,59.85,80,3"/><path class="cls-5" d="M1406.5,227.5c3.86,7.54-36.37-59.85-80-3"/><ellipse class="cls-6" cx="1529.5" cy="157" rx="20.5" ry="10"/><ellipse class="cls-6" cx="1515.5" cy="137" rx="20.5" ry="10"/><ellipse class="cls-6" cx="1519.5" cy="147" rx="20.5" ry="10"/><ellipse class="cls-6" cx="1536.5" cy="140" rx="20.5" ry="10"/><ellipse class="cls-6" cx="1550.5" cy="154" rx="20.5" ry="10"/><ellipse class="cls-6" cx="1557.5" cy="165" rx="20.5" ry="10"/><ellipse class="cls-6" cx="1557.5" cy="176" rx="20.5" ry="10"/><ellipse class="cls-6" cx="1532.5" cy="172" rx="20.5" ry="10"/><ellipse class="cls-6" cx="1507.5" cy="166" rx="20.5" ry="10"/><ellipse class="cls-6" cx="1532.5" cy="132" rx="20.5" ry="10"/><ellipse class="cls-6" cx="1508.5" cy="154" rx="20.5" ry="10"/><ellipse class="cls-6" cx="1494.5" cy="142" rx="20.5" ry="10"/><ellipse class="cls-6" cx="1487.5" cy="127" rx="20.5" ry="10"/><ellipse class="cls-6" cx="1467.5" cy="120" rx="20.5" ry="10"/><ellipse class="cls-6" cx="1460.5" cy="110" rx="20.5" ry="10"/><ellipse class="cls-6" cx="1431.5" cy="112" rx="20.5" ry="10"/><ellipse class="cls-6" cx="1438.5" cy="127" rx="20.5" ry="10"/><ellipse class="cls-6" cx="1491.5" cy="117" rx="20.5" ry="10"/><ellipse class="cls-6" cx="1512.5" cy="122" rx="20.5" ry="10"/><ellipse class="cls-6" cx="1463.5" cy="137" rx="20.5" ry="10"/><ellipse class="cls-6" cx="1471.5" cy="150" rx="20.5" ry="10"/><ellipse class="cls-6" cx="1484.5" cy="160" rx="20.5" ry="10"/><ellipse class="cls-6" cx="1419.5" cy="165" rx="20.5" ry="10"/><ellipse class="cls-6" cx="1439.5" cy="147" rx="20.5" ry="10"/><ellipse class="cls-6" cx="1408.5" cy="117" rx="20.5" ry="10"/><ellipse class="cls-6" cx="1387.5" cy="127" rx="20.5" ry="10"/><ellipse class="cls-6" cx="1414.5" cy="134" rx="20.5" ry="10"/><ellipse class="cls-6" cx="1385.5" cy="137" rx="20.5" ry="10"/><ellipse class="cls-6" cx="1414.5" cy="150" rx="20.5" ry="10"/><ellipse class="cls-6" cx="1431.5" cy="130" rx="20.5" ry="10"/><ellipse class="cls-6" cx="1384.5" cy="147" rx="20.5" ry="10"/><ellipse class="cls-6" cx="1356.5" cy="134" rx="20.5" ry="10"/><ellipse class="cls-6" cx="1309.5" cy="162" rx="20.5" ry="10"/><ellipse class="cls-6" cx="1356.5" cy="147" rx="20.5" ry="10"/><ellipse class="cls-6" cx="1335.5" cy="147" rx="20.5" ry="10"/><ellipse class="cls-6" cx="1383.5" cy="147" rx="20.5" ry="10"/><ellipse class="cls-6" cx="1453.5" cy="160" rx="20.5" ry="10"/><ellipse class="cls-6" cx="1355.5" cy="164" rx="20.5" ry="10"/><ellipse class="cls-6" cx="1367.5" cy="162" rx="20.5" ry="10"/><ellipse class="cls-6" cx="1383.5" cy="164" rx="20.5" ry="10"/><ellipse class="cls-6" cx="1398.5" cy="165" rx="20.5" ry="10"/><ellipse class="cls-6" cx="1414.5" cy="162" rx="20.5" ry="10"/><ellipse class="cls-6" cx="1448.5" cy="160" rx="20.5" ry="10"/><ellipse class="cls-6" cx="1320.5" cy="160" rx="20.5" ry="10"/><ellipse class="cls-6" cx="1317.5" cy="157" rx="20.5" ry="10"/><ellipse class="cls-6" cx="1315.5" cy="172" rx="20.5" ry="10"/><ellipse class="cls-6" cx="1426.5" cy="152" rx="20.5" ry="10"/><ellipse class="cls-6" cx="1332.5" cy="165" rx="20.5" ry="10"/><ellipse class="cls-6" cx="1335.5" cy="162" rx="20.5" ry="10"/><path class="cls-7" d="M1335.86,157.22c-3.21,1.62-5.09,4.33-4.22,6.06"/><path class="cls-7" d="M1348,157c0,3.59,1.57,6.5,3.5,6.5"/><path class="cls-7" d="M1375,154c0,3.59,1.57,6.5,3.5,6.5"/><path class="cls-7" d="M1409.24,158.46c-2.43-2.65-5.56-3.73-7-2.42"/><path class="cls-7" d="M1413,130c0,3.59,1.57,6.5,3.5,6.5"/><path class="cls-7" d="M1446.85,154.25c-1.73-3.14-4.5-4.94-6.2-4"/><path class="cls-7" d="M1463.6,143.59c0,.21-4.37.38-9.77.38"/><path class="cls-7" d="M1512,140c0,3.59,1.57,6.5,3.5,6.5"/><path class="cls-7" d="M1533,162c0,3.59,1.57,6.5,3.5,6.5"/><path class="cls-7" d="M1483,151c0,3.59,1.57,6.5,3.5,6.5"/><path class="cls-7" d="M1477,123c0,3.59,1.57,6.5,3.5,6.5"/><path class="cls-7" d="M1447.37,123.52c-3.44-1-6.68-.39-7.24,1.46"/><path class="cls-1" d="M1502.13,480.16c-2.57-1-6,1.51-7.57,5.63s-.83,8.26,1.74,9.27,6-1.51,7.57-5.63.83-8.26-1.74-9.27"/><path class="cls-12" d="M1500.15,485.83c18.64-48.47,23-91.81,9.78-96.9"/><path class="cls-9" d="M1524.06,493.8H1547V482.08h-20.17a21,21,0,0,0-2.75,8.45A17.87,17.87,0,0,0,1524.06,493.8Z"/><path class="cls-9" d="M1542.78,441.92H1547V426.87h-3.63C1543.32,432.46,1543.12,437.46,1542.78,441.92Z"/><path class="cls-9" d="M1330,482.08V493.8h7.62a16.6,16.6,0,0,0-.92-1.82,24.52,24.52,0,0,1-3.17-9.9Z"/><path class="cls-9" d="M1537,468.7h10V455.3h-5.89A51.85,51.85,0,0,1,1537,468.7Z"/><path class="cls-9" d="M1330,426.87v15.05h10.35c1.88-5.72,3.75-10.92,5.14-15.05Z"/><path class="cls-9" d="M1542.48,398.41c.34,5.36.57,10.38.72,15.06h3.8V398.41Z"/><path class="cls-9" d="M1330,455.3v13.4h3.79a110.24,110.24,0,0,1,2.63-13.39H1330Z"/><path class="cls-9" d="M1528.17,507.18c2.49,5.16,5.32,9.74,6,13.39H1547v-13.4Z"/><path class="cls-9" d="M1330,507.18v13.4h16.49a8.52,8.52,0,0,0-.35-2.31c-1.22-4-2.42-7.72-3.53-11.08Z"/><path class="cls-9" d="M1330,339.84V354.9h22.43c-.48-4.82-1.14-9.84-2-15.06Z"/><path class="cls-9" d="M1330,398.41v15.06h19.34a148.05,148.05,0,0,0,2.75-15.06Z"/><path class="cls-9" d="M1330,534v8.09a2.05,2.05,0,0,0,2.14,2h212.72a2.05,2.05,0,0,0,2.14-2V534Z"/><path class="cls-9" d="M1330,368.28V385h23.29c.27-5.26.31-10.83.1-16.74H1330Z"/><path class="cls-9" d="M1539.92,368.28h0c.61,5.9,1.13,11.45,1.58,16.73h5.5V368.28Z"/><path class="cls-9" d="M1536.54,339.84c.69,5.21,1.32,10.24,1.89,15.06H1547V339.84Z"/><path class="cls-9" d="M1330,303.42v23h17.86c-.54-2.47-1.1-5-1.72-7.54a1.79,1.79,0,0,1,2.06-1.67c16.61,1.8,129.32,13.26,182.93-.8a2.07,2.07,0,0,1,1.65.27,2.09,2.09,0,0,1,.74,1.34q.63,4.27,1.2,8.4H1547v-24a2.12,2.12,0,0,0-2.75-1.87c-62.11,16.28-192.63,3-211.86.93A2.08,2.08,0,0,0,1330,303.42Z"/><path class="cls-9" d="M1346.14,318.91c.62,2.55,1.18,5.07,1.72,7.54h186.86q-.57-4.12-1.2-8.4a2.09,2.09,0,0,0-.74-1.34,2.07,2.07,0,0,0-1.65-.27c-53.61,14.06-166.32,2.6-182.93.8A1.79,1.79,0,0,0,1346.14,318.91Z"/><path class="cls-9" d="M1347.86,326.45q1.5,6.92,2.56,13.39h186.12q-.84-6.49-1.82-13.39Z"/><path class="cls-9" d="M1512,354.9v13.39h27.92q-.68-6.43-1.5-13.38Z"/><path class="cls-9" d="M1352.44,354.9q.69,7,.94,13.38H1373V354.9Z"/><path class="cls-9" d="M1345.49,426.86H1373V413.47h-23.65c-1,4.12-2.06,7.94-3.21,11.47C1345.94,425.55,1345.72,426.19,1345.49,426.86Z"/><path class="cls-9" d="M1512,413.47v13.39h31.37q0-6.19-.17-13.39Z"/><path class="cls-9" d="M1336.42,455.3H1373V441.92h-32.65C1339,446.17,1337.59,450.7,1336.42,455.3Z"/><path class="cls-9" d="M1512,441.92v13.39h29.11a122.71,122.71,0,0,0,1.68-13.38Z"/><path class="cls-9" d="M1333.53,482.08H1373V468.7h-39.22A54.48,54.48,0,0,0,1333.53,482.08Z"/><path class="cls-9" d="M1512,468.7v13.38h14.83a39.23,39.23,0,0,1,6.69-8.18,21.35,21.35,0,0,0,3.49-5.2Z"/><path class="cls-9" d="M1337.62,493.8c.6,1.34,1.35,3.18,2.19,5.44s1.79,4.94,2.79,7.94h185.56c-2-4.15-3.8-8.67-4.11-13.38h-12v0a1.28,1.28,0,0,1-1.37,1.16H1374.37a1.28,1.28,0,0,1-1.37-1.16v0Z"/><path class="cls-9" d="M1346.14,525c0,.23,0,1.68,1.84,1.68h183.69a5.33,5.33,0,0,0,1.85-1.68,5.8,5.8,0,0,0,.65-4.4H1346.49C1346.55,522.46,1346.14,524.12,1346.14,525Z"/><path class="cls-9" d="M1352.09,398.41H1373V385h-19.7Q1352.94,392.1,1352.09,398.41Z"/><path class="cls-9" d="M1512,385v13.39h30.48q-.39-6.35-1-13.38H1512Z"/><rect class="cls-10" x="1373" y="426.86" width="139" height="15.06"/><rect class="cls-10" x="1373" y="398.41" width="139" height="15.06"/><path class="cls-9" d="M1512,368.29V385h29.5c-.45-5.28-1-10.83-1.58-16.73Z"/><rect class="cls-10" x="1373" y="368.29" width="139" height="16.73"/><rect class="cls-10" x="1373" y="455.31" width="139" height="13.39"/><path class="cls-10" d="M1373,351.23a1.31,1.31,0,0,1,1.53-1.15c12.32,1.24,95.93,9.17,135.7-.56a1.36,1.36,0,0,1,1.77,1.12v4.26H1373Z"/><rect class="cls-10" x="1373" y="482.08" width="139" height="11.71"/><path class="cls-1" d="M2953,479c-2.76,0-5,3.58-5,8s2.24,8,5,8,5-3.58,5-8-2.24-8-5-8"/><path class="cls-1" d="M2903,249c0,74,64.64,109,145,109s146-35,146-109-65.14-134-145.5-134S2903,175,2903,249Z"/><rect x="3072" y="493" width="16" height="91" transform="translate(6160 1077) rotate(-180)"/><rect x="3009" y="493" width="16" height="91" transform="translate(6034 1077) rotate(-180)"/><rect class="cls-4" x="3065" y="584" width="22" height="12" rx="6" ry="6" transform="translate(6152 1180) rotate(-180)"/><rect class="cls-4" x="3081" y="584" width="7" height="12" transform="translate(6169 1180) rotate(-180)"/><rect class="cls-4" x="3002" y="584" width="22" height="12" rx="6" ry="6" transform="translate(6026 1180) rotate(-180)"/><rect class="cls-4" x="3018" y="584" width="7" height="12" transform="translate(6043 1180) rotate(-180)"/><path class="cls-8" d="M2980.37,493h136.26a1.28,1.28,0,0,0,1.37-1.16V348.64a1.36,1.36,0,0,0-1.77-1.12c-39.77,9.73-123.38,1.8-135.7.56a1.31,1.31,0,0,0-1.53,1.15V491.84A1.28,1.28,0,0,0,2980.37,493Z"/><path class="cls-12" d="M2953,487c.31-51.93,12-93.88,26.22-93.79"/><path class="cls-5" d="M3137.5,227.5c3.86,7.54-36.37-59.85-80-3"/><path class="cls-5" d="M2991.76,280.1c-3.87-7.54,36.37,59.85,80,3"/><path class="cls-5" d="M3011.5,225.5c3.86,7.54-36.37-59.85-80-3"/><ellipse class="cls-6" cx="3134.5" cy="155" rx="20.5" ry="10"/><ellipse class="cls-6" cx="3120.5" cy="135" rx="20.5" ry="10"/><ellipse class="cls-6" cx="3124.5" cy="145" rx="20.5" ry="10"/><ellipse class="cls-6" cx="3141.5" cy="138" rx="20.5" ry="10"/><ellipse class="cls-6" cx="3155.5" cy="152" rx="20.5" ry="10"/><ellipse class="cls-6" cx="3162.5" cy="163" rx="20.5" ry="10"/><ellipse class="cls-6" cx="3162.5" cy="174" rx="20.5" ry="10"/><ellipse class="cls-6" cx="3137.5" cy="170" rx="20.5" ry="10"/><ellipse class="cls-6" cx="3112.5" cy="164" rx="20.5" ry="10"/><ellipse class="cls-6" cx="3137.5" cy="130" rx="20.5" ry="10"/><ellipse class="cls-6" cx="3113.5" cy="152" rx="20.5" ry="10"/><ellipse class="cls-6" cx="3099.5" cy="140" rx="20.5" ry="10"/><ellipse class="cls-6" cx="3092.5" cy="125" rx="20.5" ry="10"/><ellipse class="cls-6" cx="3072.5" cy="118" rx="20.5" ry="10"/><ellipse class="cls-6" cx="3065.5" cy="108" rx="20.5" ry="10"/><ellipse class="cls-6" cx="3036.5" cy="110" rx="20.5" ry="10"/><ellipse class="cls-6" cx="3043.5" cy="125" rx="20.5" ry="10"/><ellipse class="cls-6" cx="3096.5" cy="115" rx="20.5" ry="10"/><ellipse class="cls-6" cx="3117.5" cy="120" rx="20.5" ry="10"/><ellipse class="cls-6" cx="3068.5" cy="135" rx="20.5" ry="10"/><ellipse class="cls-6" cx="3076.5" cy="148" rx="20.5" ry="10"/><ellipse class="cls-6" cx="3089.5" cy="158" rx="20.5" ry="10"/><ellipse class="cls-6" cx="3024.5" cy="163" rx="20.5" ry="10"/><ellipse class="cls-6" cx="3044.5" cy="145" rx="20.5" ry="10"/><ellipse class="cls-6" cx="3013.5" cy="115" rx="20.5" ry="10"/><ellipse class="cls-6" cx="2992.5" cy="125" rx="20.5" ry="10"/><ellipse class="cls-6" cx="3019.5" cy="132" rx="20.5" ry="10"/><ellipse class="cls-6" cx="2990.5" cy="135" rx="20.5" ry="10"/><ellipse class="cls-6" cx="3019.5" cy="148" rx="20.5" ry="10"/><ellipse class="cls-6" cx="3036.5" cy="128" rx="20.5" ry="10"/><ellipse class="cls-6" cx="2989.5" cy="145" rx="20.5" ry="10"/><ellipse class="cls-6" cx="2961.5" cy="132" rx="20.5" ry="10"/><ellipse class="cls-6" cx="2914.5" cy="160" rx="20.5" ry="10"/><ellipse class="cls-6" cx="2961.5" cy="145" rx="20.5" ry="10"/><ellipse class="cls-6" cx="2940.5" cy="145" rx="20.5" ry="10"/><ellipse class="cls-6" cx="2988.5" cy="145" rx="20.5" ry="10"/><ellipse class="cls-6" cx="3058.5" cy="158" rx="20.5" ry="10"/><ellipse class="cls-6" cx="2960.5" cy="162" rx="20.5" ry="10"/><ellipse class="cls-6" cx="2972.5" cy="160" rx="20.5" ry="10"/><ellipse class="cls-6" cx="2988.5" cy="162" rx="20.5" ry="10"/><ellipse class="cls-6" cx="3003.5" cy="163" rx="20.5" ry="10"/><ellipse class="cls-6" cx="3019.5" cy="160" rx="20.5" ry="10"/><ellipse class="cls-6" cx="3053.5" cy="158" rx="20.5" ry="10"/><ellipse class="cls-6" cx="2925.5" cy="158" rx="20.5" ry="10"/><ellipse class="cls-6" cx="2922.5" cy="155" rx="20.5" ry="10"/><ellipse class="cls-6" cx="2920.5" cy="170" rx="20.5" ry="10"/><ellipse class="cls-6" cx="3031.5" cy="150" rx="20.5" ry="10"/><ellipse class="cls-6" cx="2937.5" cy="163" rx="20.5" ry="10"/><ellipse class="cls-6" cx="2940.5" cy="160" rx="20.5" ry="10"/><path class="cls-7" d="M2940.86,155.22c-3.21,1.62-5.09,4.33-4.22,6.06"/><path class="cls-7" d="M2953,155c0,3.59,1.57,6.5,3.5,6.5"/><path class="cls-7" d="M2980,152c0,3.59,1.57,6.5,3.5,6.5"/><path class="cls-7" d="M3014.24,156.46c-2.43-2.65-5.56-3.73-7-2.42"/><path class="cls-7" d="M3018,128c0,3.59,1.57,6.5,3.5,6.5"/><path class="cls-7" d="M3051.85,152.25c-1.73-3.14-4.5-4.94-6.2-4"/><path class="cls-7" d="M3068.6,141.59c0,.21-4.37.38-9.77.38"/><path class="cls-7" d="M3117,138c0,3.59,1.57,6.5,3.5,6.5"/><path class="cls-7" d="M3138,160c0,3.59,1.57,6.5,3.5,6.5"/><path class="cls-7" d="M3088,149c0,3.59,1.57,6.5,3.5,6.5"/><path class="cls-7" d="M3082,121c0,3.59,1.57,6.5,3.5,6.5"/><path class="cls-7" d="M3052.37,121.52c-3.44-1-6.68-.39-7.24,1.46"/><path class="cls-1" d="M3107.13,478.16c-2.57-1-6,1.51-7.57,5.63s-.83,8.26,1.74,9.27,6-1.51,7.57-5.63.83-8.26-1.74-9.27"/><path class="cls-12" d="M3105.15,483.83c18.64-48.47,23-91.81,9.78-96.9"/><path class="cls-9" d="M3129.06,491.8H3152V480.08h-20.17a21,21,0,0,0-2.75,8.45A17.87,17.87,0,0,0,3129.06,491.8Z"/><path class="cls-9" d="M3147.78,439.92H3152V424.87h-3.63C3148.32,430.46,3148.12,435.46,3147.78,439.92Z"/><path class="cls-9" d="M2935,480.08V491.8h7.62a16.6,16.6,0,0,0-.92-1.82,24.52,24.52,0,0,1-3.17-9.9Z"/><path class="cls-9" d="M3142,466.7h10V453.3h-5.89A51.85,51.85,0,0,1,3142,466.7Z"/><path class="cls-9" d="M2935,424.87v15.05h10.35c1.88-5.72,3.75-10.92,5.14-15.05Z"/><path class="cls-9" d="M3147.48,396.41c.34,5.36.57,10.38.72,15.06h3.8V396.41Z"/><path class="cls-9" d="M2935,453.3v13.4h3.79a110.24,110.24,0,0,1,2.63-13.39H2935Z"/><path class="cls-9" d="M3133.17,505.18c2.49,5.16,5.32,9.74,6,13.39H3152v-13.4Z"/><path class="cls-9" d="M2935,505.18v13.4h16.49a8.52,8.52,0,0,0-.35-2.31c-1.22-4-2.42-7.72-3.53-11.08Z"/><path class="cls-9" d="M2935,337.84V352.9h22.43c-.48-4.82-1.14-9.84-2-15.06Z"/><path class="cls-9" d="M2935,396.41v15.06h19.34a148.05,148.05,0,0,0,2.75-15.06Z"/><path class="cls-9" d="M2935,532v8.09a2.05,2.05,0,0,0,2.14,2h212.72a2.05,2.05,0,0,0,2.14-2V532Z"/><path class="cls-9" d="M2935,366.28V383h23.29c.27-5.26.31-10.83.1-16.74H2935Z"/><path class="cls-9" d="M3144.92,366.28h0c.61,5.9,1.13,11.45,1.58,16.73h5.5V366.28Z"/><path class="cls-9" d="M3141.54,337.84c.69,5.21,1.32,10.24,1.89,15.06H3152V337.84Z"/><path class="cls-9" d="M2935,301.42v23h17.86c-.54-2.47-1.1-5-1.72-7.54a1.79,1.79,0,0,1,2.06-1.67c16.61,1.8,129.32,13.26,182.93-.8a2.07,2.07,0,0,1,1.65.27,2.09,2.09,0,0,1,.74,1.34q.63,4.27,1.2,8.4H3152v-24a2.12,2.12,0,0,0-2.75-1.87c-62.11,16.28-192.63,3-211.86.93A2.08,2.08,0,0,0,2935,301.42Z"/><path class="cls-9" d="M2951.14,316.91c.62,2.55,1.18,5.07,1.72,7.54h186.86q-.57-4.12-1.2-8.4a2.09,2.09,0,0,0-.74-1.34,2.07,2.07,0,0,0-1.65-.27c-53.61,14.06-166.32,2.6-182.93.8A1.79,1.79,0,0,0,2951.14,316.91Z"/><path class="cls-9" d="M2952.86,324.45q1.5,6.92,2.56,13.39h186.12q-.84-6.49-1.82-13.39Z"/><path class="cls-9" d="M3117,352.9v13.39h27.92q-.68-6.43-1.5-13.38Z"/><path class="cls-9" d="M2957.44,352.9q.69,7,.94,13.38H2978V352.9Z"/><path class="cls-9" d="M2950.49,424.86H2978V411.47h-23.65c-1,4.12-2.06,7.94-3.21,11.47C2950.94,423.55,2950.72,424.19,2950.49,424.86Z"/><path class="cls-9" d="M3117,411.47v13.39h31.37q0-6.19-.17-13.39Z"/><path class="cls-9" d="M2941.42,453.3H2978V439.92h-32.65C2944,444.17,2942.59,448.7,2941.42,453.3Z"/><path class="cls-9" d="M3117,439.92v13.39h29.11a122.71,122.71,0,0,0,1.68-13.38Z"/><path class="cls-9" d="M2938.53,480.08H2978V466.7h-39.22A54.48,54.48,0,0,0,2938.53,480.08Z"/><path class="cls-9" d="M3117,466.7v13.38h14.83a39.23,39.23,0,0,1,6.69-8.18,21.35,21.35,0,0,0,3.49-5.2Z"/><path class="cls-9" d="M2942.62,491.8c.6,1.34,1.35,3.18,2.19,5.44s1.79,4.94,2.79,7.94h185.56c-2-4.15-3.8-8.67-4.11-13.38H3117v0a1.28,1.28,0,0,1-1.37,1.16H2979.37a1.28,1.28,0,0,1-1.37-1.16v0Z"/><path class="cls-9" d="M2951.14,523c0,.23,0,1.68,1.84,1.68h183.69a5.33,5.33,0,0,0,1.85-1.68,5.8,5.8,0,0,0,.65-4.4H2951.49C2951.55,520.46,2951.14,522.12,2951.14,523Z"/><path class="cls-9" d="M2957.09,396.41H2978V383h-19.7Q2957.94,390.1,2957.09,396.41Z"/><path class="cls-9" d="M3117,383v13.39h30.48q-.39-6.35-1-13.38H3117Z"/><rect class="cls-10" x="2978" y="424.86" width="139" height="15.06"/><rect class="cls-10" x="2978" y="396.41" width="139" height="15.06"/><path class="cls-9" d="M3117,366.29V383h29.5c-.45-5.28-1-10.83-1.58-16.73Z"/><rect class="cls-10" x="2978" y="366.29" width="139" height="16.73"/><rect class="cls-10" x="2978" y="453.31" width="139" height="13.39"/><path class="cls-10" d="M2978,349.23a1.31,1.31,0,0,1,1.53-1.15c12.32,1.24,95.93,9.17,135.7-.56a1.36,1.36,0,0,1,1.77,1.12v4.26H2978Z"/><rect class="cls-10" x="2978" y="480.08" width="139" height="11.71"/></g></svg>
