<svg xmlns="http://www.w3.org/2000/svg" xmlns:xlink="http://www.w3.org/1999/xlink" width="588" height="1080" viewBox="0 0 588 1080"><defs><style>.cls-1{fill:gray;}.cls-2{fill:url(#radial-gradient);}.cls-3{fill:#999;}.cls-4{fill:url(#radial-gradient-2);}.cls-5{fill:#4d4d4d;}.cls-6{fill:url(#radial-gradient-3);}.cls-7{fill:url(#radial-gradient-4);}.cls-8{fill:url(#radial-gradient-5);}.cls-9{fill:url(#radial-gradient-6);}.cls-10{font-size:27.7396px;font-family:MyriadPro-Regular, Myriad Pro;}.cls-10,.cls-16,.cls-23{fill:none;}.cls-11{letter-spacing:-0.014em;}.cls-12{fill:#0071bc;}.cls-12,.cls-16{stroke:#a67c52;}.cls-12,.cls-16,.cls-23{stroke-miterlimit:10;}.cls-13{fill:#ffcd9f;}.cls-14{fill:#998675;}.cls-15{fill:#c45833;}.cls-17{fill:#333;}.cls-18{fill:#fff;}.cls-19{fill:#603813;}.cls-20{fill:#66482d;}.cls-21{fill:#83a1d6;}.cls-22{fill:#ffe2b4;}.cls-23{stroke:#6569c2;stroke-width:10px;}.cls-24{fill:#7883b0;}.cls-25{fill:#534741;}.cls-26{fill:#754c42;}.cls-27{fill:#c7b299;}</style><radialGradient id="radial-gradient" cx="290.5" cy="524.5" r="376.4845" gradientTransform="translate(0 -314.1382) scale(1 1.5989)" gradientUnits="userSpaceOnUse"><stop offset="0" stop-color="#fff"/><stop offset="0.2473" stop-color="#f8f8f8"/><stop offset="0.4249" stop-color="#d8d8d8"/><stop offset="0.813" stop-color="#858585"/><stop offset="0.9987" stop-color="#5c5c5c"/></radialGradient><radialGradient id="radial-gradient-2" r="368.7645" gradientTransform="translate(0 -326.7223) scale(1 1.6229)" xlink:href="#radial-gradient"/><radialGradient id="radial-gradient-3" cx="291" cy="909" r="46" gradientTransform="matrix(1, 0, 0, 1, 0, 0)" xlink:href="#radial-gradient"/><radialGradient id="radial-gradient-4" cx="217" cy="117.2349" r="8.1845" gradientTransform="translate(0 -5.3471) scale(1 1.0456)" xlink:href="#radial-gradient"/><radialGradient id="radial-gradient-5" cx="291" cy="92.1402" r="8.1845" gradientTransform="translate(0 -4.2025) scale(1 1.0456)" xlink:href="#radial-gradient"/><radialGradient id="radial-gradient-6" cx="291" cy="909" r="35" gradientTransform="matrix(1, 0, 0, 1, 0, 0)" xlink:href="#radial-gradient"/></defs><title>drengiphone</title><g id="iphonebund"><rect class="cls-1" x="33.8702" y="58" width="513.2595" height="933" rx="41.256"/><path class="cls-2" d="M505.8738,59A40.3017,40.3017,0,0,1,546.13,99.256V949.744A40.3017,40.3017,0,0,1,505.8738,990H75.1262A40.3017,40.3017,0,0,1,34.87,949.744V99.256A40.3017,40.3017,0,0,1,75.1262,59H505.8738m0-1H75.1262A41.3773,41.3773,0,0,0,33.87,99.256V949.744A41.3773,41.3773,0,0,0,75.1262,991H505.8738A41.3773,41.3773,0,0,0,547.13,949.744V99.256A41.3773,41.3773,0,0,0,505.8738,58Z"/><rect class="cls-3" x="42" y="66" width="497" height="917" rx="35.2253"/><path class="cls-4" d="M503.7747,67A34.2641,34.2641,0,0,1,538,101.2253V947.7747A34.2641,34.2641,0,0,1,503.7747,982H77.2253A34.2641,34.2641,0,0,1,43,947.7747V101.2253A34.2641,34.2641,0,0,1,77.2253,67H503.7747m0-1H77.2253A35.3288,35.3288,0,0,0,42,101.2253V947.7747A35.3287,35.3287,0,0,0,77.2253,983H503.7747A35.3287,35.3287,0,0,0,539,947.7747V101.2253A35.3288,35.3288,0,0,0,503.7747,66Z"/><circle class="cls-5" cx="291" cy="909" r="46"/><path class="cls-6" d="M291,864a45,45,0,1,1-45,45,45.051,45.051,0,0,1,45-45m0-1a46,46,0,1,0,46,46,46,46,0,0,0-46-46Z"/><rect class="cls-5" x="245" y="108.87" width="92" height="16.7298" rx="8"/><rect class="cls-5" x="209" y="108.87" width="16" height="16.7298" rx="8"/><path class="cls-7" d="M217,109.87a7.0079,7.0079,0,0,1,7,7v.73a7,7,0,1,1-14,0v-.73a7.0079,7.0079,0,0,1,7-7m0-1a8.0236,8.0236,0,0,0-8,8v.73a8,8,0,1,0,16,0v-.73a8.0236,8.0236,0,0,0-8-8Z"/><rect class="cls-5" x="283" y="83.7754" width="16" height="16.7298" rx="8"/><path class="cls-8" d="M291,84.7754a7.0079,7.0079,0,0,1,7,7v.73a7,7,0,0,1-14,0v-.73a7.0079,7.0079,0,0,1,7-7m0-1a8.0236,8.0236,0,0,0-8,8v.73a8,8,0,0,0,16,0v-.73a8.0236,8.0236,0,0,0-8-8Z"/><circle class="cls-3" cx="291" cy="909" r="35"/><path class="cls-9" d="M291,875a34,34,0,1,1-34,34,34.0385,34.0385,0,0,1,34-34m0-1a35,35,0,1,0,35,35,35,35,0,0,0-35-35Z"/><text class="cls-10" transform="translate(426.9326 191.3604)"><tspan class="cls-11">L</tspan><tspan x="12.7051" y="0">o</tspan></text></g><g id="snap_personer" data-name="snap personer"><rect class="cls-12" x="79.5" y="154.5" width="422" height="695"/></g><g id="glans"><path class="cls-13" d="M327.3678,393.8493H267.1414q0-13.7109,0-27.4217,0-3.4968,0-6.9935h60.2264v34.4152Z"/><path class="cls-14" d="M267.4426,370.597c10.3428.4884,20.5253,3.2869,30.8375,3.1638,4.6217-.0552,9.1142,1.0666,13.7425.408,5.3427-.76,10.3578-2.9866,15.2576-5.14.6444-.2833-.5817-4.7443,0-5-4.6425,2.0406-9.357,4.1157-14.385,4.9869-4.9617.86-9.6594-.3138-14.6151-.2546-10.3079.123-20.4974-2.6756-30.8375-3.1638.0418.0019-.1165,4.9945,0,5Z"/><path class="cls-13" d="M363.9339,277.6746c0,52.8631-13.9287,94.6652-65.6038,94.6652s-72.0567-41.8021-72.0567-94.6652,20.3815-96.7689,72.0567-96.7689S363.9339,224.8115,363.9339,277.6746Z"/><path class="cls-15" d="M325,336c-1,10-13,11-29.8963,10.5285C278.4791,346.0645,265,346,265,336c0-5.3457,13.4726-8.83,30.1037-8.83S325.5319,330.6808,325,336Z"/><path class="cls-16" d="M299.4056,316.4152c-25.8114,2.151-4.3019-15.0566-6.4529-36.566"/><ellipse class="cls-17" cx="268.2168" cy="273.3963" rx="5.3774" ry="6.4528"/><circle class="cls-18" cx="269.2923" cy="275.5473" r="1.0755"/><ellipse class="cls-17" cx="321.9905" cy="273.3963" rx="5.3774" ry="6.4528"/><circle class="cls-18" cx="323.066" cy="275.5473" r="1.0755"/><path class="cls-19" d="M274.8563,262.3834c-.3555-1.1345-11.4876-4.2893-22.5162,3.6752"/><path class="cls-19" d="M314.2419,264.9536c.3139-1.1467,11.3236-4.7052,22.6352,2.8518"/><ellipse class="cls-20" cx="236.6559" cy="238.9812" rx="10.4393" ry="7.358" transform="matrix(0.8053, -0.5929, 0.5929, 0.8053, -95.6063, 186.8289)"/><ellipse class="cls-20" cx="258.0826" cy="230.3774" rx="13.7743" ry="12.9057"/><ellipse class="cls-20" cx="232.0644" cy="250.4529" rx="12.2438" ry="7.1698"/><ellipse class="cls-20" cx="248.8997" cy="237.5472" rx="13.7743" ry="14.3396"/><ellipse class="cls-20" cx="270.3264" cy="244.7171" rx="10.5109" ry="7.3079" transform="translate(-86.5129 169.6939) rotate(-30.2803)"/><ellipse class="cls-20" cx="279.5093" cy="244.7171" rx="7.6524" ry="7.1698"/><ellipse class="cls-20" cx="277.9788" cy="254.7548" rx="6.1219" ry="8.6038"/><ellipse class="cls-20" cx="285.6312" cy="247.585" rx="10.664" ry="7.203" transform="translate(-51.7486 77.1198) rotate(-14.113)"/><ellipse class="cls-20" cx="291.7532" cy="256.1888" rx="4.5914" ry="7.1698"/><ellipse class="cls-20" cx="288.6922" cy="259.0567" rx="16.8353" ry="4.3019"/><ellipse class="cls-20" cx="305.5275" cy="250.4529" rx="8.6149" ry="10.6996" transform="translate(20.8033 524.3248) rotate(-83.2298)"/><ellipse class="cls-20" cx="299.4056" cy="261.9246" rx="3.061" ry="4.3019"/><ellipse class="cls-20" cx="307.058" cy="261.9246" rx="7.6524" ry="4.3019"/><ellipse class="cls-20" cx="317.7713" cy="256.1888" rx="6.1219" ry="4.3019"/><ellipse class="cls-20" cx="314.7104" cy="260.4907" rx="6.1219" ry="5.7359"/><ellipse class="cls-20" cx="325.4237" cy="260.4907" rx="7.6524" ry="5.7359"/><ellipse class="cls-20" cx="322.3628" cy="250.4529" rx="7.6524" ry="7.1698"/><ellipse class="cls-20" cx="258.0826" cy="250.4529" rx="10.4393" ry="7.358" transform="translate(-98.2358 201.7652) rotate(-36.3597)"/><ellipse class="cls-20" cx="267.2655" cy="253.3208" rx="7.6524" ry="7.1698"/><ellipse class="cls-20" cx="328.4847" cy="253.3208" rx="10.7134" ry="4.3019"/><ellipse class="cls-20" cx="337.6676" cy="259.0567" rx="7.6524" ry="4.3019"/><ellipse class="cls-20" cx="342.259" cy="256.1888" rx="6.1219" ry="12.9057"/><ellipse class="cls-20" cx="351.4419" cy="256.1888" rx="12.2438" ry="7.1698"/><ellipse class="cls-20" cx="357.5638" cy="247.585" rx="6.1219" ry="12.9057"/><ellipse class="cls-20" cx="348.3809" cy="244.7171" rx="12.2438" ry="10.0377"/><ellipse class="cls-20" cx="365.2162" cy="244.7171" rx="13.7743" ry="10.0377"/><ellipse class="cls-20" cx="250.4302" cy="250.4529" rx="6.1219" ry="7.1698"/><path class="cls-21" d="M333.8207,223.9246H256.3866c-14.1962,0-27.9622,14.1962-27.9622,0l2.1509-17.2076c4.3019-15.0566,10.7547-19.3585,25.8113-25.8113l38.7171-8.6038,38.717,8.6038c15.0566,4.3019,23.66,15.0566,23.66,30.1132v12.9057C357.4811,238.1208,348.0169,223.9246,333.8207,223.9246Z"/><path class="cls-22" d="M361.783,251.8869c-8.7351,3.7436-14.6351,6.4528-64.5284,6.4528s-77.33-30.165-68.83-34.4151c4.3018-2.151,91.58-21.5035,135.51,2.1509C391.8962,241.1321,376.84,245.434,361.783,251.8869Z"/><ellipse class="cls-22" cx="295.1037" cy="171.2264" rx="6.4528" ry="3.2264"/><path class="cls-23" d="M257.4621,405.68c-53.5045-17.9976-52.6878,101.1917-31.0267,141.8654"/><path class="cls-23" d="M335.6951,400.217c43.2954-23.5753,48.1274,108.5865,48.1274,155.8026"/><rect class="cls-24" x="232.7262" y="387.3964" width="131.2077" height="193.5851" rx="22.1605"/><rect class="cls-25" x="232.7262" y="532.5852" width="131.2077" height="54.8491" rx="2.303"/><path class="cls-26" d="M232.1275,569.3491c8.0068,8.0877,18.7126,10.4714,23.9121,5.324s2.9238-15.8767-5.083-23.9645"/><path class="cls-26" d="M344.4461,550.8936c-7.44,8.6116-8.9841,19.47-3.4479,24.2537s16.056,1.68,23.4965-6.9316"/><rect class="cls-25" x="232.7262" y="583.1325" width="53.7736" height="232.3021"/><rect class="cls-25" x="308.0093" y="583.1325" width="55.9246" height="232.3021"/><path class="cls-27" d="M288.776,839.0828l-69.2168,6.42c-8.5812.8356-16.3558-6.2189-17.2768-15.6766l-.1458-1.4979c-.921-9.4577,5.3465-17.88,13.9278-18.7153l70.4818-4.4583"/><path class="cls-27" d="M308.2433,845.7923l69.5,1.389c8.6192.2118,15.8623-7.3874,16.0957-16.8871l.0369-1.5044c.2334-9.5-6.6277-17.4454-15.247-17.6571l-70.62.6594"/><ellipse class="cls-13" cx="231.5457" cy="560.6948" rx="12.5446" ry="20.3356" transform="translate(-211.9587 146.8157) rotate(-24.5402)"/><ellipse class="cls-13" cx="387.4831" cy="569.4277" rx="12.5446" ry="20.3356" transform="translate(-140.204 126.7796) rotate(-15.7741)"/></g></svg>
