<svg xmlns="http://www.w3.org/2000/svg" xmlns:xlink="http://www.w3.org/1999/xlink" width="588" height="1080" viewBox="0 0 588 1080"><defs><style>.cls-1{fill:gray;}.cls-2{fill:url(#radial-gradient);}.cls-3{fill:#999;}.cls-4{fill:url(#radial-gradient-2);}.cls-5{fill:#4d4d4d;}.cls-6{fill:url(#radial-gradient-3);}.cls-7{fill:url(#radial-gradient-4);}.cls-8{fill:url(#radial-gradient-5);}.cls-9{fill:url(#radial-gradient-6);}.cls-10,.cls-16,.cls-17,.cls-19{fill:none;}.cls-11{stroke:#a67c52;fill:url(#radial-gradient-7);}.cls-11,.cls-16,.cls-17,.cls-19{stroke-miterlimit:10;}.cls-12{fill:#efc39c;}.cls-13{fill:#9b8f8f;}.cls-14{fill:#e82121;}.cls-15{fill:#fff;}.cls-16{stroke:#ed1c24;stroke-width:10px;}.cls-17,.cls-19{stroke:#000;}.cls-17{stroke-width:3px;}.cls-18{fill:#964e18;}</style><radialGradient id="radial-gradient" cx="290.5" cy="524.5" r="376.4845" gradientTransform="translate(0 -314.1382) scale(1 1.5989)" gradientUnits="userSpaceOnUse"><stop offset="0" stop-color="#fff"/><stop offset="0.2473" stop-color="#f8f8f8"/><stop offset="0.4249" stop-color="#d8d8d8"/><stop offset="0.813" stop-color="#858585"/><stop offset="0.9987" stop-color="#5c5c5c"/></radialGradient><radialGradient id="radial-gradient-2" r="368.7645" gradientTransform="translate(0 -326.7223) scale(1 1.6229)" xlink:href="#radial-gradient"/><radialGradient id="radial-gradient-3" cx="291" cy="909" r="46" gradientTransform="matrix(1, 0, 0, 1, 0, 0)" xlink:href="#radial-gradient"/><radialGradient id="radial-gradient-4" cx="217" cy="117.2349" r="8.1845" gradientTransform="translate(0 -5.3471) scale(1 1.0456)" xlink:href="#radial-gradient"/><radialGradient id="radial-gradient-5" cx="291" cy="92.1402" r="8.1845" gradientTransform="translate(0 -4.2025) scale(1 1.0456)" xlink:href="#radial-gradient"/><radialGradient id="radial-gradient-6" cx="291" cy="909" r="35" gradientTransform="matrix(1, 0, 0, 1, 0, 0)" xlink:href="#radial-gradient"/><radialGradient id="radial-gradient-7" cx="290.5" cy="502" r="287.4693" gradientUnits="userSpaceOnUse"><stop offset="0" stop-color="#fff"/><stop offset="0.1375" stop-color="#ffebfe"/><stop offset="0.4182" stop-color="#ffb9fd"/><stop offset="0.8137" stop-color="#ff68fb"/><stop offset="1" stop-color="#ff3ffa"/></radialGradient></defs><title>drengiphone</title><g id="iphonebund"><rect class="cls-1" x="33.8702" y="58" width="513.2595" height="933" rx="41.256"/><path class="cls-2" d="M505.8738,59A40.3017,40.3017,0,0,1,546.13,99.256V949.744A40.3017,40.3017,0,0,1,505.8738,990H75.1262A40.3017,40.3017,0,0,1,34.87,949.744V99.256A40.3017,40.3017,0,0,1,75.1262,59H505.8738m0-1H75.1262A41.3773,41.3773,0,0,0,33.87,99.256V949.744A41.3773,41.3773,0,0,0,75.1262,991H505.8738A41.3773,41.3773,0,0,0,547.13,949.744V99.256A41.3773,41.3773,0,0,0,505.8738,58Z"/><rect class="cls-3" x="42" y="66" width="497" height="917" rx="35.2253"/><path class="cls-4" d="M503.7747,67A34.2641,34.2641,0,0,1,538,101.2253V947.7747A34.2641,34.2641,0,0,1,503.7747,982H77.2253A34.2641,34.2641,0,0,1,43,947.7747V101.2253A34.2641,34.2641,0,0,1,77.2253,67H503.7747m0-1H77.2253A35.3288,35.3288,0,0,0,42,101.2253V947.7747A35.3287,35.3287,0,0,0,77.2253,983H503.7747A35.3287,35.3287,0,0,0,539,947.7747V101.2253A35.3288,35.3288,0,0,0,503.7747,66Z"/><circle class="cls-5" cx="291" cy="909" r="46"/><path class="cls-6" d="M291,864a45,45,0,1,1-45,45,45.051,45.051,0,0,1,45-45m0-1a46,46,0,1,0,46,46,46,46,0,0,0-46-46Z"/><rect class="cls-5" x="245" y="108.87" width="92" height="16.7298" rx="8"/><rect class="cls-5" x="209" y="108.87" width="16" height="16.7298" rx="8"/><path class="cls-7" d="M217,109.87a7.0079,7.0079,0,0,1,7,7v.73a7,7,0,1,1-14,0v-.73a7.0079,7.0079,0,0,1,7-7m0-1a8.0236,8.0236,0,0,0-8,8v.73a8,8,0,1,0,16,0v-.73a8.0236,8.0236,0,0,0-8-8Z"/><rect class="cls-5" x="283" y="83.7754" width="16" height="16.7298" rx="8"/><path class="cls-8" d="M291,84.7754a7.0079,7.0079,0,0,1,7,7v.73a7,7,0,0,1-14,0v-.73a7.0079,7.0079,0,0,1,7-7m0-1a8.0236,8.0236,0,0,0-8,8v.73a8,8,0,0,0,16,0v-.73a8.0236,8.0236,0,0,0-8-8Z"/><circle class="cls-3" cx="291" cy="909" r="35"/><path class="cls-9" d="M291,875a34,34,0,1,1-34,34,34.0385,34.0385,0,0,1,34-34m0-1a35,35,0,1,0,35,35,35,35,0,0,0-35-35Z"/><path class="cls-10" d="M429.041,172.6631h2.4131v16.6723h7.9893v2.025H429.041Z"/><path class="cls-10" d="M453.8135,184.5361c0,4.9659-3.44,7.1294-6.6856,7.1294-3.6347,0-6.4365-2.6631-6.4365-6.9072,0-4.4941,2.9414-7.1294,6.6582-7.1294C451.2051,177.6289,453.8135,180.4307,453.8135,184.5361Zm-10.6524.1387c0,2.94,1.6914,5.16,4.0772,5.16,2.33,0,4.0781-2.1914,4.0781-5.2149,0-2.2749-1.1377-5.16-4.0225-5.16S443.1611,182.1226,443.1611,184.6748Z"/></g><g id="snap_personer" data-name="snap personer"><rect class="cls-11" x="79.5" y="154.5" width="422" height="695"/><path class="cls-12" d="M161.6566,696.2108c3.4768,0,6.2952,4.51,6.2952,10.0723s-2.8184,10.0723-6.2952,10.0723-6.2952-4.51-6.2952-10.0723,2.8185-10.0723,6.2952-10.0723"/><path class="cls-12" d="M400.8735,693.6928c3.4767,0,6.2952,4.51,6.2952,10.0723s-2.8185,10.0722-6.2952,10.0722-6.2952-4.51-6.2952-10.0722,2.8185-10.0723,6.2952-10.0723"/><path class="cls-12" d="M463.8253,404.1145c0,93.1764-81.3873,137.2349-182.56,137.2349S97.4458,497.2909,97.4458,404.1145s82.0168-168.7109,183.19-168.7109S463.8253,310.938,463.8253,404.1145Z"/><rect x="230.9036" y="711.3193" width="20.1446" height="114.5723"/><rect x="310.2229" y="711.3193" width="20.1446" height="114.5723"/><rect class="cls-13" x="232.1627" y="825.8916" width="27.6988" height="15.1084" rx="6"/><rect class="cls-13" x="230.9036" y="825.8916" width="8.8133" height="15.1084"/><rect class="cls-13" x="311.4819" y="825.8916" width="27.6988" height="15.1084" rx="6"/><rect class="cls-13" x="310.2229" y="825.8916" width="8.8133" height="15.1084"/><path class="cls-14" d="M366.413,711.3193H194.8581a1.6111,1.6111,0,0,1-1.7256-1.464V529.56a1.6972,1.6972,0,0,1,2.2225-1.4017c50.0835,12.2452,155.3471,2.2652,170.858.699a1.6433,1.6433,0,0,1,1.9256,1.4542V709.8553A1.6111,1.6111,0,0,1,366.413,711.3193Z"/><rect class="cls-15" x="193.1325" y="547.6446" width="175.006" height="10.0723"/><rect class="cls-15" x="193.1325" y="569.0482" width="175.006" height="10.0723"/><rect class="cls-15" x="193.1325" y="613.1145" width="175.006" height="10.0723"/><rect class="cls-15" x="193.1325" y="634.5181" width="175.006" height="10.0723"/><rect class="cls-15" x="193.1325" y="654.6627" width="175.006" height="10.0723"/><rect class="cls-15" x="193.1325" y="673.5482" width="175.006" height="10.0723"/><rect class="cls-15" x="193.1325" y="693.6928" width="175.006" height="10.0723"/><rect class="cls-15" x="193.1325" y="591.7108" width="175.006" height="10.0723"/><path class="cls-16" d="M400.8735,703.7651c-.3921-65.3784-15.1545-118.1952-33.006-118.0881"/><path class="cls-16" d="M161.3856,703.7651c.3921-65.3784,15.1545-118.1952,33.006-118.0881"/><path class="cls-17" d="M168.5813,377.0452c-4.8643,9.4957,45.7889-75.3561,100.7229-3.7771"/><path class="cls-17" d="M251.6777,475.25c-4.8643,9.4957,45.7888-75.3561,100.7229-3.7771"/><path class="cls-17" d="M327.22,374.5271c-4.8644,9.4957,45.7888-75.3561,100.7229-3.7771"/><ellipse class="cls-18" cx="172.3584" cy="285.7651" rx="25.8102" ry="12.5904"/><ellipse class="cls-18" cx="189.9849" cy="260.5843" rx="25.8102" ry="12.5904"/><ellipse class="cls-18" cx="184.9488" cy="273.1747" rx="25.8102" ry="12.5904"/><ellipse class="cls-18" cx="163.5452" cy="264.3614" rx="25.8102" ry="12.5904"/><ellipse class="cls-18" cx="145.9187" cy="281.988" rx="25.8102" ry="12.5904"/><ellipse class="cls-18" cx="137.1054" cy="295.8373" rx="25.8102" ry="12.5904"/><ellipse class="cls-18" cx="137.1054" cy="309.6867" rx="25.8102" ry="12.5904"/><ellipse class="cls-18" cx="168.5813" cy="304.6506" rx="25.8102" ry="12.5904"/><ellipse class="cls-18" cx="200.0572" cy="297.0964" rx="25.8102" ry="12.5904"/><ellipse class="cls-18" cx="168.5813" cy="254.2892" rx="25.8102" ry="12.5904"/><ellipse class="cls-18" cx="198.7982" cy="281.988" rx="25.8102" ry="12.5904"/><ellipse class="cls-18" cx="216.4247" cy="266.8795" rx="25.8102" ry="12.5904"/><path class="cls-19" d="M448.7169,297.0964c0,4.5234-1.971,8.1837-4.4067,8.1837"/><ellipse class="cls-18" cx="225.238" cy="247.994" rx="25.8102" ry="12.5904"/><ellipse class="cls-18" cx="250.4187" cy="239.1807" rx="25.8102" ry="12.5904"/><ellipse class="cls-18" cx="259.2319" cy="226.5904" rx="25.8102" ry="12.5904"/><ellipse class="cls-18" cx="295.744" cy="229.1084" rx="25.8102" ry="12.5904"/><ellipse class="cls-18" cx="286.9307" cy="247.994" rx="25.8102" ry="12.5904"/><ellipse class="cls-18" cx="220.2018" cy="235.4036" rx="25.8102" ry="12.5904"/><ellipse class="cls-18" cx="193.762" cy="241.6988" rx="25.8102" ry="12.5904"/><ellipse class="cls-18" cx="255.4548" cy="260.5843" rx="25.8102" ry="12.5904"/><ellipse class="cls-18" cx="245.3825" cy="276.9518" rx="25.8102" ry="12.5904"/><ellipse class="cls-18" cx="229.0151" cy="289.5422" rx="25.8102" ry="12.5904"/><ellipse class="cls-18" cx="310.8524" cy="295.8373" rx="25.8102" ry="12.5904"/><ellipse class="cls-18" cx="285.6717" cy="273.1747" rx="25.8102" ry="12.5904"/><ellipse class="cls-18" cx="324.7018" cy="235.4036" rx="25.8102" ry="12.5904"/><ellipse class="cls-18" cx="351.1416" cy="247.994" rx="25.8102" ry="12.5904"/><ellipse class="cls-18" cx="317.1476" cy="256.8072" rx="25.8102" ry="12.5904"/><ellipse class="cls-18" cx="353.6596" cy="260.5843" rx="25.8102" ry="12.5904"/><ellipse class="cls-18" cx="317.1476" cy="276.9518" rx="25.8102" ry="12.5904"/><ellipse class="cls-18" cx="295.744" cy="251.7711" rx="25.8102" ry="12.5904"/><ellipse class="cls-18" cx="354.9187" cy="273.1747" rx="25.8102" ry="12.5904"/><ellipse class="cls-18" cx="390.1717" cy="256.8072" rx="25.8102" ry="12.5904"/><ellipse class="cls-18" cx="449.3464" cy="292.0602" rx="25.8102" ry="12.5904"/><ellipse class="cls-18" cx="390.1717" cy="273.1747" rx="25.8102" ry="12.5904"/><ellipse class="cls-18" cx="416.6114" cy="273.1747" rx="25.8102" ry="12.5904"/><ellipse class="cls-18" cx="356.1777" cy="273.1747" rx="25.8102" ry="12.5904"/><ellipse class="cls-18" cx="268.0452" cy="289.5422" rx="25.8102" ry="12.5904"/><ellipse class="cls-18" cx="391.4307" cy="294.5783" rx="25.8102" ry="12.5904"/><ellipse class="cls-18" cx="376.3223" cy="292.0602" rx="25.8102" ry="12.5904"/><ellipse class="cls-18" cx="356.1777" cy="294.5783" rx="25.8102" ry="12.5904"/><ellipse class="cls-18" cx="337.2922" cy="295.8373" rx="25.8102" ry="12.5904"/><ellipse class="cls-18" cx="317.1476" cy="292.0602" rx="25.8102" ry="12.5904"/><ellipse class="cls-18" cx="274.3404" cy="289.5422" rx="25.8102" ry="12.5904"/><ellipse class="cls-18" cx="435.497" cy="289.5422" rx="25.8102" ry="12.5904"/><ellipse class="cls-18" cx="439.2741" cy="285.7651" rx="25.8102" ry="12.5904"/><ellipse class="cls-18" cx="441.7922" cy="304.6506" rx="25.8102" ry="12.5904"/><ellipse class="cls-18" cx="302.0392" cy="279.4699" rx="25.8102" ry="12.5904"/><ellipse class="cls-18" cx="420.3886" cy="295.8373" rx="25.8102" ry="12.5904"/><ellipse class="cls-18" cx="416.6114" cy="292.0602" rx="25.8102" ry="12.5904"/><path class="cls-19" d="M448.7169,297.0964c0,4.5234-1.971,8.1837-4.4067,8.1837"/><path class="cls-19" d="M416.16,286.0423c4.0352,2.0441,6.41,5.4565,5.3091,7.6293"/><path class="cls-19" d="M400.8735,285.7651c0,4.5234-1.9709,8.1837-4.4066,8.1837"/><path class="cls-19" d="M366.88,281.988c0,4.5234-1.9709,8.1837-4.4066,8.1837"/><path class="cls-19" d="M323.7715,287.5972c3.0643-3.3274,6.9936-4.6848,8.7853-3.0348"/><path class="cls-19" d="M319.0361,251.7711c0,4.5234-1.9709,8.1837-4.4066,8.1837"/><path class="cls-19" d="M276.4185,282.3086c2.18-3.9637,5.67-6.2215,7.8045-5.0479"/><path class="cls-19" d="M255.3265,268.8836c0,.2663,5.5018.4818,12.3009.4818"/><path class="cls-19" d="M194.3916,264.3614c0,4.5235-1.971,8.1838-4.4067,8.1838"/><path class="cls-19" d="M167.9518,292.06c0,4.5235-1.9709,8.1838-4.4066,8.1838"/><path class="cls-19" d="M230.9036,278.2108c0,4.5235-1.9709,8.1838-4.4066,8.1838"/><path class="cls-19" d="M238.4578,242.9578c0,4.5235-1.9709,8.1838-4.4066,8.1838"/><path class="cls-19" d="M275.766,243.6084c4.3294-1.3106,8.4038-.4848,9.1095,1.8464"/></g></svg>
