<svg id="Layer_1" data-name="Layer 1" xmlns="http://www.w3.org/2000/svg" width="1920" height="1080" viewBox="0 0 1920 1080"><defs><style>.cls-1{fill:#ccc;}.cls-1,.cls-16,.cls-17{stroke:#333;}.cls-1,.cls-14,.cls-16,.cls-17,.cls-2,.cls-3,.cls-8{stroke-miterlimit:10;}.cls-14,.cls-16,.cls-17,.cls-2,.cls-3,.cls-8{fill:none;}.cls-14,.cls-2,.cls-3{stroke:#ffcd9f;}.cls-17,.cls-2{stroke-width:13px;}.cls-14,.cls-3{stroke-linecap:round;}.cls-3{stroke-width:12px;}.cls-4{fill:#fbe3a9;}.cls-5{fill:#ffcd9f;}.cls-6{fill:#c69c6d;}.cls-7{fill:#a54033;}.cls-8{stroke:#754c24;}.cls-9{fill:#333;}.cls-10{fill:#fff;}.cls-11{fill:#754c24;}.cls-12{fill:#ffb8c1;}.cls-13{fill:#c7b299;}.cls-14{stroke-width:11px;}.cls-15{fill:#70a8c6;}.cls-16{stroke-width:32px;}</style></defs><title>fængsel</title><rect class="cls-1" x="-0.5" width="1920" height="1079.5" rx="12" ry="12"/><line class="cls-2" x1="968.23" y1="874.49" x2="963.38" y2="957.21"/><line class="cls-3" x1="922.26" y1="896.68" x2="924.76" y2="961.02"/><path class="cls-4" d="M893.61,772l-25.24-137.2c0-47,32.77-88.65,85.12-88.65h0c52.35,0,79.32,38.14,79.32,85.18l-21.22,142.35"/><path class="cls-5" d="M978.64,733.85H924.47V706h54.17v27.81Z"/><path class="cls-6" d="M924.74,715.54c9,.39,18,2.63,27,2.58,4.53,0,9,.89,13.54.25s9-2.4,13.29-4.1c.6-.23-.54-4.78,0-5-4.3,1.7-8.68,3.45-13.29,4.1s-9-.28-13.54-.25c-9,0-18-2.19-27-2.58,0,0-.11,5,0,5Z"/><path class="cls-5" d="M1019.26,638.09c0,43.68-24,78.38-63.84,78.38s-63.83-34.7-63.83-78.38,24-79.8,63.83-79.8S1019.26,594.41,1019.26,638.09Z"/><path class="cls-7" d="M979.15,688c0,4.32-13.5,7.6-27.14,7.6s-26.16-2.2-26.16-6.52S938.37,680,952,680,979.15,683.69,979.15,688Z"/><path class="cls-8" d="M942,671.28c23.21,1.73,3.87-12.17,5.8-29.55"/><ellipse class="cls-9" cx="925.44" cy="636.51" rx="4.84" ry="5.21"/><ellipse class="cls-10" cx="926.41" cy="638.25" rx="0.97" ry="0.87"/><ellipse class="cls-9" cx="973.8" cy="636.51" rx="4.84" ry="5.21"/><ellipse class="cls-10" cx="974.77" cy="638.25" rx="0.97" ry="0.87"/><path class="cls-11" d="M933.94,626c-.49-.84-10.79-1.53-19.38,6.61"/><path class="cls-11" d="M965,628.1c.35-.9,10.43-3.08,20.15,3.73"/><path class="cls-4" d="M980.57,553.07l-53,6.26c-10.59,0-38.52,24.2-38.52,33.38l-16.85,43.8"/><path class="cls-4" d="M924.47,553.07l69.65,8c11.41,0,29,52.29,29,61.53l3.87,41.72"/><path class="cls-4" d="M945.75,573.93c0,16.34,6.06,29.55,13.54,29.55"/><path class="cls-4" d="M944.88,574.55c-5.15,15.67-3.5,29.89,3.68,31.79"/><path class="cls-12" d="M977.88,910.17H924c-11.13,0-32-6.31-32-15.76l11.8-148.53c0-9.45,9.1-17.19,20.23-17.19h53.93c11.12,0,20.22,7.74,20.22,17.19l13.49,150C1011.59,905.3,989,910.17,977.88,910.17Z"/><path class="cls-12" d="M863.89,804.2h0a13.64,13.64,0,0,0,17.42-3.57l37.33-50.06a10.54,10.54,0,0,0-3.06-15.69h0a13.64,13.64,0,0,0-17.42,3.57l-37.33,50.06A10.54,10.54,0,0,0,863.89,804.2Z"/><path class="cls-12" d="M1041.15,799.24h0a13.64,13.64,0,0,1-17.67-2l-41.67-46.52a10.53,10.53,0,0,1,1.64-15.89h0a13.63,13.63,0,0,1,17.67,2l41.67,46.51A10.55,10.55,0,0,1,1041.15,799.24Z"/><ellipse class="cls-5" cx="829.47" cy="730.8" rx="11.33" ry="17.8" transform="translate(-258.59 535.3) rotate(-31.2)"/><ellipse class="cls-5" cx="1073.06" cy="745.24" rx="17.7" ry="11.4" transform="translate(-76.16 1366.64) rotate(-63.18)"/><path class="cls-12" d="M1024.45,799.38h0a12.55,12.55,0,0,0,16.34-1.31L1069,767.39a9.79,9.79,0,0,0-1.61-14.7h0a12.55,12.55,0,0,0-16.34,1.31l-28.22,30.68A9.78,9.78,0,0,0,1024.45,799.38Z"/><path class="cls-12" d="M864.1,795h0a12.53,12.53,0,0,1-15.27-5.94L830.6,751.6A9.77,9.77,0,0,1,836.35,738h0c5.79-2.11,12.66.56,15.27,5.94l18.24,37.49A9.78,9.78,0,0,1,864.1,795Z"/><line class="cls-3" x1="956.11" y1="998.47" x2="963.75" y2="953.3"/><path class="cls-13" d="M947.37,1028.61l35,3.79c4.33.5,8.53-4.45,9.32-11l.13-1c.8-6.54-2.1-12.31-6.43-12.8l-35.67-2.43"/><line class="cls-14" x1="924.22" y1="960.48" x2="919.66" y2="998.85"/><path class="cls-13" d="M900.06,1020.3l36.06,14.37c4.47,1.81,10.22-1.54,12.79-7.45l.41-.93c2.56-5.91,1-12.22-3.45-14L908.69,999"/><path class="cls-15" d="M903.45,650.39c-2.06,3.58-2.29,6.1.65,7.8s7,.17,9.07-3.41,8.17-10.62,5.23-12.32S905.52,646.82,903.45,650.39Z"/><path class="cls-15" d="M995.94,650.39c2.07,3.58,2.29,6.1-.65,7.8s-7,.17-9.06-3.41-8.17-10.62-5.23-12.32S993.88,646.82,995.94,650.39Z"/><line class="cls-16" x1="433.07" y1="66.35" x2="1523.84" y2="66.35"/><line class="cls-16" x1="433.07" y1="1053.57" x2="1523.84" y2="1053.57"/><line class="cls-17" x1="449.74" y1="86.85" x2="449.74" y2="1053.57"/><line class="cls-17" x1="538.82" y1="72.83" x2="538.82" y2="1039.54"/><line class="cls-17" x1="628.41" y1="72.83" x2="628.41" y2="1039.54"/><line class="cls-17" x1="710.71" y1="72.83" x2="710.71" y2="1039.54"/><line class="cls-17" x1="802.39" y1="78.22" x2="802.39" y2="1044.94"/><line class="cls-17" x1="891.99" y1="69.59" x2="891.99" y2="1036.3"/><line class="cls-17" x1="978.46" y1="76.06" x2="978.46" y2="1042.78"/><line class="cls-17" x1="1078.47" y1="74.99" x2="1078.47" y2="1041.7"/><line class="cls-17" x1="1180.57" y1="85.77" x2="1180.57" y2="1052.49"/><line class="cls-17" x1="1288.92" y1="86.85" x2="1288.92" y2="1053.57"/><line class="cls-17" x1="1403.51" y1="82.54" x2="1403.51" y2="1049.25"/><line class="cls-17" x1="1503.53" y1="65.27" x2="1503.53" y2="1031.99"/><rect class="cls-10" x="462.24" y="98.72" width="1032.43" height="441.28" rx="12" ry="12"/><path d="M507.26,124.17l3.37,1.76-3.29,6.32a61.09,61.09,0,0,1,1.52,14.51q0,3.5-.17,6.12c-.12,1.75-.28,3.29-.49,4.63a17.35,17.35,0,0,1-2.14,6.41q-2.65,4.29-8.31,4.29c-3.57,0-6.32-1.18-8.25-3.52l-2.31,4.48-3.28-1.68,3.6-6.93q-1.61-5.16-1.6-15.55,0-11.12,2.57-15.7t8.82-4.62a9.74,9.74,0,0,1,7.9,3.38Zm-5.85,9.1a3.87,3.87,0,0,0-4.09-3.41,4.06,4.06,0,0,0-4.16,3.16q-1,3.3-1,12.84,0,2.14.06,3.93c0,1.19.09,2.26.17,3.21Zm-8.17,26.41q1.23,3.25,4.31,3.25a4,4,0,0,0,4-3.08q1.08-3.27,1.09-11.33l-.18-7.5v-1Z"/><path d="M511.6,139.23h5.85l2.14,9q.66,2.75,1.11,5.81c.31,2.05.55,4.28.74,6.7a9.07,9.07,0,0,0,.18-1l.65-4.24c.25-1.61.73-4,1.46-7.28l2-9H531l-7.71,28.45h-3.68Z"/><path d="M534,161.75l4.74,1.34L533,178l-3-.8Z"/><path d="M573.37,121v46.7h-5.45V164a9.24,9.24,0,0,1-2.35,3.21,5,5,0,0,1-3.11.88,5.62,5.62,0,0,1-5.36-3.61q-1.71-3.62-1.72-11.37a43,43,0,0,1,.43-6.46,16,16,0,0,1,1.3-4.48,5.65,5.65,0,0,1,5.5-3.43,5,5,0,0,1,3,.82,5.37,5.37,0,0,1,1.17,1.1,11.42,11.42,0,0,1,1.18,1.76V121ZM561,153.33c0,3.74.25,6.35.77,7.84a2.86,2.86,0,0,0,2.79,2.22c1.22,0,2.11-.77,2.66-2.3a25.89,25.89,0,0,0,.83-7.62,26,26,0,0,0-.83-7.64c-.55-1.54-1.44-2.31-2.66-2.31a2.89,2.89,0,0,0-2.77,2.2C561.3,147.08,561,149.61,561,153.33Z"/><path d="M579.56,139.23H585v19a7.28,7.28,0,0,0,.82,3.77,2.81,2.81,0,0,0,2.52,1.13,3,3,0,0,0,2.6-1,6.6,6.6,0,0,0,.74-3.63v-19.3h5.45v17q0,6-.91,8c-1.27,2.6-3.92,3.9-7.93,3.9q-4.74,0-6.74-2.31c-1.33-1.55-2-4.15-2-7.78Z"/><path d="M626.83,158.09h5.08q-.6,10-8.56,10a9,9,0,0,1-4.07-.85,7,7,0,0,1-2.81-2.64,13.28,13.28,0,0,1-1.64-4.53,35.46,35.46,0,0,1-.53-6.55q0-7.53,2.18-11.16a7.35,7.35,0,0,1,6.75-3.62q8.88,0,8.88,15.06v.66H619.64q0,9.12,3.76,9.12Q626.84,163.61,626.83,158.09Zm-.29-7.39a18.61,18.61,0,0,0-1-5.89,2.5,2.5,0,0,0-2.4-1.56,2.47,2.47,0,0,0-2.4,1.56,18.92,18.92,0,0,0-1.05,5.89Z"/><path d="M637,139.23h5.46v3.27c1.56-2.49,3.57-3.73,6.05-3.73a5.41,5.41,0,0,1,5.13,2.72c.58,1,.86,3,.86,6v20.23H649l0-19a8.61,8.61,0,0,0-.71-4.09,2.62,2.62,0,0,0-2.46-1.21,3.56,3.56,0,0,0-1.58.31,2.38,2.38,0,0,0-1,1,5.39,5.39,0,0,0-.59,1.83,17.9,17.9,0,0,0-.18,2.77v18.39H637Z"/><path d="M677.5,121v46.7H672V164a9.12,9.12,0,0,1-2.34,3.21,5,5,0,0,1-3.11.88,5.62,5.62,0,0,1-5.36-3.61q-1.72-3.62-1.72-11.37a43,43,0,0,1,.43-6.46,16,16,0,0,1,1.3-4.48,5.65,5.65,0,0,1,5.5-3.43,5,5,0,0,1,3,.82,5.86,5.86,0,0,1,1.17,1.1,10.74,10.74,0,0,1,1.17,1.76V121Zm-12.33,32.35c0,3.74.25,6.35.77,7.84a2.86,2.86,0,0,0,2.79,2.22c1.22,0,2.11-.77,2.66-2.3a25.89,25.89,0,0,0,.83-7.62,26,26,0,0,0-.83-7.64c-.55-1.54-1.44-2.31-2.66-2.31a2.89,2.89,0,0,0-2.77,2.2C665.43,147.08,665.17,149.61,665.17,153.33Z"/><path d="M684.35,131.26h5.45v8h3v4.18h-3v24.27h-5.45V143.41h-3v-4.18h3Z"/><path d="M708,158.09h5.08q-.6,10-8.56,10a9,9,0,0,1-4.07-.85,7,7,0,0,1-2.81-2.64A13.28,13.28,0,0,1,696,160.1a34.61,34.61,0,0,1-.53-6.55q0-7.53,2.18-11.16a7.35,7.35,0,0,1,6.75-3.62q8.88,0,8.88,15.06v.66H700.85q0,9.12,3.76,9.12Q708,163.61,708,158.09Zm-.29-7.39a18.92,18.92,0,0,0-1-5.89,2.5,2.5,0,0,0-2.4-1.56,2.47,2.47,0,0,0-2.4,1.56,18.61,18.61,0,0,0-1,5.89Z"/><path d="M732.84,127.14a3.6,3.6,0,0,1,2.57,1,3.45,3.45,0,0,1,0,5,3.81,3.81,0,0,1-5.25,0,3.4,3.4,0,0,1-1.06-2.55,3.35,3.35,0,0,1,1.09-2.48A3.89,3.89,0,0,1,732.84,127.14Zm-2.57,12.09h5.49v28.45h-5.49Z"/><path d="M751.91,139.23h2.74v-9.92q0-4.86,1.49-6.87c1-1.34,2.71-2,5.16-2a11.52,11.52,0,0,1,3.71.74v5.56a5.07,5.07,0,0,0-2.31-.69,2.3,2.3,0,0,0-2,.8,4.67,4.67,0,0,0-.59,2.69l0,2.14v7.56h4.63v4.18H760.1v24.27h-5.45V143.41h-2.74Z"/><path d="M768.67,145.53V140.2a13.46,13.46,0,0,1,5.93-1.43,9.45,9.45,0,0,1,4.31.82,6.78,6.78,0,0,1,2.69,2.83,7.07,7.07,0,0,1,6.36-3.65q8.68,0,8.68,13.74l0,2.06H784.42a33.74,33.74,0,0,0,.22,4.22,11.91,11.91,0,0,0,.65,2.86,3.54,3.54,0,0,0,1.16,1.62,2.91,2.91,0,0,0,1.74.51,2.74,2.74,0,0,0,2.37-1.31,6.09,6.09,0,0,0,.88-3.47c0-.13,0-.28,0-.44s0-.37,0-.61h5.22a19.85,19.85,0,0,1-.71,4.57,8.84,8.84,0,0,1-1.61,3.17,6.29,6.29,0,0,1-2.57,1.84,9.83,9.83,0,0,1-3.59.59q-5.16,0-7-4.42a8.1,8.1,0,0,1-2.59,3.43,7.1,7.1,0,0,1-3.94,1q-7.34,0-7.34-8.88,0-9.88,7.28-9.89a5.91,5.91,0,0,1,4.65,1.84c0-.68-.07-1.22-.1-1.62s0-.67,0-.8a5.23,5.23,0,0,0-1.13-3.74,4.91,4.91,0,0,0-3.64-1.15A10.76,10.76,0,0,0,768.67,145.53Zm10.84,13.25q0-5.31-3.42-5.31t-3.43,4.92c0,3.69,1.13,5.53,3.37,5.53S779.51,162.2,779.51,158.78Zm11.62-8v-1.29q0-6.35-3.28-6.35t-3.34,6.32l.06,1.32Z"/><path d="M801.72,139.23h5.45v3.27q2.34-3.74,6.05-3.73a5.42,5.42,0,0,1,5.14,2.72q.85,1.53.86,6v20.23h-5.45l0-19a8.46,8.46,0,0,0-.72-4.09,2.6,2.6,0,0,0-2.45-1.21,3.61,3.61,0,0,0-1.59.31,2.48,2.48,0,0,0-1,1,5.63,5.63,0,0,0-.58,1.83,16.61,16.61,0,0,0-.19,2.77v18.39h-5.45Z"/><path d="M836.83,139.23h5.48v29.36c0,3.52-.36,5.95-1.08,7.31q-2,3.73-8,3.74a8.61,8.61,0,0,1-6.23-2.17,7.84,7.84,0,0,1-2.28-5.91l0-.88H830q0,4.53,3.51,4.53a2.78,2.78,0,0,0,2.6-1.15c.47-.73.71-2.19.71-4.37v-5.47q-1.74,3.9-5.34,3.9a5.76,5.76,0,0,1-5.46-3.46q-1.75-3.47-1.76-10.83c0-5.21.56-9,1.69-11.52a5.66,5.66,0,0,1,5.5-3.54,4.82,4.82,0,0,1,3,.85,10.11,10.11,0,0,1,2.4,3Zm.09,14.49q0-10.2-3.66-10.2c-1.16,0-2,.77-2.54,2.3a24.43,24.43,0,0,0-.8,7.35,27.53,27.53,0,0,0,.83,7.89c.57,1.56,1.52,2.33,2.85,2.33a2.63,2.63,0,0,0,2.6-2.08C836.68,160,836.92,157.48,836.92,153.72Z"/><path d="M859.89,139.81v4.92a7.11,7.11,0,0,0-4.19-1.43,3.59,3.59,0,0,0-1.37.25,3.49,3.49,0,0,0-1.1.67,3.26,3.26,0,0,0-.74,1,3,3,0,0,0-.27,1.25q0,2,3.82,4.84a27.89,27.89,0,0,1,2.57,2.14,9.91,9.91,0,0,1,1.57,1.87,8,8,0,0,1,1.11,4.37,7.9,7.9,0,0,1-8.45,8.41,9.89,9.89,0,0,1-4.79-1.34v-5.09a7.74,7.74,0,0,0,4.48,1.7q3.74,0,3.74-3.54a3.8,3.8,0,0,0-.69-2.28,6.18,6.18,0,0,0-1-1.09c-.45-.41-1-.87-1.68-1.39a22,22,0,0,1-4.68-4.34,7.75,7.75,0,0,1-1.2-4.37,7.59,7.59,0,0,1,2.2-5.63,7.92,7.92,0,0,1,5.79-2.18A10.46,10.46,0,0,1,859.89,139.81Z"/><path d="M865.66,121h5.45v46.7h-5.45Z"/><path d="M888.72,158.09h5.08q-.6,10-8.56,10a9,9,0,0,1-4.07-.85,7,7,0,0,1-2.81-2.64,13.28,13.28,0,0,1-1.64-4.53,35.46,35.46,0,0,1-.53-6.55q0-7.53,2.19-11.16a7.33,7.33,0,0,1,6.75-3.62q8.86,0,8.87,15.06v.66H881.53q0,9.12,3.77,9.12Q888.72,163.61,888.72,158.09Zm-.28-7.39q-.35-4.48-1.06-5.89a2.48,2.48,0,0,0-2.4-1.56,2.44,2.44,0,0,0-2.39,1.56q-.72,1.41-1.06,5.89Z"/><path d="M899.51,131.26H905v8h3v4.18h-3v24.27h-5.46V143.41h-3v-4.18h3Z"/><path d="M913.5,161.75l4.74,1.34L912.59,178l-3-.8Z"/><path d="M934,139.23h2.74v-9.92q0-4.86,1.48-6.87t5.17-2a11.57,11.57,0,0,1,3.71.74v5.56a5.14,5.14,0,0,0-2.31-.69,2.31,2.31,0,0,0-2,.8,4.68,4.68,0,0,0-.58,2.69l0,2.14v7.56h4.62v4.18h-4.62v24.27h-5.45V143.41H934Z"/><path d="M967.88,153.69q0,14.43-9.28,14.43t-9.28-14.65q0-14.7,9.25-14.7a9.1,9.1,0,0,1,4.15.88,7.12,7.12,0,0,1,2.9,2.72,13.84,13.84,0,0,1,1.7,4.64A34.88,34.88,0,0,1,967.88,153.69Zm-5.66-.14c0-3.73-.25-6.34-.77-7.8a2.8,2.8,0,0,0-2.74-2.23,2.87,2.87,0,0,0-2.76,2.2,25.86,25.86,0,0,0-.78,7.67A25.54,25.54,0,0,0,956,161a2.87,2.87,0,0,0,2.76,2.2,2.79,2.79,0,0,0,2.72-2.17Q962.23,159,962.22,153.55Z"/><path d="M973,139.23h5.45v3.55a10,10,0,0,1,2.77-3.16,7.31,7.31,0,0,1,3.62-1.05v5.5a7.69,7.69,0,0,0-1-.08c-2,0-3.36.48-4.19,1.46s-1.23,2.62-1.23,5v17.23H973Z"/><path d="M1005.78,121v46.7h-5.45V164a9.12,9.12,0,0,1-2.34,3.21,5,5,0,0,1-3.11.88,5.64,5.64,0,0,1-5.37-3.61q-1.71-3.62-1.71-11.37a41.68,41.68,0,0,1,.43-6.46,15.62,15.62,0,0,1,1.3-4.48,6.09,6.09,0,0,1,2.24-2.6,6.18,6.18,0,0,1,3.25-.83,5,5,0,0,1,3,.82,5.86,5.86,0,0,1,1.17,1.1,10.74,10.74,0,0,1,1.17,1.76V121Zm-12.33,32.35a27.35,27.35,0,0,0,.77,7.84,2.88,2.88,0,0,0,2.8,2.22c1.22,0,2.1-.77,2.65-2.3a25.55,25.55,0,0,0,.83-7.62,25.66,25.66,0,0,0-.83-7.64c-.55-1.54-1.43-2.31-2.65-2.31a2.88,2.88,0,0,0-2.77,2.2C993.72,147.08,993.45,149.61,993.45,153.33Z"/><path d="M1014.55,127.14a3.61,3.61,0,0,1,2.57,1,3.47,3.47,0,0,1,0,5,3.82,3.82,0,0,1-5.26,0,3.39,3.39,0,0,1-1.05-2.55,3.34,3.34,0,0,1,1.08-2.48A3.92,3.92,0,0,1,1014.55,127.14ZM1012,139.23h5.48v28.45H1012Z"/><path d="M1052.57,121v46.7h-5.45V164a9.37,9.37,0,0,1-2.34,3.21,5.06,5.06,0,0,1-3.12.88,5.62,5.62,0,0,1-5.36-3.61q-1.71-3.62-1.72-11.37a43,43,0,0,1,.43-6.46,16,16,0,0,1,1.3-4.48,5.65,5.65,0,0,1,5.5-3.43,5.07,5.07,0,0,1,3,.82,5.86,5.86,0,0,1,1.17,1.1,12.2,12.2,0,0,1,1.17,1.76V121Zm-12.33,32.35c0,3.74.25,6.35.77,7.84a2.86,2.86,0,0,0,2.79,2.22c1.22,0,2.11-.77,2.66-2.3a25.89,25.89,0,0,0,.83-7.62,26,26,0,0,0-.83-7.64c-.55-1.54-1.44-2.31-2.66-2.31a2.87,2.87,0,0,0-2.76,2.2C1040.5,147.08,1040.24,149.61,1040.24,153.33Z"/><path d="M1058.76,139.23h5.45v19A7.28,7.28,0,0,0,1065,162a2.81,2.81,0,0,0,2.52,1.13,3,3,0,0,0,2.6-1,6.52,6.52,0,0,0,.74-3.63v-19.3h5.45v17q0,6-.91,8c-1.27,2.6-3.92,3.9-7.93,3.9q-4.74,0-6.74-2.31c-1.33-1.55-2-4.15-2-7.78Z"/><path d="M1097.18,127.14a3.6,3.6,0,0,1,2.57,1,3.45,3.45,0,0,1,0,5,3.81,3.81,0,0,1-5.25,0,3.37,3.37,0,0,1-1.06-2.55,3.31,3.31,0,0,1,1.09-2.48A3.89,3.89,0,0,1,1097.18,127.14Zm-2.57,12.09h5.48v28.45h-5.48Z"/><path d="M1106.23,121h5.45V151.9l6.94-12.67h6.16l-7.53,12.67,8.53,15.78h-6.39l-7.71-15.12v15.12h-5.45Z"/><path d="M1129.09,121h5.46V151.9l6.93-12.67h6.17l-7.54,12.67,8.54,15.78h-6.4l-7.7-15.12v15.12h-5.46Z"/><path d="M1162.49,158.09h5.08q-.6,10-8.56,10a9,9,0,0,1-4.07-.85,7,7,0,0,1-2.81-2.64,13.28,13.28,0,0,1-1.64-4.53,35.46,35.46,0,0,1-.53-6.55q0-7.53,2.18-11.16a7.35,7.35,0,0,1,6.76-3.62q8.86,0,8.87,15.06v.66H1155.3q0,9.12,3.77,9.12Q1162.49,163.61,1162.49,158.09Zm-.28-7.39q-.35-4.48-1.06-5.89a2.63,2.63,0,0,0-4.8,0,18.92,18.92,0,0,0-1,5.89Z"/><path d="M1185.38,131.26h5.46v8h3v4.18h-3v24.27h-5.46V143.41h-3v-4.18h3Z"/><path d="M1215,153.69q0,14.43-9.28,14.43t-9.27-14.65q0-14.7,9.25-14.7a9.13,9.13,0,0,1,4.15.88,7.18,7.18,0,0,1,2.9,2.72,13.84,13.84,0,0,1,1.69,4.64A34.09,34.09,0,0,1,1215,153.69Zm-5.65-.14a26.93,26.93,0,0,0-.77-7.8,2.82,2.82,0,0,0-2.74-2.23,2.87,2.87,0,0,0-2.77,2.2,26.3,26.3,0,0,0-.77,7.67,26,26,0,0,0,.77,7.64,2.87,2.87,0,0,0,2.77,2.2,2.78,2.78,0,0,0,2.71-2.17Q1209.38,159,1209.39,153.55Z"/><path d="M1231.57,139.23h5.48v29.36c0,3.52-.36,5.95-1.09,7.31q-2,3.73-8,3.74a8.58,8.58,0,0,1-6.22-2.17,7.84,7.84,0,0,1-2.28-5.91l0-.88h5.29q0,4.53,3.51,4.53a2.75,2.75,0,0,0,2.59-1.15c.48-.73.72-2.19.72-4.37v-5.47q-1.74,3.9-5.34,3.9a5.77,5.77,0,0,1-5.47-3.46q-1.76-3.47-1.75-10.83c0-5.21.56-9,1.68-11.52a5.67,5.67,0,0,1,5.51-3.54,4.82,4.82,0,0,1,3,.85,10.11,10.11,0,0,1,2.4,3Zm.08,14.49q0-10.2-3.65-10.2c-1.16,0-2,.77-2.54,2.3a24.43,24.43,0,0,0-.8,7.35,27.53,27.53,0,0,0,.83,7.89c.57,1.56,1.52,2.33,2.85,2.33a2.64,2.64,0,0,0,2.6-2.08C1231.42,160,1231.65,157.48,1231.65,153.72Z"/><path d="M1272.19,121v46.7h-5.46V164a9.12,9.12,0,0,1-2.34,3.21,5,5,0,0,1-3.11.88,5.62,5.62,0,0,1-5.36-3.61q-1.73-3.62-1.72-11.37a43,43,0,0,1,.43-6.46,16,16,0,0,1,1.3-4.48,5.65,5.65,0,0,1,5.5-3.43,5,5,0,0,1,3,.82,5.6,5.6,0,0,1,1.17,1.1,10.74,10.74,0,0,1,1.17,1.76V121Zm-12.33,32.35c0,3.74.25,6.35.77,7.84a2.86,2.86,0,0,0,2.79,2.22c1.22,0,2.11-.77,2.66-2.3a25.89,25.89,0,0,0,.83-7.62,26,26,0,0,0-.83-7.64c-.55-1.54-1.44-2.31-2.66-2.31a2.87,2.87,0,0,0-2.76,2.2C1260.12,147.08,1259.86,149.61,1259.86,153.33Z"/><path d="M1289.8,158.09h5.08q-.6,10-8.56,10a9,9,0,0,1-4.07-.85,7,7,0,0,1-2.81-2.64,13.07,13.07,0,0,1-1.64-4.53,34.61,34.61,0,0,1-.53-6.55q0-7.53,2.18-11.16a7.35,7.35,0,0,1,6.75-3.62q8.88,0,8.88,15.06v.66h-12.47q0,9.12,3.76,9.12Q1289.81,163.61,1289.8,158.09Zm-.29-7.39a18.92,18.92,0,0,0-1-5.89,2.5,2.5,0,0,0-2.4-1.56,2.47,2.47,0,0,0-2.4,1.56,18.61,18.61,0,0,0-1.05,5.89Z"/><path d="M1312,139.23h5.45v3.55a10,10,0,0,1,2.77-3.16,7.31,7.31,0,0,1,3.62-1.05v5.5a7.69,7.69,0,0,0-1-.08c-2,0-3.36.48-4.2,1.46s-1.22,2.62-1.22,5v17.23H1312Z"/><path d="M1330.33,127.14a3.6,3.6,0,0,1,2.57,1,3.45,3.45,0,0,1,0,5,3.81,3.81,0,0,1-5.25,0,3.37,3.37,0,0,1-1.06-2.55,3.31,3.31,0,0,1,1.09-2.48A3.89,3.89,0,0,1,1330.33,127.14Zm-2.57,12.09h5.48v28.45h-5.48Z"/><path d="M1350.83,139.23h5.48v29.36c0,3.52-.37,5.95-1.09,7.31q-2,3.73-8,3.74a8.58,8.58,0,0,1-6.22-2.17,7.85,7.85,0,0,1-2.29-5.91l0-.88H1344q0,4.53,3.51,4.53a2.75,2.75,0,0,0,2.6-1.15c.48-.73.72-2.19.72-4.37v-5.47q-1.74,3.9-5.34,3.9a5.76,5.76,0,0,1-5.47-3.46q-1.76-3.47-1.75-10.83c0-5.21.56-9,1.68-11.52a5.66,5.66,0,0,1,5.51-3.54,4.82,4.82,0,0,1,3,.85,10.11,10.11,0,0,1,2.4,3Zm.08,14.49q0-10.2-3.65-10.2c-1.16,0-2,.77-2.54,2.3a24.11,24.11,0,0,0-.8,7.35,27.17,27.17,0,0,0,.83,7.89c.57,1.56,1.52,2.33,2.85,2.33a2.64,2.64,0,0,0,2.6-2.08C1350.67,160,1350.91,157.48,1350.91,153.72Z"/><path d="M1363.13,131.26h5.45v8h3v4.18h-3v24.27h-5.45V143.41h-3v-4.18h3Z"/><path d="M1378,127.14a3.61,3.61,0,0,1,2.57,1,3.47,3.47,0,0,1,0,5,3.65,3.65,0,0,1-2.63,1,3.61,3.61,0,0,1-2.62-1,3.49,3.49,0,0,1,0-5A3.92,3.92,0,0,1,1378,127.14Zm-2.57,12.09h5.48v28.45h-5.48Z"/><path d="M1398.52,139.23H1404v29.36c0,3.52-.36,5.95-1.08,7.31-1.33,2.49-4,3.74-8,3.74a8.57,8.57,0,0,1-6.22-2.17,7.81,7.81,0,0,1-2.29-5.91l0-.88h5.28q0,4.53,3.51,4.53a2.77,2.77,0,0,0,2.6-1.15c.48-.73.71-2.19.71-4.37v-5.47q-1.74,3.9-5.33,3.9a5.76,5.76,0,0,1-5.47-3.46q-1.76-3.47-1.76-10.83c0-5.21.56-9,1.69-11.52a5.66,5.66,0,0,1,5.51-3.54,4.81,4.81,0,0,1,3,.85,9.81,9.81,0,0,1,2.4,3Zm.09,14.49q0-10.2-3.65-10.2c-1.17,0-2,.77-2.54,2.3a24.11,24.11,0,0,0-.8,7.35,27.61,27.61,0,0,0,.82,7.89c.57,1.56,1.53,2.33,2.86,2.33a2.65,2.65,0,0,0,2.6-2.08C1398.37,160,1398.61,157.48,1398.61,153.72Z"/><path d="M1421.59,158.09h5.08q-.6,10-8.56,10a9,9,0,0,1-4.07-.85,7,7,0,0,1-2.81-2.64,13.27,13.27,0,0,1-1.65-4.53,35.54,35.54,0,0,1-.52-6.55q0-7.53,2.18-11.16a7.35,7.35,0,0,1,6.75-3.62q8.88,0,8.88,15.06v.66h-12.48q0,9.12,3.77,9.12Q1421.6,163.61,1421.59,158.09Zm-.29-7.39a18.92,18.92,0,0,0-1-5.89,2.5,2.5,0,0,0-2.4-1.56,2.46,2.46,0,0,0-2.4,1.56q-.72,1.41-1.06,5.89Z"/><path d="M483.65,206.79h5.85l2.14,9q.66,2.74,1.12,5.82t.74,6.69c.11-.57.17-.9.17-1l.66-4.23c.24-1.62.73-4,1.45-7.29l2-9H503l-7.7,28.45h-3.69Z"/><path d="M523,206.79v28.45h-5.45v-3.66a9.17,9.17,0,0,1-2.34,3.22,5,5,0,0,1-3.08.88,5.66,5.66,0,0,1-5.4-3.63q-1.71-3.63-1.71-11.38,0-7.39,1.71-10.87a5.67,5.67,0,0,1,5.4-3.48q3.36,0,5.42,3.68v-3.21Zm-12.33,14.1a27.27,27.27,0,0,0,.77,7.83,2.88,2.88,0,0,0,2.8,2.23c1.22,0,2.1-.77,2.65-2.31a35.49,35.49,0,0,0,0-15.26c-.55-1.54-1.43-2.31-2.65-2.31a2.89,2.89,0,0,0-2.77,2.2Q510.72,215.31,510.71,220.89Z"/><path d="M529.24,188.53h5.45v46.71h-5.45Z"/><path d="M552.33,206.79h5.48v29.35q0,5.28-1.08,7.31c-1.34,2.5-4,3.74-8,3.74a8.58,8.58,0,0,1-6.22-2.17,7.84,7.84,0,0,1-2.28-5.91l0-.88h5.28c0,3,1.17,4.54,3.51,4.54a2.78,2.78,0,0,0,2.6-1.16c.47-.73.71-2.19.71-4.37v-5.47c-1.16,2.6-2.94,3.91-5.34,3.91a5.77,5.77,0,0,1-5.46-3.47q-1.75-3.47-1.76-10.83,0-7.8,1.68-11.52a5.67,5.67,0,0,1,5.51-3.54,4.82,4.82,0,0,1,3,.85,10.25,10.25,0,0,1,2.4,3Zm.09,14.48q0-10.2-3.66-10.2c-1.16,0-2,.77-2.54,2.3a24.43,24.43,0,0,0-.8,7.35,27.44,27.44,0,0,0,.83,7.89q.86,2.34,2.85,2.34a2.64,2.64,0,0,0,2.6-2.09Q552.42,226.91,552.42,221.27Z"/><path d="M567,228.86a3.35,3.35,0,0,1,2.43,1,3.31,3.31,0,0,1,0,4.78,3.65,3.65,0,0,1-2.49,1,3.72,3.72,0,0,1-1.38-.26,3.46,3.46,0,0,1-1.89-1.79,3.26,3.26,0,0,1-.27-1.33,3.21,3.21,0,0,1,1-2.39A3.63,3.63,0,0,1,567,228.86Z"/><path d="M588.5,192.79h5.93v42.45H588.5Z"/><path d="M598.83,206.79h2.74v-9.93q0-4.86,1.48-6.87t5.17-2a11.34,11.34,0,0,1,3.71.75v5.55a5.14,5.14,0,0,0-2.31-.69,2.32,2.32,0,0,0-2,.8,4.68,4.68,0,0,0-.58,2.69l0,2.15v7.56h4.62V211H607v24.28h-5.45V211h-2.74Z"/><path d="M631.4,205.82l2.85,1.76-2.68,4.65a28.3,28.3,0,0,1,1.2,9.45q0,14-9.28,14a7.84,7.84,0,0,1-6-2.31l-2,2.77-2.77-1.84,2.71-4.15a37.69,37.69,0,0,1-1.2-9.46c0-4.94.75-8.58,2.23-10.89s3.81-3.48,7-3.48a9,9,0,0,1,6.17,2.36Zm-5.25,7.32a2.58,2.58,0,0,0-2.72-2.07,2.76,2.76,0,0,0-2.62,2,20.92,20.92,0,0,0-.77,6.79l.08,3.71ZM620.89,229a2.77,2.77,0,0,0,2.77,2.17,2.7,2.7,0,0,0,2.66-2,26,26,0,0,0,.74-7.42l-.06-3.43Z"/><path d="M637.82,188.53h5.45v46.71h-5.45Z"/><path d="M660.91,206.79h5.48v29.35q0,5.28-1.08,7.31c-1.33,2.5-4,3.74-8,3.74a8.61,8.61,0,0,1-6.23-2.17,7.84,7.84,0,0,1-2.28-5.91l0-.88h5.28c0,3,1.17,4.54,3.51,4.54a2.77,2.77,0,0,0,2.6-1.16c.47-.73.71-2.19.71-4.37v-5.47c-1.16,2.6-2.94,3.91-5.34,3.91a5.77,5.77,0,0,1-5.46-3.47q-1.75-3.47-1.76-10.83,0-7.8,1.69-11.52a5.66,5.66,0,0,1,5.51-3.54,4.81,4.81,0,0,1,3,.85,10.25,10.25,0,0,1,2.4,3Zm.09,14.48q0-10.2-3.66-10.2c-1.16,0-2,.77-2.54,2.3a24.43,24.43,0,0,0-.8,7.35,27.44,27.44,0,0,0,.83,7.89c.57,1.56,1.52,2.34,2.86,2.34a2.64,2.64,0,0,0,2.59-2.09Q661,226.91,661,221.27Z"/><path d="M684,225.64h5.08q-.6,10-8.57,10a8.91,8.91,0,0,1-4.06-.86,6.91,6.91,0,0,1-2.82-2.64,13.28,13.28,0,0,1-1.64-4.53,35.27,35.27,0,0,1-.53-6.54q0-7.53,2.19-11.16a7.31,7.31,0,0,1,6.75-3.63q8.88,0,8.88,15.06V222H676.78q0,9.14,3.77,9.13C682.83,231.17,684,229.33,684,225.64Zm-.29-7.39q-.35-4.49-1.06-5.88a2.47,2.47,0,0,0-2.39-1.57,2.44,2.44,0,0,0-2.4,1.57q-.72,1.4-1.06,5.88Z"/><path d="M723.08,188.53v46.71h-5.45v-3.66a9.17,9.17,0,0,1-2.34,3.22,5.1,5.1,0,0,1-3.11.88,5.64,5.64,0,0,1-5.37-3.62q-1.71-3.62-1.71-11.37a41.68,41.68,0,0,1,.43-6.46,15.31,15.31,0,0,1,1.3-4.48,5.69,5.69,0,0,1,5.49-3.43,5,5,0,0,1,3,.82,6.16,6.16,0,0,1,1.17,1.1,11.19,11.19,0,0,1,1.17,1.76V188.53Zm-12.33,32.36a27.27,27.27,0,0,0,.77,7.83,2.87,2.87,0,0,0,2.8,2.23c1.22,0,2.1-.77,2.65-2.31a35.49,35.49,0,0,0,0-15.26c-.55-1.54-1.43-2.31-2.65-2.31a2.88,2.88,0,0,0-2.77,2.2Q710.76,215.31,710.75,220.89Z"/><path d="M740.69,225.64h5.08q-.6,10-8.56,10a9,9,0,0,1-4.07-.86,6.89,6.89,0,0,1-2.81-2.64,13.28,13.28,0,0,1-1.64-4.53,35.27,35.27,0,0,1-.53-6.54q0-7.53,2.19-11.16a7.31,7.31,0,0,1,6.75-3.63q8.86,0,8.87,15.06V222H733.5q0,9.14,3.77,9.13Q740.69,231.17,740.69,225.64Zm-.28-7.39q-.35-4.49-1.06-5.88a2.48,2.48,0,0,0-2.4-1.57,2.44,2.44,0,0,0-2.39,1.57q-.72,1.4-1.06,5.88Z"/><path d="M750.83,206.79h5.45v3.27c1.56-2.5,3.58-3.74,6.05-3.74a5.44,5.44,0,0,1,5.14,2.72c.57,1,.85,3,.85,6v20.24h-5.45l0-19a8.51,8.51,0,0,0-.71-4.09,2.61,2.61,0,0,0-2.45-1.21,3.47,3.47,0,0,0-1.59.32,2.4,2.4,0,0,0-1,1,5.62,5.62,0,0,0-.59,1.83,18,18,0,0,0-.18,2.78v18.39h-5.45Z"/><path d="M803.46,188.53v46.71H798v-3.66a9.17,9.17,0,0,1-2.34,3.22,5.1,5.1,0,0,1-3.11.88,5.64,5.64,0,0,1-5.37-3.62q-1.71-3.62-1.71-11.37a41.68,41.68,0,0,1,.43-6.46,15.31,15.31,0,0,1,1.3-4.48,5.69,5.69,0,0,1,5.49-3.43,5,5,0,0,1,3,.82,6.16,6.16,0,0,1,1.17,1.1A11.19,11.19,0,0,1,798,210V188.53Zm-12.33,32.36a27.27,27.27,0,0,0,.77,7.83,2.87,2.87,0,0,0,2.8,2.23c1.22,0,2.1-.77,2.65-2.31a35.49,35.49,0,0,0,0-15.26c-.55-1.54-1.43-2.31-2.65-2.31a2.88,2.88,0,0,0-2.77,2.2Q791.14,215.31,791.13,220.89Z"/><path d="M826.53,206.79v28.45h-5.46v-3.66a9.17,9.17,0,0,1-2.34,3.22,5,5,0,0,1-3.08.88,5.65,5.65,0,0,1-5.39-3.63q-1.72-3.63-1.72-11.38,0-7.39,1.72-10.87a5.66,5.66,0,0,1,5.39-3.48c2.25,0,4.05,1.23,5.42,3.68v-3.21Zm-12.34,14.1a26.81,26.81,0,0,0,.78,7.83,2.86,2.86,0,0,0,2.79,2.23c1.22,0,2.11-.77,2.66-2.31a35.49,35.49,0,0,0,0-15.26c-.55-1.54-1.44-2.31-2.66-2.31a2.9,2.9,0,0,0-2.77,2.2Q814.2,215.31,814.19,220.89Z"/><path d="M832.72,206.79h5.45v3.27c1.56-2.5,3.58-3.74,6.05-3.74a5.44,5.44,0,0,1,5.14,2.72c.57,1,.86,3,.86,6v20.24h-5.45l0-19a8.49,8.49,0,0,0-.72-4.09,2.6,2.6,0,0,0-2.45-1.21,3.47,3.47,0,0,0-1.59.32,2.46,2.46,0,0,0-1,1,5.63,5.63,0,0,0-.58,1.83,16.74,16.74,0,0,0-.19,2.78v18.39h-5.45Z"/><path d="M867.8,207.36v4.92a7.12,7.12,0,0,0-4.2-1.43,3.83,3.83,0,0,0-1.37.25,3.76,3.76,0,0,0-1.09.67,3.14,3.14,0,0,0-.75,1,3,3,0,0,0-.27,1.25q0,2,3.83,4.84a27.89,27.89,0,0,1,2.57,2.14,10.65,10.65,0,0,1,1.57,1.87,8,8,0,0,1,1.11,4.37,7.92,7.92,0,0,1-8.45,8.42,9.77,9.77,0,0,1-4.79-1.35v-5.09a7.74,7.74,0,0,0,4.48,1.71q3.73,0,3.74-3.55a3.8,3.8,0,0,0-.69-2.28,6.55,6.55,0,0,0-1-1.09q-.69-.61-1.68-1.38a21.47,21.47,0,0,1-4.68-4.35,7.73,7.73,0,0,1-1.2-4.37,7.63,7.63,0,0,1,2.19-5.63,8,8,0,0,1,5.8-2.17A10.48,10.48,0,0,1,867.8,207.36Z"/><path d="M873.57,188.53H879v30.93L886,206.79h6.16l-7.54,12.67,8.54,15.78h-6.39L879,220.12v15.12h-5.45Z"/><path d="M907,225.64H912q-.6,10-8.56,10a9,9,0,0,1-4.07-.86,6.89,6.89,0,0,1-2.81-2.64,13.28,13.28,0,0,1-1.64-4.53,35.27,35.27,0,0,1-.53-6.54q0-7.53,2.19-11.16a7.31,7.31,0,0,1,6.75-3.63q8.86,0,8.87,15.06V222H899.77q0,9.14,3.77,9.13Q907,231.17,907,225.64Zm-.28-7.39q-.34-4.49-1.06-5.88a2.48,2.48,0,0,0-2.4-1.57,2.44,2.44,0,0,0-2.39,1.57q-.72,1.4-1.06,5.88Z"/><path d="M929.2,188.53h5.45v46.71H929.2Z"/><path d="M958.29,221.24q0,14.43-9.28,14.44T939.73,221q0-14.7,9.25-14.7a9.1,9.1,0,0,1,4.15.88,7.19,7.19,0,0,1,2.9,2.72,14,14,0,0,1,1.7,4.64A34.88,34.88,0,0,1,958.29,221.24Zm-5.66-.13c0-3.74-.25-6.34-.77-7.81a2.81,2.81,0,0,0-2.74-2.23,2.9,2.9,0,0,0-2.77,2.2,26.35,26.35,0,0,0-.77,7.67,25.92,25.92,0,0,0,.77,7.64,2.89,2.89,0,0,0,2.77,2.2,2.77,2.77,0,0,0,2.71-2.17C952.37,227.25,952.63,224.75,952.63,221.11Z"/><path d="M960.17,206.79H966l2.14,9q.66,2.74,1.12,5.82t.74,6.69c.11-.57.17-.9.17-1l.66-4.23c.24-1.62.73-4,1.45-7.29l2-9h5.28l-7.71,28.45h-3.68Z"/><path d="M994.14,206.79h5.48v29.35q0,5.28-1.09,7.31c-1.33,2.5-4,3.74-8,3.74a8.58,8.58,0,0,1-6.22-2.17,7.84,7.84,0,0,1-2.28-5.91l0-.88h5.29c0,3,1.17,4.54,3.51,4.54a2.75,2.75,0,0,0,2.59-1.16c.48-.73.72-2.19.72-4.37v-5.47c-1.16,2.6-2.94,3.91-5.34,3.91a5.78,5.78,0,0,1-5.47-3.47q-1.76-3.47-1.75-10.83,0-7.8,1.68-11.52a5.67,5.67,0,0,1,5.51-3.54,4.82,4.82,0,0,1,3,.85,10.25,10.25,0,0,1,2.4,3Zm.08,14.48q0-10.2-3.65-10.2c-1.16,0-2,.77-2.54,2.3a24.43,24.43,0,0,0-.8,7.35,27.08,27.08,0,0,0,.83,7.89q.86,2.34,2.85,2.34a2.65,2.65,0,0,0,2.6-2.09C994,227.56,994.22,225,994.22,221.27Z"/><path d="M1008.35,194.69a3.57,3.57,0,0,1,2.57,1.05,3.36,3.36,0,0,1,1.09,2.5,3.41,3.41,0,0,1-1.09,2.53,3.83,3.83,0,0,1-5.25,0,3.42,3.42,0,0,1-1.06-2.56,3.29,3.29,0,0,1,1.09-2.47A3.86,3.86,0,0,1,1008.35,194.69Zm-2.57,12.1h5.48v28.45h-5.48Z"/><path d="M1014.55,206.79h5.85l2.14,9q.66,2.74,1.11,5.82c.31,2,.55,4.27.74,6.69a9.07,9.07,0,0,0,.18-1l.65-4.23c.25-1.62.74-4,1.46-7.29l2-9h5.28l-7.71,28.45h-3.68Z"/><path d="M1037.24,206.79h5.45v3.27c1.56-2.5,3.58-3.74,6-3.74a5.44,5.44,0,0,1,5.14,2.72c.57,1,.86,3,.86,6v20.24h-5.45l0-19a8.49,8.49,0,0,0-.72-4.09,2.6,2.6,0,0,0-2.45-1.21,3.47,3.47,0,0,0-1.59.32,2.46,2.46,0,0,0-1,1,5.63,5.63,0,0,0-.58,1.83,16.74,16.74,0,0,0-.19,2.78v18.39h-5.45Z"/><path d="M1063.47,194.69a3.57,3.57,0,0,1,2.57,1.05,3.35,3.35,0,0,1,1.08,2.5,3.4,3.4,0,0,1-1.08,2.53,3.83,3.83,0,0,1-5.25,0,3.39,3.39,0,0,1-1.06-2.56,3.29,3.29,0,0,1,1.09-2.47A3.86,3.86,0,0,1,1063.47,194.69Zm-2.57,12.1h5.48v28.45h-5.48Z"/><path d="M1072.52,206.79H1078v3.27c1.56-2.5,3.58-3.74,6-3.74a5.44,5.44,0,0,1,5.14,2.72c.57,1,.86,3,.86,6v20.24h-5.45l0-19a8.49,8.49,0,0,0-.72-4.09,2.6,2.6,0,0,0-2.45-1.21,3.4,3.4,0,0,0-1.58.32,2.43,2.43,0,0,0-1,1,5.63,5.63,0,0,0-.58,1.83,16.74,16.74,0,0,0-.19,2.78v18.39h-5.45Z"/><path d="M1107.63,206.79h5.48v29.35q0,5.28-1.08,7.31c-1.34,2.5-4,3.74-8,3.74a8.6,8.6,0,0,1-6.22-2.17,7.84,7.84,0,0,1-2.28-5.91l0-.88h5.28c0,3,1.17,4.54,3.51,4.54a2.78,2.78,0,0,0,2.6-1.16c.47-.73.71-2.19.71-4.37v-5.47c-1.16,2.6-2.94,3.91-5.34,3.91a5.77,5.77,0,0,1-5.46-3.47q-1.75-3.47-1.76-10.83,0-7.8,1.68-11.52a5.67,5.67,0,0,1,5.51-3.54,4.82,4.82,0,0,1,3,.85,10.25,10.25,0,0,1,2.4,3Zm.08,14.48q0-10.2-3.65-10.2c-1.16,0-2,.77-2.54,2.3a24.43,24.43,0,0,0-.8,7.35,27.44,27.44,0,0,0,.83,7.89q.85,2.34,2.85,2.34a2.64,2.64,0,0,0,2.6-2.09C1107.48,227.56,1107.71,225,1107.71,221.27Z"/><path d="M1120.93,229.3l4.74,1.35L1120,245.57l-3-.8Z"/><path d="M1143.48,188.53h5.45v30.93l6.94-12.67H1162l-7.54,12.67,8.53,15.78h-6.39l-7.71-15.12v15.12h-5.45Z"/><path d="M1182.64,206.79v28.45h-5.45v-3.66a9.17,9.17,0,0,1-2.34,3.22,5,5,0,0,1-3.08.88,5.66,5.66,0,0,1-5.4-3.63q-1.71-3.63-1.71-11.38,0-7.39,1.71-10.87a5.67,5.67,0,0,1,5.4-3.48q3.36,0,5.42,3.68v-3.21Zm-12.33,14.1a27.27,27.27,0,0,0,.77,7.83,2.88,2.88,0,0,0,2.8,2.23c1.22,0,2.1-.77,2.66-2.31a35.91,35.91,0,0,0,0-15.26c-.56-1.54-1.44-2.31-2.66-2.31a2.89,2.89,0,0,0-2.77,2.2Q1170.32,215.31,1170.31,220.89Z"/><path d="M1188.84,206.79h5.45v3.27c1.56-2.5,3.58-3.74,6-3.74a5.44,5.44,0,0,1,5.14,2.72c.57,1,.85,3,.85,6v20.24h-5.45l0-19a8.51,8.51,0,0,0-.71-4.09,2.6,2.6,0,0,0-2.45-1.21,3.47,3.47,0,0,0-1.59.32,2.4,2.4,0,0,0-1,1,5.4,5.4,0,0,0-.58,1.83,16.74,16.74,0,0,0-.19,2.78v18.39h-5.45Z"/><path d="M1241.47,188.53v46.71H1236v-3.66a9.17,9.17,0,0,1-2.34,3.22,5.1,5.1,0,0,1-3.11.88,5.64,5.64,0,0,1-5.37-3.62q-1.71-3.62-1.71-11.37a41.68,41.68,0,0,1,.43-6.46,15.62,15.62,0,0,1,1.3-4.48,5.69,5.69,0,0,1,5.49-3.43,5,5,0,0,1,3,.82,6.16,6.16,0,0,1,1.17,1.1A11.19,11.19,0,0,1,1236,210V188.53Zm-12.33,32.36a27.27,27.27,0,0,0,.77,7.83,2.88,2.88,0,0,0,2.8,2.23c1.22,0,2.1-.77,2.65-2.31a35.49,35.49,0,0,0,0-15.26c-.55-1.54-1.43-2.31-2.65-2.31a2.89,2.89,0,0,0-2.77,2.2Q1229.15,215.31,1229.14,220.89Z"/><path d="M1247.67,206.79h5.45v19a7.35,7.35,0,0,0,.81,3.76,2.84,2.84,0,0,0,2.53,1.13,3.06,3.06,0,0,0,2.6-1,6.6,6.6,0,0,0,.74-3.63V206.79h5.45v17c0,4-.3,6.63-.91,8-1.28,2.6-3.92,3.91-7.94,3.91q-4.74,0-6.73-2.31c-1.34-1.56-2-4.15-2-7.78Z"/><path d="M1294.94,207.36v4.92a7.14,7.14,0,0,0-4.2-1.43,3.68,3.68,0,0,0-2.47.92,3.26,3.26,0,0,0-.74,1,3,3,0,0,0-.27,1.25q0,2,3.82,4.84a26.61,26.61,0,0,1,2.57,2.14,9.84,9.84,0,0,1,1.57,1.87,8,8,0,0,1,1.12,4.37,7.93,7.93,0,0,1-8.45,8.42,9.83,9.83,0,0,1-4.8-1.35v-5.09a7.76,7.76,0,0,0,4.48,1.71c2.5,0,3.74-1.18,3.74-3.55a3.87,3.87,0,0,0-.68-2.28,7,7,0,0,0-1-1.09c-.46-.41-1-.87-1.69-1.38a22,22,0,0,1-4.68-4.35,7.73,7.73,0,0,1-1.2-4.37,7.63,7.63,0,0,1,2.2-5.63,8,8,0,0,1,5.8-2.17A10.48,10.48,0,0,1,1294.94,207.36Z"/><path d="M1301.64,198.81h5.46v8h3V211h-3v24.28h-5.46V211h-3v-4.17h3Z"/><path d="M1314,206.79h5.45v3.54a10.13,10.13,0,0,1,2.77-3.16,7.31,7.31,0,0,1,3.62-1v5.49a7.69,7.69,0,0,0-1-.08c-2,0-3.36.49-4.2,1.46s-1.22,2.62-1.22,5v17.24H1314Z"/><path d="M1346.8,206.79v28.45h-5.45v-3.66a9.17,9.17,0,0,1-2.34,3.22,5,5,0,0,1-3.08.88,5.65,5.65,0,0,1-5.4-3.63q-1.71-3.63-1.71-11.38,0-7.39,1.71-10.87a5.66,5.66,0,0,1,5.4-3.48q3.36,0,5.42,3.68v-3.21Zm-12.33,14.1a27.27,27.27,0,0,0,.77,7.83A2.87,2.87,0,0,0,1338,231c1.22,0,2.1-.77,2.65-2.31a35.49,35.49,0,0,0,0-15.26c-.55-1.54-1.43-2.31-2.65-2.31a2.89,2.89,0,0,0-2.77,2.2Q1334.48,215.31,1334.47,220.89Z"/><path d="M1350.91,206.79h2.74v-9.93q0-4.86,1.49-6.87t5.16-2a11.25,11.25,0,0,1,3.71.75v5.55a5.07,5.07,0,0,0-2.31-.69,2.3,2.3,0,0,0-2,.8,4.67,4.67,0,0,0-.59,2.69l0,2.15v7.56h4.63V211h-4.63v24.28h-5.45V211h-2.74Z"/><path d="M1366.47,206.79h2.74v-9.93q0-4.86,1.48-6.87c1-1.34,2.72-2,5.17-2a11.29,11.29,0,0,1,3.71.75v5.55a5.11,5.11,0,0,0-2.31-.69,2.32,2.32,0,0,0-2,.8,4.68,4.68,0,0,0-.58,2.69l0,2.15v7.56h4.63V211h-4.63v24.28h-5.45V211h-2.74Z"/><path d="M1394.36,225.64h5.08q-.6,10-8.57,10a8.91,8.91,0,0,1-4.06-.86,6.91,6.91,0,0,1-2.82-2.64,13.49,13.49,0,0,1-1.64-4.53,35.35,35.35,0,0,1-.52-6.54q0-7.53,2.18-11.16a7.31,7.31,0,0,1,6.75-3.63q8.88,0,8.88,15.06V222h-12.48q0,9.14,3.77,9.13C1393.21,231.17,1394.36,229.33,1394.36,225.64Zm-.29-7.39q-.35-4.49-1.06-5.88a2.47,2.47,0,0,0-2.39-1.57,2.44,2.44,0,0,0-2.4,1.57q-.72,1.4-1.06,5.88Z"/><path d="M1415.91,207.36v4.92a7.14,7.14,0,0,0-4.2-1.43,3.68,3.68,0,0,0-2.47.92,3.26,3.26,0,0,0-.74,1,3,3,0,0,0-.27,1.25q0,2,3.82,4.84a26.61,26.61,0,0,1,2.57,2.14,9.84,9.84,0,0,1,1.57,1.87,8,8,0,0,1,1.12,4.37,7.93,7.93,0,0,1-8.45,8.42,9.83,9.83,0,0,1-4.8-1.35v-5.09a7.76,7.76,0,0,0,4.48,1.71c2.5,0,3.74-1.18,3.74-3.55a3.87,3.87,0,0,0-.68-2.28,7,7,0,0,0-1-1.09c-.46-.41-1-.87-1.69-1.38a22,22,0,0,1-4.68-4.35,7.73,7.73,0,0,1-1.2-4.37,7.63,7.63,0,0,1,2.2-5.63,8,8,0,0,1,5.8-2.17A10.48,10.48,0,0,1,1415.91,207.36Z"/><path d="M1431.69,206.79h2.74v-9.93q0-4.86,1.49-6.87t5.16-2a11.25,11.25,0,0,1,3.71.75v5.55a5.07,5.07,0,0,0-2.31-.69,2.3,2.3,0,0,0-2,.8,4.67,4.67,0,0,0-.59,2.69l0,2.15v7.56h4.63V211h-4.63v24.28h-5.45V211h-2.74Z"/><path d="M1465.6,221.24q0,14.43-9.27,14.44T1447.05,221q0-14.7,9.25-14.7a9.1,9.1,0,0,1,4.15.88,7.19,7.19,0,0,1,2.9,2.72,14.23,14.23,0,0,1,1.7,4.64A35,35,0,0,1,1465.6,221.24Zm-5.65-.13a27,27,0,0,0-.77-7.81,2.82,2.82,0,0,0-2.74-2.23,2.89,2.89,0,0,0-2.77,2.2,26.35,26.35,0,0,0-.77,7.67,25.92,25.92,0,0,0,.77,7.64,2.88,2.88,0,0,0,2.77,2.2,2.78,2.78,0,0,0,2.71-2.17Q1459.95,226.57,1460,221.11Z"/><path d="M1470.68,206.79h5.46v3.54a10.24,10.24,0,0,1,2.76-3.16,7.39,7.39,0,0,1,3.63-1v5.49a7.69,7.69,0,0,0-1-.08c-2,0-3.36.49-4.2,1.46s-1.22,2.62-1.22,5v17.24h-5.46Z"/><path d="M503.38,274.34v28.45h-5.46v-3.66a9.17,9.17,0,0,1-2.34,3.22,5,5,0,0,1-3.08.88,5.65,5.65,0,0,1-5.39-3.63q-1.73-3.63-1.72-11.38,0-7.39,1.72-10.87a5.66,5.66,0,0,1,5.39-3.48c2.25,0,4.05,1.23,5.42,3.69v-3.22ZM491,288.44a26.77,26.77,0,0,0,.78,7.83,2.86,2.86,0,0,0,2.79,2.23c1.22,0,2.11-.77,2.66-2.31a35.44,35.44,0,0,0,0-15.25c-.55-1.54-1.44-2.31-2.66-2.31a2.89,2.89,0,0,0-2.77,2.2Q491,282.86,491,288.44Z"/><path d="M510.23,266.37h5.45v8h3v4.18h-3v24.27h-5.45V278.52h-3v-4.18h3Z"/><path d="M551.53,256.09v46.7h-5.45v-3.66a9.17,9.17,0,0,1-2.34,3.22,5,5,0,0,1-3.11.88,5.64,5.64,0,0,1-5.37-3.62q-1.71-3.62-1.71-11.36a41.59,41.59,0,0,1,.43-6.46,15.45,15.45,0,0,1,1.29-4.48,5.71,5.71,0,0,1,5.5-3.44,5,5,0,0,1,3,.83,5.58,5.58,0,0,1,1.17,1.1,10.32,10.32,0,0,1,1.17,1.76V256.09ZM539.2,288.44a27.22,27.22,0,0,0,.77,7.83,2.87,2.87,0,0,0,2.8,2.23c1.21,0,2.1-.77,2.65-2.31a35.44,35.44,0,0,0,0-15.25c-.55-1.54-1.44-2.31-2.65-2.31a2.87,2.87,0,0,0-2.77,2.2Q539.21,282.86,539.2,288.44Z"/><path d="M569.14,293.2h5.08q-.6,10-8.56,10a9.09,9.09,0,0,1-4.07-.85,7,7,0,0,1-2.81-2.64,13.33,13.33,0,0,1-1.64-4.54,35.27,35.27,0,0,1-.53-6.54q0-7.53,2.18-11.16a7.34,7.34,0,0,1,6.76-3.63q8.87,0,8.87,15.07v.65H562q0,9.14,3.77,9.13Q569.14,298.72,569.14,293.2Zm-.28-7.4q-.35-4.49-1.06-5.88a2.62,2.62,0,0,0-4.8,0,18.77,18.77,0,0,0-1,5.88Z"/><path d="M579.28,256.09h5.45v46.7h-5.45Z"/><path d="M602.34,293.2h5.08q-.6,10-8.56,10a9.09,9.09,0,0,1-4.07-.85,7,7,0,0,1-2.81-2.64,13.33,13.33,0,0,1-1.64-4.54,34.43,34.43,0,0,1-.53-6.54q0-7.53,2.18-11.16a7.34,7.34,0,0,1,6.75-3.63q8.88,0,8.88,15.07v.65H595.15q0,9.14,3.76,9.13Q602.35,298.72,602.34,293.2Zm-.29-7.4a18.47,18.47,0,0,0-1-5.88,2.5,2.5,0,0,0-2.4-1.57,2.46,2.46,0,0,0-2.4,1.57,18.47,18.47,0,0,0-1.05,5.88Z"/><path d="M636,293.2h5.08q-.6,10-8.56,10a9.09,9.09,0,0,1-4.07-.85,7,7,0,0,1-2.81-2.64A13.33,13.33,0,0,1,624,295.2a35.27,35.27,0,0,1-.53-6.54q0-7.53,2.19-11.16a7.31,7.31,0,0,1,6.75-3.63q8.86,0,8.87,15.07v.65H628.8q0,9.14,3.77,9.13Q636,298.72,636,293.2Zm-.28-7.4q-.35-4.49-1.06-5.88a2.48,2.48,0,0,0-2.4-1.57,2.44,2.44,0,0,0-2.39,1.57q-.72,1.4-1.06,5.88Z"/><path d="M646.78,266.37h5.45v8h3v4.18h-3v24.27h-5.45V278.52h-3v-4.18h3Z"/><path d="M671.22,256.09h5.45v21.47a10.32,10.32,0,0,1,1.17-1.76,5.58,5.58,0,0,1,1.17-1.1,5,5,0,0,1,3-.83,5.68,5.68,0,0,1,5.49,3.44,15.43,15.43,0,0,1,1.3,4.48,41.59,41.59,0,0,1,.43,6.46q0,7.75-1.71,11.36a5.64,5.64,0,0,1-5.37,3.62,5,5,0,0,1-3.11-.88,9.17,9.17,0,0,1-2.34-3.22v3.66h-5.45Zm12.33,32.62q0-5.79-.8-7.86a2.83,2.83,0,0,0-2.77-2.22c-1.26,0-2.14.75-2.65,2.25a38.35,38.35,0,0,0,0,15.39c.51,1.49,1.39,2.23,2.65,2.23a2.88,2.88,0,0,0,2.77-2.2Q683.55,294.27,683.55,288.71Z"/><path d="M696.85,262.24a3.58,3.58,0,0,1,2.57,1.05,3.47,3.47,0,0,1,0,5,3.64,3.64,0,0,1-2.63,1,3.61,3.61,0,0,1-2.62-1,3.39,3.39,0,0,1-1.06-2.56,3.33,3.33,0,0,1,1.08-2.47A3.88,3.88,0,0,1,696.85,262.24Zm-2.57,12.1h5.48v28.45h-5.48Z"/><path d="M705.9,256.09h5.45v46.7H705.9Z"/><path d="M717.54,256.09H723v46.7h-5.46Z"/><path d="M740.61,293.2h5.08q-.6,10-8.57,10a9.08,9.08,0,0,1-4.06-.85,7,7,0,0,1-2.81-2.64,13.33,13.33,0,0,1-1.65-4.54,35.35,35.35,0,0,1-.52-6.54q0-7.53,2.18-11.16a7.34,7.34,0,0,1,6.75-3.63q8.88,0,8.88,15.07v.65H733.41q0,9.14,3.77,9.13Q740.62,298.72,740.61,293.2Zm-.29-7.4a18.77,18.77,0,0,0-1.05-5.88,2.5,2.5,0,0,0-2.4-1.57,2.46,2.46,0,0,0-2.4,1.57q-.72,1.4-1.06,5.88Z"/><path d="M767.61,256.09v46.7h-5.45v-3.66a9.17,9.17,0,0,1-2.34,3.22,5,5,0,0,1-3.11.88,5.64,5.64,0,0,1-5.37-3.62q-1.71-3.62-1.71-11.36a41.59,41.59,0,0,1,.43-6.46,15.45,15.45,0,0,1,1.29-4.48,5.68,5.68,0,0,1,5.5-3.44,5,5,0,0,1,3,.83,5.58,5.58,0,0,1,1.17,1.1,10.32,10.32,0,0,1,1.17,1.76V256.09Zm-12.33,32.35a27.22,27.22,0,0,0,.77,7.83,2.86,2.86,0,0,0,2.8,2.23c1.21,0,2.1-.77,2.65-2.31a35.44,35.44,0,0,0,0-15.25c-.55-1.54-1.44-2.31-2.65-2.31a2.87,2.87,0,0,0-2.77,2.2Q755.28,282.86,755.28,288.44Z"/><path d="M785.22,293.2h5.08q-.6,10-8.56,10a9.09,9.09,0,0,1-4.07-.85,7,7,0,0,1-2.81-2.64,13.33,13.33,0,0,1-1.64-4.54,35.27,35.27,0,0,1-.53-6.54q0-7.53,2.19-11.16a7.31,7.31,0,0,1,6.75-3.63q8.86,0,8.87,15.07v.65H778q0,9.14,3.77,9.13Q785.22,298.72,785.22,293.2Zm-.28-7.4q-.35-4.49-1.06-5.88a2.62,2.62,0,0,0-4.8,0A18.77,18.77,0,0,0,778,285.8Z"/><path d="M807.46,274.34h5.45v3.52q2.25-4,6-4a5.48,5.48,0,0,1,5.54,4c1.45-2.66,3.5-4,6.17-4a6.59,6.59,0,0,1,4.75,1.58,6.21,6.21,0,0,1,1.64,4.66v22.68h-5.48V284.07a9.88,9.88,0,0,0-.63-4.32,2.4,2.4,0,0,0-2.34-1.12,2.89,2.89,0,0,0-2.68,1.15,9.08,9.08,0,0,0-.69,4.29v18.72h-5.65V284.07a18.46,18.46,0,0,0-.15-2.56,5,5,0,0,0-.53-1.67,2.25,2.25,0,0,0-1-.92,3.33,3.33,0,0,0-1.49-.29,3,3,0,0,0-2.68,1.23,8.2,8.2,0,0,0-.8,4.21v18.72h-5.45Z"/><path d="M854.58,293.2h5.09q-.6,10-8.57,10a9.12,9.12,0,0,1-4.07-.85,7,7,0,0,1-2.81-2.64,13.33,13.33,0,0,1-1.64-4.54,35.27,35.27,0,0,1-.53-6.54q0-7.53,2.19-11.16a7.31,7.31,0,0,1,6.75-3.63q8.88,0,8.88,15.07v.65H847.39q0,9.14,3.77,9.13Q854.58,298.72,854.58,293.2Zm-.28-7.4q-.34-4.49-1.06-5.88a2.47,2.47,0,0,0-2.39-1.57,2.44,2.44,0,0,0-2.4,1.57q-.72,1.4-1.06,5.88Z"/><path d="M881.59,256.09v46.7h-5.45v-3.66a9.3,9.3,0,0,1-2.35,3.22,5,5,0,0,1-3.11.88,5.63,5.63,0,0,1-5.36-3.62q-1.71-3.62-1.72-11.36a42.86,42.86,0,0,1,.43-6.46,15.75,15.75,0,0,1,1.3-4.48,5.68,5.68,0,0,1,5.5-3.44,5,5,0,0,1,3,.83,5.13,5.13,0,0,1,1.17,1.1,11,11,0,0,1,1.18,1.76V256.09Zm-12.33,32.35c0,3.74.25,6.35.77,7.83a2.86,2.86,0,0,0,2.79,2.23c1.22,0,2.11-.77,2.66-2.31a35.44,35.44,0,0,0,0-15.25c-.55-1.54-1.44-2.31-2.66-2.31a2.87,2.87,0,0,0-2.76,2.2C869.52,282.18,869.26,284.72,869.26,288.44Z"/><path d="M911.3,293.2h5.08q-.6,10-8.56,10a9.09,9.09,0,0,1-4.07-.85,7,7,0,0,1-2.81-2.64,13.33,13.33,0,0,1-1.64-4.54,35.27,35.27,0,0,1-.53-6.54q0-7.53,2.19-11.16a7.31,7.31,0,0,1,6.75-3.63q8.87,0,8.87,15.07v.65H904.11q0,9.14,3.77,9.13Q911.3,298.72,911.3,293.2Zm-.28-7.4q-.35-4.49-1.06-5.88a2.48,2.48,0,0,0-2.4-1.57,2.44,2.44,0,0,0-2.39,1.57q-.72,1.4-1.06,5.88Z"/><path d="M922.09,266.37h5.45v8h3v4.18h-3v24.27h-5.45V278.52h-3v-4.18h3Z"/><path d="M946.53,256.09H952V287l6.93-12.67h6.17L957.54,287l8.54,15.78h-6.4L952,287.67v15.12h-5.45Z"/><path d="M985.49,273.38l2.85,1.76-2.68,4.64a28.36,28.36,0,0,1,1.2,9.46q0,14-9.28,14a7.84,7.84,0,0,1-6-2.31l-2,2.78-2.77-1.85,2.71-4.15a37.61,37.61,0,0,1-1.2-9.45q0-7.42,2.23-10.9t7-3.48a8.89,8.89,0,0,1,6.16,2.37Zm-5.25,7.31a2.56,2.56,0,0,0-2.72-2.06,2.77,2.77,0,0,0-2.62,2,21,21,0,0,0-.77,6.79l.08,3.71ZM975,296.55a2.76,2.76,0,0,0,2.77,2.17,2.7,2.7,0,0,0,2.66-2,26.11,26.11,0,0,0,.74-7.43l-.06-3.43Z"/><path d="M991.91,274.34h5.45v3.27q2.34-3.74,6-3.74a5.44,5.44,0,0,1,5.14,2.72q.86,1.55.86,6v20.23H1004l0-19a8.51,8.51,0,0,0-.72-4.1,2.61,2.61,0,0,0-2.45-1.21,3.53,3.53,0,0,0-1.58.32,2.45,2.45,0,0,0-1,1,5.49,5.49,0,0,0-.58,1.82,16.82,16.82,0,0,0-.19,2.78v18.39h-5.45Z"/><path d="M1027,274.92v4.92a7,7,0,0,0-4.19-1.43,3.75,3.75,0,0,0-1.37.24,3.52,3.52,0,0,0-1.1.68,3,3,0,0,0-1,2.27q0,2,3.83,4.83a27.84,27.84,0,0,1,2.57,2.15,9.91,9.91,0,0,1,1.57,1.87,7.94,7.94,0,0,1,1.11,4.37,7.9,7.9,0,0,1-8.45,8.41,9.77,9.77,0,0,1-4.79-1.35V296.8a7.81,7.81,0,0,0,4.48,1.7q3.74,0,3.74-3.55a3.82,3.82,0,0,0-.69-2.28,6.18,6.18,0,0,0-1-1.08c-.45-.41-1-.88-1.68-1.39a21.73,21.73,0,0,1-4.68-4.34,7.75,7.75,0,0,1-1.2-4.37,7.63,7.63,0,0,1,2.2-5.64,7.92,7.92,0,0,1,5.79-2.17A10.35,10.35,0,0,1,1027,274.92Z"/><path d="M1050.2,288.8q0,14.43-9.28,14.43t-9.28-14.65q0-14.71,9.25-14.71a9.28,9.28,0,0,1,4.16.88,7.23,7.23,0,0,1,2.89,2.72,14,14,0,0,1,1.7,4.65A34.8,34.8,0,0,1,1050.2,288.8Zm-5.65-.14a27,27,0,0,0-.77-7.81,2.82,2.82,0,0,0-2.74-2.22,2.87,2.87,0,0,0-2.77,2.2,25.9,25.9,0,0,0-.77,7.67c0,3.64.25,6.19.77,7.64a2.88,2.88,0,0,0,2.77,2.2,2.79,2.79,0,0,0,2.71-2.18Q1044.55,294.14,1044.55,288.66Z"/><path d="M1055.28,274.34h5.45v3.55a10.19,10.19,0,0,1,2.77-3.17,7.31,7.31,0,0,1,3.62-1v5.5a6.34,6.34,0,0,0-1-.09c-2,0-3.35.49-4.19,1.46s-1.23,2.62-1.23,5v17.24h-5.45Z"/><path d="M1082.68,274.34h5.48V303.7q0,5.26-1.08,7.31c-1.33,2.49-4,3.74-8,3.74a8.61,8.61,0,0,1-6.23-2.18,7.81,7.81,0,0,1-2.28-5.91l0-.88h5.28q0,4.55,3.51,4.54a2.78,2.78,0,0,0,2.6-1.15c.47-.74.71-2.19.71-4.38v-5.46q-1.74,3.9-5.34,3.9a5.77,5.77,0,0,1-5.46-3.46q-1.76-3.47-1.76-10.83,0-7.81,1.69-11.52a5.66,5.66,0,0,1,5.51-3.55,4.88,4.88,0,0,1,3,.85,10.18,10.18,0,0,1,2.4,3Zm.09,14.49q0-10.2-3.66-10.2c-1.16,0-2,.76-2.54,2.29a24.46,24.46,0,0,0-.8,7.36,27.41,27.41,0,0,0,.83,7.88c.57,1.56,1.52,2.34,2.86,2.34a2.64,2.64,0,0,0,2.59-2.09Q1082.77,294.46,1082.77,288.83Z"/><path d="M1111.25,274.34v28.45h-5.45v-3.66a9.17,9.17,0,0,1-2.34,3.22,5,5,0,0,1-3.08.88,5.66,5.66,0,0,1-5.4-3.63q-1.71-3.63-1.71-11.38,0-7.39,1.71-10.87a5.67,5.67,0,0,1,5.4-3.48q3.36,0,5.42,3.69v-3.22Zm-12.33,14.1a27.22,27.22,0,0,0,.77,7.83,2.88,2.88,0,0,0,2.8,2.23c1.22,0,2.1-.77,2.66-2.31a35.86,35.86,0,0,0,0-15.25c-.56-1.54-1.44-2.31-2.66-2.31a2.88,2.88,0,0,0-2.77,2.2Q1098.93,282.86,1098.92,288.44Z"/><path d="M1117.45,274.34h5.45v3.27q2.34-3.74,6-3.74a5.44,5.44,0,0,1,5.14,2.72q.86,1.55.86,6v20.23h-5.45l0-19a8.51,8.51,0,0,0-.72-4.1,2.61,2.61,0,0,0-2.45-1.21,3.6,3.6,0,0,0-1.59.32,2.48,2.48,0,0,0-1,1,5.49,5.49,0,0,0-.58,1.82,16.82,16.82,0,0,0-.19,2.78v18.39h-5.45Z"/><path d="M1142.77,296.85l4.74,1.35-5.66,14.92-3-.79Z"/><path d="M1165.32,274.34h5.45v19a7.39,7.39,0,0,0,.81,3.77,2.83,2.83,0,0,0,2.53,1.12,3.06,3.06,0,0,0,2.6-1,6.54,6.54,0,0,0,.74-3.62v-19.3h5.45v17q0,6-.91,8c-1.28,2.6-3.92,3.9-7.94,3.9q-4.74,0-6.73-2.31c-1.34-1.56-2-4.15-2-7.78Z"/><path d="M1205.94,256.09v46.7h-5.46v-3.66a9.17,9.17,0,0,1-2.34,3.22,5,5,0,0,1-3.11.88,5.63,5.63,0,0,1-5.36-3.62q-1.73-3.62-1.72-11.36a42.86,42.86,0,0,1,.43-6.46,15.75,15.75,0,0,1,1.3-4.48,6.16,6.16,0,0,1,2.24-2.6,6.1,6.1,0,0,1,3.25-.84,5,5,0,0,1,3,.83,5.58,5.58,0,0,1,1.17,1.1,10.32,10.32,0,0,1,1.17,1.76V256.09Zm-12.34,32.35a26.77,26.77,0,0,0,.78,7.83,2.86,2.86,0,0,0,2.79,2.23c1.22,0,2.11-.77,2.66-2.31a35.44,35.44,0,0,0,0-15.25c-.55-1.54-1.44-2.31-2.66-2.31a2.89,2.89,0,0,0-2.77,2.2Q1193.6,282.86,1193.6,288.44Z"/><path d="M1223.55,293.2h5.08q-.6,10-8.56,10a9.09,9.09,0,0,1-4.07-.85,7,7,0,0,1-2.81-2.64,13.33,13.33,0,0,1-1.65-4.54,35.35,35.35,0,0,1-.52-6.54q0-7.53,2.18-11.16a7.34,7.34,0,0,1,6.75-3.63q8.88,0,8.88,15.07v.65h-12.48q0,9.14,3.77,9.13Q1223.56,298.72,1223.55,293.2Zm-.29-7.4a18.77,18.77,0,0,0-1-5.88,2.5,2.5,0,0,0-2.4-1.57,2.45,2.45,0,0,0-2.4,1.57q-.72,1.4-1.06,5.88Z"/><path d="M1233.68,274.34h5.45v3.27q2.34-3.74,6-3.74a5.44,5.44,0,0,1,5.14,2.72q.86,1.55.86,6v20.23h-5.45l0-19a8.51,8.51,0,0,0-.72-4.1,2.61,2.61,0,0,0-2.45-1.21,3.53,3.53,0,0,0-1.58.32,2.45,2.45,0,0,0-1,1,5.49,5.49,0,0,0-.58,1.82,16.82,16.82,0,0,0-.19,2.78v18.39h-5.45Z"/><path d="M1270.1,266.37h5.46v8h3v4.18h-3v24.27h-5.46V278.52h-3v-4.18h3Z"/><path d="M1285,262.24a3.57,3.57,0,0,1,2.57,1.05,3.45,3.45,0,0,1,0,5,3.83,3.83,0,0,1-5.25,0,3.42,3.42,0,0,1-1.06-2.56,3.3,3.3,0,0,1,1.09-2.47A3.86,3.86,0,0,1,1285,262.24Zm-2.57,12.1h5.49v28.45h-5.49Z"/><path d="M1294.05,256.09h5.45v46.7h-5.45Z"/><path d="M1305.7,256.09h5.45v46.7h-5.45Z"/><path d="M1334.21,274.34v28.45h-5.45v-3.66a9.17,9.17,0,0,1-2.34,3.22,5,5,0,0,1-3.08.88,5.65,5.65,0,0,1-5.4-3.63q-1.71-3.63-1.71-11.38,0-7.39,1.71-10.87a5.66,5.66,0,0,1,5.4-3.48q3.36,0,5.42,3.69v-3.22Zm-12.33,14.1a27.22,27.22,0,0,0,.77,7.83,2.88,2.88,0,0,0,2.8,2.23c1.22,0,2.1-.77,2.65-2.31a35.44,35.44,0,0,0,0-15.25c-.55-1.54-1.43-2.31-2.65-2.31a2.88,2.88,0,0,0-2.77,2.2Q1321.89,282.86,1321.88,288.44Z"/><path d="M1357.28,256.09v46.7h-5.45v-3.66a9.43,9.43,0,0,1-2.34,3.22,5.06,5.06,0,0,1-3.12.88,5.63,5.63,0,0,1-5.36-3.62q-1.71-3.62-1.72-11.36a42.86,42.86,0,0,1,.43-6.46,15.75,15.75,0,0,1,1.3-4.48,5.68,5.68,0,0,1,5.5-3.44,5.08,5.08,0,0,1,3,.83,5.58,5.58,0,0,1,1.17,1.1,11.66,11.66,0,0,1,1.17,1.76V256.09ZM1345,288.44c0,3.74.25,6.35.77,7.83a2.86,2.86,0,0,0,2.79,2.23c1.22,0,2.11-.77,2.66-2.31a35.44,35.44,0,0,0,0-15.25c-.55-1.54-1.44-2.31-2.66-2.31a2.87,2.87,0,0,0-2.76,2.2C1345.21,282.18,1345,284.72,1345,288.44Z"/><path d="M1374.89,293.2H1380q-.6,10-8.56,10a9.09,9.09,0,0,1-4.07-.85,7,7,0,0,1-2.81-2.64,13.33,13.33,0,0,1-1.64-4.54,34.43,34.43,0,0,1-.53-6.54q0-7.53,2.18-11.16a7.34,7.34,0,0,1,6.75-3.63q8.88,0,8.88,15.07v.65H1367.7q0,9.14,3.76,9.13Q1374.9,298.72,1374.89,293.2Zm-.29-7.4a18.47,18.47,0,0,0-1-5.88,2.5,2.5,0,0,0-2.4-1.57,2.46,2.46,0,0,0-2.4,1.57,18.47,18.47,0,0,0-1,5.88Z"/><path d="M1385,256.09h5.45v46.7H1385Z"/><path d="M1408.09,274.92v4.92a7.07,7.07,0,0,0-4.2-1.43,3.83,3.83,0,0,0-1.37.24,3.63,3.63,0,0,0-1.1.68,3,3,0,0,0-.74,1,3,3,0,0,0-.27,1.25q0,2,3.82,4.83a26.57,26.57,0,0,1,2.57,2.15,9.54,9.54,0,0,1,1.57,1.87,7.94,7.94,0,0,1,1.12,4.37,7.91,7.91,0,0,1-8.45,8.41,9.83,9.83,0,0,1-4.8-1.35V296.8a7.81,7.81,0,0,0,4.48,1.7q3.73,0,3.74-3.55a3.89,3.89,0,0,0-.68-2.28,6.6,6.6,0,0,0-1-1.08c-.46-.41-1-.88-1.69-1.39a22,22,0,0,1-4.68-4.34,7.75,7.75,0,0,1-1.2-4.37,7.67,7.67,0,0,1,2.2-5.64,8,8,0,0,1,5.8-2.17A10.38,10.38,0,0,1,1408.09,274.92Z"/><path d="M1425.27,293.2h5.08q-.6,10-8.56,10a9.09,9.09,0,0,1-4.07-.85,7,7,0,0,1-2.81-2.64,13.33,13.33,0,0,1-1.64-4.54,35.27,35.27,0,0,1-.53-6.54q0-7.53,2.18-11.16a7.34,7.34,0,0,1,6.75-3.63q8.88,0,8.88,15.07v.65h-12.47q0,9.14,3.76,9.13Q1425.28,298.72,1425.27,293.2Zm-.29-7.4a18.47,18.47,0,0,0-1-5.88,2.5,2.5,0,0,0-2.4-1.57,2.46,2.46,0,0,0-2.4,1.57,18.77,18.77,0,0,0-1.05,5.88Z"/><path d="M1438.46,296.41a3.31,3.31,0,0,1,2.42,1,3.29,3.29,0,0,1,0,4.78,3.63,3.63,0,0,1-2.48,1,3.5,3.5,0,0,1-1.38-.26,3.55,3.55,0,0,1-1.13-.71,3.12,3.12,0,0,1-.76-1.07,3.34,3.34,0,0,1-.27-1.34,3.19,3.19,0,0,1,1-2.39A3.61,3.61,0,0,1,1438.46,296.41Z"/><path d="M486.82,327.9h7.82q5.66,0,8.22,2.75c1.72,1.85,2.57,4.78,2.57,8.8q0,8.46-5.16,10.94a19.67,19.67,0,0,1-7.51,1.12v18.83h-5.94Zm5.94,18.72c2.45,0,4.15-.48,5.08-1.43s1.43-2.69,1.43-5.17-.46-4.38-1.37-5.55a5.14,5.14,0,0,0-4.31-1.76h-.83Z"/><path d="M526.38,341.89v28.45h-5.45v-3.65a9.12,9.12,0,0,1-2.34,3.21,5,5,0,0,1-3.08.88,5.65,5.65,0,0,1-5.4-3.63q-1.71-3.63-1.71-11.38,0-7.39,1.71-10.87a5.66,5.66,0,0,1,5.4-3.48q3.36,0,5.42,3.69v-3.22ZM518.11,329a4.5,4.5,0,0,1,3.28,1.37,4.43,4.43,0,0,1,0,6.46,4.81,4.81,0,0,1-3.37,1.32,4.74,4.74,0,0,1-3.37-1.32,4.4,4.4,0,0,1-1.37-3.27,4.26,4.26,0,0,1,1.4-3.21A4.74,4.74,0,0,1,518.11,329Zm-4.06,27a27.35,27.35,0,0,0,.77,7.84,2.87,2.87,0,0,0,2.8,2.22c1.22,0,2.1-.77,2.65-2.31a35.44,35.44,0,0,0,0-15.25c-.55-1.54-1.43-2.31-2.65-2.31a2.88,2.88,0,0,0-2.77,2.2C514.32,349.74,514.05,352.27,514.05,356Zm4-24.38a2,2,0,0,0-1.42.57,1.77,1.77,0,0,0-.58,1.33,1.85,1.85,0,0,0,.57,1.36,1.94,1.94,0,0,0,1.4.56,2,2,0,0,0,1.41-.55,1.76,1.76,0,0,0,.59-1.34,1.83,1.83,0,0,0-.59-1.35A1.88,1.88,0,0,0,518.08,331.61Z"/><path d="M544.68,341.89h5.45v3.27q2.34-3.74,6-3.74a5.43,5.43,0,0,1,5.14,2.73q.85,1.53.86,6v20.23h-5.45l0-19a8.53,8.53,0,0,0-.72-4.1,2.61,2.61,0,0,0-2.45-1.2,3.61,3.61,0,0,0-1.59.31,2.48,2.48,0,0,0-1,1,5.55,5.55,0,0,0-.58,1.83,16.61,16.61,0,0,0-.19,2.77v18.39h-5.45Z"/><path d="M579.76,360.75h5.08q-.6,10-8.56,10a9,9,0,0,1-4.07-.85,7,7,0,0,1-2.81-2.64,13.26,13.26,0,0,1-1.64-4.54,35.27,35.27,0,0,1-.53-6.54q0-7.53,2.18-11.16a7.34,7.34,0,0,1,6.75-3.63q8.88,0,8.88,15.07v.66H572.57q0,9.12,3.77,9.12Q579.76,366.27,579.76,360.75Zm-.28-7.4a18.81,18.81,0,0,0-1.06-5.88,2.5,2.5,0,0,0-2.4-1.56,2.47,2.47,0,0,0-2.4,1.56,18.9,18.9,0,0,0-1,5.88Z"/><path d="M606.76,323.64v46.7h-5.45v-3.65A9.12,9.12,0,0,1,599,369.9a5,5,0,0,1-3.11.88,5.64,5.64,0,0,1-5.37-3.61q-1.71-3.62-1.71-11.37a41.68,41.68,0,0,1,.43-6.46,15.53,15.53,0,0,1,1.3-4.48,5.68,5.68,0,0,1,5.49-3.44,5,5,0,0,1,3,.83,5.86,5.86,0,0,1,1.17,1.1,10.74,10.74,0,0,1,1.17,1.76V323.64ZM594.43,356a27.35,27.35,0,0,0,.77,7.84,2.88,2.88,0,0,0,2.8,2.22c1.22,0,2.1-.77,2.65-2.31a35.44,35.44,0,0,0,0-15.25c-.55-1.54-1.43-2.31-2.65-2.31a2.88,2.88,0,0,0-2.77,2.2C594.7,349.74,594.43,352.27,594.43,356Z"/><path d="M624.38,360.75h5.08q-.6,10-8.57,10a8.91,8.91,0,0,1-4.06-.85,7,7,0,0,1-2.82-2.64,13.26,13.26,0,0,1-1.64-4.54,35.27,35.27,0,0,1-.53-6.54q0-7.53,2.19-11.16a7.31,7.31,0,0,1,6.75-3.63q8.88,0,8.88,15.07v.66H617.18q0,9.12,3.77,9.12C623.23,366.27,624.38,364.43,624.38,360.75Zm-.29-7.4a18.51,18.51,0,0,0-1.06-5.88,2.48,2.48,0,0,0-2.39-1.56,2.45,2.45,0,0,0-2.4,1.56,18.51,18.51,0,0,0-1.06,5.88Z"/><path d="M634.51,341.89H640v3.27q2.34-3.74,6-3.74a5.43,5.43,0,0,1,5.14,2.73q.86,1.53.86,6v20.23h-5.46l0-19a8.53,8.53,0,0,0-.72-4.1,2.61,2.61,0,0,0-2.45-1.2,3.61,3.61,0,0,0-1.59.31,2.43,2.43,0,0,0-1,1,5.33,5.33,0,0,0-.58,1.83A16.61,16.61,0,0,0,640,352v18.39h-5.45Z"/><path d="M669.59,342.47v4.92a7.12,7.12,0,0,0-4.2-1.43,3.68,3.68,0,0,0-2.47.92,3.15,3.15,0,0,0-.74,1,3,3,0,0,0-.27,1.25c0,1.35,1.28,3,3.83,4.84a27.63,27.63,0,0,1,2.56,2.14,10,10,0,0,1,1.58,1.87,7.94,7.94,0,0,1,1.11,4.37,7.9,7.9,0,0,1-8.45,8.41,9.83,9.83,0,0,1-4.8-1.35v-5.08a7.77,7.77,0,0,0,4.49,1.7q3.74,0,3.73-3.54a3.8,3.8,0,0,0-.68-2.28,5.85,5.85,0,0,0-1-1.09c-.46-.41-1-.87-1.68-1.39a21.83,21.83,0,0,1-4.69-4.34,7.83,7.83,0,0,1-1.19-4.37,7.67,7.67,0,0,1,2.19-5.64,8,8,0,0,1,5.8-2.17A10.38,10.38,0,0,1,669.59,342.47Z"/><path d="M676.3,333.92h5.45v8h3v4.18h-3v24.27H676.3V346.07h-3v-4.18h3Z"/><path d="M705.56,341.89v28.45H700.1v-3.65a9.12,9.12,0,0,1-2.34,3.21,5,5,0,0,1-3.08.88,5.66,5.66,0,0,1-5.4-3.63q-1.71-3.63-1.71-11.38,0-7.39,1.71-10.87a5.67,5.67,0,0,1,5.4-3.48q3.36,0,5.42,3.69v-3.22ZM697.28,329a4.49,4.49,0,0,1,3.28,1.37,4.43,4.43,0,0,1,0,6.46,5,5,0,0,1-6.74,0,4.4,4.4,0,0,1-1.37-3.27,4.26,4.26,0,0,1,1.4-3.21A4.75,4.75,0,0,1,697.28,329Zm-4.06,27a27.35,27.35,0,0,0,.77,7.84,2.88,2.88,0,0,0,2.8,2.22c1.22,0,2.1-.77,2.66-2.31a35.86,35.86,0,0,0,0-15.25c-.56-1.54-1.44-2.31-2.66-2.31a2.88,2.88,0,0,0-2.77,2.2C693.49,349.74,693.22,352.27,693.22,356Zm4-24.38a2,2,0,0,0-1.41.57,1.78,1.78,0,0,0-.59,1.33,1.85,1.85,0,0,0,.57,1.36,1.94,1.94,0,0,0,1.4.56,2,2,0,0,0,1.41-.55,1.76,1.76,0,0,0,.59-1.34,1.83,1.83,0,0,0-.59-1.35A1.88,1.88,0,0,0,697.25,331.61Z"/><path d="M723.17,360.75h5.08q-.6,10-8.57,10a8.91,8.91,0,0,1-4.06-.85,7,7,0,0,1-2.81-2.64,13.25,13.25,0,0,1-1.65-4.54,35.35,35.35,0,0,1-.52-6.54q0-7.53,2.18-11.16a7.34,7.34,0,0,1,6.75-3.63q8.88,0,8.88,15.07v.66H716q0,9.12,3.77,9.12Q723.18,366.27,723.17,360.75Zm-.29-7.4a18.9,18.9,0,0,0-1-5.88,2.5,2.5,0,0,0-2.4-1.56,2.46,2.46,0,0,0-2.4,1.56,18.51,18.51,0,0,0-1.06,5.88Z"/><path d="M733.3,341.89h5.45v3.27q2.34-3.74,6-3.74a5.43,5.43,0,0,1,5.14,2.73q.85,1.53.86,6v20.23h-5.45l0-19a8.53,8.53,0,0,0-.72-4.1,2.61,2.61,0,0,0-2.45-1.2,3.61,3.61,0,0,0-1.59.31,2.48,2.48,0,0,0-1,1,5.55,5.55,0,0,0-.58,1.83,16.61,16.61,0,0,0-.19,2.77v18.39H733.3Z"/><path d="M773.83,323.64v46.7h-5.45v-3.65A9.12,9.12,0,0,1,766,369.9a5,5,0,0,1-3.11.88,5.63,5.63,0,0,1-5.37-3.61q-1.71-3.62-1.71-11.37a41.68,41.68,0,0,1,.43-6.46,15.53,15.53,0,0,1,1.3-4.48,5.68,5.68,0,0,1,5.49-3.44,5,5,0,0,1,3,.83,5.86,5.86,0,0,1,1.17,1.1,10.74,10.74,0,0,1,1.17,1.76V323.64ZM761.5,356a27.35,27.35,0,0,0,.77,7.84,2.87,2.87,0,0,0,2.8,2.22c1.22,0,2.1-.77,2.65-2.31a35.44,35.44,0,0,0,0-15.25c-.55-1.54-1.43-2.31-2.65-2.31a2.88,2.88,0,0,0-2.77,2.2C761.77,349.74,761.5,352.27,761.5,356Z"/><path d="M791.44,360.75h5.09q-.6,10-8.57,10a8.91,8.91,0,0,1-4.06-.85,7,7,0,0,1-2.82-2.64,13.26,13.26,0,0,1-1.64-4.54,35.27,35.27,0,0,1-.53-6.54q0-7.53,2.19-11.16a7.31,7.31,0,0,1,6.75-3.63q8.88,0,8.88,15.07v.66H784.25q0,9.12,3.77,9.12Q791.44,366.27,791.44,360.75Zm-.28-7.4a18.51,18.51,0,0,0-1.06-5.88,2.48,2.48,0,0,0-2.39-1.56,2.45,2.45,0,0,0-2.4,1.56,18.51,18.51,0,0,0-1.06,5.88Z"/><path d="M813.68,323.64h5.45v46.7h-5.45Z"/><path d="M827.9,329.8a3.57,3.57,0,0,1,2.56,1,3.45,3.45,0,0,1,0,5,3.61,3.61,0,0,1-2.62,1.05,3.65,3.65,0,0,1-2.63-1.05,3.41,3.41,0,0,1-1.05-2.55,3.34,3.34,0,0,1,1.08-2.48A3.92,3.92,0,0,1,827.9,329.8Zm-2.57,12.09h5.48v28.45h-5.48Z"/><path d="M836.94,341.89h5.46v3.27c1.56-2.49,3.57-3.74,6.05-3.74a5.43,5.43,0,0,1,5.14,2.73q.85,1.53.85,6v20.23H849l0-19a8.68,8.68,0,0,0-.71-4.1,2.64,2.64,0,0,0-2.46-1.2,3.59,3.59,0,0,0-1.58.31,2.38,2.38,0,0,0-1,1,5.54,5.54,0,0,0-.59,1.83,17.9,17.9,0,0,0-.18,2.77v18.39h-5.46Z"/><path d="M860.61,323.64h5.45v30.92L873,341.89h6.16l-7.53,12.67,8.53,15.78h-6.39l-7.71-15.12v15.12h-5.45Z"/><path d="M895.57,323.64H901v30.92L908,341.89h6.17l-7.54,12.67,8.54,15.78h-6.4L901,355.22v15.12h-5.46Z"/><path d="M934.74,341.89v28.45h-5.46v-3.65a9.12,9.12,0,0,1-2.34,3.21,5,5,0,0,1-3.08.88,5.65,5.65,0,0,1-5.39-3.63q-1.72-3.63-1.72-11.38,0-7.39,1.72-10.87a5.66,5.66,0,0,1,5.39-3.48c2.25,0,4,1.23,5.42,3.69v-3.22ZM922.41,356c0,3.74.25,6.35.77,7.84a2.86,2.86,0,0,0,2.79,2.22c1.22,0,2.11-.77,2.66-2.31a35.44,35.44,0,0,0,0-15.25c-.55-1.54-1.44-2.31-2.66-2.31a2.89,2.89,0,0,0-2.77,2.2C922.67,349.74,922.41,352.27,922.41,356Z"/><path d="M940.93,341.89h5.45v3.27q2.34-3.74,6-3.74a5.43,5.43,0,0,1,5.14,2.73q.85,1.53.86,6v20.23H953l0-19a8.53,8.53,0,0,0-.72-4.1,2.61,2.61,0,0,0-2.45-1.2,3.53,3.53,0,0,0-1.58.31,2.45,2.45,0,0,0-1.05,1,5.55,5.55,0,0,0-.58,1.83,16.61,16.61,0,0,0-.19,2.77v18.39h-5.45Z"/><path d="M993.57,323.64v46.7h-5.46v-3.65a9.12,9.12,0,0,1-2.34,3.21,5,5,0,0,1-3.11.88,5.62,5.62,0,0,1-5.36-3.61q-1.72-3.62-1.72-11.37a43,43,0,0,1,.43-6.46,15.85,15.85,0,0,1,1.3-4.48,5.68,5.68,0,0,1,5.5-3.44,5,5,0,0,1,3,.83,5.86,5.86,0,0,1,1.17,1.1,10.74,10.74,0,0,1,1.17,1.76V323.64ZM981.24,356c0,3.74.25,6.35.77,7.84a2.86,2.86,0,0,0,2.79,2.22c1.22,0,2.11-.77,2.66-2.31a35.44,35.44,0,0,0,0-15.25c-.55-1.54-1.44-2.31-2.66-2.31a2.87,2.87,0,0,0-2.76,2.2C981.5,349.74,981.24,352.27,981.24,356Z"/><path d="M999.76,341.89h5.45v19a7.28,7.28,0,0,0,.82,3.77,2.81,2.81,0,0,0,2.52,1.13,3.06,3.06,0,0,0,2.6-1,6.6,6.6,0,0,0,.74-3.63v-19.3h5.45v17q0,6-.91,8c-1.27,2.6-3.92,3.9-7.93,3.9q-4.74,0-6.74-2.31c-1.33-1.55-2-4.15-2-7.78Z"/><path d="M1047,342.47v4.92a7.12,7.12,0,0,0-4.2-1.43,3.68,3.68,0,0,0-2.47.92,3.15,3.15,0,0,0-.74,1,3,3,0,0,0-.27,1.25c0,1.35,1.28,3,3.83,4.84a29.31,29.31,0,0,1,2.57,2.14,10.3,10.3,0,0,1,1.57,1.87,7.94,7.94,0,0,1,1.11,4.37,7.9,7.9,0,0,1-8.45,8.41,9.83,9.83,0,0,1-4.8-1.35v-5.08a7.77,7.77,0,0,0,4.49,1.7q3.74,0,3.73-3.54a3.8,3.8,0,0,0-.68-2.28,5.85,5.85,0,0,0-1-1.09c-.46-.41-1-.87-1.68-1.39a21.48,21.48,0,0,1-4.68-4.34,7.75,7.75,0,0,1-1.2-4.37,7.67,7.67,0,0,1,2.19-5.64,8,8,0,0,1,5.8-2.17A10.38,10.38,0,0,1,1047,342.47Z"/><path d="M1053.74,333.92h5.45v8h3v4.18h-3v24.27h-5.45V346.07h-3v-4.18h3Z"/><path d="M1068.64,329.8a3.61,3.61,0,0,1,2.57,1,3.47,3.47,0,0,1,0,5,3.65,3.65,0,0,1-2.63,1.05,3.61,3.61,0,0,1-2.62-1.05,3.38,3.38,0,0,1-1.06-2.55,3.34,3.34,0,0,1,1.08-2.48A3.92,3.92,0,0,1,1068.64,329.8Zm-2.57,12.09h5.48v28.45h-5.48Z"/><path d="M1077.69,323.64h5.45v46.7h-5.45Z"/><path d="M1089.33,323.64h5.46v46.7h-5.46Z"/><path d="M1112.4,360.75h5.08q-.6,10-8.57,10a8.91,8.91,0,0,1-4.06-.85,7,7,0,0,1-2.82-2.64,13.47,13.47,0,0,1-1.64-4.54,35.35,35.35,0,0,1-.52-6.54q0-7.53,2.18-11.16a7.31,7.31,0,0,1,6.75-3.63q8.88,0,8.88,15.07v.66H1105.2q0,9.12,3.77,9.12C1111.25,366.27,1112.4,364.43,1112.4,360.75Zm-.29-7.4a18.51,18.51,0,0,0-1.06-5.88,2.48,2.48,0,0,0-2.39-1.56,2.45,2.45,0,0,0-2.4,1.56,18.51,18.51,0,0,0-1.06,5.88Z"/><path d="M1151.5,341.89v28.45h-5.45v-3.65a9.12,9.12,0,0,1-2.34,3.21,5,5,0,0,1-3.08.88,5.65,5.65,0,0,1-5.4-3.63q-1.71-3.63-1.71-11.38,0-7.39,1.71-10.87a5.66,5.66,0,0,1,5.4-3.48q3.36,0,5.42,3.69v-3.22ZM1139.17,356a27.35,27.35,0,0,0,.77,7.84,2.87,2.87,0,0,0,2.8,2.22c1.22,0,2.1-.77,2.65-2.31a35.44,35.44,0,0,0,0-15.25c-.55-1.54-1.43-2.31-2.65-2.31a2.88,2.88,0,0,0-2.77,2.2C1139.44,349.74,1139.17,352.27,1139.17,356Z"/><path d="M1157.7,341.89h5.45v3.27q2.34-3.74,6-3.74a5.43,5.43,0,0,1,5.14,2.73q.86,1.53.85,6v20.23h-5.45l0-19a8.68,8.68,0,0,0-.71-4.1,2.62,2.62,0,0,0-2.46-1.2,3.59,3.59,0,0,0-1.58.31,2.38,2.38,0,0,0-1,1,5.54,5.54,0,0,0-.59,1.83,17.9,17.9,0,0,0-.18,2.77v18.39h-5.45Z"/><path d="M1198.8,356.35q0,14.43-9.28,14.43t-9.27-14.65q0-14.7,9.24-14.71a9.28,9.28,0,0,1,4.16.88,7.19,7.19,0,0,1,2.89,2.73,13.63,13.63,0,0,1,1.7,4.64A34.88,34.88,0,0,1,1198.8,356.35Zm-5.65-.14a26.88,26.88,0,0,0-.77-7.8,2.82,2.82,0,0,0-2.74-2.23,2.87,2.87,0,0,0-2.77,2.2,26,26,0,0,0-.77,7.67c0,3.64.25,6.19.77,7.64a2.87,2.87,0,0,0,2.77,2.2,2.8,2.8,0,0,0,2.71-2.17Q1193.15,361.68,1193.15,356.21Z"/><path d="M1203.88,341.89h5.45v3.27q2.34-3.74,6.05-3.74a5.43,5.43,0,0,1,5.14,2.73q.86,1.53.86,6v20.23h-5.45l0-19a8.53,8.53,0,0,0-.72-4.1,2.61,2.61,0,0,0-2.45-1.2,3.53,3.53,0,0,0-1.58.31,2.45,2.45,0,0,0-1.05,1,5.55,5.55,0,0,0-.58,1.83,16.61,16.61,0,0,0-.19,2.77v18.39h-5.45Z"/><path d="M1224.4,341.89h6.17l4.34,19.85,5.08-19.85h5.54L1233.45,382h-5.74l4.54-13.94Z"/><path d="M1248.81,341.89h5.45v3.52q2.25-4,6-4a5.47,5.47,0,0,1,5.53,4c1.45-2.66,3.5-4,6.17-4a6.59,6.59,0,0,1,4.75,1.58,6.17,6.17,0,0,1,1.64,4.66v22.68h-5.48V351.62a9.8,9.8,0,0,0-.63-4.31,2.41,2.41,0,0,0-2.34-1.13,2.9,2.9,0,0,0-2.68,1.15,9.16,9.16,0,0,0-.68,4.29v18.72h-5.66V351.62a18.2,18.2,0,0,0-.15-2.55,4.75,4.75,0,0,0-.53-1.68,2.25,2.25,0,0,0-1-.92,3.47,3.47,0,0,0-1.49-.29,2.94,2.94,0,0,0-2.68,1.24,8.13,8.13,0,0,0-.8,4.2v18.72h-5.45Z"/><path d="M1295.94,360.75H1301q-.6,10-8.57,10a8.91,8.91,0,0,1-4.06-.85,7,7,0,0,1-2.82-2.64,13.47,13.47,0,0,1-1.64-4.54,35.35,35.35,0,0,1-.52-6.54q0-7.53,2.18-11.16a7.31,7.31,0,0,1,6.75-3.63q8.88,0,8.88,15.07v.66h-12.48q0,9.12,3.77,9.12C1294.79,366.27,1295.94,364.43,1295.94,360.75Zm-.29-7.4a18.51,18.51,0,0,0-1.06-5.88,2.48,2.48,0,0,0-2.39-1.56,2.45,2.45,0,0,0-2.4,1.56,18.51,18.51,0,0,0-1.06,5.88Z"/><path d="M497.92,410v4.92a7.11,7.11,0,0,0-4.19-1.43,3.79,3.79,0,0,0-1.37.25,3.68,3.68,0,0,0-1.1.67,3.26,3.26,0,0,0-.74,1,3,3,0,0,0-.27,1.25q0,2,3.82,4.84a27.89,27.89,0,0,1,2.57,2.14,10.23,10.23,0,0,1,1.57,1.87,8,8,0,0,1,1.11,4.37,7.9,7.9,0,0,1-8.45,8.41,9.78,9.78,0,0,1-4.79-1.34V431.9a7.76,7.76,0,0,0,4.48,1.71c2.49,0,3.74-1.19,3.74-3.55a3.8,3.8,0,0,0-.69-2.28,6.88,6.88,0,0,0-1-1.09c-.46-.41-1-.87-1.69-1.38a22,22,0,0,1-4.68-4.35,7.73,7.73,0,0,1-1.2-4.37,7.59,7.59,0,0,1,2.2-5.63,7.92,7.92,0,0,1,5.79-2.17A10.45,10.45,0,0,1,497.92,410Z"/><path d="M503.69,449.55v-40.1h5.45v3.68a9,9,0,0,1,2.34-3.25,5.11,5.11,0,0,1,3.14-.9,5.59,5.59,0,0,1,5.35,3.64q1.71,3.64,1.7,11.39,0,7.59-1.74,10.92a5.75,5.75,0,0,1-5.51,3.4,5.2,5.2,0,0,1-3-.79,5.33,5.33,0,0,1-1.15-1.1,13.66,13.66,0,0,1-1.14-1.73v14.84ZM516,423.82q0-5.81-.8-7.86a2.83,2.83,0,0,0-2.77-2.23c-1.25,0-2.15.77-2.68,2.31s-.8,4-.8,7.64.27,6.22.8,7.65,1.45,2.28,2.68,2.28a2.88,2.88,0,0,0,2.77-2.2Q516,429.37,516,423.82Z"/><path d="M542.85,408.48l2.86,1.76L543,414.89a28.3,28.3,0,0,1,1.2,9.45q0,14-9.27,14a7.91,7.91,0,0,1-6-2.3l-2,2.77L524.16,437l2.71-4.15a37.69,37.69,0,0,1-1.2-9.46c0-4.94.74-8.58,2.23-10.89s3.8-3.48,7-3.48a9,9,0,0,1,6.17,2.36Zm-5.25,7.31a2.56,2.56,0,0,0-2.71-2.06,2.77,2.77,0,0,0-2.63,2,21.2,21.2,0,0,0-.77,6.79l.09,3.71Zm-5.25,15.86a2.76,2.76,0,0,0,2.77,2.18,2.69,2.69,0,0,0,2.65-2,25.66,25.66,0,0,0,.74-7.42l0-3.43Z"/><path d="M549.28,409.45h5.45V413a10,10,0,0,1,2.77-3.16,7.31,7.31,0,0,1,3.62-1v5.49a7.69,7.69,0,0,0-1-.08c-2,0-3.36.49-4.2,1.46s-1.22,2.62-1.22,5v17.23h-5.45Z"/><path d="M576.68,409.45h5.48V438.8q0,5.28-1.09,7.31-2,3.74-8,3.74a8.58,8.58,0,0,1-6.22-2.17,7.84,7.84,0,0,1-2.28-5.91l0-.88h5.28c0,3,1.17,4.54,3.51,4.54a2.75,2.75,0,0,0,2.59-1.16c.48-.73.72-2.19.72-4.37v-5.47q-1.74,3.9-5.34,3.9a5.77,5.77,0,0,1-5.47-3.46q-1.75-3.47-1.75-10.83,0-7.8,1.68-11.52a5.67,5.67,0,0,1,5.51-3.54,4.82,4.82,0,0,1,3,.85,10.25,10.25,0,0,1,2.4,3Zm.08,14.48q0-10.2-3.65-10.2c-1.16,0-2,.77-2.54,2.3a24.43,24.43,0,0,0-.8,7.35,27.53,27.53,0,0,0,.83,7.89q.85,2.34,2.85,2.34a2.65,2.65,0,0,0,2.6-2.09C576.53,430.22,576.76,427.69,576.76,423.93Z"/><path d="M599.74,410v4.92a7.11,7.11,0,0,0-4.19-1.43,3.75,3.75,0,0,0-1.37.25,3.68,3.68,0,0,0-1.1.67,3.29,3.29,0,0,0-.75,1,3,3,0,0,0-.27,1.25q0,2,3.83,4.84a27.89,27.89,0,0,1,2.57,2.14,10.23,10.23,0,0,1,1.57,1.87,8,8,0,0,1,1.11,4.37,7.9,7.9,0,0,1-8.45,8.41A9.75,9.75,0,0,1,587.9,437V431.9a7.76,7.76,0,0,0,4.48,1.71c2.49,0,3.74-1.19,3.74-3.55a3.8,3.8,0,0,0-.69-2.28,6.55,6.55,0,0,0-1-1.09c-.45-.41-1-.87-1.68-1.38a22,22,0,0,1-4.68-4.35,7.73,7.73,0,0,1-1.2-4.37,7.59,7.59,0,0,1,2.2-5.63,7.92,7.92,0,0,1,5.79-2.17A10.45,10.45,0,0,1,599.74,410Z"/><path d="M605.51,409.45H611V413q2.25-4,6-4a5.48,5.48,0,0,1,5.54,4c1.45-2.65,3.5-4,6.17-4a6.57,6.57,0,0,1,4.75,1.58,6.19,6.19,0,0,1,1.64,4.66v22.67h-5.48V419.18a9.82,9.82,0,0,0-.63-4.32,2.41,2.41,0,0,0-2.34-1.13,2.89,2.89,0,0,0-2.68,1.16,9.08,9.08,0,0,0-.69,4.29v18.71h-5.65V419.18a16.88,16.88,0,0,0-.16-2.56,4.76,4.76,0,0,0-.52-1.68,2.25,2.25,0,0,0-1-.92,3.47,3.47,0,0,0-1.49-.29,3,3,0,0,0-2.68,1.24,8.18,8.18,0,0,0-.8,4.21v18.71h-5.45Z"/><path d="M658.09,409.45v28.44h-5.46v-3.65a9,9,0,0,1-2.34,3.21,5,5,0,0,1-3.08.88,5.65,5.65,0,0,1-5.39-3.62q-1.73-3.63-1.72-11.38,0-7.4,1.72-10.87a5.66,5.66,0,0,1,5.39-3.48c2.25,0,4,1.23,5.42,3.68v-3.21Zm-8.28-12.9a4.46,4.46,0,0,1,3.28,1.38,4.43,4.43,0,0,1,0,6.46,5,5,0,0,1-6.74,0,4.43,4.43,0,0,1-1.37-3.27,4.26,4.26,0,0,1,1.4-3.22A4.77,4.77,0,0,1,649.81,396.55Zm-4.06,27a26.81,26.81,0,0,0,.78,7.83,2.87,2.87,0,0,0,2.79,2.23c1.22,0,2.11-.77,2.66-2.31A35.49,35.49,0,0,0,652,416c-.55-1.54-1.44-2.31-2.66-2.31a2.9,2.9,0,0,0-2.77,2.2Q645.76,418,645.75,423.55Zm4-24.38a1.94,1.94,0,0,0-1.41.56,1.78,1.78,0,0,0-.59,1.33,1.84,1.84,0,0,0,.57,1.36,1.91,1.91,0,0,0,1.4.57,2,2,0,0,0,1.41-.55,1.8,1.8,0,0,0,.59-1.35,1.86,1.86,0,0,0-.59-1.35A1.91,1.91,0,0,0,649.78,399.17Z"/><path d="M664.28,391.19h5.45v46.7h-5.45Z"/><path d="M685.17,409.45H691l2.14,9c.43,1.83.81,3.77,1.11,5.81s.55,4.28.74,6.7a7.86,7.86,0,0,0,.17-1l.66-4.23c.25-1.62.73-4.05,1.46-7.29l2-9h5.28l-7.71,28.44h-3.68Z"/><path d="M718.94,428.3H724q-.6,10-8.56,10a9,9,0,0,1-4.07-.85,7,7,0,0,1-2.81-2.64,13.28,13.28,0,0,1-1.64-4.53,35.35,35.35,0,0,1-.53-6.54c0-5,.73-8.75,2.19-11.16a7.31,7.31,0,0,1,6.75-3.63q8.86,0,8.87,15.06v.66H711.75q0,9.12,3.77,9.13C717.8,433.83,718.94,432,718.94,428.3Zm-.28-7.39q-.35-4.49-1.06-5.89a2.48,2.48,0,0,0-2.4-1.56,2.44,2.44,0,0,0-2.39,1.56q-.72,1.41-1.06,5.89Z"/><path d="M746,391.19v46.7h-5.46v-3.65a9,9,0,0,1-2.34,3.21,5,5,0,0,1-3.11.88,5.64,5.64,0,0,1-5.37-3.61Q728,431.11,728,423.35a41.68,41.68,0,0,1,.43-6.46,16,16,0,0,1,1.3-4.48,5.69,5.69,0,0,1,5.49-3.43,5,5,0,0,1,3,.82,6.16,6.16,0,0,1,1.17,1.1,10.74,10.74,0,0,1,1.17,1.76V391.19Zm-12.34,32.36a27.27,27.27,0,0,0,.77,7.83,2.89,2.89,0,0,0,2.8,2.23c1.22,0,2.1-.77,2.66-2.31a35.91,35.91,0,0,0,0-15.26c-.56-1.54-1.44-2.31-2.66-2.31a2.89,2.89,0,0,0-2.77,2.2Q733.62,418,733.61,423.55Z"/><path d="M752.14,409.45h5.45V413a10.14,10.14,0,0,1,2.77-3.16,7.32,7.32,0,0,1,3.63-1v5.49a8,8,0,0,0-1-.08c-2,0-3.35.49-4.19,1.46s-1.23,2.62-1.23,5v17.23h-5.45Z"/><path d="M784,408.48l2.86,1.76-2.69,4.65a28.3,28.3,0,0,1,1.2,9.45q0,14-9.27,14a7.91,7.91,0,0,1-6-2.3l-2,2.77L765.33,437l2.71-4.15a37.69,37.69,0,0,1-1.2-9.46c0-4.94.74-8.58,2.23-10.89s3.8-3.48,7-3.48a9,9,0,0,1,6.17,2.36Zm-5.25,7.31a2.56,2.56,0,0,0-2.71-2.06,2.78,2.78,0,0,0-2.63,2,21.2,21.2,0,0,0-.77,6.79l.09,3.71Zm-5.25,15.86a2.76,2.76,0,0,0,2.77,2.18,2.69,2.69,0,0,0,2.65-2,25.66,25.66,0,0,0,.74-7.42l0-3.43Z"/><path d="M790.45,409.45h5.45V413a10,10,0,0,1,2.77-3.16,7.31,7.31,0,0,1,3.62-1v5.49a7.69,7.69,0,0,0-1-.08c-2,0-3.36.49-4.2,1.46s-1.22,2.62-1.22,5v17.23h-5.45Z"/><path d="M817.65,428.3h5.08q-.6,10-8.56,10a9,9,0,0,1-4.07-.85,7,7,0,0,1-2.81-2.64,13.07,13.07,0,0,1-1.64-4.53,34.5,34.5,0,0,1-.53-6.54c0-5,.73-8.75,2.18-11.16a7.34,7.34,0,0,1,6.75-3.63q8.88,0,8.88,15.06v.66H810.46q0,9.12,3.76,9.13C816.51,433.83,817.65,432,817.65,428.3Zm-.29-7.39a18.92,18.92,0,0,0-1.05-5.89,2.5,2.5,0,0,0-2.4-1.56,2.47,2.47,0,0,0-2.4,1.56,18.61,18.61,0,0,0-1,5.89Z"/><path d="M827.78,409.45h5.45v3.27c1.56-2.5,3.58-3.74,6-3.74a5.41,5.41,0,0,1,5.14,2.72c.57,1,.86,3,.86,6v20.23h-5.45l0-19a8.46,8.46,0,0,0-.72-4.09,2.6,2.6,0,0,0-2.45-1.21,3.53,3.53,0,0,0-1.58.31,2.51,2.51,0,0,0-1,1,5.63,5.63,0,0,0-.58,1.83,16.74,16.74,0,0,0-.19,2.78v18.38h-5.45Z"/><path d="M868.31,391.19v46.7h-5.45v-3.65a9,9,0,0,1-2.34,3.21,5,5,0,0,1-3.11.88,5.64,5.64,0,0,1-5.37-3.61q-1.71-3.62-1.71-11.37a41.68,41.68,0,0,1,.43-6.46,15.62,15.62,0,0,1,1.3-4.48,5.69,5.69,0,0,1,5.49-3.43,5,5,0,0,1,3,.82,6.16,6.16,0,0,1,1.17,1.1,10.74,10.74,0,0,1,1.17,1.76V391.19ZM856,423.55a27.27,27.27,0,0,0,.77,7.83,2.89,2.89,0,0,0,2.8,2.23c1.22,0,2.1-.77,2.66-2.31a35.91,35.91,0,0,0,0-15.26c-.56-1.54-1.44-2.31-2.66-2.31a2.89,2.89,0,0,0-2.77,2.2Q856,418,856,423.55Z"/><path d="M885.93,428.3H891q-.6,10-8.57,10a8.91,8.91,0,0,1-4.06-.85,7,7,0,0,1-2.82-2.64,13.49,13.49,0,0,1-1.64-4.53,35.42,35.42,0,0,1-.52-6.54c0-5,.72-8.75,2.18-11.16a7.31,7.31,0,0,1,6.75-3.63q8.88,0,8.88,15.06v.66H878.73q0,9.12,3.77,9.13C884.78,433.83,885.93,432,885.93,428.3Zm-.29-7.39q-.35-4.49-1.06-5.89a2.48,2.48,0,0,0-2.39-1.56,2.45,2.45,0,0,0-2.4,1.56q-.72,1.41-1.06,5.89Z"/><path d="M919.58,410v4.92a7.12,7.12,0,0,0-4.2-1.43,3.83,3.83,0,0,0-1.37.25,3.76,3.76,0,0,0-1.09.67,3.14,3.14,0,0,0-.75,1,3,3,0,0,0-.27,1.25q0,2,3.83,4.84a29.31,29.31,0,0,1,2.57,2.14,10.65,10.65,0,0,1,1.57,1.87,8,8,0,0,1,1.11,4.37,7.9,7.9,0,0,1-8.45,8.41,9.81,9.81,0,0,1-4.8-1.34V431.9a7.79,7.79,0,0,0,4.49,1.71c2.49,0,3.74-1.19,3.74-3.55a3.8,3.8,0,0,0-.69-2.28,6.55,6.55,0,0,0-1-1.09q-.69-.62-1.68-1.38a21.47,21.47,0,0,1-4.68-4.35,7.73,7.73,0,0,1-1.2-4.37A7.63,7.63,0,0,1,908.9,411a8,8,0,0,1,5.8-2.17A10.48,10.48,0,0,1,919.58,410Z"/><path d="M936.76,428.3h5.08q-.6,10-8.56,10a9,9,0,0,1-4.07-.85,7,7,0,0,1-2.81-2.64,13.28,13.28,0,0,1-1.64-4.53,35.35,35.35,0,0,1-.53-6.54c0-5,.73-8.75,2.19-11.16a7.31,7.31,0,0,1,6.75-3.63Q942,409,942,424v.66H929.57q0,9.12,3.77,9.13C935.62,433.83,936.76,432,936.76,428.3Zm-.28-7.39q-.35-4.49-1.06-5.89a2.48,2.48,0,0,0-2.4-1.56,2.44,2.44,0,0,0-2.39,1.56q-.72,1.41-1.06,5.89Z"/><path d="M943.64,409.45h6.45l2.6,5.49c.31.64.59,1.32.86,2s.5,1.46.71,2.24a20.17,20.17,0,0,1,.54-2c.21-.64.45-1.28.72-1.9l.37-.82,2.14-5h5.74l-6.68,13.44,8.08,15h-6.51l-2.6-5.44a22,22,0,0,1-2.26-6.1A19.74,19.74,0,0,1,952,432l-2.63,5.93h-5.71l7.4-15Z"/><path d="M998,423.9q0,14.43-9.28,14.43t-9.27-14.65q0-14.7,9.24-14.7a9.15,9.15,0,0,1,4.16.88,7.1,7.1,0,0,1,2.89,2.72,13.71,13.71,0,0,1,1.7,4.64A34.88,34.88,0,0,1,998,423.9Zm-5.65-.13a27,27,0,0,0-.77-7.81,2.83,2.83,0,0,0-2.74-2.23,2.88,2.88,0,0,0-2.77,2.2,26,26,0,0,0-.77,7.67c0,3.65.25,6.2.77,7.64a2.87,2.87,0,0,0,2.77,2.2,2.78,2.78,0,0,0,2.71-2.17Q992.37,429.23,992.37,423.77Z"/><path d="M1014.55,409.45H1020V438.8q0,5.28-1.09,7.31-2,3.74-8,3.74a8.58,8.58,0,0,1-6.22-2.17,7.84,7.84,0,0,1-2.28-5.91l0-.88h5.28c0,3,1.17,4.54,3.52,4.54a2.75,2.75,0,0,0,2.59-1.16c.48-.73.72-2.19.72-4.37v-5.47q-1.74,3.9-5.34,3.9a5.76,5.76,0,0,1-5.47-3.46Q1002,431.41,1002,424q0-7.8,1.68-11.52a5.66,5.66,0,0,1,5.51-3.54,4.82,4.82,0,0,1,3,.85,10.25,10.25,0,0,1,2.4,3Zm.08,14.48q0-10.2-3.65-10.2c-1.16,0-2,.77-2.54,2.3a24.43,24.43,0,0,0-.8,7.35,27.17,27.17,0,0,0,.83,7.89q.85,2.34,2.85,2.34a2.65,2.65,0,0,0,2.6-2.09Q1014.63,429.57,1014.63,423.93Z"/><path d="M1036.21,409.45H1039v-9.93q0-4.86,1.49-6.87t5.16-2a11.25,11.25,0,0,1,3.71.75v5.55a5.07,5.07,0,0,0-2.31-.69,2.3,2.3,0,0,0-2,.8,4.67,4.67,0,0,0-.59,2.69l0,2.15v7.56H1049v4.17h-4.63v24.27H1039V413.62h-2.74Z"/><path d="M1068.78,408.48l2.85,1.76-2.68,4.65a28.3,28.3,0,0,1,1.2,9.45q0,14-9.28,14a7.89,7.89,0,0,1-6-2.3l-2,2.77-2.77-1.84,2.72-4.15a37.69,37.69,0,0,1-1.2-9.46c0-4.94.74-8.58,2.22-10.89s3.81-3.48,7-3.48a8.93,8.93,0,0,1,6.16,2.36Zm-5.25,7.31a2.57,2.57,0,0,0-2.71-2.06,2.77,2.77,0,0,0-2.63,2,21.2,21.2,0,0,0-.77,6.79l.09,3.71Zm-5.25,15.86a2.75,2.75,0,0,0,2.76,2.18,2.7,2.7,0,0,0,2.66-2,26,26,0,0,0,.74-7.42l-.06-3.43Z"/><path d="M1075.2,391.19h5.46v46.7h-5.46Z"/><path d="M1098.27,428.3h5.08q-.6,10-8.56,10a9,9,0,0,1-4.07-.85,7,7,0,0,1-2.81-2.64,13.27,13.27,0,0,1-1.65-4.53,35.42,35.42,0,0,1-.52-6.54c0-5,.72-8.75,2.18-11.16a7.34,7.34,0,0,1,6.75-3.63q8.88,0,8.88,15.06v.66h-12.48q0,9.12,3.77,9.13C1097.12,433.83,1098.27,432,1098.27,428.3Zm-.29-7.39a18.92,18.92,0,0,0-1-5.89,2.5,2.5,0,0,0-2.4-1.56,2.46,2.46,0,0,0-2.4,1.56q-.72,1.41-1.06,5.89Z"/><path d="M1108.4,391.19h5.45v46.7h-5.45Z"/><path d="M1131.46,410v4.92a7.11,7.11,0,0,0-4.19-1.43,3.79,3.79,0,0,0-1.37.25,3.68,3.68,0,0,0-1.1.67,3.11,3.11,0,0,0-.74,1,3,3,0,0,0-.27,1.25q0,2,3.82,4.84a27.89,27.89,0,0,1,2.57,2.14,10.23,10.23,0,0,1,1.57,1.87,8,8,0,0,1,1.11,4.37,7.9,7.9,0,0,1-8.45,8.41,9.75,9.75,0,0,1-4.79-1.34V431.9a7.76,7.76,0,0,0,4.48,1.71c2.49,0,3.74-1.19,3.74-3.55a3.8,3.8,0,0,0-.69-2.28,6.55,6.55,0,0,0-1-1.09q-.68-.62-1.68-1.38a22,22,0,0,1-4.68-4.35,7.73,7.73,0,0,1-1.2-4.37,7.59,7.59,0,0,1,2.2-5.63,7.92,7.92,0,0,1,5.79-2.17A10.45,10.45,0,0,1,1131.46,410Z"/><path d="M1148.65,428.3h5.08q-.6,10-8.56,10a8.93,8.93,0,0,1-4.07-.85,7,7,0,0,1-2.81-2.64,13.27,13.27,0,0,1-1.65-4.53,35.42,35.42,0,0,1-.52-6.54c0-5,.72-8.75,2.18-11.16a7.34,7.34,0,0,1,6.75-3.63q8.88,0,8.88,15.06v.66h-12.48q0,9.12,3.77,9.13C1147.5,433.83,1148.65,432,1148.65,428.3Zm-.29-7.39a18.92,18.92,0,0,0-1-5.89,2.5,2.5,0,0,0-2.4-1.56,2.46,2.46,0,0,0-2.4,1.56q-.72,1.41-1.06,5.89Z"/><path d="M1158.78,409.45h5.45V413a10.26,10.26,0,0,1,2.77-3.16,7.35,7.35,0,0,1,3.63-1v5.49a7.84,7.84,0,0,0-1-.08c-2,0-3.36.49-4.2,1.46s-1.23,2.62-1.23,5v17.23h-5.45Z"/><path d="M1175.56,431.52a3.35,3.35,0,0,1,2.43,1,3.3,3.3,0,0,1,0,4.79,3.63,3.63,0,0,1-2.48,1,3.74,3.74,0,0,1-1.39-.26,3.65,3.65,0,0,1-1.12-.72,3.12,3.12,0,0,1-.76-1.07,3.26,3.26,0,0,1-.27-1.33,3.17,3.17,0,0,1,1-2.39A3.6,3.6,0,0,1,1175.56,431.52Z"/></svg>
