<svg xmlns="http://www.w3.org/2000/svg" xmlns:xlink="http://www.w3.org/1999/xlink" width="588" height="1080" viewBox="0 0 588 1080"><defs><style>.cls-1{fill:gray;}.cls-2{fill:url(#radial-gradient);}.cls-3{fill:#999;}.cls-4{fill:url(#radial-gradient-2);}.cls-5{fill:#29abe2;}.cls-6{fill:#e6e6e6;}.cls-7{fill:#4d4d4d;}.cls-8{fill:url(#radial-gradient-3);}.cls-9{fill:url(#radial-gradient-4);}.cls-10{fill:url(#radial-gradient-5);}.cls-11{fill:url(#radial-gradient-6);}.cls-12,.cls-14,.cls-21,.cls-22,.cls-30{fill:none;stroke-miterlimit:10;}.cls-12,.cls-21,.cls-22,.cls-30{stroke:#000;}.cls-12{stroke-width:0.25px;}.cls-13{fill:#f2f2f2;opacity:0.73;}.cls-14{stroke:#999;stroke-width:4px;}.cls-15{fill:#662d91;}.cls-16{fill:#93278f;}.cls-17{fill:#fbb03b;}.cls-18{fill:#22b573;}.cls-19{fill:#42210b;}.cls-20{fill:#c69c6d;}.cls-21{stroke-width:2px;}.cls-23{fill:#fd7fff;}.cls-24{fill:#ffb79f;}.cls-25{fill:#f7931e;}.cls-26{fill:#2e3192;}.cls-27{fill:#603813;}.cls-28{fill:#a67c52;}.cls-29{fill:#efc39c;}.cls-30{stroke-width:3px;}.cls-31{fill:#964e18;}.cls-32{fill:red;}</style><radialGradient id="radial-gradient" cx="290.5" cy="520.5" r="376.4845" gradientTransform="translate(0 -311.7425) scale(1 1.5989)" gradientUnits="userSpaceOnUse"><stop offset="0" stop-color="#fff"/><stop offset="0.2473" stop-color="#f8f8f8"/><stop offset="0.4249" stop-color="#d8d8d8"/><stop offset="0.813" stop-color="#858585"/><stop offset="0.9987" stop-color="#5c5c5c"/></radialGradient><radialGradient id="radial-gradient-2" cx="290.5" r="368.7645" gradientTransform="translate(0 -324.2306) scale(1 1.6229)" xlink:href="#radial-gradient"/><radialGradient id="radial-gradient-3" cx="291" cy="905" r="46" gradientTransform="matrix(1, 0, 0, 1, 0, 0)" xlink:href="#radial-gradient"/><radialGradient id="radial-gradient-4" cx="217" cy="113.2349" r="8.1845" gradientTransform="translate(0 -5.1646) scale(1 1.0456)" xlink:href="#radial-gradient"/><radialGradient id="radial-gradient-5" cx="291" cy="88.1403" r="8.1845" gradientTransform="translate(0 -4.0201) scale(1 1.0456)" xlink:href="#radial-gradient"/><radialGradient id="radial-gradient-6" cx="291" cy="905" r="35" gradientTransform="matrix(1, 0, 0, 1, 0, 0)" xlink:href="#radial-gradient"/></defs><title>Artboard 1 copy</title><g id="iphonebund"><rect class="cls-1" x="33.8702" y="54" width="513.2595" height="933" rx="41.256"/><path class="cls-2" d="M505.8738,55A40.3017,40.3017,0,0,1,546.13,95.256V945.744A40.3017,40.3017,0,0,1,505.8738,986H75.1262A40.3017,40.3017,0,0,1,34.87,945.744V95.256A40.3017,40.3017,0,0,1,75.1262,55H505.8738m0-1H75.1262A41.3773,41.3773,0,0,0,33.87,95.256V945.744A41.3773,41.3773,0,0,0,75.1262,987H505.8738a41.3773,41.3773,0,0,0,41.256-41.256V95.256A41.3773,41.3773,0,0,0,505.8738,54Z"/><rect class="cls-3" x="42" y="62" width="497" height="917" rx="35.2253"/><path class="cls-4" d="M503.7747,63A34.2641,34.2641,0,0,1,538,97.2253V943.7747A34.2641,34.2641,0,0,1,503.7747,978H77.2253A34.2641,34.2641,0,0,1,43,943.7747V97.2253A34.2641,34.2641,0,0,1,77.2253,63H503.7747m0-1H77.2253A35.3289,35.3289,0,0,0,42,97.2253V943.7747A35.3289,35.3289,0,0,0,77.2253,979H503.7747A35.3288,35.3288,0,0,0,539,943.7747V97.2253A35.3288,35.3288,0,0,0,503.7747,62Z"/><rect class="cls-5" x="80" y="149.8312" width="422" height="694.2851"/><rect class="cls-6" x="80" y="244" width="422" height="600.1163"/><circle class="cls-7" cx="291" cy="905" r="46"/><path class="cls-8" d="M291,860a45,45,0,1,1-45,45,45.0509,45.0509,0,0,1,45-45m0-1a46,46,0,1,0,46,46,46,46,0,0,0-46-46Z"/><rect class="cls-7" x="245" y="104.87" width="92" height="16.7298" rx="8"/><rect class="cls-7" x="209" y="104.87" width="16" height="16.7298" rx="8"/><path class="cls-9" d="M217,105.87a7.0079,7.0079,0,0,1,7,7v.73a7,7,0,1,1-14,0v-.73a7.0079,7.0079,0,0,1,7-7m0-1a8.0235,8.0235,0,0,0-8,8v.73a8,8,0,1,0,16,0v-.73a8.0235,8.0235,0,0,0-8-8Z"/><rect class="cls-7" x="283" y="79.7754" width="16" height="16.7298" rx="8"/><path class="cls-10" d="M291,80.7754a7.0079,7.0079,0,0,1,7,7v.73a7,7,0,0,1-14,0v-.73a7.0079,7.0079,0,0,1,7-7m0-1a8.0235,8.0235,0,0,0-8,8v.73a8,8,0,0,0,16,0v-.73a8.0235,8.0235,0,0,0-8-8Z"/><circle class="cls-3" cx="291" cy="905" r="35"/><path class="cls-11" d="M291,871a34,34,0,1,1-34,34,34.0385,34.0385,0,0,1,34-34m0-1a35,35,0,1,0,35,35,35,35,0,0,0-35-35Z"/><rect class="cls-6" x="184.32" y="183.1571" width="7.8219" height="42.6281" rx="3.911" transform="translate(-87.8338 236.5274) rotate(-53.9916)"/><circle class="cls-6" cx="176.6372" cy="195.223" r="19.223"/><circle class="cls-5" cx="176.6372" cy="195.223" r="13.9804"/><path class="cls-6" d="M224.5693,211.8169l-7.48-22.9136h3.1963l3.5694,11.2866c.9863,3.0938,1.8359,5.8814,2.4472,8.5674h.0684c.6465-2.6518,1.5977-5.5415,2.6182-8.5332l3.875-11.3208h3.1621l-8.1934,22.9136Z"/><path class="cls-6" d="M238.9512,204.1338c.0683,4.0454,2.6523,5.7114,5.6435,5.7114a10.8179,10.8179,0,0,0,4.5557-.85l.51,2.1416a13.3238,13.3238,0,0,1-5.4737,1.02c-5.0654,0-8.0908-3.3315-8.0908-8.2949s2.9238-8.873,7.7168-8.873c5.3721,0,6.8,4.7251,6.8,7.7509a11.251,11.251,0,0,1-.1025,1.3941Zm8.7715-2.1421c.0341-1.9038-.7823-4.8613-4.1475-4.8613-3.0264,0-4.3516,2.7876-4.59,4.8613Z"/><path class="cls-6" d="M254.3193,199.8159c0-1.7-.0341-3.0932-.1357-4.4536h2.6514l.1709,2.72h.0673a6.052,6.052,0,0,1,5.44-3.0932c2.2783,0,5.8135,1.36,5.8135,7.0029v9.8252H265.335V202.332c0-2.6518-.9864-4.8618-3.8077-4.8618a4.3878,4.3878,0,0,0-4.2158,4.4536v9.8931h-2.9922Z"/><path class="cls-6" d="M273.19,199.8159c0-1.7-.0333-3.0932-.1358-4.4536h2.6514l.17,2.72h.0684a6.0518,6.0518,0,0,1,5.4394-3.0932c2.2783,0,5.8135,1.36,5.8135,7.0029v9.8252h-2.9912V202.332c0-2.6518-.9863-4.8618-3.8076-4.8618a4.3878,4.3878,0,0,0-4.2159,4.4536v9.8931H273.19Z"/><path class="cls-6" d="M293.7256,204.1338c.0683,4.0454,2.6514,5.7114,5.6435,5.7114a10.8179,10.8179,0,0,0,4.5557-.85l.51,2.1416a13.3234,13.3234,0,0,1-5.4737,1.02c-5.0654,0-8.0908-3.3315-8.0908-8.2949s2.9238-8.873,7.7168-8.873c5.3721,0,6.8,4.7251,6.8,7.7509a11.2312,11.2312,0,0,1-.1025,1.3941Zm8.7715-2.1421c.0341-1.9038-.7823-4.8613-4.1475-4.8613-3.0264,0-4.3516,2.7876-4.59,4.8613Z"/><path class="cls-6" d="M309.0938,200.4961c0-1.938-.0333-3.6035-.1358-5.1338h2.6182l.1015,3.23h.1358a4.9365,4.9365,0,0,1,4.5556-3.6035,3.2192,3.2192,0,0,1,.85.102v2.8213a4.4953,4.4953,0,0,0-1.02-.1016c-2.1074,0-3.6035,1.5977-4.0117,3.8414a8.4872,8.4872,0,0,0-.1357,1.394v8.771h-2.958Z"/><path d="M191.4258,265.3174h-7.0723v6.5591h7.8819v1.9707h-10.23V255.6538h9.8252v1.9707h-7.4776v5.75h7.0723Z"/><path d="M195.209,264.3188c0-1.35-.0274-2.4565-.1084-3.5361H197.18l.1074,2.1055h.0811a4.5022,4.5022,0,0,1,4.1025-2.4024,3.8612,3.8612,0,0,1,3.6982,2.6182h.0538a5.3865,5.3865,0,0,1,1.458-1.7007,4.46,4.46,0,0,1,2.8886-.9175c1.7276,0,4.2911,1.1338,4.2911,5.6685v7.6929h-2.3213v-7.396c0-2.51-.917-4.022-2.834-4.022a3.0756,3.0756,0,0,0-2.8076,2.16,3.9229,3.9229,0,0,0-.1885,1.1875v8.0708h-2.3213V266.019c0-2.0781-.918-3.59-2.7266-3.59a3.5388,3.5388,0,0,0-3.1308,3.5361v7.8819H195.209Z"/><path d="M220.3721,257.1118a1.4713,1.4713,0,0,1-2.9424,0,1.447,1.447,0,0,1,1.4844-1.4848A1.41,1.41,0,0,1,220.3721,257.1118Zm-2.6455,16.7354V260.7827h2.375v13.0645Z"/><path d="M224.0439,254.6821h2.375v19.1651h-2.375Z"/><path d="M251.5527,265.8574c-.1357-2.5376-.2968-5.5874-.27-7.855h-.081c-.6211,2.1324-1.376,4.4-2.294,6.91l-3.2119,8.8267h-1.7822l-2.9424-8.6646c-.8633-2.5644-1.5918-4.9131-2.1055-7.0723h-.0537c-.0537,2.2676-.1885,5.3174-.3506,8.044l-.4863,7.8008h-2.24l1.2685-18.1934h2.9961l3.1045,8.8c.7559,2.24,1.377,4.2378,1.836,6.1275h.081c.458-1.8355,1.1065-3.8331,1.916-6.1275l3.2393-8.8h2.9961l1.1338,18.1934h-2.295Z"/><path d="M265.2432,273.8472l-.1885-1.6465h-.0811a4.8657,4.8657,0,0,1-3.9951,1.9433,3.722,3.722,0,0,1-3.9951-3.7519c0-3.1582,2.8076-4.8858,7.8555-4.8589v-.27a2.6934,2.6934,0,0,0-2.97-3.0235,6.5078,6.5078,0,0,0-3.4.9717l-.54-1.5654a8.1083,8.1083,0,0,1,4.292-1.1607c3.9951,0,4.9668,2.7261,4.9668,5.3443v4.8857a18.3828,18.3828,0,0,0,.2158,3.1314Zm-.3506-6.667c-2.5908-.0542-5.5332.4048-5.5332,2.9419a2.1019,2.1019,0,0,0,2.24,2.2675,3.2505,3.2505,0,0,0,3.1582-2.1865,2.4753,2.4753,0,0,0,.1348-.7558Z"/><path d="M282.3066,254.6821v15.791c0,1.1607.0264,2.4834.1075,3.3741h-2.1329l-.1074-2.2676H280.12a4.8327,4.8327,0,0,1-4.4541,2.5644c-3.1582,0-5.5879-2.6723-5.5879-6.64-.0263-4.3457,2.6729-7.0181,5.8574-7.0181a4.3685,4.3685,0,0,1,3.9415,1.9976h.0537v-7.8013ZM279.9307,266.1a4.1837,4.1837,0,0,0-.1075-.9985,3.494,3.494,0,0,0-3.4287-2.7535c-2.456,0-3.914,2.16-3.914,5.0479,0,2.645,1.2959,4.8315,3.86,4.8315a3.5716,3.5716,0,0,0,3.4824-2.8339,4.1243,4.1243,0,0,0,.1075-1.0259Z"/><path d="M285.9268,271.418a6.2291,6.2291,0,0,0,3.1308.9448c1.7276,0,2.5381-.8638,2.5381-1.9439,0-1.1337-.6748-1.7543-2.43-2.4023-2.3486-.8364-3.4551-2.1323-3.4551-3.6978,0-2.1054,1.7-3.833,4.5079-3.833a6.5237,6.5237,0,0,1,3.2119.81l-.5938,1.7275a5.0868,5.0868,0,0,0-2.6719-.7558c-1.4043,0-2.1865.81-2.1865,1.7817,0,1.08.7822,1.5655,2.4834,2.2134,2.2676.8638,3.4277,1.9976,3.4277,3.9409,0,2.2945-1.7812,3.9141-4.8857,3.9141a7.4543,7.4543,0,0,1-3.6709-.8906Z"/><path d="M296.835,273.8472c.0537-.8907.1084-2.2134.1084-3.3741v-15.791h2.3476v8.2061h.0547a4.8663,4.8663,0,0,1,4.4531-2.4024c3.2393,0,5.5342,2.6993,5.5069,6.667,0,4.67-2.9424,6.9912-5.8575,6.9912a4.6545,4.6545,0,0,1-4.373-2.4565h-.0811l-.1074,2.16Zm2.456-5.2368a4.46,4.46,0,0,0,.1084.8637,3.6654,3.6654,0,0,0,3.5635,2.78c2.4834,0,3.9678-2.0244,3.9678-5.02,0-2.6182-1.35-4.8589-3.8868-4.8589a3.7863,3.7863,0,0,0-3.6171,2.9155,4.63,4.63,0,0,0-.1358.9717Z"/><path d="M309.12,277.626a3.845,3.845,0,0,0,2.5918-.9986c.6475-.7558.8906-1.7817.8906-4.9126V260.7827h2.375v11.85c0,2.5376-.4043,4.1841-1.5654,5.3716a6.0289,6.0289,0,0,1-4.0488,1.4849Zm6.1279-20.5142a1.395,1.395,0,0,1-1.4853,1.4575,1.4177,1.4177,0,0,1-1.457-1.4575,1.4537,1.4537,0,0,1,1.5117-1.4848A1.404,1.404,0,0,1,315.248,257.1118Z"/><path d="M320.1885,267.7466c.0537,3.2124,2.1054,4.5351,4.4814,4.5351a8.5845,8.5845,0,0,0,3.6162-.6748l.4053,1.7a10.58,10.58,0,0,1-4.3457.81c-4.0225,0-6.4248-2.6455-6.4248-6.5864s2.3213-7.045,6.1279-7.045c4.2647,0,5.3985,3.752,5.3985,6.1543a8.8652,8.8652,0,0,1-.0811,1.1065Zm6.9638-1.7c.0274-1.5117-.62-3.86-3.2929-3.86-2.4024,0-3.4551,2.2134-3.6436,3.86Z"/><path d="M332.3926,264.8584c0-1.5386-.0274-2.8608-.1084-4.0757h2.0791l.08,2.5645h.1084a3.9193,3.9193,0,0,1,3.6171-2.8614,2.5622,2.5622,0,0,1,.6749.0811v2.24a3.56,3.56,0,0,0-.81-.081,3.3325,3.3325,0,0,0-3.1856,3.05,6.7088,6.7088,0,0,0-.1084,1.1064v6.9644h-2.3476Z"/><path d="M352.2617,260.7827c-.0537.9448-.1084,1.9976-.1084,3.59v7.5849c0,2.9966-.5937,4.8321-1.8623,5.9654a6.9254,6.9254,0,0,1-4.751,1.5659,8.4344,8.4344,0,0,1-4.3457-1.08l.5938-1.8086a7.3732,7.3732,0,0,0,3.833,1.0254c2.43,0,4.2109-1.2686,4.2109-4.5615v-1.4576h-.0537a4.6644,4.6644,0,0,1-4.1572,2.1861c-3.2393,0-5.5606-2.753-5.5606-6.37,0-4.4268,2.8887-6.9371,5.8848-6.9371a4.3462,4.3462,0,0,1,4.0762,2.2671h.0537l.1084-1.97Zm-2.456,5.1558a3.372,3.372,0,0,0-.1358-1.08,3.4207,3.4207,0,0,0-3.3193-2.51c-2.2676,0-3.8877,1.9165-3.8877,4.94,0,2.564,1.2959,4.6968,3.86,4.6968a3.472,3.472,0,0,0,3.293-2.43,4.138,4.138,0,0,0,.19-1.2686Z"/><path d="M178.7393,352.626a3.8452,3.8452,0,0,0,2.5918-.9986c.6474-.7558.8906-1.7817.8906-4.9126V335.7827h2.375v11.85c0,2.5376-.4043,4.1841-1.5655,5.3716a6.0287,6.0287,0,0,1-4.0488,1.4849Zm6.1279-20.5142a1.3951,1.3951,0,0,1-1.4854,1.4575,1.4177,1.4177,0,0,1-1.457-1.4575,1.4537,1.4537,0,0,1,1.5117-1.4848A1.4041,1.4041,0,0,1,184.8672,332.1118Z"/><path d="M200.3076,342.207c0,4.8316-3.3467,6.937-6.5049,6.937-3.5361,0-6.2627-2.5913-6.2627-6.7211,0-4.3731,2.8614-6.9371,6.4786-6.9371C197.7705,335.4858,200.3076,338.2119,200.3076,342.207Zm-10.3652.1348c0,2.8613,1.6465,5.021,3.9687,5.021,2.2666,0,3.9678-2.1328,3.9678-5.0747,0-2.2134-1.1074-5.021-3.9141-5.021S189.9424,339.8584,189.9424,342.3418Z"/><path d="M210.542,348.8472l-.1885-1.6465h-.081a4.866,4.866,0,0,1-3.9952,1.9433,3.722,3.722,0,0,1-3.9951-3.7519c0-3.1582,2.8076-4.8858,7.8555-4.8589v-.27a2.6934,2.6934,0,0,0-2.97-3.0235,6.5081,6.5081,0,0,0-3.4.9717l-.54-1.5654a8.1083,8.1083,0,0,1,4.292-1.1607c3.9951,0,4.9668,2.7261,4.9668,5.3443v4.8857a18.3828,18.3828,0,0,0,.2158,3.1314Zm-.3506-6.667c-2.5908-.0542-5.5332.4048-5.5332,2.9419a2.1019,2.1019,0,0,0,2.24,2.2675,3.2505,3.2505,0,0,0,3.1582-2.1865,2.4753,2.4753,0,0,0,.1348-.7558Z"/><path d="M216.3223,339.3188c0-1.35-.0274-2.4565-.1084-3.5361h2.1054l.1348,2.1592h.0547a4.8029,4.8029,0,0,1,4.3183-2.4561c1.8086,0,4.6163,1.08,4.6163,5.5606v7.8008h-2.376v-7.5308c0-2.1055-.7822-3.86-3.0225-3.86a3.484,3.484,0,0,0-3.3476,3.5361v7.855h-2.375Z"/><path d="M231.3066,339.3188c0-1.35-.0273-2.4565-.1084-3.5361h2.1055l.1348,2.1592h.0547a4.8028,4.8028,0,0,1,4.3183-2.4561c1.8086,0,4.6162,1.08,4.6162,5.5606v7.8008h-2.3759v-7.5308c0-2.1055-.7823-3.86-3.0225-3.86a3.4843,3.4843,0,0,0-3.3477,3.5361v7.855h-2.375Z"/><path d="M253.5244,348.8472l-.1885-1.6465h-.081a4.8657,4.8657,0,0,1-3.9951,1.9433,3.7221,3.7221,0,0,1-3.9952-3.7519c0-3.1582,2.8077-4.8858,7.8555-4.8589v-.27a2.6934,2.6934,0,0,0-2.97-3.0235,6.5081,6.5081,0,0,0-3.4.9717l-.54-1.5654a8.1083,8.1083,0,0,1,4.292-1.1607c3.9951,0,4.9668,2.7261,4.9668,5.3443v4.8857a18.3828,18.3828,0,0,0,.2158,3.1314Zm-.3506-6.667c-2.5908-.0542-5.5332.4048-5.5332,2.9419a2.102,2.102,0,0,0,2.24,2.2675,3.2506,3.2506,0,0,0,3.1582-2.1865,2.4781,2.4781,0,0,0,.1347-.7558Z"/><path d="M264.4609,337.9419a1.609,1.609,0,1,1,3.2129,0,1.6078,1.6078,0,1,1-3.2129,0Zm0,9.5288a1.6091,1.6091,0,1,1,3.2129,0,1.6078,1.6078,0,1,1-3.2129,0Z"/><path d="M269.1865,352.1133a18.2713,18.2713,0,0,0,3.4014-11.04,17.8938,17.8938,0,0,0-3.4014-10.9589h1.835A17.1912,17.1912,0,0,1,274.5576,341.1a17.5226,17.5226,0,0,1-3.5361,11.0132Z"/><path d="M181.6816,410.9858a8.3221,8.3221,0,0,0,4.211,1.188c2.4023,0,3.8056-1.269,3.8056-3.1045,0-1.7-.9716-2.6723-3.4277-3.6167-2.97-1.0527-4.8047-2.5913-4.8047-5.1557,0-2.8345,2.3487-4.94,5.8848-4.94a8.2638,8.2638,0,0,1,4.0215.8911l-.6475,1.9166a7.2411,7.2411,0,0,0-3.4551-.8638c-2.4834,0-3.4287,1.4844-3.4287,2.7261,0,1.7006,1.1074,2.5371,3.6172,3.5092,3.0772,1.1875,4.6426,2.6719,4.6426,5.3443,0,2.8071-2.0781,5.2368-6.37,5.2368a9.4035,9.4035,0,0,1-4.6426-1.1607Z"/><path d="M207.22,407.207c0,4.8316-3.3467,6.937-6.5049,6.937-3.5361,0-6.2627-2.5913-6.2627-6.7211,0-4.3731,2.8614-6.9371,6.4786-6.9371C204.6826,400.4858,207.22,403.2119,207.22,407.207Zm-10.3652.1348c0,2.8613,1.6465,5.021,3.9687,5.021,2.2666,0,3.9678-2.1328,3.9678-5.0747,0-2.2134-1.1074-5.021-3.914-5.021S196.8545,404.8584,196.8545,407.3418Z"/><path d="M210.4639,413.8472V402.5913h-1.836v-1.8086h1.836v-.7016c0-3.4551,2.0244-5.6958,5.6953-5.6958a6.5352,6.5352,0,0,1,3.3193.8637l-.6748,1.8086a4.99,4.99,0,0,0-2.7529-.7558c-2.51,0-3.2393,1.7544-3.2393,3.833v.6479h7.585v13.0645h-2.3477V402.5913h-5.2373v11.2559Z"/><path d="M225.6641,407.7466c.0537,3.2124,2.1054,4.5351,4.48,4.5351a8.5862,8.5862,0,0,0,3.6172-.6748l.4053,1.7a10.58,10.58,0,0,1-4.3457.81c-4.0225,0-6.4248-2.6455-6.4248-6.5864s2.3213-7.045,6.1279-7.045c4.2647,0,5.3985,3.752,5.3985,6.1543a8.8848,8.8848,0,0,1-.0811,1.1065Zm6.9638-1.7c.0274-1.5117-.62-3.86-3.2929-3.86-2.4024,0-3.4551,2.2134-3.6436,3.86Z"/><path d="M182.0059,463.87a27.2184,27.2184,0,0,1,4.5078-.3511,7.4744,7.4744,0,0,1,5.1015,1.5118,4.8932,4.8932,0,0,1,1.5928,3.8056,5.3548,5.3548,0,0,1-1.4043,3.8872,7.5359,7.5359,0,0,1-5.56,1.9976,8.103,8.103,0,0,1-1.89-.1621v7.2881h-2.3476Zm2.3476,8.7725a7.8982,7.8982,0,0,0,1.9444.1889c2.8339,0,4.5615-1.3764,4.5615-3.8867,0-2.4023-1.7012-3.5635-4.292-3.5635a9.8684,9.8684,0,0,0-2.2139.189Z"/><path d="M196.1543,462.6821h2.375v8.1519h.0537a4.404,4.404,0,0,1,1.7012-1.6734,4.887,4.887,0,0,1,2.4287-.6748c1.7549,0,4.5625,1.08,4.5625,5.5874v7.774h-2.376v-7.5039c0-2.1055-.7822-3.8872-3.0224-3.8872a3.413,3.413,0,0,0-3.1856,2.3754,2.8786,2.8786,0,0,0-.1621,1.1338v7.8819h-2.375Z"/><path d="M213.7842,465.1118a1.4713,1.4713,0,0,1-2.9424,0,1.447,1.447,0,0,1,1.4844-1.4848A1.41,1.41,0,0,1,213.7842,465.1118Zm-2.6455,16.7354V468.7827h2.375v13.0645Z"/><path d="M217.4561,462.6821h2.375v19.1651h-2.375Z"/><path d="M226.4736,465.1118a1.4713,1.4713,0,0,1-2.9424,0,1.447,1.447,0,0,1,1.4844-1.4848A1.41,1.41,0,0,1,226.4736,465.1118Zm-2.6455,16.7354V468.7827h2.375v13.0645Z"/><path d="M230.1455,473.0474c0-1.6734-.0547-3.023-.1084-4.2647H232.17l.1074,2.24h.0547a5.136,5.136,0,0,1,4.6426-2.5371c3.1582,0,5.5332,2.6724,5.5332,6.64,0,4.6968-2.8613,7.018-5.9385,7.018a4.58,4.58,0,0,1-4.0214-2.0512h-.0538v7.0991h-2.3486Zm2.3486,3.4824a5.3783,5.3783,0,0,0,.1075.9717,3.665,3.665,0,0,0,3.5634,2.78c2.51,0,3.9678-2.0517,3.9678-5.0478,0-2.6182-1.3769-4.8589-3.8867-4.8589a3.7912,3.7912,0,0,0-3.5908,2.9424,3.8467,3.8467,0,0,0-.1612.9717Z"/><path d="M185.7305,532.6538h2.3486v12.1743c0,4.8321-2.376,6.3164-5.5068,6.3164a7.6221,7.6221,0,0,1-2.51-.4316l.3506-1.917a5.609,5.609,0,0,0,1.9707.3506c2.1055,0,3.3467-.9453,3.3467-4.5078Z"/><path d="M202.8467,547.2842c0,1.35.0273,2.5371.1084,3.5635H200.85l-.1348-2.1329H200.66a4.914,4.914,0,0,1-4.3184,2.43c-2.0518,0-4.5078-1.1347-4.5078-5.7226v-7.6392h2.375v7.2339c0,2.4834.7558,4.1572,2.915,4.1572a3.4363,3.4363,0,0,0,3.1319-2.16,3.4768,3.4768,0,0,0,.2158-1.2149v-8.0161h2.375Z"/><path d="M206.792,531.6821h2.375v19.1656h-2.375Z"/><path d="M215.81,534.1118a1.4713,1.4713,0,0,1-2.9424,0,1.447,1.447,0,0,1,1.4844-1.4848A1.41,1.41,0,0,1,215.81,534.1118Zm-2.6455,16.7359v-13.065h2.375v13.065Z"/><path d="M220.8037,544.7461c.0537,3.2129,2.1055,4.5351,4.4815,4.5351a8.6028,8.6028,0,0,0,3.6162-.6738l.4052,1.6992a10.5627,10.5627,0,0,1-4.3457.8106c-4.0224,0-6.4248-2.6455-6.4248-6.586s2.3213-7.0454,6.128-7.0454c4.2646,0,5.3984,3.7525,5.3984,6.1548a8.8458,8.8458,0,0,1-.0811,1.1055Zm6.9639-1.6992c.0273-1.5117-.62-3.86-3.293-3.86-2.4023,0-3.4551,2.2139-3.6435,3.86Z"/><path d="M185.4609,599.6514h-5.5341v-1.9971h13.47v1.9971h-5.5606v16.1963h-2.375Z"/><path d="M194.1289,606.8584c0-1.5381-.0273-2.86-.1084-4.0752H196.1l.08,2.5645h.1084a3.918,3.918,0,0,1,3.6172-2.8614,2.5845,2.5845,0,0,1,.6748.08v2.24a3.5927,3.5927,0,0,0-.81-.08,3.3315,3.3315,0,0,0-3.1855,3.05,6.698,6.698,0,0,0-.1084,1.1064v6.9649h-2.3477Z"/><path d="M214.5107,609.207c0,4.8321-3.3466,6.9375-6.5048,6.9375-3.5362,0-6.2627-2.5918-6.2627-6.7216,0-4.3731,2.8613-6.9366,6.4785-6.9366C211.9736,602.4863,214.5107,605.2119,214.5107,609.207Zm-10.3652.1348c0,2.8613,1.6465,5.0215,3.9688,5.0215,2.2666,0,3.9677-2.1328,3.9677-5.0752,0-2.2139-1.1074-5.02-3.914-5.02S204.1455,606.8584,204.1455,609.3418Z"/><path d="M218.834,609.7461c.0537,3.2129,2.1055,4.5351,4.4805,4.5351a8.604,8.604,0,0,0,3.6171-.6738l.4053,1.6992a10.5631,10.5631,0,0,1-4.3457.8106c-4.0224,0-6.4248-2.6455-6.4248-6.586s2.3213-7.0449,6.1279-7.0449c4.2647,0,5.3985,3.752,5.3985,6.1543a8.8458,8.8458,0,0,1-.0811,1.1055Zm6.9639-1.6992c.0273-1.5117-.62-3.86-3.293-3.86-2.4024,0-3.4551,2.2139-3.6436,3.86Z"/><path d="M231.0381,596.6816h2.375v19.1661h-2.375Z"/><path d="M237.0859,613.418a6.2249,6.2249,0,0,0,3.1309.9453c1.7275,0,2.5381-.8643,2.5381-1.9444,0-1.1337-.6748-1.7548-2.43-2.4023-2.3486-.8369-3.4551-2.1318-3.4551-3.6982,0-2.1055,1.7-3.8321,4.5078-3.8321a6.5236,6.5236,0,0,1,3.2119.8086l-.5937,1.7285a5.0822,5.0822,0,0,0-2.6719-.7558c-1.4043,0-2.1865.8095-2.1865,1.7812,0,1.08.7822,1.5655,2.4834,2.2129,2.2676.8643,3.4277,1.9981,3.4277,3.9414,0,2.2949-1.7812,3.9141-4.8857,3.9141a7.46,7.46,0,0,1-3.6709-.8906Z"/><path d="M197.3379,673.8574c-.1358-2.5371-.2969-5.5879-.27-7.8554h-.0811c-.6211,2.1328-1.3759,4.4-2.2939,6.91l-3.2119,8.8272h-1.7823l-2.9423-8.6651c-.8633-2.5644-1.5918-4.9121-2.1055-7.0722h-.0537c-.0537,2.2675-.1885,5.3183-.3506,8.0449l-.4863,7.8008h-2.24l1.2686-18.1934h2.9961l3.1045,8.7988c.7558,2.24,1.3769,4.2383,1.8359,6.128h.0811c.458-1.835,1.1064-3.8331,1.916-6.128l3.2392-8.7988h2.9961l1.1338,18.1934h-2.2949Z"/><path d="M206.6025,665.1113a1.4712,1.4712,0,0,1-2.9423,0,1.4471,1.4471,0,0,1,1.4843-1.4843A1.4105,1.4105,0,0,1,206.6025,665.1113Zm-2.6455,16.7364V668.7832h2.375v13.0645Z"/><path d="M210.2744,662.6816h2.375v19.1661h-2.375Z"/><path d="M216.6465,662.6816h2.375v19.1661h-2.375Z"/><path d="M224.3408,675.7461c.0537,3.2129,2.1055,4.5351,4.4815,4.5351a8.6024,8.6024,0,0,0,3.6162-.6738l.4053,1.6992a10.5637,10.5637,0,0,1-4.3458.8106c-4.0224,0-6.4248-2.6455-6.4248-6.586s2.3213-7.0449,6.128-7.0449c4.2646,0,5.3984,3.752,5.3984,6.1543a8.87,8.87,0,0,1-.081,1.1055Zm6.9639-1.6992c.0273-1.5117-.62-3.86-3.293-3.86-2.4023,0-3.4551,2.2139-3.6435,3.86Z"/><circle class="cls-6" cx="406.8385" cy="187.4728" r="11.0542"/><path class="cls-6" d="M406.8385,200.0008c-11.0375-.02-23.9854,13.7177-19.6612,17.0563,3.4376,2.6541,8.9447,1.6814,19.9823,1.7012s18.4455.7849,19.9882-1.63C429.4859,213.4688,417.876,200.0206,406.8385,200.0008Z"/><path class="cls-6" d="M431.71,181.9457h-3.5v-3.5a1.29,1.29,0,0,0-2.5793,0v3.5h-3.5a1.29,1.29,0,1,0,0,2.5793h3.5v3.5a1.29,1.29,0,1,0,2.5793,0v-3.5h3.5a1.29,1.29,0,1,0,0-2.5793Z"/><path class="cls-6" d="M467.2151,182.914h-20.28A5.9529,5.9529,0,0,0,441,188.85V209.129a5.953,5.953,0,0,0,5.9355,5.9355h18.6473L471.6667,221c1.4838,0,1.4838-6.628,1.4838-9.8925V188.85A5.9528,5.9528,0,0,0,467.2151,182.914Z"/><path class="cls-6" d="M485.7934,180.6507h-4.4441v-4.4441A1.21,1.21,0,0,0,480.1427,175h-.63a1.21,1.21,0,0,0-1.2065,1.2066v4.4441h-4.4442a1.21,1.21,0,0,0-1.2066,1.2066v.6295a1.21,1.21,0,0,0,1.2066,1.2066h4.4442v4.4441a1.21,1.21,0,0,0,1.2065,1.2066h.63a1.21,1.21,0,0,0,1.2066-1.2066v-4.4441h4.4441A1.21,1.21,0,0,0,487,182.4868v-.6295A1.21,1.21,0,0,0,485.7934,180.6507Z"/><line class="cls-12" x1="80" y1="313.5" x2="502" y2="313.5"/><line class="cls-12" x1="80" y1="389" x2="502" y2="389"/><line class="cls-12" x1="80" y1="456" x2="502" y2="456"/><line class="cls-12" x1="80" y1="527" x2="502" y2="527"/><line class="cls-12" x1="80" y1="592" x2="502" y2="592"/><line class="cls-12" x1="80" y1="657" x2="502" y2="657"/><line class="cls-12" x1="80" y1="722" x2="502" y2="722"/><rect class="cls-13" x="80" y="777" width="422" height="67"/><path class="cls-1" d="M201.2151,786.9139h-20.28A5.9529,5.9529,0,0,0,175,792.8494v20.28a5.9529,5.9529,0,0,0,5.9355,5.9355h18.6473L205.6667,825c1.4838,0,1.4838-6.628,1.4838-9.8925V792.8494A5.953,5.953,0,0,0,201.2151,786.9139Z"/><path class="cls-1" d="M205,828H177a1,1,0,0,0,0,2h28a1,1,0,0,0,0-2Z"/><circle class="cls-14" cx="291" cy="811" r="25"/><rect class="cls-1" x="352" y="786.58" width="20.24" height="36.96" rx="5.5645"/><rect class="cls-1" x="374" y="790.1" width="20.24" height="36.96" rx="5.5645"/><circle class="cls-15" cx="389.84" cy="790.1" r="6.16"/></g><g id="snap_personer" data-name="snap personer"><path class="cls-16" d="M113.1784,485.4954a1.32,1.32,0,0,0,.4326-.0742c2.0259,11.0545,7.51,16.89,15.7611,16.8856,8.2205-.0043,13.6879-6.3272,15.7209-16.9042a1.3248,1.3248,0,0,0,.459.0845c1.2036-.0007,2.1784-1.6738,2.1774-3.737s-.9777-3.7353-2.1812-3.7347l-.0034,0c-1.1112-8.6914-8.5327-15.2506-16.1932-15.2466-7.659.004-15.0248,6.5625-16.1563,15.2561l-.0169-.0015c-1.2036,0-2.1793,1.6726-2.1793,3.7358S111.9748,485.4954,113.1784,485.4954Z"/><path class="cls-16" d="M129.5278,502.3067C111.56,502.316,97,512.2858,97,512.2858s14.5706,9.9547,32.5381,9.9454,32.5278-9.9792,32.5278-9.9792S147.4953,502.2973,129.5278,502.3067Z"/><path class="cls-17" d="M113.1784,617.4954a1.32,1.32,0,0,0,.4326-.0742c2.0259,11.0545,7.51,16.89,15.7611,16.8856,8.2205-.0043,13.6879-6.3272,15.7209-16.9042a1.3248,1.3248,0,0,0,.459.0845c1.2036-.0007,2.1784-1.6738,2.1774-3.737s-.9777-3.7353-2.1812-3.7347l-.0034,0c-1.1112-8.6914-8.5327-15.2506-16.1932-15.2466-7.659.004-15.0248,6.5625-16.1563,15.2561l-.0169-.0015c-1.2036,0-2.1793,1.6726-2.1793,3.7358S111.9748,617.4954,113.1784,617.4954Z"/><path class="cls-17" d="M129.5278,634.3067C111.56,634.316,97,644.2858,97,644.2858s14.5706,9.9547,32.5381,9.9454,32.5278-9.9792,32.5278-9.9792S147.4953,634.2973,129.5278,634.3067Z"/><path class="cls-18" d="M112.1784,682.4954a1.32,1.32,0,0,0,.4326-.0742c2.0259,11.0545,7.51,16.89,15.7611,16.8856,8.2205-.0043,13.6879-6.3272,15.7209-16.9042a1.3248,1.3248,0,0,0,.459.0845c1.2036-.0007,2.1784-1.6738,2.1774-3.737s-.9777-3.7353-2.1812-3.7347l-.0034,0c-1.1112-8.6914-8.5327-15.2506-16.1932-15.2466-7.659.004-15.0248,6.5625-16.1563,15.2561l-.0169-.0015c-1.2036,0-2.1793,1.6726-2.1793,3.7358S110.9748,682.4954,112.1784,682.4954Z"/><path class="cls-18" d="M128.5278,699.3067C110.56,699.316,96,709.2858,96,709.2858s14.5706,9.9547,32.5381,9.9454,32.5278-9.9792,32.5278-9.9792S146.4953,699.2973,128.5278,699.3067Z"/><path class="cls-19" d="M95.38,584.538c-.52-8.84-1.5671-17.0658-1.5671-20.85C93.8131,544.5306,109.1191,529,128,529s34.1869,15.5306,34.1869,34.6885c0,4.0585-2.4479,12.4865-3.8188,21.3847"/><path class="cls-20" d="M153.1169,560.22c0,6.5976.341,13.1991-3.9536,17.5755-4.4347,4.5191-14.3119,6.7064-21.1633,6.7064-7.2863,0-16.9217-1.6739-21.3959-6.7064-3.8072-4.2824-3.721-11.41-3.721-17.5755,0-13.4106,11.63-24.282,25.1169-24.282S153.1169,546.8091,153.1169,560.22Z"/><path class="cls-17" d="M102.8831,561.3759c.2325,9.4816.4651,7.169,3.9536.9251,4.0233-7.2013,32.5589-27.52,26.0471-27.52-6.422,0-18.3286,3.1939-24.1866,9.019S102.7265,554.9919,102.8831,561.3759Z"/><path class="cls-17" d="M153.1854,561.3759c-.2325,9.4816-.4651,7.169-3.9536.9251-4.0233-7.2013-32.86-27.52-26.3482-27.52,6.4221,0,18.63,3.1939,24.4877,9.019S153.342,554.9919,153.1854,561.3759Z"/><path class="cls-21" d="M113.4647,564.2976c0-2.5236,7.4421-12.0563,10.698-.4935"/><path class="cls-22" d="M111.0228,562.301a2.2124,2.2124,0,0,0,2.3257,2.0813"/><path class="cls-22" d="M112.1856,560.9134c0,1.15.6242,2.0813,1.3954,2.0813"/><path class="cls-22" d="M113.3485,559.7571c0,1.15.416,2.0814.93,2.0814"/><path class="cls-21" d="M141.7213,564.2976c0-2.5236-7.4421-12.0563-10.698-.4935"/><path class="cls-22" d="M144.1632,562.301a2.2124,2.2124,0,0,1-2.3256,2.0813"/><path class="cls-22" d="M143,560.9134c0,1.15-.6241,2.0813-1.3954,2.0813"/><path class="cls-22" d="M141.8376,559.7571c0,1.15-.4161,2.0814-.93,2.0814"/><path class="cls-21" d="M121.7208,572.4763a6.9016,6.9016,0,0,0,11.8607-.9251"/><ellipse class="cls-23" cx="140.0933" cy="568.5449" rx="3.721" ry="1.3875"/><ellipse class="cls-23" cx="116.6044" cy="568.5449" rx="3.721" ry="1.3875"/><path class="cls-24" d="M154.9366,427.4468c0,6.8844.3538,13.7729-4.1022,18.3395-4.6015,4.7155-14.85,6.9979-21.9591,6.9979-7.56,0-17.5581-1.7466-22.2-6.9979-2.4178-2.7349-3.3223-6.5821-3.66-10.63-.2142-2.5662-.2008-5.2132-.2008-7.7091,0-13.9934,12.0679-25.3374,26.0614-25.3374S154.9366,413.4534,154.9366,427.4468Z"/><path class="cls-25" d="M102.8139,428.6534c.2413,9.8936-.1719,7.0712,4.1023.9652,5.0675-7.2393,34.2083-25.04,27.75-27.0266a28.2557,28.2557,0,0,0-13.7548,0c-4.59,1.236-9.0831,4.74-12.0653,7.7219C102.7684,416.3922,102.6514,421.9918,102.8139,428.6534Z"/><path class="cls-25" d="M154.7664,428.1708c-.2413,9.8936,1,6.3983-4.1023.9652-6.3451-6.7567-33.8543-26.7853-27.0976-26.7853,3.6723,0,9.0917-.4345,14.2372.9653a25.9185,25.9185,0,0,1,10.93,6.5153C154.812,415.91,154.9289,421.5092,154.7664,428.1708Z"/><path class="cls-21" d="M113.7935,431.702c0-2.6332,7.7218-12.58,11.1-.5149"/><path class="cls-22" d="M111.26,429.6186a2.3007,2.3007,0,0,0,2.4131,2.1718"/><path class="cls-22" d="M112.4663,428.1708c0,1.2.6475,2.1717,1.4478,2.1717"/><path class="cls-22" d="M113.6728,426.9642c0,1.2.4317,2.1718.9652,2.1718"/><path class="cls-21" d="M143.1125,431.702c0-2.6332-7.7219-12.58-11.1-.5149"/><path class="cls-22" d="M145.6462,429.6186a2.3007,2.3007,0,0,1-2.4131,2.1718"/><path class="cls-22" d="M144.44,428.1708c0,1.2-.6476,2.1717-1.4479,2.1717"/><path class="cls-22" d="M143.2331,426.9642c0,1.2-.4317,2.1718-.9652,2.1718"/><path class="cls-21" d="M122.36,440.2362a7.1411,7.1411,0,0,0,12.3068-.9652"/><ellipse class="cls-23" cx="141.4233" cy="436.1339" rx="3.8609" ry="1.4479"/><ellipse class="cls-23" cx="117.0511" cy="436.1339" rx="3.8609" ry="1.4479"/><path class="cls-25" d="M82.544,415.3814c-1.9412,3.647,16.1677-2.6544,20.5112-3.62,4.0331-.8963,9.4111-6.7275,9.4111-10.8589s-7.6928-7.2393-11.8242-7.2393S90.5072,400.42,82.544,415.3814Z"/><path class="cls-25" d="M173.8452,414.1748c1.9411,3.647-14.932-3.8609-19.0634-3.8609s-9.4111-6.7275-9.4111-10.8589,7.6927-7.2392,11.8242-7.2392,8.6871,6.9979,16.65,21.959"/><rect class="cls-26" x="105.227" y="403.5573" width="11.5828" height="6.274" rx="3.137" transform="translate(-268.2491 222.6251) rotate(-48.8429)"/><rect class="cls-26" x="141.9059" y="403.5573" width="11.5828" height="6.274" rx="3.137" transform="translate(278.5209 -5.7375) rotate(37.5583)"/><circle class="cls-27" cx="158.9939" cy="363.3865" r="3.3374"/><circle class="cls-27" cx="158.2638" cy="360.5706" r="3.0245"/><circle class="cls-27" cx="158.9939" cy="366.7239" r="3.3374"/><ellipse class="cls-27" cx="158.1595" cy="370.3742" rx="3.3374" ry="4.0675"/><circle class="cls-27" cx="158.1595" cy="374.6503" r="2.5031"/><ellipse class="cls-27" cx="156.908" cy="377.4663" rx="2.0859" ry="2.816"/><ellipse class="cls-27" cx="118.9448" cy="369.227" rx="2.0859" ry="1.4601"/><ellipse class="cls-27" cx="143.1411" cy="372.1472" rx="2.0859" ry="1.4601"/><ellipse class="cls-27" cx="141.0552" cy="370.0613" rx="2.0859" ry="1.4601"/><ellipse class="cls-27" cx="110.4969" cy="366.9325" rx="2.3988" ry="3.3374"/><ellipse class="cls-27" cx="113.5215" cy="369.1227" rx="4.1718" ry="2.6074"/><ellipse class="cls-27" cx="115.1902" cy="371.8344" rx="4.1718" ry="2.6074"/><ellipse class="cls-27" cx="145.227" cy="368.0798" rx="4.1718" ry="2.6074"/><circle class="cls-27" cx="147.4172" cy="365.1595" r="1.5644"/><path class="cls-28" d="M150.8589,348.9939c0,5.9509.3058,11.9054-3.546,15.8527-3.9775,4.0762-12.8365,6.0491-18.9816,6.0491-6.5351,0-15.1773-1.51-19.19-6.0491-2.09-2.364-2.8718-5.69-3.1639-9.189-.1852-2.2182-.1735-4.5063-.1735-6.6637,0-12.0961,10.4315-21.9019,22.5276-21.9019S150.8589,336.8978,150.8589,348.9939Z"/><circle class="cls-27" cx="111.6442" cy="335.8528" r="5.8405"/><circle class="cls-27" cx="119.2577" cy="330.9509" r="4.9018"/><ellipse class="cls-27" cx="113.6258" cy="329.3865" rx="3.8589" ry="3.3374"/><ellipse class="cls-27" cx="126.1411" cy="329.0736" rx="3.4417" ry="4.4847"/><ellipse class="cls-27" cx="122.5951" cy="325.5276" rx="3.4417" ry="2.816"/><ellipse class="cls-27" cx="108.5153" cy="341.0675" rx="3.3374" ry="2.5031" transform="translate(-30.2834 11.1622) rotate(-5.1684)"/><circle class="cls-27" cx="105.8037" cy="348.5767" r="5.4233"/><circle class="cls-27" cx="106.8466" cy="342.319" r="3.7546"/><ellipse class="cls-27" cx="133.4417" cy="327.092" rx="5.1104" ry="6.4663"/><circle class="cls-27" cx="145.1227" cy="336.7914" r="3.2331"/><circle class="cls-27" cx="143.2454" cy="329.908" r="5.1104"/><ellipse class="cls-27" cx="151.9018" cy="344.4049" rx="4.1718" ry="5.8405" transform="translate(-213.714 254.8841) rotate(-52.4417)"/><ellipse class="cls-27" cx="153.7791" cy="356.9202" rx="5.4233" ry="4.1718"/><ellipse class="cls-27" cx="106.4294" cy="359.1104" rx="3.3374" ry="6.362"/><ellipse class="cls-27" cx="104.4479" cy="356.816" rx="6.7791" ry="4.2761"/><ellipse class="cls-27" cx="148.8773" cy="335.9571" rx="3.0245" ry="4.0675"/><ellipse class="cls-27" cx="155.2393" cy="353.5828" rx="6.2577" ry="5.0061"/><ellipse class="cls-27" cx="154.7178" cy="342.2147" rx="4.4847" ry="6.362"/><ellipse class="cls-27" cx="140.3252" cy="325.4233" rx="4.9018" ry="5.4233"/><ellipse class="cls-27" cx="126.7669" cy="324.0675" rx="4.2761" ry="3.4417"/><ellipse class="cls-27" cx="118.0061" cy="327.3006" rx="3.6503" ry="2.7117"/><ellipse class="cls-27" cx="151.6933" cy="334.2883" rx="3.9632" ry="6.7791"/><circle class="cls-27" cx="147.8344" cy="328.2393" r="3.6503"/><circle class="cls-27" cx="151.0675" cy="350.454" r="2.7117"/><ellipse class="cls-27" cx="103.7178" cy="363.5951" rx="2.7117" ry="3.1288"/><circle class="cls-27" cx="153.0491" cy="362.865" r="3.8589"/><circle class="cls-27" cx="155.6564" cy="348.7853" r="2.7117"/><ellipse class="cls-27" cx="101.2147" cy="362.865" rx="2.5031" ry="3.8589"/><ellipse class="cls-27" cx="105.4908" cy="364.2209" rx="3.6503" ry="2.5031"/><circle class="cls-27" cx="104.135" cy="371.1043" r="4.3804"/><ellipse class="cls-27" cx="104.6564" cy="367.5583" rx="5.9448" ry="3.3374"/><ellipse class="cls-27" cx="153.7791" cy="369.1227" rx="4.589" ry="6.362"/><ellipse class="cls-27" cx="110.3926" cy="344.7178" rx="1.2515" ry="3.0245"/><ellipse class="cls-27" cx="108.8282" cy="354.1043" rx="2.3988" ry="2.6074"/><ellipse class="cls-27" cx="109.2454" cy="367.7669" rx="1.1472" ry="6.6748"/><ellipse class="cls-27" cx="151.3804" cy="363.908" rx="2.3988" ry="5.319"/><ellipse class="cls-27" cx="106.1166" cy="370.8957" rx="4.2761" ry="3.546"/><ellipse class="cls-27" cx="108.7239" cy="377.2577" rx="4.1718" ry="3.0245"/><ellipse class="cls-27" cx="110.6012" cy="372.4601" rx="3.7546" ry="4.6933"/><ellipse class="cls-27" cx="103.4049" cy="377.1534" rx="3.0245" ry="3.7546"/><ellipse class="cls-27" cx="150.7546" cy="366.7239" rx="3.0245" ry="5.6319"/><ellipse class="cls-27" cx="148.3558" cy="368.0798" rx="1.4601" ry="4.2761"/><circle class="cls-27" cx="150.6503" cy="374.0245" r="3.1288"/><circle class="cls-27" cx="154.3006" cy="375.1718" r="2.6074"/><ellipse class="cls-27" cx="104.135" cy="380.2822" rx="2.2945" ry="3.7546"/><ellipse class="cls-27" cx="108.3067" cy="380.2822" rx="3.7546" ry="2.2945"/><ellipse class="cls-27" cx="152.1104" cy="378.1963" rx="4.1718" ry="2.7117"/><circle class="cls-27" cx="147.1043" cy="370.4785" r="2.9202"/><ellipse class="cls-27" cx="143.1411" cy="370.6871" rx="2.0859" ry="1.4601"/><ellipse class="cls-27" cx="145.1227" cy="373.6074" rx="1.9816" ry="2.9202"/><ellipse class="cls-27" cx="148.3558" cy="375.589" rx="4.1718" ry="2.6074"/><ellipse class="cls-27" cx="110.8098" cy="375.589" rx="4.1718" ry="2.6074"/><path class="cls-21" d="M142.7239,350.3776c0-2.2762-6.6748-10.8745-9.5951-.4451"/><path class="cls-22" d="M144.9141,348.5767a1.9887,1.9887,0,0,1-2.0859,1.8773"/><path class="cls-22" d="M143.8712,347.3252c0,1.0376-.56,1.8773-1.2516,1.8773"/><path class="cls-22" d="M142.8282,346.2822c0,1.0377-.3732,1.8773-.8343,1.8773"/><path class="cls-21" d="M117.38,350.3776c0-2.2762,6.6748-10.8745,9.5951-.4451"/><path class="cls-22" d="M115.19,348.5767a1.9887,1.9887,0,0,0,2.0859,1.8773"/><path class="cls-22" d="M116.2331,347.3252c0,1.0376.56,1.8773,1.2516,1.8773"/><path class="cls-22" d="M117.2761,346.2822c0,1.0377.3732,1.8773.8343,1.8773"/><path class="cls-21" d="M124.9939,360.0491a6.1727,6.1727,0,0,0,10.638-.8344"/><ellipse class="cls-23" cx="141.4724" cy="356.5031" rx="3.3374" ry="1.2515"/><ellipse class="cls-23" cx="120.4049" cy="356.5031" rx="3.3374" ry="1.2515"/><path class="cls-29" d="M161.02,282.62c0,16.2814-14.2214,23.98-31.9,23.98S97,298.9014,97,282.62s14.3314-29.48,32.01-29.48S161.02,266.3386,161.02,282.62Z"/><path class="cls-30" d="M109.43,277.89c-.85,1.6592,8.001-13.1675,17.6-.66"/><path class="cls-30" d="M123.95,295.05c-.85,1.6592,8.001-13.1675,17.6-.66"/><path class="cls-30" d="M137.15,277.45c-.85,1.6592,8.001-13.1675,17.6-.66"/><ellipse class="cls-31" cx="110.09" cy="261.94" rx="4.51" ry="2.2"/><ellipse class="cls-31" cx="113.17" cy="257.54" rx="4.51" ry="2.2"/><ellipse class="cls-31" cx="112.29" cy="259.74" rx="4.51" ry="2.2"/><ellipse class="cls-31" cx="108.55" cy="258.2" rx="4.51" ry="2.2"/><ellipse class="cls-31" cx="105.47" cy="261.28" rx="4.51" ry="2.2"/><ellipse class="cls-31" cx="103.93" cy="263.7" rx="4.51" ry="2.2"/><ellipse class="cls-31" cx="103.93" cy="266.12" rx="4.51" ry="2.2"/><ellipse class="cls-31" cx="109.43" cy="265.24" rx="4.51" ry="2.2"/><ellipse class="cls-31" cx="114.93" cy="263.92" rx="4.51" ry="2.2"/><ellipse class="cls-31" cx="109.43" cy="256.44" rx="4.51" ry="2.2"/><ellipse class="cls-31" cx="114.71" cy="261.28" rx="4.51" ry="2.2"/><ellipse class="cls-31" cx="117.79" cy="258.64" rx="4.51" ry="2.2"/><path class="cls-22" d="M158.38,263.92c0,.79-.3444,1.43-.77,1.43"/><ellipse class="cls-31" cx="119.33" cy="255.34" rx="4.51" ry="2.2"/><ellipse class="cls-31" cx="123.73" cy="253.8" rx="4.51" ry="2.2"/><ellipse class="cls-31" cx="125.27" cy="251.6" rx="4.51" ry="2.2"/><ellipse class="cls-31" cx="131.65" cy="252.04" rx="4.51" ry="2.2"/><ellipse class="cls-31" cx="130.11" cy="255.34" rx="4.51" ry="2.2"/><ellipse class="cls-31" cx="118.45" cy="253.14" rx="4.51" ry="2.2"/><ellipse class="cls-31" cx="113.83" cy="254.24" rx="4.51" ry="2.2"/><ellipse class="cls-31" cx="124.61" cy="257.54" rx="4.51" ry="2.2"/><ellipse class="cls-31" cx="122.85" cy="260.4" rx="4.51" ry="2.2"/><ellipse class="cls-31" cx="119.99" cy="262.6" rx="4.51" ry="2.2"/><ellipse class="cls-31" cx="134.29" cy="263.7" rx="4.51" ry="2.2"/><ellipse class="cls-31" cx="129.89" cy="259.74" rx="4.51" ry="2.2"/><ellipse class="cls-31" cx="136.71" cy="253.14" rx="4.51" ry="2.2"/><ellipse class="cls-31" cx="141.33" cy="255.34" rx="4.51" ry="2.2"/><ellipse class="cls-31" cx="135.39" cy="256.88" rx="4.51" ry="2.2"/><ellipse class="cls-31" cx="141.77" cy="257.54" rx="4.51" ry="2.2"/><ellipse class="cls-31" cx="135.39" cy="260.4" rx="4.51" ry="2.2"/><ellipse class="cls-31" cx="131.65" cy="256" rx="4.51" ry="2.2"/><ellipse class="cls-31" cx="141.99" cy="259.74" rx="4.51" ry="2.2"/><ellipse class="cls-31" cx="148.15" cy="256.88" rx="4.51" ry="2.2"/><ellipse class="cls-31" cx="158.49" cy="263.04" rx="4.51" ry="2.2"/><ellipse class="cls-31" cx="148.15" cy="259.74" rx="4.51" ry="2.2"/><ellipse class="cls-31" cx="152.77" cy="259.74" rx="4.51" ry="2.2"/><ellipse class="cls-31" cx="142.21" cy="259.74" rx="4.51" ry="2.2"/><ellipse class="cls-31" cx="126.81" cy="262.6" rx="4.51" ry="2.2"/><ellipse class="cls-31" cx="148.37" cy="263.48" rx="4.51" ry="2.2"/><ellipse class="cls-31" cx="145.73" cy="263.04" rx="4.51" ry="2.2"/><ellipse class="cls-31" cx="142.21" cy="263.48" rx="4.51" ry="2.2"/><ellipse class="cls-31" cx="138.91" cy="263.7" rx="4.51" ry="2.2"/><ellipse class="cls-31" cx="135.39" cy="263.04" rx="4.51" ry="2.2"/><ellipse class="cls-31" cx="127.91" cy="262.6" rx="4.51" ry="2.2"/><ellipse class="cls-31" cx="156.07" cy="262.6" rx="4.51" ry="2.2"/><ellipse class="cls-31" cx="156.73" cy="261.94" rx="4.51" ry="2.2"/><ellipse class="cls-31" cx="157.17" cy="265.24" rx="4.51" ry="2.2"/><ellipse class="cls-31" cx="132.75" cy="260.84" rx="4.51" ry="2.2"/><ellipse class="cls-31" cx="153.43" cy="263.7" rx="4.51" ry="2.2"/><ellipse class="cls-31" cx="152.77" cy="263.04" rx="4.51" ry="2.2"/><path class="cls-22" d="M158.38,263.92c0,.79-.3444,1.43-.77,1.43"/><path class="cls-22" d="M152.6912,261.9884c.7051.3572,1.12.9535.9276,1.3332"/><path class="cls-22" d="M150.02,261.94c0,.79-.3444,1.43-.77,1.43"/><path class="cls-22" d="M144.08,261.28c0,.79-.3444,1.43-.77,1.43"/><path class="cls-22" d="M136.5474,262.26c.5355-.5814,1.2221-.8186,1.5352-.53"/><path class="cls-22" d="M135.72,256c0,.79-.3444,1.43-.77,1.43"/><path class="cls-22" d="M128.2731,261.336c.3809-.6926.9908-1.0871,1.3638-.882"/><path class="cls-22" d="M124.5876,258.99a13.78,13.78,0,0,0,2.1494.0842"/><path class="cls-22" d="M113.94,258.2c0,.79-.3444,1.43-.77,1.43"/><path class="cls-22" d="M109.32,263.04c0,.79-.3444,1.43-.77,1.43"/><path class="cls-22" d="M120.32,260.62c0,.79-.3444,1.43-.77,1.43"/><path class="cls-22" d="M121.64,254.46c0,.79-.3444,1.43-.77,1.43"/><path class="cls-22" d="M128.1591,254.5737c.7565-.229,1.4685-.0847,1.5918.3226"/><rect class="cls-32" x="177" y="286" width="21" height="21" rx="2.6124"/><path class="cls-32" d="M195.3877,365a.613.613,0,0,1,.6123.6124v15.7752a.613.613,0,0,1-.6123.6124H179.6123a.613.613,0,0,1-.6123-.6124V365.6124a.613.613,0,0,1,.6123-.6124h15.7754m0-2H179.6123A2.6124,2.6124,0,0,0,177,365.6124v15.7752A2.6124,2.6124,0,0,0,179.6123,384h15.7754A2.6124,2.6124,0,0,0,198,381.3876V365.6124A2.6124,2.6124,0,0,0,195.3877,363Z"/><path class="cls-32" d="M185.6751,433.297,196.1263,438l-10.4512,4.703,2.0732-3.7317a2,2,0,0,0,0-1.9426l-2.0732-3.7317M181,429l5,9-5,9,20-9-20-9Z"/><path class="cls-32" d="M195.3876,499a.6131.6131,0,0,1,.6124.6124v15.7752a.6131.6131,0,0,1-.6124.6124H179.6124a.6131.6131,0,0,1-.6124-.6124V499.6124a.6131.6131,0,0,1,.6124-.6124h15.7752m0-2H179.6124A2.6124,2.6124,0,0,0,177,499.6124v15.7752A2.6124,2.6124,0,0,0,179.6124,518h15.7752A2.6124,2.6124,0,0,0,198,515.3876V499.6124A2.6124,2.6124,0,0,0,195.3876,497Z"/><path class="cls-32" d="M195.3876,565a.6131.6131,0,0,1,.6124.6124v15.7752a.6131.6131,0,0,1-.6124.6124H179.6124a.6131.6131,0,0,1-.6124-.6124V565.6124a.6131.6131,0,0,1,.6124-.6124h15.7752m0-2H179.6124A2.6124,2.6124,0,0,0,177,565.6124v15.7752A2.6124,2.6124,0,0,0,179.6124,584h15.7752A2.6124,2.6124,0,0,0,198,581.3876V565.6124A2.6124,2.6124,0,0,0,195.3876,563Z"/><path class="cls-32" d="M195.3876,631a.6131.6131,0,0,1,.6124.6124v15.7752a.6131.6131,0,0,1-.6124.6124H179.6124a.6131.6131,0,0,1-.6124-.6124V631.6124a.6131.6131,0,0,1,.6124-.6124h15.7752m0-2H179.6124A2.6124,2.6124,0,0,0,177,631.6124v15.7752A2.6124,2.6124,0,0,0,179.6124,650h15.7752A2.6124,2.6124,0,0,0,198,647.3876V631.6124A2.6124,2.6124,0,0,0,195.3876,629Z"/><path class="cls-32" d="M195.3876,697a.6131.6131,0,0,1,.6124.6124v15.7752a.6131.6131,0,0,1-.6124.6124H179.6124a.6131.6131,0,0,1-.6124-.6124V697.6124a.6131.6131,0,0,1,.6124-.6124h15.7752m0-2H179.6124A2.6124,2.6124,0,0,0,177,697.6124v15.7752A2.6124,2.6124,0,0,0,179.6124,716h15.7752A2.6124,2.6124,0,0,0,198,713.3876V697.6124A2.6124,2.6124,0,0,0,195.3876,695Z"/></g></svg>
