<svg xmlns="http://www.w3.org/2000/svg" viewBox="0 0 1600 600"><defs><style>.cls-1,.cls-15,.cls-2,.cls-3,.cls-9{fill:none;stroke-miterlimit:10;}.cls-1,.cls-15,.cls-2,.cls-3{stroke:#ffcd9f;}.cls-1,.cls-3{stroke-width:12px;}.cls-2{stroke-width:13px;}.cls-15,.cls-3{stroke-linecap:round;}.cls-4{fill:#736357;}.cls-5{fill:#fbe3a9;}.cls-6{fill:#ffcd9f;}.cls-7{fill:#c69c6d;}.cls-8{fill:#a54033;}.cls-9{stroke:#754c24;}.cls-10{fill:#333;}.cls-11{fill:#fff;}.cls-12{fill:#754c24;}.cls-13{fill:#ffb8c1;}.cls-14{fill:#c7b299;}.cls-15{stroke-width:11px;}.cls-16{fill:#4d4d4d;}</style></defs><title>ondpige_sprite</title><g id="pige_2" data-name="pige 2"><line class="cls-1" x1="1415.24" y1="399" x2="1415.24" y2="489.02"/><line class="cls-2" x1="617.22" y1="368.93" x2="661.23" y2="442.67"/><line class="cls-3" x1="573.32" y1="390.35" x2="583.43" y2="457.04"/><path class="cls-4" d="M628.38,214.61a62.48,62.48,0,0,0,26.32-28c.65-1.38-.63-3.64,0-5a62.53,62.53,0,0,1-26.32,28c-.75.42.68,4.62,0,5Z"/><path class="cls-5" d="M546.25,270l-24-132.41c0-45.4,31.17-85.56,81-85.56h0c49.8,0,75.45,36.8,75.45,82.21L658.46,271.6"/><path class="cls-6" d="M627.13,233.19H575.6V206.35h51.53v26.84Z"/><path class="cls-7" d="M575.86,215.6c8.59.38,17.11,2.54,25.67,2.49,4.17,0,8.3.82,12.47.28,4.54-.59,8.82-2.3,13-4,.61-.24-.54-4.78,0-5a57.19,57.19,0,0,1-12.16,3.87c-4.47.72-8.87-.19-13.36-.16-8.56,0-17.09-2.11-25.67-2.49,0,0-.11,5,0,5Z"/><path class="cls-6" d="M665.77,140.77c0,42.15-22.83,75.64-60.73,75.64s-60.72-33.49-60.72-75.64,22.83-77,60.72-77S665.77,98.61,665.77,140.77Z"/><path class="cls-8" d="M624.8,180.51c0,4.17-10,15.77-23,15.77s-23.49-13.23-23.49-17.4,10.51,2.3,23.49,2.3S624.8,176.34,624.8,180.51Z"/><path class="cls-9" d="M592.24,172.79c22.08,1.68,3.68-11.74,5.52-28.52"/><ellipse class="cls-10" cx="576.52" cy="139.24" rx="4.6" ry="5.03"/><ellipse class="cls-11" cx="577.44" cy="140.92" rx="0.92" ry="0.84"/><ellipse class="cls-10" cx="622.52" cy="139.24" rx="4.6" ry="5.03"/><ellipse class="cls-11" cx="623.45" cy="140.92" rx="0.92" ry="0.84"/><path class="cls-12" d="M585.83,131.42c.25-.91-6.22-8.42-17.46-8.73"/><path class="cls-12" d="M615.4,133.33c-.28-.89,6-8.56,17.24-9.21"/><path class="cls-5" d="M629,58.71l-50.38,6C568.51,64.75,542,88.1,542,97l-16,42.28"/><path class="cls-5" d="M575.6,58.71l66.25,7.72c10.85,0,27.6,50.46,27.6,59.39l3.68,40.26"/><path class="cls-5" d="M595.84,78.84c0,15.77,5.76,28.52,12.88,28.52"/><path class="cls-5" d="M595,79.44c-4.9,15.12-3.34,28.84,3.49,30.68"/><path class="cls-13" d="M626.4,403.36H575.1c-10.58,0-30.46-6.08-30.46-15.21L555.86,244.8c0-9.13,8.66-16.59,19.24-16.59h51.3c10.58,0,19.24,7.46,19.24,16.59l12.82,144.73C658.46,398.66,637,403.36,626.4,403.36Z"/><path class="cls-13" d="M521.08,304.23h0a12.84,12.84,0,0,0,16.57-3.44l35.51-48.32a10.27,10.27,0,0,0-2.91-15.14h0a12.84,12.84,0,0,0-16.57,3.45l-35.51,48.31A10.26,10.26,0,0,0,521.08,304.23Z"/><ellipse class="cls-6" cx="530.83" cy="350.51" rx="10.82" ry="17.12" transform="translate(-32.15 54.38) rotate(-5.69)"/><path class="cls-13" d="M527.47,352.48h0a11.84,11.84,0,0,1-10.81-11.26L516,301.1a9.47,9.47,0,0,1,10.45-9.66h0a11.84,11.84,0,0,1,10.81,11.27l.68,40.11A9.46,9.46,0,0,1,527.47,352.48Z"/><line class="cls-3" x1="621.69" y1="458.36" x2="661.67" y2="440.77"/><path class="cls-14" d="M594,460.9l17.49,28.92c2.15,3.6,8.31,3.89,13.7.63l.85-.52c5.39-3.25,8-8.86,5.9-12.47L613,448.8"/><line class="cls-15" x1="582.91" y1="457.79" x2="570.71" y2="494"/><path class="cls-14" d="M552.38,509.65l34.31,13.88c4.24,1.74,9.71-1.49,12.16-7.19l.38-.91c2.45-5.7,1-11.79-3.27-13.53l-35.37-12.85"/><rect class="cls-16" x="312.14" y="193.31" width="28.86" height="56.11" rx="6.97" ry="6.97"/><ellipse class="cls-10" cx="318.42" cy="200.69" rx="2.51" ry="2.95"/><ellipse cx="318.42" cy="200.69" rx="1.25" ry="1.48"/><path class="cls-11" d="M331,218.41c0,1.48-1.4,4.43-3.13,4.43s-3.14-2.8-3.14-4.43c0-1.47,1.57-1.47,3.14-1.47C329.56,216.94,331,216.32,331,218.41Z"/><polyline class="cls-11" points="327.2 216.94 327.2 215.46 328.45 215.46"/><line class="cls-2" x1="217.22" y1="360.34" x2="261.23" y2="433.02"/><line class="cls-3" x1="176.44" y1="381.13" x2="180.18" y2="444.28"/><path class="cls-4" d="M228.38,208.29a62,62,0,0,0,26.32-27.63c.65-1.38-.63-3.65,0-5a62,62,0,0,1-26.32,27.63c-.74.42.67,4.62,0,5Z"/><path class="cls-5" d="M146.25,262.82l-24-130.5c0-44.74,31.17-84.32,81-84.32h0c49.8,0,75.45,36.27,75.45,81l-20.19,135.4"/><path class="cls-6" d="M227.13,226.56H175.6V200.11h51.53v26.45Z"/><path class="cls-7" d="M175.86,209.27c8.58.38,17.11,2.5,25.67,2.45,4.17,0,8.3.81,12.47.28,4.54-.58,8.82-2.27,13.05-3.94.6-.23-.54-4.78,0-5a57.81,57.81,0,0,1-12.16,3.82c-4.47.71-8.87-.19-13.36-.16-8.56.05-17.09-2.08-25.67-2.45,0,0-.11,5,0,5Z"/><path class="cls-6" d="M265.77,135.48C265.77,177,242.94,210,205,210s-60.72-33-60.72-74.55S167.15,59.57,205,59.57,265.77,93.93,265.77,135.48Z"/><path class="cls-8" d="M224.8,174.65c0,4.1-10,15.54-23,15.54s-23.49-13-23.49-17.15,10.51,2.27,23.49,2.27S224.8,170.54,224.8,174.65Z"/><path class="cls-9" d="M192.24,167c22.08,1.66,3.68-11.57,5.52-28.1"/><ellipse class="cls-10" cx="176.52" cy="133.98" rx="4.6" ry="4.96"/><ellipse class="cls-11" cx="177.44" cy="135.63" rx="0.92" ry="0.83"/><ellipse class="cls-10" cx="222.52" cy="133.98" rx="4.6" ry="4.96"/><ellipse class="cls-11" cx="223.45" cy="135.63" rx="0.92" ry="0.83"/><path class="cls-12" d="M185.83,126.26c.25-.89-6.22-8.29-17.46-8.6"/><path class="cls-12" d="M215.4,128.15c-.28-.88,6-8.44,17.24-9.07"/><path class="cls-5" d="M229,54.61l-50.38,6c-10.08,0-36.64,23-36.64,31.74l-16,41.67"/><path class="cls-5" d="M175.6,54.61l66.25,7.61c10.85,0,27.6,49.73,27.6,58.53l3.68,39.68"/><path class="cls-5" d="M195.84,74.45c0,15.54,5.76,28.11,12.88,28.11"/><path class="cls-5" d="M195,75c-4.9,14.9-3.34,28.43,3.49,30.24"/><path class="cls-13" d="M226.4,394.27H175.1c-10.58,0-30.46-6-30.46-15L155.86,238c0-9,8.66-16.35,19.24-16.35h51.3c10.58,0,19.24,7.35,19.24,16.35l12.82,142.63C258.46,389.64,237,394.27,226.4,394.27Z"/><path class="cls-13" d="M121.08,296.58h0a13,13,0,0,0,16.57-3.39l35.51-47.62a10,10,0,0,0-2.91-14.92h0A13,13,0,0,0,153.68,234l-35.51,47.62A10,10,0,0,0,121.08,296.58Z"/><path class="cls-13" d="M286.45,290.4h0A13,13,0,0,1,269.6,289l-40.9-43.07a10,10,0,0,1,1.13-15.16h0a13,13,0,0,1,16.85,1.4l40.9,43.08A10,10,0,0,1,286.45,290.4Z"/><ellipse class="cls-6" cx="85.34" cy="321.7" rx="16.93" ry="10.78" transform="translate(-185.46 128.2) rotate(-39.59)"/><ellipse class="cls-6" cx="317.63" cy="245.19" rx="16.83" ry="10.84" transform="translate(-44.5 418.03) rotate(-63.18)"/><path class="cls-13" d="M274.53,292.51h0a11.92,11.92,0,0,0,15.53-1.24l26.85-29.19a9.29,9.29,0,0,0-1.53-14h0a11.93,11.93,0,0,0-15.54,1.25L273,278.54A9.29,9.29,0,0,0,274.53,292.51Z"/><path class="cls-13" d="M85.9,322.62h0a11.92,11.92,0,0,1,2.26-15.42L119,282.33a9.3,9.3,0,0,1,13.85,2.45h0a11.93,11.93,0,0,1-2.27,15.42L99.74,325.07A9.28,9.28,0,0,1,85.9,322.62Z"/><line class="cls-3" x1="263.4" y1="475.63" x2="260.96" y2="432.12"/><path class="cls-14" d="M261.18,500.44,294,493.89c4.08-.79,6.47-6.48,5.32-12.64l-.18-1c-1.15-6.16-5.42-10.56-9.5-9.78l-33.05,8"/><line class="cls-15" x1="178.68" y1="447.31" x2="154" y2="473.34"/><path class="cls-14" d="M134.55,483.12,160,509.84c3.15,3.33,9.45,2.71,14-1.38l.72-.65c4.57-4.09,5.73-10.16,2.58-13.49l-26.88-26.24"/><rect class="cls-16" x="706.4" y="213.98" width="29.67" height="57.7" rx="6.97" ry="6.97" transform="translate(41.09 -98.57) rotate(8.05)"/><ellipse class="cls-10" cx="715.9" cy="220.6" rx="3.04" ry="2.58" transform="translate(397.26 898.58) rotate(-81.95)"/><ellipse cx="715.9" cy="220.6" rx="1.52" ry="1.29" transform="translate(397.26 898.58) rotate(-81.95)"/><path class="cls-11" d="M726.13,240.45c-.21,1.5-2.07,4.31-3.83,4.06s-2.79-3.3-2.56-5,1.81-1.28,3.41-1.05C724.91,238.75,726.43,238.32,726.13,240.45Z"/><polyline class="cls-11" points="722.51 238.41 722.72 236.9 724 237.08"/><path class="cls-13" d="M673.14,311.47h0a13.13,13.13,0,0,1-15.69-6.9l-25-54.78a10.15,10.15,0,0,1,6.07-14.16h0a13.13,13.13,0,0,1,15.69,6.9l25,54.78A10.15,10.15,0,0,1,673.14,311.47Z"/><ellipse class="cls-6" cx="709.46" cy="267.65" rx="17.07" ry="11" transform="translate(84.28 696.75) rotate(-55.13)"/><path class="cls-13" d="M660.62,308.18h0a12.08,12.08,0,0,0,15.77.95l31.09-25.48a9.43,9.43,0,0,0,.45-14.25h0a12.11,12.11,0,0,0-15.78-1l-31.09,25.49A9.42,9.42,0,0,0,660.62,308.18Z"/><line class="cls-3" x1="1024.32" y1="389.35" x2="1034.43" y2="456.04"/><rect class="cls-16" x="1126.82" y="315.39" width="28.86" height="56.93" rx="6.97" ry="6.97" transform="translate(1401.48 -819.32) rotate(85.84)"/><ellipse class="cls-10" cx="1161.58" cy="334.2" rx="3" ry="2.51" transform="translate(-21.17 85.07) rotate(-4.16)"/><ellipse cx="1161.58" cy="334.2" rx="1.5" ry="1.25" transform="translate(-21.17 85.07) rotate(-4.16)"/><path class="cls-11" d="M1144.56,348c-1.5.1-4.59-1.08-4.71-2.81s2.6-3.33,4.25-3.45,1.61,1.45,1.72,3C1146,346.51,1146.67,347.86,1144.56,348Z"/><polyline class="cls-11" points="1145.78 344.15 1147.27 344.04 1147.36 345.3"/><line class="cls-3" x1="974.16" y1="385.04" x2="990.46" y2="447.1"/><path class="cls-4" d="M1028.38,212.61a62.48,62.48,0,0,0,26.32-28c.65-1.38-.63-3.64,0-5a62.53,62.53,0,0,1-26.32,28c-.75.42.68,4.62,0,5Z"/><path class="cls-5" d="M946.25,268l-24-132.41c0-45.4,31.17-85.56,81-85.56h0c49.8,0,75.45,36.8,75.45,82.21L1058.46,269.6"/><path class="cls-6" d="M1027.13,231.19H975.6V204.35h51.53v26.84Z"/><path class="cls-7" d="M975.86,213.6c8.59.38,17.11,2.54,25.67,2.49,4.17,0,8.3.82,12.47.28,4.54-.59,8.82-2.3,13-4,.61-.24-.54-4.78,0-5a57.19,57.19,0,0,1-12.16,3.87c-4.47.72-8.87-.19-13.36-.16-8.56,0-17.09-2.11-25.67-2.49,0,0-.11,5,0,5Z"/><path class="cls-6" d="M1065.77,138.77c0,42.15-22.83,75.64-60.73,75.64s-60.72-33.49-60.72-75.64,22.83-77,60.72-77S1065.77,96.61,1065.77,138.77Z"/><path class="cls-8" d="M1024.8,178.51c0,4.17-10,15.77-23,15.77s-23.49-13.23-23.49-17.4,10.51,2.3,23.49,2.3S1024.8,174.34,1024.8,178.51Z"/><path class="cls-9" d="M992.24,170.79c22.08,1.68,3.68-11.74,5.52-28.52"/><ellipse class="cls-10" cx="976.52" cy="137.24" rx="4.6" ry="5.03"/><ellipse class="cls-11" cx="977.44" cy="138.92" rx="0.92" ry="0.84"/><ellipse class="cls-10" cx="1022.52" cy="137.24" rx="4.6" ry="5.03"/><ellipse class="cls-11" cx="1023.45" cy="138.92" rx="0.92" ry="0.84"/><path class="cls-12" d="M985.83,129.42c.25-.91-6.22-8.42-17.46-8.73"/><path class="cls-12" d="M1015.4,131.33c-.28-.89,6-8.56,17.24-9.21"/><path class="cls-5" d="M1029,56.71l-50.38,6C968.51,62.75,942,86.1,942,95l-16,42.28"/><path class="cls-5" d="M975.6,56.71l66.25,7.72c10.85,0,27.6,50.46,27.6,59.39l3.68,40.26"/><path class="cls-5" d="M995.84,76.84c0,15.77,5.76,28.52,12.88,28.52"/><path class="cls-5" d="M995,77.44c-4.9,15.12-3.34,28.84,3.49,30.68"/><path class="cls-13" d="M1026.4,401.36H975.1c-10.58,0-30.46-6.08-30.46-15.21L955.86,242.8c0-9.13,8.66-16.59,19.24-16.59h51.3c10.58,0,19.24,7.46,19.24,16.59l12.82,144.73C1058.46,396.66,1037,401.36,1026.4,401.36Z"/><path class="cls-13" d="M921.08,302.23h0a12.84,12.84,0,0,0,16.57-3.44l35.51-48.32a10.27,10.27,0,0,0-2.91-15.14h0a12.84,12.84,0,0,0-16.57,3.45l-35.51,48.31A10.26,10.26,0,0,0,921.08,302.23Z"/><path class="cls-13" d="M1076.23,314.82h0a12.9,12.9,0,0,1-15.48-6.91l-24.69-54.82a10.22,10.22,0,0,1,6-14.18h0a12.9,12.9,0,0,1,15.48,6.91l24.69,54.82A10.22,10.22,0,0,1,1076.23,314.82Z"/><ellipse class="cls-6" cx="953.52" cy="339.52" rx="10.82" ry="17.12" transform="translate(-40.93 528.04) rotate(-30.33)"/><ellipse class="cls-6" cx="1115.62" cy="338.75" rx="10.88" ry="17.03" transform="translate(385.77 1247.97) rotate(-68.14)"/><path class="cls-13" d="M1065.82,300h0a11.8,11.8,0,0,0,2.29,15.42l31.3,24.85a9.52,9.52,0,0,0,14-2.46h0a11.8,11.8,0,0,0-2.28-15.42l-31.3-24.84A9.53,9.53,0,0,0,1065.82,300Z"/><path class="cls-13" d="M951.29,342.72h0A11.85,11.85,0,0,1,936.76,337l-17.34-36.18a9.47,9.47,0,0,1,5.47-13.14h0a11.85,11.85,0,0,1,14.53,5.74l17.34,36.17A9.47,9.47,0,0,1,951.29,342.72Z"/><line class="cls-15" x1="992.61" y1="450.64" x2="956.49" y2="454.66"/><path class="cls-14" d="M932.27,446l-.16,37c0,4.59,5,8.47,11.19,8.63l1,0c6.2.16,11.31-3.47,11.36-8.06L954.44,446"/><line class="cls-15" x1="1033.91" y1="456.79" x2="1021.71" y2="493"/><path class="cls-14" d="M1003.38,508.65l34.31,13.88c4.24,1.74,9.71-1.49,12.16-7.19l.38-.91c2.45-5.7,1-11.79-3.27-13.53l-35.37-12.85"/><path class="cls-14" d="M1395.26,504.47l-27.94.85c-3.47.13-6.43-3.79-6.59-8.71l0-.78c-.16-4.92,2.55-9,6-9.17l28.4.21"/><path class="cls-14" d="M1408.75,503.78l26.82.52c3.32.09,6.13-3.57,6.24-8.13l0-.72c.11-4.55-2.52-8.35-5.85-8.43l-27.25.46"/><line class="cls-1" x1="1389.07" y1="399" x2="1389.07" y2="486.59"/><path class="cls-4" d="M1429.38,211.61a62.48,62.48,0,0,0,26.32-28c.65-1.38-.63-3.64,0-5a62.53,62.53,0,0,1-26.32,28c-.75.42.68,4.62,0,5Z"/><path class="cls-5" d="M1347.25,267l-24-132.41c0-45.4,31.17-85.56,81-85.56h0c49.8,0,75.45,36.8,75.45,82.21L1459.46,268.6"/><path class="cls-6" d="M1428.13,230.19H1376.6V203.35h51.53v26.84Z"/><path class="cls-7" d="M1376.86,212.6c8.59.38,17.11,2.54,25.67,2.49,4.17,0,8.3.82,12.47.28,4.54-.59,8.82-2.3,13-4,.61-.24-.54-4.78,0-5a57.19,57.19,0,0,1-12.16,3.87c-4.47.72-8.87-.19-13.36-.16-8.56,0-17.09-2.11-25.67-2.49,0,0-.11,5,0,5Z"/><path class="cls-6" d="M1466.77,137.77c0,42.15-22.83,75.64-60.73,75.64s-60.72-33.49-60.72-75.64,22.83-77,60.72-77S1466.77,95.61,1466.77,137.77Z"/><path class="cls-8" d="M1425.8,177.51c0,4.17-10,15.77-23,15.77s-23.49-13.23-23.49-17.4,10.51,2.3,23.49,2.3S1425.8,173.34,1425.8,177.51Z"/><path class="cls-9" d="M1393.24,169.79c22.08,1.68,3.68-11.74,5.52-28.52"/><ellipse class="cls-10" cx="1377.52" cy="136.24" rx="4.6" ry="5.03"/><ellipse class="cls-11" cx="1378.44" cy="137.92" rx="0.92" ry="0.84"/><ellipse class="cls-10" cx="1423.52" cy="136.24" rx="4.6" ry="5.03"/><ellipse class="cls-11" cx="1424.45" cy="137.92" rx="0.92" ry="0.84"/><path class="cls-12" d="M1386.83,128.42c.25-.91-6.22-8.42-17.46-8.73"/><path class="cls-12" d="M1416.4,130.33c-.28-.89,6-8.56,17.24-9.21"/><path class="cls-5" d="M1430,55.71l-50.38,6C1369.51,61.75,1343,85.1,1343,94l-16,42.28"/><path class="cls-5" d="M1376.6,55.71l66.25,7.72c10.85,0,27.6,50.46,27.6,59.39l3.68,40.26"/><path class="cls-5" d="M1396.84,75.84c0,15.77,5.76,28.52,12.88,28.52"/><path class="cls-5" d="M1396,76.44c-4.9,15.12-3.34,28.84,3.49,30.68"/><path class="cls-13" d="M1427.4,400.36h-51.3c-10.58,0-30.46-6.08-30.46-15.21l11.22-143.35c0-9.13,8.66-16.59,19.24-16.59h51.3c10.58,0,19.24,7.46,19.24,16.59l12.82,144.73C1459.46,395.66,1438,400.36,1427.4,400.36Z"/><path class="cls-13" d="M1478,299.43h0a12.86,12.86,0,0,1-16.17-5L1431,242.93a10.26,10.26,0,0,1,4.34-14.79h0a12.85,12.85,0,0,1,16.17,5l30.74,51.48A10.27,10.27,0,0,1,1478,299.43Z"/><path class="cls-13" d="M1426.11,312.66h0a11.35,11.35,0,0,0,14,5.12l35.36-14.89a9.06,9.06,0,0,0,4.42-12.88h0a11.34,11.34,0,0,0-14-5.11l-35.37,14.89A9.06,9.06,0,0,0,1426.11,312.66Z"/><path class="cls-13" d="M1326.06,299.43h0a12.87,12.87,0,0,0,16.17-5L1373,242.93a10.25,10.25,0,0,0-4.34-14.79h0a12.84,12.84,0,0,0-16.16,5l-30.74,51.48A10.27,10.27,0,0,0,1326.06,299.43Z"/><path class="cls-13" d="M1376.63,317h0a11.34,11.34,0,0,1-14.58,3.21L1329,300.78a9.06,9.06,0,0,1-2.67-13.35h0a11.34,11.34,0,0,1,14.58-3.21L1374,303.66A9.06,9.06,0,0,1,1376.63,317Z"/><rect class="cls-16" x="1387.14" y="288.67" width="28.86" height="56.93" rx="6.97" ry="6.97"/><ellipse class="cls-10" cx="1393.42" cy="296.16" rx="2.51" ry="3"/><ellipse cx="1393.42" cy="296.16" rx="1.25" ry="1.5"/><path class="cls-11" d="M1406,314.14c0,1.5-1.4,4.49-3.13,4.49s-3.14-2.84-3.14-4.49c0-1.5,1.57-1.5,3.14-1.5C1404.56,312.64,1406,312,1406,314.14Z"/><polyline class="cls-11" points="1402.2 312.64 1402.2 311.14 1403.45 311.14"/><ellipse class="cls-6" cx="1428.68" cy="312.98" rx="17.12" ry="10.82" transform="translate(-26.53 459.43) rotate(-18.1)"/><ellipse class="cls-6" cx="1377.01" cy="312.63" rx="10.82" ry="17.12" transform="translate(498.01 1417.73) rotate(-64.29)"/></g></svg>
