<svg id="Layer_1" data-name="Layer 1" xmlns="http://www.w3.org/2000/svg" width="738.5461" height="165.1523" viewBox="0 0 738.5461 165.1523"><defs><style>.cls-1{opacity:0.54;}.cls-2{fill:#f48200;}</style></defs><title>overskrift</title><g class="cls-1"><path d="M22.9034,151.8248a22.2681,22.2681,0,0,1-.7934-6.7422q0-8.5239.7934-21.0205.99-11.8989.9913-21.22,0-10.5088.5952-31.5312l.3965-31.3331a35.812,35.812,0,0,0-.5948-5.3544l-.5952-4.9581v-.9912q0-4.56,1.3882-6.7422,1.3849-2.18,5.1562-2.1816a26.2241,26.2241,0,0,1,11.3038,2.9746,20.5088,20.5088,0,0,1,8.9238,7.5361q5.7495,9.5185,5.751,23.7969a76.3744,76.3744,0,0,1-1.7847,17.9473,39.1366,39.1366,0,0,1-6.1475,13.3857,26.1265,26.1265,0,0,1,7.2383,13.1875,90.176,90.176,0,0,1,1.8838,20.1289q0,12.0982-4.1645,21.0205Q48.4855,149.8414,39.3629,153.61a32.8847,32.8847,0,0,1-11.105,1.9834Q23.8935,155.5934,22.9034,151.8248ZM43.3292,137.943a27.51,27.51,0,0,0,3.57-14.0791,96.2,96.2,0,0,0-.9917-14.6758,40.29,40.29,0,0,0-2.082-8.23A24.1022,24.1022,0,0,0,40.3546,94.91,9.2564,9.2564,0,0,0,34.8019,91.34q-.7947,11.3043-.793,29.9454,0,1.1894-.397,7.5351l-.3964,6.7432a.796.796,0,0,0,.1982.5947v9.32A14.845,14.845,0,0,0,43.3292,137.943Zm1.5864-82.2979q0-25.5834-8.13-26.7724Q34.6,33.4371,34.6036,50.2906V79.64Q44.9125,79.4455,44.9156,55.6451Z"/><path d="M71.6852,147.4625q0-4.7592,6.1479-4.76h2.1812l1.9834.1982a2.3269,2.3269,0,0,0,2.1811-.9912,7.5169,7.5169,0,0,0,.5952-3.5694q0-3.37-.3969-10.5107-.5948-4.7592-1.3882-17.0547-1.7848-30.3412-1.7847-45.81,0-5.55.1983-10.1142l.1982-10.1133a83.0036,83.0036,0,0,0-.5947-10.9072,21.6428,21.6428,0,0,1-4.5611.793q-4.76,0-4.76-4.76,0-2.379,2.9746-4.1641a21.94,21.94,0,0,1,7.5361-2.5781,72.8046,72.8046,0,0,1,14.08-1.5869,5.55,5.55,0,0,1,4.0654,1.6865,5.3275,5.3275,0,0,1,1.6856,3.8662,5.79,5.79,0,0,1-1.2891,3.7686,4.0367,4.0367,0,0,1-3.272,1.5859,8.2522,8.2522,0,0,1-1.9834-.1982H93.8961a3.942,3.942,0,0,0-2.8755.8925,4.6166,4.6166,0,0,0-.8925,3.2725q0,19.2378,2.38,57.9063.3948,7.14,1.5865,21.0214a172.6577,172.6577,0,0,1,.9917,18.6407v7.5361a27.5314,27.5314,0,0,1,3.9663-.1982q8.329,0,8.3286,6.94v1.19l-4.9575,3.3711c-.1333,0-.564.0342-1.2891.0986q-1.092.1026-4.0654.1-6.3488.4-8.13.3964Q71.685,153.4117,71.6852,147.4625Z"/><path d="M136.7311,154.4029a12.5283,12.5283,0,0,1-6.7427,1.9834,5.0716,5.0716,0,0,1-4.0654-2.082,6.9614,6.9614,0,0,1-1.6856-4.4619q0-16.6583,1.3882-44.4219,1.1895-29.5473,1.19-44.2236V59.8092q-1.19-12.4936-1.19-18.6416,0-18.8379,6.9409-18.8389a5.0831,5.0831,0,0,1,4.9575,4.958,73.6832,73.6832,0,0,1-.5947,7.5352,68.64,68.64,0,0,0-.5952,7.5361q0,13.2876.1982,23.9951.1956,10.5147.1988,23.7979a27.3824,27.3824,0,0,0-.9917,8.3291v2.3789l-.3965,15.667q-.4,6.9433-.397,15.8652,0,13.6831,6.5445,13.6826a12.5082,12.5082,0,0,0,1.289-.0986,23.9577,23.9577,0,0,1,2.479-.1,43.3293,43.3293,0,0,1,4.5611-.1982q10.7086,0,10.7085,5.9492a4.1452,4.1452,0,0,1-1.7847,3.3711,9.3084,9.3084,0,0,1-4.3628,1.7851A56.4284,56.4284,0,0,0,136.7311,154.4029Z"/><path d="M189.8761,154.4029a12.5283,12.5283,0,0,1-6.7427,1.9834,5.0716,5.0716,0,0,1-4.0654-2.082,6.9614,6.9614,0,0,1-1.6856-4.4619q0-16.6583,1.3882-44.4219,1.19-29.5473,1.19-44.2236V59.8092q-1.19-12.4936-1.19-18.6416,0-18.8379,6.9409-18.8389a5.0831,5.0831,0,0,1,4.9576,4.958,73.6906,73.6906,0,0,1-.5948,7.5352,68.6656,68.6656,0,0,0-.5952,7.5361q0,13.2876.1983,23.9951.1955,10.5147.1987,23.7979a27.3824,27.3824,0,0,0-.9917,8.3291v2.3789l-.3965,15.667q-.4,6.9433-.397,15.8652,0,13.6831,6.5445,13.6826a12.5062,12.5062,0,0,0,1.289-.0986,23.9591,23.9591,0,0,1,2.479-.1,43.3306,43.3306,0,0,1,4.5611-.1982q10.7087,0,10.7085,5.9492a4.1452,4.1452,0,0,1-1.7847,3.3711,9.308,9.308,0,0,1-4.3628,1.7851A56.4279,56.4279,0,0,0,189.8761,154.4029Z"/><path d="M234.5929,154.4029a6.1909,6.1909,0,0,1-2.2808-4.3623v-9.122a37.9739,37.9739,0,0,1-.1982-4.1651q0-4.1644-.5952-12.6914l-.3965-12.6924q0-9.7132.5952-28.9531.79-17.2529.793-28.9531,0-2.7759-.5948-8.3291-.5954-5.7495-.5952-8.3291,0-14.0787,8.3291-14.08A53.99,53.99,0,0,1,254.82,25.3033q8.6265,2.58,8.6265,6.1475a5.12,5.12,0,0,1-1.6855,3.6689,12.4186,12.4186,0,0,1-4.0655,2.6768,80.3037,80.3037,0,0,0-15.0718-3.9658q.1956,2.9751.1983,8.5273,0,7.9337-.1983,14.2783-.5946,9.5185-.5947,14.2784l.5947,3.1728,3.1734-.1982a33.35,33.35,0,0,1,3.9658-.1983q9.5193,0,9.519,5.5528a4.5962,4.5962,0,0,1-1.7846,3.6689A6.8887,6.8887,0,0,1,252.9366,84.4a29.7163,29.7163,0,0,1-5.5527-.3974h-4.958q.3956,5.1591.3965,15.0722,0,9.9185-.1983,17.8477-.5946,12.0981-.5947,18.0459,0,11.1093.3965,11.1054l6.5444-.1982q3.37-.1949,8.1309-.1982,7.5337,0,7.5356,4.76a4.7061,4.7061,0,0,1-2.479,4.2637,11.5657,11.5657,0,0,1-6.0483,1.4873H239.2531A6.976,6.976,0,0,1,234.5929,154.4029Z"/><path d="M287.64,128.8209l.3969-31.333q.1949-13.8778.1983-31.1348,0-6.3441-1.19-19.6328-.9945-14.4726-.9917-17.6494A6.01,6.01,0,0,1,288.235,24.51a6.9455,6.9455,0,0,1,4.7593-1.9834A30.7714,30.7714,0,0,1,306.3805,25.6a36.0243,36.0243,0,0,1,11.4028,8.627A62.5786,62.5786,0,0,1,333.45,75.277q0,2.58-.1987,4.76l-.1982,5.3545V96.2985a197.1813,197.1813,0,0,1-.793,20.0293,62.777,62.777,0,0,1-4.561,17.6494,45.6513,45.6513,0,0,1-11.5025,14.873,54.5719,54.5719,0,0,1-9.1221,5.9492H292.796Q287.6369,154.7994,287.64,128.8209Zm21.2192,13.7832a18.7412,18.7412,0,0,0,5.751-5.6523,40.073,40.073,0,0,0,3.6689-8.0313,60.5736,60.5736,0,0,0,2.479-9.42,118.8159,118.8159,0,0,0,2.1812-18.2441q.1956-2.38.1982-6.9414,0-59.8887-23.2021-62.4678a135.4768,135.4768,0,0,0-1.3882,20.624q0,12.4937,1.5864,43.6289,1.3851,27.5668,1.3882,43.8262v4.76A13.7136,13.7136,0,0,0,308.859,142.6041Z"/><path d="M356.2535,128.8209l.397-31.333q.1948-13.8778.1983-31.1348,0-6.3441-1.19-19.6328-.9946-14.4726-.9917-17.6494a6.01,6.01,0,0,1,2.1817-4.5605,6.9454,6.9454,0,0,1,4.7592-1.9834A30.7715,30.7715,0,0,1,374.9943,25.6a36.0243,36.0243,0,0,1,11.4028,8.627,62.58,62.58,0,0,1,15.6665,41.05q0,2.58-.1987,4.76l-.1983,5.3545V96.2985a197.1865,197.1865,0,0,1-.7929,20.0293,62.7736,62.7736,0,0,1-4.5611,17.6494A45.6523,45.6523,0,0,1,384.81,148.85a54.5719,54.5719,0,0,1-9.1221,5.9492H361.41Q356.2505,154.7994,356.2535,128.8209Zm21.2193,13.7832a18.7423,18.7423,0,0,0,5.751-5.6523,40.073,40.073,0,0,0,3.6689-8.0313,60.5736,60.5736,0,0,0,2.479-9.42,118.8283,118.8283,0,0,0,2.1812-18.2441q.1954-2.38.1982-6.9414,0-59.8887-23.2021-62.4678a135.4768,135.4768,0,0,0-1.3882,20.624q0,12.4937,1.5864,43.6289,1.385,27.5668,1.3882,43.8262v4.76A13.7138,13.7138,0,0,0,377.4728,142.6041Z"/><path d="M428.14,154.4029a6.1909,6.1909,0,0,1-2.2808-4.3623v-9.122a37.9739,37.9739,0,0,1-.1982-4.1651q0-4.1644-.5953-12.6914L424.67,111.37q0-9.7132.5952-28.9531.7894-17.2529.7929-28.9531,0-2.7759-.5947-8.3291-.5955-5.7495-.5952-8.3291,0-14.0787,8.3291-14.08a53.991,53.991,0,0,1,15.1709,2.5781q8.6265,2.58,8.6265,6.1475a5.12,5.12,0,0,1-1.6856,3.6689,12.4181,12.4181,0,0,1-4.0654,2.6768,80.3037,80.3037,0,0,0-15.0718-3.9658q.1956,2.9751.1983,8.5273,0,7.9337-.1983,14.2783-.5948,9.5185-.5947,14.2784l.5947,3.1728,3.1733-.1982a33.3514,33.3514,0,0,1,3.9659-.1983q9.5193,0,9.519,5.5528a4.596,4.596,0,0,1-1.7847,3.6689A6.8884,6.8884,0,0,1,446.484,84.4a29.7155,29.7155,0,0,1-5.5527-.3974h-4.958q.3954,5.1591.3965,15.0722,0,9.9185-.1983,17.8477-.5948,12.0981-.5947,18.0459,0,11.1093.3965,11.1054l6.5444-.1982q3.37-.1949,8.1309-.1982,7.5336,0,7.5356,4.76a4.7061,4.7061,0,0,1-2.479,4.2637,11.5659,11.5659,0,0,1-6.0483,1.4873H432.8A6.9758,6.9758,0,0,1,428.14,154.4029Z"/><path d="M492.8878,154.4029a12.5283,12.5283,0,0,1-6.7427,1.9834,5.0716,5.0716,0,0,1-4.0654-2.082,6.9613,6.9613,0,0,1-1.6855-4.4619q0-16.6583,1.3881-44.4219,1.19-29.5473,1.19-44.2236V59.8092q-1.19-12.4936-1.19-18.6416,0-18.8379,6.941-18.8389a5.0831,5.0831,0,0,1,4.9575,4.958,73.7126,73.7126,0,0,1-.5947,7.5352,68.6459,68.6459,0,0,0-.5953,7.5361q0,13.2876.1983,23.9951.1956,10.5147.1987,23.7979a27.3824,27.3824,0,0,0-.9917,8.3291v2.3789L491.5,116.526q-.4,6.9433-.3969,15.8652,0,13.6831,6.5444,13.6826a12.51,12.51,0,0,0,1.2891-.0986,23.9564,23.9564,0,0,1,2.479-.1,43.3272,43.3272,0,0,1,4.561-.1982q10.7088,0,10.7085,5.9492a4.145,4.145,0,0,1-1.7847,3.3711,9.308,9.308,0,0,1-4.3628,1.7851A56.4275,56.4275,0,0,0,492.8878,154.4029Z"/><path d="M525.8048,147.4625q0-4.7592,6.148-4.76h2.1811l1.9834.1982a2.327,2.327,0,0,0,2.1812-.9912,7.5182,7.5182,0,0,0,.5952-3.5694q0-3.37-.397-10.5107-.5948-4.7592-1.3882-17.0547-1.7849-30.3412-1.7846-45.81,0-5.55.1982-10.1142l.1982-10.1133a83.0036,83.0036,0,0,0-.5947-10.9072,21.6432,21.6432,0,0,1-4.561.793q-4.76,0-4.76-4.76,0-2.379,2.9746-4.1641a21.94,21.94,0,0,1,7.5362-2.5781,72.8028,72.8028,0,0,1,14.08-1.5869,5.55,5.55,0,0,1,4.0655,1.6865,5.3277,5.3277,0,0,1,1.6855,3.8662,5.79,5.79,0,0,1-1.2891,3.7686,4.0366,4.0366,0,0,1-3.2719,1.5859,8.2511,8.2511,0,0,1-1.9834-.1982h-1.5865a3.9416,3.9416,0,0,0-2.8754.8925,4.6161,4.6161,0,0,0-.8926,3.2725q0,19.2378,2.38,57.9063.3946,7.14,1.5864,21.0214a172.6577,172.6577,0,0,1,.9917,18.6407v7.5361a27.5333,27.5333,0,0,1,3.9663-.1982q8.329,0,8.3286,6.94v1.19l-4.9575,3.3711c-.1333,0-.564.0342-1.2891.0986q-1.092.1026-4.0654.1-6.3486.4-8.13.3964Q525.8046,153.4117,525.8048,147.4625Z"/><path d="M628.5294,152.9156a9.147,9.147,0,0,1-1.7846-4.4619l-1.19-3.7675v-.9913q0-6.5448-13.5845-44.62t-21.3183-56.32v99.75l.7934,1.3887c.13.2656.3965.7275.7935,1.3877a3.8359,3.8359,0,0,1,.5947,1.9834,6.0946,6.0946,0,0,1-6.1474,6.1474q-6.3495,0-6.3462-12.0966l-.1983-33.9112q-.2-15.268-.1982-34.1094,0-6.3441.5947-18.4433.5955-12.4936.5952-18.4424a17.3452,17.3452,0,0,1,7.1392-14.6748v1.1895a6.4975,6.4975,0,0,1,1.5864-.3965q4.5594,0,11.502,15.8642a271.7968,271.7968,0,0,1,10.0146,26.7725q4.4619,14.0831,11.7993,40.0586l1.9834,7.1387q4.5594,16.0634,6.9409,23.0048,3.9647-42.6357,3.9659-100.7421V32.0455a15.6269,15.6269,0,0,1-.1983-2.5781q0-5.9487,4.76-5.9492A4.8543,4.8543,0,0,1,644.89,25.7a9.6591,9.6591,0,0,1,1.4873,5.5528v14.873q-.4,30.542-2.38,66.2354-1.985,35.6967-4.7593,40.2578a40.2587,40.2587,0,0,1-7.1392,1.5859A4.6289,4.6289,0,0,1,628.5294,152.9156Z"/><path d="M688.6154,153.1139a24.3035,24.3035,0,0,1-7.7344-5.4531,26.827,26.827,0,0,1-4.7593-8.1309,56.7617,56.7617,0,0,1-3.1728-10.3125,67.4863,67.4863,0,0,1-1.587-10.9062q-.5946-7.14-.7929-12.2959V86.5807q0-11.499.3965-18.8389a110.4557,110.4557,0,0,1,2.5781-18.84,44.6405,44.6405,0,0,1,6.1474-15.666,21.5583,21.5583,0,0,1,11.7007-9.3213A22.958,22.958,0,0,1,699.72,22.527q8.5247,0,8.5274,4.958a4.7,4.7,0,0,1-1.8838,3.8662,6.9882,6.9882,0,0,1-4.4619,1.4873A11.0248,11.0248,0,0,1,699.72,32.64a8.4671,8.4671,0,0,0-1.9829-.1983q-3.3743,0-5.9492,3.57a31.6974,31.6974,0,0,0-4.3628,9.9151A159.4013,159.4013,0,0,0,683.0626,72.7q-.7955,13.4868-.7934,20.0293,0,6.7442.5952,18.4424a83.1238,83.1238,0,0,0,3.3711,19.0381,28.5535,28.5535,0,0,0,3.2719,7.6348,16.9588,16.9588,0,0,0,4.8589,4.8584,12.6028,12.6028,0,0,0,6.94,2.1816q9.5193,0,9.519-31.7295v-9.1221a12.551,12.551,0,0,0-4.561-.5957h-3.9663q-6.9441,0-6.941-4.5605a5.1066,5.1066,0,0,1,1.8843-4.2637A7.6,7.6,0,0,1,702.1,93.1256v.1982h2.7764q17.8476,0,17.8481,6.1475a49.6669,49.6669,0,0,1-.9917,7.1387,32.5426,32.5426,0,0,0-1.19,7.14q0,3.375.5947,10.5108l.397,10.51q0,9.52-6.6436,14.9727a24.6374,24.6374,0,0,1-16.1621,5.4541A24.0529,24.0529,0,0,1,688.6154,153.1139Z"/></g><path class="cls-2" d="M17.1637,147.1813a22.2648,22.2648,0,0,1-.7935-6.7422q0-8.5239.7935-21.02.99-11.8989.9912-21.22,0-10.5087.5952-31.5312l.3965-31.333a35.81,35.81,0,0,0-.5947-5.3545l-.5952-4.958v-.9912q0-4.56,1.3881-6.7422,1.3851-2.18,5.1563-2.1817a26.2239,26.2239,0,0,1,11.3037,2.9747,20.5082,20.5082,0,0,1,8.9238,7.5361q5.7495,9.5186,5.751,23.7969a76.3687,76.3687,0,0,1-1.7847,17.9472,39.1379,39.1379,0,0,1-6.1474,13.3858,26.1269,26.1269,0,0,1,7.2383,13.1875A90.182,90.182,0,0,1,51.67,114.0641q0,12.0981-4.1646,21.0205-4.7592,10.1133-13.8818,13.8818a32.8852,32.8852,0,0,1-11.105,1.9834Q18.1537,150.95,17.1637,147.1813ZM37.59,133.2994a27.5093,27.5093,0,0,0,3.57-14.0791,96.2,96.2,0,0,0-.9917-14.6758,40.2941,40.2941,0,0,0-2.082-8.2294,24.1011,24.1011,0,0,0-3.4707-6.0489,9.2567,9.2567,0,0,0-5.5528-3.5693q-.7947,11.3042-.7929,29.9453,0,1.1895-.397,7.5352l-.3965,6.7431a.7958.7958,0,0,0,.1983.5948v9.32A14.8457,14.8457,0,0,0,37.59,133.2994Zm1.5864-82.2978q0-25.5836-8.13-26.7725-2.1848,4.5645-2.1816,21.418v29.35Q39.1728,74.8019,39.1759,51.0016Z"/><path class="cls-2" d="M65.9454,142.819q0-4.7594,6.148-4.76h2.1811l1.9834.1982a2.327,2.327,0,0,0,2.1812-.9912,7.5164,7.5164,0,0,0,.5952-3.5693q0-3.3706-.397-10.5107-.5948-4.7593-1.3882-17.0547-1.7848-30.3414-1.7846-45.81,0-5.55.1982-10.1143l.1983-10.1132a83.003,83.003,0,0,0-.5948-10.9073,21.6432,21.6432,0,0,1-4.561.793q-4.76,0-4.76-4.76,0-2.3789,2.9746-4.164a21.9382,21.9382,0,0,1,7.5362-2.5782,72.8029,72.8029,0,0,1,14.08-1.5869,5.55,5.55,0,0,1,4.0654,1.6866,5.3272,5.3272,0,0,1,1.6855,3.8662,5.7892,5.7892,0,0,1-1.289,3.7685,4.0368,4.0368,0,0,1-3.272,1.586A8.2511,8.2511,0,0,1,89.7428,27.6H88.1564a3.9417,3.9417,0,0,0-2.8755.8926,4.6163,4.6163,0,0,0-.8926,3.2725q0,19.2377,2.38,57.9062.3948,7.14,1.5864,21.0215a172.6289,172.6289,0,0,1,.9917,18.6406V136.87a27.5482,27.5482,0,0,1,3.9663-.1982q8.3292,0,8.3286,6.94v1.1905l-4.9575,3.3711c-.1333,0-.5639.0341-1.289.0986q-1.0922.1025-4.0655.1-6.3486.4-8.13.3965Q65.9452,148.7682,65.9454,142.819Z"/><path class="cls-2" d="M130.9913,149.7594a12.5291,12.5291,0,0,1-6.7426,1.9834,5.0716,5.0716,0,0,1-4.0655-2.082,6.9613,6.9613,0,0,1-1.6855-4.462q0-16.6581,1.3882-44.4218,1.1893-29.5475,1.19-44.2237V55.1656q-1.19-12.4936-1.19-18.6416,0-18.8379,6.9409-18.8388a5.0831,5.0831,0,0,1,4.9575,4.958,73.6838,73.6838,0,0,1-.5947,7.5351,68.6436,68.6436,0,0,0-.5952,7.5362q0,13.2876.1982,23.9951.1956,10.5147.1987,23.7978A27.3829,27.3829,0,0,0,130,93.8365v2.3789l-.3965,15.667q-.4,6.9433-.3969,15.8653,0,13.683,6.5444,13.6826a12.5368,12.5368,0,0,0,1.2891-.0986,23.9228,23.9228,0,0,1,2.479-.1,43.3545,43.3545,0,0,1,4.561-.1982q10.7088,0,10.7085,5.9492a4.1448,4.1448,0,0,1-1.7847,3.3711,9.3081,9.3081,0,0,1-4.3628,1.7852A56.4246,56.4246,0,0,0,130.9913,149.7594Z"/><path class="cls-2" d="M184.1364,149.7594a12.5292,12.5292,0,0,1-6.7427,1.9834,5.0718,5.0718,0,0,1-4.0655-2.082,6.9613,6.9613,0,0,1-1.6855-4.462q0-16.6581,1.3882-44.4218,1.19-29.5475,1.19-44.2237V55.1656q-1.19-12.4936-1.19-18.6416,0-18.8379,6.9409-18.8388a5.0831,5.0831,0,0,1,4.9575,4.958,73.6838,73.6838,0,0,1-.5947,7.5351,68.6436,68.6436,0,0,0-.5952,7.5362q0,13.2876.1982,23.9951.1956,10.5147.1988,23.7978a27.3829,27.3829,0,0,0-.9917,8.3291v2.3789l-.3965,15.667q-.4,6.9433-.397,15.8653,0,13.683,6.5444,13.6826a12.5368,12.5368,0,0,0,1.2891-.0986,23.9228,23.9228,0,0,1,2.479-.1,43.3545,43.3545,0,0,1,4.561-.1982q10.7088,0,10.7085,5.9492a4.145,4.145,0,0,1-1.7846,3.3711,9.3085,9.3085,0,0,1-4.3628,1.7852A56.4254,56.4254,0,0,0,184.1364,149.7594Z"/><path class="cls-2" d="M228.8531,149.7594a6.1915,6.1915,0,0,1-2.2807-4.3623V136.275a37.9684,37.9684,0,0,1-.1983-4.165q0-4.1646-.5952-12.6914l-.3965-12.6924q0-9.7134.5953-28.9531.7894-17.253.7929-28.9532,0-2.7757-.5947-8.3291-.5955-5.7495-.5952-8.3291,0-14.0786,8.3291-14.08A53.991,53.991,0,0,1,249.0807,20.66q8.6265,2.58,8.6265,6.1474a5.12,5.12,0,0,1-1.6856,3.669,12.4163,12.4163,0,0,1-4.0654,2.6767,80.3056,80.3056,0,0,0-15.0718-3.9658q.1956,2.9751.1982,8.5274,0,7.9335-.1982,14.2783-.5948,9.5186-.5947,14.2783l.5947,3.1729,3.1733-.1983a33.3541,33.3541,0,0,1,3.9659-.1982q9.5193,0,9.519,5.5527a4.5961,4.5961,0,0,1-1.7847,3.669,6.8884,6.8884,0,0,1-4.561,1.4873,29.714,29.714,0,0,1-5.5527-.3975h-4.958q.3954,5.1593.3964,15.0723,0,9.9185-.1982,17.8476-.5948,12.0983-.5947,18.0459,0,11.1094.3965,11.1055l6.5444-.1983q3.37-.1947,8.1309-.1982,7.5336,0,7.5356,4.76a4.706,4.706,0,0,1-2.479,4.2636,11.5652,11.5652,0,0,1-6.0483,1.4873H233.5133A6.9766,6.9766,0,0,1,228.8531,149.7594Z"/><path class="cls-2" d="M281.9,124.1774l.397-31.333q.1948-13.878.1982-31.1348,0-6.3443-1.19-19.6328-.9946-14.4727-.9917-17.6494a6.01,6.01,0,0,1,2.1816-4.5606,6.9458,6.9458,0,0,1,4.7593-1.9834,30.7694,30.7694,0,0,1,13.3862,3.0733,36.0229,36.0229,0,0,1,11.4029,8.6269,62.5806,62.5806,0,0,1,15.6665,41.05q0,2.58-.1987,4.76l-.1983,5.3545V91.6549a197.1519,197.1519,0,0,1-.793,20.0293,62.7693,62.7693,0,0,1-4.561,17.6494,45.6526,45.6526,0,0,1-11.5024,14.8731,54.5719,54.5719,0,0,1-9.1221,5.9492H287.0563Q281.8971,150.1559,281.9,124.1774Zm21.2193,13.7832a18.7423,18.7423,0,0,0,5.7509-5.6524,40.0661,40.0661,0,0,0,3.669-8.0312,60.5747,60.5747,0,0,0,2.479-9.42,118.8283,118.8283,0,0,0,2.1811-18.2441q.1956-2.38.1983-6.9414,0-59.8887-23.2022-62.4678a135.4911,135.4911,0,0,0-1.3881,20.6241q0,12.4936,1.5864,43.6289,1.3849,27.5669,1.3882,43.8261v4.76A13.7137,13.7137,0,0,0,303.1193,137.9606Z"/><path class="cls-2" d="M350.5138,124.1774l.397-31.333q.1947-13.878.1982-31.1348,0-6.3443-1.19-19.6328-.9947-14.4727-.9917-17.6494a6.01,6.01,0,0,1,2.1816-4.5606,6.9456,6.9456,0,0,1,4.7593-1.9834,30.7694,30.7694,0,0,1,13.3862,3.0733,36.0214,36.0214,0,0,1,11.4028,8.6269,62.58,62.58,0,0,1,15.6666,41.05q0,2.58-.1988,4.76l-.1982,5.3545V91.6549a197.1519,197.1519,0,0,1-.793,20.0293,62.7693,62.7693,0,0,1-4.561,17.6494A45.6516,45.6516,0,0,1,379.07,144.2067a54.5707,54.5707,0,0,1-9.122,5.9492H355.67Q350.5109,150.1559,350.5138,124.1774Zm21.2192,13.7832a18.7415,18.7415,0,0,0,5.751-5.6524,40.0717,40.0717,0,0,0,3.669-8.0312,60.5858,60.5858,0,0,0,2.479-9.42,118.8283,118.8283,0,0,0,2.1811-18.2441q.1956-2.38.1983-6.9414,0-59.8887-23.2022-62.4678a135.4772,135.4772,0,0,0-1.3882,20.6241q0,12.4936,1.5864,43.6289,1.3851,27.5669,1.3882,43.8261v4.76A13.7135,13.7135,0,0,0,371.733,137.9606Z"/><path class="cls-2" d="M422.4005,149.7594a6.1908,6.1908,0,0,1-2.2807-4.3623V136.275a37.9684,37.9684,0,0,1-.1983-4.165q0-4.1646-.5952-12.6914l-.3965-12.6924q0-9.7134.5952-28.9531.79-17.253.793-28.9532,0-2.7757-.5947-8.3291-.5955-5.7495-.5952-8.3291,0-14.0786,8.3291-14.08A53.9916,53.9916,0,0,1,442.6281,20.66q8.6264,2.58,8.6264,6.1474a5.12,5.12,0,0,1-1.6855,3.669,12.4157,12.4157,0,0,1-4.0655,2.6767,80.3048,80.3048,0,0,0-15.0717-3.9658q.1954,2.9751.1982,8.5274,0,7.9335-.1982,14.2783-.5948,9.5186-.5948,14.2783l.5948,3.1729,3.1733-.1983a33.3523,33.3523,0,0,1,3.9658-.1982q9.5193,0,9.5191,5.5527a4.5964,4.5964,0,0,1-1.7847,3.669,6.8884,6.8884,0,0,1-4.561,1.4873,29.716,29.716,0,0,1-5.5528-.3975h-4.958q.3956,5.1593.3965,15.0723,0,9.9185-.1982,17.8476-.5948,12.0983-.5948,18.0459,0,11.1094.3965,11.1055l6.5445-.1983q3.37-.1947,8.1308-.1982,7.5338,0,7.5357,4.76a4.7062,4.7062,0,0,1-2.479,4.2636,11.5654,11.5654,0,0,1-6.0484,1.4873H427.0607A6.9764,6.9764,0,0,1,422.4005,149.7594Z"/><path class="cls-2" d="M487.1481,149.7594a12.5292,12.5292,0,0,1-6.7427,1.9834,5.0714,5.0714,0,0,1-4.0654-2.082,6.9614,6.9614,0,0,1-1.6856-4.462q0-16.6581,1.3882-44.4218,1.19-29.5475,1.19-44.2237V55.1656q-1.19-12.4936-1.19-18.6416,0-18.8379,6.9409-18.8388a5.0831,5.0831,0,0,1,4.9575,4.958,73.6838,73.6838,0,0,1-.5947,7.5351,68.6436,68.6436,0,0,0-.5952,7.5362q0,13.2876.1982,23.9951.1956,10.5147.1988,23.7978a27.3829,27.3829,0,0,0-.9917,8.3291v2.3789l-.3965,15.667q-.4,6.9433-.397,15.8653,0,13.683,6.5444,13.6826a12.5368,12.5368,0,0,0,1.2891-.0986,23.9241,23.9241,0,0,1,2.479-.1,43.3566,43.3566,0,0,1,4.5611-.1982q10.7087,0,10.7084,5.9492a4.145,4.145,0,0,1-1.7846,3.3711,9.3085,9.3085,0,0,1-4.3628,1.7852A56.4254,56.4254,0,0,0,487.1481,149.7594Z"/><path class="cls-2" d="M520.0651,142.819q0-4.7594,6.1479-4.76h2.1812l1.9834.1982a2.3269,2.3269,0,0,0,2.1811-.9912,7.5164,7.5164,0,0,0,.5952-3.5693q0-3.3706-.3969-10.5107-.5947-4.7593-1.3882-17.0547-1.785-30.3414-1.7847-45.81,0-5.55.1982-10.1143l.1983-10.1132a83.0226,83.0226,0,0,0-.5947-10.9073,21.6428,21.6428,0,0,1-4.5611.793q-4.76,0-4.76-4.76,0-2.3789,2.9746-4.164a21.9376,21.9376,0,0,1,7.5361-2.5782,72.8038,72.8038,0,0,1,14.08-1.5869,5.55,5.55,0,0,1,4.0654,1.6866,5.3273,5.3273,0,0,1,1.6856,3.8662,5.7893,5.7893,0,0,1-1.2891,3.7685,4.0366,4.0366,0,0,1-3.272,1.586,8.2517,8.2517,0,0,1-1.9834-.1983H542.276a3.9418,3.9418,0,0,0-2.8755.8926,4.6163,4.6163,0,0,0-.8926,3.2725q0,19.2377,2.38,57.9062.3948,7.14,1.5864,21.0215a172.6289,172.6289,0,0,1,.9917,18.6406V136.87a27.5489,27.5489,0,0,1,3.9664-.1982q8.329,0,8.3286,6.94v1.1905l-4.9576,3.3711c-.1333,0-.5639.0341-1.289.0986q-1.092.1025-4.0654.1-6.3487.4-8.13.3965Q520.0648,148.7682,520.0651,142.819Z"/><path class="cls-2" d="M622.79,148.2721a9.1469,9.1469,0,0,1-1.7847-4.4619l-1.19-3.7676v-.9912q0-6.545-13.5845-44.62t-21.3184-56.32v99.75l.7935,1.3886c.13.2657.3965.7276.7934,1.3877a3.8363,3.8363,0,0,1,.5948,1.9834,6.095,6.095,0,0,1-6.1475,6.1475q-6.3494,0-6.3462-12.0967L574.402,102.76q-.2-15.2681-.1983-34.1094,0-6.3443.5948-18.4434.5953-12.4936.5952-18.4423A17.3457,17.3457,0,0,1,582.5328,17.09v1.19a6.4979,6.4979,0,0,1,1.5865-.3965q4.5593,0,11.5019,15.8643A271.8045,271.8045,0,0,1,605.6359,60.52q4.4619,14.0831,11.7993,40.0586l1.9834,7.1387q4.5593,16.0635,6.9409,23.0049,3.9647-42.6357,3.9658-100.7422V27.402a15.63,15.63,0,0,1-.1982-2.5782q0-5.9487,4.76-5.9492a4.854,4.854,0,0,1,4.2637,2.1817,9.6585,9.6585,0,0,1,1.4873,5.5527V41.482q-.4,30.5421-2.38,66.2354-1.9848,35.6968-4.7592,40.2578a40.257,40.257,0,0,1-7.1392,1.586A4.6287,4.6287,0,0,1,622.79,148.2721Z"/><path class="cls-2" d="M682.8756,148.47a24.3035,24.3035,0,0,1-7.7344-5.4531,26.8258,26.8258,0,0,1-4.7592-8.1309,56.76,56.76,0,0,1-3.1729-10.3125,67.4847,67.4847,0,0,1-1.5869-10.9062q-.5948-7.14-.793-12.2959V81.9371q0-11.499.3965-18.8388a110.4754,110.4754,0,0,1,2.5781-18.84,44.6414,44.6414,0,0,1,6.1475-15.666,21.558,21.558,0,0,1,11.7007-9.3213,22.96,22.96,0,0,1,8.3286-1.3877q8.5246,0,8.5273,4.958a4.7,4.7,0,0,1-1.8838,3.8662,6.9882,6.9882,0,0,1-4.4619,1.4873,11.0163,11.0163,0,0,1-2.1816-.1982,8.4688,8.4688,0,0,0-1.9829-.1982q-3.3742,0-5.9492,3.57a31.6921,31.6921,0,0,0-4.3628,9.915,159.3924,159.3924,0,0,0-4.3628,26.7725q-.7954,13.4868-.7935,20.0293,0,6.7441.5952,18.4423a83.1346,83.1346,0,0,0,3.3711,19.0381,28.5538,28.5538,0,0,0,3.272,7.6348,16.9563,16.9563,0,0,0,4.8589,4.8584,12.6017,12.6017,0,0,0,6.94,2.1816q9.5193,0,9.5191-31.7295v-9.122a12.5494,12.5494,0,0,0-4.5611-.5957h-3.9663q-6.9441,0-6.9409-4.5606a5.1064,5.1064,0,0,1,1.8843-4.2636,7.6,7.6,0,0,1,4.8584-1.4874V88.68h2.7763q17.8478,0,17.8482,6.1475a49.6812,49.6812,0,0,1-.9917,7.1386,32.54,32.54,0,0,0-1.19,7.14q0,3.375.5948,10.5107l.3969,10.51q0,9.52-6.6435,14.9726a24.6376,24.6376,0,0,1-16.1621,5.4541A24.0537,24.0537,0,0,1,682.8756,148.47Z"/></svg>
