<svg xmlns="http://www.w3.org/2000/svg" xmlns:xlink="http://www.w3.org/1999/xlink" width="588" height="1080" viewBox="0 0 588 1080"><defs><style>.cls-1{fill:gray;}.cls-2{fill:url(#radial-gradient);}.cls-3{fill:#999;}.cls-4{fill:url(#radial-gradient-2);}.cls-5{fill:#4d4d4d;}.cls-6{fill:url(#radial-gradient-3);}.cls-7{fill:url(#radial-gradient-4);}.cls-8{fill:url(#radial-gradient-5);}.cls-9{fill:url(#radial-gradient-6);}.cls-10{font-size:27.7396px;font-family:MyriadPro-Regular, Myriad Pro;}.cls-10,.cls-15,.cls-16,.cls-22,.cls-26{fill:none;}.cls-11{letter-spacing:-0.014em;}.cls-12{fill:#0071bc;stroke:#a67c52;}.cls-12,.cls-15,.cls-16,.cls-22,.cls-26{stroke-miterlimit:10;}.cls-13{fill:#333;}.cls-14{fill:#fff;}.cls-15,.cls-16,.cls-26{stroke:#ffcd9f;}.cls-15{stroke-width:13px;}.cls-16,.cls-26{stroke-linecap:round;}.cls-16{stroke-width:12px;}.cls-17{fill:#736357;}.cls-18{fill:#fbe3a9;}.cls-19{fill:#ffcd9f;}.cls-20{fill:#c69c6d;}.cls-21{fill:#a54033;}.cls-22{stroke:#754c24;}.cls-23{fill:#754c24;}.cls-24{fill:#ffb8c1;}.cls-25{fill:#c7b299;}.cls-26{stroke-width:11px;}</style><radialGradient id="radial-gradient" cx="290.5" cy="524.5" r="376.4845" gradientTransform="translate(0 -314.1382) scale(1 1.5989)" gradientUnits="userSpaceOnUse"><stop offset="0" stop-color="#fff"/><stop offset="0.2473" stop-color="#f8f8f8"/><stop offset="0.4249" stop-color="#d8d8d8"/><stop offset="0.813" stop-color="#858585"/><stop offset="0.9987" stop-color="#5c5c5c"/></radialGradient><radialGradient id="radial-gradient-2" r="368.7645" gradientTransform="translate(0 -326.7223) scale(1 1.6229)" xlink:href="#radial-gradient"/><radialGradient id="radial-gradient-3" cx="291" cy="909" r="46" gradientTransform="matrix(1, 0, 0, 1, 0, 0)" xlink:href="#radial-gradient"/><radialGradient id="radial-gradient-4" cx="217" cy="117.2349" r="8.1845" gradientTransform="translate(0 -5.3471) scale(1 1.0456)" xlink:href="#radial-gradient"/><radialGradient id="radial-gradient-5" cx="291" cy="92.1402" r="8.1845" gradientTransform="translate(0 -4.2025) scale(1 1.0456)" xlink:href="#radial-gradient"/><radialGradient id="radial-gradient-6" cx="291" cy="909" r="35" gradientTransform="matrix(1, 0, 0, 1, 0, 0)" xlink:href="#radial-gradient"/></defs><title>pigeiphone1</title><g id="iphonebund"><rect class="cls-1" x="33.8702" y="58" width="513.2595" height="933" rx="41.256"/><path class="cls-2" d="M505.8738,59A40.3017,40.3017,0,0,1,546.13,99.256V949.744A40.3017,40.3017,0,0,1,505.8738,990H75.1262A40.3017,40.3017,0,0,1,34.87,949.744V99.256A40.3017,40.3017,0,0,1,75.1262,59H505.8738m0-1H75.1262A41.3773,41.3773,0,0,0,33.87,99.256V949.744A41.3773,41.3773,0,0,0,75.1262,991H505.8738A41.3773,41.3773,0,0,0,547.13,949.744V99.256A41.3773,41.3773,0,0,0,505.8738,58Z"/><rect class="cls-3" x="42" y="66" width="497" height="917" rx="35.2253"/><path class="cls-4" d="M503.7747,67A34.2641,34.2641,0,0,1,538,101.2253V947.7747A34.2641,34.2641,0,0,1,503.7747,982H77.2253A34.2641,34.2641,0,0,1,43,947.7747V101.2253A34.2641,34.2641,0,0,1,77.2253,67H503.7747m0-1H77.2253A35.3288,35.3288,0,0,0,42,101.2253V947.7747A35.3287,35.3287,0,0,0,77.2253,983H503.7747A35.3287,35.3287,0,0,0,539,947.7747V101.2253A35.3288,35.3288,0,0,0,503.7747,66Z"/><circle class="cls-5" cx="291" cy="909" r="46"/><path class="cls-6" d="M291,864a45,45,0,1,1-45,45,45.051,45.051,0,0,1,45-45m0-1a46,46,0,1,0,46,46,46,46,0,0,0-46-46Z"/><rect class="cls-5" x="245" y="108.87" width="92" height="16.7298" rx="8"/><rect class="cls-5" x="209" y="108.87" width="16" height="16.7298" rx="8"/><path class="cls-7" d="M217,109.87a7.0079,7.0079,0,0,1,7,7v.73a7,7,0,1,1-14,0v-.73a7.0079,7.0079,0,0,1,7-7m0-1a8.0236,8.0236,0,0,0-8,8v.73a8,8,0,1,0,16,0v-.73a8.0236,8.0236,0,0,0-8-8Z"/><rect class="cls-5" x="283" y="83.7754" width="16" height="16.7298" rx="8"/><path class="cls-8" d="M291,84.7754a7.0079,7.0079,0,0,1,7,7v.73a7,7,0,0,1-14,0v-.73a7.0079,7.0079,0,0,1,7-7m0-1a8.0236,8.0236,0,0,0-8,8v.73a8,8,0,0,0,16,0v-.73a8.0236,8.0236,0,0,0-8-8Z"/><circle class="cls-3" cx="291" cy="909" r="35"/><path class="cls-9" d="M291,875a34,34,0,1,1-34,34,34.0385,34.0385,0,0,1,34-34m0-1a35,35,0,1,0,35,35,35,35,0,0,0-35-35Z"/><text class="cls-10" transform="translate(426.9326 191.3604)"><tspan class="cls-11">L</tspan><tspan x="12.7051" y="0">o</tspan></text></g><g id="snap_personer" data-name="snap personer"><rect class="cls-12" x="79.5" y="154.5" width="422" height="695"/></g><g id="Layer_8" data-name="Layer 8"><rect class="cls-5" x="422.272" y="408.112" width="41.7324" height="81.1462" rx="6.9699"/><ellipse class="cls-13" cx="431.3443" cy="418.7891" rx="3.6289" ry="4.2709"/><ellipse cx="431.3443" cy="418.7891" rx="1.8145" ry="2.1354"/><path class="cls-14" d="M449.4888,444.4142c0,2.1355-2.0309,6.4063-4.5361,6.4063s-4.5361-4.0475-4.5361-6.4063c0-2.1354,2.268-2.1354,4.5361-2.1354C447.4579,442.2788,449.4888,441.3943,449.4888,444.4142Z"/><polyline class="cls-14" points="444.045 442.279 444.045 440.143 445.86 440.143"/><line class="cls-15" x1="302.3474" y1="627.976" x2="365.9934" y2="733.087"/><line class="cls-16" x1="239.1134" y1="658.5061" x2="253.0242" y2="748.9262"/><path class="cls-17" d="M318.4774,406.9723c16.519-9.1336,30.064-22.7871,38.0757-39.9632.6447-1.3822-.6313-3.6465,0-5-8.0116,17.176-21.5566,30.83-38.0757,39.9632-.7335.4055.6762,4.6261,0,5Z"/><path class="cls-18" d="M199.7,486.94,164.9825,298.215c0-64.71,45.0752-121.9495,117.0919-121.9495h0c72.0167,0,109.1083,52.4576,109.1083,117.1672L361.992,489.2582"/><path class="cls-19" d="M316.67,434.5118h-74.513q0-15.2421,0-30.4843,0-3.8871,0-7.7744H316.67v38.2587Z"/><path class="cls-20" d="M242.5294,408.3834c12.7056.5278,25.2738,3.6944,37.946,3.5171,5.9336-.083,11.706,1.2353,17.6421.3945,6.4-.9065,12.4693-3.2921,18.4439-5.6553.6015-.2379-.5368-4.7877,0-5-5.71,2.2587-11.4893,4.5282-17.5809,5.5144-6.2479,1.0115-12.2554-.3343-18.5051-.2536-12.6752.1637-25.2374-2.9892-37.946-3.5171.0324.0013-.1071,4.9955,0,5Z"/><path class="cls-19" d="M372.5546,302.7821c0,60.0875-33.019,107.818-87.8189,107.818s-87.819-47.7305-87.819-107.818,33.019-109.7784,87.819-109.7784S372.5546,242.6945,372.5546,302.7821Z"/><path class="cls-21" d="M313.3042,359.4242c0,5.9427-14.5044,22.4818-33.2655,22.4818s-33.97-18.8575-33.97-24.8,15.2088,3.28,33.97,3.28S313.3042,353.4815,313.3042,359.4242Z"/><path class="cls-22" d="M266.2124,348.43c31.9342,2.3912,5.3224-16.7382,7.9836-40.65"/><ellipse class="cls-13" cx="243.4874" cy="300.6063" rx="6.653" ry="7.1735"/><ellipse class="cls-14" cx="244.8179" cy="302.9975" rx="1.3306" ry="1.1956"/><ellipse class="cls-13" cx="310.0169" cy="300.6063" rx="6.653" ry="7.1735"/><ellipse class="cls-14" cx="311.3475" cy="302.9975" rx="1.3306" ry="1.1956"/><path class="cls-23" d="M256.9541,289.4546c.3534-1.2881-8.9977-11.9907-25.2571-12.4421"/><path class="cls-23" d="M299.7078,292.1822c-.3956-1.2726,8.644-12.2031,24.9408-13.1252"/><path class="cls-18" d="M319.331,185.83l-72.8572,8.6082c-14.5715,0-52.9871,33.2851-52.9871,45.91l-23.1818,60.2575"/><path class="cls-18" d="M242.157,185.83,337.96,196.8351c15.7009,0,39.9174,71.9223,39.9174,84.6419l5.3224,57.388"/><path class="cls-18" d="M271.43,214.5242c0,22.4686,8.3317,40.65,18.6282,40.65"/><path class="cls-18" d="M270.2326,215.3774c-7.0807,21.549-4.82,41.1061,5.0555,43.7258"/><path class="cls-24" d="M315.6227,677.0538H241.4318c-15.3018,0-44.0508-8.6711-44.0508-21.6779L213.61,451.06c0-13.0068,12.52-23.6486,27.8215-23.6486h74.1909c15.3019,0,27.8216,10.6418,27.8216,23.6486l18.5477,206.287C361.992,670.3534,330.9246,677.0538,315.6227,677.0538Z"/><path class="cls-24" d="M163.31,535.772h0c7.747,4.584,18.5291,2.3747,23.96-4.91L238.62,461.9932a14.5,14.5,0,0,0-4.21-21.5787h0c-7.7469-4.584-18.529-2.3747-23.96,4.91L159.1,514.1934A14.5,14.5,0,0,0,163.31,535.772Z"/><path class="cls-24" d="M387.6875,553.7066h0c-8.5383,2.8506-18.6138-1.5789-22.39-9.8432L329.5959,465.728a14.5,14.5,0,0,1,8.6586-20.2088h0c8.5383-2.8505,18.6138,1.5789,22.39,9.8432l35.7016,78.1354A14.5,14.5,0,0,1,387.6875,553.7066Z"/><ellipse class="cls-19" cx="210.2226" cy="588.9199" rx="15.589" ry="24.4917" transform="translate(-274.6393 194.0413) rotate(-31.1954)"/><ellipse class="cls-19" cx="433.0969" cy="484.589" rx="24.3433" ry="15.684" transform="translate(-194.7716 652.4594) rotate(-63.1803)"/><path class="cls-24" d="M372.21,551.5808h0c6.7876,5.0626,16.8982,4.2506,22.468-1.8043l38.82-42.2015c5.57-6.055,4.5735-15.1512-2.214-20.2138h0c-6.7875-5.0626-16.8981-4.2506-22.468,1.8044l-38.82,42.2014C364.4261,537.4219,365.4224,546.5181,372.21,551.5808Z"/><path class="cls-24" d="M206.9887,593.4817h0c-7.9546,2.9026-17.4073-.7758-21.006-8.1742l-25.0814-51.5644c-3.5987-7.3984-.0347-15.8264,7.92-18.729h0c7.9546-2.9025,17.4073.7758,21.006,8.1742l25.0814,51.5644C218.5073,582.1511,214.9433,590.5791,206.9887,593.4817Z"/><line class="cls-16" x1="308.8029" y1="755.4467" x2="366.6289" y2="730.3785"/><path class="cls-25" d="M268.8107,759.0591l25.2938,41.2273c3.1049,5.1328,12.02,5.5347,19.811.8932l1.2339-.7351c7.7912-4.6416,11.6254-12.6387,8.5206-17.7715l-27.38-40.85"/><line class="cls-26" x1="252.3174" y1="749.952" x2="235.5328" y2="799.0414"/><path class="cls-25" d="M208.569,828.55l49.6154,19.7762c6.1393,2.4867,14.0537-2.1256,17.5877-10.25l.56-1.2866c3.534-8.1239,1.4024-16.8053-4.7368-19.292l-51.1484-18.31"/></g></svg>
