<svg id="Layer_1" data-name="Layer 1" xmlns="http://www.w3.org/2000/svg" width="134" height="382" viewBox="0 0 134 382"><defs><style>.cls-1,.cls-15,.cls-5{fill:none;stroke-miterlimit:10;}.cls-1,.cls-15{stroke:#ffcd9f;}.cls-1{stroke-width:8px;}.cls-2{fill:#ffcd9f;}.cls-3{fill:#c69c6d;}.cls-4{fill:#c45533;}.cls-5{stroke:#a67c52;}.cls-6{fill:#333;}.cls-7{fill:#fff;}.cls-8{fill:#8c6239;}.cls-9{fill:#603813;}.cls-10{fill:#754c24;}.cls-11{fill:#a67c52;}.cls-12{fill:#8cc678;}.cls-13{fill:#f79370;}.cls-14{fill:#c7b299;}.cls-15{stroke-width:12px;}</style></defs><title>pige2</title><path class="cls-1" d="M44.5,145.5c-31.27,35.78-22,53-15.5,75.5"/><path class="cls-1" d="M80.87,143C112,177.91,105,199,102,225"/><path class="cls-2" d="M78,142H50V126H78v16Z"/><path class="cls-3" d="M50.14,132.53c4.12,1.38,9.59,1.35,14,1.48,5.18.16,9-.09,13.87-2.21.64-.28-.58-4.75,0-5-4.93,2.14-8.64,2.36-13.87,2.21-4.4-.13-9.79-.09-14-1.48.47.16-.54,4.82,0,5Z"/><path class="cls-2" d="M92,87c0,23.24-5.6,46-26.5,46S34,116.24,34,93,44.6,48.82,65.5,48.82,92,63.76,92,87Z"/><path class="cls-4" d="M74.38,114.43c0,2.29-5.46,6.47-12.19,6.47S50,116.72,50,114.43s5.46-1.85,12.18-1.85S74.38,112.13,74.38,114.43Z"/><path class="cls-5" d="M63.94,108c-10.45.93-1.75-6.47-2.62-15.72"/><ellipse class="cls-6" cx="51.32" cy="89.45" rx="2.18" ry="2.77"/><ellipse class="cls-7" cx="51.75" cy="90.38" rx="0.44" ry="0.46"/><ellipse class="cls-6" cx="73.07" cy="89.45" rx="2.18" ry="2.77"/><ellipse class="cls-7" cx="73.51" cy="90.38" rx="0.44" ry="0.46"/><path class="cls-8" d="M54,81.94c-.14-.49-4.64-1.85-9.1,1.58"/><path class="cls-8" d="M69.07,83c.12-.49,4.58-2,9.15,1.23"/><ellipse class="cls-9" cx="64.81" cy="37.65" rx="15.66" ry="16.65"/><path class="cls-9" d="M35.65,82.32c-2.38-18.24,7.55-34.43,22.21-36.2"/><path class="cls-9" d="M93.27,83.1C95.21,64.41,82.71,48,65.33,46.33"/><path class="cls-10" d="M57.11,45.49c1.94,13.65-6.29,26.28-18.41,28.24"/><path class="cls-9" d="M65.68,46c0,15.33,6.61,27.75,14.79,27.75"/><path class="cls-8" d="M65.68,46.9c0,10.74,7,19.43,15.66,19.43"/><path class="cls-8" d="M60,46c-7.43,11.45-8,24.7-1.3,29.63"/><path class="cls-9" d="M60,46c-5.35,11.29-2,24.52,7.44,29.58"/><path class="cls-9" d="M73.51,73.73C63.32,69.3,58.62,56.5,63,45.1"/><path class="cls-11" d="M67.42,21c8.7,0,15.66,16.65,12.18,14.8"/><path class="cls-11" d="M58.89,26.24c-8,3.69-8.11,21.91-5.62,18.74"/><path class="cls-11" d="M71.46,32.55c4.43,8-5.51,22.81-5.78,18.68"/><rect class="cls-12" x="33" y="137" width="61" height="90" rx="22.16" ry="22.16"/><path class="cls-13" d="M91.7,260H35.3c-1.26,0-6.3.27-6.3-1l4-52.2a2.31,2.31,0,0,1,2.3-2.3H91.7a2.31,2.31,0,0,1,2.3,2.3l6,52.2C100,260.27,93,260,91.7,260Z"/><path class="cls-14" d="M61.16,346.62l-23.4,2.14c-2.9.29-5.59-2.78-6-6.8l-.06-.64c-.39-4,1.66-7.55,4.56-7.83l23.85-1.3"/><path class="cls-14" d="M67,347.78l22.55.43c2.79.07,5.15-2.94,5.25-6.68v-.6c.09-3.74-2.12-6.86-4.92-6.93L67,334.38"/><rect class="cls-12" x="25.35" y="147.18" width="25.02" height="19.58" transform="translate(-82.35 49.16) rotate(-34.55)"/><rect class="cls-12" x="79" y="146" width="19" height="19" transform="translate(-89.9 141.88) rotate(-55.99)"/><ellipse class="cls-2" cx="31" cy="225" rx="6" ry="10" transform="translate(-42.09 9.96) rotate(-10.93)"/><ellipse class="cls-2" cx="100" cy="230" rx="10" ry="6" transform="translate(-150.79 228.26) rotate(-66.1)"/><line class="cls-15" x1="53" y1="260" x2="53" y2="332"/><line class="cls-15" x1="75" y1="260" x2="75" y2="334"/></svg>
