<svg xmlns="http://www.w3.org/2000/svg" xmlns:xlink="http://www.w3.org/1999/xlink" width="588" height="1080" viewBox="0 0 588 1080"><defs><style>.cls-1{fill:gray;}.cls-2{fill:url(#radial-gradient);}.cls-3{fill:#999;}.cls-4{fill:url(#radial-gradient-2);}.cls-5{fill:#4d4d4d;}.cls-6{fill:url(#radial-gradient-3);}.cls-7{fill:url(#radial-gradient-4);}.cls-8{fill:url(#radial-gradient-5);}.cls-9{fill:url(#radial-gradient-6);}.cls-10{font-size:27.7396px;font-family:MyriadPro-Regular, Myriad Pro;}.cls-10,.cls-17{fill:none;}.cls-11{letter-spacing:-0.014em;}.cls-12{fill:#0071bc;stroke:#a67c52;}.cls-12,.cls-17{stroke-miterlimit:10;}.cls-13{fill:#736357;}.cls-14{fill:#e9b763;}.cls-15{fill:#a67c52;}.cls-16{fill:#a54033;}.cls-17{stroke:#754c24;}.cls-18{fill:#333;}.cls-19{fill:#fff;}.cls-20{fill:#754c24;}.cls-21{fill:#ffe1c1;}.cls-22{fill:#4a67ad;}.cls-23{fill:#c7b299;}.cls-24{fill:#d1908b;}</style><radialGradient id="radial-gradient" cx="290.5" cy="524.5" r="376.4845" gradientTransform="translate(0 -314.1382) scale(1 1.5989)" gradientUnits="userSpaceOnUse"><stop offset="0" stop-color="#fff"/><stop offset="0.2473" stop-color="#f8f8f8"/><stop offset="0.4249" stop-color="#d8d8d8"/><stop offset="0.813" stop-color="#858585"/><stop offset="0.9987" stop-color="#5c5c5c"/></radialGradient><radialGradient id="radial-gradient-2" r="368.7645" gradientTransform="translate(0 -326.7223) scale(1 1.6229)" xlink:href="#radial-gradient"/><radialGradient id="radial-gradient-3" cx="291" cy="909" r="46" gradientTransform="matrix(1, 0, 0, 1, 0, 0)" xlink:href="#radial-gradient"/><radialGradient id="radial-gradient-4" cx="217" cy="117.2349" r="8.1845" gradientTransform="translate(0 -5.3471) scale(1 1.0456)" xlink:href="#radial-gradient"/><radialGradient id="radial-gradient-5" cx="291" cy="92.1402" r="8.1845" gradientTransform="translate(0 -4.2025) scale(1 1.0456)" xlink:href="#radial-gradient"/><radialGradient id="radial-gradient-6" cx="291" cy="909" r="35" gradientTransform="matrix(1, 0, 0, 1, 0, 0)" xlink:href="#radial-gradient"/></defs><title>pigeiphone2</title><g id="iphonebund"><rect class="cls-1" x="33.8702" y="58" width="513.2595" height="933" rx="41.256"/><path class="cls-2" d="M505.8738,59A40.3017,40.3017,0,0,1,546.13,99.256V949.744A40.3017,40.3017,0,0,1,505.8738,990H75.1262A40.3017,40.3017,0,0,1,34.87,949.744V99.256A40.3017,40.3017,0,0,1,75.1262,59H505.8738m0-1H75.1262A41.3773,41.3773,0,0,0,33.87,99.256V949.744A41.3773,41.3773,0,0,0,75.1262,991H505.8738A41.3773,41.3773,0,0,0,547.13,949.744V99.256A41.3773,41.3773,0,0,0,505.8738,58Z"/><rect class="cls-3" x="42" y="66" width="497" height="917" rx="35.2253"/><path class="cls-4" d="M503.7747,67A34.2641,34.2641,0,0,1,538,101.2253V947.7747A34.2641,34.2641,0,0,1,503.7747,982H77.2253A34.2641,34.2641,0,0,1,43,947.7747V101.2253A34.2641,34.2641,0,0,1,77.2253,67H503.7747m0-1H77.2253A35.3288,35.3288,0,0,0,42,101.2253V947.7747A35.3287,35.3287,0,0,0,77.2253,983H503.7747A35.3287,35.3287,0,0,0,539,947.7747V101.2253A35.3288,35.3288,0,0,0,503.7747,66Z"/><circle class="cls-5" cx="291" cy="909" r="46"/><path class="cls-6" d="M291,864a45,45,0,1,1-45,45,45.051,45.051,0,0,1,45-45m0-1a46,46,0,1,0,46,46,46,46,0,0,0-46-46Z"/><rect class="cls-5" x="245" y="108.87" width="92" height="16.7298" rx="8"/><rect class="cls-5" x="209" y="108.87" width="16" height="16.7298" rx="8"/><path class="cls-7" d="M217,109.87a7.0079,7.0079,0,0,1,7,7v.73a7,7,0,1,1-14,0v-.73a7.0079,7.0079,0,0,1,7-7m0-1a8.0236,8.0236,0,0,0-8,8v.73a8,8,0,1,0,16,0v-.73a8.0236,8.0236,0,0,0-8-8Z"/><rect class="cls-5" x="283" y="83.7754" width="16" height="16.7298" rx="8"/><path class="cls-8" d="M291,84.7754a7.0079,7.0079,0,0,1,7,7v.73a7,7,0,0,1-14,0v-.73a7.0079,7.0079,0,0,1,7-7m0-1a8.0236,8.0236,0,0,0-8,8v.73a8,8,0,0,0,16,0v-.73a8.0236,8.0236,0,0,0-8-8Z"/><circle class="cls-3" cx="291" cy="909" r="35"/><path class="cls-9" d="M291,875a34,34,0,1,1-34,34,34.0385,34.0385,0,0,1,34-34m0-1a35,35,0,1,0,35,35,35,35,0,0,0-35-35Z"/><text class="cls-10" transform="translate(426.9326 191.3604)"><tspan class="cls-11">L</tspan><tspan x="12.7051" y="0">o</tspan></text></g><g id="snap_personer" data-name="snap personer"><rect class="cls-12" x="79.5" y="154.5" width="422" height="695"/></g><g id="Layer_8" data-name="Layer 8"><path class="cls-13" d="M328.78,396.4666a83.4887,83.4887,0,0,0,33.2769-38.8705c.6-1.429-.5891-3.5977,0-5A83.4884,83.4884,0,0,1,328.78,391.4666c-.7707.4751.7165,4.5583,0,5Z"/><path class="cls-14" d="M210.9105,446.4425,194.63,290.6149C194.63,227.6747,234.0242,172,296.9644,172h0c62.94,0,95.3571,51.0231,95.3571,113.9633l-9.3032,160.4792"/><path class="cls-15" d="M327.2,423.1847H262.0778q0-14.8253,0-29.6507,0-3.7809,0-7.5619H327.2v37.2126Z"/><path class="cls-13" d="M262.4035,397.8391c11.5241.5442,22.75,3.3249,34.2474,3.3981,4.8655.031,9.5124,1.1546,14.3915.3853,5.6238-.8867,10.8878-3.2034,16.0625-5.4794.6447-.2835-.5819-4.744,0-5-4.8967,2.1537-9.8928,4.3779-15.19,5.34-5.1994.9444-10.08-.2135-15.264-.246-11.4967-.072-22.7242-2.8539-34.2474-3.3981.0418.002-.1166,4.9945,0,5Z"/><path class="cls-15" d="M376.0412,295.057c0,58.4445-28.8576,104.87-76.7509,104.87s-76.7509-46.4253-76.7509-104.87S251.397,188.2805,299.29,188.2805,376.0412,236.6125,376.0412,295.057Z"/><path class="cls-16" d="M324.8739,355.7369c0,5.78-14.578,16.2805-32.5609,16.2805s-32.561-10.5-32.561-16.2805,14.578-4.6515,32.561-4.6515S324.8739,349.9567,324.8739,355.7369Z"/><path class="cls-17" d="M296.9645,339.4564c-27.9094,2.3258-4.6515-16.28-6.9773-39.5383"/><ellipse class="cls-18" cx="263.2407" cy="292.9408" rx="5.8145" ry="6.9774"/><circle class="cls-19" cx="264.4036" cy="295.2666" r="1.1629"/><ellipse class="cls-18" cx="321.3853" cy="292.9408" rx="5.8145" ry="6.9774"/><circle class="cls-19" cx="322.5482" cy="295.2666" r="1.1629"/><path class="cls-20" d="M270.42,274.0553c-.3844-1.2267-12.4214-4.6379-24.3464,3.974"/><path class="cls-20" d="M310.681,276.8345c.34-1.24,12.244-5.0877,24.4752,3.0835"/><path class="cls-14" d="M329.5255,181.3031l-63.6748,8.3728c-12.735,0-46.3089,32.3749-46.3089,44.6551l-20.26,58.61"/><path class="cls-14" d="M262.078,181.3032l83.7283,10.7039c13.7221,0,34.8865,69.9556,34.8865,82.3274l4.6515,55.8188"/><path class="cls-14" d="M299.29,188.2805c0,26.9963,10.4024,48.8415,23.2579,48.8415"/><path class="cls-14" d="M287.6614,209.2125c0,21.8542,7.2817,39.5384,16.28,39.5384"/><path class="cls-14" d="M286.6152,210.0424c-6.1884,20.96-4.2123,39.982,4.4182,42.53"/><rect class="cls-21" x="257.4262" y="418.5331" width="81.4024" height="151.176" rx="12"/><rect class="cls-22" x="236.3389" y="554.5915" width="121.3155" height="49.6725" rx="2.303"/><rect class="cls-22" x="236.3389" y="600.3681" width="49.7195" height="210.3775"/><rect class="cls-22" x="305.9462" y="600.3681" width="51.7082" height="210.3775"/><path class="cls-23" d="M288.1629,832.1619l-63.9983,5.8144c-7.9343.7567-15.1227-5.632-15.9742-14.1971l-.1349-1.3565c-.8515-8.5651,4.9434-16.1922,12.8777-16.9489l65.168-4.0376"/><path class="cls-23" d="M306.1625,838.2381l64.26,1.258c7.9694.1918,14.6664-6.69,14.8822-15.2933l.0342-1.3625c.2158-8.603-6.1281-15.7988-14.0975-15.9906l-65.2953.5972"/><rect class="cls-24" x="209.1198" y="405.0922" width="30.2352" height="108.8468" rx="6.5" transform="translate(411.6689 -16.2012) rotate(47.5161)"/><path class="cls-24" d="M243.6157,416.2073h32.4155a6.9786,6.9786,0,0,1,6.9786,6.9786V585.8453a7.1216,7.1216,0,0,1-7.1216,7.1216H243.6157a7.1216,7.1216,0,0,1-7.1216-7.1216V423.3289A7.1216,7.1216,0,0,1,243.6157,416.2073Z" transform="translate(519.504 1009.1742) rotate(-180)"/><path class="cls-24" d="M318.0408,413.8815h32.4155a6.9786,6.9786,0,0,1,6.9786,6.9786V583.52a7.1216,7.1216,0,0,1-7.1216,7.1216H318.0408a7.1216,7.1216,0,0,1-7.1216-7.1216V421.0031a7.1216,7.1216,0,0,1,7.1216-7.1216Z" transform="translate(668.3541 1004.5226) rotate(-180)"/><rect class="cls-24" x="354.574" y="402.7664" width="30.2352" height="108.8468" rx="6.5" transform="translate(956.5375 493.3326) rotate(132.4839)"/><ellipse class="cls-15" cx="234.1684" cy="541.7997" rx="13.9547" ry="23.2578" transform="translate(-210.2126 153.3318) rotate(-25.4665)"/><ellipse class="cls-15" cx="362.0865" cy="541.7997" rx="23.2578" ry="13.9547" transform="translate(-275.037 678.6468) rotate(-68.3674)"/><rect class="cls-24" x="371.3896" y="467.3746" width="27.9094" height="81.4024" rx="6" transform="translate(385.5457 1145.7522) rotate(-142.84)"/><rect class="cls-24" x="194.63" y="467.3746" width="27.9094" height="81.4024" rx="6" transform="translate(-264.5468 229.1579) rotate(-37.16)"/></g></svg>
