<svg xmlns="http://www.w3.org/2000/svg" xmlns:xlink="http://www.w3.org/1999/xlink" width="588" height="1080" viewBox="0 0 588 1080"><defs><style>.cls-1{fill:gray;}.cls-2{fill:url(#radial-gradient);}.cls-3{fill:#999;}.cls-4{fill:url(#radial-gradient-2);}.cls-5{fill:#4d4d4d;}.cls-6{fill:url(#radial-gradient-3);}.cls-7{fill:url(#radial-gradient-4);}.cls-8{fill:url(#radial-gradient-5);}.cls-9{fill:url(#radial-gradient-6);}.cls-10,.cls-13,.cls-15,.cls-21,.cls-22{fill:none;}.cls-11{stroke:#a67c52;fill:url(#radial-gradient-7);}.cls-11,.cls-13,.cls-15,.cls-21,.cls-22{stroke-miterlimit:10;}.cls-12{fill:#42210b;}.cls-13{stroke:#c69c6d;stroke-width:12px;}.cls-14{fill:#0071bc;}.cls-15{stroke:#1b1464;}.cls-16{fill:#ff7bac;}.cls-17{fill:#c69c6d;}.cls-18{fill:#fbb03b;}.cls-19{fill:#333;}.cls-20{fill:#fff;}.cls-21,.cls-22{stroke:#000;}.cls-21{stroke-width:2px;}.cls-23{fill:#fd7fff;}</style><radialGradient id="radial-gradient" cx="290.5" cy="524.5" r="376.4845" gradientTransform="translate(0 -314.1382) scale(1 1.5989)" gradientUnits="userSpaceOnUse"><stop offset="0" stop-color="#fff"/><stop offset="0.2473" stop-color="#f8f8f8"/><stop offset="0.4249" stop-color="#d8d8d8"/><stop offset="0.813" stop-color="#858585"/><stop offset="0.9987" stop-color="#5c5c5c"/></radialGradient><radialGradient id="radial-gradient-2" r="368.7645" gradientTransform="translate(0 -326.7223) scale(1 1.6229)" xlink:href="#radial-gradient"/><radialGradient id="radial-gradient-3" cx="291" cy="909" r="46" gradientTransform="matrix(1, 0, 0, 1, 0, 0)" xlink:href="#radial-gradient"/><radialGradient id="radial-gradient-4" cx="217" cy="117.2349" r="8.1845" gradientTransform="translate(0 -5.3471) scale(1 1.0456)" xlink:href="#radial-gradient"/><radialGradient id="radial-gradient-5" cx="291" cy="92.1402" r="8.1845" gradientTransform="translate(0 -4.2025) scale(1 1.0456)" xlink:href="#radial-gradient"/><radialGradient id="radial-gradient-6" cx="291" cy="909" r="35" gradientTransform="matrix(1, 0, 0, 1, 0, 0)" xlink:href="#radial-gradient"/><radialGradient id="radial-gradient-7" cx="290.5" cy="502" r="287.4693" gradientUnits="userSpaceOnUse"><stop offset="0" stop-color="#fff"/><stop offset="0.1697" stop-color="#ffe4fe"/><stop offset="0.535" stop-color="#ff9ffc"/><stop offset="1" stop-color="#ff3ffa"/></radialGradient></defs><title>pigeiphone2</title><g id="iphonebund"><rect class="cls-1" x="33.8702" y="58" width="513.2595" height="933" rx="41.256"/><path class="cls-2" d="M505.8738,59A40.3017,40.3017,0,0,1,546.13,99.256V949.744A40.3017,40.3017,0,0,1,505.8738,990H75.1262A40.3017,40.3017,0,0,1,34.87,949.744V99.256A40.3017,40.3017,0,0,1,75.1262,59H505.8738m0-1H75.1262A41.3773,41.3773,0,0,0,33.87,99.256V949.744A41.3773,41.3773,0,0,0,75.1262,991H505.8738A41.3773,41.3773,0,0,0,547.13,949.744V99.256A41.3773,41.3773,0,0,0,505.8738,58Z"/><rect class="cls-3" x="42" y="66" width="497" height="917" rx="35.2253"/><path class="cls-4" d="M503.7747,67A34.2641,34.2641,0,0,1,538,101.2253V947.7747A34.2641,34.2641,0,0,1,503.7747,982H77.2253A34.2641,34.2641,0,0,1,43,947.7747V101.2253A34.2641,34.2641,0,0,1,77.2253,67H503.7747m0-1H77.2253A35.3288,35.3288,0,0,0,42,101.2253V947.7747A35.3287,35.3287,0,0,0,77.2253,983H503.7747A35.3287,35.3287,0,0,0,539,947.7747V101.2253A35.3288,35.3288,0,0,0,503.7747,66Z"/><circle class="cls-5" cx="291" cy="909" r="46"/><path class="cls-6" d="M291,864a45,45,0,1,1-45,45,45.051,45.051,0,0,1,45-45m0-1a46,46,0,1,0,46,46,46,46,0,0,0-46-46Z"/><rect class="cls-5" x="245" y="108.87" width="92" height="16.7298" rx="8"/><rect class="cls-5" x="209" y="108.87" width="16" height="16.7298" rx="8"/><path class="cls-7" d="M217,109.87a7.0079,7.0079,0,0,1,7,7v.73a7,7,0,1,1-14,0v-.73a7.0079,7.0079,0,0,1,7-7m0-1a8.0236,8.0236,0,0,0-8,8v.73a8,8,0,1,0,16,0v-.73a8.0236,8.0236,0,0,0-8-8Z"/><rect class="cls-5" x="283" y="83.7754" width="16" height="16.7298" rx="8"/><path class="cls-8" d="M291,84.7754a7.0079,7.0079,0,0,1,7,7v.73a7,7,0,0,1-14,0v-.73a7.0079,7.0079,0,0,1,7-7m0-1a8.0236,8.0236,0,0,0-8,8v.73a8,8,0,0,0,16,0v-.73a8.0236,8.0236,0,0,0-8-8Z"/><circle class="cls-3" cx="291" cy="909" r="35"/><path class="cls-9" d="M291,875a34,34,0,1,1-34,34,34.0385,34.0385,0,0,1,34-34m0-1a35,35,0,1,0,35,35,35,35,0,0,0-35-35Z"/><path class="cls-10" d="M429.041,172.6631h2.4131v16.6723h7.9893v2.025H429.041Z"/><path class="cls-10" d="M453.8135,184.5361c0,4.9659-3.44,7.1294-6.6856,7.1294-3.6347,0-6.4365-2.6631-6.4365-6.9072,0-4.4941,2.9414-7.1294,6.6582-7.1294C451.2051,177.6289,453.8135,180.4307,453.8135,184.5361Zm-10.6524.1387c0,2.94,1.6914,5.16,4.0772,5.16,2.33,0,4.0781-2.1914,4.0781-5.2149,0-2.2749-1.1377-5.16-4.0225-5.16S443.1611,182.1226,443.1611,184.6748Z"/></g><g id="snap_personer" data-name="snap personer"><rect class="cls-11" x="79.5" y="154.5" width="422" height="695"/><path class="cls-12" d="M464.071,384.7917c0,48.1062-67.1411,216.736,23.5583,255.6072,68.8539,29.5088-148.2258,41.227-196.7116,41.227-48.5412,0-265.7906-1.11-197.8894-32.9816,57.7177-27.092,24.7361-215.8029,24.7361-263.8526,0-97.5816,77.5234-176.6871,173.1533-176.6871S464.071,287.21,464.071,384.7917Z"/><line class="cls-13" x1="261.4699" y1="627.4418" x2="259.1141" y2="814.7301"/><line class="cls-13" x1="313.2981" y1="628.6197" x2="310.9423" y2="815.908"/><path d="M266.1815,814.73H233.7889a13.5858,13.5858,0,0,0-13.546,13.546h0a13.5858,13.5858,0,0,0,13.546,13.546h32.3926"/><path d="M303.8748,815.908h32.3926a13.5858,13.5858,0,0,1,13.546,13.546h0A13.5858,13.5858,0,0,1,336.2674,843H303.8748"/><polygon class="cls-14" points="383.973 641.577 197.863 641.577 230.844 556.767 355.703 556.767 383.973 641.577"/><line class="cls-15" x1="214.9423" y1="642.1658" x2="231.4331" y2="577.3805"/><line class="cls-15" x1="237.3227" y1="642.1658" x2="247.9239" y2="579.7363"/><line class="cls-15" x1="264.4147" y1="642.1658" x2="269.1263" y2="578.5584"/><line class="cls-15" x1="291.5067" y1="642.1658" x2="289.1509" y2="576.2026"/><line class="cls-15" x1="317.4208" y1="642.1658" x2="309.1754" y2="576.2026"/><line class="cls-15" x1="340.979" y1="642.1658" x2="330.3778" y2="577.3805"/><line class="cls-15" x1="365.7152" y1="642.1658" x2="350.4024" y2="575.0247"/><path class="cls-13" d="M352.1692,495.5155c71.2476,49.8749-4.5626,121.9642-54.184,122.503"/><path class="cls-13" d="M234.3779,495.5155c-69.4969,62.4294,18.4394,126.0368,41.2269,126.0368"/><path class="cls-16" d="M342.7459,567.3682l-101.3,1.178c-15.0322,0-18.8467-4.0537-18.8467-19.0859v-47.816A27.4116,27.4116,0,0,1,249.93,474.3131h80.7975a27.4116,27.4116,0,0,1,27.3313,27.3312V549.46C358.0588,564.4925,357.7781,567.3682,342.7459,567.3682Z"/><path class="cls-17" d="M418.1324,367.123c0,33.6052,1.7269,67.2305-20.0246,89.5214-22.4612,23.0183-72.4883,34.1595-107.19,34.1595-36.9042,0-85.7069-8.5261-108.368-34.1595-19.283-21.8122-18.8466-58.1186-18.8466-89.5214,0-68.3071,58.9075-123.681,127.2146-123.681S418.1324,298.8159,418.1324,367.123Z"/><path class="cls-18" d="M163.7031,373.0125c1.1779,48.2945,2.3558,36.5153,20.0245,4.7117,20.3776-36.68,164.9079-140.1717,131.9263-140.1717-32.5272,0-92.8327,16.2684-122.503,45.9386S162.91,340.495,163.7031,373.0125Z"/><path class="cls-18" d="M418.4794,373.0125c-1.1779,48.2945-2.3558,36.5153-20.0245,4.7117-20.3776-36.68-166.4328-140.1717-133.4513-140.1717,32.5272,0,94.3577,16.2684,124.028,45.9386S419.2725,340.495,418.4794,373.0125Z"/><rect class="cls-5" x="270.8932" y="599.1719" width="27.092" height="44.7607" rx="6.9699"/><circle class="cls-19" cx="276.7828" cy="605.0615" r="2.3558"/><circle cx="276.7828" cy="605.0615" r="1.1779"/><path class="cls-20" d="M288.5619,619.1964c0,1.178-1.3184,3.5338-2.9448,3.5338s-2.9448-2.2327-2.9448-3.5338c0-1.1779,1.4724-1.1779,2.9448-1.1779C287.2435,618.0185,288.5619,617.5306,288.5619,619.1964Z"/><circle class="cls-5" cx="288.5619" cy="620.3744" r="1.1779"/><polyline class="cls-20" points="285.028 618.019 285.028 616.841 286.206 616.841"/><path class="cls-21" d="M217.2981,387.8941c0-12.8538,37.6933-61.4092,54.1841-2.5135"/><path class="cls-22" d="M204.93,377.7242c0,5.86,5.2684,10.6012,11.7792,10.6012"/><path class="cls-22" d="M210.82,370.6567c0,5.86,3.161,10.6012,7.0675,10.6012"/><path class="cls-22" d="M216.7092,364.7671c0,5.86,2.1073,10.6013,4.7116,10.6013"/><path class="cls-21" d="M360.4146,387.8941c0-12.8538-37.6932-61.4092-54.184-2.5135"/><path class="cls-22" d="M372.7827,377.7242c0,5.86-5.2684,10.6012-11.7791,10.6012"/><path class="cls-22" d="M366.8931,370.6567c0,5.86-3.161,10.6012-7.0674,10.6012"/><path class="cls-22" d="M361.0036,364.7671c0,5.86-2.1074,10.6013-4.7117,10.6013"/><path class="cls-21" d="M259.1141,429.5524c7.3518,13.3645,41.41,27.9577,60.0735-4.7117"/><ellipse class="cls-23" cx="352.1692" cy="409.5278" rx="18.8466" ry="7.0675"/><ellipse class="cls-23" cx="233.2" cy="409.5278" rx="18.8466" ry="7.0675"/></g></svg>
