<svg id="Layer_1" data-name="Layer 1" xmlns="http://www.w3.org/2000/svg" width="209" height="386" viewBox="0 0 209 386"><defs><style>.cls-1{fill:#c69c6d;}.cls-2{fill:#998675;}.cls-3{fill:#ff915f;}.cls-4{fill:#c45833;}.cls-5{fill:#9faaff;}.cls-6{fill:#848eff;}.cls-12,.cls-7{fill:none;stroke-miterlimit:10;}.cls-7{stroke:#a67c52;}.cls-8{fill:#333;}.cls-9{fill:#fff;}.cls-10{fill:#e9b763;}.cls-11{fill:#4a67ad;}.cls-12{stroke:#e9b763;stroke-width:8px;}.cls-13{fill:#5a67ad;}.cls-14{fill:#c7b299;}</style></defs><title>pige1</title><path class="cls-1" d="M112,135H84V119h28v16Z"/><path class="cls-2" d="M84.14,125.53c5,.27,9.78,1.33,14.72,1.48s8.45-.19,13.1-2.21c.64-.28-.58-4.75,0-5-4.65,2-8.11,2.35-13.1,2.21s-9.77-1.21-14.72-1.48c0,0-.13,5,0,5Z"/><path class="cls-3" d="M83,72c0,11.6,13,62-9,59-19.92-2.72,0-61.4,0-73s3-11,11-11S83,60.4,83,72Z"/><path class="cls-3" d="M129,75c0,11.6,13,62-9,59-19.92-2.72,0-61.4,0-73s3-11,11-11S129,63.4,129,75Z"/><path class="cls-1" d="M137,79.91C137,105,122.52,125,98.5,125S60,105,60,79.91,74.48,34,98.5,34,137,54.78,137,79.91Z"/><path class="cls-4" d="M111,106c0,2.49-6.27,7-14,7s-14-4.51-14-7,6.27-2,14-2S111,103.51,111,106Z"/><path class="cls-3" d="M70,73c0,11.6,13,62-9,59-19.92-2.72,0-61.4,0-73s3-11,11-11S70,61.4,70,73Z"/><path class="cls-3" d="M124,73c1.76,11.46-17,61,5,58,19.92-2.72,6-61.4,6-73s-4.75-10-12.76-10S122,60,124,73Z"/><path class="cls-5" d="M62,59c.22-14.54,12-36,33.54-36S132.82,42.44,133,57"/><rect class="cls-6" x="59" y="47" width="77" height="15" rx="6.5" ry="6.5"/><path class="cls-7" d="M99,99c-12,1-2-7-3-17"/><ellipse class="cls-8" cx="84.5" cy="79" rx="2.5" ry="3"/><circle class="cls-9" cx="85" cy="80" r="0.5"/><ellipse class="cls-8" cx="109.5" cy="79" rx="2.5" ry="3"/><circle class="cls-9" cx="110" cy="80" r="0.5"/><path class="cls-3" d="M87.59,70.88c-.17-.53-5.34-2-10.47,1.71"/><path class="cls-3" d="M104.9,72.07c.14-.53,5.26-2.18,10.52,1.33"/><rect class="cls-10" x="68" y="132" width="61" height="90" rx="22.16" ry="22.16"/><rect class="cls-11" x="68" y="199.5" width="61" height="25.5" rx="2.3" ry="2.3"/><rect class="cls-1" x="66" y="207" width="8" height="6" transform="translate(168.99 12.01) rotate(45)"/><path class="cls-12" d="M79.5,140.5c-31.27,35.78-28.11,49.55-11,69"/><path class="cls-12" d="M115.87,138c31.14,34.95,28,51.1,11.63,69.54"/><path class="cls-13" d="M67.72,216.59c3.72,3.76,8.7,4.87,11.12,2.48s1.36-7.38-2.36-11.14"/><rect class="cls-1" x="123" y="206" width="8" height="6" transform="translate(368.75 245.96) rotate(129.98)"/><path class="cls-13" d="M119.94,208c-3.46,4-4.18,9.05-1.6,11.28s7.46.78,10.92-3.22"/><rect class="cls-11" x="68" y="223" width="25" height="108"/><rect class="cls-11" x="103" y="223" width="26" height="108"/><path class="cls-14" d="M94.06,342l-32.18,3c-4,.39-7.61-2.89-8-7.29l-.07-.7c-.43-4.39,2.48-8.31,6.47-8.7L93,326.22"/><path class="cls-14" d="M103.11,345.11l32.31.65c4,.1,7.37-3.44,7.48-7.85l0-.7c.11-4.42-3.08-8.11-7.09-8.21l-32.83.31"/></svg>
