<svg xmlns="http://www.w3.org/2000/svg" xmlns:xlink="http://www.w3.org/1999/xlink" width="588" height="1080" viewBox="0 0 588 1080"><defs><style>.cls-1{fill:gray;}.cls-2{fill:url(#radial-gradient);}.cls-3{fill:#999;}.cls-4{fill:url(#radial-gradient-2);}.cls-5{fill:#4d4d4d;}.cls-6{fill:url(#radial-gradient-3);}.cls-7{fill:url(#radial-gradient-4);}.cls-8{fill:url(#radial-gradient-5);}.cls-9{fill:url(#radial-gradient-6);}.cls-10,.cls-14,.cls-23,.cls-24,.cls-28{fill:none;}.cls-11{stroke:#a67c52;fill:url(#radial-gradient-7);}.cls-11,.cls-14,.cls-27,.cls-28{stroke-miterlimit:10;}.cls-12{fill:#8c6239;}.cls-13{fill:#754c24;}.cls-14{stroke:#754c24;stroke-width:15px;}.cls-15{fill:url(#radial-gradient-8);}.cls-16{fill:url(#radial-gradient-9);}.cls-17{fill:#333;}.cls-18{fill:url(#radial-gradient-10);}.cls-19{fill:url(#radial-gradient-11);}.cls-20{fill:url(#radial-gradient-12);}.cls-21{fill:url(#radial-gradient-13);}.cls-22,.cls-27{fill:#f9e8c0;}.cls-23,.cls-24{stroke:#f9e8c0;stroke-linecap:round;stroke-linejoin:round;}.cls-23{stroke-width:23px;}.cls-24{stroke-width:21px;}.cls-25{fill:#b21212;}.cls-26{fill:#1485cc;}.cls-27,.cls-28{stroke:#000;stroke-width:5px;}.cls-29{fill:#fcb9ec;opacity:0.5;}</style><radialGradient id="radial-gradient" cx="290.5" cy="524.5" r="376.4845" gradientTransform="translate(0 -314.1382) scale(1 1.5989)" gradientUnits="userSpaceOnUse"><stop offset="0" stop-color="#fff"/><stop offset="0.2473" stop-color="#f8f8f8"/><stop offset="0.4249" stop-color="#d8d8d8"/><stop offset="0.813" stop-color="#858585"/><stop offset="0.9987" stop-color="#5c5c5c"/></radialGradient><radialGradient id="radial-gradient-2" r="368.7645" gradientTransform="translate(0 -326.7223) scale(1 1.6229)" xlink:href="#radial-gradient"/><radialGradient id="radial-gradient-3" cx="291" cy="909" r="46" gradientTransform="matrix(1, 0, 0, 1, 0, 0)" xlink:href="#radial-gradient"/><radialGradient id="radial-gradient-4" cx="217" cy="117.2349" r="8.1845" gradientTransform="translate(0 -5.3471) scale(1 1.0456)" xlink:href="#radial-gradient"/><radialGradient id="radial-gradient-5" cx="291" cy="92.1402" r="8.1845" gradientTransform="translate(0 -4.2025) scale(1 1.0456)" xlink:href="#radial-gradient"/><radialGradient id="radial-gradient-6" cx="291" cy="909" r="35" gradientTransform="matrix(1, 0, 0, 1, 0, 0)" xlink:href="#radial-gradient"/><radialGradient id="radial-gradient-7" cx="290.5" cy="502" r="287.4693" gradientUnits="userSpaceOnUse"><stop offset="0" stop-color="#fff"/><stop offset="0.1694" stop-color="#ffe4fe"/><stop offset="0.5338" stop-color="#ff9ffd"/><stop offset="1" stop-color="#ff3ffa"/></radialGradient><radialGradient id="radial-gradient-8" cx="456.4612" cy="449.2559" r="37.0337" gradientTransform="translate(-322.7924 84.9513) rotate(-32.8949) scale(1 1.6229)" xlink:href="#radial-gradient"/><radialGradient id="radial-gradient-9" cx="455.4913" cy="447.1418" r="30.8632" gradientTransform="translate(-294.9926 125.5312) rotate(-32.8949) scale(1 1.5155)" xlink:href="#radial-gradient"/><radialGradient id="radial-gradient-10" cx="474.2201" cy="476.1162" r="3.9991" gradientTransform="matrix(1, 0, 0, 1, 0, 0)" xlink:href="#radial-gradient"/><radialGradient id="radial-gradient-11" cx="431.4396" cy="421.8189" r="0.7632" gradientTransform="translate(-170.3649 285.7908) rotate(-32.8949) scale(1 1.0456)" xlink:href="#radial-gradient"/><radialGradient id="radial-gradient-12" cx="435.6561" cy="416.4937" r="0.7632" gradientTransform="translate(-166.6649 287.4309) rotate(-32.8949) scale(1 1.0456)" xlink:href="#radial-gradient"/><radialGradient id="radial-gradient-13" cx="474.2201" cy="476.1162" r="3.0428" gradientTransform="matrix(1, 0, 0, 1, 0, 0)" xlink:href="#radial-gradient"/></defs><title>pigeiphone1</title><g id="iphonebund"><rect class="cls-1" x="33.8702" y="58" width="513.2595" height="933" rx="41.256"/><path class="cls-2" d="M505.8738,59A40.3017,40.3017,0,0,1,546.13,99.256V949.744A40.3017,40.3017,0,0,1,505.8738,990H75.1262A40.3017,40.3017,0,0,1,34.87,949.744V99.256A40.3017,40.3017,0,0,1,75.1262,59H505.8738m0-1H75.1262A41.3773,41.3773,0,0,0,33.87,99.256V949.744A41.3773,41.3773,0,0,0,75.1262,991H505.8738A41.3773,41.3773,0,0,0,547.13,949.744V99.256A41.3773,41.3773,0,0,0,505.8738,58Z"/><rect class="cls-3" x="42" y="66" width="497" height="917" rx="35.2253"/><path class="cls-4" d="M503.7747,67A34.2641,34.2641,0,0,1,538,101.2253V947.7747A34.2641,34.2641,0,0,1,503.7747,982H77.2253A34.2641,34.2641,0,0,1,43,947.7747V101.2253A34.2641,34.2641,0,0,1,77.2253,67H503.7747m0-1H77.2253A35.3288,35.3288,0,0,0,42,101.2253V947.7747A35.3287,35.3287,0,0,0,77.2253,983H503.7747A35.3287,35.3287,0,0,0,539,947.7747V101.2253A35.3288,35.3288,0,0,0,503.7747,66Z"/><circle class="cls-5" cx="291" cy="909" r="46"/><path class="cls-6" d="M291,864a45,45,0,1,1-45,45,45.051,45.051,0,0,1,45-45m0-1a46,46,0,1,0,46,46,46,46,0,0,0-46-46Z"/><rect class="cls-5" x="245" y="108.87" width="92" height="16.7298" rx="8"/><rect class="cls-5" x="209" y="108.87" width="16" height="16.7298" rx="8"/><path class="cls-7" d="M217,109.87a7.0079,7.0079,0,0,1,7,7v.73a7,7,0,1,1-14,0v-.73a7.0079,7.0079,0,0,1,7-7m0-1a8.0236,8.0236,0,0,0-8,8v.73a8,8,0,1,0,16,0v-.73a8.0236,8.0236,0,0,0-8-8Z"/><rect class="cls-5" x="283" y="83.7754" width="16" height="16.7298" rx="8"/><path class="cls-8" d="M291,84.7754a7.0079,7.0079,0,0,1,7,7v.73a7,7,0,0,1-14,0v-.73a7.0079,7.0079,0,0,1,7-7m0-1a8.0236,8.0236,0,0,0-8,8v.73a8,8,0,0,0,16,0v-.73a8.0236,8.0236,0,0,0-8-8Z"/><circle class="cls-3" cx="291" cy="909" r="35"/><path class="cls-9" d="M291,875a34,34,0,1,1-34,34,34.0385,34.0385,0,0,1,34-34m0-1a35,35,0,1,0,35,35,35,35,0,0,0-35-35Z"/><path class="cls-10" d="M429.041,172.6631h2.4131v16.6723h7.9893v2.025H429.041Z"/><path class="cls-10" d="M453.8135,184.5361c0,4.9659-3.44,7.1294-6.6856,7.1294-3.6347,0-6.4365-2.6631-6.4365-6.9072,0-4.4941,2.9414-7.1294,6.6582-7.1294C451.2051,177.6289,453.8135,180.4307,453.8135,184.5361Zm-10.6524.1387c0,2.94,1.6914,5.16,4.0772,5.16,2.33,0,4.0781-2.1914,4.0781-5.2149,0-2.2749-1.1377-5.16-4.0225-5.16S443.1611,182.1226,443.1611,184.6748Z"/></g><g id="snap_personer" data-name="snap personer"><rect class="cls-11" x="79.5" y="154.5" width="422" height="695"/><path class="cls-12" d="M212.8787,723.7128l-51.0158-.3158a5.6869,5.6869,0,0,1-5.5142-5.8451V383.43a5.6869,5.6869,0,0,1,5.5142-5.8451H390.2186a5.6869,5.6869,0,0,1,5.5142,5.8451V717.5519a5.6869,5.6869,0,0,1-5.5142,5.8451l-57.9637.3158"/><ellipse class="cls-13" cx="378.3632" cy="603.3891" rx="2.5265" ry="35.6865"/><ellipse class="cls-13" cx="366.3624" cy="568.0184" rx="2.5265" ry="35.6865"/><ellipse class="cls-13" cx="350.5719" cy="588.2303" rx="2.5265" ry="35.6865"/><ellipse class="cls-13" cx="198.3515" cy="564.2287" rx="2.5265" ry="35.6865"/><ellipse class="cls-13" cx="181.9293" cy="600.231" rx="2.5265" ry="35.6865"/><ellipse class="cls-13" cx="166.7705" cy="561.7022" rx="2.5265" ry="35.6865"/><path class="cls-14" d="M203.4044,325.1605c0-13.9648,14.69-25.2649,32.8443-25.2649"/><path class="cls-3" d="M477.6772,482.1727h0c-9.9758,6.4524-18.4665,12.8936-29.87-6.4063l-19.8282-30.6558c-12.3505-16.9961-3.57-23.4172,6.4063-29.87h0c9.9759-6.4524,20.4037-9.8647,29.87,6.4063l19.8282,30.6558C498.3711,470.4331,487.6531,475.72,477.6772,482.1727Z"/><path class="cls-15" d="M448.4912,409.8852v1c5.6162,0,10.49,3.6848,14.9246,11.3051l19.8281,30.6558.0254.0392.0288.0367c5.123,6.5008,7.2727,11.672,6.5723,15.8092-.8492,5.0135-5.8367,8.1954-11.117,11.5641q-.809.516-1.6194,1.0377l-.9951.6459c-4.4685,2.9044-8.6892,5.6478-12.8711,5.6478-4.9743,0-9.6133-3.93-14.6206-12.4034l-19.8284-30.6558-.0146-.0228-.0159-.022c-4.6228-6.3616-6.4829-11.5325-5.6865-15.8082.9775-5.25,5.7236-8.6864,11.8267-12.6339,5.5549-3.5927,9.7375-5.1951,13.5617-5.1954l.001-1m-.0012,0c-4.7039,0-9.4539,2.3477-14.1045,5.3557h0c-9.9758,6.4524-18.7566,12.8735-6.4063,29.87l19.8284,30.6558c5.698,9.644,10.668,12.86,15.46,12.86,4.7981,0,9.4185-3.2258,14.4094-6.454h0c9.9759-6.4525,20.6939-11.74,6.4063-29.87l-19.8281-30.6558c-5.0533-8.6857-10.3792-11.7624-15.7654-11.762Z"/><rect class="cls-5" x="439.2295" y="418.8387" width="32.5236" height="56.6062" transform="translate(-169.8127 319.0678) rotate(-32.8949)"/><path class="cls-16" d="M453.4778,415.9276l29.6567,45.8511-25.63,16.5773-29.6568-45.8511,25.63-16.5773m.2966-1.3828-27.3091,17.6635,30.743,47.5305,27.309-17.6636-30.7429-47.53Z"/><polygon class="cls-17" points="484.517 462.075 457.208 479.739 454.988 443.1 453.774 414.545 484.517 462.075"/><circle class="cls-5" cx="474.2201" cy="476.1162" r="3.9986"/><path class="cls-18" d="M474.2168,473.1171h0a2.9993,2.9993,0,1,1-1.6253.4813,2.9911,2.9911,0,0,1,1.6253-.4813m0-1a3.999,3.999,0,1,0,3.3613,1.8274,3.981,3.981,0,0,0-3.3613-1.8274Z"/><rect class="cls-5" x="432.8422" y="417.5982" width="7.9973" height="1.4543" rx="0.6005" transform="translate(-157.1528 304.3186) rotate(-32.8949)"/><rect class="cls-5" x="430.7442" y="421.0918" width="1.3908" height="1.4543" rx="0.5743" transform="translate(-159.9162 301.9454) rotate(-32.8949)"/><path class="cls-19" d="M431.4568,421.051a.57.57,0,0,0-.31.0915l-.2034.1316a.5758.5758,0,0,0-.17.7941l.166.2567a.5757.5757,0,0,0,.7942.17l.2034-.1316a.5762.5762,0,0,0,.17-.7941l-.1663-.2566a.5747.5747,0,0,0-.4836-.2619Z"/><rect class="cls-5" x="434.9608" y="415.7666" width="1.3908" height="1.4543" rx="0.5743" transform="translate(-156.3481 303.382) rotate(-32.8949)"/><path class="cls-20" d="M435.6733,415.7258a.5694.5694,0,0,0-.31.0916l-.2033.1315a.5757.5757,0,0,0-.17.7941l.166.2567a.5757.5757,0,0,0,.7942.17l.2033-.1315a.5759.5759,0,0,0,.17-.7941l-.166-.2567a.5749.5749,0,0,0-.4837-.2619Z"/><circle class="cls-3" cx="474.2201" cy="476.1162" r="3.0424"/><path class="cls-21" d="M474.2175,474.0734h0a2.0437,2.0437,0,1,1-1.1064.3278,2.0374,2.0374,0,0,1,1.1064-.3278m0-1a3.0428,3.0428,0,1,0,2.5574,1.39,3.0287,3.0287,0,0,0-2.5574-1.39Z"/><ellipse class="cls-22" cx="437.6589" cy="462.1595" rx="1.7274" ry="3.5472" transform="translate(-155.8909 232.3) rotate(-25.3902)"/><ellipse class="cls-22" cx="99.7421" cy="495.0037" rx="3.5472" ry="1.7274" transform="translate(-397.0794 404.7508) rotate(-68.3115)"/><path class="cls-23" d="M445.3847,466.1955c-9.9041,59.6-62.2032,100.469-116.9306,91.3746"/><path class="cls-24" d="M220.9711,562.4149C162.37,577.12,104.0249,545.4778,90.5218,491.6684"/><path class="cls-24" d="M299.0463,665.0794c52.8329,29.3083,73.8078,92.2805,46.8958,140.7938"/><path class="cls-24" d="M246.6723,665.2871c-16.167,56.9687-63.7695,93.2706-106.43,81.164"/><rect class="cls-25" x="216.6684" y="526.0157" width="119.3762" height="84.6371" rx="12"/><polygon class="cls-26" points="348.045 674.581 202.773 674.581 217.546 599.915 336.086 599.915 348.045 674.581"/><rect x="216.6684" y="592.9674" width="119.3762" height="9.4743"/><path class="cls-22" d="M383.4162,393.6912c0-51.8018-47.9323-93.7956-107.06-93.7956s-107.06,41.9938-107.06,93.7956q0,2.45.1479,4.8672a24.2889,24.2889,0,0,1-.0339,3.2057q-.1118,1.5381-.114,3.1037v63.3829a69.3374,69.3374,0,0,0,69.1342,69.1341H314.282a69.3374,69.3374,0,0,0,69.1342-69.1341V404.8678q0-1.5654-.114-3.1037a24.2889,24.2889,0,0,1-.0339-3.2057Q383.4125,396.1406,383.4162,393.6912Z"/><g id="øjne"><path class="cls-27" d="M212.2471,452.1161c0-18.1394,12.7254-32.8442,28.4229-32.8442s28.4229,14.7048,28.4229,32.8442"/><path class="cls-27" d="M212.1338,450.357c-9.7662-.1509-17.5827-6.7766-17.4588-14.7988"/><path class="cls-27" d="M213.3617,445.9757c-9.6158-1.714-16.27-9.5067-14.8616-17.4054"/><path class="cls-27" d="M213.665,442.0772c-8.7006-4.4387-12.798-13.8306-9.152-20.9775"/><path class="cls-27" d="M341.8411,454.011c0-18.1394-12.7254-32.8443-28.4229-32.8443s-28.4229,14.7049-28.4229,32.8443"/><path class="cls-27" d="M341.9544,452.2519c9.7662-.1509,17.5827-6.7766,17.4588-14.7988"/><path class="cls-27" d="M340.7265,447.8706c9.6158-1.7141,16.2695-9.5067,14.8616-17.4054"/><path class="cls-27" d="M340.4232,443.9721c8.7006-4.4387,12.798-13.8307,9.152-20.9775"/></g><path class="cls-28" d="M295.621,484.3287c0,14.1278-8.9785,25.5807-20.054,25.5807s-20.0539-11.4529-20.0539-25.5807"/><path class="cls-12" d="M195.825,402.85H386.9793c4.6407,0,8.4377-4.1512,8.4377-9.2249V390.55a8.8425,8.8425,0,0,0-.6317-2.8589C401.5866,329.7675,339.76,286,275.7071,286c-64.8469,0-125.99,47.3715-119.3146,103.61q-.0434.4638-.0438.94v3.075c0,5.0737,3.797,9.2249,8.4377,9.2249h33.5257"/><path class="cls-22" d="M201.1938,404.2709c0-17.8778,1.626-32.3706,3.6318-32.3706s3.6318,14.4928,3.6318,32.3706"/><path class="cls-22" d="M213.1945,407.2711c0-25.4649,2.333-46.1083,5.2109-46.1083s5.2109,20.6434,5.2109,46.1083"/><ellipse class="cls-29" cx="210.6681" cy="477.6967" rx="7.2636" ry="23.0541" transform="translate(-298.6777 592.3355) rotate(-78.8864)"/><ellipse class="cls-29" cx="340.1502" cy="477.6967" rx="23.0541" ry="7.2636" transform="translate(-102.9254 93.5348) rotate(-13.6203)"/><polygon points="366.362 417.063 337.526 401.06 337.421 400.967 337.38 400.979 337.367 400.972 337.353 400.987 281.824 417.362 288.981 423.693 336.416 409.706 366.362 417.063"/><polygon points="184.554 414.536 213.39 398.534 213.495 398.441 213.536 398.453 213.549 398.445 213.564 398.461 269.093 414.835 261.935 421.167 214.5 407.179 184.554 414.536"/><path d="M127.1944,771.8925l-2.8409-31.0047,17.42-1.6678,2.8457,29.7218a8.2659,8.2659,0,0,1-7.44,9.0161l-2.2312.2512A6.9992,6.9992,0,0,1,127.1944,771.8925Z"/><path d="M359.5619,829.9909l-25.5838-17.7434,9.914-14.42,24.6039,16.9155a8.2659,8.2659,0,0,1,2.1285,11.4944l-1.2411,1.8711A6.9991,6.9991,0,0,1,359.5619,829.9909Z"/></g></svg>
