<svg id="Layer_1" data-name="Layer 1" xmlns="http://www.w3.org/2000/svg" width="158" height="313" viewBox="0 0 158 313"><defs><style>.cls-1{fill:#736357;}.cls-2{fill:#e9b763;}.cls-3{fill:#a67c52;}.cls-4{fill:#a54033;}.cls-5{fill:none;stroke:#754c24;stroke-miterlimit:10;}.cls-6{fill:#333;}.cls-7{fill:#fff;}.cls-8{fill:#754c24;}.cls-9{fill:#ffe1c1;}.cls-10{fill:#4a67ad;}.cls-11{fill:#c7b299;}.cls-12{fill:#d1908b;}</style></defs><title>pige3</title><path class="cls-1" d="M89.68,110.94A36.26,36.26,0,0,0,104,94.22c.6-1.42-.6-3.6,0-5a36.26,36.26,0,0,1-14.31,16.72c-.78.48.72,4.55,0,5Z"/><path class="cls-2" d="M39,131,32,64c0-27.06,16.94-51,44-51h0c27.06,0,41,21.94,41,49l-4,69"/><path class="cls-3" d="M89,121H61V105H89v16Z"/><path class="cls-1" d="M61.14,111.53c5,.27,9.78,1.33,14.72,1.48s8.45-.19,13.1-2.21c.64-.28-.58-4.75,0-5-4.65,2-8.11,2.35-13.1,2.21s-9.77-1.21-14.72-1.48c0,0-.13,5,0,5Z"/><path class="cls-3" d="M110,65.91C110,91,97.59,111,77,111S44,91,44,65.91,56.41,20,77,20,110,40.78,110,65.91Z"/><path class="cls-4" d="M88,92c0,2.49-6.27,7-14,7s-14-4.51-14-7,6.27-2,14-2S88,89.51,88,92Z"/><path class="cls-5" d="M76,85c-12,1-2-7-3-17"/><ellipse class="cls-6" cx="61.5" cy="65" rx="2.5" ry="3"/><circle class="cls-7" cx="62" cy="66" r="0.5"/><ellipse class="cls-6" cx="86.5" cy="65" rx="2.5" ry="3"/><circle class="cls-7" cx="87" cy="66" r="0.5"/><path class="cls-8" d="M64.59,56.88c-.17-.53-5.34-2-10.47,1.71"/><path class="cls-8" d="M81.9,58.07c.14-.53,5.26-2.18,10.52,1.33"/><path class="cls-2" d="M90,17,62.62,20.6c-5.47,0-19.91,13.92-19.91,19.2L34,65"/><path class="cls-2" d="M61,17l36,4.6c5.9,0,15,30.08,15,35.4l2,24"/><path class="cls-2" d="M77,20c0,11.61,4.47,21,10,21"/><path class="cls-2" d="M72,29c0,9.4,3.13,17,7,17"/><path class="cls-2" d="M71.55,29.36c-2.66,9-1.81,17.19,1.9,18.28"/><rect class="cls-9" x="59" y="119" width="35" height="65" rx="12" ry="12"/><rect class="cls-10" x="49.93" y="177.5" width="52.16" height="21.36" rx="2.3" ry="2.3"/><rect class="cls-10" x="49.93" y="197.18" width="21.38" height="90.45"/><rect class="cls-10" x="79.86" y="197.18" width="22.23" height="90.45"/><path class="cls-11" d="M72.22,296.84l-27.52,2.5a6.54,6.54,0,0,1-6.87-6.1l-.06-.58a6.49,6.49,0,0,1,5.54-7.29l28-1.74"/><path class="cls-11" d="M80,299.46l27.63.54a6.52,6.52,0,0,0,6.4-6.58l0-.58a6.51,6.51,0,0,0-6.06-6.88l-28.08.26"/><rect class="cls-12" x="38.23" y="113.22" width="13" height="46.8" rx="6.5" ry="6.5" transform="translate(115.27 11.36) rotate(47.52)"/><path class="cls-12" d="M57.12,118H63a7,7,0,0,1,7,7v61.9A7.12,7.12,0,0,1,62.88,194H57.12A7.12,7.12,0,0,1,50,186.88V125.12A7.12,7.12,0,0,1,57.12,118Z" transform="translate(120 312) rotate(-180)"/><path class="cls-12" d="M89.12,117H95a7,7,0,0,1,7,7v61.9A7.12,7.12,0,0,1,94.88,193H89.12A7.12,7.12,0,0,1,82,185.88V124.12A7.12,7.12,0,0,1,89.12,117Z" transform="translate(184 310) rotate(-180)"/><rect class="cls-12" x="100.77" y="112.22" width="13" height="46.8" rx="6.5" ry="6.5" transform="translate(279.73 148.11) rotate(132.48)"/><ellipse class="cls-3" cx="49" cy="172" rx="6" ry="10" transform="translate(-69.2 37.78) rotate(-25.47)"/><ellipse class="cls-3" cx="104" cy="172" rx="10" ry="6" transform="matrix(0.37, -0.93, 0.93, 0.37, -94.23, 205.27)"/><rect class="cls-12" x="108" y="140" width="12" height="35" rx="6" ry="6" transform="translate(109.72 351.88) rotate(-142.84)"/><rect class="cls-12" x="32" y="140" width="12" height="35" rx="6" ry="6" transform="translate(-87.42 54.93) rotate(-37.16)"/></svg>
