<svg id="Layer_1" data-name="Layer 1" xmlns="http://www.w3.org/2000/svg" width="140.95" height="140.77" viewBox="0 0 140.95 140.77"><defs><style>.cls-1{fill:#333;}</style></defs><title>setting_ikon</title><path class="cls-1" d="M70.83,116a46.29,46.29,0,1,1,46.23-46.29A46.31,46.31,0,0,1,70.83,116Zm0-66.66A20.37,20.37,0,1,0,91.17,69.68,20.38,20.38,0,0,0,70.83,49.31Z"/><rect class="cls-1" x="45.93" y="2.08" width="27.36" height="27.16" transform="matrix(0.98, -0.18, 0.18, 0.98, -1.82, 10.7)"/><polygon class="cls-1" points="109.49 44.73 88.5 27.17 105.88 6.33 126.88 23.89 109.49 44.73"/><rect class="cls-1" x="113.72" y="52.7" width="27.39" height="27.12" transform="translate(193.68 -61.15) rotate(90)"/><polygon class="cls-1" points="88.51 110.16 109.63 92.75 126.87 113.72 105.74 131.13 88.51 110.16"/><polygon class="cls-1" points="3.63 48.61 16.37 24.37 40.38 37.01 27.63 61.26 3.63 48.61"/><rect class="cls-1" x="3.99" y="78.62" width="27.39" height="27.13" transform="matrix(0.38, 0.93, -0.93, 0.38, 96.45, 41.12)"/><rect class="cls-1" x="42.23" y="110.7" width="27.36" height="27.15" transform="matrix(0.97, 0.25, -0.25, 0.97, 33.34, -10.11)"/></svg>
