<svg xmlns="http://www.w3.org/2000/svg" xmlns:xlink="http://www.w3.org/1999/xlink" width="422" height="694.2851" viewBox="0 0 422 694.2851"><defs><style>.cls-1{fill:gray;}.cls-2{fill:url(#radial-gradient);}.cls-3{fill:#999;}.cls-4{fill:url(#radial-gradient-2);}.cls-5{fill:#29abe2;}.cls-6{fill:#e6e6e6;}.cls-16,.cls-17,.cls-25,.cls-7,.cls-9{fill:none;stroke-miterlimit:10;}.cls-16,.cls-17,.cls-25,.cls-7{stroke:#000;}.cls-7{stroke-width:0.25px;}.cls-8{fill:#f2f2f2;opacity:0.73;}.cls-9{stroke:#999;stroke-width:4px;}.cls-10{fill:#662d91;}.cls-11{fill:#93278f;}.cls-12{fill:#fbb03b;}.cls-13{fill:#22b573;}.cls-14{fill:#42210b;}.cls-15{fill:#c69c6d;}.cls-16{stroke-width:2px;}.cls-18{fill:#fd7fff;}.cls-19{fill:#ffb79f;}.cls-20{fill:#f7931e;}.cls-21{fill:#2e3192;}.cls-22{fill:#603813;}.cls-23{fill:#a67c52;}.cls-24{fill:#efc39c;}.cls-25{stroke-width:3px;}.cls-26{fill:#964e18;}.cls-27{fill:red;}</style><radialGradient id="radial-gradient" cx="210.5" cy="370.6688" r="376.4845" gradientTransform="translate(0 -222.0043) scale(1 1.5989)" gradientUnits="userSpaceOnUse"><stop offset="0" stop-color="#fff"/><stop offset="0.2473" stop-color="#f8f8f8"/><stop offset="0.4249" stop-color="#d8d8d8"/><stop offset="0.813" stop-color="#858585"/><stop offset="0.9987" stop-color="#5c5c5c"/></radialGradient><radialGradient id="radial-gradient-2" cx="210.5" cy="370.6688" r="368.7645" gradientTransform="translate(0 -230.8975) scale(1 1.6229)" xlink:href="#radial-gradient"/></defs><title>Artboard 6</title><g id="iphonebund"><rect class="cls-1" x="-46.1298" y="-95.8312" width="513.2595" height="933" rx="41.256"/><path class="cls-2" d="M425.8738-94.8312a40.3017,40.3017,0,0,1,40.256,40.256v850.488a40.3018,40.3018,0,0,1-40.256,40.256H-4.8738a40.3018,40.3018,0,0,1-40.256-40.256V-54.5752a40.3017,40.3017,0,0,1,40.256-40.256H425.8738m0-1H-4.8738A41.3772,41.3772,0,0,0-46.13-54.5752v850.488a41.3773,41.3773,0,0,0,41.256,41.256H425.8738a41.3773,41.3773,0,0,0,41.256-41.256V-54.5752a41.3772,41.3772,0,0,0-41.256-41.256Z"/><rect class="cls-3" x="-38" y="-87.8312" width="497" height="917" rx="35.2253"/><path class="cls-4" d="M423.7747-86.8312A34.2641,34.2641,0,0,1,458-52.6059V793.9435a34.2641,34.2641,0,0,1-34.2253,34.2253H-2.7747A34.2641,34.2641,0,0,1-37,793.9435V-52.6059A34.2641,34.2641,0,0,1-2.7747-86.8312H423.7747m0-1H-2.7747A35.3289,35.3289,0,0,0-38-52.6059V793.9435A35.3289,35.3289,0,0,0-2.7747,829.1688H423.7747A35.3289,35.3289,0,0,0,459,793.9435V-52.6059a35.3288,35.3288,0,0,0-35.2253-35.2253Z"/><rect class="cls-5" width="422" height="694.2851"/><rect class="cls-6" y="94.1688" width="422" height="600.1163"/><rect class="cls-6" x="104.32" y="33.3258" width="7.8219" height="42.6281" rx="3.911" transform="translate(0.4016 110.0682) rotate(-53.9916)"/><circle class="cls-6" cx="96.6372" cy="45.3917" r="19.223"/><circle class="cls-5" cx="96.6372" cy="45.3917" r="13.9804"/><path class="cls-6" d="M144.5693,61.9857l-7.48-22.9136h3.1963l3.5694,11.2866c.9863,3.0937,1.8359,5.8813,2.4472,8.5674h.0684c.6465-2.6519,1.5977-5.5415,2.6182-8.5332l3.875-11.3208h3.1621L147.833,61.9857Z"/><path class="cls-6" d="M158.9512,54.3025c.0683,4.0455,2.6523,5.7115,5.6435,5.7115a10.82,10.82,0,0,0,4.5557-.85l.51,2.1416a13.3238,13.3238,0,0,1-5.4737,1.02c-5.0654,0-8.0908-3.3315-8.0908-8.2949s2.9238-8.8731,7.7168-8.8731c5.3721,0,6.8,4.7251,6.8,7.751a11.249,11.249,0,0,1-.1025,1.394Zm8.7715-2.142c.0341-1.9039-.7823-4.8614-4.1475-4.8614-3.0264,0-4.3516,2.7876-4.59,4.8614Z"/><path class="cls-6" d="M174.3193,49.9847c0-1.7-.0341-3.0933-.1357-4.4536h2.6514l.1709,2.72h.0673a6.0519,6.0519,0,0,1,5.4395-3.0933c2.2783,0,5.8135,1.36,5.8135,7.003v9.8252H185.335V52.5008c0-2.6519-.9864-4.8618-3.8077-4.8618a4.3877,4.3877,0,0,0-4.2158,4.4536v9.8931h-2.9922Z"/><path class="cls-6" d="M193.19,49.9847c0-1.7-.0333-3.0933-.1358-4.4536h2.6514l.17,2.72h.0684a6.0517,6.0517,0,0,1,5.4394-3.0933c2.2783,0,5.8135,1.36,5.8135,7.003v9.8252h-2.9912V52.5008c0-2.6519-.9863-4.8618-3.8076-4.8618a4.3877,4.3877,0,0,0-4.2159,4.4536v9.8931H193.19Z"/><path class="cls-6" d="M213.7256,54.3025c.0683,4.0455,2.6514,5.7115,5.6435,5.7115a10.82,10.82,0,0,0,4.5557-.85l.51,2.1416a13.3234,13.3234,0,0,1-5.4737,1.02c-5.0654,0-8.0908-3.3315-8.0908-8.2949s2.9238-8.8731,7.7168-8.8731c5.3721,0,6.8,4.7251,6.8,7.751a11.2292,11.2292,0,0,1-.1025,1.394Zm8.7715-2.142c.0341-1.9039-.7823-4.8614-4.1475-4.8614-3.0264,0-4.3516,2.7876-4.59,4.8614Z"/><path class="cls-6" d="M229.0938,50.6649c0-1.938-.0333-3.6036-.1358-5.1338h2.6182l.1015,3.23h.1358a4.9366,4.9366,0,0,1,4.5556-3.6035,3.2149,3.2149,0,0,1,.85.1021v2.8213a4.4953,4.4953,0,0,0-1.02-.1016c-2.1074,0-3.6035,1.5977-4.0117,3.8413a8.4885,8.4885,0,0,0-.1357,1.3941v8.771h-2.958Z"/><path d="M111.4258,115.4861h-7.0723v6.5591h7.8819v1.9707h-10.23V105.8226h9.8252v1.9707h-7.4776v5.7495h7.0723Z"/><path d="M115.209,114.4876c0-1.35-.0274-2.4565-.1084-3.5361H117.18l.1074,2.1054h.0811a4.5021,4.5021,0,0,1,4.1025-2.4023,3.8612,3.8612,0,0,1,3.6982,2.6182h.0538a5.3865,5.3865,0,0,1,1.458-1.7007,4.4594,4.4594,0,0,1,2.8886-.9175c1.7276,0,4.2911,1.1338,4.2911,5.6685v7.6928h-2.3213V116.62c0-2.51-.917-4.0219-2.834-4.0219a3.0757,3.0757,0,0,0-2.8076,2.16,3.924,3.924,0,0,0-.1885,1.1875v8.0708h-2.3213v-7.8281c0-2.0781-.918-3.59-2.7266-3.59a3.5387,3.5387,0,0,0-3.1308,3.5361v7.8818H115.209Z"/><path d="M140.3721,107.2806a1.4713,1.4713,0,0,1-2.9424,0,1.4471,1.4471,0,0,1,1.4844-1.4849A1.4105,1.4105,0,0,1,140.3721,107.2806Zm-2.6455,16.7353V110.9515h2.375v13.0644Z"/><path d="M144.0439,104.8509h2.375v19.165h-2.375Z"/><path d="M171.5527,116.0262c-.1357-2.5376-.2968-5.5874-.27-7.855h-.081c-.6211,2.1323-1.376,4.4-2.294,6.91l-3.2119,8.8266h-1.7822l-2.9424-8.6645c-.8633-2.5645-1.5918-4.9131-2.1055-7.0723h-.0537c-.0537,2.2676-.1885,5.3174-.3506,8.0439l-.4863,7.8008h-2.24l1.2685-18.1933h2.9961l3.1045,8.8c.7559,2.24,1.377,4.2378,1.836,6.1274h.081c.458-1.8354,1.1065-3.833,1.916-6.1274l3.2393-8.8h2.9961l1.1338,18.1933h-2.295Z"/><path d="M185.2432,124.0159l-.1885-1.6465h-.0811a4.8657,4.8657,0,0,1-3.9951,1.9434,3.722,3.722,0,0,1-3.9951-3.752c0-3.1582,2.8076-4.8857,7.8555-4.8588v-.27a2.6934,2.6934,0,0,0-2.97-3.0234,6.5069,6.5069,0,0,0-3.4.9717l-.54-1.5655a8.1092,8.1092,0,0,1,4.292-1.1606c3.9951,0,4.9668,2.7261,4.9668,5.3442v4.8858a18.3808,18.3808,0,0,0,.2158,3.1313Zm-.3506-6.667c-2.5908-.0542-5.5332.4048-5.5332,2.9419a2.102,2.102,0,0,0,2.24,2.2676,3.2507,3.2507,0,0,0,3.1582-2.1865,2.4759,2.4759,0,0,0,.1348-.7559Z"/><path d="M202.3066,104.8509v15.791c0,1.1606.0264,2.4834.1075,3.374h-2.1329l-.1074-2.2676H200.12a4.8326,4.8326,0,0,1-4.4541,2.5645c-3.1582,0-5.5879-2.6724-5.5879-6.64-.0263-4.3457,2.6729-7.0181,5.8574-7.0181a4.3683,4.3683,0,0,1,3.9415,1.9976h.0537v-7.8013Zm-2.3759,11.418a4.185,4.185,0,0,0-.1075-.9986,3.494,3.494,0,0,0-3.4287-2.7534c-2.456,0-3.914,2.16-3.914,5.0479,0,2.645,1.2959,4.8315,3.86,4.8315a3.5716,3.5716,0,0,0,3.4824-2.834,4.1233,4.1233,0,0,0,.1075-1.0259Z"/><path d="M205.9268,121.5867a6.2291,6.2291,0,0,0,3.1308.9449c1.7276,0,2.5381-.8638,2.5381-1.9439,0-1.1338-.6748-1.7544-2.43-2.4023-2.3486-.8365-3.4551-2.1324-3.4551-3.6978,0-2.1055,1.7-3.833,4.5079-3.833a6.5226,6.5226,0,0,1,3.2119.81l-.5938,1.7275a5.0867,5.0867,0,0,0-2.6719-.7559c-1.4043,0-2.1865.81-2.1865,1.7818,0,1.08.7822,1.5654,2.4834,2.2134,2.2676.8637,3.4277,1.9975,3.4277,3.9409,0,2.2944-1.7812,3.914-4.8857,3.914a7.4532,7.4532,0,0,1-3.6709-.8906Z"/><path d="M216.835,124.0159c.0537-.8906.1084-2.2134.1084-3.374v-15.791h2.3476v8.206h.0547a4.8663,4.8663,0,0,1,4.4531-2.4023c3.2393,0,5.5342,2.6992,5.5069,6.667,0,4.67-2.9424,6.9912-5.8575,6.9912a4.6545,4.6545,0,0,1-4.373-2.4565h-.0811l-.1074,2.16Zm2.456-5.2368a4.4614,4.4614,0,0,0,.1084.8638,3.6654,3.6654,0,0,0,3.5635,2.78c2.4834,0,3.9678-2.0245,3.9678-5.0206,0-2.6181-1.35-4.8588-3.8868-4.8588a3.7863,3.7863,0,0,0-3.6171,2.9155,4.6286,4.6286,0,0,0-.1358.9717Z"/><path d="M229.12,127.7947a3.8445,3.8445,0,0,0,2.5918-.9985c.6475-.7559.8906-1.7817.8906-4.9126V110.9515h2.375v11.85c0,2.5376-.4043,4.1841-1.5654,5.3716a6.0288,6.0288,0,0,1-4.0488,1.4848Zm6.1279-20.5141a1.395,1.395,0,0,1-1.4853,1.4575,1.4177,1.4177,0,0,1-1.457-1.4575,1.4538,1.4538,0,0,1,1.5117-1.4849A1.4041,1.4041,0,0,1,235.248,107.2806Z"/><path d="M240.1885,117.9153c.0537,3.2124,2.1054,4.5352,4.4814,4.5352a8.586,8.586,0,0,0,3.6162-.6748l.4053,1.7a10.582,10.582,0,0,1-4.3457.81c-4.0225,0-6.4248-2.6455-6.4248-6.5864s2.3213-7.0449,6.1279-7.0449c4.2647,0,5.3985,3.752,5.3985,6.1543a8.8633,8.8633,0,0,1-.0811,1.1064Zm6.9638-1.7c.0274-1.5117-.62-3.86-3.2929-3.86-2.4024,0-3.4551,2.2134-3.6436,3.86Z"/><path d="M252.3926,115.0272c0-1.5386-.0274-2.8609-.1084-4.0757h2.0791l.08,2.5644h.1084a3.9192,3.9192,0,0,1,3.6171-2.8613,2.5622,2.5622,0,0,1,.6749.0811v2.24a3.56,3.56,0,0,0-.81-.0811,3.3326,3.3326,0,0,0-3.1856,3.05,6.7112,6.7112,0,0,0-.1084,1.1065v6.9643h-2.3476Z"/><path d="M272.2617,110.9515c-.0537.9448-.1084,1.9975-.1084,3.59v7.585c0,2.9966-.5937,4.832-1.8623,5.9653a6.9249,6.9249,0,0,1-4.751,1.5659,8.4334,8.4334,0,0,1-4.3457-1.08l.5938-1.8086a7.3722,7.3722,0,0,0,3.833,1.0254c2.43,0,4.2109-1.2685,4.2109-4.5615v-1.4575h-.0537a4.6645,4.6645,0,0,1-4.1572,2.186c-3.2393,0-5.5606-2.7529-5.5606-6.37,0-4.4267,2.8887-6.937,5.8848-6.937a4.3462,4.3462,0,0,1,4.0762,2.2671h.0537l.1084-1.97Zm-2.456,5.1557a3.3718,3.3718,0,0,0-.1358-1.08,3.4207,3.4207,0,0,0-3.3193-2.51c-2.2676,0-3.8877,1.9165-3.8877,4.94,0,2.564,1.2959,4.6968,3.86,4.6968a3.4719,3.4719,0,0,0,3.293-2.43,4.1373,4.1373,0,0,0,.19-1.2685Z"/><path d="M98.7393,202.7947a3.8447,3.8447,0,0,0,2.5918-.9985c.6474-.7559.8906-1.7817.8906-4.9126V185.9515h2.375v11.85c0,2.5376-.4043,4.1841-1.5655,5.3716a6.0286,6.0286,0,0,1-4.0488,1.4848Zm6.1279-20.5141a1.3951,1.3951,0,0,1-1.4854,1.4575,1.4177,1.4177,0,0,1-1.457-1.4575,1.4538,1.4538,0,0,1,1.5117-1.4849A1.4042,1.4042,0,0,1,104.8672,182.2806Z"/><path d="M120.3076,192.3758c0,4.8315-3.3467,6.937-6.5049,6.937-3.5361,0-6.2627-2.5913-6.2627-6.7212,0-4.373,2.8614-6.937,6.4786-6.937C117.7705,185.6546,120.3076,188.3807,120.3076,192.3758Zm-10.3652.1348c0,2.8613,1.6465,5.021,3.9687,5.021,2.2666,0,3.9678-2.1329,3.9678-5.0748,0-2.2133-1.1074-5.021-3.9141-5.021S109.9424,190.0272,109.9424,192.5106Z"/><path d="M130.542,199.0159l-.1885-1.6465h-.081a4.8661,4.8661,0,0,1-3.9952,1.9434,3.722,3.722,0,0,1-3.9951-3.752c0-3.1582,2.8076-4.8857,7.8555-4.8588v-.27a2.6934,2.6934,0,0,0-2.97-3.0234,6.5072,6.5072,0,0,0-3.4.9717l-.54-1.5655a8.1092,8.1092,0,0,1,4.292-1.1606c3.9951,0,4.9668,2.7261,4.9668,5.3442v4.8858a18.3808,18.3808,0,0,0,.2158,3.1313Zm-.3506-6.667c-2.5908-.0542-5.5332.4048-5.5332,2.9419a2.102,2.102,0,0,0,2.24,2.2676,3.2507,3.2507,0,0,0,3.1582-2.1865,2.4759,2.4759,0,0,0,.1348-.7559Z"/><path d="M136.3223,189.4876c0-1.35-.0274-2.4565-.1084-3.5361h2.1054l.1348,2.1592h.0547a4.8029,4.8029,0,0,1,4.3183-2.4561c1.8086,0,4.6163,1.08,4.6163,5.5605v7.8008h-2.376v-7.5307c0-2.1055-.7822-3.86-3.0225-3.86a3.4841,3.4841,0,0,0-3.3476,3.5361v7.855h-2.375Z"/><path d="M151.3066,189.4876c0-1.35-.0273-2.4565-.1084-3.5361h2.1055l.1348,2.1592h.0547a4.8028,4.8028,0,0,1,4.3183-2.4561c1.8086,0,4.6162,1.08,4.6162,5.5605v7.8008h-2.3759v-7.5307c0-2.1055-.7823-3.86-3.0225-3.86a3.4844,3.4844,0,0,0-3.3477,3.5361v7.855h-2.375Z"/><path d="M173.5244,199.0159l-.1885-1.6465h-.081a4.8657,4.8657,0,0,1-3.9951,1.9434,3.7221,3.7221,0,0,1-3.9952-3.752c0-3.1582,2.8077-4.8857,7.8555-4.8588v-.27a2.6934,2.6934,0,0,0-2.97-3.0234,6.5072,6.5072,0,0,0-3.4.9717l-.54-1.5655a8.1092,8.1092,0,0,1,4.292-1.1606c3.9951,0,4.9668,2.7261,4.9668,5.3442v4.8858a18.3808,18.3808,0,0,0,.2158,3.1313Zm-.3506-6.667c-2.5908-.0542-5.5332.4048-5.5332,2.9419a2.102,2.102,0,0,0,2.24,2.2676,3.2508,3.2508,0,0,0,3.1582-2.1865,2.4787,2.4787,0,0,0,.1347-.7559Z"/><path d="M184.4609,188.1107a1.609,1.609,0,1,1,3.2129,0,1.6078,1.6078,0,1,1-3.2129,0Zm0,9.5288a1.6091,1.6091,0,1,1,3.2129,0,1.6078,1.6078,0,1,1-3.2129,0Z"/><path d="M189.1865,202.282a18.2707,18.2707,0,0,0,3.4014-11.04,17.8944,17.8944,0,0,0-3.4014-10.959h1.835a17.1917,17.1917,0,0,1,3.5361,10.9859,17.5221,17.5221,0,0,1-3.5361,11.0131Z"/><path d="M101.6816,261.1546a8.3231,8.3231,0,0,0,4.211,1.188c2.4023,0,3.8056-1.2691,3.8056-3.1045,0-1.7-.9716-2.6724-3.4277-3.6167-2.97-1.0527-4.8047-2.5913-4.8047-5.1558,0-2.8344,2.3487-4.94,5.8848-4.94a8.2627,8.2627,0,0,1,4.0215.8911l-.6475,1.9165a7.2422,7.2422,0,0,0-3.4551-.8638c-2.4834,0-3.4287,1.4844-3.4287,2.7261,0,1.7007,1.1074,2.5371,3.6172,3.5093,3.0772,1.1875,4.6426,2.6719,4.6426,5.3442,0,2.8072-2.0781,5.2368-6.37,5.2368a9.4035,9.4035,0,0,1-4.6426-1.1606Z"/><path d="M127.22,257.3758c0,4.8315-3.3467,6.937-6.5049,6.937-3.5361,0-6.2627-2.5913-6.2627-6.7212,0-4.373,2.8614-6.937,6.4786-6.937C124.6826,250.6546,127.22,253.3807,127.22,257.3758Zm-10.3652.1348c0,2.8613,1.6465,5.021,3.9687,5.021,2.2666,0,3.9678-2.1329,3.9678-5.0748,0-2.2133-1.1074-5.021-3.914-5.021S116.8545,255.0272,116.8545,257.5106Z"/><path d="M130.4639,264.0159V252.76h-1.836v-1.8086h1.836V250.25c0-3.4551,2.0244-5.6958,5.6953-5.6958a6.5341,6.5341,0,0,1,3.3193.8638l-.6748,1.8086a4.99,4.99,0,0,0-2.7529-.7559c-2.51,0-3.2393,1.7544-3.2393,3.833v.648h7.585v13.0644h-2.3477V252.76h-5.2373v11.2558Z"/><path d="M145.6641,257.9153c.0537,3.2124,2.1054,4.5352,4.48,4.5352a8.5878,8.5878,0,0,0,3.6172-.6748l.4053,1.7a10.582,10.582,0,0,1-4.3457.81c-4.0225,0-6.4248-2.6455-6.4248-6.5864s2.3213-7.0449,6.1279-7.0449c4.2647,0,5.3985,3.752,5.3985,6.1543a8.8829,8.8829,0,0,1-.0811,1.1064Zm6.9638-1.7c.0274-1.5117-.62-3.86-3.2929-3.86-2.4024,0-3.4551,2.2134-3.6436,3.86Z"/><path d="M102.0059,314.0389a27.2075,27.2075,0,0,1,4.5078-.3511,7.4744,7.4744,0,0,1,5.1015,1.5117,4.8934,4.8934,0,0,1,1.5928,3.8057,5.3548,5.3548,0,0,1-1.4043,3.8872,7.5362,7.5362,0,0,1-5.5605,1.9975,8.0976,8.0976,0,0,1-1.89-.1621v7.2881h-2.3476Zm2.3476,8.7724a7.8928,7.8928,0,0,0,1.9444.189c2.8339,0,4.5615-1.3765,4.5615-3.8867,0-2.4024-1.7012-3.5635-4.292-3.5635a9.8684,9.8684,0,0,0-2.2139.189Z"/><path d="M116.1543,312.8509h2.375v8.1518h.0537a4.4038,4.4038,0,0,1,1.7012-1.6733,4.886,4.886,0,0,1,2.4287-.6748c1.7549,0,4.5625,1.08,4.5625,5.5874v7.7739h-2.376V324.512c0-2.1054-.7822-3.8872-3.0224-3.8872A3.413,3.413,0,0,0,118.6914,323a2.8783,2.8783,0,0,0-.1621,1.1338v7.8818h-2.375Z"/><path d="M133.7842,315.2806a1.4713,1.4713,0,0,1-2.9424,0,1.4471,1.4471,0,0,1,1.4844-1.4849A1.4105,1.4105,0,0,1,133.7842,315.2806Zm-2.6455,16.7353V318.9515h2.375v13.0644Z"/><path d="M137.4561,312.8509h2.375v19.165h-2.375Z"/><path d="M146.4736,315.2806a1.4713,1.4713,0,0,1-2.9424,0,1.4471,1.4471,0,0,1,1.4844-1.4849A1.4105,1.4105,0,0,1,146.4736,315.2806Zm-2.6455,16.7353V318.9515h2.375v13.0644Z"/><path d="M150.1455,323.2161c0-1.6733-.0547-3.0229-.1084-4.2646H152.17l.1074,2.24h.0547a5.1358,5.1358,0,0,1,4.6426-2.5371c3.1582,0,5.5332,2.6724,5.5332,6.64,0,4.6968-2.8613,7.0181-5.9385,7.0181a4.58,4.58,0,0,1-4.0214-2.0513h-.0538v7.0992h-2.3486Zm2.3486,3.4824a5.3783,5.3783,0,0,0,.1075.9717,3.665,3.665,0,0,0,3.5634,2.78c2.51,0,3.9678-2.0518,3.9678-5.0479,0-2.6181-1.3769-4.8588-3.8867-4.8588a3.7913,3.7913,0,0,0-3.5908,2.9423,3.8475,3.8475,0,0,0-.1612.9717Z"/><path d="M105.7305,382.8226h2.3486v12.1743c0,4.832-2.376,6.3164-5.5068,6.3164a7.622,7.622,0,0,1-2.51-.4317l.3506-1.9169a5.6115,5.6115,0,0,0,1.9707.3505c2.1055,0,3.3467-.9453,3.3467-4.5078Z"/><path d="M122.8467,397.4529c0,1.35.0273,2.5371.1084,3.5635H120.85l-.1348-2.1328H120.66a4.9142,4.9142,0,0,1-4.3184,2.43c-2.0518,0-4.5078-1.1348-4.5078-5.7227v-7.6391h2.375v7.2339c0,2.4834.7558,4.1572,2.915,4.1572a3.4362,3.4362,0,0,0,3.1319-2.16,3.4762,3.4762,0,0,0,.2158-1.2148v-8.0161h2.375Z"/><path d="M126.792,381.8509h2.375v19.1655h-2.375Z"/><path d="M135.81,384.2806a1.4713,1.4713,0,0,1-2.9424,0,1.4471,1.4471,0,0,1,1.4844-1.4849A1.4105,1.4105,0,0,1,135.81,384.2806Zm-2.6455,16.7358V387.9515h2.375v13.0649Z"/><path d="M140.8037,394.9149c.0537,3.2128,2.1055,4.5351,4.4815,4.5351a8.6044,8.6044,0,0,0,3.6162-.6738l.4052,1.6992a10.5631,10.5631,0,0,1-4.3457.8105c-4.0224,0-6.4248-2.6455-6.4248-6.5859s2.3213-7.0454,6.128-7.0454c4.2646,0,5.3984,3.7524,5.3984,6.1548a8.8474,8.8474,0,0,1-.0811,1.1055Zm6.9639-1.6993c.0273-1.5117-.62-3.86-3.293-3.86-2.4023,0-3.4551,2.2138-3.6435,3.86Z"/><path d="M105.4609,449.82H99.9268v-1.997h13.47v1.997h-5.5606v16.1963h-2.375Z"/><path d="M114.1289,457.0272c0-1.5381-.0273-2.86-.1084-4.0752H116.1l.08,2.5644h.1084a3.918,3.918,0,0,1,3.6172-2.8613,2.5845,2.5845,0,0,1,.6748.08v2.24a3.5922,3.5922,0,0,0-.81-.08,3.3315,3.3315,0,0,0-3.1855,3.05,6.7,6.7,0,0,0-.1084,1.1065v6.9648h-2.3477Z"/><path d="M134.5107,459.3758c0,4.832-3.3466,6.9375-6.5048,6.9375-3.5362,0-6.2627-2.5918-6.2627-6.7217,0-4.373,2.8613-6.9365,6.4785-6.9365C131.9736,452.6551,134.5107,455.3807,134.5107,459.3758Zm-10.3652.1348c0,2.8613,1.6465,5.0214,3.9688,5.0214,2.2666,0,3.9677-2.1328,3.9677-5.0752,0-2.2138-1.1074-5.02-3.914-5.02S124.1455,457.0272,124.1455,459.5106Z"/><path d="M138.834,459.9149c.0537,3.2128,2.1055,4.5351,4.4805,4.5351a8.6056,8.6056,0,0,0,3.6171-.6738l.4053,1.6992a10.5634,10.5634,0,0,1-4.3457.8105c-4.0224,0-6.4248-2.6455-6.4248-6.5859s2.3213-7.0449,6.1279-7.0449c4.2647,0,5.3985,3.7519,5.3985,6.1543a8.8474,8.8474,0,0,1-.0811,1.1055Zm6.9639-1.6993c.0273-1.5117-.62-3.86-3.293-3.86-2.4024,0-3.4551,2.2138-3.6436,3.86Z"/><path d="M151.0381,446.85h2.375v19.166h-2.375Z"/><path d="M157.0859,463.5867a6.2249,6.2249,0,0,0,3.1309.9453c1.7275,0,2.5381-.8642,2.5381-1.9443,0-1.1338-.6748-1.7549-2.43-2.4023-2.3486-.837-3.4551-2.1319-3.4551-3.6983,0-2.1055,1.7-3.832,4.5078-3.832a6.5225,6.5225,0,0,1,3.2119.8086l-.5937,1.7285a5.0821,5.0821,0,0,0-2.6719-.7559c-1.4043,0-2.1865.81-2.1865,1.7813,0,1.08.7822,1.5654,2.4834,2.2129,2.2676.8642,3.4277,1.998,3.4277,3.9414,0,2.2949-1.7812,3.914-4.8857,3.914a7.4586,7.4586,0,0,1-3.6709-.8906Z"/><path d="M117.3379,524.0262c-.1358-2.5371-.2969-5.5879-.27-7.8555h-.0811c-.6211,2.1328-1.3759,4.4-2.2939,6.91l-3.2119,8.8271h-1.7823l-2.9423-8.665c-.8633-2.5645-1.5918-4.9121-2.1055-7.0723h-.0537c-.0537,2.2676-.1885,5.3184-.3506,8.0449l-.4863,7.8008h-2.24l1.2686-18.1933h2.9961l3.1045,8.7988c.7558,2.24,1.3769,4.2383,1.8359,6.1279h.0811c.458-1.8349,1.1064-3.833,1.916-6.1279l3.2392-8.7988h2.9961l1.1338,18.1933h-2.2949Z"/><path d="M126.6025,515.28a1.4712,1.4712,0,0,1-2.9423,0,1.4472,1.4472,0,0,1,1.4843-1.4844A1.4105,1.4105,0,0,1,126.6025,515.28Zm-2.6455,16.7363V518.952h2.375v13.0644Z"/><path d="M130.2744,512.85h2.375v19.166h-2.375Z"/><path d="M136.6465,512.85h2.375v19.166h-2.375Z"/><path d="M144.3408,525.9149c.0537,3.2128,2.1055,4.5351,4.4815,4.5351a8.604,8.604,0,0,0,3.6162-.6738l.4053,1.6992a10.564,10.564,0,0,1-4.3458.81c-4.0224,0-6.4248-2.6455-6.4248-6.5859s2.3213-7.0449,6.128-7.0449c4.2646,0,5.3984,3.7519,5.3984,6.1543a8.8711,8.8711,0,0,1-.081,1.1055Zm6.9639-1.6993c.0273-1.5117-.62-3.86-3.293-3.86-2.4023,0-3.4551,2.2138-3.6435,3.86Z"/><circle class="cls-6" cx="326.8385" cy="37.6416" r="11.0542"/><path class="cls-6" d="M326.8385,50.17c-11.0375-.02-23.9854,13.7176-19.6612,17.0562,3.4376,2.6541,8.9447,1.6815,19.9823,1.7012s18.4455.7849,19.9882-1.63C349.4859,63.6375,337.876,50.1893,326.8385,50.17Z"/><path class="cls-6" d="M351.71,32.1145h-3.5v-3.5a1.29,1.29,0,0,0-2.5793,0v3.5h-3.5a1.29,1.29,0,1,0,0,2.5793h3.5v3.5a1.29,1.29,0,0,0,2.5793,0v-3.5h3.5a1.29,1.29,0,1,0,0-2.5793Z"/><path class="cls-6" d="M387.2151,33.0827h-20.28A5.953,5.953,0,0,0,361,39.0182v20.28a5.953,5.953,0,0,0,5.9355,5.9355h18.6473l6.0839,5.9355c1.4838,0,1.4838-6.628,1.4838-9.8925V39.0182A5.9529,5.9529,0,0,0,387.2151,33.0827Z"/><path class="cls-6" d="M405.7934,30.82h-4.4441V26.3753a1.21,1.21,0,0,0-1.2066-1.2065h-.63a1.21,1.21,0,0,0-1.2065,1.2065V30.82h-4.4442a1.21,1.21,0,0,0-1.2066,1.2065v.63a1.21,1.21,0,0,0,1.2066,1.2065h4.4442v4.4442a1.21,1.21,0,0,0,1.2065,1.2065h.63a1.21,1.21,0,0,0,1.2066-1.2065V33.8621h4.4441A1.21,1.21,0,0,0,407,32.6556v-.63A1.21,1.21,0,0,0,405.7934,30.82Z"/><line class="cls-7" y1="163.6688" x2="422" y2="163.6688"/><line class="cls-7" y1="239.1688" x2="422" y2="239.1688"/><line class="cls-7" y1="306.1688" x2="422" y2="306.1688"/><line class="cls-7" y1="377.1688" x2="422" y2="377.1688"/><line class="cls-7" y1="442.1688" x2="422" y2="442.1688"/><line class="cls-7" y1="507.1688" x2="422" y2="507.1688"/><line class="cls-7" y1="572.1688" x2="422" y2="572.1688"/><rect class="cls-8" y="627.1688" width="422" height="67"/><path class="cls-1" d="M121.2151,637.0827h-20.28A5.9529,5.9529,0,0,0,95,643.0182v20.28a5.9529,5.9529,0,0,0,5.9355,5.9355h18.6473l6.0839,5.9355c1.4838,0,1.4838-6.628,1.4838-9.8926v-22.258A5.953,5.953,0,0,0,121.2151,637.0827Z"/><path class="cls-1" d="M125,678.1688H97a1,1,0,0,0,0,2h28a1,1,0,0,0,0-2Z"/><circle class="cls-9" cx="211" cy="661.1688" r="25"/><rect class="cls-1" x="272" y="636.7488" width="20.24" height="36.96" rx="5.5645"/><rect class="cls-1" x="294" y="640.2688" width="20.24" height="36.96" rx="5.5645"/><circle class="cls-10" cx="309.84" cy="640.2688" r="6.16"/></g><g id="snap_personer" data-name="snap personer"><path class="cls-11" d="M33.1784,335.6641a1.3194,1.3194,0,0,0,.4326-.0741c2.0259,11.0545,7.51,16.89,15.7611,16.8855,8.22-.0043,13.6879-6.3271,15.7209-16.9041a1.3224,1.3224,0,0,0,.459.0844c1.2036-.0006,2.1784-1.6737,2.1774-3.7369s-.9777-3.7354-2.1812-3.7348l-.0034,0c-1.1112-8.6914-8.5327-15.25-16.1932-15.2466-7.659.004-15.0248,6.5626-16.1563,15.2561l-.0169-.0014c-1.2036,0-2.1793,1.6725-2.1793,3.7358S31.9748,335.6641,33.1784,335.6641Z"/><path class="cls-11" d="M49.5278,352.4754C31.56,352.4847,17,362.4546,17,362.4546s14.5706,9.9546,32.5381,9.9453,32.5278-9.9791,32.5278-9.9791S67.4953,352.4661,49.5278,352.4754Z"/><path class="cls-12" d="M33.1784,467.6641a1.3194,1.3194,0,0,0,.4326-.0741c2.0259,11.0545,7.51,16.89,15.7611,16.8855,8.22-.0043,13.6879-6.3271,15.7209-16.9041a1.3224,1.3224,0,0,0,.459.0844c1.2036-.0006,2.1784-1.6737,2.1774-3.7369s-.9777-3.7354-2.1812-3.7348l-.0034,0c-1.1112-8.6914-8.5327-15.25-16.1932-15.2466-7.659.004-15.0248,6.5626-16.1563,15.2561l-.0169-.0014c-1.2036,0-2.1793,1.6725-2.1793,3.7358S31.9748,467.6641,33.1784,467.6641Z"/><path class="cls-12" d="M49.5278,484.4754C31.56,484.4847,17,494.4546,17,494.4546s14.5706,9.9546,32.5381,9.9453,32.5278-9.9791,32.5278-9.9791S67.4953,484.4661,49.5278,484.4754Z"/><path class="cls-13" d="M32.1784,532.6641a1.3194,1.3194,0,0,0,.4326-.0741c2.0259,11.0545,7.51,16.89,15.7611,16.8855,8.22-.0043,13.6879-6.3271,15.7209-16.9041a1.3224,1.3224,0,0,0,.459.0844c1.2036-.0006,2.1784-1.6737,2.1774-3.7369s-.9777-3.7354-2.1812-3.7348l-.0034,0c-1.1112-8.6914-8.5327-15.25-16.1932-15.2466-7.659.004-15.0248,6.5626-16.1563,15.2561l-.0169-.0014c-1.2036,0-2.1793,1.6725-2.1793,3.7358S30.9748,532.6641,32.1784,532.6641Z"/><path class="cls-13" d="M48.5278,549.4754C30.56,549.4847,16,559.4546,16,559.4546s14.5706,9.9546,32.5381,9.9453,32.5278-9.9791,32.5278-9.9791S66.4953,549.4661,48.5278,549.4754Z"/><path class="cls-14" d="M15.38,434.7068c-.52-8.84-1.5671-17.0659-1.5671-20.8495,0-19.158,15.306-34.6885,34.1869-34.6885s34.1869,15.5305,34.1869,34.6885c0,4.0585-2.4479,12.4864-3.8188,21.3847"/><path class="cls-15" d="M73.1169,410.3884c0,6.5976.341,13.1992-3.9536,17.5755C64.7286,432.483,54.8514,434.67,48,434.67c-7.2863,0-16.9217-1.6739-21.3959-6.7065-3.8072-4.2823-3.721-11.41-3.721-17.5755,0-13.4105,11.63-24.2819,25.1169-24.2819S73.1169,396.9779,73.1169,410.3884Z"/><path class="cls-12" d="M22.8831,411.5447c.2325,9.4815.4651,7.169,3.9536.925C30.86,405.2685,59.3956,384.95,52.8838,384.95c-6.422,0-18.3286,3.1939-24.1866,9.019S22.7265,405.1606,22.8831,411.5447Z"/><path class="cls-12" d="M73.1854,411.5447c-.2325,9.4815-.4651,7.169-3.9536.925-4.0233-7.2012-32.86-27.5195-26.3482-27.5195,6.4221,0,18.63,3.1939,24.4877,9.019S73.342,405.1606,73.1854,411.5447Z"/><path class="cls-16" d="M33.4647,414.4664c0-2.5236,7.4421-12.0563,10.698-.4935"/><path class="cls-17" d="M31.0228,412.47a2.2124,2.2124,0,0,0,2.3257,2.0813"/><path class="cls-17" d="M32.1856,411.0822c0,1.15.6242,2.0813,1.3954,2.0813"/><path class="cls-17" d="M33.3485,409.9259c0,1.15.416,2.0813.93,2.0813"/><path class="cls-16" d="M61.7213,414.4664c0-2.5236-7.4421-12.0563-10.698-.4935"/><path class="cls-17" d="M64.1632,412.47a2.2124,2.2124,0,0,1-2.3256,2.0813"/><path class="cls-17" d="M63,411.0822c0,1.15-.6241,2.0813-1.3954,2.0813"/><path class="cls-17" d="M61.8376,409.9259c0,1.15-.4161,2.0813-.93,2.0813"/><path class="cls-16" d="M41.7208,422.645a6.9016,6.9016,0,0,0,11.8607-.925"/><ellipse class="cls-18" cx="60.0933" cy="418.7137" rx="3.721" ry="1.3875"/><ellipse class="cls-18" cx="36.6044" cy="418.7137" rx="3.721" ry="1.3875"/><path class="cls-19" d="M74.9366,277.6156c0,6.8844.3538,13.7729-4.1022,18.34-4.6015,4.7155-14.85,6.9979-21.9591,6.9979-7.56,0-17.5581-1.7467-22.2-6.9979-2.4178-2.7349-3.3223-6.5821-3.66-10.6305-.2142-2.5662-.2008-5.2132-.2008-7.709,0-13.9935,12.0679-25.3374,26.0614-25.3374S74.9366,263.6221,74.9366,277.6156Z"/><path class="cls-20" d="M22.8139,278.8221c.2413,9.8937-.1719,7.0712,4.1023.9653,5.0675-7.2393,34.2083-25.04,27.7505-27.0266a28.2557,28.2557,0,0,0-13.7548,0c-4.59,1.236-9.0831,4.74-12.0653,7.7219C22.7684,266.5609,22.6514,272.1606,22.8139,278.8221Z"/><path class="cls-20" d="M74.7664,278.34c-.2413,9.8937,1,6.3984-4.1023.9652C64.319,272.5481,36.81,252.52,43.5665,252.52c3.6723,0,9.0917-.4346,14.2372.9652A25.9206,25.9206,0,0,1,68.7337,260C74.812,266.0783,74.9289,271.6779,74.7664,278.34Z"/><path class="cls-16" d="M33.7935,281.8708c0-2.6333,7.7218-12.58,11.1-.5149"/><path class="cls-17" d="M31.26,279.7874a2.3006,2.3006,0,0,0,2.4131,2.1717"/><path class="cls-17" d="M32.4663,278.34c0,1.2.6475,2.1718,1.4478,2.1718"/><path class="cls-17" d="M33.6728,277.133c0,1.2.4317,2.1717.9652,2.1717"/><path class="cls-16" d="M63.1125,281.8708c0-2.6333-7.7219-12.58-11.1-.5149"/><path class="cls-17" d="M65.6462,279.7874a2.3006,2.3006,0,0,1-2.4131,2.1717"/><path class="cls-17" d="M64.44,278.34c0,1.2-.6476,2.1718-1.4479,2.1718"/><path class="cls-17" d="M63.2331,277.133c0,1.2-.4317,2.1717-.9652,2.1717"/><path class="cls-16" d="M42.36,290.405a7.1411,7.1411,0,0,0,12.3068-.9653"/><ellipse class="cls-18" cx="61.4233" cy="286.3027" rx="3.8609" ry="1.4479"/><ellipse class="cls-18" cx="37.0511" cy="286.3027" rx="3.8609" ry="1.4479"/><path class="cls-20" d="M2.544,265.55c-1.9412,3.647,16.1677-2.6543,20.5112-3.62,4.0331-.8962,9.4111-6.7275,9.4111-10.8589s-7.6928-7.2392-11.8242-7.2392S10.5072,250.589,2.544,265.55Z"/><path class="cls-20" d="M93.8452,264.3436c1.9411,3.647-14.932-3.8609-19.0634-3.8609s-9.4111-6.7275-9.4111-10.8589,7.6927-7.2393,11.8242-7.2393,8.6871,6.998,16.65,21.9591"/><rect class="cls-21" x="25.227" y="253.726" width="11.5828" height="6.274" rx="3.137" transform="translate(-182.7899 111.169) rotate(-48.8429)"/><rect class="cls-21" x="61.9059" y="253.726" width="11.5828" height="6.274" rx="3.137" transform="translate(170.6071 11.973) rotate(37.5583)"/><circle class="cls-22" cx="78.9939" cy="213.5553" r="3.3374"/><circle class="cls-22" cx="78.2638" cy="210.7393" r="3.0245"/><circle class="cls-22" cx="78.9939" cy="216.8927" r="3.3374"/><ellipse class="cls-22" cx="78.1595" cy="220.543" rx="3.3374" ry="4.0675"/><circle class="cls-22" cx="78.1595" cy="224.8191" r="2.5031"/><ellipse class="cls-22" cx="76.908" cy="227.635" rx="2.0859" ry="2.816"/><ellipse class="cls-22" cx="38.9448" cy="219.3958" rx="2.0859" ry="1.4601"/><ellipse class="cls-22" cx="63.1411" cy="222.316" rx="2.0859" ry="1.4601"/><ellipse class="cls-22" cx="61.0552" cy="220.2301" rx="2.0859" ry="1.4601"/><ellipse class="cls-22" cx="30.4969" cy="217.1013" rx="2.3988" ry="3.3374"/><ellipse class="cls-22" cx="33.5215" cy="219.2915" rx="4.1718" ry="2.6074"/><ellipse class="cls-22" cx="35.1902" cy="222.0031" rx="4.1718" ry="2.6074"/><ellipse class="cls-22" cx="65.227" cy="218.2485" rx="4.1718" ry="2.6074"/><circle class="cls-22" cx="67.4172" cy="215.3283" r="1.5644"/><path class="cls-23" d="M70.8589,199.1626c0,5.951.3058,11.9054-3.546,15.8528-3.9775,4.0761-12.8365,6.0491-18.9816,6.0491-6.5351,0-15.1773-1.51-19.19-6.0491-2.09-2.3641-2.8718-5.69-3.1639-9.189-.1852-2.2183-.1735-4.5064-.1735-6.6638,0-12.096,10.4315-21.9018,22.5276-21.9018S70.8589,187.0666,70.8589,199.1626Z"/><circle class="cls-22" cx="31.6442" cy="186.0215" r="5.8405"/><circle class="cls-22" cx="39.2577" cy="181.1197" r="4.9018"/><ellipse class="cls-22" cx="33.6258" cy="179.5553" rx="3.8589" ry="3.3374"/><ellipse class="cls-22" cx="46.1411" cy="179.2424" rx="3.4417" ry="4.4847"/><ellipse class="cls-22" cx="42.5951" cy="175.6964" rx="3.4417" ry="2.816"/><ellipse class="cls-22" cx="28.5153" cy="191.2362" rx="3.3374" ry="2.5031" transform="translate(-17.1113 3.3463) rotate(-5.1684)"/><circle class="cls-22" cx="25.8037" cy="198.7454" r="5.4233"/><circle class="cls-22" cx="26.8466" cy="192.4878" r="3.7546"/><ellipse class="cls-22" cx="53.4417" cy="177.2608" rx="5.1104" ry="6.4663"/><circle class="cls-22" cx="65.1227" cy="186.9602" r="3.2331"/><circle class="cls-22" cx="63.2454" cy="180.0767" r="5.1104"/><ellipse class="cls-22" cx="71.9018" cy="194.5737" rx="4.1718" ry="5.8405" transform="translate(-126.1723 132.9666) rotate(-52.4417)"/><ellipse class="cls-22" cx="73.7791" cy="207.089" rx="5.4233" ry="4.1718"/><ellipse class="cls-22" cx="26.4294" cy="209.2792" rx="3.3374" ry="6.362"/><ellipse class="cls-22" cx="24.4479" cy="206.9847" rx="6.7791" ry="4.2761"/><ellipse class="cls-22" cx="68.8773" cy="186.1258" rx="3.0245" ry="4.0675"/><ellipse class="cls-22" cx="75.2393" cy="203.7516" rx="6.2577" ry="5.0061"/><ellipse class="cls-22" cx="74.7178" cy="192.3835" rx="4.4847" ry="6.362"/><ellipse class="cls-22" cx="60.3252" cy="175.5921" rx="4.9018" ry="5.4233"/><ellipse class="cls-22" cx="46.7669" cy="174.2362" rx="4.2761" ry="3.4417"/><ellipse class="cls-22" cx="38.0061" cy="177.4694" rx="3.6503" ry="2.7117"/><ellipse class="cls-22" cx="71.6933" cy="184.4571" rx="3.9632" ry="6.7791"/><circle class="cls-22" cx="67.8344" cy="178.408" r="3.6503"/><circle class="cls-22" cx="71.0675" cy="200.6227" r="2.7117"/><ellipse class="cls-22" cx="23.7178" cy="213.7638" rx="2.7117" ry="3.1288"/><circle class="cls-22" cx="73.0491" cy="213.0338" r="3.8589"/><circle class="cls-22" cx="75.6564" cy="198.954" r="2.7117"/><ellipse class="cls-22" cx="21.2147" cy="213.0338" rx="2.5031" ry="3.8589"/><ellipse class="cls-22" cx="25.4908" cy="214.3896" rx="3.6503" ry="2.5031"/><circle class="cls-22" cx="24.135" cy="221.2731" r="4.3804"/><ellipse class="cls-22" cx="24.6564" cy="217.727" rx="5.9448" ry="3.3374"/><ellipse class="cls-22" cx="73.7791" cy="219.2915" rx="4.589" ry="6.362"/><ellipse class="cls-22" cx="30.3926" cy="194.8865" rx="1.2515" ry="3.0245"/><ellipse class="cls-22" cx="28.8282" cy="204.2731" rx="2.3988" ry="2.6074"/><ellipse class="cls-22" cx="29.2454" cy="217.9356" rx="1.1472" ry="6.6748"/><ellipse class="cls-22" cx="71.3804" cy="214.0767" rx="2.3988" ry="5.319"/><ellipse class="cls-22" cx="26.1166" cy="221.0645" rx="4.2761" ry="3.546"/><ellipse class="cls-22" cx="28.7239" cy="227.4264" rx="4.1718" ry="3.0245"/><ellipse class="cls-22" cx="30.6012" cy="222.6289" rx="3.7546" ry="4.6933"/><ellipse class="cls-22" cx="23.4049" cy="227.3221" rx="3.0245" ry="3.7546"/><ellipse class="cls-22" cx="70.7546" cy="216.8927" rx="3.0245" ry="5.6319"/><ellipse class="cls-22" cx="68.3558" cy="218.2485" rx="1.4601" ry="4.2761"/><circle class="cls-22" cx="70.6503" cy="224.1933" r="3.1288"/><circle class="cls-22" cx="74.3006" cy="225.3405" r="2.6074"/><ellipse class="cls-22" cx="24.135" cy="230.451" rx="2.2945" ry="3.7546"/><ellipse class="cls-22" cx="28.3067" cy="230.451" rx="3.7546" ry="2.2945"/><ellipse class="cls-22" cx="72.1104" cy="228.3651" rx="4.1718" ry="2.7117"/><circle class="cls-22" cx="67.1043" cy="220.6473" r="2.9202"/><ellipse class="cls-22" cx="63.1411" cy="220.8559" rx="2.0859" ry="1.4601"/><ellipse class="cls-22" cx="65.1227" cy="223.7761" rx="1.9816" ry="2.9202"/><ellipse class="cls-22" cx="68.3558" cy="225.7577" rx="4.1718" ry="2.6074"/><ellipse class="cls-22" cx="30.8098" cy="225.7577" rx="4.1718" ry="2.6074"/><path class="cls-16" d="M62.7239,200.5464c0-2.2762-6.6748-10.8746-9.5951-.4451"/><path class="cls-17" d="M64.9141,198.7454a1.9886,1.9886,0,0,1-2.0859,1.8773"/><path class="cls-17" d="M63.8712,197.4939c0,1.0377-.56,1.8773-1.2516,1.8773"/><path class="cls-17" d="M62.8282,196.451c0,1.0376-.3732,1.8773-.8343,1.8773"/><path class="cls-16" d="M37.38,200.5464c0-2.2762,6.6748-10.8746,9.5951-.4451"/><path class="cls-17" d="M35.19,198.7454a1.9886,1.9886,0,0,0,2.0859,1.8773"/><path class="cls-17" d="M36.2331,197.4939c0,1.0377.56,1.8773,1.2516,1.8773"/><path class="cls-17" d="M37.2761,196.451c0,1.0376.3732,1.8773.8343,1.8773"/><path class="cls-16" d="M44.9939,210.2178a6.1727,6.1727,0,0,0,10.638-.8343"/><ellipse class="cls-18" cx="61.4724" cy="206.6718" rx="3.3374" ry="1.2515"/><ellipse class="cls-18" cx="40.4049" cy="206.6718" rx="3.3374" ry="1.2515"/><path class="cls-24" d="M81.02,132.7888c0,16.2813-14.2214,23.98-31.9,23.98S17,149.07,17,132.7888s14.3314-29.48,32.01-29.48S81.02,116.5074,81.02,132.7888Z"/><path class="cls-25" d="M29.43,128.0588c-.85,1.6592,8.001-13.1675,17.6-.66"/><path class="cls-25" d="M43.95,145.2188c-.85,1.6592,8.001-13.1675,17.6-.66"/><path class="cls-25" d="M57.15,127.6188c-.85,1.6592,8.001-13.1675,17.6-.66"/><ellipse class="cls-26" cx="30.09" cy="112.1088" rx="4.51" ry="2.2"/><ellipse class="cls-26" cx="33.17" cy="107.7088" rx="4.51" ry="2.2"/><ellipse class="cls-26" cx="32.29" cy="109.9088" rx="4.51" ry="2.2"/><ellipse class="cls-26" cx="28.55" cy="108.3688" rx="4.51" ry="2.2"/><ellipse class="cls-26" cx="25.47" cy="111.4488" rx="4.51" ry="2.2"/><ellipse class="cls-26" cx="23.93" cy="113.8688" rx="4.51" ry="2.2"/><ellipse class="cls-26" cx="23.93" cy="116.2888" rx="4.51" ry="2.2"/><ellipse class="cls-26" cx="29.43" cy="115.4088" rx="4.51" ry="2.2"/><ellipse class="cls-26" cx="34.93" cy="114.0888" rx="4.51" ry="2.2"/><ellipse class="cls-26" cx="29.43" cy="106.6088" rx="4.51" ry="2.2"/><ellipse class="cls-26" cx="34.71" cy="111.4488" rx="4.51" ry="2.2"/><ellipse class="cls-26" cx="37.79" cy="108.8088" rx="4.51" ry="2.2"/><path class="cls-17" d="M78.38,114.0888c0,.79-.3444,1.43-.77,1.43"/><ellipse class="cls-26" cx="39.33" cy="105.5088" rx="4.51" ry="2.2"/><ellipse class="cls-26" cx="43.73" cy="103.9688" rx="4.51" ry="2.2"/><ellipse class="cls-26" cx="45.27" cy="101.7688" rx="4.51" ry="2.2"/><ellipse class="cls-26" cx="51.65" cy="102.2088" rx="4.51" ry="2.2"/><ellipse class="cls-26" cx="50.11" cy="105.5088" rx="4.51" ry="2.2"/><ellipse class="cls-26" cx="38.45" cy="103.3088" rx="4.51" ry="2.2"/><ellipse class="cls-26" cx="33.83" cy="104.4088" rx="4.51" ry="2.2"/><ellipse class="cls-26" cx="44.61" cy="107.7088" rx="4.51" ry="2.2"/><ellipse class="cls-26" cx="42.85" cy="110.5688" rx="4.51" ry="2.2"/><ellipse class="cls-26" cx="39.99" cy="112.7688" rx="4.51" ry="2.2"/><ellipse class="cls-26" cx="54.29" cy="113.8688" rx="4.51" ry="2.2"/><ellipse class="cls-26" cx="49.89" cy="109.9088" rx="4.51" ry="2.2"/><ellipse class="cls-26" cx="56.71" cy="103.3088" rx="4.51" ry="2.2"/><ellipse class="cls-26" cx="61.33" cy="105.5088" rx="4.51" ry="2.2"/><ellipse class="cls-26" cx="55.39" cy="107.0488" rx="4.51" ry="2.2"/><ellipse class="cls-26" cx="61.77" cy="107.7088" rx="4.51" ry="2.2"/><ellipse class="cls-26" cx="55.39" cy="110.5688" rx="4.51" ry="2.2"/><ellipse class="cls-26" cx="51.65" cy="106.1688" rx="4.51" ry="2.2"/><ellipse class="cls-26" cx="61.99" cy="109.9088" rx="4.51" ry="2.2"/><ellipse class="cls-26" cx="68.15" cy="107.0488" rx="4.51" ry="2.2"/><ellipse class="cls-26" cx="78.49" cy="113.2088" rx="4.51" ry="2.2"/><ellipse class="cls-26" cx="68.15" cy="109.9088" rx="4.51" ry="2.2"/><ellipse class="cls-26" cx="72.77" cy="109.9088" rx="4.51" ry="2.2"/><ellipse class="cls-26" cx="62.21" cy="109.9088" rx="4.51" ry="2.2"/><ellipse class="cls-26" cx="46.81" cy="112.7688" rx="4.51" ry="2.2"/><ellipse class="cls-26" cx="68.37" cy="113.6488" rx="4.51" ry="2.2"/><ellipse class="cls-26" cx="65.73" cy="113.2088" rx="4.51" ry="2.2"/><ellipse class="cls-26" cx="62.21" cy="113.6488" rx="4.51" ry="2.2"/><ellipse class="cls-26" cx="58.91" cy="113.8688" rx="4.51" ry="2.2"/><ellipse class="cls-26" cx="55.39" cy="113.2088" rx="4.51" ry="2.2"/><ellipse class="cls-26" cx="47.91" cy="112.7688" rx="4.51" ry="2.2"/><ellipse class="cls-26" cx="76.07" cy="112.7688" rx="4.51" ry="2.2"/><ellipse class="cls-26" cx="76.73" cy="112.1088" rx="4.51" ry="2.2"/><ellipse class="cls-26" cx="77.17" cy="115.4088" rx="4.51" ry="2.2"/><ellipse class="cls-26" cx="52.75" cy="111.0088" rx="4.51" ry="2.2"/><ellipse class="cls-26" cx="73.43" cy="113.8688" rx="4.51" ry="2.2"/><ellipse class="cls-26" cx="72.77" cy="113.2088" rx="4.51" ry="2.2"/><path class="cls-17" d="M78.38,114.0888c0,.79-.3444,1.43-.77,1.43"/><path class="cls-17" d="M72.6912,112.1572c.7051.3572,1.12.9534.9276,1.3331"/><path class="cls-17" d="M70.02,112.1088c0,.79-.3444,1.43-.77,1.43"/><path class="cls-17" d="M64.08,111.4488c0,.79-.3444,1.43-.77,1.43"/><path class="cls-17" d="M56.5474,112.4289c.5355-.5814,1.2221-.8186,1.5352-.53"/><path class="cls-17" d="M55.72,106.1688c0,.79-.3444,1.43-.77,1.43"/><path class="cls-17" d="M48.2731,111.5048c.3809-.6926.9908-1.0871,1.3638-.8821"/><path class="cls-17" d="M44.5876,109.1589a13.7656,13.7656,0,0,0,2.1494.0842"/><path class="cls-17" d="M33.94,108.3688c0,.79-.3444,1.43-.77,1.43"/><path class="cls-17" d="M29.32,113.2088c0,.79-.3444,1.43-.77,1.43"/><path class="cls-17" d="M40.32,110.7888c0,.79-.3444,1.43-.77,1.43"/><path class="cls-17" d="M41.64,104.6288c0,.79-.3444,1.43-.77,1.43"/><path class="cls-17" d="M48.1591,104.7424c.7565-.229,1.4685-.0847,1.5918.3227"/><rect class="cls-27" x="97" y="136.1688" width="21" height="21" rx="2.6124"/><path class="cls-27" d="M115.3877,215.1688a.613.613,0,0,1,.6123.6123v15.7753a.613.613,0,0,1-.6123.6124H99.6123A.613.613,0,0,1,99,231.5564V215.7811a.613.613,0,0,1,.6123-.6123h15.7754m0-2H99.6123A2.6123,2.6123,0,0,0,97,215.7811v15.7753a2.6124,2.6124,0,0,0,2.6123,2.6124h15.7754A2.6124,2.6124,0,0,0,118,231.5564V215.7811a2.6123,2.6123,0,0,0-2.6123-2.6123Z"/><path class="cls-27" d="M105.6751,283.4657l10.4512,4.7031-10.4512,4.703,2.0732-3.7318a2,2,0,0,0,0-1.9425l-2.0732-3.7318M101,279.1688l5,9-5,9,20-9-20-9Z"/><path class="cls-27" d="M115.3876,349.1688a.613.613,0,0,1,.6124.6123v15.7753a.6131.6131,0,0,1-.6124.6124H99.6124A.6131.6131,0,0,1,99,365.5564V349.7811a.613.613,0,0,1,.6124-.6123h15.7752m0-2H99.6124A2.6123,2.6123,0,0,0,97,349.7811v15.7753a2.6124,2.6124,0,0,0,2.6124,2.6124h15.7752A2.6124,2.6124,0,0,0,118,365.5564V349.7811a2.6123,2.6123,0,0,0-2.6124-2.6123Z"/><path class="cls-27" d="M115.3876,415.1688a.613.613,0,0,1,.6124.6123v15.7753a.6131.6131,0,0,1-.6124.6124H99.6124A.6131.6131,0,0,1,99,431.5564V415.7811a.613.613,0,0,1,.6124-.6123h15.7752m0-2H99.6124A2.6124,2.6124,0,0,0,97,415.7811v15.7753a2.6124,2.6124,0,0,0,2.6124,2.6124h15.7752A2.6124,2.6124,0,0,0,118,431.5564V415.7811a2.6124,2.6124,0,0,0-2.6124-2.6123Z"/><path class="cls-27" d="M115.3876,481.1688a.613.613,0,0,1,.6124.6123v15.7753a.6131.6131,0,0,1-.6124.6124H99.6124A.6131.6131,0,0,1,99,497.5564V481.7811a.613.613,0,0,1,.6124-.6123h15.7752m0-2H99.6124A2.6124,2.6124,0,0,0,97,481.7811v15.7753a2.6124,2.6124,0,0,0,2.6124,2.6124h15.7752A2.6124,2.6124,0,0,0,118,497.5564V481.7811a2.6124,2.6124,0,0,0-2.6124-2.6123Z"/><path class="cls-27" d="M115.3876,547.1688a.613.613,0,0,1,.6124.6123v15.7753a.6131.6131,0,0,1-.6124.6124H99.6124A.6131.6131,0,0,1,99,563.5564V547.7811a.613.613,0,0,1,.6124-.6123h15.7752m0-2H99.6124A2.6124,2.6124,0,0,0,97,547.7811v15.7753a2.6124,2.6124,0,0,0,2.6124,2.6124h15.7752A2.6124,2.6124,0,0,0,118,563.5564V547.7811a2.6124,2.6124,0,0,0-2.6124-2.6123Z"/></g></svg>
