<svg xmlns="http://www.w3.org/2000/svg" width="426" height="302" viewBox="0 0 426 302"><defs><style>.cls-1{fill:#e6e6e6;}</style></defs><title>spørgsmålbobbel1</title><g id="Spørgsmål"><path class="cls-1" d="M353.24,24H58.76A42.76,42.76,0,0,0,16,66.76V197.24A42.76,42.76,0,0,0,58.76,240H295.525L287,302l59.675-62H353.24A42.76,42.76,0,0,0,396,197.24V66.76A42.76,42.76,0,0,0,353.24,24Z"/><path d="M32.4648,67.8359V45h1.54v9.9736H47.791V45h1.541V67.8359H47.791V56.4375H34.0049V67.8359Z"/><path d="M58.42,67.8359l-6.123-16.4052h1.4248l5.584,14.6338,5.2754-14.6338h1.4628L60.0371,67.8359Z"/><path d="M70.0879,65.7949A8.7608,8.7608,0,0,1,67.97,59.6338a9.37,9.37,0,0,1,2.1182-6.3926,7.0292,7.0292,0,0,1,5.584-2.3877,7.1037,7.1037,0,0,1,5.584,2.3877,9.4843,9.4843,0,0,1,2.0791,6.3926,8.8641,8.8641,0,0,1-2.0791,6.1611,7.2165,7.2165,0,0,1-5.584,2.3106A7.14,7.14,0,0,1,70.0879,65.7949Zm10.0508-.9238a7.8612,7.8612,0,0,0,1.6562-5.2373,8.2033,8.2033,0,0,0-1.6562-5.3916,5.521,5.521,0,0,0-4.4668-2.041,5.4522,5.4522,0,0,0-4.4678,2.041A8.0737,8.0737,0,0,0,69.51,59.6338a7.74,7.74,0,0,0,1.6943,5.2373,5.5426,5.5426,0,0,0,4.4678,1.9639A5.6134,5.6134,0,0,0,80.1387,64.8711Z"/><path d="M87.2246,67.8359V51.4307h1.54v3.6972A6.9885,6.9885,0,0,1,90.69,52.2393a4.3009,4.3009,0,0,1,2.7725-1.0782h.8857v1.7715a.6147.6147,0,0,1-.27-.0771.41.41,0,0,0-.1543-.0772,4.432,4.432,0,0,0-3.2734,1.541,7.4064,7.4064,0,0,0-1.8868,3.89v9.6269Z"/><path d="M98.0449,65.7178a9.0993,9.0993,0,0,1-2.1181-6.084,9.4583,9.4583,0,0,1,2.1181-6.2,6.383,6.383,0,0,1,5.083-2.58,5.8756,5.8756,0,0,1,3.4659,1.1162,6.547,6.547,0,0,1,2.2333,3.0039V45h1.5411V67.8359h-1.5411v-3.35a5.44,5.44,0,0,1-2.1943,2.7343,6.1183,6.1183,0,0,1-3.5049,1.04A6.4155,6.4155,0,0,1,98.0449,65.7178Zm9.127-.8086a8.5088,8.5088,0,0,0,1.6552-5.2754,8.3465,8.3465,0,0,0-1.6552-5.2373,4.992,4.992,0,0,0-4.044-2.1953,4.889,4.889,0,0,0-4.0049,2.1953,8.3465,8.3465,0,0,0-1.6552,5.2373,8.5088,8.5088,0,0,0,1.6552,5.2754,4.8892,4.8892,0,0,0,4.0049,2.1953A4.9922,4.9922,0,0,0,107.1719,64.9092Z"/><path d="M115.6816,67.0654a3.9828,3.9828,0,0,1-.038-6.5459,7.35,7.35,0,0,1,4.1582-1.6181,17.1788,17.1788,0,0,0,3.9668-.77q1.579-.5389,1.5791-1.2714V55.3975a2.5474,2.5474,0,0,0-1.3868-2.1563,6.5457,6.5457,0,0,0-6.5078-.0391,2.5174,2.5174,0,0,0-1.3095,2.08v.8467h-1.4629v-1.001a3.3411,3.3411,0,0,1,1.7324-2.8115,7.587,7.587,0,0,1,4.2363-1.1553,8.1319,8.1319,0,0,1,4.3516,1.1172,3.1927,3.1927,0,0,1,1.81,2.6953v9.9356a3.1192,3.1192,0,0,0,.4239,1.6562,1.219,1.219,0,0,0,1.04.6924,1.4053,1.4053,0,0,0,.3467-.0381.4877.4877,0,0,0,.23-.1152v.7314a3.4643,3.4643,0,0,1-1.4629.27,1.966,1.966,0,0,1-1.54-.7705,2.8618,2.8618,0,0,1-.6162-1.8477,3.9074,3.9074,0,0,1-1.9648,2.1172,7.1967,7.1967,0,0,1-3.4658.81A6.4133,6.4133,0,0,1,115.6816,67.0654Zm7.74-1.1552a5.3883,5.3883,0,0,0,1.9258-3.35V58.7861a4.6683,4.6683,0,0,1-1.9639.7705,27.0682,27.0682,0,0,1-3.582.5,5.1583,5.1583,0,0,0-3.042,1.2325,3.1369,3.1369,0,0,0-1.2325,2.4648,3.0324,3.0324,0,0,0,1.2715,2.4649,4.4979,4.4979,0,0,0,3.003,1.039A5.4107,5.4107,0,0,0,123.4219,65.91Z"/><path d="M131.8174,67.8359V51.4307h1.54v2.7734a5.2542,5.2542,0,0,1,2.1182-2.31,6.1275,6.1275,0,0,1,7.2783.6923,5.092,5.092,0,0,1,1.7324,3.8516V67.8359h-1.54V56.4375a3.82,3.82,0,0,0-1.27-2.8887,4.2948,4.2948,0,0,0-3.043-1.1933,5.07,5.07,0,0,0-3.4267,1.3086,5.69,5.69,0,0,0-1.8487,3.3505V67.8359Z"/><path d="M162.5078,67.374a3.5859,3.5859,0,0,1-.8857-2.4648V52.625h-2.3487V51.4307h2.3487V46.7715h1.541v4.6592h2.2334V52.625h-2.2334V64.9092a2.7533,2.7533,0,0,0,.5,1.6562,1.3582,1.3582,0,0,0,1.1553.6924,2.3415,2.3415,0,0,0,1.1943-.27v1.1172a4.201,4.201,0,0,1-1.31.3086A2.8461,2.8461,0,0,1,162.5078,67.374Z"/><path d="M168.7471,67.8359V51.4307h1.54v3.6972a6.9866,6.9866,0,0,1,1.9258-2.8886,4.3009,4.3009,0,0,1,2.7725-1.0782h.8857v1.7715a.6144.6144,0,0,1-.27-.0771.4107.4107,0,0,0-.1543-.0772,4.4321,4.4321,0,0,0-3.2735,1.541,7.4056,7.4056,0,0,0-1.8867,3.89v9.6269Z"/><path d="M179.6445,65.7949a8.7608,8.7608,0,0,1-2.1181-6.1611,9.37,9.37,0,0,1,2.1181-6.3926,7.0293,7.0293,0,0,1,5.584-2.3877,7.1035,7.1035,0,0,1,5.584,2.3877,9.4843,9.4843,0,0,1,2.0791,6.3926,8.8641,8.8641,0,0,1-2.0791,6.1611,7.2164,7.2164,0,0,1-5.584,2.3106A7.14,7.14,0,0,1,179.6445,65.7949Zm10.0508-.9238a7.8612,7.8612,0,0,0,1.6563-5.2373,8.2033,8.2033,0,0,0-1.6563-5.3916,5.521,5.521,0,0,0-4.4668-2.041,5.4523,5.4523,0,0,0-4.4678,2.041,8.0742,8.0742,0,0,0-1.6943,5.3916,7.74,7.74,0,0,0,1.6943,5.2373,5.5427,5.5427,0,0,0,4.4678,1.9639A5.6134,5.6134,0,0,0,189.6953,64.8711Z"/><path d="M196.7812,67.8359V51.4307h1.54v3.6972a6.9866,6.9866,0,0,1,1.9258-2.8886,4.3,4.3,0,0,1,2.7724-1.0782h.8858v1.7715a.6151.6151,0,0,1-.27-.0771.41.41,0,0,0-.1543-.0772,4.432,4.432,0,0,0-3.2734,1.541,7.4056,7.4056,0,0,0-1.8867,3.89v9.6269Z"/><path d="M219.9238,65.7178a9.0993,9.0993,0,0,1-2.1181-6.084,9.4583,9.4583,0,0,1,2.1181-6.2,6.383,6.383,0,0,1,5.083-2.58,5.8756,5.8756,0,0,1,3.4659,1.1162,6.5479,6.5479,0,0,1,2.2334,3.0039V45h1.541V67.8359h-1.541v-3.35a5.4406,5.4406,0,0,1-2.1944,2.7343,6.1183,6.1183,0,0,1-3.5049,1.04A6.4155,6.4155,0,0,1,219.9238,65.7178Zm9.127-.8086a8.5089,8.5089,0,0,0,1.6553-5.2754,8.3466,8.3466,0,0,0-1.6553-5.2373,4.992,4.992,0,0,0-4.044-2.1953,4.8886,4.8886,0,0,0-4.0048,2.1953,8.346,8.346,0,0,0-1.6553,5.2373,8.5082,8.5082,0,0,0,1.6553,5.2754,4.8889,4.8889,0,0,0,4.0048,2.1953A4.9922,4.9922,0,0,0,229.0508,64.9092Z"/><path d="M238.6006,66.7578a4.7138,4.7138,0,0,1-1.6563-3.62V51.4307h1.54v11.707a3.6805,3.6805,0,0,0,1.1943,2.7344,4.069,4.069,0,0,0,2.8877,1.1162,4.9961,4.9961,0,0,0,3.582-1.54,7.02,7.02,0,0,0,2.002-3.89V51.4307h1.541V67.8359H248.15V64.9473a5.4833,5.4833,0,0,1-2.2334,2.4267,6.4772,6.4772,0,0,1-3.3506.8858A5.7,5.7,0,0,1,238.6006,66.7578Z"/><path d="M267.3271,67.0654a3.9828,3.9828,0,0,1-.038-6.5459,7.35,7.35,0,0,1,4.1582-1.6181,17.1788,17.1788,0,0,0,3.9668-.77q1.579-.5389,1.5791-1.2714V55.3975a2.5474,2.5474,0,0,0-1.3868-2.1563,6.5457,6.5457,0,0,0-6.5078-.0391,2.5174,2.5174,0,0,0-1.3095,2.08v.8467h-1.4629v-1.001a3.3411,3.3411,0,0,1,1.7324-2.8115,7.587,7.587,0,0,1,4.2363-1.1553,8.1316,8.1316,0,0,1,4.3516,1.1172,3.1928,3.1928,0,0,1,1.81,2.6953v9.9356a3.12,3.12,0,0,0,.4238,1.6562,1.219,1.219,0,0,0,1.04.6924,1.4047,1.4047,0,0,0,.3467-.0381.4877.4877,0,0,0,.2305-.1152v.7314a3.4643,3.4643,0,0,1-1.4629.27,1.966,1.966,0,0,1-1.54-.7705,2.8618,2.8618,0,0,1-.6162-1.8477,3.9074,3.9074,0,0,1-1.9648,2.1172,7.1967,7.1967,0,0,1-3.4658.81A6.4133,6.4133,0,0,1,267.3271,67.0654Zm7.74-1.1552a5.3883,5.3883,0,0,0,1.9258-3.35V58.7861a4.6683,4.6683,0,0,1-1.9639.7705,27.0682,27.0682,0,0,1-3.582.5,5.1583,5.1583,0,0,0-3.042,1.2325,3.1368,3.1368,0,0,0-1.2324,2.4648,3.0323,3.0323,0,0,0,1.2714,2.4649,4.4979,4.4979,0,0,0,3.003,1.039A5.4107,5.4107,0,0,0,275.0674,65.91Z"/><path d="M284.502,67.374a3.5855,3.5855,0,0,1-.8858-2.4648V52.625h-2.3486V51.4307h2.3486V46.7715h1.541v4.6592h2.2334V52.625h-2.2334V64.9092a2.7533,2.7533,0,0,0,.5,1.6562,1.3583,1.3583,0,0,0,1.1553.6924,2.3412,2.3412,0,0,0,1.1943-.27v1.1172a4.2005,4.2005,0,0,1-1.31.3086A2.8461,2.8461,0,0,1,284.502,67.374Z"/><path d="M303.0635,67.8359V45h2.4258l8.3564,20.91L322.1641,45H324.59V67.8359h-1.54V46.7715l-8.5107,21.0644h-1.4248l-8.5108-21.0644V67.8359Z"/><path d="M329.9043,67.0654a3.9828,3.9828,0,0,1-.0381-6.5459,7.35,7.35,0,0,1,4.1582-1.6181,17.1766,17.1766,0,0,0,3.9668-.77q1.579-.5389,1.5791-1.2714V55.3975a2.5473,2.5473,0,0,0-1.3867-2.1563,6.5457,6.5457,0,0,0-6.5078-.0391,2.5173,2.5173,0,0,0-1.31,2.08v.8467h-1.4629v-1.001a3.3413,3.3413,0,0,1,1.7324-2.8115,7.5871,7.5871,0,0,1,4.2364-1.1553,8.1315,8.1315,0,0,1,4.3515,1.1172,3.1926,3.1926,0,0,1,1.81,2.6953v9.9356a3.12,3.12,0,0,0,.4238,1.6562,1.2191,1.2191,0,0,0,1.04.6924,1.4058,1.4058,0,0,0,.3467-.0381.4873.4873,0,0,0,.23-.1152v.7314a3.4636,3.4636,0,0,1-1.4629.27,1.9657,1.9657,0,0,1-1.54-.7705,2.8618,2.8618,0,0,1-.6162-1.8477,3.9072,3.9072,0,0,1-1.9649,2.1172,7.1962,7.1962,0,0,1-3.4658.81A6.413,6.413,0,0,1,329.9043,67.0654Zm7.74-1.1552a5.3874,5.3874,0,0,0,1.9258-3.35V58.7861a4.6671,4.6671,0,0,1-1.9639.7705,27.0657,27.0657,0,0,1-3.582.5,5.1586,5.1586,0,0,0-3.042,1.2325,3.1368,3.1368,0,0,0-1.2324,2.4648,3.0322,3.0322,0,0,0,1.2715,2.4649,4.4978,4.4978,0,0,0,3.0029,1.039A5.4106,5.4106,0,0,0,337.6445,65.91Z"/><path d="M347.041,65.7178a9.0993,9.0993,0,0,1-2.1181-6.084,9.4583,9.4583,0,0,1,2.1181-6.2,6.383,6.383,0,0,1,5.083-2.58A5.875,5.875,0,0,1,355.59,51.97a6.5465,6.5465,0,0,1,2.2334,3.0039V45h1.5411V67.8359h-1.5411v-3.35a5.44,5.44,0,0,1-2.1943,2.7343,6.1183,6.1183,0,0,1-3.5049,1.04A6.4155,6.4155,0,0,1,347.041,65.7178Zm9.127-.8086a8.5088,8.5088,0,0,0,1.6552-5.2754,8.3465,8.3465,0,0,0-1.6552-5.2373,4.992,4.992,0,0,0-4.044-2.1953,4.889,4.889,0,0,0-4.0049,2.1953,8.3465,8.3465,0,0,0-1.6552,5.2373,8.5088,8.5088,0,0,0,1.6552,5.2754,4.8892,4.8892,0,0,0,4.0049,2.1953A4.9922,4.9922,0,0,0,356.168,64.9092Z"/><path d="M364.793,66.7188a4.7009,4.7009,0,0,1-1.8477-3.7354H364.37a3.6049,3.6049,0,0,0,1.4248,2.85,5.2653,5.2653,0,0,0,3.4268,1.1553,6.1868,6.1868,0,0,0,3.7353-1.0391,3.3954,3.3954,0,0,0,1.3868-2.8115,2.6477,2.6477,0,0,0-1.4639-2.2334,9.273,9.273,0,0,0-3.9278-1.1172,7.5714,7.5714,0,0,1-4.1591-1.4629,3.7254,3.7254,0,0,1-1.5782-3.042,3.6421,3.6421,0,0,1,1.5782-3.1582,7.582,7.582,0,0,1,4.4287-1.1162,7.1687,7.1687,0,0,1,4.3515,1.1934,3.7483,3.7483,0,0,1,1.6563,3.1963h-1.4639a3.53,3.53,0,0,0-1.4629-2.3487,5.2068,5.2068,0,0,0-3.081-.8476,5.7568,5.7568,0,0,0-3.3115.8476,2.5925,2.5925,0,0,0-1.2325,2.2334,2.642,2.642,0,0,0,1.502,2.2334,9.2444,9.2444,0,0,0,3.9277,1.1162,7.3822,7.3822,0,0,1,4.1592,1.5411,4.2742,4.2742,0,0,1-.2695,6.7773,7.8627,7.8627,0,0,1-4.7754,1.31A6.5984,6.5984,0,0,1,364.793,66.7188Z"/><path d="M32.4648,105.0352V88.63h1.54v3.6972a6.9866,6.9866,0,0,1,1.9258-2.8886A4.3,4.3,0,0,1,38.7031,88.36h.8858v1.7714a.6151.6151,0,0,1-.27-.0771.41.41,0,0,0-.1543-.0772,4.4318,4.4318,0,0,0-3.2734,1.5411,7.4049,7.4049,0,0,0-1.8867,3.89v9.627Z"/><path d="M43.2852,103.2256a11.2025,11.2025,0,0,1,0-12.7852A6.5893,6.5893,0,0,1,48.6,88.0527a6.8488,6.8488,0,0,1,5.3145,2.1953,8.352,8.352,0,0,1,2.0019,5.8526v.7324H42.8232a8.4,8.4,0,0,0,1.5791,5.3525,5.075,5.075,0,0,0,4.1973,2.002,6.3,6.3,0,0,0,3.543-1.0391,5.5618,5.5618,0,0,0,2.2334-2.8115h1.54a5.7461,5.7461,0,0,1-2.4648,3.7744,8.0672,8.0672,0,0,1-4.8516,1.502A6.5893,6.5893,0,0,1,43.2852,103.2256ZM54.376,95.3691V94.792A5.845,5.845,0,0,0,52.5273,90.94,5.6647,5.6647,0,0,0,48.6,89.4,5.4525,5.4525,0,0,0,44.71,90.98a5.98,5.98,0,0,0-1.8868,3.9658v.4238Z"/><path d="M59.9209,104.2646a3.9827,3.9827,0,0,1-.0381-6.5458,7.35,7.35,0,0,1,4.1582-1.6182,17.1771,17.1771,0,0,0,3.9668-.7695q1.579-.5391,1.5791-1.2715V92.5967A2.5473,2.5473,0,0,0,68.2,90.44a6.5454,6.5454,0,0,0-6.5078-.039,2.517,2.517,0,0,0-1.31,2.08v.8467H58.92v-1.001a3.3413,3.3413,0,0,1,1.7324-2.8115A7.587,7.587,0,0,1,64.8887,88.36,8.1315,8.1315,0,0,1,69.24,89.4775a3.1928,3.1928,0,0,1,1.81,2.6954v9.9355a3.12,3.12,0,0,0,.4238,1.6562,1.2189,1.2189,0,0,0,1.04.6924,1.4058,1.4058,0,0,0,.3467-.0381.4855.4855,0,0,0,.23-.1152v.7315a3.4653,3.4653,0,0,1-1.4629.2695,1.9654,1.9654,0,0,1-1.54-.77,2.8618,2.8618,0,0,1-.6162-1.8477,3.9072,3.9072,0,0,1-1.9649,2.1172,7.1962,7.1962,0,0,1-3.4658.81A6.413,6.413,0,0,1,59.9209,104.2646Zm7.74-1.1552a5.3874,5.3874,0,0,0,1.9258-3.35V95.9854a4.67,4.67,0,0,1-1.9639.77,27.0993,27.0993,0,0,1-3.582.5,5.1579,5.1579,0,0,0-3.042,1.2324,3.1368,3.1368,0,0,0-1.2324,2.4648,3.0322,3.0322,0,0,0,1.2715,2.4649,4.4978,4.4978,0,0,0,3.0029,1.039A5.4106,5.4106,0,0,0,67.6611,103.1094Z"/><path d="M77.1348,109.3486a4.6364,4.6364,0,0,1-2.08-3.7744h1.4639a3.4782,3.4782,0,0,0,1.6171,2.85,6.7534,6.7534,0,0,0,3.9668,1.1553,5.8274,5.8274,0,0,0,4.043-1.3477,4.5714,4.5714,0,0,0,1.541-3.62v-3.35a5.658,5.658,0,0,1-2.2334,2.541,6.1346,6.1346,0,0,1-3.3125.9629,6.4166,6.4166,0,0,1-5.16-2.2724,10.4074,10.4074,0,0,1,0-12.169,6.4216,6.4216,0,0,1,5.16-2.2715,6.1624,6.1624,0,0,1,3.4278,1.001,5.3907,5.3907,0,0,1,2.1181,2.6572V88.63h1.54v16.02a5.7059,5.7059,0,0,1-1.8868,4.582,7.5881,7.5881,0,0,1-5.2373,1.6563A8.0107,8.0107,0,0,1,77.1348,109.3486Zm8.9336-7.8564a8.7928,8.7928,0,0,0,0-10.166,4.9384,4.9384,0,0,0-7.9707-.1162,9.5391,9.5391,0,0,0,0,10.3974,4.9376,4.9376,0,0,0,7.9707-.1152Z"/><path d="M95.1572,103.2256a11.203,11.203,0,0,1,0-12.7852,6.59,6.59,0,0,1,5.3145-2.3877,6.8485,6.8485,0,0,1,5.3144,2.1953,8.3516,8.3516,0,0,1,2.002,5.8526v.7324H94.6953a8.4,8.4,0,0,0,1.5791,5.3525,5.075,5.075,0,0,0,4.1973,2.002,6.3,6.3,0,0,0,3.5429-1.0391,5.5608,5.5608,0,0,0,2.2334-2.8115h1.54a5.7462,5.7462,0,0,1-2.4649,3.7744,8.0667,8.0667,0,0,1-4.8515,1.502A6.59,6.59,0,0,1,95.1572,103.2256Zm11.0908-7.8565V94.792a5.8454,5.8454,0,0,0-1.8486-3.8516,5.6649,5.6649,0,0,0-3.9277-1.54,5.4525,5.4525,0,0,0-3.89,1.5791,5.9792,5.9792,0,0,0-1.8867,3.9658v.4238Z"/><path d="M111.4082,105.0352V88.63h1.54v3.6972a6.9885,6.9885,0,0,1,1.9258-2.8886,4.3008,4.3008,0,0,1,2.7725-1.0781h.8857v1.7714a.6147.6147,0,0,1-.27-.0771.4107.4107,0,0,0-.1543-.0772,4.4316,4.4316,0,0,0-3.2734,1.5411,7.4058,7.4058,0,0,0-1.8868,3.89v9.627Z"/><path d="M122.2285,103.2256a11.203,11.203,0,0,1,0-12.7852,6.59,6.59,0,0,1,5.3145-2.3877,6.8485,6.8485,0,0,1,5.3144,2.1953,8.3516,8.3516,0,0,1,2.002,5.8526v.7324H121.7666a8.4,8.4,0,0,0,1.5791,5.3525,5.075,5.075,0,0,0,4.1973,2.002,6.3,6.3,0,0,0,3.5429-1.0391,5.5608,5.5608,0,0,0,2.2334-2.8115h1.54a5.7466,5.7466,0,0,1-2.4649,3.7744,8.0667,8.0667,0,0,1-4.8515,1.502A6.59,6.59,0,0,1,122.2285,103.2256Zm11.0908-7.8565V94.792a5.8454,5.8454,0,0,0-1.8486-3.8516,5.665,5.665,0,0,0-3.9277-1.54,5.4525,5.4525,0,0,0-3.89,1.5791,5.9792,5.9792,0,0,0-1.8867,3.9658v.4238Z"/><path d="M138.48,105.0352V88.63h1.54v3.6972a6.9885,6.9885,0,0,1,1.9258-2.8886,4.3008,4.3008,0,0,1,2.7725-1.0781h.8857v1.7714a.6147.6147,0,0,1-.2695-.0771.4107.4107,0,0,0-.1543-.0772,4.432,4.432,0,0,0-3.2735,1.5411,7.4064,7.4064,0,0,0-1.8867,3.89v9.627Z"/><path d="M160.6211,105.0352V88.63h1.54v2.7734a5.2542,5.2542,0,0,1,2.1182-2.3105,6.1273,6.1273,0,0,1,7.2783.6924,5.0918,5.0918,0,0,1,1.7324,3.8515v11.3985h-1.54V93.6367a3.82,3.82,0,0,0-1.27-2.8887,4.2948,4.2948,0,0,0-3.043-1.1933,5.07,5.07,0,0,0-3.4267,1.3086,5.69,5.69,0,0,0-1.8487,3.3506v10.8213Z"/><path d="M178.335,104.2646a3.9826,3.9826,0,0,1-.0381-6.5458,7.35,7.35,0,0,1,4.1582-1.6182,17.1793,17.1793,0,0,0,3.9668-.7695q1.5791-.5391,1.5791-1.2715V92.5967a2.5473,2.5473,0,0,0-1.3867-2.1563,6.5456,6.5456,0,0,0-6.5079-.039,2.5171,2.5171,0,0,0-1.31,2.08v.8467H177.334v-1.001a3.3411,3.3411,0,0,1,1.7324-2.8115,7.5869,7.5869,0,0,1,4.2363-1.1552,8.1316,8.1316,0,0,1,4.3516,1.1171,3.1928,3.1928,0,0,1,1.81,2.6954v9.9355a3.12,3.12,0,0,0,.4238,1.6562,1.2188,1.2188,0,0,0,1.04.6924,1.4047,1.4047,0,0,0,.3467-.0381.4859.4859,0,0,0,.23-.1152v.7315a3.4659,3.4659,0,0,1-1.4629.2695,1.9654,1.9654,0,0,1-1.54-.77,2.8613,2.8613,0,0,1-.6163-1.8477,3.907,3.907,0,0,1-1.9648,2.1172,7.1967,7.1967,0,0,1-3.4658.81A6.4128,6.4128,0,0,1,178.335,104.2646Zm7.74-1.1552a5.3883,5.3883,0,0,0,1.9258-3.35V95.9854a4.6709,4.6709,0,0,1-1.9639.77,27.1018,27.1018,0,0,1-3.582.5,5.1576,5.1576,0,0,0-3.042,1.2324,3.1368,3.1368,0,0,0-1.2324,2.4648,3.0323,3.0323,0,0,0,1.2714,2.4649,4.4979,4.4979,0,0,0,3.003,1.039A5.4106,5.4106,0,0,0,186.0752,103.1094ZM181.3,82.584a2.8939,2.8939,0,0,1,2.1182-.8858,3.0243,3.0243,0,0,1,3.0429,3.043,2.89,2.89,0,0,1-.8857,2.1172,2.9351,2.9351,0,0,1-2.1572.8857,3.0242,3.0242,0,0,1-3.0039-3.0029A2.9351,2.9351,0,0,1,181.3,82.584Zm.77,3.5049a1.8879,1.8879,0,0,0,3.2354-1.3477,1.8875,1.8875,0,1,0-3.7745,0A1.9138,1.9138,0,0,0,182.07,86.0889Z"/><path d="M194.4707,105.0352V88.63h1.54v3.6972a6.9885,6.9885,0,0,1,1.9258-2.8886A4.3008,4.3008,0,0,1,200.709,88.36h.8857v1.7714a.6147.6147,0,0,1-.2695-.0771.4107.4107,0,0,0-.1543-.0772,4.4316,4.4316,0,0,0-3.2734,1.5411,7.4058,7.4058,0,0,0-1.8868,3.89v9.627Z"/><path d="M216.6123,105.0352V82.1992h1.54v9.5117a6.264,6.264,0,0,1,2.3106-2.6572,5.7844,5.7844,0,0,1,3.2734-1.001,5.2958,5.2958,0,0,1,3.9668,1.7325,5.6772,5.6772,0,0,1,1.6553,4.121v11.129h-1.54V94.2139a5.0149,5.0149,0,0,0-1.1944-3.3887A3.646,3.646,0,0,0,223.7363,89.4a5.0027,5.0027,0,0,0-3.4277,1.3867,6.792,6.792,0,0,0-2.1563,3.542v10.7061Z"/><path d="M234.4033,104.2646a3.9827,3.9827,0,0,1-.0381-6.5458,7.35,7.35,0,0,1,4.1582-1.6182,17.1771,17.1771,0,0,0,3.9668-.7695q1.5792-.5391,1.5791-1.2715V92.5967a2.5473,2.5473,0,0,0-1.3867-2.1563,6.5454,6.5454,0,0,0-6.5078-.039,2.5172,2.5172,0,0,0-1.31,2.08v.8467h-1.4629v-1.001a3.3412,3.3412,0,0,1,1.7325-2.8115,7.5865,7.5865,0,0,1,4.2363-1.1552,8.1321,8.1321,0,0,1,4.3516,1.1171,3.1928,3.1928,0,0,1,1.8095,2.6954v9.9355a3.1189,3.1189,0,0,0,.4239,1.6562,1.2188,1.2188,0,0,0,1.04.6924,1.4053,1.4053,0,0,0,.3467-.0381.4855.4855,0,0,0,.23-.1152v.7315a3.4651,3.4651,0,0,1-1.4628.2695,1.9656,1.9656,0,0,1-1.54-.77,2.8618,2.8618,0,0,1-.6162-1.8477,3.9074,3.9074,0,0,1-1.9648,2.1172,7.1968,7.1968,0,0,1-3.4659.81A6.413,6.413,0,0,1,234.4033,104.2646Zm7.74-1.1552a5.3877,5.3877,0,0,0,1.9257-3.35V95.9854a4.67,4.67,0,0,1-1.9638.77,27.1012,27.1012,0,0,1-3.5821.5,5.1579,5.1579,0,0,0-3.042,1.2324,3.1371,3.1371,0,0,0-1.2324,2.4648,3.0324,3.0324,0,0,0,1.2715,2.4649,4.4978,4.4978,0,0,0,3.0029,1.039A5.4108,5.4108,0,0,0,242.1436,103.1094Z"/><path d="M250.5391,105.0352V88.63h1.54v2.7734a5.2542,5.2542,0,0,1,2.1182-2.3105,6.1273,6.1273,0,0,1,7.2783.6924,5.0918,5.0918,0,0,1,1.7324,3.8515v11.3985h-1.54V93.6367a3.82,3.82,0,0,0-1.2705-2.8887,4.2948,4.2948,0,0,0-3.043-1.1933,5.0709,5.0709,0,0,0-3.4268,1.3086,5.6893,5.6893,0,0,0-1.8486,3.3506v10.8213Z"/><path d="M280.5371,105.0352V90.2861h-2.58V88.7842h2.58V85.7031a3.29,3.29,0,0,1,1.0391-2.4638,3.4119,3.4119,0,0,1,2.5039-1.04h.9238v1.1934h-.8857a1.7848,1.7848,0,0,0-1.4248.6933,2.27,2.27,0,0,0-.6163,1.6172v3.0811h2.9268v1.5019h-2.9268v14.7491Z"/><path d="M287.6992,82.1992h1.54v2.3487h-1.54Zm0,22.836V88.63h1.54v16.4053Z"/><path d="M294.1689,105.0352V88.63h1.54v2.7734a5.2546,5.2546,0,0,1,2.1181-2.3105,6.1275,6.1275,0,0,1,7.2784.6924,5.0922,5.0922,0,0,1,1.7324,3.8515v11.3985h-1.54V93.6367a3.82,3.82,0,0,0-1.2706-2.8887,4.2945,4.2945,0,0,0-3.0429-1.1933,5.0709,5.0709,0,0,0-3.4268,1.3086,5.6888,5.6888,0,0,0-1.8486,3.3506v10.8213Z"/><path d="M312.499,102.917a9.0993,9.0993,0,0,1-2.1181-6.084,9.4583,9.4583,0,0,1,2.1181-6.2,6.383,6.383,0,0,1,5.083-2.58,5.8756,5.8756,0,0,1,3.4659,1.1162,6.5473,6.5473,0,0,1,2.2333,3.004V82.1992h1.5411v22.836h-1.5411v-3.3506a5.44,5.44,0,0,1-2.1943,2.7343,6.1183,6.1183,0,0,1-3.5049,1.04A6.4155,6.4155,0,0,1,312.499,102.917Zm9.127-.8086a8.5088,8.5088,0,0,0,1.6552-5.2754,8.3465,8.3465,0,0,0-1.6552-5.2373A4.992,4.992,0,0,0,317.582,89.4a4.889,4.889,0,0,0-4.0049,2.1953,8.3465,8.3465,0,0,0-1.6552,5.2373,8.5088,8.5088,0,0,0,1.6552,5.2754,4.889,4.889,0,0,0,4.0049,2.1953A4.992,4.992,0,0,0,321.626,102.1084Z"/><path d="M330.752,103.2256a11.2025,11.2025,0,0,1,0-12.7852,6.5893,6.5893,0,0,1,5.3144-2.3877,6.8488,6.8488,0,0,1,5.3145,2.1953,8.352,8.352,0,0,1,2.0019,5.8526v.7324H330.29a8.4,8.4,0,0,0,1.5791,5.3525,5.075,5.075,0,0,0,4.1973,2.002,6.3,6.3,0,0,0,3.543-1.0391,5.5618,5.5618,0,0,0,2.2334-2.8115h1.54a5.7461,5.7461,0,0,1-2.4648,3.7744,8.0672,8.0672,0,0,1-4.8516,1.502A6.5893,6.5893,0,0,1,330.752,103.2256Zm11.0908-7.8565V94.792a5.845,5.845,0,0,0-1.8487-3.8516,5.6647,5.6647,0,0,0-3.9277-1.54,5.4523,5.4523,0,0,0-3.89,1.5791,5.98,5.98,0,0,0-1.8868,3.9658v.4238Z"/><path d="M347.0029,105.0352V88.63h1.54v3.6972a6.9866,6.9866,0,0,1,1.9258-2.8886,4.3,4.3,0,0,1,2.7724-1.0781h.8858v1.7714a.6151.6151,0,0,1-.27-.0771.41.41,0,0,0-.1543-.0772,4.4318,4.4318,0,0,0-3.2734,1.5411,7.4049,7.4049,0,0,0-1.8867,3.89v9.627Z"/><path d="M33.89,141.1572a4.714,4.714,0,0,1-1.6562-3.62V125.83h1.54v11.707a3.6806,3.6806,0,0,0,1.1944,2.7344,4.069,4.069,0,0,0,2.8877,1.1162,4.9965,4.9965,0,0,0,3.582-1.54,7.0212,7.0212,0,0,0,2.002-3.89V125.83h1.541v16.4053H43.44v-2.8887a5.4844,5.4844,0,0,1-2.2334,2.4267,6.4772,6.4772,0,0,1-3.3506.8858A5.7,5.7,0,0,1,33.89,141.1572Z"/><path d="M50.91,140.1172a9.0989,9.0989,0,0,1-2.1182-6.084,9.4579,9.4579,0,0,1,2.1182-6.2,6.3828,6.3828,0,0,1,5.083-2.58,5.8753,5.8753,0,0,1,3.4658,1.1162,6.5465,6.5465,0,0,1,2.2334,3.0039v-9.9736h1.541v22.836h-1.541v-3.3506a5.4406,5.4406,0,0,1-2.1944,2.7343,6.1182,6.1182,0,0,1-3.5048,1.04A6.4154,6.4154,0,0,1,50.91,140.1172Zm9.1269-.8086a8.5089,8.5089,0,0,0,1.6553-5.2754,8.3466,8.3466,0,0,0-1.6553-5.2373,4.9919,4.9919,0,0,0-4.0439-2.1953,4.8888,4.8888,0,0,0-4.0049,2.1953,8.3466,8.3466,0,0,0-1.6553,5.2373,8.5089,8.5089,0,0,0,1.6553,5.2754,4.8888,4.8888,0,0,0,4.0049,2.1953A4.9919,4.9919,0,0,0,60.0371,139.3086Z"/><path d="M80.8691,141.4648a3.9828,3.9828,0,0,1-.038-6.5459,7.35,7.35,0,0,1,4.1582-1.6181,17.1735,17.1735,0,0,0,3.9668-.77q1.579-.539,1.5791-1.2714v-1.4629a2.5474,2.5474,0,0,0-1.3868-2.1563,6.5454,6.5454,0,0,0-6.5078-.039,2.5171,2.5171,0,0,0-1.3095,2.08v.8467H79.8682v-1.001a3.3411,3.3411,0,0,1,1.7324-2.8115,7.5867,7.5867,0,0,1,4.2363-1.1553,8.1321,8.1321,0,0,1,4.3516,1.1172,3.1928,3.1928,0,0,1,1.81,2.6953v9.9356a3.1189,3.1189,0,0,0,.4239,1.6562,1.2188,1.2188,0,0,0,1.04.6924,1.4053,1.4053,0,0,0,.3467-.0381.4859.4859,0,0,0,.2305-.1152v.7315a3.4659,3.4659,0,0,1-1.4629.2695,1.966,1.966,0,0,1-1.54-.77,2.8618,2.8618,0,0,1-.6162-1.8477,3.9074,3.9074,0,0,1-1.9648,2.1172,7.1967,7.1967,0,0,1-3.4658.81A6.4133,6.4133,0,0,1,80.8691,141.4648Zm7.74-1.1552a5.3883,5.3883,0,0,0,1.9258-3.35v-3.7745a4.6694,4.6694,0,0,1-1.9639.7706,27.1018,27.1018,0,0,1-3.582.5,5.1576,5.1576,0,0,0-3.042,1.2324,3.1369,3.1369,0,0,0-1.2325,2.4648,3.0324,3.0324,0,0,0,1.2715,2.4649,4.4979,4.4979,0,0,0,3.003,1.039A5.4107,5.4107,0,0,0,88.6094,140.31Z"/><path d="M97.3516,142.2354V127.4863h-2.58v-1.5019h2.58v-3.0811a3.29,3.29,0,0,1,1.039-2.4638,3.4123,3.4123,0,0,1,2.5039-1.04h.9239v1.1934h-.8858a1.7851,1.7851,0,0,0-1.4248.6933,2.27,2.27,0,0,0-.6162,1.6172v3.0811h2.9268v1.5019H98.8916v14.7491Z"/><path d="M117.2207,141.4648a3.9828,3.9828,0,0,1-.0381-6.5459,7.35,7.35,0,0,1,4.1582-1.6181,17.1713,17.1713,0,0,0,3.9668-.77q1.5792-.539,1.5791-1.2714v-1.4629a2.5473,2.5473,0,0,0-1.3867-2.1563,6.5454,6.5454,0,0,0-6.5078-.039,2.517,2.517,0,0,0-1.31,2.08v.8467H116.22v-1.001a3.3413,3.3413,0,0,1,1.7324-2.8115,7.5871,7.5871,0,0,1,4.2364-1.1553,8.1315,8.1315,0,0,1,4.3515,1.1172,3.1927,3.1927,0,0,1,1.81,2.6953v9.9356a3.12,3.12,0,0,0,.4238,1.6562,1.2189,1.2189,0,0,0,1.04.6924,1.4058,1.4058,0,0,0,.3467-.0381.4855.4855,0,0,0,.23-.1152v.7315a3.4653,3.4653,0,0,1-1.4629.2695,1.9657,1.9657,0,0,1-1.54-.77,2.8618,2.8618,0,0,1-.6162-1.8477,3.9072,3.9072,0,0,1-1.9649,2.1172,7.1962,7.1962,0,0,1-3.4658.81A6.413,6.413,0,0,1,117.2207,141.4648Zm7.74-1.1552a5.3874,5.3874,0,0,0,1.9258-3.35v-3.7745a4.6683,4.6683,0,0,1-1.9638.7706,27.1037,27.1037,0,0,1-3.5821.5,5.1579,5.1579,0,0,0-3.042,1.2324,3.1368,3.1368,0,0,0-1.2324,2.4648,3.0322,3.0322,0,0,0,1.2715,2.4649,4.4978,4.4978,0,0,0,3.0029,1.039A5.4106,5.4106,0,0,0,124.9609,140.31Z"/><path d="M134.3955,141.7734a3.5859,3.5859,0,0,1-.8857-2.4648V127.0244h-2.3487V125.83H133.51v-4.6592h1.541V125.83h2.2334v1.1943h-2.2334v12.2842a2.753,2.753,0,0,0,.5,1.6562,1.3579,1.3579,0,0,0,1.1553.6924,2.34,2.34,0,0,0,1.1943-.2695v1.1172a4.1981,4.1981,0,0,1-1.31.3086A2.8461,2.8461,0,0,1,134.3955,141.7734Z"/><path d="M153.3037,142.2354V127.4863h-2.58v-1.5019h2.58v-3.0811a3.29,3.29,0,0,1,1.0391-2.4638,3.4119,3.4119,0,0,1,2.5039-1.04h.9238v1.1934h-.8857a1.7848,1.7848,0,0,0-1.4248.6933,2.27,2.27,0,0,0-.6162,1.6172v3.0811h2.9267v1.5019h-2.9267v14.7491Z"/><path d="M160.4658,142.2354v-22.836h1.54v22.836Z"/><path d="M167.9365,140.4258a11.203,11.203,0,0,1,0-12.7852,6.59,6.59,0,0,1,5.3145-2.3877,6.8485,6.8485,0,0,1,5.3144,2.1953,8.3516,8.3516,0,0,1,2.002,5.8526v.7324H167.4746a8.4,8.4,0,0,0,1.5791,5.3525,5.075,5.075,0,0,0,4.1973,2.002,6.3,6.3,0,0,0,3.5429-1.0391,5.5608,5.5608,0,0,0,2.2334-2.8115h1.54a5.7462,5.7462,0,0,1-2.4649,3.7744,8.0667,8.0667,0,0,1-4.8515,1.502A6.59,6.59,0,0,1,167.9365,140.4258Zm11.0908-7.8565v-.5771a5.8454,5.8454,0,0,0-1.8486-3.8516,5.6649,5.6649,0,0,0-3.9277-1.54,5.4525,5.4525,0,0,0-3.89,1.5791,5.9792,5.9792,0,0,0-1.8867,3.9658v.4238Z"/><path d="M184.1875,142.2354V125.83h1.54v3.6972a6.9885,6.9885,0,0,1,1.9258-2.8886,4.3009,4.3009,0,0,1,2.7725-1.0782h.8857v1.7715a.6147.6147,0,0,1-.2695-.0771.4107.4107,0,0,0-.1543-.0772,4.4316,4.4316,0,0,0-3.2734,1.5411,7.4058,7.4058,0,0,0-1.8868,3.89v9.627Z"/><path d="M195.0078,140.4258a11.203,11.203,0,0,1,0-12.7852,6.59,6.59,0,0,1,5.3145-2.3877,6.8485,6.8485,0,0,1,5.3144,2.1953,8.3516,8.3516,0,0,1,2.002,5.8526v.7324H194.5459a8.4,8.4,0,0,0,1.5791,5.3525,5.075,5.075,0,0,0,4.1973,2.002,6.3,6.3,0,0,0,3.5429-1.0391,5.5608,5.5608,0,0,0,2.2334-2.8115h1.54a5.7466,5.7466,0,0,1-2.4649,3.7744,8.0667,8.0667,0,0,1-4.8515,1.502A6.59,6.59,0,0,1,195.0078,140.4258Zm11.0908-7.8565v-.5771a5.8454,5.8454,0,0,0-1.8486-3.8516,5.665,5.665,0,0,0-3.9277-1.54,5.4525,5.4525,0,0,0-3.89,1.5791,5.9792,5.9792,0,0,0-1.8867,3.9658v.4238Z"/><path d="M223.5811,142.2354v-22.836h1.54v9.5117a6.2644,6.2644,0,0,1,2.31-2.6572,5.7845,5.7845,0,0,1,3.2735-1.001,5.2959,5.2959,0,0,1,3.9668,1.7325,5.6771,5.6771,0,0,1,1.6552,4.121v11.129h-1.54V131.4141a5.0148,5.0148,0,0,0-1.1943-3.3887,3.646,3.646,0,0,0-2.8877-1.4248,5.0031,5.0031,0,0,0-3.4278,1.3867,6.7918,6.7918,0,0,0-2.1562,3.542v10.7061Z"/><path d="M241.3721,141.4648a3.9827,3.9827,0,0,1-.0381-6.5459,7.35,7.35,0,0,1,4.1582-1.6181,17.1724,17.1724,0,0,0,3.9668-.77q1.579-.539,1.5791-1.2714v-1.4629a2.5473,2.5473,0,0,0-1.3867-2.1563,6.5454,6.5454,0,0,0-6.5078-.039,2.517,2.517,0,0,0-1.31,2.08v.8467h-1.4629v-1.001a3.3411,3.3411,0,0,1,1.7324-2.8115,7.587,7.587,0,0,1,4.2363-1.1553,8.1316,8.1316,0,0,1,4.3516,1.1172,3.1927,3.1927,0,0,1,1.81,2.6953v9.9356a3.12,3.12,0,0,0,.4238,1.6562,1.2188,1.2188,0,0,0,1.04.6924,1.4047,1.4047,0,0,0,.3467-.0381.4859.4859,0,0,0,.2305-.1152v.7315a3.4659,3.4659,0,0,1-1.4629.2695,1.9657,1.9657,0,0,1-1.54-.77,2.8612,2.8612,0,0,1-.6162-1.8477,3.9072,3.9072,0,0,1-1.9649,2.1172,7.1964,7.1964,0,0,1-3.4658.81A6.413,6.413,0,0,1,241.3721,141.4648Zm7.74-1.1552a5.3883,5.3883,0,0,0,1.9258-3.35v-3.7745a4.6694,4.6694,0,0,1-1.9639.7706,27.1018,27.1018,0,0,1-3.582.5,5.1579,5.1579,0,0,0-3.042,1.2324,3.1368,3.1368,0,0,0-1.2324,2.4648,3.0322,3.0322,0,0,0,1.2715,2.4649,4.4975,4.4975,0,0,0,3.0029,1.039A5.4106,5.4106,0,0,0,249.1123,140.31Z"/><path d="M257.5078,142.2354V125.83h1.54v3.6972a6.9874,6.9874,0,0,1,1.9257-2.8886,4.3009,4.3009,0,0,1,2.7725-1.0782h.8857v1.7715a.6147.6147,0,0,1-.2695-.0771.41.41,0,0,0-.1543-.0772,4.4318,4.4318,0,0,0-3.2734,1.5411,7.4049,7.4049,0,0,0-1.8867,3.89v9.627Z"/><path d="M279.9961,142.2354V127.4863h-2.58v-1.5019h2.58v-3.0811a3.29,3.29,0,0,1,1.0391-2.4638,3.4119,3.4119,0,0,1,2.5039-1.04h.9238v1.1934h-.8858a1.7851,1.7851,0,0,0-1.4248.6933,2.27,2.27,0,0,0-.6162,1.6172v3.0811h2.9268v1.5019h-2.9268v14.7491Z"/><path d="M287.543,141.4648a3.9827,3.9827,0,0,1-.0381-6.5459,7.35,7.35,0,0,1,4.1582-1.6181,17.1735,17.1735,0,0,0,3.9668-.77q1.579-.539,1.5791-1.2714v-1.4629a2.5473,2.5473,0,0,0-1.3867-2.1563,6.5454,6.5454,0,0,0-6.5078-.039,2.517,2.517,0,0,0-1.31,2.08v.8467H286.542v-1.001a3.3411,3.3411,0,0,1,1.7324-2.8115,7.587,7.587,0,0,1,4.2363-1.1553,8.1316,8.1316,0,0,1,4.3516,1.1172,3.1927,3.1927,0,0,1,1.81,2.6953v9.9356a3.12,3.12,0,0,0,.4238,1.6562,1.2188,1.2188,0,0,0,1.04.6924,1.4047,1.4047,0,0,0,.3467-.0381.4859.4859,0,0,0,.2305-.1152v.7315a3.4659,3.4659,0,0,1-1.4629.2695,1.9657,1.9657,0,0,1-1.54-.77,2.8612,2.8612,0,0,1-.6162-1.8477,3.9072,3.9072,0,0,1-1.9649,2.1172,7.1964,7.1964,0,0,1-3.4658.81A6.413,6.413,0,0,1,287.543,141.4648Zm7.74-1.1552a5.3883,5.3883,0,0,0,1.9258-3.35v-3.7745a4.6694,4.6694,0,0,1-1.9639.7706,27.1018,27.1018,0,0,1-3.582.5,5.1579,5.1579,0,0,0-3.042,1.2324,3.1368,3.1368,0,0,0-1.2324,2.4648,3.0322,3.0322,0,0,0,1.2715,2.4649,4.4975,4.4975,0,0,0,3.0029,1.039A5.4106,5.4106,0,0,0,295.2832,140.31Zm-4.7754-20.5254a2.8939,2.8939,0,0,1,2.1182-.8858,3.0243,3.0243,0,0,1,3.0429,3.043,2.89,2.89,0,0,1-.8857,2.1172,2.9351,2.9351,0,0,1-2.1572.8857,3.0242,3.0242,0,0,1-3.0039-3.0029A2.9351,2.9351,0,0,1,290.5078,119.7842Zm.7705,3.5049a1.8879,1.8879,0,0,0,3.2354-1.3477,1.8874,1.8874,0,1,0-3.7744,0A1.9137,1.9137,0,0,0,291.2783,123.2891Z"/><path d="M304.68,140.4258a11.203,11.203,0,0,1,0-12.7852,6.5893,6.5893,0,0,1,5.3144-2.3877,6.8486,6.8486,0,0,1,5.3145,2.1953,8.3515,8.3515,0,0,1,2.0019,5.8526v.7324H304.2178a8.4,8.4,0,0,0,1.5791,5.3525,5.0747,5.0747,0,0,0,4.1972,2.002,6.3,6.3,0,0,0,3.543-1.0391,5.5613,5.5613,0,0,0,2.2334-2.8115h1.54a5.7461,5.7461,0,0,1-2.4648,3.7744,8.0668,8.0668,0,0,1-4.8516,1.502A6.5893,6.5893,0,0,1,304.68,140.4258Zm11.0908-7.8565v-.5771a5.8454,5.8454,0,0,0-1.8486-3.8516,5.6651,5.6651,0,0,0-3.9278-1.54,5.4525,5.4525,0,0,0-3.89,1.5791,5.9792,5.9792,0,0,0-1.8867,3.9658v.4238Z"/><path d="M321.97,141.7734a3.5859,3.5859,0,0,1-.8857-2.4648V127.0244h-2.3486V125.83h2.3486v-4.6592h1.541V125.83h2.2334v1.1943H322.625v12.2842a2.753,2.753,0,0,0,.5,1.6562,1.3581,1.3581,0,0,0,1.1553.6924,2.34,2.34,0,0,0,1.1943-.2695v1.1172a4.1981,4.1981,0,0,1-1.31.3086A2.8463,2.8463,0,0,1,321.97,141.7734Z"/><path d="M36.3545,178.9736a6.4252,6.4252,0,0,1-2.35-2.7343v3.1962h-1.54V156.6h1.54v10.1279a6.0524,6.0524,0,0,1,5.7383-3.9668,6.3325,6.3325,0,0,1,5.16,2.35,11.0127,11.0127,0,0,1,0,12.5537,6.33,6.33,0,0,1-5.16,2.35A6.0439,6.0439,0,0,1,36.3545,178.9736Zm7.5478-2.2724a9.9378,9.9378,0,0,0,0-10.628,5.0416,5.0416,0,0,0-4.1591-2.0029,4.946,4.946,0,0,0-4.044,2.1563,8.705,8.705,0,0,0,0,10.32,4.9444,4.9444,0,0,0,4.044,2.1572A5.0416,5.0416,0,0,0,43.9023,176.7012Z"/><path d="M50.7949,156.6h1.54v2.3486h-1.54Zm0,22.8359V163.03h1.54v16.4052Z"/><path d="M57.2646,179.4355V156.6h1.54v22.8359Z"/><path d="M63.7344,179.4355V156.6h1.54v22.8359Z"/><path d="M71.2051,177.626a11.2025,11.2025,0,0,1,0-12.7852,6.5893,6.5893,0,0,1,5.3144-2.3877,6.8487,6.8487,0,0,1,5.3145,2.1953,8.3515,8.3515,0,0,1,2.0019,5.8526v.7324H70.7432a8.4,8.4,0,0,0,1.5791,5.3525,5.0747,5.0747,0,0,0,4.1972,2.002,6.3,6.3,0,0,0,3.543-1.0391,5.5613,5.5613,0,0,0,2.2334-2.8115h1.54a5.7461,5.7461,0,0,1-2.4648,3.7744,8.0668,8.0668,0,0,1-4.8516,1.502A6.5893,6.5893,0,0,1,71.2051,177.626ZM82.2959,169.77v-.5771a5.8454,5.8454,0,0,0-1.8486-3.8516,5.6651,5.6651,0,0,0-3.9278-1.54,5.4521,5.4521,0,0,0-3.89,1.5791,5.9792,5.9792,0,0,0-1.8867,3.9658v.4238Z"/><path d="M88.457,177.3174a9.0993,9.0993,0,0,1-2.1181-6.084,9.4583,9.4583,0,0,1,2.1181-6.2,6.383,6.383,0,0,1,5.083-2.58,5.8753,5.8753,0,0,1,3.4659,1.1162,6.5479,6.5479,0,0,1,2.2334,3.0039V156.6h1.541v22.8359h-1.541v-3.35a5.4406,5.4406,0,0,1-2.1944,2.7343,6.1183,6.1183,0,0,1-3.5049,1.04A6.4155,6.4155,0,0,1,88.457,177.3174Zm9.127-.8086a8.5089,8.5089,0,0,0,1.6553-5.2754,8.3466,8.3466,0,0,0-1.6553-5.2373,4.992,4.992,0,0,0-4.044-2.1953,4.8886,4.8886,0,0,0-4.0048,2.1953,8.346,8.346,0,0,0-1.6553,5.2373,8.5082,8.5082,0,0,0,1.6553,5.2754,4.8886,4.8886,0,0,0,4.0048,2.1953A4.992,4.992,0,0,0,97.584,176.5088Z"/><path d="M106.71,177.626a11.2025,11.2025,0,0,1,0-12.7852,6.5893,6.5893,0,0,1,5.3144-2.3877,6.8488,6.8488,0,0,1,5.3145,2.1953,8.3515,8.3515,0,0,1,2.0019,5.8526v.7324H106.248a8.4,8.4,0,0,0,1.5791,5.3525,5.075,5.075,0,0,0,4.1973,2.002,6.3,6.3,0,0,0,3.543-1.0391,5.5618,5.5618,0,0,0,2.2334-2.8115h1.54a5.7461,5.7461,0,0,1-2.4648,3.7744,8.0672,8.0672,0,0,1-4.8516,1.502A6.5893,6.5893,0,0,1,106.71,177.626Zm11.0908-7.8565v-.5771a5.845,5.845,0,0,0-1.8487-3.8516,5.6647,5.6647,0,0,0-3.9277-1.54,5.4521,5.4521,0,0,0-3.89,1.5791,5.98,5.98,0,0,0-1.8868,3.9658v.4238Z"/><path d="M124,178.9736a3.5859,3.5859,0,0,1-.8857-2.4648V164.2246h-2.3487V163.03h2.3487v-4.6592h1.541V163.03h2.2334v1.1943h-2.2334v12.2842a2.7533,2.7533,0,0,0,.5,1.6562,1.3579,1.3579,0,0,0,1.1552.6924,2.3406,2.3406,0,0,0,1.1944-.27v1.1172a4.1981,4.1981,0,0,1-1.31.3086A2.8461,2.8461,0,0,1,124,178.9736Z"/><path d="M136.0928,172.1191a5.5605,5.5605,0,0,1,1.001-3.0429,9.9313,9.9313,0,0,1,2.7724-2.8106,4.9579,4.9579,0,0,0,1.54-1.8486,5.9373,5.9373,0,0,0,.54-2.542,4.2808,4.2808,0,0,0-1.502-3.3115,5.1526,5.1526,0,0,0-3.62-1.3867,5,5,0,0,0-3.62,1.4638,4.7648,4.7648,0,0,0-1.502,3.543v.8467h-1.4628v-.8467a5.816,5.816,0,0,1,1.8867-4.3516,6.327,6.327,0,0,1,4.5439-1.81,7.2573,7.2573,0,0,1,4.7754,1.6562,5.1748,5.1748,0,0,1,1.9639,4.044,7.8968,7.8968,0,0,1-.8086,3.581,5.7878,5.7878,0,0,1-2.2725,2.4258,5.49,5.49,0,0,0-2.041,2.08,6.0415,6.0415,0,0,0-.7314,2.9268v.5771h-1.4629Zm0,4.9678h1.7715v2.3486h-1.7715Z"/></g></svg>
