<svg xmlns="http://www.w3.org/2000/svg" width="390" height="312" viewBox="0 0 390 312"><defs><style>.cls-1{fill:#e6e6e6;}</style></defs><title>spørgsmålbobbel2</title><g id="Spørgsmål"><path class="cls-1" d="M347.24,15H52.76A42.76,42.76,0,0,0,10,57.76V188.24A42.76,42.76,0,0,0,52.76,231H289.525L281,293l59.675-62H347.24A42.76,42.76,0,0,0,390,188.24V57.76A42.76,42.76,0,0,0,347.24,15Z"/><path d="M23.5439,59.5723V36H38.9277v1.55H25.1338v9.0635H37.7354V48.084H25.1338v9.9775H38.9277v1.5108Z"/><path d="M41.9092,59.5723V42.6377h1.59V45.5a5.4339,5.4339,0,0,1,2.1865-2.3848,6.3255,6.3255,0,0,1,7.5137.7159,5.2548,5.2548,0,0,1,1.7881,3.9746V59.5723h-1.59V47.8057a3.9439,3.9439,0,0,0-1.3116-2.9815,4.4292,4.4292,0,0,0-3.1406-1.2324,5.2369,5.2369,0,0,0-3.5381,1.3516,5.8739,5.8739,0,0,0-1.9082,3.4589v11.17Z"/><path d="M72.5186,59.5723V36h1.59V59.5723Z"/><path d="M79.5938,58.7773a4.1108,4.1108,0,0,1-.0391-6.7578,7.5887,7.5887,0,0,1,4.293-1.67,17.7115,17.7115,0,0,0,4.0937-.7949q1.63-.5566,1.63-1.3115V46.7324a2.9948,2.9948,0,0,0-1.4307-2.4648,5.733,5.733,0,0,0-3.4189-.9932,5.5271,5.5271,0,0,0-3.2988.9932,2.804,2.804,0,0,0-1.3516,2.3457v.875H78.5605V46.4541A3.7234,3.7234,0,0,1,80.35,43.3535a7.3029,7.3029,0,0,1,4.3721-1.3115,7.77,7.77,0,0,1,3.9756.9932,4.3171,4.3171,0,0,1,2.1465,2.5839,6.9315,6.9315,0,0,1,2.623-2.623,7.164,7.164,0,0,1,3.6182-.9541,7.0672,7.0672,0,0,1,5.4853,2.2656,8.6194,8.6194,0,0,1,2.0674,6.042v.7559H91.1221v1.55a5.7865,5.7865,0,0,0,1.749,4.2539,5.68,5.68,0,0,0,4.2139,1.7881,6.5024,6.5024,0,0,0,3.6572-1.0733,5.7433,5.7433,0,0,0,2.3057-2.9013h1.59a5.9346,5.9346,0,0,1-2.5439,3.8955,8.333,8.333,0,0,1-5.0088,1.5507A7.098,7.098,0,0,1,93.03,58.9365a6.9525,6.9525,0,0,1-2.584-3.26,6.7215,6.7215,0,0,1-2.544,3.26,7.1023,7.1023,0,0,1-4.0546,1.2324A6.624,6.624,0,0,1,79.5938,58.7773Zm7.99-1.1923a5.5653,5.5653,0,0,0,1.9873-3.459V50.2305a4.8182,4.8182,0,0,1-2.0274.7949,27.8519,27.8519,0,0,1-3.6962.5166,5.3206,5.3206,0,0,0-3.1407,1.2725,3.2358,3.2358,0,0,0-1.2724,2.5439,3.1266,3.1266,0,0,0,1.3125,2.5439,4.6421,4.6421,0,0,0,3.1006,1.0733A5.5889,5.5889,0,0,0,87.584,57.585Zm15.4639-7.99V48.998a6.0351,6.0351,0,0,0-1.9083-3.9746,5.8491,5.8491,0,0,0-4.0546-1.59,5.6331,5.6331,0,0,0-4.0157,1.6289,6.1748,6.1748,0,0,0-1.9472,4.0947v.4375Z"/><path d="M108.374,59.5723V42.6377h1.59v3.8164a7.21,7.21,0,0,1,1.9882-2.9814,4.4376,4.4376,0,0,1,2.8614-1.1133h.915v1.8291a.64.64,0,0,1-.2783-.0791.4086.4086,0,0,0-.1592-.08,4.5727,4.5727,0,0,0-3.3789,1.59,7.65,7.65,0,0,0-1.9482,4.0157v9.9375Z"/><path d="M119.5449,57.7041a10.03,10.03,0,0,1-2.0674-6.5986,10.0286,10.0286,0,0,1,2.0674-6.5987A6.7986,6.7986,0,0,1,125.03,42.042a7.0672,7.0672,0,0,1,5.4853,2.2656,8.619,8.619,0,0,1,2.0674,6.042v.7559H119.0674a8.6759,8.6759,0,0,0,1.63,5.5254,5.2393,5.2393,0,0,0,4.333,2.0664,6.5024,6.5024,0,0,0,3.6572-1.0733,5.7375,5.7375,0,0,0,2.3057-2.9013h1.59a5.9346,5.9346,0,0,1-2.5439,3.8955,8.333,8.333,0,0,1-5.0088,1.5507A6.7983,6.7983,0,0,1,119.5449,57.7041Zm11.4483-8.1094V48.998a6.0309,6.0309,0,0,0-1.9082-3.9746,5.85,5.85,0,0,0-4.0547-1.59,5.6291,5.6291,0,0,0-4.0147,1.6289,6.1759,6.1759,0,0,0-1.9482,4.0947v.4375Z"/><path d="M149.3984,59.5723V44.3477h-2.664V42.7969h2.664v-3.18a3.393,3.393,0,0,1,1.0733-2.544A3.5184,3.5184,0,0,1,153.0547,36h.9541v1.2314h-.9141a1.8446,1.8446,0,0,0-1.4707.7159,2.3464,2.3464,0,0,0-.6357,1.67v3.18h3.02v1.5508h-3.02V59.5723Z"/><path d="M156.792,36h1.59v2.4248h-1.59Zm0,23.5723V42.6377h1.59V59.5723Z"/><path d="M163.47,59.5723V42.6377h1.59V45.5a5.4328,5.4328,0,0,1,2.1865-2.3848,6.3255,6.3255,0,0,1,7.5137.7159,5.2552,5.2552,0,0,1,1.7881,3.9746V59.5723h-1.59V47.8057a3.9441,3.9441,0,0,0-1.3115-2.9815,4.4294,4.4294,0,0,0-3.1406-1.2324,5.2369,5.2369,0,0,0-3.5381,1.3516,5.8734,5.8734,0,0,0-1.9082,3.4589v11.17Z"/><path d="M182.3926,57.3857a9.3941,9.3941,0,0,1-2.1865-6.28,9.7638,9.7638,0,0,1,2.1865-6.4,6.5861,6.5861,0,0,1,5.247-2.6631,6.0692,6.0692,0,0,1,3.5772,1.1523,6.7572,6.7572,0,0,1,2.3057,3.1006V36h1.59V59.5723h-1.59v-3.458a5.619,5.619,0,0,1-2.2657,2.8222A6.32,6.32,0,0,1,187.64,60.01,6.62,6.62,0,0,1,182.3926,57.3857Zm9.4209-.8349a8.7849,8.7849,0,0,0,1.709-5.4453,8.62,8.62,0,0,0-1.709-5.4063,5.1531,5.1531,0,0,0-4.1739-2.2656,5.0485,5.0485,0,0,0-4.1347,2.2656,8.6133,8.6133,0,0,0-1.709,5.4063,8.7781,8.7781,0,0,0,1.709,5.4453,5.05,5.05,0,0,0,4.1347,2.2666A5.1542,5.1542,0,0,0,191.8135,56.5508Z"/><path d="M201.2344,57.7041a10.03,10.03,0,0,1-2.0674-6.5986,10.0286,10.0286,0,0,1,2.0674-6.5987A6.7983,6.7983,0,0,1,206.72,42.042a7.0676,7.0676,0,0,1,5.4854,2.2656,8.6194,8.6194,0,0,1,2.0674,6.042v.7559H200.7568a8.6759,8.6759,0,0,0,1.63,5.5254,5.24,5.24,0,0,0,4.333,2.0664,6.5027,6.5027,0,0,0,3.6573-1.0733,5.7378,5.7378,0,0,0,2.3056-2.9013h1.59a5.9347,5.9347,0,0,1-2.544,3.8955,8.3328,8.3328,0,0,1-5.0088,1.5507A6.798,6.798,0,0,1,201.2344,57.7041Zm11.4482-8.1094V48.998a6.03,6.03,0,0,0-1.9082-3.9746,5.8493,5.8493,0,0,0-4.0547-1.59,5.6289,5.6289,0,0,0-4.0146,1.6289,6.176,6.176,0,0,0-1.9483,4.0947v.4375Z"/><path d="M218.0088,59.5723V42.6377h1.59v3.8164a7.21,7.21,0,0,1,1.9883-2.9814,4.4375,4.4375,0,0,1,2.8613-1.1133h.9151v1.8291a.6393.6393,0,0,1-.2783-.0791.4093.4093,0,0,0-.1592-.08,4.5727,4.5727,0,0,0-3.3789,1.59,7.65,7.65,0,0,0-1.9483,4.0157v9.9375Z"/><path d="M242.3369,58.459a4.865,4.865,0,0,1-1.709-3.7363V42.6377h1.59v12.085a3.7979,3.7979,0,0,0,1.2324,2.8222,4.2042,4.2042,0,0,0,2.9814,1.1524,5.1571,5.1571,0,0,0,3.6973-1.59,7.2476,7.2476,0,0,0,2.0664-4.0146V42.6377h1.59V59.5723h-1.59V56.5908a5.6669,5.6669,0,0,1-2.3057,2.5049,6.6874,6.6874,0,0,1-3.458.9141A5.8833,5.8833,0,0,1,242.3369,58.459Z"/><path d="M259.9082,57.3857a9.3941,9.3941,0,0,1-2.1865-6.28,9.7638,9.7638,0,0,1,2.1865-6.4,6.5863,6.5863,0,0,1,5.2471-2.6631,6.0691,6.0691,0,0,1,3.5771,1.1523,6.7572,6.7572,0,0,1,2.3057,3.1006V36h1.59V59.5723h-1.59v-3.458a5.6188,5.6188,0,0,1-2.2656,2.8222,6.3206,6.3206,0,0,1-3.6172,1.0733A6.62,6.62,0,0,1,259.9082,57.3857Zm9.4209-.8349a8.7843,8.7843,0,0,0,1.709-5.4453,8.6194,8.6194,0,0,0-1.709-5.4063,5.153,5.153,0,0,0-4.1738-2.2656,5.0487,5.0487,0,0,0-4.1348,2.2656,8.6139,8.6139,0,0,0-1.709,5.4063,8.7787,8.7787,0,0,0,1.709,5.4453,5.05,5.05,0,0,0,4.1348,2.2666A5.1542,5.1542,0,0,0,269.3291,56.5508Z"/><path d="M290.834,58.7773a4.1108,4.1108,0,0,1-.0391-6.7578,7.5889,7.5889,0,0,1,4.293-1.67,17.71,17.71,0,0,0,4.0937-.7949q1.63-.5566,1.63-1.3115V46.7324a2.63,2.63,0,0,0-1.4306-2.2256,6.751,6.751,0,0,0-6.7178-.04,2.5965,2.5965,0,0,0-1.3516,2.1465v.875h-1.5107V46.4541a3.4469,3.4469,0,0,1,1.789-2.9014,7.825,7.825,0,0,1,4.3721-1.1933,8.3909,8.3909,0,0,1,4.4922,1.1533,3.2945,3.2945,0,0,1,1.8682,2.7822V56.5508a3.2126,3.2126,0,0,0,.4375,1.71,1.2587,1.2587,0,0,0,1.0732.7149,1.4819,1.4819,0,0,0,.3574-.0391.5139.5139,0,0,0,.2393-.1191v.7549a3.5817,3.5817,0,0,1-1.5108.2783,2.0351,2.0351,0,0,1-1.5908-.7949,2.9613,2.9613,0,0,1-.6357-1.9082,4.03,4.03,0,0,1-2.0274,2.1865,7.4255,7.4255,0,0,1-3.5771.8349A6.6242,6.6242,0,0,1,290.834,58.7773Zm7.99-1.1923a5.5648,5.5648,0,0,0,1.9873-3.459V50.2305a4.8182,4.8182,0,0,1-2.0273.7949,27.8563,27.8563,0,0,1-3.6963.5166,5.32,5.32,0,0,0-3.1406,1.2725,3.2356,3.2356,0,0,0-1.2725,2.5439,3.1266,3.1266,0,0,0,1.3125,2.5439,4.6425,4.6425,0,0,0,3.1006,1.0733A5.5889,5.5889,0,0,0,298.8242,57.585Z"/><path d="M307.8477,59.5723V44.3477h-2.6641V42.7969h2.6641v-3.18a3.3929,3.3929,0,0,1,1.0732-2.544A3.5184,3.5184,0,0,1,311.5039,36h.9541v1.2314h-.9141a1.8446,1.8446,0,0,0-1.4707.7159,2.3464,2.3464,0,0,0-.6357,1.67v3.18h3.0205v1.5508h-3.0205V59.5723Z"/><path d="M23.5439,97.9727V74.4h1.59v9.8184A6.4642,6.4642,0,0,1,27.52,81.4756a5.9706,5.9706,0,0,1,3.3789-1.0332,5.4617,5.4617,0,0,1,4.0938,1.789,5.8576,5.8576,0,0,1,1.71,4.253V97.9727H35.1113v-11.17a5.1812,5.1812,0,0,0-1.2314-3.498,3.7627,3.7627,0,0,0-2.9815-1.4707,5.1625,5.1625,0,0,0-3.538,1.4306,7.013,7.013,0,0,0-2.2266,3.6573V97.9727Z"/><path d="M45.8037,97.9727l-6.32-16.9346h1.4707l5.7647,15.1064,5.4453-15.1064h1.5107L47.4736,97.9727Z"/><path d="M57.1328,97.1777a4.1108,4.1108,0,0,1-.039-6.7578,7.5883,7.5883,0,0,1,4.2929-1.67,17.7166,17.7166,0,0,0,4.0938-.7949q1.63-.5567,1.63-1.3115V85.1328A2.63,2.63,0,0,0,65.68,82.9072a6.751,6.751,0,0,0-6.7178-.04A2.5964,2.5964,0,0,0,57.61,85.0137v.875H56.1V84.8545a3.4467,3.4467,0,0,1,1.7891-2.9014,7.8247,7.8247,0,0,1,4.372-1.1933,8.3906,8.3906,0,0,1,4.4922,1.1533,3.2945,3.2945,0,0,1,1.8682,2.7822V94.9512a3.2126,3.2126,0,0,0,.4375,1.71,1.2587,1.2587,0,0,0,1.0732.7149,1.4828,1.4828,0,0,0,.3575-.0391.515.515,0,0,0,.2392-.1191v.7549a3.5812,3.5812,0,0,1-1.5107.2783,2.0348,2.0348,0,0,1-1.5908-.7949,2.9608,2.9608,0,0,1-.6358-1.9082,4.03,4.03,0,0,1-2.0273,2.1865,7.4259,7.4259,0,0,1-3.5772.8349A6.6242,6.6242,0,0,1,57.1328,97.1777Zm7.99-1.1923a5.565,5.565,0,0,0,1.9874-3.459V88.6309a4.8182,4.8182,0,0,1-2.0274.7949,27.868,27.868,0,0,1-3.6963.5166,5.3209,5.3209,0,0,0-3.1406,1.2724,3.2362,3.2362,0,0,0-1.2725,2.544,3.1266,3.1266,0,0,0,1.3125,2.5439,4.6425,4.6425,0,0,0,3.1006,1.0733A5.5889,5.5889,0,0,0,65.123,95.9854Z"/><path d="M74.8223,95.7861a9.3942,9.3942,0,0,1-2.1866-6.28,9.7637,9.7637,0,0,1,2.1866-6.4,6.5861,6.5861,0,0,1,5.247-2.6631,6.0685,6.0685,0,0,1,3.5772,1.1523,6.7558,6.7558,0,0,1,2.3056,3.1006V74.4h1.59V97.9727h-1.59V94.5146a5.6181,5.6181,0,0,1-2.2656,2.8223A6.32,6.32,0,0,1,80.0693,98.41,6.62,6.62,0,0,1,74.8223,95.7861Zm9.4209-.8349a8.7849,8.7849,0,0,0,1.7089-5.4453A8.62,8.62,0,0,0,84.2432,84.1a5.1532,5.1532,0,0,0-4.1739-2.2656A5.0484,5.0484,0,0,0,75.9346,84.1a8.6131,8.6131,0,0,0-1.709,5.4063,8.7781,8.7781,0,0,0,1.709,5.4453,5.05,5.05,0,0,0,4.1347,2.2666A5.1543,5.1543,0,0,0,84.2432,94.9512Z"/><path d="M106.3848,95.7861a9.3942,9.3942,0,0,1-2.1866-6.28,9.7637,9.7637,0,0,1,2.1866-6.4,6.5861,6.5861,0,0,1,5.247-2.6631,6.0685,6.0685,0,0,1,3.5772,1.1523,6.7558,6.7558,0,0,1,2.3056,3.1006V74.4h1.59V97.9727h-1.59V94.5146a5.6181,5.6181,0,0,1-2.2656,2.8223,6.32,6.32,0,0,1-3.6172,1.0733A6.62,6.62,0,0,1,106.3848,95.7861Zm9.4209-.8349a8.7849,8.7849,0,0,0,1.7089-5.4453A8.62,8.62,0,0,0,115.8057,84.1a5.1532,5.1532,0,0,0-4.1739-2.2656A5.0484,5.0484,0,0,0,107.4971,84.1a8.6131,8.6131,0,0,0-1.709,5.4063,8.7781,8.7781,0,0,0,1.709,5.4453,5.05,5.05,0,0,0,4.1347,2.2666A5.1543,5.1543,0,0,0,115.8057,94.9512Z"/><path d="M125.2266,96.1045a10.03,10.03,0,0,1-2.0674-6.5986,10.0286,10.0286,0,0,1,2.0674-6.5987,6.7983,6.7983,0,0,1,5.4853-2.4648,7.0676,7.0676,0,0,1,5.4854,2.2656,8.6194,8.6194,0,0,1,2.0673,6.042v.7559H124.749a8.6754,8.6754,0,0,0,1.63,5.5253,5.2392,5.2392,0,0,0,4.333,2.0665,6.5022,6.5022,0,0,0,3.6572-1.0733,5.7373,5.7373,0,0,0,2.3057-2.9014h1.59a5.9342,5.9342,0,0,1-2.5439,3.8956,8.3328,8.3328,0,0,1-5.0088,1.5507A6.7983,6.7983,0,0,1,125.2266,96.1045Zm11.4482-8.1094v-.5967a6.03,6.03,0,0,0-1.9082-3.9746,5.85,5.85,0,0,0-4.0547-1.59,5.6287,5.6287,0,0,0-4.0146,1.6289,6.176,6.176,0,0,0-1.9483,4.0947v.4375Z"/><path d="M142.001,97.9727V81.0381h1.59v3.8164a7.2107,7.2107,0,0,1,1.9883-2.9815A4.4379,4.4379,0,0,1,148.44,80.76h.9151v1.8291a.64.64,0,0,1-.2784-.0791.4085.4085,0,0,0-.1591-.08,4.5727,4.5727,0,0,0-3.3789,1.59,7.6485,7.6485,0,0,0-1.9483,4.0157v9.9375Z"/><path d="M165.375,96.82a4.8556,4.8556,0,0,1-1.9082-3.8564h1.4717a3.7208,3.7208,0,0,0,1.4707,2.9414,5.4365,5.4365,0,0,0,3.5371,1.1924,6.3871,6.3871,0,0,0,3.8564-1.0733,3.5035,3.5035,0,0,0,1.4307-2.9014,2.7315,2.7315,0,0,0-1.51-2.3056,9.5539,9.5539,0,0,0-4.0547-1.1524,7.8229,7.8229,0,0,1-4.2939-1.5107,3.8467,3.8467,0,0,1-1.63-3.1406,3.76,3.76,0,0,1,1.63-3.26,7.825,7.825,0,0,1,4.5713-1.1523,7.4042,7.4042,0,0,1,4.4922,1.2324,3.8672,3.8672,0,0,1,1.71,3.2988h-1.5107a3.6444,3.6444,0,0,0-1.5107-2.4248,5.3734,5.3734,0,0,0-3.1807-.874,5.938,5.938,0,0,0-3.418.874,2.6782,2.6782,0,0,0-1.2724,2.3057,2.7256,2.7256,0,0,0,1.5507,2.3056,9.546,9.546,0,0,0,4.0547,1.1524,7.62,7.62,0,0,1,4.293,1.5908,4.412,4.412,0,0,1-.2783,6.9961,8.1158,8.1158,0,0,1-4.93,1.3516A6.8157,6.8157,0,0,1,165.375,96.82Z"/><path d="M180.44,97.9727V74.4h1.59V89.8232l9.0635-8.7851h1.9882l-6.5195,6.2012,7.2744,10.7334h-1.67l-6.6387-9.6592-3.498,3.3388v6.32Z"/><path d="M197.7725,96.1045a10.03,10.03,0,0,1-2.0674-6.5986,10.0286,10.0286,0,0,1,2.0674-6.5987,6.7983,6.7983,0,0,1,5.4853-2.4648,7.0676,7.0676,0,0,1,5.4854,2.2656,8.6194,8.6194,0,0,1,2.0673,6.042v.7559H197.2949a8.6754,8.6754,0,0,0,1.63,5.5253,5.2392,5.2392,0,0,0,4.333,2.0665,6.5022,6.5022,0,0,0,3.6572-1.0733,5.7373,5.7373,0,0,0,2.3057-2.9014h1.59a5.9342,5.9342,0,0,1-2.5439,3.8956,8.3328,8.3328,0,0,1-5.0088,1.5507A6.7983,6.7983,0,0,1,197.7725,96.1045Zm11.4482-8.1094v-.5967a6.03,6.03,0,0,0-1.9082-3.9746,5.85,5.85,0,0,0-4.0547-1.59,5.6287,5.6287,0,0,0-4.0146,1.6289,6.176,6.176,0,0,0-1.9483,4.0947v.4375Z"/><path d="M214.5469,97.9727V81.0381h1.59v3.8164a7.2107,7.2107,0,0,1,1.9883-2.9815,4.4379,4.4379,0,0,1,2.8613-1.1132h.9151v1.8291a.64.64,0,0,1-.2784-.0791.4085.4085,0,0,0-.1591-.08,4.5727,4.5727,0,0,0-3.3789,1.59,7.6485,7.6485,0,0,0-1.9483,4.0157v9.9375Z"/><path d="M224.6826,95.5479h2.3057v2.4248h-2.3057Z"/><path d="M244.7959,97.9727V74.4h1.59V84.6953h14.2315V74.4h1.59V97.9727h-1.59V86.2061H246.3857V97.9727Z"/><path d="M271.5879,97.9727l-6.32-16.9346h1.4707l5.7646,15.1064,5.4453-15.1064h1.5108l-6.2012,16.9346Z"/><path d="M282.917,97.1777a4.1108,4.1108,0,0,1-.0391-6.7578,7.5889,7.5889,0,0,1,4.293-1.67,17.7157,17.7157,0,0,0,4.0937-.7949q1.6305-.5567,1.63-1.3115V85.1328a2.63,2.63,0,0,0-1.4306-2.2256,6.751,6.751,0,0,0-6.7178-.04,2.5965,2.5965,0,0,0-1.3516,2.1465v.875h-1.5107V84.8545a3.4467,3.4467,0,0,1,1.7891-2.9014,7.8245,7.8245,0,0,1,4.372-1.1933,8.3909,8.3909,0,0,1,4.4922,1.1533,3.2945,3.2945,0,0,1,1.8682,2.7822V94.9512a3.2126,3.2126,0,0,0,.4375,1.71,1.2587,1.2587,0,0,0,1.0732.7149,1.4813,1.4813,0,0,0,.3574-.0391.5149.5149,0,0,0,.2393-.1191v.7549a3.5812,3.5812,0,0,1-1.5107.2783,2.0351,2.0351,0,0,1-1.5909-.7949,2.9613,2.9613,0,0,1-.6357-1.9082,4.03,4.03,0,0,1-2.0274,2.1865,7.4255,7.4255,0,0,1-3.5771.8349A6.6242,6.6242,0,0,1,282.917,97.1777Zm7.99-1.1923a5.5648,5.5648,0,0,0,1.9873-3.459V88.6309a4.8176,4.8176,0,0,1-2.0273.7949,27.8705,27.8705,0,0,1-3.6963.5166,5.3206,5.3206,0,0,0-3.1406,1.2724,3.2359,3.2359,0,0,0-1.2725,2.544,3.1266,3.1266,0,0,0,1.3125,2.5439,4.6425,4.6425,0,0,0,3.1006,1.0733A5.5889,5.5889,0,0,0,290.9072,95.9854Z"/><path d="M300.6074,95.7861a9.3941,9.3941,0,0,1-2.1865-6.28,9.7636,9.7636,0,0,1,2.1865-6.4,6.5864,6.5864,0,0,1,5.2471-2.6631,6.0684,6.0684,0,0,1,3.5771,1.1523,6.7567,6.7567,0,0,1,2.3057,3.1006V74.4h1.59V97.9727h-1.59V94.5146a5.6187,5.6187,0,0,1-2.2656,2.8223,6.32,6.32,0,0,1-3.6172,1.0733A6.6206,6.6206,0,0,1,300.6074,95.7861Zm9.4209-.8349a8.7843,8.7843,0,0,0,1.709-5.4453,8.6192,8.6192,0,0,0-1.709-5.4063,5.153,5.153,0,0,0-4.1738-2.2656A5.0487,5.0487,0,0,0,301.72,84.1a8.6137,8.6137,0,0,0-1.709,5.4063,8.7787,8.7787,0,0,0,1.709,5.4453,5.05,5.05,0,0,0,4.1348,2.2666A5.1542,5.1542,0,0,0,310.0283,94.9512Z"/><path d="M24.0605,135.22a4.8559,4.8559,0,0,1-1.9082-3.8564H23.624a3.7211,3.7211,0,0,0,1.4707,2.9414,5.4365,5.4365,0,0,0,3.5371,1.1924,6.3874,6.3874,0,0,0,3.8565-1.0733,3.5033,3.5033,0,0,0,1.4306-2.9013,2.7316,2.7316,0,0,0-1.51-2.3057,9.5544,9.5544,0,0,0-4.0547-1.1523,7.8241,7.8241,0,0,1-4.294-1.5108,3.8465,3.8465,0,0,1-1.63-3.1406,3.76,3.76,0,0,1,1.63-3.26,7.8252,7.8252,0,0,1,4.5713-1.1523,7.404,7.404,0,0,1,4.4922,1.2324,3.867,3.867,0,0,1,1.71,3.2988H33.3232a3.6437,3.6437,0,0,0-1.5107-2.4248,5.3732,5.3732,0,0,0-3.1807-.874,5.9376,5.9376,0,0,0-3.4179.874,2.6781,2.6781,0,0,0-1.2725,2.3057,2.7257,2.7257,0,0,0,1.5508,2.3057,9.5471,9.5471,0,0,0,4.0547,1.1523,7.62,7.62,0,0,1,4.2929,1.5908,4.4119,4.4119,0,0,1-.2783,6.9961,8.1155,8.1155,0,0,1-4.93,1.3516A6.8158,6.8158,0,0,1,24.0605,135.22Z"/><path d="M39.126,136.3721V112.8h1.59v15.4229l9.0635-8.7852h1.9883l-6.52,6.2012,7.2745,10.7334h-1.67l-6.6386-9.6592-3.4981,3.3389v6.32Z"/><path d="M56.458,134.5039a11.5644,11.5644,0,0,1,0-13.1973,6.7986,6.7986,0,0,1,5.4854-2.4648,7.0672,7.0672,0,0,1,5.4853,2.2656,8.6194,8.6194,0,0,1,2.0674,6.042v.7559H55.9805a8.6753,8.6753,0,0,0,1.63,5.5254,5.2393,5.2393,0,0,0,4.333,2.0664,6.5024,6.5024,0,0,0,3.6572-1.0733,5.7373,5.7373,0,0,0,2.3056-2.9013h1.59a5.9344,5.9344,0,0,1-2.544,3.8955,8.3325,8.3325,0,0,1-5.0087,1.5508A6.7984,6.7984,0,0,1,56.458,134.5039Zm11.4482-8.1094v-.5966a6.03,6.03,0,0,0-1.9082-3.9747,5.8491,5.8491,0,0,0-4.0546-1.59,5.6289,5.6289,0,0,0-4.0147,1.6289,6.1759,6.1759,0,0,0-1.9482,4.0947v.4375Z"/><path d="M73.2324,136.3721V119.4375h1.59v3.8164a7.21,7.21,0,0,1,1.9882-2.9814,4.4376,4.4376,0,0,1,2.8614-1.1133h.915v1.8291a.64.64,0,0,1-.2783-.0791.4086.4086,0,0,0-.1592-.08,4.5727,4.5727,0,0,0-3.3789,1.59,7.65,7.65,0,0,0-1.9482,4.0157v9.9375Z"/><path d="M97.123,134.1855a9.3941,9.3941,0,0,1-2.1865-6.28,9.7638,9.7638,0,0,1,2.1865-6.4,6.5864,6.5864,0,0,1,5.2471-2.6631,6.0692,6.0692,0,0,1,3.5772,1.1523,6.757,6.757,0,0,1,2.3056,3.1006V112.8h1.59v23.5723h-1.59v-3.458a5.6188,5.6188,0,0,1-2.2656,2.8222A6.32,6.32,0,0,1,102.37,136.81,6.6206,6.6206,0,0,1,97.123,134.1855Zm9.4209-.8349a8.7843,8.7843,0,0,0,1.709-5.4453,8.6194,8.6194,0,0,0-1.709-5.4063,5.1529,5.1529,0,0,0-4.1738-2.2656,5.0484,5.0484,0,0,0-4.1347,2.2656,8.6133,8.6133,0,0,0-1.709,5.4063,8.7781,8.7781,0,0,0,1.709,5.4453,5.05,5.05,0,0,0,4.1347,2.2666A5.154,5.154,0,0,0,106.5439,133.3506Z"/><path d="M115.9648,134.5039a11.5648,11.5648,0,0,1,0-13.1973,6.7986,6.7986,0,0,1,5.4854-2.4648,7.0672,7.0672,0,0,1,5.4853,2.2656,8.619,8.619,0,0,1,2.0674,6.042v.7559H115.4873a8.6759,8.6759,0,0,0,1.63,5.5254,5.2394,5.2394,0,0,0,4.333,2.0664,6.5022,6.5022,0,0,0,3.6572-1.0733,5.7375,5.7375,0,0,0,2.3057-2.9013h1.59a5.9346,5.9346,0,0,1-2.5439,3.8955,8.333,8.333,0,0,1-5.0088,1.5508A6.7984,6.7984,0,0,1,115.9648,134.5039Zm11.4483-8.1094v-.5966a6.03,6.03,0,0,0-1.9082-3.9747,5.85,5.85,0,0,0-4.0547-1.59,5.6291,5.6291,0,0,0-4.0147,1.6289,6.1763,6.1763,0,0,0-1.9482,4.0947v.4375Z"/><path d="M132.7393,136.3721V119.4375h1.59v3.8164a7.21,7.21,0,0,1,1.9883-2.9814,4.4375,4.4375,0,0,1,2.8613-1.1133h.9151v1.8291a.64.64,0,0,1-.2784-.0791.408.408,0,0,0-.1592-.08,4.573,4.573,0,0,0-3.3789,1.59,7.65,7.65,0,0,0-1.9482,4.0157v9.9375Z"/><path d="M155.5967,136.3721V119.4375h1.59V122.3a5.7709,5.7709,0,0,1,2.0274-2.3848,4.8444,4.8444,0,0,1,2.8222-.914,5.3022,5.3022,0,0,1,3.1407.9541,4.4066,4.4066,0,0,1,1.789,2.5039,5.7523,5.7523,0,0,1,2.2656-2.5039,6.3232,6.3232,0,0,1,3.379-.9541,5.4563,5.4563,0,0,1,3.8955,1.55,5.0342,5.0342,0,0,1,1.5908,3.7373v12.084h-1.5908v-12.084a3.9708,3.9708,0,0,0-1.1524-2.8623,3.6044,3.6044,0,0,0-2.7431-1.1924,4.8757,4.8757,0,0,0-3.3389,1.3115,5.6567,5.6567,0,0,0-1.8291,3.3389v11.4883h-1.59v-12.084a4.1292,4.1292,0,0,0-1.0732-2.8623,3.357,3.357,0,0,0-2.584-1.1924,4.5108,4.5108,0,0,0-3.22,1.3906,6.7615,6.7615,0,0,0-1.7891,3.5781v11.17Z"/><path d="M183.98,134.5039a11.5644,11.5644,0,0,1,0-13.1973,6.7983,6.7983,0,0,1,5.4853-2.4648,7.0673,7.0673,0,0,1,5.4854,2.2656,8.6194,8.6194,0,0,1,2.0674,6.042v.7559H183.502a8.6759,8.6759,0,0,0,1.63,5.5254,5.24,5.24,0,0,0,4.333,2.0664,6.5025,6.5025,0,0,0,3.6573-1.0733,5.7373,5.7373,0,0,0,2.3056-2.9013h1.59a5.9344,5.9344,0,0,1-2.544,3.8955,8.3328,8.3328,0,0,1-5.0088,1.5508A6.798,6.798,0,0,1,183.98,134.5039Zm11.4482-8.1094v-.5966a6.03,6.03,0,0,0-1.9082-3.9747,5.8493,5.8493,0,0,0-4.0547-1.59,5.6289,5.6289,0,0,0-4.0146,1.6289,6.1759,6.1759,0,0,0-1.9482,4.0947v.4375Z"/><path d="M200.7539,136.3721V119.4375h1.59V122.3a5.4328,5.4328,0,0,1,2.1865-2.3848,6.3254,6.3254,0,0,1,7.5136.7159,5.2548,5.2548,0,0,1,1.7881,3.9746v11.7666h-1.59V124.6055a3.9443,3.9443,0,0,0-1.3115-2.9815,4.4294,4.4294,0,0,0-3.1407-1.2324,5.2365,5.2365,0,0,0-3.538,1.3516,5.8734,5.8734,0,0,0-1.9082,3.4589v11.17Z"/><path d="M231.3623,136.3721V112.8h1.59v9.8184a6.4643,6.4643,0,0,1,2.3858-2.7432,5.9706,5.9706,0,0,1,3.3789-1.0332,5.4612,5.4612,0,0,1,4.0937,1.7891,5.8569,5.8569,0,0,1,1.71,4.2529v11.4883H242.93v-11.17a5.1807,5.1807,0,0,0-1.2315-3.498,3.7625,3.7625,0,0,0-2.9814-1.4707,5.163,5.163,0,0,0-3.5381,1.4307,7.0136,7.0136,0,0,0-2.2266,3.6572v11.0508Z"/><path d="M250.3633,134.5039a11.5644,11.5644,0,0,1,0-13.1973,6.7983,6.7983,0,0,1,5.4853-2.4648,7.0673,7.0673,0,0,1,5.4854,2.2656,8.6194,8.6194,0,0,1,2.0674,6.042v.7559H249.8857a8.6759,8.6759,0,0,0,1.63,5.5254,5.24,5.24,0,0,0,4.333,2.0664,6.5027,6.5027,0,0,0,3.6573-1.0733,5.7378,5.7378,0,0,0,2.3056-2.9013h1.59a5.9347,5.9347,0,0,1-2.544,3.8955,8.3328,8.3328,0,0,1-5.0088,1.5508A6.798,6.798,0,0,1,250.3633,134.5039Zm11.4482-8.1094v-.5966a6.03,6.03,0,0,0-1.9082-3.9747,5.8493,5.8493,0,0,0-4.0547-1.59,5.6289,5.6289,0,0,0-4.0146,1.6289,6.1764,6.1764,0,0,0-1.9483,4.0947v.4375Z"/><path d="M267.1377,136.3721V119.4375h1.59V122.3a5.4336,5.4336,0,0,1,2.1866-2.3848,6.3254,6.3254,0,0,1,7.5136.7159,5.2548,5.2548,0,0,1,1.7881,3.9746v11.7666h-1.59V124.6055a3.9443,3.9443,0,0,0-1.3115-2.9815,4.4294,4.4294,0,0,0-3.1407-1.2324,5.2369,5.2369,0,0,0-3.5381,1.3516,5.8739,5.8739,0,0,0-1.9082,3.4589v11.17Z"/><path d="M286.0605,134.1855a9.3941,9.3941,0,0,1-2.1865-6.28,9.7638,9.7638,0,0,1,2.1865-6.4,6.5864,6.5864,0,0,1,5.2471-2.6631,6.0692,6.0692,0,0,1,3.5772,1.1523,6.757,6.757,0,0,1,2.3056,3.1006V112.8h1.59v23.5723h-1.59v-3.458a5.6188,5.6188,0,0,1-2.2656,2.8222,6.32,6.32,0,0,1-3.6172,1.0733A6.6206,6.6206,0,0,1,286.0605,134.1855Zm9.4209-.8349a8.7843,8.7843,0,0,0,1.709-5.4453,8.6194,8.6194,0,0,0-1.709-5.4063,5.1529,5.1529,0,0,0-4.1738-2.2656,5.0484,5.0484,0,0,0-4.1347,2.2656,8.6133,8.6133,0,0,0-1.709,5.4063,8.7781,8.7781,0,0,0,1.709,5.4453,5.05,5.05,0,0,0,4.1347,2.2666A5.154,5.154,0,0,0,295.4814,133.3506Z"/><path d="M304.9023,134.5039a11.5648,11.5648,0,0,1,0-13.1973,6.7986,6.7986,0,0,1,5.4854-2.4648,7.0672,7.0672,0,0,1,5.4853,2.2656,8.619,8.619,0,0,1,2.0674,6.042v.7559H304.4248a8.6759,8.6759,0,0,0,1.63,5.5254,5.2394,5.2394,0,0,0,4.333,2.0664,6.5022,6.5022,0,0,0,3.6572-1.0733,5.7375,5.7375,0,0,0,2.3057-2.9013h1.59a5.9346,5.9346,0,0,1-2.5439,3.8955,8.333,8.333,0,0,1-5.0088,1.5508A6.7984,6.7984,0,0,1,304.9023,134.5039Zm11.4483-8.1094v-.5966a6.03,6.03,0,0,0-1.9082-3.9747,5.85,5.85,0,0,0-4.0547-1.59,5.6291,5.6291,0,0,0-4.0147,1.6289,6.1763,6.1763,0,0,0-1.9482,4.0947v.4375Z"/><path d="M335.4316,134.1855a9.3941,9.3941,0,0,1-2.1865-6.28,9.7638,9.7638,0,0,1,2.1865-6.4,6.5864,6.5864,0,0,1,5.2471-2.6631,6.0694,6.0694,0,0,1,3.5772,1.1523,6.757,6.757,0,0,1,2.3056,3.1006V112.8h1.59v23.5723h-1.59v-3.458a5.6188,5.6188,0,0,1-2.2656,2.8222,6.32,6.32,0,0,1-3.6172,1.0733A6.6206,6.6206,0,0,1,335.4316,134.1855Zm9.4209-.8349a8.7843,8.7843,0,0,0,1.709-5.4453,8.6194,8.6194,0,0,0-1.709-5.4063,5.153,5.153,0,0,0-4.1738-2.2656,5.0487,5.0487,0,0,0-4.1348,2.2656,8.6138,8.6138,0,0,0-1.7089,5.4063,8.7786,8.7786,0,0,0,1.7089,5.4453,5.05,5.05,0,0,0,4.1348,2.2666A5.1542,5.1542,0,0,0,344.8525,133.3506Z"/><path d="M354.2734,134.5039a11.5648,11.5648,0,0,1,0-13.1973,6.7986,6.7986,0,0,1,5.4854-2.4648,7.0672,7.0672,0,0,1,5.4853,2.2656,8.619,8.619,0,0,1,2.0674,6.042v.7559H353.7959a8.6759,8.6759,0,0,0,1.63,5.5254,5.2394,5.2394,0,0,0,4.333,2.0664,6.5022,6.5022,0,0,0,3.6572-1.0733,5.7375,5.7375,0,0,0,2.3057-2.9013h1.59a5.9346,5.9346,0,0,1-2.5439,3.8955,8.333,8.333,0,0,1-5.0088,1.5508A6.7984,6.7984,0,0,1,354.2734,134.5039Zm11.4483-8.1094v-.5966a6.0309,6.0309,0,0,0-1.9082-3.9747,5.85,5.85,0,0,0-4.0547-1.59,5.6291,5.6291,0,0,0-4.0147,1.6289,6.1759,6.1759,0,0,0-1.9482,4.0947v.4375Z"/><path d="M371.0479,136.3721V119.4375h1.59v3.8164a7.21,7.21,0,0,1,1.9883-2.9814,4.4375,4.4375,0,0,1,2.8613-1.1133h.915v1.8291a.64.64,0,0,1-.2783-.0791.4086.4086,0,0,0-.1592-.08,4.573,4.573,0,0,0-3.3789,1.59,7.65,7.65,0,0,0-1.9482,4.0157v9.9375Z"/><path d="M24.0605,173.62a4.8559,4.8559,0,0,1-1.9082-3.8564H23.624a3.7211,3.7211,0,0,0,1.4707,2.9414,5.4365,5.4365,0,0,0,3.5371,1.1924,6.3874,6.3874,0,0,0,3.8565-1.0733,3.5033,3.5033,0,0,0,1.4306-2.9013,2.7316,2.7316,0,0,0-1.51-2.3057,9.5544,9.5544,0,0,0-4.0547-1.1524,7.8233,7.8233,0,0,1-4.294-1.5107,3.8466,3.8466,0,0,1-1.63-3.1406,3.76,3.76,0,0,1,1.63-3.26,7.8252,7.8252,0,0,1,4.5713-1.1523,7.404,7.404,0,0,1,4.4922,1.2324,3.867,3.867,0,0,1,1.71,3.2988H33.3232a3.6437,3.6437,0,0,0-1.5107-2.4248,5.3732,5.3732,0,0,0-3.1807-.874,5.9376,5.9376,0,0,0-3.4179.874,2.6781,2.6781,0,0,0-1.2725,2.3057,2.7255,2.7255,0,0,0,1.5508,2.3056,9.5456,9.5456,0,0,0,4.0547,1.1524,7.62,7.62,0,0,1,4.2929,1.5908,4.4119,4.4119,0,0,1-.2783,6.9961,8.1155,8.1155,0,0,1-4.93,1.3516A6.8158,6.8158,0,0,1,24.0605,173.62Z"/><path d="M40.16,172.9043a11.5644,11.5644,0,0,1,0-13.1973,6.7983,6.7983,0,0,1,5.4853-2.4648,7.0676,7.0676,0,0,1,5.4854,2.2656,8.6194,8.6194,0,0,1,2.0673,6.042v.7559H39.6826a8.6759,8.6759,0,0,0,1.63,5.5254,5.2394,5.2394,0,0,0,4.333,2.0664,6.5022,6.5022,0,0,0,3.6572-1.0733,5.7375,5.7375,0,0,0,2.3057-2.9013h1.59a5.9342,5.9342,0,0,1-2.5439,3.8955,8.3328,8.3328,0,0,1-5.0088,1.5507A6.798,6.798,0,0,1,40.16,172.9043Zm11.4482-8.1094v-.5967A6.03,6.03,0,0,0,49.7,160.2236a5.85,5.85,0,0,0-4.0547-1.59,5.6287,5.6287,0,0,0-4.0146,1.6289,6.176,6.176,0,0,0-1.9483,4.0947v.4375Z"/><path d="M56.9346,174.7725V157.8379h1.59V160.7a5.4339,5.4339,0,0,1,2.1865-2.3848,6.3257,6.3257,0,0,1,7.5137.7158,5.2552,5.2552,0,0,1,1.7881,3.9747v11.7666h-1.59V163.0059a3.9439,3.9439,0,0,0-1.3116-2.9815,4.4292,4.4292,0,0,0-3.1406-1.2324,5.2369,5.2369,0,0,0-3.5381,1.3516,5.8739,5.8739,0,0,0-1.9082,3.4589v11.17Z"/><path d="M75.8574,172.5859a9.3941,9.3941,0,0,1-2.1865-6.28,9.7638,9.7638,0,0,1,2.1865-6.4,6.5864,6.5864,0,0,1,5.2471-2.6631,6.0691,6.0691,0,0,1,3.5771,1.1523,6.7572,6.7572,0,0,1,2.3057,3.1006V151.2h1.59v23.5723h-1.59v-3.458a5.6188,5.6188,0,0,1-2.2656,2.8222,6.32,6.32,0,0,1-3.6172,1.0733A6.6206,6.6206,0,0,1,75.8574,172.5859Zm9.4209-.8349a8.7843,8.7843,0,0,0,1.709-5.4453,8.6192,8.6192,0,0,0-1.709-5.4063,5.153,5.153,0,0,0-4.1738-2.2656,5.0487,5.0487,0,0,0-4.1348,2.2656,8.6137,8.6137,0,0,0-1.709,5.4063,8.7787,8.7787,0,0,0,1.709,5.4453,5.05,5.05,0,0,0,4.1348,2.2666A5.1542,5.1542,0,0,0,85.2783,171.751Z"/><path d="M94.7383,174.2959a3.7039,3.7039,0,0,1-.9141-2.5449V159.07H91.3994v-1.2324h2.4248v-4.81h1.59v4.81H97.72V159.07H95.4141V171.751a2.8406,2.8406,0,0,0,.5166,1.71,1.4027,1.4027,0,0,0,1.1933.7149,2.41,2.41,0,0,0,1.2315-.2783v1.1533a4.3223,4.3223,0,0,1-1.3516.3183A2.939,2.939,0,0,1,94.7383,174.2959Z"/><path d="M102.2119,172.9043a11.5644,11.5644,0,0,1,0-13.1973,6.7986,6.7986,0,0,1,5.4854-2.4648,7.0672,7.0672,0,0,1,5.4853,2.2656,8.6194,8.6194,0,0,1,2.0674,6.042v.7559H101.7344a8.6753,8.6753,0,0,0,1.63,5.5254,5.2393,5.2393,0,0,0,4.333,2.0664,6.5024,6.5024,0,0,0,3.6572-1.0733,5.7375,5.7375,0,0,0,2.3057-2.9013h1.59a5.9346,5.9346,0,0,1-2.5439,3.8955,8.333,8.333,0,0,1-5.0088,1.5507A6.7983,6.7983,0,0,1,102.2119,172.9043Zm11.4483-8.1094v-.5967a6.0311,6.0311,0,0,0-1.9082-3.9746,5.85,5.85,0,0,0-4.0547-1.59,5.6291,5.6291,0,0,0-4.0147,1.6289,6.1759,6.1759,0,0,0-1.9482,4.0947v.4375Z"/><path d="M135.7207,174.2959a6.6363,6.6363,0,0,1-2.4248-2.8232v3.3h-1.59V151.2h1.59v10.4541A6.25,6.25,0,0,1,139.22,157.56a6.5351,6.5351,0,0,1,5.3262,2.4258,11.3681,11.3681,0,0,1,0,12.9589,6.5346,6.5346,0,0,1-5.3262,2.4248A6.2519,6.2519,0,0,1,135.7207,174.2959Zm7.792-2.3457a10.26,10.26,0,0,0,0-10.9717,5.2038,5.2038,0,0,0-4.293-2.0674,5.11,5.11,0,0,0-4.1748,2.2266,8.9858,8.9858,0,0,0,0,10.6533,5.1073,5.1073,0,0,0,4.1748,2.2266A5.2038,5.2038,0,0,0,143.5127,171.95Z"/><path d="M150.6279,151.2h1.59v2.4248h-1.59Zm0,23.5723V157.8379h1.59v16.9346Z"/><path d="M157.3057,174.7725V151.2h1.59v23.5723Z"/><path d="M163.9834,174.7725V151.2h1.59v23.5723Z"/><path d="M171.6953,172.9043a11.5644,11.5644,0,0,1,0-13.1973,6.7986,6.7986,0,0,1,5.4854-2.4648,7.0672,7.0672,0,0,1,5.4853,2.2656,8.6194,8.6194,0,0,1,2.0674,6.042v.7559H171.2178a8.6753,8.6753,0,0,0,1.63,5.5254,5.2393,5.2393,0,0,0,4.333,2.0664,6.5024,6.5024,0,0,0,3.6572-1.0733,5.7375,5.7375,0,0,0,2.3057-2.9013h1.59a5.9346,5.9346,0,0,1-2.5439,3.8955,8.333,8.333,0,0,1-5.0088,1.5507A6.7983,6.7983,0,0,1,171.6953,172.9043Zm11.4483-8.1094v-.5967a6.0311,6.0311,0,0,0-1.9082-3.9746,5.85,5.85,0,0,0-4.0547-1.59,5.6291,5.6291,0,0,0-4.0147,1.6289,6.1759,6.1759,0,0,0-1.9482,4.0947v.4375Z"/><path d="M189.5039,172.5859a9.3941,9.3941,0,0,1-2.1865-6.28,9.7638,9.7638,0,0,1,2.1865-6.4,6.5863,6.5863,0,0,1,5.2471-2.6631,6.0691,6.0691,0,0,1,3.5771,1.1523,6.7572,6.7572,0,0,1,2.3057,3.1006V151.2h1.59v23.5723h-1.59v-3.458a5.6188,5.6188,0,0,1-2.2656,2.8222,6.3206,6.3206,0,0,1-3.6172,1.0733A6.62,6.62,0,0,1,189.5039,172.5859Zm9.4209-.8349a8.7843,8.7843,0,0,0,1.709-5.4453,8.6192,8.6192,0,0,0-1.709-5.4063,5.153,5.153,0,0,0-4.1738-2.2656,5.0487,5.0487,0,0,0-4.1348,2.2656,8.6137,8.6137,0,0,0-1.709,5.4063,8.7787,8.7787,0,0,0,1.709,5.4453,5.05,5.05,0,0,0,4.1348,2.2666A5.1542,5.1542,0,0,0,198.9248,171.751Z"/><path d="M208.3457,172.9043a11.5644,11.5644,0,0,1,0-13.1973,6.7986,6.7986,0,0,1,5.4854-2.4648,7.0672,7.0672,0,0,1,5.4853,2.2656,8.6194,8.6194,0,0,1,2.0674,6.042v.7559H207.8682a8.6759,8.6759,0,0,0,1.63,5.5254,5.24,5.24,0,0,0,4.3331,2.0664,6.5024,6.5024,0,0,0,3.6572-1.0733,5.7373,5.7373,0,0,0,2.3056-2.9013h1.59a5.9344,5.9344,0,0,1-2.544,3.8955,8.3325,8.3325,0,0,1-5.0087,1.5507A6.7983,6.7983,0,0,1,208.3457,172.9043Zm11.4482-8.1094v-.5967a6.03,6.03,0,0,0-1.9082-3.9746,5.8491,5.8491,0,0,0-4.0546-1.59,5.6289,5.6289,0,0,0-4.0147,1.6289,6.1759,6.1759,0,0,0-1.9482,4.0947v.4375Z"/><path d="M226.1934,174.2959a3.7039,3.7039,0,0,1-.9141-2.5449V159.07h-2.4248v-1.2324h2.4248v-4.81h1.59v4.81h2.3057V159.07h-2.3057V171.751a2.8413,2.8413,0,0,0,.5166,1.71,1.403,1.403,0,0,0,1.1934.7149,2.41,2.41,0,0,0,1.2314-.2783v1.1533a4.3224,4.3224,0,0,1-1.3515.3183A2.939,2.939,0,0,1,226.1934,174.2959Z"/><path d="M249.6455,174.7725l-6.32-16.9346h1.4707l5.7646,15.1064,5.4454-15.1064h1.5107l-6.2012,16.9346Z"/><path d="M260.5771,151.2h1.59v2.4248h-1.59Zm0,23.5723V157.8379h1.59v16.9346Z"/><path d="M268.2891,172.5859a9.3942,9.3942,0,0,1-2.1866-6.28,9.7639,9.7639,0,0,1,2.1866-6.4,6.5861,6.5861,0,0,1,5.247-2.6631,6.0692,6.0692,0,0,1,3.5772,1.1523,6.7563,6.7563,0,0,1,2.3056,3.1006V151.2h1.59v23.5723h-1.59v-3.458a5.6183,5.6183,0,0,1-2.2656,2.8222,6.32,6.32,0,0,1-3.6172,1.0733A6.62,6.62,0,0,1,268.2891,172.5859Zm9.4209-.8349a8.7849,8.7849,0,0,0,1.7089-5.4453,8.62,8.62,0,0,0-1.7089-5.4063,5.1532,5.1532,0,0,0-4.1739-2.2656,5.0484,5.0484,0,0,0-4.1347,2.2656,8.6131,8.6131,0,0,0-1.709,5.4063,8.7781,8.7781,0,0,0,1.709,5.4453,5.05,5.05,0,0,0,4.1347,2.2666A5.1543,5.1543,0,0,0,277.71,171.751Z"/><path d="M287.1309,172.9043a11.5644,11.5644,0,0,1,0-13.1973,6.7983,6.7983,0,0,1,5.4853-2.4648,7.0676,7.0676,0,0,1,5.4854,2.2656,8.6194,8.6194,0,0,1,2.0673,6.042v.7559H286.6533a8.6759,8.6759,0,0,0,1.63,5.5254,5.2394,5.2394,0,0,0,4.333,2.0664,6.5022,6.5022,0,0,0,3.6572-1.0733,5.7375,5.7375,0,0,0,2.3057-2.9013h1.59a5.9342,5.9342,0,0,1-2.5439,3.8955,8.3328,8.3328,0,0,1-5.0088,1.5507A6.798,6.798,0,0,1,287.1309,172.9043Zm11.4482-8.1094v-.5967a6.03,6.03,0,0,0-1.9082-3.9746,5.85,5.85,0,0,0-4.0547-1.59,5.6287,5.6287,0,0,0-4.0146,1.6289,6.176,6.176,0,0,0-1.9483,4.0947v.4375Z"/><path d="M303.9053,174.7725V157.8379h1.59v3.8164a7.21,7.21,0,0,1,1.9883-2.9814,4.4375,4.4375,0,0,1,2.8613-1.1133h.9151v1.8291a.64.64,0,0,1-.2784-.0791.4085.4085,0,0,0-.1591-.08,4.5727,4.5727,0,0,0-3.3789,1.59,7.6489,7.6489,0,0,0-1.9483,4.0157v9.9375Z"/><path d="M315.0762,172.9043a11.5644,11.5644,0,0,1,0-13.1973,6.7983,6.7983,0,0,1,5.4853-2.4648,7.0676,7.0676,0,0,1,5.4854,2.2656,8.6194,8.6194,0,0,1,2.0674,6.042v.7559H314.5986a8.6759,8.6759,0,0,0,1.63,5.5254,5.24,5.24,0,0,0,4.333,2.0664,6.5027,6.5027,0,0,0,3.6573-1.0733,5.7378,5.7378,0,0,0,2.3056-2.9013h1.59a5.9347,5.9347,0,0,1-2.544,3.8955,8.3328,8.3328,0,0,1-5.0088,1.5507A6.798,6.798,0,0,1,315.0762,172.9043Zm11.4482-8.1094v-.5967a6.03,6.03,0,0,0-1.9082-3.9746,5.8493,5.8493,0,0,0-4.0547-1.59,5.6287,5.6287,0,0,0-4.0146,1.6289,6.176,6.176,0,0,0-1.9483,4.0947v.4375Z"/><path d="M337.8926,167.22a5.7431,5.7431,0,0,1,1.0342-3.1406,10.237,10.237,0,0,1,2.8623-2.9014,5.1318,5.1318,0,0,0,1.59-1.9082,6.1419,6.1419,0,0,0,.5566-2.624,4.4167,4.4167,0,0,0-1.5507-3.418,5.3136,5.3136,0,0,0-3.7364-1.4316,5.1638,5.1638,0,0,0-3.7373,1.5107,4.9191,4.9191,0,0,0-1.55,3.6573v.874h-1.5107v-.874a6.003,6.003,0,0,1,1.9482-4.4922,6.5339,6.5339,0,0,1,4.69-1.8682,7.4913,7.4913,0,0,1,4.9287,1.709,5.3435,5.3435,0,0,1,2.0273,4.1738,8.1493,8.1493,0,0,1-.834,3.6973,5.981,5.981,0,0,1-2.3457,2.5049,5.6392,5.6392,0,0,0-2.1064,2.1465,6.2276,6.2276,0,0,0-.7559,3.02v.5966h-1.5107Zm0,5.128h1.8291v2.4248h-1.8291Z"/></g></svg>
