<svg xmlns="http://www.w3.org/2000/svg" width="420" height="305" viewBox="0 0 420 305"><defs><style>.cls-1{fill:#e6e6e6;}</style></defs><title>spørgsmålbobbel3</title><g id="Spørgsmål"><path class="cls-1" d="M348.24,11H53.76A42.76,42.76,0,0,0,11,53.76V184.24A42.76,42.76,0,0,0,53.76,227H290.525L282,289l59.675-62H348.24A42.76,42.76,0,0,0,391,184.24V53.76A42.76,42.76,0,0,0,348.24,11Z"/><path d="M22.624,31.999h9.6328a8.1819,8.1819,0,0,1,6.6006,3.4844,13.123,13.123,0,0,1,2.7051,8.3633A14.38,14.38,0,0,1,38.8574,52.66a8.0759,8.0759,0,0,1-6.6006,3.6484H22.624Zm9.6328,22.752q3.1568,0,5.4112-3.1973a13.0306,13.0306,0,0,0,2.2549-7.707,11.7134,11.7134,0,0,0-2.2549-7.2559,6.6238,6.6238,0,0,0-5.4112-2.9931H24.2637V54.751Z"/><path d="M45.416,31.999h1.64V34.5h-1.64Zm0,24.31V38.8457h1.64V56.3086Z"/><path d="M52.3027,56.3086V38.8457h1.64v2.9512a5.6,5.6,0,0,1,2.2539-2.46,6.5231,6.5231,0,0,1,7.748.7383,5.4181,5.4181,0,0,1,1.8448,4.1V56.3086h-1.64V44.1748A4.0672,4.0672,0,0,0,62.7969,41.1a4.5691,4.5691,0,0,0-3.2383-1.2705A5.3953,5.3953,0,0,0,55.91,41.2227a6.0456,6.0456,0,0,0-1.9678,3.5664v11.52Z"/><path d="M88.2949,56.3086,81.7773,38.8457h1.5166l5.9444,15.5772,5.6162-15.5772h1.5576L90.0166,56.3086Z"/><path d="M100.6338,54.3818a10.3486,10.3486,0,0,1-2.1318-6.8047,10.3532,10.3532,0,0,1,2.1318-6.8056,7.0166,7.0166,0,0,1,5.6572-2.541,7.2882,7.2882,0,0,1,5.6572,2.3369,8.8883,8.8883,0,0,1,2.1319,6.23v.7792H100.1416a8.9526,8.9526,0,0,0,1.6807,5.6983,5.4049,5.4049,0,0,0,4.4687,2.1308A6.7051,6.7051,0,0,0,110.0625,54.3a5.9189,5.9189,0,0,0,2.3779-2.9922h1.64a6.1215,6.1215,0,0,1-2.624,4.0176,8.5912,8.5912,0,0,1-5.1651,1.5986A7.0117,7.0117,0,0,1,100.6338,54.3818ZM112.44,46.02v-.6152a6.2219,6.2219,0,0,0-1.9677-4.1,6.03,6.03,0,0,0-4.1817-1.64,5.8071,5.8071,0,0,0-4.1406,1.6807,6.3692,6.3692,0,0,0-2.0088,4.2227V46.02Z"/><path d="M117.9336,56.3086V38.8457h1.64v2.9512a5.601,5.601,0,0,1,2.2539-2.46,6.5233,6.5233,0,0,1,7.7481.7383,5.418,5.418,0,0,1,1.8447,4.1V56.3086h-1.64V44.1748A4.067,4.067,0,0,0,128.4277,41.1a4.5688,4.5688,0,0,0-3.2382-1.2705,5.3955,5.3955,0,0,0-3.6485,1.3936,6.0456,6.0456,0,0,0-1.9678,3.5664v11.52Z"/><path d="M136.3809,31.999h1.64V34.5h-1.64Zm0,24.31V38.8457h1.64V56.3086Z"/><path d="M143.2676,56.3086V38.8457h1.64v2.9512a5.6,5.6,0,0,1,2.2539-2.46,6.5232,6.5232,0,0,1,7.7481.7383,5.4183,5.4183,0,0,1,1.8447,4.1V56.3086h-1.64V44.1748A4.067,4.067,0,0,0,153.7617,41.1a4.5689,4.5689,0,0,0-3.2383-1.2705,5.3953,5.3953,0,0,0-3.6484,1.3936,6.0456,6.0456,0,0,0-1.9678,3.5664v11.52Z"/><path d="M162.78,54.0537a9.69,9.69,0,0,1-2.2549-6.4766,10.074,10.074,0,0,1,2.2549-6.6005,6.795,6.795,0,0,1,5.4111-2.7461,6.2572,6.2572,0,0,1,3.69,1.1884,6.9746,6.9746,0,0,1,2.3779,3.1973V31.999h1.64v24.31h-1.64V52.7422a5.7894,5.7894,0,0,1-2.3369,2.91,6.512,6.512,0,0,1-3.7305,1.1075A6.8284,6.8284,0,0,1,162.78,54.0537Zm9.7158-.86a9.0592,9.0592,0,0,0,1.7627-5.6163,8.8839,8.8839,0,0,0-1.7627-5.5751,5.3152,5.3152,0,0,0-4.3047-2.337,5.2074,5.2074,0,0,0-4.2637,2.337,8.8839,8.8839,0,0,0-1.7627,5.5751,9.0592,9.0592,0,0,0,1.7627,5.6163,5.2064,5.2064,0,0,0,4.2637,2.3359A5.3142,5.3142,0,0,0,172.4961,53.1934Z"/><path d="M182.2109,54.3818a10.3486,10.3486,0,0,1-2.1318-6.8047,10.3532,10.3532,0,0,1,2.1318-6.8056,7.0168,7.0168,0,0,1,5.6573-2.541,7.2884,7.2884,0,0,1,5.6572,2.3369,8.8883,8.8883,0,0,1,2.1318,6.23v.7792H181.7188a8.9532,8.9532,0,0,0,1.6806,5.6983,5.4051,5.4051,0,0,0,4.4688,2.1308A6.7048,6.7048,0,0,0,191.64,54.3a5.9191,5.9191,0,0,0,2.378-2.9922h1.64a6.1208,6.1208,0,0,1-2.624,4.0176,8.5911,8.5911,0,0,1-5.165,1.5986A7.0119,7.0119,0,0,1,182.2109,54.3818ZM194.0176,46.02v-.6152a6.222,6.222,0,0,0-1.9678-4.1,6.03,6.03,0,0,0-4.1816-1.64,5.8071,5.8071,0,0,0-4.1407,1.6807,6.3691,6.3691,0,0,0-2.0087,4.2227V46.02Z"/><path d="M217.0557,56.3086l-6.5176-17.4629h1.5166l5.9443,15.5772,5.6162-15.5772h1.5577l-6.3956,17.4629Z"/><path d="M228.3291,31.999h1.64V34.5h-1.64Zm0,24.31V38.8457h1.64V56.3086Z"/><path d="M236.2812,54.0537a9.6908,9.6908,0,0,1-2.2548-6.4766,10.0745,10.0745,0,0,1,2.2548-6.6005,6.7954,6.7954,0,0,1,5.4112-2.7461,6.2571,6.2571,0,0,1,3.6894,1.1884,6.9741,6.9741,0,0,1,2.378,3.1973V31.999h1.64v24.31h-1.64V52.7422a5.7894,5.7894,0,0,1-2.3369,2.91,6.5122,6.5122,0,0,1-3.7305,1.1075A6.8288,6.8288,0,0,1,236.2812,54.0537Zm9.7159-.86a9.0592,9.0592,0,0,0,1.7627-5.6163,8.8839,8.8839,0,0,0-1.7627-5.5751,5.3153,5.3153,0,0,0-4.3047-2.337,5.2074,5.2074,0,0,0-4.2637,2.337,8.8839,8.8839,0,0,0-1.7627,5.5751,9.0592,9.0592,0,0,0,1.7627,5.6163,5.2064,5.2064,0,0,0,4.2637,2.3359A5.3144,5.3144,0,0,0,245.9971,53.1934Z"/><path d="M255.7119,54.3818a10.3486,10.3486,0,0,1-2.1318-6.8047,10.3532,10.3532,0,0,1,2.1318-6.8056,7.0167,7.0167,0,0,1,5.6572-2.541,7.2884,7.2884,0,0,1,5.6573,2.3369,8.8883,8.8883,0,0,1,2.1318,6.23v.7792H255.22A8.9532,8.9532,0,0,0,256.9,53.2754a5.405,5.405,0,0,0,4.4687,2.1308A6.7051,6.7051,0,0,0,265.1406,54.3a5.9191,5.9191,0,0,0,2.378-2.9922h1.64a6.1208,6.1208,0,0,1-2.624,4.0176,8.5912,8.5912,0,0,1-5.1651,1.5986A7.0119,7.0119,0,0,1,255.7119,54.3818ZM267.5186,46.02v-.6152a6.222,6.222,0,0,0-1.9678-4.1,6.03,6.03,0,0,0-4.1817-1.64,5.8071,5.8071,0,0,0-4.1406,1.6807,6.3692,6.3692,0,0,0-2.0088,4.2227V46.02Z"/><path d="M273.0117,56.3086V38.8457h1.64V42.78a7.43,7.43,0,0,1,2.05-3.0742,4.574,4.574,0,0,1,2.9511-1.1475h.9424v1.8857a.6536.6536,0,0,1-.2861-.082.4284.4284,0,0,0-.1641-.082,4.7141,4.7141,0,0,0-3.4843,1.64,7.8739,7.8739,0,0,0-2.0088,4.1406V56.3086Z"/><path d="M284.53,54.3818a10.3487,10.3487,0,0,1-2.1319-6.8047,10.3533,10.3533,0,0,1,2.1319-6.8056,7.0166,7.0166,0,0,1,5.6572-2.541,7.2882,7.2882,0,0,1,5.6572,2.3369,8.8883,8.8883,0,0,1,2.1319,6.23v.7792H284.0381a8.9526,8.9526,0,0,0,1.6807,5.6983,5.4047,5.4047,0,0,0,4.4687,2.1308A6.7051,6.7051,0,0,0,293.959,54.3a5.92,5.92,0,0,0,2.3779-2.9922h1.64a6.1213,6.1213,0,0,1-2.6241,4.0176,8.5906,8.5906,0,0,1-5.165,1.5986A7.0117,7.0117,0,0,1,284.53,54.3818ZM296.3369,46.02v-.6152a6.222,6.222,0,0,0-1.9678-4.1,6.03,6.03,0,0,0-4.1816-1.64,5.8069,5.8069,0,0,0-4.1406,1.6807,6.3692,6.3692,0,0,0-2.0088,4.2227V46.02Z"/><path d="M302.3623,55.12a5.005,5.005,0,0,1-1.9678-3.9765h1.5176a3.8384,3.8384,0,0,0,1.5166,3.0332,5.605,5.605,0,0,0,3.6484,1.2294A6.5878,6.5878,0,0,0,311.0537,54.3a3.6152,3.6152,0,0,0,1.4756-2.9922,2.819,2.819,0,0,0-1.5576-2.3779,9.8758,9.8758,0,0,0-4.1817-1.1885,8.0744,8.0744,0,0,1-4.4277-1.5576,3.968,3.968,0,0,1-1.6807-3.2393,3.8752,3.8752,0,0,1,1.6807-3.3613,8.0713,8.0713,0,0,1,4.7148-1.1885,7.6369,7.6369,0,0,1,4.6319,1.27,3.99,3.99,0,0,1,1.7627,3.4024h-1.5576a3.7562,3.7562,0,0,0-1.5577-2.5,5.5365,5.5365,0,0,0-3.2793-.9024,6.1216,6.1216,0,0,0-3.5253.9024,2.761,2.761,0,0,0-1.3125,2.3769,2.8132,2.8132,0,0,0,1.5986,2.378,9.8556,9.8556,0,0,0,4.1816,1.1884,7.8632,7.8632,0,0,1,4.4278,1.64,4.5507,4.5507,0,0,1-.2871,7.2158,8.3733,8.3733,0,0,1-5.0831,1.3936A7.0263,7.0263,0,0,1,302.3623,55.12Z"/><path d="M318.9648,54.3818a10.3486,10.3486,0,0,1-2.1318-6.8047,10.3532,10.3532,0,0,1,2.1318-6.8056,7.0168,7.0168,0,0,1,5.6573-2.541,7.2884,7.2884,0,0,1,5.6572,2.3369,8.8883,8.8883,0,0,1,2.1318,6.23v.7792H318.4727a8.9532,8.9532,0,0,0,1.6806,5.6983,5.4051,5.4051,0,0,0,4.4688,2.1308A6.7053,6.7053,0,0,0,328.3936,54.3a5.92,5.92,0,0,0,2.3779-2.9922h1.64a6.1208,6.1208,0,0,1-2.624,4.0176,8.5911,8.5911,0,0,1-5.165,1.5986A7.0119,7.0119,0,0,1,318.9648,54.3818ZM330.7715,46.02v-.6152a6.222,6.222,0,0,0-1.9678-4.1,6.03,6.03,0,0,0-4.1816-1.64,5.8071,5.8071,0,0,0-4.1407,1.6807,6.3691,6.3691,0,0,0-2.0087,4.2227V46.02Z"/><path d="M336.2646,56.3086V38.8457h1.64v2.9512a5.6,5.6,0,0,1,2.2539-2.46,6.5231,6.5231,0,0,1,7.748.7383,5.4181,5.4181,0,0,1,1.8448,4.1V56.3086h-1.64V44.1748A4.0669,4.0669,0,0,0,346.7588,41.1a4.5691,4.5691,0,0,0-3.2383-1.2705,5.3953,5.3953,0,0,0-3.6484,1.3936,6.0456,6.0456,0,0,0-1.9678,3.5664v11.52Z"/><path d="M355.7773,54.0537a9.6908,9.6908,0,0,1-2.2548-6.4766,10.0745,10.0745,0,0,1,2.2548-6.6005,6.7954,6.7954,0,0,1,5.4112-2.7461,6.2571,6.2571,0,0,1,3.6894,1.1884,6.9741,6.9741,0,0,1,2.378,3.1973V31.999h1.64v24.31h-1.64V52.7422a5.7891,5.7891,0,0,1-2.337,2.91,6.5117,6.5117,0,0,1-3.73,1.1075A6.8288,6.8288,0,0,1,355.7773,54.0537Zm9.7159-.86a9.0592,9.0592,0,0,0,1.7627-5.6163,8.8839,8.8839,0,0,0-1.7627-5.5751,5.3153,5.3153,0,0,0-4.3047-2.337,5.2074,5.2074,0,0,0-4.2637,2.337,8.8839,8.8839,0,0,0-1.7627,5.5751,9.0592,9.0592,0,0,0,1.7627,5.6163,5.2064,5.2064,0,0,0,4.2637,2.3359A5.3144,5.3144,0,0,0,365.4932,53.1934Z"/><path d="M374.1426,46.5107h13.0351v1.5176H374.1426Z"/><path d="M23.69,93.9824a10.3489,10.3489,0,0,1-2.1319-6.8047A10.3533,10.3533,0,0,1,23.69,80.3721a7.0166,7.0166,0,0,1,5.6572-2.541,7.2884,7.2884,0,0,1,5.6572,2.3369,8.8882,8.8882,0,0,1,2.1318,6.23v.7793H23.1973a8.9532,8.9532,0,0,0,1.6806,5.6983,5.4051,5.4051,0,0,0,4.4688,2.1308A6.7053,6.7053,0,0,0,33.1182,93.9a5.92,5.92,0,0,0,2.3779-2.9922h1.64a6.1208,6.1208,0,0,1-2.624,4.0176,8.5909,8.5909,0,0,1-5.165,1.5986A7.0117,7.0117,0,0,1,23.69,93.9824ZM35.4961,85.62v-.6152a6.222,6.222,0,0,0-1.9678-4.1,6.03,6.03,0,0,0-4.1816-1.64,5.8069,5.8069,0,0,0-4.1406,1.6807,6.3688,6.3688,0,0,0-2.0088,4.2226V85.62Z"/><path d="M40.9893,95.9092V78.4463h1.64v3.9346a7.4327,7.4327,0,0,1,2.05-3.0743A4.5744,4.5744,0,0,1,47.63,78.1592h.9424v1.8857a.6536.6536,0,0,1-.2862-.082.429.429,0,0,0-.164-.082,4.7143,4.7143,0,0,0-3.4844,1.64,7.8735,7.8735,0,0,0-2.0088,4.1406V95.9092Z"/><path d="M65.626,93.6543a9.69,9.69,0,0,1-2.2549-6.4766,10.0745,10.0745,0,0,1,2.2549-6.6006,6.7952,6.7952,0,0,1,5.4111-2.746,6.2565,6.2565,0,0,1,3.69,1.1884,6.974,6.974,0,0,1,2.3779,3.1973V71.6h1.64v24.31h-1.64V92.3428a5.7894,5.7894,0,0,1-2.3369,2.91A6.512,6.512,0,0,1,71.0371,96.36,6.8284,6.8284,0,0,1,65.626,93.6543Zm9.7158-.86a9.0587,9.0587,0,0,0,1.7627-5.6162,8.8844,8.8844,0,0,0-1.7627-5.5752,5.3154,5.3154,0,0,0-4.3047-2.3369,5.2075,5.2075,0,0,0-4.2637,2.3369,8.8844,8.8844,0,0,0-1.7627,5.5752,9.0587,9.0587,0,0,0,1.7627,5.6162,5.2063,5.2063,0,0,0,4.2637,2.336A5.3141,5.3141,0,0,0,75.3418,92.7939Z"/><path d="M83.9912,71.6h1.64v2.501h-1.64Zm0,24.31V78.4463h1.64V95.9092Z"/><path d="M92.0254,100.5a4.9334,4.9334,0,0,1-2.2139-4.0166h1.5576a3.7036,3.7036,0,0,0,1.7217,3.0332,7.19,7.19,0,0,0,4.2227,1.23,6.2088,6.2088,0,0,0,4.3047-1.4346,4.8647,4.8647,0,0,0,1.64-3.8535V91.8916a6.0181,6.0181,0,0,1-2.3779,2.7061,6.5325,6.5325,0,0,1-3.5254,1.0244,6.8307,6.8307,0,0,1-5.4932-2.419,9.6583,9.6583,0,0,1-2.0908-6.4765A9.66,9.66,0,0,1,91.8613,80.25a6.8336,6.8336,0,0,1,5.4932-2.4189,6.5585,6.5585,0,0,1,3.6484,1.0654,5.7377,5.7377,0,0,1,2.2549,2.8291V78.4463h1.64V95.499a6.0782,6.0782,0,0,1-2.0088,4.8789,8.0813,8.0813,0,0,1-5.5752,1.7627A8.5266,8.5266,0,0,1,92.0254,100.5Zm9.5107-8.3623a9.3642,9.3642,0,0,0,0-10.8223,5.2585,5.2585,0,0,0-8.4863-.123,10.16,10.16,0,0,0,0,11.0683,5.2584,5.2584,0,0,0,8.4863-.123Z"/><path d="M124.3281,93.9824a10.3488,10.3488,0,0,1-2.1318-6.8047,10.3532,10.3532,0,0,1,2.1318-6.8056,7.0168,7.0168,0,0,1,5.6573-2.541,7.2884,7.2884,0,0,1,5.6572,2.3369,8.8882,8.8882,0,0,1,2.1318,6.23v.7793H123.8359a8.9532,8.9532,0,0,0,1.6807,5.6983,5.4051,5.4051,0,0,0,4.4688,2.1308A6.705,6.705,0,0,0,133.7568,93.9a5.92,5.92,0,0,0,2.378-2.9922h1.64a6.1208,6.1208,0,0,1-2.624,4.0176,8.5911,8.5911,0,0,1-5.165,1.5986A7.0119,7.0119,0,0,1,124.3281,93.9824ZM136.1348,85.62v-.6152a6.222,6.222,0,0,0-1.9678-4.1,6.03,6.03,0,0,0-4.1816-1.64,5.8071,5.8071,0,0,0-4.1407,1.6807,6.37,6.37,0,0,0-2.0088,4.2226V85.62Z"/><path d="M142.7344,95.417a3.8132,3.8132,0,0,1-.9434-2.6231V79.7168h-2.5V78.4463h2.5V73.4854h1.6406v4.9609h2.377v1.2705h-2.377V92.7939a2.9275,2.9275,0,0,0,.5323,1.7627,1.4468,1.4468,0,0,0,1.23.7373,2.4894,2.4894,0,0,0,1.27-.2871v1.1895a4.4527,4.4527,0,0,1-1.3935.3281A3.0282,3.0282,0,0,1,142.7344,95.417Z"/><path d="M163.5586,93.6543a9.6909,9.6909,0,0,1-2.2549-6.4766,10.075,10.075,0,0,1,2.2549-6.6006,6.7952,6.7952,0,0,1,5.4111-2.746,6.2565,6.2565,0,0,1,3.69,1.1884,6.9734,6.9734,0,0,1,2.3779,3.1973V71.6h1.64v24.31h-1.64V92.3428a5.7894,5.7894,0,0,1-2.3369,2.91A6.512,6.512,0,0,1,168.97,96.36,6.8284,6.8284,0,0,1,163.5586,93.6543Zm9.7158-.86a9.0587,9.0587,0,0,0,1.7627-5.6162,8.8844,8.8844,0,0,0-1.7627-5.5752,5.3154,5.3154,0,0,0-4.3047-2.3369,5.2074,5.2074,0,0,0-4.2636,2.3369,8.8838,8.8838,0,0,0-1.7627,5.5752,9.0581,9.0581,0,0,0,1.7627,5.6162A5.2061,5.2061,0,0,0,168.97,95.13,5.3141,5.3141,0,0,0,173.2744,92.7939Z"/><path d="M181.9238,71.6h1.64v2.501h-1.64Zm0,24.31V78.4463h1.64V95.9092Z"/><path d="M190.04,93.9a9.9064,9.9064,0,0,1-2.4189-6.7227,9.6469,9.6469,0,0,1,2.4189-6.6006,7.5369,7.5369,0,0,1,5.8623-2.746,7.2915,7.2915,0,0,1,4.837,1.6806,5.238,5.238,0,0,1,2.0087,4.1h-1.64a3.6924,3.6924,0,0,0-1.5166-2.9521,5.6743,5.6743,0,0,0-3.69-1.23,6.055,6.055,0,0,0-4.7148,2.2549,8.2677,8.2677,0,0,0-1.9268,5.4931,8.5446,8.5446,0,0,0,1.9268,5.6162,5.974,5.974,0,0,0,4.7148,2.336,5.3383,5.3383,0,0,0,3.6075-1.2705,3.8414,3.8414,0,0,0,1.5166-3.0332h1.7216a5.278,5.278,0,0,1-2.0087,4.1406,7.1839,7.1839,0,0,1-4.837,1.7217A7.4874,7.4874,0,0,1,190.04,93.9Z"/><path d="M206.3145,102.4678V78.4463h1.64v3.6074a6.5093,6.5093,0,0,1,2.3359-3.0752,6.1579,6.1579,0,0,1,3.6075-1.1474,6.8987,6.8987,0,0,1,5.6162,2.541,10.3532,10.3532,0,0,1,2.1318,6.8056,9.9177,9.9177,0,0,1-2.05,6.5586,6.99,6.99,0,0,1-9.1006,1.3526,6.7363,6.7363,0,0,1-2.541-2.91v10.2891Zm12.0517-9.6328a9.5481,9.5481,0,0,0,1.64-5.8213,9.1826,9.1826,0,0,0-1.64-5.7393,5.0728,5.0728,0,0,0-4.3047-2.1728,5.24,5.24,0,0,0-4.3037,2.3369,8.7429,8.7429,0,0,0-1.8037,5.5752,8.9775,8.9775,0,0,0,1.8037,5.6572,5.2384,5.2384,0,0,0,4.3037,2.3359A5.0719,5.0719,0,0,0,218.3662,92.835Z"/><path d="M225.8271,71.6h1.64v2.501h-1.64Zm0,24.31V78.4463h1.64V95.9092Z"/><path d="M233.9434,93.9a9.906,9.906,0,0,1-2.419-6.7227,9.6465,9.6465,0,0,1,2.419-6.6006,7.5369,7.5369,0,0,1,5.8623-2.746,7.2914,7.2914,0,0,1,4.8369,1.6806,5.2381,5.2381,0,0,1,2.0088,4.1h-1.64a3.6921,3.6921,0,0,0-1.5166-2.9521,5.6742,5.6742,0,0,0-3.6894-1.23,6.0551,6.0551,0,0,0-4.7149,2.2549,8.2676,8.2676,0,0,0-1.9267,5.4931,8.5446,8.5446,0,0,0,1.9267,5.6162,5.974,5.974,0,0,0,4.7149,2.336,5.3383,5.3383,0,0,0,3.6074-1.2705,3.8414,3.8414,0,0,0,1.5166-3.0332h1.7217a5.2781,5.2781,0,0,1-2.0088,4.1406,7.1839,7.1839,0,0,1-4.8369,1.7217A7.4874,7.4874,0,0,1,233.9434,93.9Z"/><path d="M263.8682,94.7207A5.0048,5.0048,0,0,1,261.9,90.7441h1.5176a3.8383,3.8383,0,0,0,1.5166,3.0332,5.6041,5.6041,0,0,0,3.6484,1.23A6.5878,6.5878,0,0,0,272.56,93.9a3.6154,3.6154,0,0,0,1.4756-2.9922,2.8191,2.8191,0,0,0-1.5577-2.3779,9.8738,9.8738,0,0,0-4.1816-1.1885,8.0738,8.0738,0,0,1-4.4277-1.5576,3.968,3.968,0,0,1-1.6807-3.2393,3.8752,3.8752,0,0,1,1.6807-3.3613,8.0713,8.0713,0,0,1,4.7148-1.1885,7.6357,7.6357,0,0,1,4.6318,1.2705,3.99,3.99,0,0,1,1.7627,3.4024H273.42a3.7558,3.7558,0,0,0-1.5576-2.5,5.5367,5.5367,0,0,0-3.2793-.9024,6.1217,6.1217,0,0,0-3.5254.9024,2.761,2.761,0,0,0-1.3125,2.3769,2.8131,2.8131,0,0,0,1.5987,2.378,9.8551,9.8551,0,0,0,4.1816,1.1884,7.8631,7.8631,0,0,1,4.4277,1.64,4.5506,4.5506,0,0,1-.2871,7.2158,8.373,8.373,0,0,1-5.083,1.3936A7.0259,7.0259,0,0,1,263.8682,94.7207Z"/><path d="M280.5527,93.7363a9.3288,9.3288,0,0,1-2.2548-6.5586,9.98,9.98,0,0,1,2.2548-6.8056,7.4871,7.4871,0,0,1,5.9444-2.541,7.5633,7.5633,0,0,1,5.9433,2.541,10.0936,10.0936,0,0,1,2.2139,6.8056,9.4306,9.4306,0,0,1-2.2139,6.5586,7.68,7.68,0,0,1-5.9433,2.46A7.6017,7.6017,0,0,1,280.5527,93.7363Zm10.6993-.9834a8.3667,8.3667,0,0,0,1.7626-5.5752,8.7313,8.7313,0,0,0-1.7626-5.7392,5.8776,5.8776,0,0,0-4.7549-2.1729,5.8047,5.8047,0,0,0-4.7559,2.1729,8.5978,8.5978,0,0,0-1.8037,5.7392,8.2415,8.2415,0,0,0,1.8037,5.5752,5.9,5.9,0,0,0,4.7559,2.0909A5.9746,5.9746,0,0,0,291.252,92.7529Z"/><path d="M298.7949,95.9092V78.4463h1.64v2.9512a5.94,5.94,0,0,1,2.0908-2.46,4.9941,4.9941,0,0,1,2.91-.9424,5.4777,5.4777,0,0,1,3.2383.9834,4.55,4.55,0,0,1,1.8448,2.583,5.9314,5.9314,0,0,1,2.3369-2.583,6.5257,6.5257,0,0,1,3.4843-.9834,5.6244,5.6244,0,0,1,4.0176,1.5987,5.1879,5.1879,0,0,1,1.64,3.8535V95.9092h-1.64V83.4473a4.096,4.096,0,0,0-1.1894-2.9522,3.717,3.717,0,0,0-2.8282-1.2295,5.0318,5.0318,0,0,0-3.4433,1.3526,5.8309,5.8309,0,0,0-1.8858,3.4433V95.9092h-1.64V83.4473a4.26,4.26,0,0,0-1.1074-2.9522A3.4609,3.4609,0,0,0,305.6,79.2656a4.65,4.65,0,0,0-3.32,1.4346,6.9693,6.9693,0,0,0-1.8447,3.6894v11.52Z"/><path d="M22.624,135.5088v-24.31h1.64v10.126a6.6656,6.6656,0,0,1,2.459-2.8291,6.1611,6.1611,0,0,1,3.4843-1.0654,5.6356,5.6356,0,0,1,4.2227,1.8447,6.043,6.043,0,0,1,1.7627,4.3857v11.8477h-1.64v-11.52a5.3412,5.3412,0,0,0-1.27-3.6075,3.881,3.881,0,0,0-3.0752-1.5166,5.3275,5.3275,0,0,0-3.6484,1.4756,7.2345,7.2345,0,0,0-2.2949,3.7715v11.3965Z"/><path d="M42.6689,134.3613a5.019,5.019,0,0,1-1.7627-3.8535V118.0459h1.64v12.4619a3.9125,3.9125,0,0,0,1.27,2.91,4.3353,4.3353,0,0,0,3.0742,1.1884,5.3167,5.3167,0,0,0,3.8125-1.64,7.4672,7.4672,0,0,0,2.1319-4.14V118.0459h1.64v17.4629h-1.64v-3.0742a5.84,5.84,0,0,1-2.378,2.582,6.8831,6.8831,0,0,1-3.5664.9434A6.068,6.068,0,0,1,42.6689,134.3613Z"/><path d="M59.7227,135.5088V118.0459h1.64v2.9512a5.6,5.6,0,0,1,2.2539-2.46,6.5232,6.5232,0,0,1,7.7481.7383,5.4183,5.4183,0,0,1,1.8447,4.1v12.1338h-1.64V123.375A4.0669,4.0669,0,0,0,70.2168,120.3a4.5689,4.5689,0,0,0-3.2383-1.27,5.3953,5.3953,0,0,0-3.6484,1.3936,6.0456,6.0456,0,0,0-1.9678,3.5664v11.52Z"/><path d="M91.2881,135.5088v-24.31h1.64v10.126a6.6656,6.6656,0,0,1,2.459-2.8291,6.1614,6.1614,0,0,1,3.4844-1.0654,5.6359,5.6359,0,0,1,4.2227,1.8447,6.0429,6.0429,0,0,1,1.7626,4.3857v11.8477h-1.64v-11.52a5.3412,5.3412,0,0,0-1.2705-3.6075,3.8813,3.8813,0,0,0-3.0752-1.5166,5.3271,5.3271,0,0,0-3.6484,1.4756,7.234,7.234,0,0,0-2.295,3.7715v11.3965Z"/><path d="M110.2256,134.6885a4.24,4.24,0,0,1-.041-6.9688,7.8325,7.8325,0,0,1,4.4277-1.7217,18.3227,18.3227,0,0,0,4.2227-.8193q1.68-.5742,1.6806-1.3535v-1.5576a2.7163,2.7163,0,0,0-1.4756-2.2959,6.9708,6.9708,0,0,0-6.9287-.041,2.6817,2.6817,0,0,0-1.3935,2.2138v.9024H109.16v-1.0664a3.5569,3.5569,0,0,1,1.8447-2.9922,8.0651,8.0651,0,0,1,4.5088-1.23,8.6594,8.6594,0,0,1,4.6328,1.1885,3.3973,3.3973,0,0,1,1.9267,2.8691v10.5772a3.3051,3.3051,0,0,0,.4512,1.7626,1.2974,1.2974,0,0,0,1.1065.7374,1.4738,1.4738,0,0,0,.3691-.0411.5112.5112,0,0,0,.2461-.123v.7793a3.7048,3.7048,0,0,1-1.5576.2871,2.0947,2.0947,0,0,1-1.6406-.82,3.0485,3.0485,0,0,1-.6553-1.9678,4.1626,4.1626,0,0,1-2.0908,2.2549,7.6584,7.6584,0,0,1-3.6895.8613A6.8241,6.8241,0,0,1,110.2256,134.6885Zm8.24-1.23a5.736,5.736,0,0,0,2.05-3.5664V125.875a4.9756,4.9756,0,0,1-2.0908.82,28.97,28.97,0,0,1-3.8125.5332,5.4808,5.4808,0,0,0-3.2383,1.3115,3.3348,3.3348,0,0,0-1.3125,2.6231,3.226,3.226,0,0,0,1.3535,2.624,4.7865,4.7865,0,0,0,3.1973,1.1065A5.764,5.764,0,0,0,118.4658,133.459Z"/><path d="M127.4023,135.5088V118.0459h1.64v3.9346a7.4327,7.4327,0,0,1,2.05-3.0743,4.5744,4.5744,0,0,1,2.9512-1.1474h.9424v1.8857a.6536.6536,0,0,1-.2862-.082.429.429,0,0,0-.164-.082,4.7143,4.7143,0,0,0-3.4844,1.64,7.8739,7.8739,0,0,0-2.0088,4.1406v10.2481Z"/><path d="M151.3418,135.5088v-15.7h-2.7461v-1.6h2.7461V114.93a3.4983,3.4983,0,0,1,1.1074-2.6231,3.6286,3.6286,0,0,1,2.6641-1.1074h.9844v1.2715h-.9434a1.899,1.899,0,0,0-1.5166.7373,2.4172,2.4172,0,0,0-.6563,1.7217v3.2793h3.1163v1.6h-3.1163v15.7Z"/><path d="M159.377,134.6885a4.24,4.24,0,0,1-.0411-6.9688,7.8326,7.8326,0,0,1,4.4278-1.7217,18.3206,18.3206,0,0,0,4.2226-.8193q1.68-.5742,1.6807-1.3535v-1.5576a2.7163,2.7163,0,0,0-1.4756-2.2959,6.9708,6.9708,0,0,0-6.9287-.041,2.6818,2.6818,0,0,0-1.3936,2.2138v.9024h-1.5576v-1.0664a3.5571,3.5571,0,0,1,1.8447-2.9922,8.0655,8.0655,0,0,1,4.5088-1.23,8.66,8.66,0,0,1,4.6329,1.1885,3.3975,3.3975,0,0,1,1.9267,2.8691v10.5772a3.3042,3.3042,0,0,0,.4512,1.7626,1.2973,1.2973,0,0,0,1.1064.7374,1.4746,1.4746,0,0,0,.3692-.0411.5112.5112,0,0,0,.2461-.123v.7793a3.705,3.705,0,0,1-1.5577.2871,2.095,2.095,0,0,1-1.6406-.82,3.0485,3.0485,0,0,1-.6553-1.9678,4.1623,4.1623,0,0,1-2.0908,2.2549,7.658,7.658,0,0,1-3.6894.8613A6.8241,6.8241,0,0,1,159.377,134.6885Zm8.24-1.23a5.736,5.736,0,0,0,2.05-3.5664V125.875a4.9756,4.9756,0,0,1-2.0908.82,28.9749,28.9749,0,0,1-3.8125.5332,5.4808,5.4808,0,0,0-3.2383,1.3115,3.3348,3.3348,0,0,0-1.3125,2.6231,3.226,3.226,0,0,0,1.3535,2.624,4.7863,4.7863,0,0,0,3.1973,1.1065A5.764,5.764,0,0,0,167.6172,133.459Zm-5.083-21.85a3.075,3.075,0,0,1,2.2539-.9424,3.2193,3.2193,0,0,1,3.2392,3.2383,3.0763,3.0763,0,0,1-.9433,2.2549,3.123,3.123,0,0,1-2.2959.9423,3.2193,3.2193,0,0,1-3.1973-3.1972A3.1238,3.1238,0,0,1,162.5342,111.6094Zm.8193,3.73a2.0086,2.0086,0,0,0,3.4434-1.4345,2.009,2.009,0,1,0-4.0176,0A2.0353,2.0353,0,0,0,163.3535,115.34Z"/><path d="M177.6191,133.582a11.9276,11.9276,0,0,1,0-13.61,7.0168,7.0168,0,0,1,5.6573-2.541,7.2884,7.2884,0,0,1,5.6572,2.3369,8.8882,8.8882,0,0,1,2.1318,6.23v.7793H177.127a8.9532,8.9532,0,0,0,1.6806,5.6983,5.4051,5.4051,0,0,0,4.4688,2.1308,6.7053,6.7053,0,0,0,3.7715-1.1064,5.92,5.92,0,0,0,2.3779-2.9922h1.64a6.1208,6.1208,0,0,1-2.624,4.0176,8.5911,8.5911,0,0,1-5.165,1.5986A7.0119,7.0119,0,0,1,177.6191,133.582Zm11.8067-8.3623v-.6152a6.222,6.222,0,0,0-1.9678-4.1,6.03,6.03,0,0,0-4.1816-1.64,5.8071,5.8071,0,0,0-4.1407,1.6807,6.3691,6.3691,0,0,0-2.0087,4.2227v.4511Z"/><path d="M196.0254,135.0166a3.8131,3.8131,0,0,1-.9434-2.623V119.3164h-2.5v-1.27h2.5V113.085h1.6407v4.9609H199.1v1.27h-2.3769v13.0772a2.9273,2.9273,0,0,0,.5322,1.7626,1.4471,1.4471,0,0,0,1.2305.7374,2.49,2.49,0,0,0,1.27-.2872v1.1895a4.4537,4.4537,0,0,1-1.3936.3281A3.0283,3.0283,0,0,1,196.0254,135.0166Z"/><path d="M216.1934,134.6885a4.24,4.24,0,0,1-.0411-6.9688,7.8326,7.8326,0,0,1,4.4278-1.7217,18.3206,18.3206,0,0,0,4.2226-.8193q1.68-.5742,1.6807-1.3535v-1.5576a2.7163,2.7163,0,0,0-1.4756-2.2959,6.9708,6.9708,0,0,0-6.9287-.041,2.6818,2.6818,0,0,0-1.3936,2.2138v.9024h-1.5576v-1.0664a3.557,3.557,0,0,1,1.8448-2.9922,8.065,8.065,0,0,1,4.5087-1.23,8.66,8.66,0,0,1,4.6329,1.1885,3.3975,3.3975,0,0,1,1.9267,2.8691v10.5772a3.3042,3.3042,0,0,0,.4512,1.7626,1.2973,1.2973,0,0,0,1.1064.7374,1.474,1.474,0,0,0,.3692-.0411.5112.5112,0,0,0,.2461-.123v.7793a3.705,3.705,0,0,1-1.5577.2871,2.095,2.095,0,0,1-1.6406-.82,3.0485,3.0485,0,0,1-.6552-1.9678,4.1628,4.1628,0,0,1-2.0909,2.2549,7.658,7.658,0,0,1-3.6894.8613A6.8241,6.8241,0,0,1,216.1934,134.6885Zm8.24-1.23a5.736,5.736,0,0,0,2.05-3.5664V125.875a4.9756,4.9756,0,0,1-2.0908.82,28.9749,28.9749,0,0,1-3.8125.5332,5.4808,5.4808,0,0,0-3.2383,1.3115,3.3348,3.3348,0,0,0-1.3125,2.6231,3.226,3.226,0,0,0,1.3535,2.624,4.7863,4.7863,0,0,0,3.1973,1.1065A5.764,5.764,0,0,0,224.4336,133.459Z"/><path d="M233.7383,135.5088v-15.7h-2.7461v-1.6h2.7461V114.93a3.4983,3.4983,0,0,1,1.1074-2.6231,3.6286,3.6286,0,0,1,2.6641-1.1074h.9843v1.2715h-.9433a1.8989,1.8989,0,0,0-1.5166.7373,2.4172,2.4172,0,0,0-.6563,1.7217v3.2793h3.1162v1.6h-3.1162v15.7Z"/><path d="M254.4824,135.5088v-24.31h15.8643v1.5987H256.1221v9.3466h12.9951v1.5166H256.1221v10.29h14.2246v1.5576Z"/><path d="M273.4209,135.5088V118.0459h1.64v2.9512a5.9408,5.9408,0,0,1,2.0909-2.46,4.9939,4.9939,0,0,1,2.91-.9424,5.4784,5.4784,0,0,1,3.2383.9834,4.55,4.55,0,0,1,1.8447,2.583,5.9326,5.9326,0,0,1,2.3369-2.583,6.5272,6.5272,0,0,1,3.4844-.9834,5.625,5.625,0,0,1,4.0176,1.5987,5.1878,5.1878,0,0,1,1.64,3.8535v12.4619h-1.64V123.0469a4.0957,4.0957,0,0,0-1.19-2.9522,3.7168,3.7168,0,0,0-2.8281-1.23,5.0318,5.0318,0,0,0-3.4433,1.3526,5.83,5.83,0,0,0-1.8858,3.4433v11.8477h-1.64V123.0469a4.26,4.26,0,0,0-1.1075-2.9522,3.4607,3.4607,0,0,0-2.664-1.23,4.65,4.65,0,0,0-3.32,1.4346,6.9694,6.9694,0,0,0-1.8448,3.6895v11.52Z"/><path d="M301.624,111.1992h1.64V113.7h-1.64Zm0,24.31V118.0459h1.64v17.4629Z"/><path d="M308.5107,135.5088v-24.31h1.64v24.31Z"/><path d="M328.8838,135.5088v-15.7h-2.7461v-1.6h2.7461V114.93a3.4983,3.4983,0,0,1,1.1074-2.6231,3.6286,3.6286,0,0,1,2.6641-1.1074h.9843v1.2715h-.9433a1.8989,1.8989,0,0,0-1.5166.7373,2.4172,2.4172,0,0,0-.6563,1.7217v3.2793H333.64v1.6h-3.1162v15.7Z"/><path d="M336.51,135.5088V118.0459h1.64v3.9346a7.4327,7.4327,0,0,1,2.05-3.0743,4.5744,4.5744,0,0,1,2.9512-1.1474h.9424v1.8857a.6536.6536,0,0,1-.2862-.082.429.429,0,0,0-.164-.082,4.7143,4.7143,0,0,0-3.4844,1.64,7.8739,7.8739,0,0,0-2.0088,4.1406v10.2481Z"/><path d="M347.3721,134.6885a4.24,4.24,0,0,1-.041-6.9688,7.8323,7.8323,0,0,1,4.4277-1.7217,18.3206,18.3206,0,0,0,4.2226-.8193q1.68-.5742,1.6807-1.3535v-1.5576a2.7163,2.7163,0,0,0-1.4756-2.2959,6.9708,6.9708,0,0,0-6.9287-.041,2.6817,2.6817,0,0,0-1.3935,2.2138v.9024h-1.5577v-1.0664a3.557,3.557,0,0,1,1.8448-2.9922,8.0651,8.0651,0,0,1,4.5088-1.23,8.6594,8.6594,0,0,1,4.6328,1.1885,3.3975,3.3975,0,0,1,1.9267,2.8691v10.5772a3.3042,3.3042,0,0,0,.4512,1.7626,1.2973,1.2973,0,0,0,1.1064.7374,1.474,1.474,0,0,0,.3692-.0411.5112.5112,0,0,0,.2461-.123v.7793a3.7048,3.7048,0,0,1-1.5576.2871,2.0951,2.0951,0,0,1-1.6407-.82,3.0485,3.0485,0,0,1-.6552-1.9678,4.1628,4.1628,0,0,1-2.0909,2.2549,7.658,7.658,0,0,1-3.6894.8613A6.8241,6.8241,0,0,1,347.3721,134.6885Zm8.24-1.23a5.736,5.736,0,0,0,2.05-3.5664V125.875a4.9756,4.9756,0,0,1-2.0908.82,28.97,28.97,0,0,1-3.8125.5332,5.4808,5.4808,0,0,0-3.2383,1.3115,3.3348,3.3348,0,0,0-1.3125,2.6231,3.226,3.226,0,0,0,1.3535,2.624,4.7863,4.7863,0,0,0,3.1973,1.1065A5.764,5.764,0,0,0,355.6123,133.459Z"/><path d="M22.624,175.1094V150.8h1.64v15.9063l9.3467-9.06h2.0488l-6.7227,6.3945,7.502,11.0684H34.7168l-6.8457-9.9619-3.6074,3.4443v6.5176Z"/><path d="M39.4316,175.1094V150.8h1.64v24.31Z"/><path d="M46.7275,174.2891a4.24,4.24,0,0,1-.041-6.9688,7.8326,7.8326,0,0,1,4.4278-1.7217,18.3217,18.3217,0,0,0,4.2226-.8193q1.68-.5742,1.6807-1.3535v-1.5576a2.7162,2.7162,0,0,0-1.4756-2.2959,6.9711,6.9711,0,0,0-6.9287-.0411,2.682,2.682,0,0,0-1.3936,2.2139v.9024H45.6621v-1.0664a3.5568,3.5568,0,0,1,1.8447-2.9922,8.0655,8.0655,0,0,1,4.5088-1.23,8.6592,8.6592,0,0,1,4.6328,1.1885,3.3975,3.3975,0,0,1,1.9268,2.8691v10.5771a3.3046,3.3046,0,0,0,.4512,1.7627,1.2973,1.2973,0,0,0,1.1064.7373,1.48,1.48,0,0,0,.3692-.041.5112.5112,0,0,0,.246-.123v.7793a3.7042,3.7042,0,0,1-1.5576.2871,2.095,2.095,0,0,1-1.6406-.82,3.0485,3.0485,0,0,1-.6553-1.9678,4.1626,4.1626,0,0,1-2.0908,2.2549,7.658,7.658,0,0,1-3.6894.8613A6.8246,6.8246,0,0,1,46.7275,174.2891Zm8.24-1.23a5.736,5.736,0,0,0,2.05-3.5664v-4.0176a4.977,4.977,0,0,1-2.0908.82,28.9919,28.9919,0,0,1-3.8125.5332,5.4808,5.4808,0,0,0-3.2383,1.3115,3.3348,3.3348,0,0,0-1.3125,2.6231,3.2258,3.2258,0,0,0,1.3535,2.624,4.786,4.786,0,0,0,3.1973,1.1064A5.7639,5.7639,0,0,0,54.9678,173.06Z"/><path d="M64.4365,173.9209a5.005,5.005,0,0,1-1.9677-3.9766h1.5175a3.8383,3.8383,0,0,0,1.5166,3.0332,5.6046,5.6046,0,0,0,3.6485,1.23,6.5877,6.5877,0,0,0,3.9765-1.1064,3.6154,3.6154,0,0,0,1.4756-2.9922,2.819,2.819,0,0,0-1.5576-2.3779,9.8743,9.8743,0,0,0-4.1816-1.1885,8.0744,8.0744,0,0,1-4.4278-1.5576,3.9679,3.9679,0,0,1-1.6806-3.2393,3.8751,3.8751,0,0,1,1.6806-3.3613,8.0714,8.0714,0,0,1,4.7149-1.1885,7.6361,7.6361,0,0,1,4.6318,1.27,3.99,3.99,0,0,1,1.7627,3.4024H73.9883a3.7562,3.7562,0,0,0-1.5576-2.5,5.5369,5.5369,0,0,0-3.2793-.9024,6.1217,6.1217,0,0,0-3.5254.9024,2.761,2.761,0,0,0-1.3125,2.3769,2.813,2.813,0,0,0,1.5986,2.3779,9.8541,9.8541,0,0,0,4.1817,1.1885,7.8631,7.8631,0,0,1,4.4277,1.64,4.5507,4.5507,0,0,1-.2871,7.2158,8.373,8.373,0,0,1-5.083,1.3935A7.0263,7.0263,0,0,1,64.4365,173.9209Z"/><path d="M80.5059,173.9209a5.0048,5.0048,0,0,1-1.9678-3.9766h1.5176a3.838,3.838,0,0,0,1.5166,3.0332,5.6041,5.6041,0,0,0,3.6484,1.23,6.588,6.588,0,0,0,3.9766-1.1064,3.6154,3.6154,0,0,0,1.4756-2.9922,2.8191,2.8191,0,0,0-1.5577-2.3779,9.8738,9.8738,0,0,0-4.1816-1.1885,8.0738,8.0738,0,0,1-4.4277-1.5576,3.968,3.968,0,0,1-1.6807-3.2393,3.8752,3.8752,0,0,1,1.6807-3.3613,8.0713,8.0713,0,0,1,4.7148-1.1885,7.6357,7.6357,0,0,1,4.6318,1.27,3.99,3.99,0,0,1,1.7627,3.4024H90.0576a3.7558,3.7558,0,0,0-1.5576-2.5,5.5367,5.5367,0,0,0-3.2793-.9024,6.1217,6.1217,0,0,0-3.5254.9024,2.761,2.761,0,0,0-1.3125,2.3769,2.813,2.813,0,0,0,1.5986,2.3779,9.8546,9.8546,0,0,0,4.1817,1.1885,7.8631,7.8631,0,0,1,4.4277,1.64,4.5506,4.5506,0,0,1-.2871,7.2158,8.373,8.373,0,0,1-5.083,1.3935A7.0259,7.0259,0,0,1,80.5059,173.9209Z"/><path d="M97.1084,173.1826a11.9276,11.9276,0,0,1,0-13.61,7.0166,7.0166,0,0,1,5.6572-2.5411,7.2886,7.2886,0,0,1,5.6573,2.337,8.8882,8.8882,0,0,1,2.1318,6.23v.7793H96.6162a8.9532,8.9532,0,0,0,1.6807,5.6983,5.4049,5.4049,0,0,0,4.4687,2.1308,6.7051,6.7051,0,0,0,3.7715-1.1064,5.9193,5.9193,0,0,0,2.3779-2.9922h1.64a6.1215,6.1215,0,0,1-2.624,4.0176,8.5912,8.5912,0,0,1-5.1651,1.5986A7.0117,7.0117,0,0,1,97.1084,173.1826ZM108.915,164.82v-.6152a6.2219,6.2219,0,0,0-1.9677-4.1,6.03,6.03,0,0,0-4.1817-1.64,5.8071,5.8071,0,0,0-4.1406,1.6807,6.369,6.369,0,0,0-2.0088,4.2226v.4512Z"/><path d="M114.4082,175.1094V157.6465h1.64v2.9512a5.6,5.6,0,0,1,2.2539-2.46,6.5231,6.5231,0,0,1,7.748.7383,5.4178,5.4178,0,0,1,1.8447,4.1v12.1338h-1.64V162.9756a4.0668,4.0668,0,0,0-1.3526-3.0752,4.5688,4.5688,0,0,0-3.2382-1.27,5.3961,5.3961,0,0,0-3.6485,1.3935,6.0452,6.0452,0,0,0-1.9677,3.5664v11.52Z"/><path d="M132.8555,172.6084h2.3769v2.501h-2.3769Z"/><path d="M153.5986,175.1094V150.8h1.64V161.417h14.6758V150.8h1.64v24.31h-1.64V162.9756H155.2383v12.1338Z"/><path d="M181.2275,175.1094,174.71,157.6465h1.5166l5.9443,15.5771,5.6162-15.5771h1.5576l-6.3955,17.4629Z"/><path d="M192.91,174.2891a4.24,4.24,0,0,1-.0411-6.9688,7.8326,7.8326,0,0,1,4.4278-1.7217,18.3206,18.3206,0,0,0,4.2226-.8193q1.68-.5742,1.6807-1.3535v-1.5576a2.7162,2.7162,0,0,0-1.4756-2.2959,6.9711,6.9711,0,0,0-6.9287-.0411,2.682,2.682,0,0,0-1.3936,2.2139v.9024h-1.5576v-1.0664a3.5569,3.5569,0,0,1,1.8448-2.9922,8.065,8.065,0,0,1,4.5087-1.23,8.66,8.66,0,0,1,4.6329,1.1885,3.3975,3.3975,0,0,1,1.9267,2.8691v10.5771a3.3046,3.3046,0,0,0,.4512,1.7627,1.2973,1.2973,0,0,0,1.1064.7373,1.48,1.48,0,0,0,.3692-.041.5121.5121,0,0,0,.2461-.123v.7793a3.705,3.705,0,0,1-1.5577.2871,2.0953,2.0953,0,0,1-1.6406-.82,3.0485,3.0485,0,0,1-.6553-1.9678,4.1623,4.1623,0,0,1-2.0908,2.2549,7.658,7.658,0,0,1-3.6894.8613A6.8241,6.8241,0,0,1,192.91,174.2891Zm8.24-1.23a5.736,5.736,0,0,0,2.05-3.5664v-4.0176a4.977,4.977,0,0,1-2.0908.82,28.9919,28.9919,0,0,1-3.8125.5332,5.4808,5.4808,0,0,0-3.2383,1.3115,3.3348,3.3348,0,0,0-1.3125,2.6231,3.226,3.226,0,0,0,1.3535,2.624,4.7862,4.7862,0,0,0,3.1973,1.1064A5.7639,5.7639,0,0,0,201.15,173.06Z"/><path d="M211.1523,172.8545a9.691,9.691,0,0,1-2.2548-6.4766,10.0749,10.0749,0,0,1,2.2548-6.6006,6.7957,6.7957,0,0,1,5.4112-2.7461,6.2565,6.2565,0,0,1,3.6894,1.1885,6.9736,6.9736,0,0,1,2.378,3.1973V150.8h1.64v24.31h-1.64V171.543a5.7891,5.7891,0,0,1-2.337,2.91,6.5116,6.5116,0,0,1-3.73,1.1074A6.8287,6.8287,0,0,1,211.1523,172.8545Zm9.7159-.86a9.0587,9.0587,0,0,0,1.7627-5.6162,8.8844,8.8844,0,0,0-1.7627-5.5752,5.3155,5.3155,0,0,0-4.3047-2.3369,5.2075,5.2075,0,0,0-4.2637,2.3369,8.8844,8.8844,0,0,0-1.7627,5.5752,9.0587,9.0587,0,0,0,1.7627,5.6162,5.2063,5.2063,0,0,0,4.2637,2.336A5.3142,5.3142,0,0,0,220.8682,171.9941Z"/><path d="M243.7832,179.7a4.9334,4.9334,0,0,1-2.2139-4.0166h1.5577a3.7035,3.7035,0,0,0,1.7216,3.0332,7.19,7.19,0,0,0,4.2227,1.23,6.2088,6.2088,0,0,0,4.3047-1.4346,4.8643,4.8643,0,0,0,1.64-3.8535v-3.5664a6.0181,6.0181,0,0,1-2.3779,2.7061,6.5325,6.5325,0,0,1-3.5254,1.0244,6.8308,6.8308,0,0,1-5.4932-2.419,11.0764,11.0764,0,0,1,0-12.9531,6.8338,6.8338,0,0,1,5.4932-2.419,6.5586,6.5586,0,0,1,3.6484,1.0655,5.7377,5.7377,0,0,1,2.2549,2.8291v-3.2793h1.64v17.0527a6.0779,6.0779,0,0,1-2.0088,4.8789,8.0812,8.0812,0,0,1-5.5752,1.7627A8.5266,8.5266,0,0,1,243.7832,179.7Zm9.5107-8.3623a9.3642,9.3642,0,0,0,0-10.8223,5.2585,5.2585,0,0,0-8.4863-.123,10.16,10.16,0,0,0,0,11.0683,5.2584,5.2584,0,0,0,8.4863-.123Z"/><path d="M264.7305,174.2891l-1.6807,2.788h-1.5576l2.1318-3.5253a7.6266,7.6266,0,0,1-2.05-3.0332,11.2639,11.2639,0,0,1-.7383-4.1407,9.98,9.98,0,0,1,2.2549-6.8056,7.4872,7.4872,0,0,1,5.9444-2.5411,7.9456,7.9456,0,0,1,3.9355.9834l1.9668-3.2382h1.5586l-2.419,4.0175a8.115,8.115,0,0,1,2.2959,3.2383,11.205,11.205,0,0,1,.8194,4.3457,9.4306,9.4306,0,0,1-2.2139,6.5586,7.68,7.68,0,0,1-5.9433,2.46A8.48,8.48,0,0,1,264.7305,174.2891Zm4.3047-15.8233a5.8046,5.8046,0,0,0-4.7559,2.1729,8.5925,8.5925,0,0,0-1.8037,5.7392,10.6981,10.6981,0,0,0,.4922,3.32,6.8628,6.8628,0,0,0,1.4756,2.46l7.789-12.8721A6.0493,6.0493,0,0,0,269.0352,158.4658Zm4.7548,13.4873a8.3667,8.3667,0,0,0,1.7627-5.5752,10.7211,10.7211,0,0,0-.5742-3.5664,7.4642,7.4642,0,0,0-1.6806-2.706L265.51,173.0186a6.2666,6.2666,0,0,0,3.5254,1.0253A5.9742,5.9742,0,0,0,273.79,171.9531Z"/><path d="M281.333,175.1094V157.6465h1.64v3.9346a7.4308,7.4308,0,0,1,2.05-3.0743,4.5744,4.5744,0,0,1,2.9511-1.1474h.9424v1.8857a.6536.6536,0,0,1-.2861-.082.4284.4284,0,0,0-.1641-.082,4.7145,4.7145,0,0,0-3.4844,1.64,7.8741,7.8741,0,0,0-2.0087,4.1406v10.2481Z"/><path d="M305.97,172.8545a9.6911,9.6911,0,0,1-2.2549-6.4766,10.075,10.075,0,0,1,2.2549-6.6006,6.7957,6.7957,0,0,1,5.4112-2.7461A6.2565,6.2565,0,0,1,315.07,158.22a6.9727,6.9727,0,0,1,2.3779,3.1973V150.8h1.64v24.31h-1.64V171.543a5.7894,5.7894,0,0,1-2.3369,2.91,6.5116,6.5116,0,0,1-3.73,1.1074A6.8287,6.8287,0,0,1,305.97,172.8545Zm9.7158-.86a9.0581,9.0581,0,0,0,1.7627-5.6162,8.8838,8.8838,0,0,0-1.7627-5.5752,5.3152,5.3152,0,0,0-4.3046-2.3369,5.2075,5.2075,0,0,0-4.2637,2.3369,8.8844,8.8844,0,0,0-1.7627,5.5752,9.0587,9.0587,0,0,0,1.7627,5.6162,5.2063,5.2063,0,0,0,4.2637,2.336A5.3139,5.3139,0,0,0,315.6855,171.9941Z"/><path d="M325.8516,173.9619a5.0187,5.0187,0,0,1-1.7627-3.8535V157.6465h1.64v12.4619a3.9125,3.9125,0,0,0,1.2705,2.91,4.3353,4.3353,0,0,0,3.0742,1.1884,5.3167,5.3167,0,0,0,3.8125-1.64,7.4672,7.4672,0,0,0,2.1319-4.14V157.6465h1.64v17.4629h-1.64v-3.0742a5.84,5.84,0,0,1-2.378,2.582,6.883,6.883,0,0,1-3.5664.9433A6.0679,6.0679,0,0,1,325.8516,173.9619Z"/><path d="M349.1357,167.32a5.9229,5.9229,0,0,1,1.0664-3.2383,10.5648,10.5648,0,0,1,2.9512-2.9922,5.2984,5.2984,0,0,0,1.64-1.9677,6.3178,6.3178,0,0,0,.5742-2.7061,4.5566,4.5566,0,0,0-1.5986-3.5254,5.4852,5.4852,0,0,0-3.8536-1.4756,5.3221,5.3221,0,0,0-3.8535,1.5577,5.07,5.07,0,0,0-1.5986,3.7714v.9024h-1.5576v-.9024a6.1883,6.1883,0,0,1,2.0078-4.6318,6.7352,6.7352,0,0,1,4.8379-1.9268,7.7234,7.7234,0,0,1,5.083,1.7627,5.51,5.51,0,0,1,2.0908,4.3038,8.3981,8.3981,0,0,1-.8613,3.8125,6.1572,6.1572,0,0,1-2.418,2.583,5.823,5.823,0,0,0-2.1728,2.2138,6.4246,6.4246,0,0,0-.7793,3.1153v.6152h-1.5577Zm0,5.2881h1.8858v2.501h-1.8858Z"/></g></svg>
