<svg xmlns="http://www.w3.org/2000/svg" width="1103" height="456" viewBox="0 0 1103 456"><defs><style>.cls-1{fill:#f7931e;opacity:0.86;}</style></defs><title>starttekst</title><g id="Spørgsmål"><rect class="cls-1" width="1103" height="456" rx="68.8907"/><path d="M88.042,108.0391V68.7646h12.2725q8.01,0,12.79,5.3614,4.8457,5.3628,4.8447,14.2754,0,8.915-4.8447,14.2763-4.78,5.3628-12.79,5.3614Zm4.9092-4.3926h7.3633a11.4735,11.4735,0,0,0,9.2373-4.1436q3.4891-4.207,3.4882-11.1338t-3.4882-11.0683a11.4764,11.4764,0,0,0-9.2373-4.1436H92.9512Z"/><path d="M122.7949,73.1572V68.7646h4.3926v4.3926Zm0,34.8819V78.583h4.3926v29.4561Z"/><path d="M133.84,108.0391V79.5518h4.3926l-.0117,2.9716a7.3766,7.3766,0,0,1,3.415-3.0361,11.8982,11.8982,0,0,1,4.7022-.9043,10.4054,10.4054,0,0,1,7.7949,3.3594,10.9563,10.9563,0,0,1,3.2207,7.9453v18.1514h-4.3926V89.8877a6.7566,6.7566,0,0,0-2.1318-5.0391,7.1538,7.1538,0,0,0-5.168-2.0664,7.3753,7.3753,0,0,0-5.2324,2.0664,6.6619,6.6619,0,0,0-2.1963,5.0391v18.1514Z"/><path d="M177.5059,79.1h4.3925l7.8164,23.0615L197.5957,79.1h4.457l-9.8183,28.94h-4.9092Z"/><path d="M204.4424,93.3115q0-6.9126,3.3594-11.0459a11.6763,11.6763,0,0,1,17.8281,0q3.3588,4.1338,3.3594,11.0459v1.4854H208.835a10.8873,10.8873,0,0,0,2.1318,7.06,7.0607,7.0607,0,0,0,5.749,2.6944,7.9328,7.9328,0,0,0,5.1035-1.5967,5.9239,5.9239,0,0,0,2.2608-4.2168h4.3926a9.896,9.896,0,0,1-3.6182,7.1055,12.2491,12.2491,0,0,1-8.1387,2.6484,10.9082,10.9082,0,0,1-8.914-4.1338Q204.4414,100.2237,204.4424,93.3115Zm4.3926-2.4551h15.6972a10.6,10.6,0,0,0-2.4551-6.3955,7.2091,7.2091,0,0,0-10.7226,0A10.3708,10.3708,0,0,0,208.835,90.8564Z"/><path d="M233.7686,108.0391V79.5518h4.3925l-.0117,2.9716a7.3769,7.3769,0,0,1,3.4151-3.0361,11.8974,11.8974,0,0,1,4.7021-.9043,10.4054,10.4054,0,0,1,7.7949,3.3594,10.9563,10.9563,0,0,1,3.2207,7.9453v18.1514H252.89V89.8877a6.7566,6.7566,0,0,0-2.1318-5.0391,7.1537,7.1537,0,0,0-5.168-2.0664,7.3753,7.3753,0,0,0-5.2324,2.0664,6.6622,6.6622,0,0,0-2.1963,5.0391v18.1514Z"/><path d="M263.4189,73.1572V68.7646h4.3926v4.3926Zm0,34.8819V78.583h4.3926v29.4561Z"/><path d="M274.4639,108.0391V79.5518h4.3925l-.0117,2.9716a7.3773,7.3773,0,0,1,3.4151-3.0361,11.8978,11.8978,0,0,1,4.7021-.9043,10.4054,10.4054,0,0,1,7.7949,3.3594,10.9563,10.9563,0,0,1,3.2207,7.9453v18.1514H293.585V89.8877a6.7567,6.7567,0,0,0-2.1319-5.0391,7.1536,7.1536,0,0,0-5.1679-2.0664,7.3754,7.3754,0,0,0-5.2325,2.0664,6.6622,6.6622,0,0,0-2.1963,5.0391v18.1514Z"/><path d="M302.4346,93.3115a15.9936,15.9936,0,0,1,3.3584-10.207,10.731,10.731,0,0,1,8.8506-4.5215,8.37,8.37,0,0,1,4.5214,1.292,8.9792,8.9792,0,0,1,3.3584,3.3594v-14.47h4.3926v39.2745h-4.3926l-.0517-4.6514a10.687,10.687,0,0,1-3.2862,3.6182,8.03,8.03,0,0,1-4.5751,1.4853,10.6126,10.6126,0,0,1-8.8907-4.7158A16.9738,16.9738,0,0,1,302.4346,93.3115Zm4.3925,0a13.9882,13.9882,0,0,0,1.9375,7.5576,6.6973,6.6973,0,0,0,11.7569,0,13.6489,13.6489,0,0,0,2.0019-7.5576,13.4035,13.4035,0,0,0-2.0019-7.4287,6.8278,6.8278,0,0,0-5.8779-3.3594,6.6741,6.6741,0,0,0-5.8145,3.3594A13.3953,13.3953,0,0,0,306.8271,93.3115Z"/><path d="M332.1484,93.3115q0-6.9126,3.3594-11.0459a11.6763,11.6763,0,0,1,17.8281,0q3.3589,4.1338,3.3594,11.0459v1.4854H336.541a10.8873,10.8873,0,0,0,2.1319,7.06,7.06,7.06,0,0,0,5.749,2.6944,7.9328,7.9328,0,0,0,5.1035-1.5967,5.9234,5.9234,0,0,0,2.2607-4.2168h4.3926a9.8956,9.8956,0,0,1-3.6182,7.1055,12.2486,12.2486,0,0,1-8.1386,2.6484,10.9085,10.9085,0,0,1-8.9141-4.1338Q332.1475,100.2237,332.1484,93.3115Zm4.3926-2.4551h15.6973a10.6,10.6,0,0,0-2.4551-6.3955,7.2092,7.2092,0,0,0-10.7227,0A10.372,10.372,0,0,0,336.541,90.8564Z"/><path d="M378.334,108.0391V68.7646h4.3926V82.4658a11.7462,11.7462,0,0,1,3.5527-2.8008,9.2092,9.2092,0,0,1,4.3271-1.082,9.9278,9.9278,0,0,1,9.8194,9.8184v19.6377h-4.3926V88.3516a5.0425,5.0425,0,0,0-1.8086-3.8858,6.1641,6.1641,0,0,0-4.1348-1.49q-2.9062,0-6.8466,4.792l-.5166.584v19.6875Z"/><path d="M404.6885,100.1582a7.3713,7.3713,0,0,1,3.4238-6.2012,15.1768,15.1768,0,0,1,7.6221-2.584,15.5622,15.5622,0,0,0,4.78-.9687,3.0892,3.0892,0,0,0,2.2608-2.9717,4.9006,4.9006,0,0,0-1.7442-3.81,6.0133,6.0133,0,0,0-4.1337-1.5508,6.865,6.865,0,0,0-4.3926,1.4853,4.7736,4.7736,0,0,0-1.9375,3.876v.9688h-4.458V86.4639a7.2479,7.2479,0,0,1,3.3594-6.1368,12.4412,12.4412,0,0,1,7.4013-2.1962,11.6025,11.6025,0,0,1,7.1436,2.2607,7.3185,7.3185,0,0,1,3.1543,6.0723v14.7275a2.7051,2.7051,0,0,0,.9043,2.0674,2.8066,2.8066,0,0,0,2.0673.84v3.9405h-1.7441a5.65,5.65,0,0,1-3.1367-.9043,5.1959,5.1959,0,0,1-1.9736-2.52,8.0082,8.0082,0,0,1-3.81,2.9717,13.2784,13.2784,0,0,1-4.9727.9043,10.5666,10.5666,0,0,1-7.1025-2.2607A7.4952,7.4952,0,0,1,404.6885,100.1582Zm4.3926,0a3.7,3.7,0,0,0,1.68,3.1006,6.3046,6.3046,0,0,0,3.7471,1.0986,8.6612,8.6612,0,0,0,5.749-2.0029,6.2418,6.2418,0,0,0,2.5186-5.1025l-.0508-3.94q-1.8018,1.4868-6.5644,1.8731l-1.2227.0644a7.4686,7.4686,0,0,0-4.0547,1.4854A4.1254,4.1254,0,0,0,409.0811,100.1582Z"/><path d="M434.3389,108.0391V79.1h4.3925v5.1035a7.7991,7.7991,0,0,1,3.4883-4.1338,9.9457,9.9457,0,0,1,5.3614-1.4863h1.9375v4.3926h-1.9375a8.0686,8.0686,0,0,0-6.3311,2.98,10.0042,10.0042,0,0,0-2.5186,6.8642v15.22Z"/><path d="M470.0576,108.0391V79.5518H474.45l-.0078,1.4863a8.2735,8.2735,0,0,1,2.9092-1.874,10.2513,10.2513,0,0,1,3.49-.5811,9.8447,9.8447,0,0,1,4.459,1.0342,8.6839,8.6839,0,0,1,3.4258,2.9062,10.7,10.7,0,0,1,3.7334-2.9062,10.587,10.587,0,0,1,4.57-1.0342,10.0263,10.0263,0,0,1,7.21,2.8428,9.1141,9.1141,0,0,1,3.09,6.9756v19.6377h-4.3926V88.4014a5.8786,5.8786,0,0,0-11.7568,0v19.6377h-4.3926V88.4014a5.5134,5.5134,0,0,0-1.7442-4.1338,5.7213,5.7213,0,0,0-4.1982-1.7442,6.4533,6.4533,0,0,0-4.457,1.68,5.3291,5.3291,0,0,0-1.9385,4.1983v19.6377Z"/><path d="M511.9805,93.3115q0-6.9126,3.6084-11.0459a12.1147,12.1147,0,0,1,9.6015-4.1347,12.3084,12.3084,0,0,1,9.666,4.1347q3.6079,4.1338,3.6084,11.0459t-3.6084,11.0459a12.3073,12.3073,0,0,1-9.666,4.1338,12.1137,12.1137,0,0,1-9.6015-4.1338Q511.9795,100.2237,511.9805,93.3115Zm4.3925-.0322a13.01,13.01,0,0,0,2.39,8.18,8.2946,8.2946,0,0,0,12.92,0,13.0161,13.0161,0,0,0,2.39-8.18,12.7448,12.7448,0,0,0-2.39-8.1162,8.2946,8.2946,0,0,0-12.92,0A12.7388,12.7388,0,0,0,516.373,93.2793Z"/><path d="M541.9531,93.3115a15.9941,15.9941,0,0,1,3.3584-10.207,10.7311,10.7311,0,0,1,8.8506-4.5215,8.37,8.37,0,0,1,4.5215,1.292,8.98,8.98,0,0,1,3.3584,3.3594v-14.47h4.3926v39.2745H562.042l-.0518-4.6514a10.6857,10.6857,0,0,1-3.2861,3.6182,8.03,8.03,0,0,1-4.5752,1.4853,10.6124,10.6124,0,0,1-8.8906-4.7158A16.9739,16.9739,0,0,1,541.9531,93.3115Zm4.3926,0a13.9873,13.9873,0,0,0,1.9375,7.5576,6.6972,6.6972,0,0,0,11.7568,0,13.6489,13.6489,0,0,0,2.002-7.5576,13.4035,13.4035,0,0,0-2.002-7.4287,6.8278,6.8278,0,0,0-5.8779-3.3594,6.6738,6.6738,0,0,0-5.8144,3.3594A13.3953,13.3953,0,0,0,546.3457,93.3115Z"/><path d="M574.251,79.1V70.7021h4.3926V79.1h4.457v3.94h-4.457v18.669a1.9858,1.9858,0,0,0,1.9375,1.9375h2.5195v4.3926h-3.94a4.8524,4.8524,0,0,1-4.9092-4.9092V83.04h-3.94V79.1Z"/><path d="M585.49,100.1582a7.3714,7.3714,0,0,1,3.4239-6.2012,15.1764,15.1764,0,0,1,7.622-2.584,15.563,15.563,0,0,0,4.78-.9687,3.0892,3.0892,0,0,0,2.2607-2.9717,4.9005,4.9005,0,0,0-1.7441-3.81,6.0134,6.0134,0,0,0-4.1338-1.5508,6.8652,6.8652,0,0,0-4.3926,1.4853,4.7736,4.7736,0,0,0-1.9375,3.876v.9688h-4.458V86.4639a7.2479,7.2479,0,0,1,3.3594-6.1368,12.4417,12.4417,0,0,1,7.4014-2.1962,11.6022,11.6022,0,0,1,7.1435,2.2607,7.3183,7.3183,0,0,1,3.1543,6.0723v14.7275a2.7051,2.7051,0,0,0,.9043,2.0674,2.8069,2.8069,0,0,0,2.0674.84v3.9405h-1.7441a5.65,5.65,0,0,1-3.1368-.9043,5.1971,5.1971,0,0,1-1.9736-2.52,8.0078,8.0078,0,0,1-3.81,2.9717,13.2779,13.2779,0,0,1-4.9726.9043,10.567,10.567,0,0,1-7.1026-2.2607A7.4955,7.4955,0,0,1,585.49,100.1582Zm4.3926,0a3.7006,3.7006,0,0,0,1.68,3.1006,6.3043,6.3043,0,0,0,3.7471,1.0986,8.6614,8.6614,0,0,0,5.749-2.0029,6.2417,6.2417,0,0,0,2.5185-5.1025l-.0507-3.94q-1.8018,1.4868-6.5645,1.8731l-1.2226.0644a7.4686,7.4686,0,0,0-4.0547,1.4854A4.1255,4.1255,0,0,0,589.8828,100.1582Z"/><path d="M613.3965,93.3115a15.9936,15.9936,0,0,1,3.3584-10.207,10.7306,10.7306,0,0,1,8.85-4.5215,10.3952,10.3952,0,0,1,4.5225.9541,7.0872,7.0872,0,0,1,3.3584,2.9229V79.4883h4.3925v28.5508a8.5163,8.5163,0,0,1-3.7988,7.17,13.7941,13.7941,0,0,1-8.499,2.6484,13.9824,13.9824,0,0,1-7.791-2.1318,8.0877,8.0877,0,0,1-3.94-6.2656h4.4571a4.7655,4.7655,0,0,0,2.6484,3.4238,9.7646,9.7646,0,0,0,4.65,1.0332,9.3668,9.3668,0,0,0,5.4267-1.55,4.958,4.958,0,0,0,2.4542-4.3281l-.0518-3.94a7.115,7.115,0,0,1-3.3506,2.9717,10.21,10.21,0,0,1-4.5107.9688,10.69,10.69,0,0,1-8.8262-4.5215A16.0188,16.0188,0,0,1,613.3965,93.3115Zm4.3926-.0322a13.4629,13.4629,0,0,0,2.0019,7.45,6.667,6.667,0,0,0,5.8135,3.3691,6.8222,6.8222,0,0,0,5.8789-3.3691,13.47,13.47,0,0,0,2.002-7.45,13.1567,13.1567,0,0,0-2.002-7.3867,6.8244,6.8244,0,0,0-5.8789-3.3692,6.6692,6.6692,0,0,0-5.8135,3.3692A13.15,13.15,0,0,0,617.7891,93.2793Z"/><path d="M643.0449,93.3115q0-6.9126,3.3594-11.0459a11.6763,11.6763,0,0,1,17.8281,0q3.359,4.1338,3.3594,11.0459v1.4854H647.4375a10.8873,10.8873,0,0,0,2.1318,7.06,7.0607,7.0607,0,0,0,5.7491,2.6944,7.9331,7.9331,0,0,0,5.1035-1.5967,5.9234,5.9234,0,0,0,2.2607-4.2168h4.3926a9.8956,9.8956,0,0,1-3.6182,7.1055,12.2486,12.2486,0,0,1-8.1386,2.6484,10.9085,10.9085,0,0,1-8.9141-4.1338Q643.044,100.2237,643.0449,93.3115Zm4.3926-2.4551h15.6973a10.6,10.6,0,0,0-2.4551-6.3955,7.2092,7.2092,0,0,0-10.7227,0A10.3714,10.3714,0,0,0,647.4375,90.8564Z"/><path d="M673.47,79.1V70.7021h4.3926V79.1h4.457v3.94h-4.457v18.669a1.986,1.986,0,0,0,1.9375,1.9375h2.5195v4.3926h-3.94A4.8524,4.8524,0,0,1,673.47,103.13V83.04h-3.94V79.1Z"/><path d="M701.8906,93.3115q0-6.9126,3.3594-11.0459a11.6763,11.6763,0,0,1,17.8281,0q3.359,4.1338,3.3594,11.0459v1.4854H706.2832a10.8873,10.8873,0,0,0,2.1318,7.06,7.0607,7.0607,0,0,0,5.7491,2.6944,7.9331,7.9331,0,0,0,5.1035-1.5967,5.9234,5.9234,0,0,0,2.2607-4.2168h4.3926a9.8956,9.8956,0,0,1-3.6182,7.1055,12.2486,12.2486,0,0,1-8.1386,2.6484,10.9085,10.9085,0,0,1-8.9141-4.1338Q701.89,100.2237,701.8906,93.3115Zm4.3926-2.4551h15.6973a10.6,10.6,0,0,0-2.4551-6.3955,7.2092,7.2092,0,0,0-10.7227,0A10.3714,10.3714,0,0,0,706.2832,90.8564Z"/><path d="M732.3154,79.1V70.7021h4.3926V79.1h4.457v3.94h-4.457v18.669a1.986,1.986,0,0,0,1.9375,1.9375h2.5195v4.3926h-3.94a4.8524,4.8524,0,0,1-4.9092-4.9092V83.04h-3.94V79.1Z"/><path d="M760.6074,93.3115a15.9941,15.9941,0,0,1,3.3584-10.207,10.7311,10.7311,0,0,1,8.8506-4.5215,8.37,8.37,0,0,1,4.5215,1.292,8.98,8.98,0,0,1,3.3584,3.3594v-14.47h4.3926v39.2745h-4.3926l-.0518-4.6514a10.6857,10.6857,0,0,1-3.2861,3.6182,8.03,8.03,0,0,1-4.5752,1.4853,10.6124,10.6124,0,0,1-8.8906-4.7158A16.9733,16.9733,0,0,1,760.6074,93.3115Zm4.3926,0a13.9873,13.9873,0,0,0,1.9375,7.5576,6.6972,6.6972,0,0,0,11.7568,0,13.6489,13.6489,0,0,0,2.002-7.5576,13.4035,13.4035,0,0,0-2.002-7.4287,6.8278,6.8278,0,0,0-5.8779-3.3594,6.6738,6.6738,0,0,0-5.8144,3.3594A13.3953,13.3953,0,0,0,765,93.3115Z"/><path d="M791.8721,73.1572V68.7646h4.3925v4.3926Zm0,34.8819V78.583h4.3925v29.4561Z"/><path d="M801.3672,93.3115q0-6.9126,3.4883-11.0459a11.5568,11.5568,0,0,1,9.3017-4.1347,12.3046,12.3046,0,0,1,8.4619,2.9716,11.3758,11.3758,0,0,1,3.7471,7.8164h-4.3926a7.1344,7.1344,0,0,0-2.3906-4.9746,7.9212,7.9212,0,0,0-5.4258-1.873,7.1431,7.1431,0,0,0-6.0722,3.0918,12.9937,12.9937,0,0,0-2.3252,8.1162,13.2722,13.2722,0,0,0,2.3252,8.18,7.1431,7.1431,0,0,0,6.0722,3.0918,7.5222,7.5222,0,0,0,5.3614-2.002,8.1367,8.1367,0,0,0,2.455-5.3623h4.3926a11.9881,11.9881,0,0,1-3.8115,8.1524,12.6371,12.6371,0,0,1-17.6992-.9815Q801.3677,100.2237,801.3672,93.3115Z"/><path d="M830.9521,108.0391V68.7646h4.3926V91.373L848.1348,79.1h6.3945L843.4834,89.6289l11.498,18.41H849.62l-9.3662-15.18-4.9092,4.65v10.5293Z"/><path d="M858.793,117.8574V79.1h4.3925l-.0117,4.1348a8.96,8.96,0,0,1,3.3506-3.3594,8.3253,8.3253,0,0,1,4.5088-1.292,10.8663,10.8663,0,0,1,8.8916,4.5215,17.2291,17.2291,0,0,1,.002,20.4131,10.856,10.856,0,0,1-8.8858,4.5215,8.311,8.311,0,0,1-4.5078-1.292,8.9519,8.9519,0,0,1-3.3477-3.3594v14.47Zm4.3925-24.5459a13.392,13.392,0,0,0,2.002,7.4278,6.8231,6.8231,0,0,0,5.8779,3.3593,6.6742,6.6742,0,0,0,5.8145-3.3593,14.7826,14.7826,0,0,0,0-14.8565,6.6764,6.6764,0,0,0-5.8145-3.3594,6.8254,6.8254,0,0,0-5.8779,3.3594A13.3953,13.3953,0,0,0,863.1855,93.3115Z"/><path d="M888.3125,73.1572V68.7646h4.3926v4.3926Zm0,34.8819V78.583h4.3926v29.4561Z"/><path d="M897.8076,93.3115q0-6.9126,3.4883-11.0459a11.557,11.557,0,0,1,9.3018-4.1347,12.3049,12.3049,0,0,1,8.4619,2.9716,11.3758,11.3758,0,0,1,3.747,7.8164h-4.3925a7.1349,7.1349,0,0,0-2.3907-4.9746,7.9211,7.9211,0,0,0-5.4257-1.873,7.1431,7.1431,0,0,0-6.0723,3.0918A12.9937,12.9937,0,0,0,902.2,93.2793a13.2722,13.2722,0,0,0,2.3252,8.18,7.1431,7.1431,0,0,0,6.0723,3.0918,7.522,7.522,0,0,0,5.3613-2.002,8.1373,8.1373,0,0,0,2.4551-5.3623h4.3925a11.9881,11.9881,0,0,1-3.8115,8.1524,12.6371,12.6371,0,0,1-17.6992-.9815Q897.8081,100.2237,897.8076,93.3115Z"/><path d="M942.248,100.1582a7.3714,7.3714,0,0,1,3.4239-6.2012,15.1768,15.1768,0,0,1,7.622-2.584,15.563,15.563,0,0,0,4.78-.9687,3.0892,3.0892,0,0,0,2.2608-2.9717,4.9006,4.9006,0,0,0-1.7442-3.81,6.0134,6.0134,0,0,0-4.1338-1.5508,6.8647,6.8647,0,0,0-4.3925,1.4853,4.7736,4.7736,0,0,0-1.9375,3.876v.9688h-4.4581V86.4639a7.2481,7.2481,0,0,1,3.3594-6.1368,12.4417,12.4417,0,0,1,7.4014-2.1962,11.6022,11.6022,0,0,1,7.1435,2.2607,7.3183,7.3183,0,0,1,3.1543,6.0723v14.7275a2.7051,2.7051,0,0,0,.9043,2.0674,2.807,2.807,0,0,0,2.0674.84v3.9405h-1.7441a5.65,5.65,0,0,1-3.1367-.9043,5.1967,5.1967,0,0,1-1.9737-2.52,8.008,8.008,0,0,1-3.8095,2.9717,13.2788,13.2788,0,0,1-4.9727.9043,10.5666,10.5666,0,0,1-7.1025-2.2607A7.4953,7.4953,0,0,1,942.248,100.1582Zm4.3926,0a3.7006,3.7006,0,0,0,1.68,3.1006,6.3043,6.3043,0,0,0,3.7471,1.0986,8.6612,8.6612,0,0,0,5.749-2.0029,6.2418,6.2418,0,0,0,2.5186-5.1025l-.0508-3.94q-1.8018,1.4868-6.5645,1.8731l-1.2226.0644a7.4686,7.4686,0,0,0-4.0547,1.4854A4.1255,4.1255,0,0,0,946.6406,100.1582Z"/><path d="M969.0557,83.4922V79.1h3.94V76.6455a7.69,7.69,0,0,1,2.2607-5.5557,7.5836,7.5836,0,0,1,5.5557-2.3252h2.4541v4.4571h-1.9375a3.9528,3.9528,0,0,0-2.7129.9687,3.0012,3.0012,0,0,0-1.2275,2.4551V79.1h5.8779v4.3926h-5.8779v24.5469h-4.3926V83.4922Z"/><path d="M88.042,170.4385V131.1641h27.001v4.65H92.9512V147.83h19.6367v4.65H92.9512v13.3066H115.043v4.6514Z"/><path d="M119.2412,170.4385V141.9512h4.3926l-.0078,1.4863a8.2735,8.2735,0,0,1,2.9092-1.874,10.2537,10.2537,0,0,1,3.49-.5811,9.8447,9.8447,0,0,1,4.459,1.0342,8.6833,8.6833,0,0,1,3.4258,2.9063,10.6991,10.6991,0,0,1,3.7334-2.9063,10.587,10.587,0,0,1,4.57-1.0342,10.0267,10.0267,0,0,1,7.21,2.8428,9.1141,9.1141,0,0,1,3.09,6.9756v19.6377h-4.3926V150.8008a5.8786,5.8786,0,0,0-11.7568,0v19.6377h-4.3926V150.8008a5.5134,5.5134,0,0,0-1.7442-4.1338,5.7212,5.7212,0,0,0-4.1982-1.7441,6.4532,6.4532,0,0,0-4.457,1.68,5.3292,5.3292,0,0,0-1.9385,4.1983v19.6377Z"/><path d="M162.7793,135.5566v-4.3925h4.3926v4.3925Zm0,34.8819V140.9824h4.3926v29.4561Z"/><path d="M173.89,170.4385V131.1641h4.3926v39.2744Z"/><path d="M198.9512,145.8916V141.499h3.94v-2.4541a7.69,7.69,0,0,1,2.2607-5.5556,7.5836,7.5836,0,0,1,5.5557-2.3252h2.4541v4.457h-1.9375a3.9528,3.9528,0,0,0-2.7129.9687,3.0012,3.0012,0,0,0-1.2275,2.4551v2.4541h5.8779v4.3926h-5.8779v24.5469h-4.3926V145.8916Z"/><path d="M217.0391,170.4385v-28.94h4.3925v5.1035a7.7981,7.7981,0,0,1,3.4883-4.1337,9.9448,9.9448,0,0,1,5.3613-1.4864h1.9376v4.3926h-1.9376a8.0686,8.0686,0,0,0-6.331,2.98,10.0042,10.0042,0,0,0-2.5186,6.8643v15.22Z"/><path d="M234.0908,162.5576a7.3713,7.3713,0,0,1,3.4238-6.2012,15.1761,15.1761,0,0,1,7.6221-2.5839,15.5662,15.5662,0,0,0,4.78-.9688,3.0892,3.0892,0,0,0,2.2607-2.9717,4.9005,4.9005,0,0,0-1.7441-3.81,6.0134,6.0134,0,0,0-4.1338-1.5508,6.8647,6.8647,0,0,0-4.3926,1.4854,4.7733,4.7733,0,0,0-1.9375,3.8759v.9688h-4.458v-1.9375a7.2476,7.2476,0,0,1,3.3594-6.1367,12.4408,12.4408,0,0,1,7.4014-2.1963,11.6022,11.6022,0,0,1,7.1435,2.2607,7.3183,7.3183,0,0,1,3.1543,6.0723v14.7275a2.705,2.705,0,0,0,.9043,2.0674,2.8065,2.8065,0,0,0,2.0674.84v3.9405h-1.7441a5.65,5.65,0,0,1-3.1368-.9043,5.1959,5.1959,0,0,1-1.9736-2.52,8.0078,8.0078,0,0,1-3.81,2.9717,13.2779,13.2779,0,0,1-4.9726.9043,10.5669,10.5669,0,0,1-7.1026-2.2607A7.4952,7.4952,0,0,1,234.0908,162.5576Zm4.3926,0a3.7006,3.7006,0,0,0,1.68,3.1006,6.3043,6.3043,0,0,0,3.7471,1.0986,8.6616,8.6616,0,0,0,5.749-2.0029,6.2417,6.2417,0,0,0,2.5185-5.1025l-.0507-3.94q-1.8018,1.4868-6.5645,1.8731l-1.2227.0644a7.4686,7.4686,0,0,0-4.0546,1.4854A4.1255,4.1255,0,0,0,238.4834,162.5576Z"/><path d="M280.5352,180.2568V141.499h4.3925l-.0117,4.1348a8.9588,8.9588,0,0,1,3.3506-3.3594,8.3253,8.3253,0,0,1,4.5088-1.292,10.8663,10.8663,0,0,1,8.8916,4.5215,17.2289,17.2289,0,0,1,.0019,20.4131,10.8558,10.8558,0,0,1-8.8857,4.5215,8.311,8.311,0,0,1-4.5078-1.292,8.9519,8.9519,0,0,1-3.3477-3.3594v14.47Zm4.3925-24.5459a13.392,13.392,0,0,0,2.002,7.4278,6.8231,6.8231,0,0,0,5.8779,3.3593,6.6742,6.6742,0,0,0,5.8145-3.3593,14.7826,14.7826,0,0,0,0-14.8565,6.6763,6.6763,0,0,0-5.8145-3.3593,6.8253,6.8253,0,0,0-5.8779,3.3593A13.3953,13.3953,0,0,0,284.9277,155.7109Z"/><path d="M308.1162,162.5576a7.3713,7.3713,0,0,1,3.4238-6.2012,15.1761,15.1761,0,0,1,7.6221-2.5839,15.5662,15.5662,0,0,0,4.78-.9688,3.0892,3.0892,0,0,0,2.2607-2.9717,4.9005,4.9005,0,0,0-1.7441-3.81,6.0134,6.0134,0,0,0-4.1338-1.5508,6.8647,6.8647,0,0,0-4.3926,1.4854,4.7733,4.7733,0,0,0-1.9375,3.8759v.9688h-4.458v-1.9375a7.2476,7.2476,0,0,1,3.3594-6.1367,12.4408,12.4408,0,0,1,7.4014-2.1963,11.6022,11.6022,0,0,1,7.1435,2.2607,7.3185,7.3185,0,0,1,3.1543,6.0723v14.7275a2.705,2.705,0,0,0,.9043,2.0674,2.8065,2.8065,0,0,0,2.0674.84v3.9405h-1.7442a5.65,5.65,0,0,1-3.1367-.9043,5.1959,5.1959,0,0,1-1.9736-2.52,8.0078,8.0078,0,0,1-3.81,2.9717,13.2779,13.2779,0,0,1-4.9726.9043,10.5669,10.5669,0,0,1-7.1026-2.2607A7.4952,7.4952,0,0,1,308.1162,162.5576Zm4.3926,0a3.7006,3.7006,0,0,0,1.68,3.1006,6.3042,6.3042,0,0,0,3.747,1.0986,8.6617,8.6617,0,0,0,5.7491-2.0029,6.2417,6.2417,0,0,0,2.5185-5.1025l-.0508-3.94q-1.8017,1.4868-6.5644,1.8731l-1.2227.0644a7.4689,7.4689,0,0,0-4.0547,1.4854A4.1257,4.1257,0,0,0,312.5088,162.5576Z"/><path d="M337.7666,170.4385v-28.94h4.3926v5.1035a7.7981,7.7981,0,0,1,3.4883-4.1337,9.9445,9.9445,0,0,1,5.3613-1.4864h1.9375v4.3926h-1.9375a8.0686,8.0686,0,0,0-6.3311,2.98,10.0042,10.0042,0,0,0-2.5185,6.8643v15.22Z"/><path d="M354.8184,162.5576a7.3713,7.3713,0,0,1,3.4238-6.2012,15.1758,15.1758,0,0,1,7.6221-2.5839,15.5655,15.5655,0,0,0,4.78-.9688,3.0892,3.0892,0,0,0,2.2608-2.9717,4.9006,4.9006,0,0,0-1.7442-3.81,6.0134,6.0134,0,0,0-4.1338-1.5508,6.8644,6.8644,0,0,0-4.3925,1.4854,4.7733,4.7733,0,0,0-1.9375,3.8759v.9688h-4.458v-1.9375a7.2477,7.2477,0,0,1,3.3593-6.1367A12.441,12.441,0,0,1,367,140.53a11.6025,11.6025,0,0,1,7.1436,2.2607,7.3185,7.3185,0,0,1,3.1543,6.0723v14.7275a2.7049,2.7049,0,0,0,.9042,2.0674,2.8066,2.8066,0,0,0,2.0674.84v3.9405h-1.7441a5.65,5.65,0,0,1-3.1367-.9043,5.1967,5.1967,0,0,1-1.9737-2.52,8.008,8.008,0,0,1-3.81,2.9717,13.2788,13.2788,0,0,1-4.9727.9043A10.5666,10.5666,0,0,1,357.53,168.63,7.4952,7.4952,0,0,1,354.8184,162.5576Zm4.3925,0a3.7006,3.7006,0,0,0,1.68,3.1006,6.3046,6.3046,0,0,0,3.7471,1.0986,8.6612,8.6612,0,0,0,5.749-2.0029,6.2418,6.2418,0,0,0,2.5186-5.1025l-.0508-3.94q-1.8018,1.4868-6.5645,1.8731l-1.2226.0644a7.4686,7.4686,0,0,0-4.0547,1.4854A4.1255,4.1255,0,0,0,359.2109,162.5576Z"/><path d="M384.4688,170.4385V131.1641h4.3925v39.2744Z"/><path d="M395.5791,170.4385V131.1641h4.3926v39.2744Z"/><path d="M405.1387,155.7109q0-6.9126,3.3593-11.0459a11.6764,11.6764,0,0,1,17.8282,0q3.3588,4.1338,3.3593,11.0459v1.4854H409.5312a10.8878,10.8878,0,0,0,2.1319,7.06,7.0606,7.0606,0,0,0,5.749,2.6943,7.9328,7.9328,0,0,0,5.1035-1.5967,5.9237,5.9237,0,0,0,2.2608-4.2168h4.3925a9.8954,9.8954,0,0,1-3.6181,7.1055,12.2491,12.2491,0,0,1-8.1387,2.6484,10.9085,10.9085,0,0,1-8.9141-4.1338Q405.1377,162.6231,405.1387,155.7109Zm4.3925-2.455h15.6973a10.5992,10.5992,0,0,0-2.4551-6.3955,7.2089,7.2089,0,0,0-10.7226,0A10.371,10.371,0,0,0,409.5312,153.2559Z"/><path d="M434.53,170.4385V131.1641h4.3926v39.2744Z"/><path d="M445.6406,170.4385V131.1641h4.3926v22.6084l12.79-12.2735h6.3946l-11.0459,10.5293,11.498,18.41h-5.3613l-9.3662-15.18-4.9092,4.65v10.5293Z"/><path d="M473.4814,170.4385V131.1641h4.3926v39.2744Z"/><path d="M482.6533,162.5576a7.3713,7.3713,0,0,1,3.4238-6.2012,15.1761,15.1761,0,0,1,7.6221-2.5839,15.5662,15.5662,0,0,0,4.78-.9688,3.0892,3.0892,0,0,0,2.2607-2.9717,4.9005,4.9005,0,0,0-1.7441-3.81,6.0134,6.0134,0,0,0-4.1338-1.5508,6.8647,6.8647,0,0,0-4.3926,1.4854,4.7733,4.7733,0,0,0-1.9375,3.8759v.9688h-4.458v-1.9375a7.2476,7.2476,0,0,1,3.3594-6.1367,12.4408,12.4408,0,0,1,7.4014-2.1963,11.6022,11.6022,0,0,1,7.1435,2.2607,7.3183,7.3183,0,0,1,3.1543,6.0723v14.7275a2.705,2.705,0,0,0,.9043,2.0674,2.8065,2.8065,0,0,0,2.0674.84v3.9405H506.36a5.65,5.65,0,0,1-3.1368-.9043,5.1959,5.1959,0,0,1-1.9736-2.52,8.0078,8.0078,0,0,1-3.81,2.9717,13.2779,13.2779,0,0,1-4.9726.9043,10.5669,10.5669,0,0,1-7.1026-2.2607A7.4952,7.4952,0,0,1,482.6533,162.5576Zm4.3926,0a3.7006,3.7006,0,0,0,1.68,3.1006,6.3043,6.3043,0,0,0,3.7471,1.0986,8.6616,8.6616,0,0,0,5.749-2.0029,6.2417,6.2417,0,0,0,2.5185-5.1025l-.0507-3.94q-1.8018,1.4868-6.5645,1.8731l-1.2227.0644a7.4686,7.4686,0,0,0-4.0546,1.4854A4.1255,4.1255,0,0,0,487.0459,162.5576Z"/><path d="M510.2363,159.6514h4.3926a6.6232,6.6232,0,0,0,1.8731,4.9267,6.7583,6.7583,0,0,0,4.9736,1.8555,9.5065,9.5065,0,0,0,5.039-1.16,3.4625,3.4625,0,0,0,1.8731-3.0283,4.513,4.513,0,0,0-2.6484-4.06,14.4291,14.4291,0,0,0-5.6846-1.5468,10.0011,10.0011,0,0,1-6.2012-2.7071,7.7071,7.7071,0,0,1-2.6484-5.8632,7.1481,7.1481,0,0,1,2.7129-5.8633,10.8,10.8,0,0,1,7.1054-2.1914,10.9977,10.9977,0,0,1,7.8164,2.7129,9.0473,9.0473,0,0,1,2.9717,7.1054h-4.3926a5.5337,5.5337,0,0,0-1.7441-4.2627,6.5774,6.5774,0,0,0-4.6514-1.6152,6.4788,6.4788,0,0,0-3.94,1.0977,3.7326,3.7326,0,0,0,.8955,6.46,12.9423,12.9423,0,0,0,5.0195,1.2276,11.77,11.77,0,0,1,6.8223,2.7128,8.1376,8.1376,0,0,1,.0322,12.5313,14.0327,14.0327,0,0,1-16.3867-.5166A10.1169,10.1169,0,0,1,510.2363,159.6514Z"/><path d="M535.5576,159.6514H539.95a6.6235,6.6235,0,0,0,1.873,4.9267,6.7587,6.7587,0,0,0,4.9737,1.8555,9.5065,9.5065,0,0,0,5.039-1.16,3.4625,3.4625,0,0,0,1.8731-3.0283,4.513,4.513,0,0,0-2.6485-4.06,14.4281,14.4281,0,0,0-5.6845-1.5468,10.0011,10.0011,0,0,1-6.2012-2.7071,7.7071,7.7071,0,0,1-2.6484-5.8632,7.1481,7.1481,0,0,1,2.7129-5.8633,10.8,10.8,0,0,1,7.1054-2.1914,10.9977,10.9977,0,0,1,7.8164,2.7129,9.0473,9.0473,0,0,1,2.9717,7.1054H552.74a5.5337,5.5337,0,0,0-1.7441-4.2627,6.5774,6.5774,0,0,0-4.6514-1.6152,6.4788,6.4788,0,0,0-3.94,1.0977,3.7325,3.7325,0,0,0,.8955,6.46,12.9423,12.9423,0,0,0,5.0195,1.2276,11.77,11.77,0,0,1,6.8223,2.7128,8.1376,8.1376,0,0,1,.0322,12.5313,14.0327,14.0327,0,0,1-16.3867-.5166A10.1169,10.1169,0,0,1,535.5576,159.6514Z"/><path d="M561.3955,155.7109q0-6.9126,3.3594-11.0459a11.6763,11.6763,0,0,1,17.8281,0q3.359,4.1338,3.3594,11.0459v1.4854H565.7881a10.8878,10.8878,0,0,0,2.1318,7.06,7.0606,7.0606,0,0,0,5.749,2.6943,7.9332,7.9332,0,0,0,5.1036-1.5967,5.9236,5.9236,0,0,0,2.2607-4.2168h4.3926a9.8958,9.8958,0,0,1-3.6182,7.1055,12.2487,12.2487,0,0,1-8.1387,2.6484,10.9083,10.9083,0,0,1-8.914-4.1338Q561.3945,162.6231,561.3955,155.7109Zm4.3926-2.455h15.6973A10.6,10.6,0,0,0,579.03,146.86a7.209,7.209,0,0,0-10.7227,0A10.3709,10.3709,0,0,0,565.7881,153.2559Z"/><path d="M590.7217,170.4385V141.9512h4.3926l-.0118,2.9717a7.377,7.377,0,0,1,3.4151-3.0362,11.8981,11.8981,0,0,1,4.7021-.9043,10.4053,10.4053,0,0,1,7.7949,3.3594,10.9564,10.9564,0,0,1,3.2208,7.9453v18.1514h-4.3926V152.2871a6.7568,6.7568,0,0,0-2.1319-5.0391,7.1536,7.1536,0,0,0-5.1679-2.0664,7.3756,7.3756,0,0,0-5.2325,2.0664,6.6623,6.6623,0,0,0-2.1962,5.0391v18.1514Z"/><path d="M635.5508,155.7109q0-6.9126,3.6084-11.0459a12.1147,12.1147,0,0,1,9.6015-4.1347,12.3086,12.3086,0,0,1,9.6661,4.1347q3.6078,4.1338,3.6084,11.0459t-3.6084,11.0459a12.3076,12.3076,0,0,1-9.6661,4.1338,12.1137,12.1137,0,0,1-9.6015-4.1338Q635.55,162.6231,635.5508,155.7109Zm4.3926-.0322a13.01,13.01,0,0,0,2.39,8.18,8.2946,8.2946,0,0,0,12.92,0,13.0159,13.0159,0,0,0,2.39-8.18,12.745,12.745,0,0,0-2.39-8.1162,8.2946,8.2946,0,0,0-12.92,0A12.74,12.74,0,0,0,639.9434,155.6787Z"/><path d="M665.459,155.7109a15.9936,15.9936,0,0,1,3.3584-10.207,10.7306,10.7306,0,0,1,8.85-4.5215,10.3952,10.3952,0,0,1,4.5225.9541,7.0878,7.0878,0,0,1,3.3584,2.9229v-2.9717H689.94v28.5508a8.5163,8.5163,0,0,1-3.7988,7.17,13.7941,13.7941,0,0,1-8.499,2.6484,13.9824,13.9824,0,0,1-7.791-2.1318,8.0875,8.0875,0,0,1-3.94-6.2656h4.4571a4.7655,4.7655,0,0,0,2.6484,3.4238,9.7646,9.7646,0,0,0,4.65,1.0332,9.3674,9.3674,0,0,0,5.4268-1.55,4.958,4.958,0,0,0,2.4541-4.3281l-.0518-3.9405a7.115,7.115,0,0,1-3.3506,2.9717,10.21,10.21,0,0,1-4.5107.9688,10.69,10.69,0,0,1-8.8262-4.5215A16.0186,16.0186,0,0,1,665.459,155.7109Zm4.3926-.0322a13.4627,13.4627,0,0,0,2.0019,7.45,6.667,6.667,0,0,0,5.8135,3.3691,6.8222,6.8222,0,0,0,5.8789-3.3691,13.47,13.47,0,0,0,2.002-7.45,13.1567,13.1567,0,0,0-2.002-7.3867,6.8243,6.8243,0,0,0-5.8789-3.3691,6.6691,6.6691,0,0,0-5.8135,3.3691A13.15,13.15,0,0,0,669.8516,155.6787Z"/><path d="M710.6738,141.499h4.3926l7.8164,23.0615,7.8809-23.0615h4.457l-9.8184,28.94h-4.9091Z"/><path d="M739.1611,135.5566v-4.3925h4.3926v4.3925Zm0,34.8819V140.9824h4.3926v29.4561Z"/><path d="M748.2041,159.6514h4.3926a6.6235,6.6235,0,0,0,1.873,4.9267,6.7587,6.7587,0,0,0,4.9737,1.8555,9.5065,9.5065,0,0,0,5.039-1.16,3.4625,3.4625,0,0,0,1.8731-3.0283,4.513,4.513,0,0,0-2.6485-4.06,14.4281,14.4281,0,0,0-5.6845-1.5468,10.0011,10.0011,0,0,1-6.2012-2.7071,7.7071,7.7071,0,0,1-2.6484-5.8632,7.148,7.148,0,0,1,2.7128-5.8633,10.8,10.8,0,0,1,7.1055-2.1914,10.9977,10.9977,0,0,1,7.8164,2.7129,9.0473,9.0473,0,0,1,2.9717,7.1054h-4.3926a5.5337,5.5337,0,0,0-1.7441-4.2627,6.5774,6.5774,0,0,0-4.6514-1.6152,6.4788,6.4788,0,0,0-3.94,1.0977,3.7325,3.7325,0,0,0,.8955,6.46,12.9423,12.9423,0,0,0,5.0195,1.2276,11.77,11.77,0,0,1,6.8223,2.7128,8.1378,8.1378,0,0,1,.0322,12.5313,14.0327,14.0327,0,0,1-16.3867-.5166A10.1169,10.1169,0,0,1,748.2041,159.6514Z"/><path d="M774.042,155.7109q0-6.9126,3.3594-11.0459a11.6763,11.6763,0,0,1,17.8281,0q3.3589,4.1338,3.3594,11.0459v1.4854H778.4346a10.8878,10.8878,0,0,0,2.1318,7.06,7.0606,7.0606,0,0,0,5.749,2.6943,7.9328,7.9328,0,0,0,5.1035-1.5967,5.9237,5.9237,0,0,0,2.2608-4.2168h4.3926a9.8958,9.8958,0,0,1-3.6182,7.1055,12.2487,12.2487,0,0,1-8.1387,2.6484,10.9082,10.9082,0,0,1-8.914-4.1338Q774.041,162.6231,774.042,155.7109Zm4.3926-2.455h15.6972a10.5991,10.5991,0,0,0-2.455-6.3955,7.209,7.209,0,0,0-10.7227,0A10.3709,10.3709,0,0,0,778.4346,153.2559Z"/><path d="M803.4336,170.4385v-28.94h4.3926v5.1035a7.7981,7.7981,0,0,1,3.4883-4.1337,9.9443,9.9443,0,0,1,5.3613-1.4864h1.9375v4.3926h-1.9375a8.0686,8.0686,0,0,0-6.3311,2.98,10.0042,10.0042,0,0,0-2.5185,6.8643v15.22Z"/><path d="M837.5381,155.7109a15.9936,15.9936,0,0,1,3.3584-10.207,10.7311,10.7311,0,0,1,8.8506-4.5215,8.3706,8.3706,0,0,1,4.5215,1.292,8.98,8.98,0,0,1,3.3584,3.3594v-14.47H862.02v39.2744H857.627l-.0518-4.6514a10.6878,10.6878,0,0,1-3.2861,3.6182,8.03,8.03,0,0,1-4.5752,1.4853,10.6126,10.6126,0,0,1-8.8907-4.7158A16.9738,16.9738,0,0,1,837.5381,155.7109Zm4.3926,0a13.9879,13.9879,0,0,0,1.9375,7.5577,6.6973,6.6973,0,0,0,11.7568,0,13.65,13.65,0,0,0,2.002-7.5577,13.4035,13.4035,0,0,0-2.002-7.4287,6.8277,6.8277,0,0,0-5.8779-3.3593,6.674,6.674,0,0,0-5.8145,3.3593A13.3961,13.3961,0,0,0,841.9307,155.7109Z"/><path d="M867.252,155.7109q0-6.9126,3.3593-11.0459a11.6764,11.6764,0,0,1,17.8282,0q3.3588,4.1338,3.3593,11.0459v1.4854H871.6445a10.8878,10.8878,0,0,0,2.1319,7.06,7.06,7.06,0,0,0,5.749,2.6943,7.9328,7.9328,0,0,0,5.1035-1.5967,5.9232,5.9232,0,0,0,2.2607-4.2168h4.3926a9.8957,9.8957,0,0,1-3.6181,7.1055,12.2491,12.2491,0,0,1-8.1387,2.6484,10.9085,10.9085,0,0,1-8.9141-4.1338Q867.251,162.6231,867.252,155.7109Zm4.3925-2.455h15.6973a10.5992,10.5992,0,0,0-2.4551-6.3955,7.2089,7.2089,0,0,0-10.7226,0A10.371,10.371,0,0,0,871.6445,153.2559Z"/><path d="M897.6768,141.499v-8.3974h4.3925v8.3974h4.4571V145.44h-4.4571v18.6689a1.986,1.986,0,0,0,1.9375,1.9375h2.52v4.3926h-3.94a4.8524,4.8524,0,0,1-4.9091-4.9092V145.44h-3.94V141.499Z"/><path d="M928.6816,141.499v-8.3974h4.3926v8.3974h4.457V145.44h-4.457v18.6689a1.986,1.986,0,0,0,1.9375,1.9375h2.5195v4.3926h-3.94a4.8524,4.8524,0,0,1-4.9092-4.9092V145.44h-3.94V141.499Z"/><path d="M941.8594,135.5566v-4.3925h4.3926v4.3925Zm0,34.8819V140.9824h4.3926v29.4561Z"/><path d="M952.97,170.4385V131.1641h4.3926v39.2744Z"/><path d="M86.3623,218.1113a15.9936,15.9936,0,0,1,3.3584-10.207,10.7311,10.7311,0,0,1,8.8506-4.5215,8.37,8.37,0,0,1,4.5215,1.292,8.98,8.98,0,0,1,3.3584,3.3594v-14.47h4.3926v39.2744h-4.3926l-.0518-4.6514a10.6868,10.6868,0,0,1-3.2861,3.6182,8.03,8.03,0,0,1-4.5752,1.4853,10.6124,10.6124,0,0,1-8.8906-4.7158A16.9733,16.9733,0,0,1,86.3623,218.1113Zm4.3926,0a13.9873,13.9873,0,0,0,1.9375,7.5576,6.6972,6.6972,0,0,0,11.7568,0,13.6489,13.6489,0,0,0,2.002-7.5576,13.4035,13.4035,0,0,0-2.002-7.4287,6.8278,6.8278,0,0,0-5.8779-3.3594,6.6741,6.6741,0,0,0-5.8145,3.3594A13.3961,13.3961,0,0,0,90.7549,218.1113Z"/><path d="M117.627,197.957v-4.3925H122.02v4.3925Zm0,34.8819V203.3828H122.02v29.4561Z"/><path d="M126.9932,218.1113a15.9936,15.9936,0,0,1,3.3584-10.207,10.7305,10.7305,0,0,1,8.85-4.5215,10.3945,10.3945,0,0,1,4.5224.9541,7.0863,7.0863,0,0,1,3.3584,2.9229v-2.9717h4.3926v28.5508a8.5163,8.5163,0,0,1-3.7988,7.17,13.7941,13.7941,0,0,1-8.499,2.6484,13.983,13.983,0,0,1-7.7911-2.1318,8.0876,8.0876,0,0,1-3.94-6.2656h4.457a4.7659,4.7659,0,0,0,2.6485,3.4238,9.7646,9.7646,0,0,0,4.65,1.0332,9.367,9.367,0,0,0,5.4267-1.55,4.9579,4.9579,0,0,0,2.4541-4.3281l-.0517-3.94A7.115,7.115,0,0,1,143.68,231.87a10.21,10.21,0,0,1-4.5108.9688,10.69,10.69,0,0,1-8.8261-4.5215A16.0188,16.0188,0,0,1,126.9932,218.1113Zm4.3925-.0322a13.4619,13.4619,0,0,0,2.002,7.45,6.667,6.667,0,0,0,5.8135,3.3691,6.8222,6.8222,0,0,0,5.8789-3.3691,13.47,13.47,0,0,0,2.0019-7.45,13.1567,13.1567,0,0,0-2.0019-7.3867,6.8244,6.8244,0,0,0-5.8789-3.3692,6.6692,6.6692,0,0,0-5.8135,3.3692A13.1487,13.1487,0,0,0,131.3857,218.0791Z"/><path d="M173.3711,218.1113q0-6.9126,3.6084-11.0459a12.1148,12.1148,0,0,1,9.6016-4.1347,12.3085,12.3085,0,0,1,9.666,4.1347q3.6078,4.1338,3.6084,11.0459t-3.6084,11.0459a12.3075,12.3075,0,0,1-9.666,4.1338,12.1138,12.1138,0,0,1-9.6016-4.1338Q173.37,225.0235,173.3711,218.1113Zm4.3926-.0322a13.01,13.01,0,0,0,2.39,8.18,8.2946,8.2946,0,0,0,12.92,0,13.0161,13.0161,0,0,0,2.39-8.18,12.7448,12.7448,0,0,0-2.39-8.1162,8.2946,8.2946,0,0,0-12.92,0A12.7394,12.7394,0,0,0,177.7637,218.0791Z"/><path d="M203.2793,218.1113a15.9936,15.9936,0,0,1,3.3584-10.207,10.7306,10.7306,0,0,1,8.85-4.5215,10.3952,10.3952,0,0,1,4.5225.9541,7.0872,7.0872,0,0,1,3.3584,2.9229v-2.9717h4.3925v28.5508a8.5163,8.5163,0,0,1-3.7988,7.17,13.7941,13.7941,0,0,1-8.499,2.6484,13.9827,13.9827,0,0,1-7.791-2.1318,8.0875,8.0875,0,0,1-3.94-6.2656h4.4571a4.7655,4.7655,0,0,0,2.6484,3.4238,9.7646,9.7646,0,0,0,4.65,1.0332,9.3674,9.3674,0,0,0,5.4268-1.55,4.9581,4.9581,0,0,0,2.4541-4.3281l-.0518-3.94a7.1141,7.1141,0,0,1-3.3506,2.9717,10.21,10.21,0,0,1-4.5107.9688,10.69,10.69,0,0,1-8.8262-4.5215A16.0188,16.0188,0,0,1,203.2793,218.1113Zm4.3926-.0322a13.4627,13.4627,0,0,0,2.0019,7.45,6.667,6.667,0,0,0,5.8135,3.3691,6.8222,6.8222,0,0,0,5.8789-3.3691,13.47,13.47,0,0,0,2.002-7.45,13.1567,13.1567,0,0,0-2.002-7.3867,6.8244,6.8244,0,0,0-5.8789-3.3692,6.6692,6.6692,0,0,0-5.8135,3.3692A13.15,13.15,0,0,0,207.6719,218.0791Z"/><path d="M249.5928,218.1113a15.9936,15.9936,0,0,1,3.3584-10.207,10.731,10.731,0,0,1,8.8506-4.5215,8.37,8.37,0,0,1,4.5214,1.292,8.9792,8.9792,0,0,1,3.3584,3.3594v-14.47h4.3926v39.2744h-4.3926l-.0517-4.6514a10.6878,10.6878,0,0,1-3.2861,3.6182,8.03,8.03,0,0,1-4.5752,1.4853,10.6126,10.6126,0,0,1-8.8907-4.7158A16.9738,16.9738,0,0,1,249.5928,218.1113Zm4.3926,0a13.9873,13.9873,0,0,0,1.9375,7.5576,6.6972,6.6972,0,0,0,11.7568,0,13.6489,13.6489,0,0,0,2.0019-7.5576,13.4035,13.4035,0,0,0-2.0019-7.4287,6.8278,6.8278,0,0,0-5.8779-3.3594,6.6741,6.6741,0,0,0-5.8145,3.3594A13.3952,13.3952,0,0,0,253.9854,218.1113Z"/><path d="M280.8574,197.957v-4.3925H285.25v4.3925Zm0,34.8819V203.3828H285.25v29.4561Z"/><path d="M291.9023,232.8389V204.3516h4.3926l-.0117,2.9716a7.3766,7.3766,0,0,1,3.415-3.0361,11.8982,11.8982,0,0,1,4.7022-.9043,10.4054,10.4054,0,0,1,7.7949,3.3594,10.9563,10.9563,0,0,1,3.2207,7.9453v18.1514h-4.3926V214.6875a6.7566,6.7566,0,0,0-2.1318-5.0391,7.1538,7.1538,0,0,0-5.168-2.0664,7.3753,7.3753,0,0,0-5.2324,2.0664,6.6619,6.6619,0,0,0-2.1963,5.0391v18.1514Z"/><path d="M320.002,218.1113q0-6.9126,3.3593-11.0459a11.6764,11.6764,0,0,1,17.8282,0q3.3588,4.1338,3.3593,11.0459v1.4854H324.3945a10.8873,10.8873,0,0,0,2.1319,7.06,7.06,7.06,0,0,0,5.749,2.6944,7.9328,7.9328,0,0,0,5.1035-1.5967,5.9232,5.9232,0,0,0,2.2607-4.2168h4.3926a9.8957,9.8957,0,0,1-3.6181,7.1055,12.2491,12.2491,0,0,1-8.1387,2.6484,10.9085,10.9085,0,0,1-8.9141-4.1338Q320.001,225.0235,320.002,218.1113Zm4.3925-2.4551h15.6973a10.6,10.6,0,0,0-2.4551-6.3955,7.2091,7.2091,0,0,0-10.7226,0A10.3714,10.3714,0,0,0,324.3945,215.6562Z"/><path d="M363.4092,203.8994h4.3926l7.8164,23.0615,7.8808-23.0615h4.4571l-9.8184,28.9395h-4.9092Z"/><path d="M390.3457,218.1113q0-6.9126,3.3594-11.0459a11.6763,11.6763,0,0,1,17.8281,0q3.3589,4.1338,3.3594,11.0459v1.4854H394.7383a10.8873,10.8873,0,0,0,2.1318,7.06,7.0607,7.0607,0,0,0,5.749,2.6944,7.9332,7.9332,0,0,0,5.1036-1.5967,5.9239,5.9239,0,0,0,2.2607-4.2168h4.3926a9.8958,9.8958,0,0,1-3.6182,7.1055,12.2487,12.2487,0,0,1-8.1387,2.6484,10.9083,10.9083,0,0,1-8.914-4.1338Q390.3447,225.0235,390.3457,218.1113Zm4.3926-2.4551h15.6972a10.6,10.6,0,0,0-2.455-6.3955,7.2092,7.2092,0,0,0-10.7227,0A10.3714,10.3714,0,0,0,394.7383,215.6562Z"/><path d="M419.6719,232.8389V204.3516h4.3926l-.0118,2.9716a7.3773,7.3773,0,0,1,3.4151-3.0361,11.8978,11.8978,0,0,1,4.7021-.9043,10.4053,10.4053,0,0,1,7.7949,3.3594,10.9563,10.9563,0,0,1,3.2207,7.9453v18.1514H438.793V214.6875a6.7567,6.7567,0,0,0-2.1319-5.0391,7.1536,7.1536,0,0,0-5.1679-2.0664,7.3756,7.3756,0,0,0-5.2325,2.0664,6.6621,6.6621,0,0,0-2.1962,5.0391v18.1514Z"/><path d="M449.3223,197.957v-4.3925h4.3925v4.3925Zm0,34.8819V203.3828h4.3925v29.4561Z"/><path d="M460.3672,232.8389V204.3516H464.76l-.0118,2.9716a7.3773,7.3773,0,0,1,3.4151-3.0361,11.8981,11.8981,0,0,1,4.7021-.9043,10.4056,10.4056,0,0,1,7.795,3.3594,10.9567,10.9567,0,0,1,3.2207,7.9453v18.1514h-4.3926V214.6875a6.7567,6.7567,0,0,0-2.1319-5.0391,7.1536,7.1536,0,0,0-5.1679-2.0664,7.3751,7.3751,0,0,0-5.2324,2.0664,6.6619,6.6619,0,0,0-2.1963,5.0391v18.1514Z"/><path d="M488.3379,218.1113a15.9936,15.9936,0,0,1,3.3584-10.207,10.7311,10.7311,0,0,1,8.8506-4.5215,8.37,8.37,0,0,1,4.5215,1.292,8.98,8.98,0,0,1,3.3584,3.3594v-14.47h4.3925v39.2744h-4.3925l-.0518-4.6514a10.6878,10.6878,0,0,1-3.2861,3.6182,8.03,8.03,0,0,1-4.5752,1.4853,10.6126,10.6126,0,0,1-8.8907-4.7158A16.9738,16.9738,0,0,1,488.3379,218.1113Zm4.3926,0a13.9873,13.9873,0,0,0,1.9375,7.5576,6.6972,6.6972,0,0,0,11.7568,0,13.6489,13.6489,0,0,0,2.002-7.5576,13.4035,13.4035,0,0,0-2.002-7.4287,6.8278,6.8278,0,0,0-5.8779-3.3594,6.6741,6.6741,0,0,0-5.8145,3.3594A13.3961,13.3961,0,0,0,492.7305,218.1113Z"/><path d="M518.0518,218.1113q0-6.9126,3.3593-11.0459a11.6764,11.6764,0,0,1,17.8282,0q3.3588,4.1338,3.3593,11.0459v1.4854H522.4443a10.8873,10.8873,0,0,0,2.1319,7.06,7.0605,7.0605,0,0,0,5.749,2.6944,7.9328,7.9328,0,0,0,5.1035-1.5967,5.9237,5.9237,0,0,0,2.2608-4.2168h4.3925a9.8957,9.8957,0,0,1-3.6181,7.1055,12.2491,12.2491,0,0,1-8.1387,2.6484,10.9085,10.9085,0,0,1-8.9141-4.1338Q518.0508,225.0235,518.0518,218.1113Zm4.3925-2.4551h15.6973a10.6,10.6,0,0,0-2.4551-6.3955,7.2091,7.2091,0,0,0-10.7226,0A10.3714,10.3714,0,0,0,522.4443,215.6562Z"/><path d="M547.4434,232.8389V203.8994h4.3925v5.1035a7.7987,7.7987,0,0,1,3.4883-4.1338,9.9456,9.9456,0,0,1,5.3613-1.4863h1.9375v4.3926h-1.9375a8.0684,8.0684,0,0,0-6.331,2.98,10.0042,10.0042,0,0,0-2.5186,6.8642v15.22Z"/><path d="M566.4336,232.8389v-5.168h5.167v5.168Z"/><path d="M88.042,295.2383V255.9639h12.2725q8.01,0,12.79,5.3613,4.8457,5.3628,4.8447,14.2754,0,8.915-4.8447,14.2764-4.78,5.3626-12.79,5.3613Zm4.9092-4.3926h7.3633a11.4735,11.4735,0,0,0,9.2373-4.1436q3.4891-4.2069,3.4882-11.1337T109.5518,264.5a11.4764,11.4764,0,0,0-9.2373-4.1436H92.9512Z"/><path d="M122.1484,283.998V266.2988h4.3926v17.14a8.9919,8.9919,0,0,0,1.8731,5.7334,6.1316,6.1316,0,0,0,5.039,2.5781,7.2645,7.2645,0,0,0,5.5547-2.4482,8.3449,8.3449,0,0,0,2.2617-5.8633v-17.14h4.3926v28.9395H141.27v-3.94a7.96,7.96,0,0,1-3.747,3.3593,11.9911,11.9911,0,0,1-5.0381,1.0332,9.2919,9.2919,0,0,1-7.4287-3.5527A12.1652,12.1652,0,0,1,122.1484,283.998Z"/><path d="M167.1709,284.4512h4.3926a6.6235,6.6235,0,0,0,1.873,4.9267,6.7585,6.7585,0,0,0,4.9737,1.8555,9.5065,9.5065,0,0,0,5.039-1.16,3.4625,3.4625,0,0,0,1.8731-3.0283,4.5127,4.5127,0,0,0-2.6485-4.0595,14.4263,14.4263,0,0,0-5.6845-1.5469,10.0011,10.0011,0,0,1-6.2012-2.7071,7.7072,7.7072,0,0,1-2.6485-5.8632,7.1481,7.1481,0,0,1,2.7129-5.8633,10.8,10.8,0,0,1,7.1055-2.1914,10.9977,10.9977,0,0,1,7.8164,2.7129,9.0473,9.0473,0,0,1,2.9717,7.1054h-4.3926a5.5337,5.5337,0,0,0-1.7441-4.2627,6.5774,6.5774,0,0,0-4.6514-1.6152,6.4788,6.4788,0,0,0-3.94,1.0977,3.7325,3.7325,0,0,0,.8955,6.46,12.9423,12.9423,0,0,0,5.02,1.2276,11.77,11.77,0,0,1,6.8223,2.7129,8.1376,8.1376,0,0,1,.0322,12.5312,14.0327,14.0327,0,0,1-16.3867-.5166A10.1169,10.1169,0,0,1,167.1709,284.4512Z"/><path d="M194.56,295.2383V255.9639h4.3925v22.6084l12.79-12.2735h6.3945l-11.0459,10.5293,11.4981,18.41h-5.3614l-9.3662-15.18-4.9092,4.65v10.5293Z"/><path d="M220.4619,287.3574a7.3714,7.3714,0,0,1,3.4238-6.2012,15.1771,15.1771,0,0,1,7.6221-2.5839,15.5662,15.5662,0,0,0,4.78-.9688,3.0892,3.0892,0,0,0,2.2607-2.9717,4.9005,4.9005,0,0,0-1.7441-3.81,6.0134,6.0134,0,0,0-4.1338-1.5508,6.8647,6.8647,0,0,0-4.3926,1.4854,4.7733,4.7733,0,0,0-1.9375,3.8759v.9688h-4.458v-1.9375a7.2476,7.2476,0,0,1,3.3594-6.1367,12.4408,12.4408,0,0,1,7.4014-2.1963,11.6022,11.6022,0,0,1,7.1435,2.2607,7.3185,7.3185,0,0,1,3.1543,6.0723v14.7275a2.705,2.705,0,0,0,.9043,2.0674,2.8066,2.8066,0,0,0,2.0674.84v3.94h-1.7442a5.65,5.65,0,0,1-3.1367-.9043,5.1961,5.1961,0,0,1-1.9736-2.5195,8.0082,8.0082,0,0,1-3.81,2.9716,13.2779,13.2779,0,0,1-4.9726.9043,10.5669,10.5669,0,0,1-7.1026-2.2607A7.4951,7.4951,0,0,1,220.4619,287.3574Zm4.3926,0a3.7006,3.7006,0,0,0,1.68,3.1006,6.3042,6.3042,0,0,0,3.747,1.0986,8.6617,8.6617,0,0,0,5.7491-2.0029,6.2417,6.2417,0,0,0,2.5185-5.1025l-.0508-3.94q-1.8016,1.487-6.5644,1.8731l-1.2227.0644a7.4689,7.4689,0,0,0-4.0547,1.4854A4.1257,4.1257,0,0,0,224.8545,287.3574Z"/><path d="M250.1123,295.2383V255.9639h4.3926v39.2744Z"/><path d="M277.9512,295.2383V266.751h4.3926l-.0118,2.9717a7.377,7.377,0,0,1,3.4151-3.0362,11.8978,11.8978,0,0,1,4.7021-.9043,10.4054,10.4054,0,0,1,7.7949,3.3594,10.9563,10.9563,0,0,1,3.2207,7.9453v18.1514h-4.3925V277.0869a6.7564,6.7564,0,0,0-2.1319-5.039,7.1533,7.1533,0,0,0-5.1679-2.0665,7.375,7.375,0,0,0-5.2325,2.0665,6.6619,6.6619,0,0,0-2.1962,5.039v18.1514Z"/><path d="M306.9551,283.998V266.2988h4.3926v17.14a8.9924,8.9924,0,0,0,1.873,5.7334A6.1319,6.1319,0,0,0,318.26,291.75a7.2647,7.2647,0,0,0,5.5547-2.4482,8.3449,8.3449,0,0,0,2.2617-5.8633v-17.14h4.3926v28.9395h-4.3926v-3.94a7.9606,7.9606,0,0,1-3.7471,3.3593,11.9908,11.9908,0,0,1-5.0381,1.0332,9.292,9.292,0,0,1-7.4287-3.5527A12.1651,12.1651,0,0,1,306.9551,283.998Z"/><path d="M355.0781,266.2988v-8.3974h4.3926v8.3974h4.457v3.94h-4.457v18.6689a1.986,1.986,0,0,0,1.9375,1.9375h2.5195v4.3926h-3.94a4.8524,4.8524,0,0,1-4.9092-4.9092v-20.09h-3.94v-3.94Z"/><path d="M366.3174,287.3574a7.3714,7.3714,0,0,1,3.4238-6.2012,15.1767,15.1767,0,0,1,7.6221-2.5839,15.5662,15.5662,0,0,0,4.78-.9688,3.0892,3.0892,0,0,0,2.2607-2.9717,4.9008,4.9008,0,0,0-1.7441-3.81,6.0137,6.0137,0,0,0-4.1338-1.5508,6.8645,6.8645,0,0,0-4.3926,1.4854,4.7733,4.7733,0,0,0-1.9375,3.8759v.9688h-4.458v-1.9375a7.2476,7.2476,0,0,1,3.3594-6.1367,12.4405,12.4405,0,0,1,7.4013-2.1963,11.6025,11.6025,0,0,1,7.1436,2.2607,7.3185,7.3185,0,0,1,3.1543,6.0723v14.7275a2.705,2.705,0,0,0,.9043,2.0674,2.8064,2.8064,0,0,0,2.0674.84v3.94h-1.7442a5.65,5.65,0,0,1-3.1367-.9043,5.1961,5.1961,0,0,1-1.9736-2.5195,8.0087,8.0087,0,0,1-3.81,2.9716,13.278,13.278,0,0,1-4.9727.9043,10.5666,10.5666,0,0,1-7.1025-2.2607A7.4951,7.4951,0,0,1,366.3174,287.3574Zm4.3926,0a3.7,3.7,0,0,0,1.68,3.1006,6.3048,6.3048,0,0,0,3.7471,1.0986,8.6612,8.6612,0,0,0,5.749-2.0029,6.2415,6.2415,0,0,0,2.5186-5.1025l-.0508-3.94q-1.8018,1.487-6.5644,1.8731l-1.2227.0644a7.4689,7.4689,0,0,0-4.0547,1.4854A4.1254,4.1254,0,0,0,370.71,287.3574Z"/><path d="M394.2236,280.5107a15.9941,15.9941,0,0,1,3.3584-10.207,10.7306,10.7306,0,0,1,8.85-4.5215,10.3949,10.3949,0,0,1,4.5225.9541,7.0873,7.0873,0,0,1,3.3584,2.9229v-2.9717h4.3926v28.5508a8.5161,8.5161,0,0,1-3.7989,7.17,13.7941,13.7941,0,0,1-8.499,2.6484,13.9827,13.9827,0,0,1-7.791-2.1318,8.087,8.087,0,0,1-3.94-6.2656h4.457a4.7655,4.7655,0,0,0,2.6484,3.4238,9.7646,9.7646,0,0,0,4.65,1.0332,9.3671,9.3671,0,0,0,5.4268-1.55,4.958,4.958,0,0,0,2.4541-4.3281l-.0518-3.94A7.1141,7.1141,0,0,1,410.91,294.27a10.21,10.21,0,0,1-4.5108.9688,10.6905,10.6905,0,0,1-8.8262-4.5215A16.0186,16.0186,0,0,1,394.2236,280.5107Zm4.3926-.0322a13.4619,13.4619,0,0,0,2.002,7.45,6.6668,6.6668,0,0,0,5.8134,3.3692,6.8222,6.8222,0,0,0,5.8789-3.3692,13.47,13.47,0,0,0,2.002-7.45,13.1567,13.1567,0,0,0-2.002-7.3867,6.8242,6.8242,0,0,0-5.8789-3.3691,6.6688,6.6688,0,0,0-5.8134,3.3691A13.1487,13.1487,0,0,0,398.6162,280.4785Z"/><path d="M423.8721,280.5107q0-6.9126,3.3593-11.0459a11.6764,11.6764,0,0,1,17.8282,0q3.3588,4.1338,3.3593,11.0459v1.4854H428.2646a10.8878,10.8878,0,0,0,2.1319,7.06,7.0606,7.0606,0,0,0,5.749,2.6943,7.9328,7.9328,0,0,0,5.1035-1.5967,5.9237,5.9237,0,0,0,2.2608-4.2168h4.3925a9.8954,9.8954,0,0,1-3.6181,7.1055,12.2491,12.2491,0,0,1-8.1387,2.6484,10.9085,10.9085,0,0,1-8.9141-4.1338Q423.8711,287.4229,423.8721,280.5107Zm4.3925-2.455h15.6973a10.5992,10.5992,0,0,0-2.4551-6.3955,7.2089,7.2089,0,0,0-10.7226,0A10.371,10.371,0,0,0,428.2646,278.0557Z"/><path d="M467.99,284.4512h4.3926a6.6232,6.6232,0,0,0,1.8731,4.9267,6.7583,6.7583,0,0,0,4.9736,1.8555,9.5069,9.5069,0,0,0,5.0391-1.16,3.4626,3.4626,0,0,0,1.873-3.0283,4.5128,4.5128,0,0,0-2.6484-4.0595,14.4273,14.4273,0,0,0-5.6846-1.5469,10.0011,10.0011,0,0,1-6.2012-2.7071,7.7071,7.7071,0,0,1-2.6484-5.8632,7.1481,7.1481,0,0,1,2.7129-5.8633,10.8,10.8,0,0,1,7.1054-2.1914,10.9981,10.9981,0,0,1,7.8165,2.7129,9.0476,9.0476,0,0,1,2.9716,7.1054h-4.3925a5.5338,5.5338,0,0,0-1.7442-4.2627,6.5774,6.5774,0,0,0-4.6514-1.6152,6.4788,6.4788,0,0,0-3.94,1.0977,3.7326,3.7326,0,0,0,.8955,6.46,12.9423,12.9423,0,0,0,5.02,1.2276,11.77,11.77,0,0,1,6.8222,2.7129,8.1375,8.1375,0,0,1,.0322,12.5312,14.0327,14.0327,0,0,1-16.3867-.5166A10.1169,10.1169,0,0,1,467.99,284.4512Z"/><path d="M496.4121,266.2988v-8.3974h4.3926v8.3974h4.457v3.94h-4.457v18.6689a1.9858,1.9858,0,0,0,1.9375,1.9375h2.5195v4.3926h-3.94a4.8524,4.8524,0,0,1-4.9092-4.9092v-20.09h-3.94v-3.94Z"/><path d="M509.59,260.3564v-4.3925h4.3926v4.3925Zm0,34.8819V265.7822h4.3926v29.4561Z"/><path d="M520.7,295.2383V255.9639h4.3926v39.2744Z"/><path d="M531.8105,295.2383V255.9639h4.3926v39.2744Z"/><path d="M542.9209,260.3564v-4.3925h4.3926v4.3925Zm0,34.8819V265.7822h4.3926v29.4561Z"/><path d="M553.9658,295.2383V266.751h4.3926l-.0117,2.9717a7.3763,7.3763,0,0,1,3.415-3.0362,11.8982,11.8982,0,0,1,4.7022-.9043,10.4054,10.4054,0,0,1,7.7949,3.3594,10.9563,10.9563,0,0,1,3.2207,7.9453v18.1514h-4.3926V277.0869a6.7563,6.7563,0,0,0-2.1318-5.039,7.1535,7.1535,0,0,0-5.168-2.0665,7.375,7.375,0,0,0-5.2324,2.0665,6.6617,6.6617,0,0,0-2.1963,5.039v18.1514Z"/><path d="M581.8721,280.5107a15.9936,15.9936,0,0,1,3.3584-10.207,10.7305,10.7305,0,0,1,8.85-4.5215,10.3945,10.3945,0,0,1,4.5224.9541,7.0868,7.0868,0,0,1,3.3584,2.9229v-2.9717h4.3926v28.5508a8.5163,8.5163,0,0,1-3.7988,7.17,13.7941,13.7941,0,0,1-8.499,2.6484,13.983,13.983,0,0,1-7.7911-2.1318,8.0875,8.0875,0,0,1-3.94-6.2656h4.457a4.7659,4.7659,0,0,0,2.6485,3.4238,9.7646,9.7646,0,0,0,4.65,1.0332,9.3668,9.3668,0,0,0,5.4267-1.55,4.9578,4.9578,0,0,0,2.4541-4.3281l-.0517-3.94a7.1148,7.1148,0,0,1-3.3506,2.9716,10.21,10.21,0,0,1-4.5107.9688,10.69,10.69,0,0,1-8.8262-4.5215A16.0186,16.0186,0,0,1,581.8721,280.5107Zm4.3925-.0322a13.4619,13.4619,0,0,0,2.002,7.45,6.6671,6.6671,0,0,0,5.8135,3.3692,6.8223,6.8223,0,0,0,5.8789-3.3692,13.47,13.47,0,0,0,2.0019-7.45,13.1567,13.1567,0,0,0-2.0019-7.3867,6.8243,6.8243,0,0,0-5.8789-3.3691,6.6691,6.6691,0,0,0-5.8135,3.3691A13.1487,13.1487,0,0,0,586.2646,280.4785Z"/><path d="M630.8984,266.2988v-8.3974h4.3926v8.3974h4.457v3.94h-4.457v18.6689a1.986,1.986,0,0,0,1.9375,1.9375h2.5195v4.3926h-3.94a4.8524,4.8524,0,0,1-4.9092-4.9092v-20.09h-3.94v-3.94Z"/><path d="M644.0762,260.3564v-4.3925h4.3926v4.3925Zm0,34.8819V265.7822h4.3926v29.4561Z"/><path d="M655.1865,295.2383V255.9639h4.3926v39.2744Z"/><path d="M681.2168,282.9648h4.3926a7.3993,7.3993,0,0,0,2.9717,6.0079,10.6322,10.6322,0,0,0,6.8476,2.3252,10.4089,10.4089,0,0,0,6.5234-2.1319,6.9758,6.9758,0,0,0,2.8428-5.6846,5.89,5.89,0,0,0-2.9072-5.1025,11.3778,11.3778,0,0,0-6.459-1.8086h-3.4238v-4.3926h3.4238a8.0661,8.0661,0,0,0,5.167-1.7441,5.8087,5.8087,0,0,0,2.2607-4.6514,5.1255,5.1255,0,0,0-2.3252-4.3281,8.4431,8.4431,0,0,0-5.1025-1.55,9.7258,9.7258,0,0,0-6.1367,2.0019,6.5546,6.5546,0,0,0-2.7129,5.3624h-4.3926a10.8572,10.8572,0,0,1,3.8106-8.3985,12.9936,12.9936,0,0,1,8.9795-3.3584,13.3972,13.3972,0,0,1,8.5263,2.8418,9.01,9.01,0,0,1,3.7461,7.4287,10.682,10.682,0,0,1-1.0976,4.8448,8.2268,8.2268,0,0,1-3.295,3.5527,7.796,7.796,0,0,1,4.6514,3.4883,10.24,10.24,0,0,1,1.68,5.8134,11.1332,11.1332,0,0,1-4.1348,8.7852,14.4712,14.4712,0,0,1-9.624,3.4238,14.7417,14.7417,0,0,1-9.9482-3.6172A11.568,11.568,0,0,1,681.2168,282.9648Z"/><path d="M728.7578,284.4512H733.15a6.6235,6.6235,0,0,0,1.873,4.9267,6.7587,6.7587,0,0,0,4.9737,1.8555,9.5065,9.5065,0,0,0,5.039-1.16,3.4625,3.4625,0,0,0,1.8731-3.0283,4.5127,4.5127,0,0,0-2.6485-4.0595,14.4263,14.4263,0,0,0-5.6845-1.5469,10.0011,10.0011,0,0,1-6.2012-2.7071,7.7071,7.7071,0,0,1-2.6484-5.8632,7.1481,7.1481,0,0,1,2.7129-5.8633,10.8,10.8,0,0,1,7.1054-2.1914,10.9977,10.9977,0,0,1,7.8164,2.7129,9.0473,9.0473,0,0,1,2.9717,7.1054H745.94a5.5337,5.5337,0,0,0-1.7441-4.2627,6.5774,6.5774,0,0,0-4.6514-1.6152,6.4788,6.4788,0,0,0-3.94,1.0977,3.7325,3.7325,0,0,0,.8955,6.46,12.9423,12.9423,0,0,0,5.0195,1.2276,11.77,11.77,0,0,1,6.8223,2.7129,8.1375,8.1375,0,0,1,.0322,12.5312,14.0327,14.0327,0,0,1-16.3867-.5166A10.1169,10.1169,0,0,1,728.7578,284.4512Z"/><path d="M756.1465,305.0566V266.2988h4.3926l-.0118,4.1348a8.96,8.96,0,0,1,3.3506-3.3594,8.3255,8.3255,0,0,1,4.5088-1.292,10.8663,10.8663,0,0,1,8.8916,4.5215,17.2291,17.2291,0,0,1,.002,20.4131,10.856,10.856,0,0,1-8.8858,4.5215,8.3112,8.3112,0,0,1-4.5078-1.292,8.951,8.951,0,0,1-3.3476-3.3594v14.47Zm4.3926-24.5459a13.3928,13.3928,0,0,0,2.0019,7.4278,6.8233,6.8233,0,0,0,5.8779,3.3594,6.6741,6.6741,0,0,0,5.8145-3.3594,14.7819,14.7819,0,0,0,0-14.8565,6.6761,6.6761,0,0,0-5.8145-3.3593,6.8254,6.8254,0,0,0-5.8779,3.3593A13.3961,13.3961,0,0,0,760.5391,280.5107Z"/><path d="M784.31,280.5107q0-6.9126,3.6172-11.0459a12.1565,12.1565,0,0,1,9.625-4.1347,13.2194,13.2194,0,0,1,6.33,1.4863l4.586-6.7187H812.15l-5.8135,8.4619a13.4349,13.4349,0,0,1,3.3106,5.2324,19.2427,19.2427,0,0,1,1.1464,6.7187q0,6.9126-3.6084,11.0459a12.31,12.31,0,0,1-9.666,4.1338,12.6789,12.6789,0,0,1-7.8623-2.584l-3.0918,4.587h-3.6133l4.5137-6.7188a13.108,13.108,0,0,1-2.3193-4.65A19.6029,19.6029,0,0,1,784.31,280.5107Zm4.3925,0a14.41,14.41,0,0,0,1.4063,6.5889l11.4336-16.86a8.1125,8.1125,0,0,0-4.0049-.9688,7.8383,7.8383,0,0,0-6.46,3.1006A12.8579,12.8579,0,0,0,788.7021,280.5107Zm3.2461,9.1143a7.96,7.96,0,0,0,2.584,1.5459,8.1887,8.1887,0,0,0,9.4336-2.5117,12.8358,12.8358,0,0,0,2.4356-8.1758,16.0553,16.0553,0,0,0-.6582-4.6357,10.8938,10.8938,0,0,0-1.9092-3.67Z"/><path d="M815.9609,295.2383V266.2988h4.3926v5.1035a7.7981,7.7981,0,0,1,3.4883-4.1337,9.9448,9.9448,0,0,1,5.3613-1.4864h1.9375v4.3926h-1.9375a8.0684,8.0684,0,0,0-6.331,2.9795,10.0042,10.0042,0,0,0-2.5186,6.8643v15.22Z"/><path d="M833.207,280.5107a15.9941,15.9941,0,0,1,3.3584-10.207,10.7306,10.7306,0,0,1,8.85-4.5215,10.3949,10.3949,0,0,1,4.5225.9541,7.0873,7.0873,0,0,1,3.3584,2.9229v-2.9717h4.3926v28.5508a8.5161,8.5161,0,0,1-3.7989,7.17,13.7941,13.7941,0,0,1-8.499,2.6484,13.9827,13.9827,0,0,1-7.791-2.1318,8.087,8.087,0,0,1-3.94-6.2656h4.457a4.7655,4.7655,0,0,0,2.6484,3.4238,9.7646,9.7646,0,0,0,4.65,1.0332,9.3671,9.3671,0,0,0,5.4268-1.55,4.958,4.958,0,0,0,2.4541-4.3281l-.0518-3.94a7.1141,7.1141,0,0,1-3.3505,2.9716,10.21,10.21,0,0,1-4.5108.9688,10.6905,10.6905,0,0,1-8.8262-4.5215A16.0186,16.0186,0,0,1,833.207,280.5107Zm4.3926-.0322a13.4619,13.4619,0,0,0,2.002,7.45,6.6668,6.6668,0,0,0,5.8134,3.3692,6.8222,6.8222,0,0,0,5.8789-3.3692,13.47,13.47,0,0,0,2.002-7.45,13.1567,13.1567,0,0,0-2.002-7.3867,6.8242,6.8242,0,0,0-5.8789-3.3691,6.6688,6.6688,0,0,0-5.8134,3.3691A13.1487,13.1487,0,0,0,837.6,280.4785Z"/><path d="M862.3389,284.4512h4.3925a6.6235,6.6235,0,0,0,1.8731,4.9267,6.7583,6.7583,0,0,0,4.9736,1.8555,9.5067,9.5067,0,0,0,5.0391-1.16,3.4626,3.4626,0,0,0,1.873-3.0283,4.5128,4.5128,0,0,0-2.6484-4.0595,14.4268,14.4268,0,0,0-5.6846-1.5469,10.0006,10.0006,0,0,1-6.2011-2.7071,7.7072,7.7072,0,0,1-2.6485-5.8632,7.1481,7.1481,0,0,1,2.7129-5.8633,10.8,10.8,0,0,1,7.1055-2.1914,10.9978,10.9978,0,0,1,7.8164,2.7129,9.0473,9.0473,0,0,1,2.9717,7.1054h-4.3926a5.5338,5.5338,0,0,0-1.7442-4.2627,6.577,6.577,0,0,0-4.6513-1.6152,6.4794,6.4794,0,0,0-3.94,1.0977,3.7325,3.7325,0,0,0,.8956,6.46,12.9418,12.9418,0,0,0,5.0195,1.2276,11.77,11.77,0,0,1,6.8223,2.7129,8.1376,8.1376,0,0,1,.0322,12.5312,14.0327,14.0327,0,0,1-16.3867-.5166A10.1165,10.1165,0,0,1,862.3389,284.4512Z"/><path d="M889.6621,295.2383V266.751h4.3926l-.0078,1.4863a8.2735,8.2735,0,0,1,2.9092-1.874,10.2537,10.2537,0,0,1,3.49-.5811,9.8447,9.8447,0,0,1,4.459,1.0342,8.6833,8.6833,0,0,1,3.4258,2.9063,10.6991,10.6991,0,0,1,3.7334-2.9063,10.587,10.587,0,0,1,4.57-1.0342,10.0267,10.0267,0,0,1,7.21,2.8428,9.1141,9.1141,0,0,1,3.09,6.9756v19.6377H922.542V275.6006a5.8786,5.8786,0,0,0-11.7568,0v19.6377h-4.3926V275.6006a5.5134,5.5134,0,0,0-1.7442-4.1338,5.7212,5.7212,0,0,0-4.1982-1.7441,6.4532,6.4532,0,0,0-4.457,1.68,5.3292,5.3292,0,0,0-1.9385,4.1983v19.6377Z"/><path d="M931.2617,287.3574a7.3714,7.3714,0,0,1,3.4238-6.2012,15.1771,15.1771,0,0,1,7.6221-2.5839,15.5662,15.5662,0,0,0,4.78-.9688,3.0892,3.0892,0,0,0,2.2607-2.9717,4.9005,4.9005,0,0,0-1.7441-3.81,6.0134,6.0134,0,0,0-4.1338-1.5508,6.8647,6.8647,0,0,0-4.3926,1.4854,4.7733,4.7733,0,0,0-1.9375,3.8759v.9688h-4.458v-1.9375a7.2476,7.2476,0,0,1,3.3594-6.1367,12.52,12.52,0,0,1,7.4287-2.1963,11.5953,11.5953,0,0,1,7.1514,2.2607,7.3438,7.3438,0,0,1,3.1191,6.0723v14.7275a2.705,2.705,0,0,0,.9043,2.0674,2.8066,2.8066,0,0,0,2.0674.84v3.94h-1.7441a5.65,5.65,0,0,1-3.1368-.9043,5.1961,5.1961,0,0,1-1.9736-2.5195,8.0082,8.0082,0,0,1-3.81,2.9716,13.2779,13.2779,0,0,1-4.9726.9043,10.5669,10.5669,0,0,1-7.1026-2.2607A7.4951,7.4951,0,0,1,931.2617,287.3574Zm4.3926,0a3.7006,3.7006,0,0,0,1.68,3.1006,6.3043,6.3043,0,0,0,3.7471,1.0986,8.6616,8.6616,0,0,0,5.749-2.0029,6.2417,6.2417,0,0,0,2.5185-5.1025l-.0507-3.94q-1.8018,1.487-6.5645,1.8731l-1.2227.0644a7.4686,7.4686,0,0,0-4.0546,1.4854A4.1255,4.1255,0,0,0,935.6543,287.3574Zm3.7471-29.9082a3.9734,3.9734,0,0,1,4.0693-4.0693,4.08,4.08,0,0,1,4.1338,4.0693,4.0484,4.0484,0,0,1-1.2266,2.9717,3.8383,3.8383,0,0,1-2.9072,1.2275,3.9727,3.9727,0,0,1-2.9072-1.2275A4.1648,4.1648,0,0,1,939.4014,257.4492Zm2.0019,0a2.0679,2.0679,0,1,0,4.1348,0,1.86,1.86,0,0,0-.582-1.3564,2.1889,2.1889,0,0,0-2.9707,0A1.86,1.86,0,0,0,941.4033,257.4492Z"/><path d="M960.9121,295.2383V255.9639h4.3926v39.2744Z"/><path d="M86.4268,342.9111q0-6.9126,3.6084-11.0459a12.1147,12.1147,0,0,1,9.6015-4.1347,12.3084,12.3084,0,0,1,9.666,4.1347q3.608,4.1338,3.6084,11.0459t-3.6084,11.0459a12.3073,12.3073,0,0,1-9.666,4.1338,12.1137,12.1137,0,0,1-9.6015-4.1338Q86.4257,349.8233,86.4268,342.9111Zm4.3925-.0322a13.01,13.01,0,0,0,2.39,8.18,8.2946,8.2946,0,0,0,12.92,0,13.0161,13.0161,0,0,0,2.39-8.18,12.7448,12.7448,0,0,0-2.39-8.1162,8.2946,8.2946,0,0,0-12.92,0A12.7388,12.7388,0,0,0,90.8193,342.8789Z"/><path d="M116.335,342.9111a15.9936,15.9936,0,0,1,3.3584-10.207,10.7305,10.7305,0,0,1,8.85-4.5215,10.3945,10.3945,0,0,1,4.5224.9541,7.0868,7.0868,0,0,1,3.3584,2.9229v-2.9717h4.3926v28.5508a8.5163,8.5163,0,0,1-3.7988,7.17,13.7941,13.7941,0,0,1-8.499,2.6484,13.983,13.983,0,0,1-7.7911-2.1318,8.0876,8.0876,0,0,1-3.94-6.2656h4.457a4.7659,4.7659,0,0,0,2.6485,3.4238,9.7646,9.7646,0,0,0,4.65,1.0332,9.367,9.367,0,0,0,5.4267-1.55,4.9579,4.9579,0,0,0,2.4541-4.3281l-.0517-3.94a7.115,7.115,0,0,1-3.3506,2.9717,10.21,10.21,0,0,1-4.5108.9688,10.69,10.69,0,0,1-8.8261-4.5215A16.0188,16.0188,0,0,1,116.335,342.9111Zm4.3925-.0322a13.4619,13.4619,0,0,0,2.002,7.45,6.667,6.667,0,0,0,5.8135,3.3691,6.8222,6.8222,0,0,0,5.8789-3.3691,13.47,13.47,0,0,0,2.0019-7.45,13.1567,13.1567,0,0,0-2.0019-7.3867,6.8244,6.8244,0,0,0-5.8789-3.3692,6.6692,6.6692,0,0,0-5.8135,3.3692A13.1487,13.1487,0,0,0,120.7275,342.8789Z"/><path d="M162.584,342.9111a15.9936,15.9936,0,0,1,3.3584-10.207,10.7306,10.7306,0,0,1,8.85-4.5215,10.3952,10.3952,0,0,1,4.5225.9541,7.0878,7.0878,0,0,1,3.3584,2.9229v-2.9717h4.3925v28.5508a8.5163,8.5163,0,0,1-3.7988,7.17,13.7941,13.7941,0,0,1-8.499,2.6484,13.9824,13.9824,0,0,1-7.791-2.1318,8.0875,8.0875,0,0,1-3.94-6.2656h4.4571a4.7655,4.7655,0,0,0,2.6484,3.4238,9.7646,9.7646,0,0,0,4.65,1.0332,9.3674,9.3674,0,0,0,5.4268-1.55,4.9581,4.9581,0,0,0,2.4541-4.3281l-.0518-3.94a7.115,7.115,0,0,1-3.3506,2.9717,10.21,10.21,0,0,1-4.5107.9688,10.69,10.69,0,0,1-8.8262-4.5215A16.0188,16.0188,0,0,1,162.584,342.9111Zm4.3926-.0322a13.4627,13.4627,0,0,0,2.0019,7.45,6.667,6.667,0,0,0,5.8135,3.3691,6.8222,6.8222,0,0,0,5.8789-3.3691,13.47,13.47,0,0,0,2.002-7.45,13.1567,13.1567,0,0,0-2.002-7.3867,6.8244,6.8244,0,0,0-5.8789-3.3692,6.6692,6.6692,0,0,0-5.8135,3.3692A13.15,13.15,0,0,0,166.9766,342.8789Z"/><path d="M192.4268,342.9111q0-6.9126,3.6171-11.0459a12.1568,12.1568,0,0,1,9.625-4.1347,13.22,13.22,0,0,1,6.33,1.4863l4.586-6.7188h3.6826l-5.8135,8.462a13.4335,13.4335,0,0,1,3.31,5.2324,19.24,19.24,0,0,1,1.1465,6.7187q0,6.9126-3.6084,11.0459a12.31,12.31,0,0,1-9.666,4.1338,12.6789,12.6789,0,0,1-7.8623-2.584l-3.0918,4.587h-3.6133l4.5137-6.7188a13.108,13.108,0,0,1-2.3193-4.65A19.6029,19.6029,0,0,1,192.4268,342.9111Zm4.3925,0a14.4105,14.4105,0,0,0,1.4063,6.5889l11.4336-16.86a8.1124,8.1124,0,0,0-4.0049-.9687,7.8383,7.8383,0,0,0-6.46,3.1006A12.8579,12.8579,0,0,0,196.8193,342.9111Zm3.2461,9.1143a7.9584,7.9584,0,0,0,2.584,1.5459,8.1887,8.1887,0,0,0,9.4336-2.5117,12.8358,12.8358,0,0,0,2.4356-8.1758,16.0564,16.0564,0,0,0-.6582-4.6358,10.8943,10.8943,0,0,0-1.9092-3.67Z"/><path d="M224.0781,357.6387V328.6992h4.3926v5.1035a7.7987,7.7987,0,0,1,3.4883-4.1338,9.9456,9.9456,0,0,1,5.3613-1.4863h1.9375v4.3926H237.32a8.0684,8.0684,0,0,0-6.331,2.98,10.0042,10.0042,0,0,0-2.5186,6.8642v15.22Z"/><path d="M241.5176,342.9111q0-6.9126,3.3594-11.0459a11.6763,11.6763,0,0,1,17.8281,0q3.3588,4.1338,3.3594,11.0459v1.4854H245.91a10.8878,10.8878,0,0,0,2.1318,7.06,7.0606,7.0606,0,0,0,5.749,2.6943,7.9328,7.9328,0,0,0,5.1035-1.5967,5.9237,5.9237,0,0,0,2.2608-4.2168h4.3926a9.8958,9.8958,0,0,1-3.6182,7.1055,12.2491,12.2491,0,0,1-8.1387,2.6484,10.9082,10.9082,0,0,1-8.914-4.1338Q241.5166,349.8233,241.5176,342.9111Zm4.3926-2.455h15.6972a10.6,10.6,0,0,0-2.4551-6.3956,7.2091,7.2091,0,0,0-10.7226,0A10.3708,10.3708,0,0,0,245.91,340.4561Z"/><path d="M287.7031,357.6387V318.3643h4.3926v13.7011a11.7462,11.7462,0,0,1,3.5527-2.8008,9.807,9.807,0,0,1,14.1465,8.7364v19.6377h-4.3926V337.9512a5.0427,5.0427,0,0,0-1.8085-3.8858,6.1641,6.1641,0,0,0-4.1348-1.49q-2.9062,0-6.8467,4.792l-.5166.584v19.6875Z"/><path d="M313.2178,328.6992H317.61l7.8164,23.0615,7.8808-23.0615h4.457l-9.8183,28.9395h-4.9092Z"/><path d="M339.7666,349.7578a7.3713,7.3713,0,0,1,3.4238-6.2012,15.1761,15.1761,0,0,1,7.6221-2.5839,15.5662,15.5662,0,0,0,4.78-.9688,3.0892,3.0892,0,0,0,2.2607-2.9717,4.9005,4.9005,0,0,0-1.7441-3.81,6.0134,6.0134,0,0,0-4.1338-1.5508,6.8652,6.8652,0,0,0-4.3926,1.4853,4.7736,4.7736,0,0,0-1.9375,3.876v.9688h-4.458v-1.9375a7.2476,7.2476,0,0,1,3.3594-6.1367,12.4407,12.4407,0,0,1,7.4013-2.1963,11.6023,11.6023,0,0,1,7.1436,2.2607,7.3185,7.3185,0,0,1,3.1543,6.0723V350.791a2.705,2.705,0,0,0,.9043,2.0674,2.8069,2.8069,0,0,0,2.0674.84v3.94h-1.7442a5.65,5.65,0,0,1-3.1367-.9043,5.1959,5.1959,0,0,1-1.9736-2.52,8.0078,8.0078,0,0,1-3.81,2.9717,13.2779,13.2779,0,0,1-4.9726.9043,10.5669,10.5669,0,0,1-7.1026-2.2607A7.4952,7.4952,0,0,1,339.7666,349.7578Zm4.3926,0a3.7006,3.7006,0,0,0,1.68,3.1006,6.3042,6.3042,0,0,0,3.747,1.0986,8.6617,8.6617,0,0,0,5.7491-2.0029,6.2417,6.2417,0,0,0,2.5185-5.1025l-.0508-3.9405q-1.8016,1.4868-6.5644,1.8731l-1.2227.0644a7.4689,7.4689,0,0,0-4.0547,1.4854A4.1257,4.1257,0,0,0,344.1592,349.7578Z"/><path d="M367.7373,342.9111a15.9936,15.9936,0,0,1,3.3584-10.207,10.7311,10.7311,0,0,1,8.8506-4.5215,8.37,8.37,0,0,1,4.5215,1.292,8.98,8.98,0,0,1,3.3584,3.3594v-14.47h4.3926v39.2744h-4.3926l-.0518-4.6514a10.6868,10.6868,0,0,1-3.2861,3.6182,8.03,8.03,0,0,1-4.5752,1.4853,10.6124,10.6124,0,0,1-8.8906-4.7158A16.9733,16.9733,0,0,1,367.7373,342.9111Zm4.3926,0a13.9879,13.9879,0,0,0,1.9375,7.5577,6.6973,6.6973,0,0,0,11.7568,0,13.65,13.65,0,0,0,2.002-7.5577,13.4035,13.4035,0,0,0-2.002-7.4287,6.8278,6.8278,0,0,0-5.8779-3.3594,6.6741,6.6741,0,0,0-5.8145,3.3594A13.3961,13.3961,0,0,0,372.13,342.9111Z"/><path d="M414.1162,342.9111a15.9941,15.9941,0,0,1,3.3584-10.207,10.7311,10.7311,0,0,1,8.8506-4.5215,8.37,8.37,0,0,1,4.5215,1.292,8.98,8.98,0,0,1,3.3584,3.3594v-14.47h4.3926v39.2744h-4.3926l-.0518-4.6514a10.6868,10.6868,0,0,1-3.2861,3.6182,8.03,8.03,0,0,1-4.5752,1.4853,10.6124,10.6124,0,0,1-8.8906-4.7158A16.9733,16.9733,0,0,1,414.1162,342.9111Zm4.3926,0a13.9879,13.9879,0,0,0,1.9375,7.5577,6.6973,6.6973,0,0,0,11.7568,0,13.65,13.65,0,0,0,2.002-7.5577,13.4035,13.4035,0,0,0-2.002-7.4287,6.8278,6.8278,0,0,0-5.8779-3.3594,6.6741,6.6741,0,0,0-5.8145,3.3594A13.3961,13.3961,0,0,0,418.5088,342.9111Z"/><path d="M444.7344,346.3984V328.6992h4.3926v17.14A8.9924,8.9924,0,0,0,451,351.5723a6.1318,6.1318,0,0,0,5.0391,2.5781,7.2644,7.2644,0,0,0,5.5547-2.4483,8.3445,8.3445,0,0,0,2.2617-5.8632v-17.14h4.3925v28.9395h-4.3925v-3.94a7.96,7.96,0,0,1-3.7471,3.3594,11.9908,11.9908,0,0,1-5.0381,1.0332,9.292,9.292,0,0,1-7.4287-3.5527A12.1651,12.1651,0,0,1,444.7344,346.3984Z"/><path d="M488.9814,333.0918v-4.3926h3.94v-2.4541a7.69,7.69,0,0,1,2.2607-5.5556,7.5832,7.5832,0,0,1,5.5557-2.3252h2.4541v4.457h-1.9375a3.9525,3.9525,0,0,0-2.7129.9687,3.0009,3.0009,0,0,0-1.2275,2.4551v2.4541h5.8779v4.3926h-5.8779v24.5469h-4.3926V333.0918Z"/><path d="M505.7129,342.9111q0-6.9126,3.6172-11.0459a12.1565,12.1565,0,0,1,9.625-4.1347,13.22,13.22,0,0,1,6.33,1.4863l4.5859-6.7188h3.6826L527.74,330.96a13.4349,13.4349,0,0,1,3.3106,5.2324,19.24,19.24,0,0,1,1.1465,6.7187q0,6.9126-3.6084,11.0459a12.31,12.31,0,0,1-9.666,4.1338,12.6789,12.6789,0,0,1-7.8624-2.584l-3.0917,4.587h-3.6133l4.5136-6.7188a13.11,13.11,0,0,1-2.3193-4.65A19.6029,19.6029,0,0,1,505.7129,342.9111Zm4.3926,0a14.4105,14.4105,0,0,0,1.4062,6.5889l11.4336-16.86a8.1122,8.1122,0,0,0-4.0049-.9687,7.8379,7.8379,0,0,0-6.46,3.1006A12.8573,12.8573,0,0,0,510.1055,342.9111Zm3.2461,9.1143a7.959,7.959,0,0,0,2.5839,1.5459,8.1887,8.1887,0,0,0,9.4336-2.5117,12.8358,12.8358,0,0,0,2.4356-8.1758,16.0564,16.0564,0,0,0-.6582-4.6358,10.8943,10.8943,0,0,0-1.9092-3.67Z"/><path d="M537.3643,357.6387V318.3643h4.3925v39.2744Z"/><path d="M546.9238,342.9111q0-6.9126,3.3594-11.0459a11.6763,11.6763,0,0,1,17.8281,0q3.3589,4.1338,3.3594,11.0459v1.4854H551.3164a10.8878,10.8878,0,0,0,2.1318,7.06,7.0606,7.0606,0,0,0,5.7491,2.6943,7.9331,7.9331,0,0,0,5.1035-1.5967,5.9232,5.9232,0,0,0,2.2607-4.2168h4.3926a9.8955,9.8955,0,0,1-3.6182,7.1055,12.2486,12.2486,0,0,1-8.1386,2.6484,10.9085,10.9085,0,0,1-8.9141-4.1338Q546.9229,349.8233,546.9238,342.9111Zm4.3926-2.455h15.6973a10.6,10.6,0,0,0-2.4551-6.3956,7.2092,7.2092,0,0,0-10.7227,0A10.3714,10.3714,0,0,0,551.3164,340.4561Z"/><path d="M576.3154,357.6387V328.6992h4.3926v5.1035a7.7987,7.7987,0,0,1,3.4883-4.1338,9.9456,9.9456,0,0,1,5.3613-1.4863h1.9375v4.3926h-1.9375a8.0684,8.0684,0,0,0-6.331,2.98,10.0042,10.0042,0,0,0-2.5186,6.8642v15.22Z"/><path d="M610.5488,342.9111q0-6.9126,3.3594-11.0459a11.6763,11.6763,0,0,1,17.8281,0q3.3589,4.1338,3.3594,11.0459v1.4854H614.9414a10.8878,10.8878,0,0,0,2.1318,7.06,7.0606,7.0606,0,0,0,5.7491,2.6943,7.9331,7.9331,0,0,0,5.1035-1.5967,5.9232,5.9232,0,0,0,2.2607-4.2168h4.3926a9.8955,9.8955,0,0,1-3.6182,7.1055,12.2486,12.2486,0,0,1-8.1386,2.6484,10.9085,10.9085,0,0,1-8.9141-4.1338Q610.5479,349.8233,610.5488,342.9111Zm4.3926-2.455h15.6973a10.6,10.6,0,0,0-2.4551-6.3956,7.2092,7.2092,0,0,0-10.7227,0A10.3714,10.3714,0,0,0,614.9414,340.4561Z"/><path d="M639.94,357.6387V328.6992h4.3926v5.1035a7.7987,7.7987,0,0,1,3.4883-4.1338,9.9456,9.9456,0,0,1,5.3613-1.4863H655.12v4.3926h-1.9375a8.0684,8.0684,0,0,0-6.331,2.98,10.0042,10.0042,0,0,0-2.5186,6.8642v15.22Z"/><path d="M674.0449,342.9111a15.9941,15.9941,0,0,1,3.3584-10.207,10.7311,10.7311,0,0,1,8.8506-4.5215,8.37,8.37,0,0,1,4.5215,1.292,8.98,8.98,0,0,1,3.3584,3.3594v-14.47h4.3926v39.2744h-4.3926l-.0518-4.6514a10.6857,10.6857,0,0,1-3.2861,3.6182,8.03,8.03,0,0,1-4.5752,1.4853,10.6124,10.6124,0,0,1-8.8906-4.7158A16.9733,16.9733,0,0,1,674.0449,342.9111Zm4.3926,0a13.9879,13.9879,0,0,0,1.9375,7.5577,6.6973,6.6973,0,0,0,11.7568,0,13.65,13.65,0,0,0,2.002-7.5577,13.4035,13.4035,0,0,0-2.002-7.4287,6.8278,6.8278,0,0,0-5.8779-3.3594,6.6738,6.6738,0,0,0-5.8144,3.3594A13.3953,13.3953,0,0,0,678.4375,342.9111Z"/><path d="M703.7588,342.9111q0-6.9126,3.3594-11.0459a11.6763,11.6763,0,0,1,17.8281,0q3.3588,4.1338,3.3594,11.0459v1.4854H708.1514a10.8878,10.8878,0,0,0,2.1318,7.06,7.0606,7.0606,0,0,0,5.749,2.6943,7.9328,7.9328,0,0,0,5.1035-1.5967,5.9237,5.9237,0,0,0,2.2608-4.2168h4.3926a9.8958,9.8958,0,0,1-3.6182,7.1055,12.2489,12.2489,0,0,1-8.1387,2.6484,10.9082,10.9082,0,0,1-8.914-4.1338Q703.7578,349.8233,703.7588,342.9111Zm4.3926-2.455h15.6972a10.6,10.6,0,0,0-2.455-6.3956,7.2092,7.2092,0,0,0-10.7227,0A10.3714,10.3714,0,0,0,708.1514,340.4561Z"/><path d="M734.1836,328.6992v-8.3974h4.3926v8.3974h4.457v3.94h-4.457v18.669a1.9858,1.9858,0,0,0,1.9375,1.9375h2.5195v4.3926h-3.94a4.8524,4.8524,0,0,1-4.9092-4.9092V332.64h-3.94v-3.94Z"/><path d="M764.1553,357.6387V328.6992h4.3926v5.1035a7.7985,7.7985,0,0,1,3.4882-4.1338,9.9457,9.9457,0,0,1,5.3614-1.4863h1.9375v4.3926h-1.9375a8.0686,8.0686,0,0,0-6.3311,2.98,10.0041,10.0041,0,0,0-2.5185,6.8642v15.22Z"/><path d="M783.1455,322.7568v-4.3925h4.3926v4.3925Zm0,34.8819V328.1826h4.3926v29.4561Z"/><path d="M792.5117,342.9111a15.9941,15.9941,0,0,1,3.3584-10.207,10.7306,10.7306,0,0,1,8.85-4.5215,10.3952,10.3952,0,0,1,4.5225.9541,7.0873,7.0873,0,0,1,3.3584,2.9229v-2.9717h4.3926v28.5508a8.5161,8.5161,0,0,1-3.7989,7.17,13.7941,13.7941,0,0,1-8.499,2.6484,13.9827,13.9827,0,0,1-7.791-2.1318,8.0871,8.0871,0,0,1-3.94-6.2656h4.457a4.7655,4.7655,0,0,0,2.6484,3.4238,9.7646,9.7646,0,0,0,4.65,1.0332,9.3671,9.3671,0,0,0,5.4268-1.55,4.9581,4.9581,0,0,0,2.4541-4.3281l-.0518-3.94a7.1141,7.1141,0,0,1-3.3506,2.9717,10.21,10.21,0,0,1-4.5107.9688,10.69,10.69,0,0,1-8.8262-4.5215A16.0188,16.0188,0,0,1,792.5117,342.9111Zm4.3926-.0322a13.4627,13.4627,0,0,0,2.0019,7.45,6.667,6.667,0,0,0,5.8135,3.3691,6.8221,6.8221,0,0,0,5.8789-3.3691,13.47,13.47,0,0,0,2.002-7.45,13.1567,13.1567,0,0,0-2.002-7.3867,6.8243,6.8243,0,0,0-5.8789-3.3692,6.6692,6.6692,0,0,0-5.8135,3.3692A13.15,13.15,0,0,0,796.9043,342.8789Z"/><path d="M824.7441,328.6992v-8.3974h4.3926v8.3974h4.4571v3.94h-4.4571v18.669a1.986,1.986,0,0,0,1.9375,1.9375h2.52v4.3926h-3.9405a4.8524,4.8524,0,0,1-4.9092-4.9092V332.64h-3.94v-3.94Z"/><path d="M837.9219,322.7568v-4.3925h4.3926v4.3925Zm0,34.8819V328.1826h4.3926v29.4561Z"/><path d="M847.2881,342.9111a15.9936,15.9936,0,0,1,3.3584-10.207,10.7306,10.7306,0,0,1,8.85-4.5215,10.3952,10.3952,0,0,1,4.5225.9541,7.0878,7.0878,0,0,1,3.3584,2.9229v-2.9717H871.77v28.5508a8.5163,8.5163,0,0,1-3.7988,7.17,13.7941,13.7941,0,0,1-8.499,2.6484,13.9824,13.9824,0,0,1-7.791-2.1318A8.0875,8.0875,0,0,1,847.74,359.06h4.4571a4.7655,4.7655,0,0,0,2.6484,3.4238,9.7646,9.7646,0,0,0,4.65,1.0332,9.3674,9.3674,0,0,0,5.4268-1.55,4.9581,4.9581,0,0,0,2.4541-4.3281l-.0518-3.94a7.1145,7.1145,0,0,1-3.3506,2.9717,10.21,10.21,0,0,1-4.5107.9688,10.69,10.69,0,0,1-8.8262-4.5215A16.0188,16.0188,0,0,1,847.2881,342.9111Zm4.3926-.0322a13.4627,13.4627,0,0,0,2.0019,7.45,6.667,6.667,0,0,0,5.8135,3.3691,6.8222,6.8222,0,0,0,5.8789-3.3691,13.47,13.47,0,0,0,2.002-7.45,13.1567,13.1567,0,0,0-2.002-7.3867,6.8244,6.8244,0,0,0-5.8789-3.3692,6.6692,6.6692,0,0,0-5.8135,3.3692A13.15,13.15,0,0,0,851.6807,342.8789Z"/><path d="M876.9365,342.9111q0-6.9126,3.3594-11.0459a11.6763,11.6763,0,0,1,17.8281,0q3.3589,4.1338,3.3594,11.0459v1.4854H881.3291a10.8878,10.8878,0,0,0,2.1318,7.06A7.0606,7.0606,0,0,0,889.21,354.15a7.9331,7.9331,0,0,0,5.1035-1.5967,5.9232,5.9232,0,0,0,2.2607-4.2168h4.3926a9.8955,9.8955,0,0,1-3.6182,7.1055,12.2486,12.2486,0,0,1-8.1386,2.6484,10.9085,10.9085,0,0,1-8.9141-4.1338Q876.9356,349.8233,876.9365,342.9111Zm4.3926-2.455h15.6973a10.6,10.6,0,0,0-2.4551-6.3956,7.2092,7.2092,0,0,0-10.7227,0A10.3714,10.3714,0,0,0,881.3291,340.4561Z"/><path d="M906.3281,357.6387v-5.168h5.167v5.168Z"/></g></svg>
