<svg xmlns="http://www.w3.org/2000/svg" width="1920" height="1080" viewBox="0 0 1920 1080"><defs><style>.cls-1{fill:#999;}.cls-2{fill:#b3b3b3;}.cls-3{fill:#e6e6e6;}.cls-10,.cls-4,.cls-6{fill:#fff;}.cls-4{opacity:0.47;}.cls-5{fill:#b4f6ff;}.cls-6{opacity:0.32;}.cls-11,.cls-7{fill:gray;}.cls-7{opacity:0.7;}.cls-8{fill:#f2f2f2;}.cls-9{fill:#ccc;opacity:0.49;}.cls-12{fill:#c1272d;}.cls-13{fill:#ed1c24;}.cls-14{fill:#2e3192;}.cls-15{fill:blue;}</style></defs><title>startbaggrund</title><g id="Layer_8" data-name="Layer 8"><rect class="cls-1" x="-0.5" y="0.5" width="1920" height="1079"/><rect class="cls-2" x="-0.5" y="913.5" width="1920" height="166"/><rect class="cls-3" x="4.5" y="3.5" width="96" height="96"/><polygon class="cls-4" points="96.37 95.581 8.473 7.684 96.37 7.684 96.37 95.581"/><rect class="cls-3" x="4.5" y="104.5" width="96" height="96"/><polygon class="cls-4" points="96.37 196.581 8.473 108.684 96.37 108.684 96.37 196.581"/><rect class="cls-3" x="4.5" y="205.5" width="96" height="96"/><polygon class="cls-4" points="96.37 297.581 8.473 209.684 96.37 209.684 96.37 297.581"/><rect class="cls-3" x="4.5" y="306.5" width="96" height="96"/><polygon class="cls-4" points="96.37 398.581 8.473 310.684 96.37 310.684 96.37 398.581"/><rect class="cls-3" x="4.5" y="407.5" width="96" height="96"/><polygon class="cls-4" points="96.37 499.581 8.473 411.684 96.37 411.684 96.37 499.581"/><rect class="cls-3" x="4.5" y="508.5" width="96" height="96"/><polygon class="cls-4" points="96.37 600.581 8.473 512.684 96.37 512.684 96.37 600.581"/><rect class="cls-3" x="4.5" y="609.5" width="96" height="96"/><polygon class="cls-4" points="96.37 701.581 8.473 613.684 96.37 613.684 96.37 701.581"/><rect class="cls-3" x="4.5" y="710.5" width="96" height="96"/><polygon class="cls-4" points="96.37 802.581 8.473 714.684 96.37 714.684 96.37 802.581"/><rect class="cls-3" x="4.5" y="811.5" width="96" height="96"/><polygon class="cls-4" points="96.37 903.581 8.473 815.684 96.37 815.684 96.37 903.581"/><rect class="cls-3" x="105.5" y="3.5" width="96" height="96"/><polygon class="cls-4" points="197.37 95.581 109.473 7.684 197.37 7.684 197.37 95.581"/><rect class="cls-3" x="105.5" y="104.5" width="96" height="96"/><polygon class="cls-4" points="197.37 196.581 109.473 108.684 197.37 108.684 197.37 196.581"/><rect class="cls-3" x="105.5" y="205.5" width="96" height="96"/><polygon class="cls-4" points="197.37 297.581 109.473 209.684 197.37 209.684 197.37 297.581"/><rect class="cls-3" x="105.5" y="306.5" width="96" height="96"/><polygon class="cls-4" points="197.37 398.581 109.473 310.684 197.37 310.684 197.37 398.581"/><rect class="cls-3" x="105.5" y="407.5" width="96" height="96"/><polygon class="cls-4" points="197.37 499.581 109.473 411.684 197.37 411.684 197.37 499.581"/><rect class="cls-3" x="105.5" y="508.5" width="96" height="96"/><polygon class="cls-4" points="197.37 600.581 109.473 512.684 197.37 512.684 197.37 600.581"/><rect class="cls-3" x="105.5" y="609.5" width="96" height="96"/><polygon class="cls-4" points="197.37 701.581 109.473 613.684 197.37 613.684 197.37 701.581"/><rect class="cls-3" x="105.5" y="710.5" width="96" height="96"/><polygon class="cls-4" points="197.37 802.581 109.473 714.684 197.37 714.684 197.37 802.581"/><rect class="cls-3" x="105.5" y="811.5" width="96" height="96"/><polygon class="cls-4" points="197.37 903.581 109.473 815.684 197.37 815.684 197.37 903.581"/><rect class="cls-3" x="206.5" y="3.5" width="96" height="96"/><polygon class="cls-4" points="298.37 95.581 210.473 7.684 298.37 7.684 298.37 95.581"/><rect class="cls-3" x="206.5" y="104.5" width="96" height="96"/><polygon class="cls-4" points="298.37 196.581 210.473 108.684 298.37 108.684 298.37 196.581"/><rect class="cls-3" x="206.5" y="205.5" width="96" height="96"/><polygon class="cls-4" points="298.37 297.581 210.473 209.684 298.37 209.684 298.37 297.581"/><rect class="cls-3" x="206.5" y="306.5" width="96" height="96"/><polygon class="cls-4" points="298.37 398.581 210.473 310.684 298.37 310.684 298.37 398.581"/><rect class="cls-3" x="206.5" y="407.5" width="96" height="96"/><polygon class="cls-4" points="298.37 499.581 210.473 411.684 298.37 411.684 298.37 499.581"/><rect class="cls-3" x="206.5" y="508.5" width="96" height="96"/><polygon class="cls-4" points="298.37 600.581 210.473 512.684 298.37 512.684 298.37 600.581"/><rect class="cls-3" x="206.5" y="609.5" width="96" height="96"/><polygon class="cls-4" points="298.37 701.581 210.473 613.684 298.37 613.684 298.37 701.581"/><rect class="cls-3" x="206.5" y="710.5" width="96" height="96"/><polygon class="cls-4" points="298.37 802.581 210.473 714.684 298.37 714.684 298.37 802.581"/><rect class="cls-3" x="206.5" y="811.5" width="96" height="96"/><polygon class="cls-4" points="298.37 903.581 210.473 815.684 298.37 815.684 298.37 903.581"/><rect class="cls-3" x="308.5" y="3.5" width="96" height="96"/><polygon class="cls-4" points="400.37 95.581 312.473 7.684 400.37 7.684 400.37 95.581"/><rect class="cls-3" x="308.5" y="104.5" width="96" height="96"/><polygon class="cls-4" points="400.37 196.581 312.473 108.684 400.37 108.684 400.37 196.581"/><rect class="cls-3" x="308.5" y="205.5" width="96" height="96"/><polygon class="cls-4" points="400.37 297.581 312.473 209.684 400.37 209.684 400.37 297.581"/><rect class="cls-3" x="308.5" y="306.5" width="96" height="96"/><polygon class="cls-4" points="400.37 398.581 312.473 310.684 400.37 310.684 400.37 398.581"/><rect class="cls-3" x="308.5" y="407.5" width="96" height="96"/><polygon class="cls-4" points="400.37 499.581 312.473 411.684 400.37 411.684 400.37 499.581"/><rect class="cls-3" x="308.5" y="508.5" width="96" height="96"/><polygon class="cls-4" points="400.37 600.581 312.473 512.684 400.37 512.684 400.37 600.581"/><rect class="cls-3" x="308.5" y="609.5" width="96" height="96"/><polygon class="cls-4" points="400.37 701.581 312.473 613.684 400.37 613.684 400.37 701.581"/><rect class="cls-3" x="308.5" y="710.5" width="96" height="96"/><polygon class="cls-4" points="400.37 802.581 312.473 714.684 400.37 714.684 400.37 802.581"/><rect class="cls-3" x="308.5" y="811.5" width="96" height="96"/><polygon class="cls-4" points="400.37 903.581 312.473 815.684 400.37 815.684 400.37 903.581"/><rect class="cls-3" x="411.5" y="3.5" width="96" height="96"/><polygon class="cls-4" points="503.37 95.581 415.473 7.684 503.37 7.684 503.37 95.581"/><rect class="cls-3" x="411.5" y="104.5" width="96" height="96"/><polygon class="cls-4" points="503.37 196.581 415.473 108.684 503.37 108.684 503.37 196.581"/><rect class="cls-3" x="411.5" y="205.5" width="96" height="96"/><polygon class="cls-4" points="503.37 297.581 415.473 209.684 503.37 209.684 503.37 297.581"/><rect class="cls-3" x="411.5" y="306.5" width="96" height="96"/><polygon class="cls-4" points="503.37 398.581 415.473 310.684 503.37 310.684 503.37 398.581"/><rect class="cls-3" x="411.5" y="407.5" width="96" height="96"/><polygon class="cls-4" points="503.37 499.581 415.473 411.684 503.37 411.684 503.37 499.581"/><rect class="cls-3" x="411.5" y="508.5" width="96" height="96"/><polygon class="cls-4" points="503.37 600.581 415.473 512.684 503.37 512.684 503.37 600.581"/><rect class="cls-3" x="411.5" y="609.5" width="96" height="96"/><polygon class="cls-4" points="503.37 701.581 415.473 613.684 503.37 613.684 503.37 701.581"/><rect class="cls-3" x="411.5" y="710.5" width="96" height="96"/><polygon class="cls-4" points="503.37 802.581 415.473 714.684 503.37 714.684 503.37 802.581"/><rect class="cls-3" x="411.5" y="811.5" width="96" height="96"/><polygon class="cls-4" points="503.37 903.581 415.473 815.684 503.37 815.684 503.37 903.581"/><rect class="cls-3" x="513.5" y="3.5" width="96" height="96"/><polygon class="cls-4" points="605.37 95.581 517.473 7.684 605.37 7.684 605.37 95.581"/><rect class="cls-3" x="513.5" y="104.5" width="96" height="96"/><polygon class="cls-4" points="605.37 196.581 517.473 108.684 605.37 108.684 605.37 196.581"/><rect class="cls-3" x="513.5" y="205.5" width="96" height="96"/><polygon class="cls-4" points="605.37 297.581 517.473 209.684 605.37 209.684 605.37 297.581"/><rect class="cls-3" x="513.5" y="306.5" width="96" height="96"/><polygon class="cls-4" points="605.37 398.581 517.473 310.684 605.37 310.684 605.37 398.581"/><rect class="cls-3" x="513.5" y="407.5" width="96" height="96"/><polygon class="cls-4" points="605.37 499.581 517.473 411.684 605.37 411.684 605.37 499.581"/><rect class="cls-3" x="513.5" y="508.5" width="96" height="96"/><polygon class="cls-4" points="605.37 600.581 517.473 512.684 605.37 512.684 605.37 600.581"/><rect class="cls-3" x="513.5" y="609.5" width="96" height="96"/><polygon class="cls-4" points="605.37 701.581 517.473 613.684 605.37 613.684 605.37 701.581"/><rect class="cls-3" x="513.5" y="710.5" width="96" height="96"/><polygon class="cls-4" points="605.37 802.581 517.473 714.684 605.37 714.684 605.37 802.581"/><rect class="cls-3" x="513.5" y="811.5" width="96" height="96"/><polygon class="cls-4" points="605.37 903.581 517.473 815.684 605.37 815.684 605.37 903.581"/><rect class="cls-3" x="615.5" y="3.5" width="96" height="96"/><polygon class="cls-4" points="707.37 95.581 619.473 7.684 707.37 7.684 707.37 95.581"/><rect class="cls-3" x="615.5" y="104.5" width="96" height="96"/><polygon class="cls-4" points="707.37 196.581 619.473 108.684 707.37 108.684 707.37 196.581"/><rect class="cls-3" x="615.5" y="205.5" width="96" height="96"/><polygon class="cls-4" points="707.37 297.581 619.473 209.684 707.37 209.684 707.37 297.581"/><rect class="cls-3" x="615.5" y="306.5" width="96" height="96"/><polygon class="cls-4" points="707.37 398.581 619.473 310.684 707.37 310.684 707.37 398.581"/><rect class="cls-3" x="615.5" y="407.5" width="96" height="96"/><polygon class="cls-4" points="707.37 499.581 619.473 411.684 707.37 411.684 707.37 499.581"/><rect class="cls-3" x="615.5" y="508.5" width="96" height="96"/><polygon class="cls-4" points="707.37 600.581 619.473 512.684 707.37 512.684 707.37 600.581"/><rect class="cls-3" x="615.5" y="609.5" width="96" height="96"/><polygon class="cls-4" points="707.37 701.581 619.473 613.684 707.37 613.684 707.37 701.581"/><rect class="cls-3" x="615.5" y="710.5" width="96" height="96"/><polygon class="cls-4" points="707.37 802.581 619.473 714.684 707.37 714.684 707.37 802.581"/><rect class="cls-3" x="615.5" y="811.5" width="96" height="96"/><polygon class="cls-4" points="707.37 903.581 619.473 815.684 707.37 815.684 707.37 903.581"/><rect class="cls-3" x="717.5" y="3.5" width="96" height="96"/><polygon class="cls-4" points="809.37 95.581 721.473 7.684 809.37 7.684 809.37 95.581"/><rect class="cls-3" x="717.5" y="104.5" width="96" height="96"/><polygon class="cls-4" points="809.37 196.581 721.473 108.684 809.37 108.684 809.37 196.581"/><rect class="cls-3" x="717.5" y="205.5" width="96" height="96"/><polygon class="cls-4" points="809.37 297.581 721.473 209.684 809.37 209.684 809.37 297.581"/><rect class="cls-3" x="717.5" y="306.5" width="96" height="96"/><polygon class="cls-4" points="809.37 398.581 721.473 310.684 809.37 310.684 809.37 398.581"/><rect class="cls-3" x="717.5" y="407.5" width="96" height="96"/><polygon class="cls-4" points="809.37 499.581 721.473 411.684 809.37 411.684 809.37 499.581"/><rect class="cls-3" x="717.5" y="508.5" width="96" height="96"/><polygon class="cls-4" points="809.37 600.581 721.473 512.684 809.37 512.684 809.37 600.581"/><rect class="cls-3" x="717.5" y="609.5" width="96" height="96"/><polygon class="cls-4" points="809.37 701.581 721.473 613.684 809.37 613.684 809.37 701.581"/><rect class="cls-3" x="717.5" y="710.5" width="96" height="96"/><polygon class="cls-4" points="809.37 802.581 721.473 714.684 809.37 714.684 809.37 802.581"/><rect class="cls-3" x="717.5" y="811.5" width="96" height="96"/><polygon class="cls-4" points="809.37 903.581 721.473 815.684 809.37 815.684 809.37 903.581"/><rect class="cls-3" x="819.5" y="3.5" width="96" height="96"/><polygon class="cls-4" points="911.37 95.581 823.473 7.684 911.37 7.684 911.37 95.581"/><rect class="cls-3" x="819.5" y="104.5" width="96" height="96"/><polygon class="cls-4" points="911.37 196.581 823.473 108.684 911.37 108.684 911.37 196.581"/><rect class="cls-3" x="819.5" y="205.5" width="96" height="96"/><polygon class="cls-4" points="911.37 297.581 823.473 209.684 911.37 209.684 911.37 297.581"/><rect class="cls-3" x="819.5" y="306.5" width="96" height="96"/><polygon class="cls-4" points="911.37 398.581 823.473 310.684 911.37 310.684 911.37 398.581"/><rect class="cls-3" x="819.5" y="407.5" width="96" height="96"/><polygon class="cls-4" points="911.37 499.581 823.473 411.684 911.37 411.684 911.37 499.581"/><rect class="cls-3" x="819.5" y="508.5" width="96" height="96"/><polygon class="cls-4" points="911.37 600.581 823.473 512.684 911.37 512.684 911.37 600.581"/><rect class="cls-3" x="819.5" y="609.5" width="96" height="96"/><polygon class="cls-4" points="911.37 701.581 823.473 613.684 911.37 613.684 911.37 701.581"/><rect class="cls-3" x="819.5" y="710.5" width="96" height="96"/><polygon class="cls-4" points="911.37 802.581 823.473 714.684 911.37 714.684 911.37 802.581"/><rect class="cls-3" x="819.5" y="811.5" width="96" height="96"/><polygon class="cls-4" points="911.37 903.581 823.473 815.684 911.37 815.684 911.37 903.581"/><rect class="cls-3" x="922.5" y="3.5" width="96" height="96"/><polygon class="cls-4" points="1014.37 95.581 926.473 7.684 1014.37 7.684 1014.37 95.581"/><rect class="cls-3" x="922.5" y="104.5" width="96" height="96"/><polygon class="cls-4" points="1014.37 196.581 926.473 108.684 1014.37 108.684 1014.37 196.581"/><rect class="cls-3" x="922.5" y="205.5" width="96" height="96"/><polygon class="cls-4" points="1014.37 297.581 926.473 209.684 1014.37 209.684 1014.37 297.581"/><rect class="cls-3" x="922.5" y="306.5" width="96" height="96"/><polygon class="cls-4" points="1014.37 398.581 926.473 310.684 1014.37 310.684 1014.37 398.581"/><rect class="cls-3" x="922.5" y="407.5" width="96" height="96"/><polygon class="cls-4" points="1014.37 499.581 926.473 411.684 1014.37 411.684 1014.37 499.581"/><rect class="cls-3" x="922.5" y="508.5" width="96" height="96"/><polygon class="cls-4" points="1014.37 600.581 926.473 512.684 1014.37 512.684 1014.37 600.581"/><rect class="cls-3" x="922.5" y="609.5" width="96" height="96"/><polygon class="cls-4" points="1014.37 701.581 926.473 613.684 1014.37 613.684 1014.37 701.581"/><rect class="cls-3" x="922.5" y="710.5" width="96" height="96"/><polygon class="cls-4" points="1014.37 802.581 926.473 714.684 1014.37 714.684 1014.37 802.581"/><rect class="cls-3" x="922.5" y="811.5" width="96" height="96"/><polygon class="cls-4" points="1014.37 903.581 926.473 815.684 1014.37 815.684 1014.37 903.581"/><rect class="cls-3" x="1024.5" y="3.5" width="96" height="96"/><polygon class="cls-4" points="1116.37 95.581 1028.473 7.684 1116.37 7.684 1116.37 95.581"/><rect class="cls-3" x="1024.5" y="104.5" width="96" height="96"/><polygon class="cls-4" points="1116.37 196.581 1028.473 108.684 1116.37 108.684 1116.37 196.581"/><rect class="cls-3" x="1024.5" y="205.5" width="96" height="96"/><polygon class="cls-4" points="1116.37 297.581 1028.473 209.684 1116.37 209.684 1116.37 297.581"/><rect class="cls-3" x="1024.5" y="306.5" width="96" height="96"/><polygon class="cls-4" points="1116.37 398.581 1028.473 310.684 1116.37 310.684 1116.37 398.581"/><rect class="cls-3" x="1024.5" y="407.5" width="96" height="96"/><polygon class="cls-4" points="1116.37 499.581 1028.473 411.684 1116.37 411.684 1116.37 499.581"/><rect class="cls-3" x="1024.5" y="508.5" width="96" height="96"/><polygon class="cls-4" points="1116.37 600.581 1028.473 512.684 1116.37 512.684 1116.37 600.581"/><rect class="cls-3" x="1024.5" y="609.5" width="96" height="96"/><polygon class="cls-4" points="1116.37 701.581 1028.473 613.684 1116.37 613.684 1116.37 701.581"/><rect class="cls-3" x="1024.5" y="710.5" width="96" height="96"/><polygon class="cls-4" points="1116.37 802.581 1028.473 714.684 1116.37 714.684 1116.37 802.581"/><rect class="cls-3" x="1024.5" y="811.5" width="96" height="96"/><polygon class="cls-4" points="1116.37 903.581 1028.473 815.684 1116.37 815.684 1116.37 903.581"/><rect class="cls-3" x="1124.5" y="3.5" width="96" height="96"/><polygon class="cls-4" points="1216.37 95.581 1128.473 7.684 1216.37 7.684 1216.37 95.581"/><rect class="cls-3" x="1124.5" y="104.5" width="96" height="96"/><polygon class="cls-4" points="1216.37 196.581 1128.473 108.684 1216.37 108.684 1216.37 196.581"/><rect class="cls-3" x="1124.5" y="205.5" width="96" height="96"/><polygon class="cls-4" points="1216.37 297.581 1128.473 209.684 1216.37 209.684 1216.37 297.581"/><rect class="cls-3" x="1124.5" y="306.5" width="96" height="96"/><polygon class="cls-4" points="1216.37 398.581 1128.473 310.684 1216.37 310.684 1216.37 398.581"/><rect class="cls-3" x="1124.5" y="407.5" width="96" height="96"/><polygon class="cls-4" points="1216.37 499.581 1128.473 411.684 1216.37 411.684 1216.37 499.581"/><rect class="cls-3" x="1124.5" y="508.5" width="96" height="96"/><polygon class="cls-4" points="1216.37 600.581 1128.473 512.684 1216.37 512.684 1216.37 600.581"/><rect class="cls-3" x="1124.5" y="609.5" width="96" height="96"/><polygon class="cls-4" points="1216.37 701.581 1128.473 613.684 1216.37 613.684 1216.37 701.581"/><rect class="cls-3" x="1124.5" y="710.5" width="96" height="96"/><polygon class="cls-4" points="1216.37 802.581 1128.473 714.684 1216.37 714.684 1216.37 802.581"/><rect class="cls-3" x="1124.5" y="811.5" width="96" height="96"/><polygon class="cls-4" points="1216.37 903.581 1128.473 815.684 1216.37 815.684 1216.37 903.581"/><rect class="cls-3" x="1223.5" y="3.5" width="96" height="96"/><polygon class="cls-4" points="1315.37 95.581 1227.473 7.684 1315.37 7.684 1315.37 95.581"/><rect class="cls-3" x="1223.5" y="104.5" width="96" height="96"/><polygon class="cls-4" points="1315.37 196.581 1227.473 108.684 1315.37 108.684 1315.37 196.581"/><rect class="cls-3" x="1223.5" y="205.5" width="96" height="96"/><polygon class="cls-4" points="1315.37 297.581 1227.473 209.684 1315.37 209.684 1315.37 297.581"/><rect class="cls-3" x="1223.5" y="306.5" width="96" height="96"/><polygon class="cls-4" points="1315.37 398.581 1227.473 310.684 1315.37 310.684 1315.37 398.581"/><rect class="cls-3" x="1223.5" y="407.5" width="96" height="96"/><polygon class="cls-4" points="1315.37 499.581 1227.473 411.684 1315.37 411.684 1315.37 499.581"/><rect class="cls-3" x="1223.5" y="508.5" width="96" height="96"/><polygon class="cls-4" points="1315.37 600.581 1227.473 512.684 1315.37 512.684 1315.37 600.581"/><rect class="cls-3" x="1223.5" y="609.5" width="96" height="96"/><polygon class="cls-4" points="1315.37 701.581 1227.473 613.684 1315.37 613.684 1315.37 701.581"/><rect class="cls-3" x="1223.5" y="710.5" width="96" height="96"/><polygon class="cls-4" points="1315.37 802.581 1227.473 714.684 1315.37 714.684 1315.37 802.581"/><rect class="cls-3" x="1223.5" y="811.5" width="96" height="96"/><polygon class="cls-4" points="1315.37 903.581 1227.473 815.684 1315.37 815.684 1315.37 903.581"/><rect class="cls-3" x="1324.5" y="3.5" width="96" height="96"/><polygon class="cls-4" points="1416.37 95.581 1328.473 7.684 1416.37 7.684 1416.37 95.581"/><rect class="cls-3" x="1324.5" y="104.5" width="96" height="96"/><polygon class="cls-4" points="1416.37 196.581 1328.473 108.684 1416.37 108.684 1416.37 196.581"/><rect class="cls-3" x="1324.5" y="205.5" width="96" height="96"/><polygon class="cls-4" points="1416.37 297.581 1328.473 209.684 1416.37 209.684 1416.37 297.581"/><rect class="cls-3" x="1324.5" y="306.5" width="96" height="96"/><polygon class="cls-4" points="1416.37 398.581 1328.473 310.684 1416.37 310.684 1416.37 398.581"/><rect class="cls-3" x="1324.5" y="407.5" width="96" height="96"/><polygon class="cls-4" points="1416.37 499.581 1328.473 411.684 1416.37 411.684 1416.37 499.581"/><rect class="cls-3" x="1324.5" y="508.5" width="96" height="96"/><polygon class="cls-4" points="1416.37 600.581 1328.473 512.684 1416.37 512.684 1416.37 600.581"/><rect class="cls-3" x="1324.5" y="609.5" width="96" height="96"/><polygon class="cls-4" points="1416.37 701.581 1328.473 613.684 1416.37 613.684 1416.37 701.581"/><rect class="cls-3" x="1324.5" y="710.5" width="96" height="96"/><polygon class="cls-4" points="1416.37 802.581 1328.473 714.684 1416.37 714.684 1416.37 802.581"/><rect class="cls-3" x="1324.5" y="811.5" width="96" height="96"/><polygon class="cls-4" points="1416.37 903.581 1328.473 815.684 1416.37 815.684 1416.37 903.581"/><rect class="cls-3" x="1426.5" y="3.5" width="96" height="96"/><polygon class="cls-4" points="1518.37 95.581 1430.473 7.684 1518.37 7.684 1518.37 95.581"/><rect class="cls-3" x="1426.5" y="104.5" width="96" height="96"/><polygon class="cls-4" points="1518.37 196.581 1430.473 108.684 1518.37 108.684 1518.37 196.581"/><rect class="cls-3" x="1426.5" y="205.5" width="96" height="96"/><polygon class="cls-4" points="1518.37 297.581 1430.473 209.684 1518.37 209.684 1518.37 297.581"/><rect class="cls-3" x="1426.5" y="306.5" width="96" height="96"/><polygon class="cls-4" points="1518.37 398.581 1430.473 310.684 1518.37 310.684 1518.37 398.581"/><rect class="cls-3" x="1426.5" y="407.5" width="96" height="96"/><polygon class="cls-4" points="1518.37 499.581 1430.473 411.684 1518.37 411.684 1518.37 499.581"/><rect class="cls-3" x="1426.5" y="508.5" width="96" height="96"/><polygon class="cls-4" points="1518.37 600.581 1430.473 512.684 1518.37 512.684 1518.37 600.581"/><rect class="cls-3" x="1426.5" y="609.5" width="96" height="96"/><polygon class="cls-4" points="1518.37 701.581 1430.473 613.684 1518.37 613.684 1518.37 701.581"/><rect class="cls-3" x="1426.5" y="710.5" width="96" height="96"/><polygon class="cls-4" points="1518.37 802.581 1430.473 714.684 1518.37 714.684 1518.37 802.581"/><rect class="cls-3" x="1426.5" y="811.5" width="96" height="96"/><polygon class="cls-4" points="1518.37 903.581 1430.473 815.684 1518.37 815.684 1518.37 903.581"/><rect class="cls-3" x="1530.5" y="3.5" width="96" height="96"/><polygon class="cls-4" points="1622.37 95.581 1534.473 7.684 1622.37 7.684 1622.37 95.581"/><rect class="cls-3" x="1530.5" y="104.5" width="96" height="96"/><polygon class="cls-4" points="1622.37 196.581 1534.473 108.684 1622.37 108.684 1622.37 196.581"/><rect class="cls-3" x="1530.5" y="205.5" width="96" height="96"/><polygon class="cls-4" points="1622.37 297.581 1534.473 209.684 1622.37 209.684 1622.37 297.581"/><rect class="cls-3" x="1530.5" y="306.5" width="96" height="96"/><polygon class="cls-4" points="1622.37 398.581 1534.473 310.684 1622.37 310.684 1622.37 398.581"/><rect class="cls-3" x="1530.5" y="407.5" width="96" height="96"/><polygon class="cls-4" points="1622.37 499.581 1534.473 411.684 1622.37 411.684 1622.37 499.581"/><rect class="cls-3" x="1530.5" y="508.5" width="96" height="96"/><polygon class="cls-4" points="1622.37 600.581 1534.473 512.684 1622.37 512.684 1622.37 600.581"/><rect class="cls-3" x="1530.5" y="609.5" width="96" height="96"/><polygon class="cls-4" points="1622.37 701.581 1534.473 613.684 1622.37 613.684 1622.37 701.581"/><rect class="cls-3" x="1530.5" y="710.5" width="96" height="96"/><polygon class="cls-4" points="1622.37 802.581 1534.473 714.684 1622.37 714.684 1622.37 802.581"/><rect class="cls-3" x="1530.5" y="811.5" width="96" height="96"/><polygon class="cls-4" points="1622.37 903.581 1534.473 815.684 1622.37 815.684 1622.37 903.581"/><rect class="cls-3" x="1634.5" y="3.5" width="96" height="96"/><polygon class="cls-4" points="1726.37 95.581 1638.473 7.684 1726.37 7.684 1726.37 95.581"/><rect class="cls-3" x="1634.5" y="104.5" width="96" height="96"/><polygon class="cls-4" points="1726.37 196.581 1638.473 108.684 1726.37 108.684 1726.37 196.581"/><rect class="cls-3" x="1634.5" y="205.5" width="96" height="96"/><polygon class="cls-4" points="1726.37 297.581 1638.473 209.684 1726.37 209.684 1726.37 297.581"/><rect class="cls-3" x="1634.5" y="306.5" width="96" height="96"/><polygon class="cls-4" points="1726.37 398.581 1638.473 310.684 1726.37 310.684 1726.37 398.581"/><rect class="cls-3" x="1634.5" y="407.5" width="96" height="96"/><polygon class="cls-4" points="1726.37 499.581 1638.473 411.684 1726.37 411.684 1726.37 499.581"/><rect class="cls-3" x="1634.5" y="508.5" width="96" height="96"/><polygon class="cls-4" points="1726.37 600.581 1638.473 512.684 1726.37 512.684 1726.37 600.581"/><rect class="cls-3" x="1634.5" y="609.5" width="96" height="96"/><polygon class="cls-4" points="1726.37 701.581 1638.473 613.684 1726.37 613.684 1726.37 701.581"/><rect class="cls-3" x="1634.5" y="710.5" width="96" height="96"/><polygon class="cls-4" points="1726.37 802.581 1638.473 714.684 1726.37 714.684 1726.37 802.581"/><rect class="cls-3" x="1634.5" y="811.5" width="96" height="96"/><polygon class="cls-4" points="1726.37 903.581 1638.473 815.684 1726.37 815.684 1726.37 903.581"/><rect class="cls-3" x="1736.5" y="3.5" width="96" height="96"/><polygon class="cls-4" points="1828.37 95.581 1740.473 7.684 1828.37 7.684 1828.37 95.581"/><rect class="cls-3" x="1736.5" y="104.5" width="96" height="96"/><polygon class="cls-4" points="1828.37 196.581 1740.473 108.684 1828.37 108.684 1828.37 196.581"/><rect class="cls-3" x="1736.5" y="205.5" width="96" height="96"/><polygon class="cls-4" points="1828.37 297.581 1740.473 209.684 1828.37 209.684 1828.37 297.581"/><rect class="cls-3" x="1736.5" y="306.5" width="96" height="96"/><polygon class="cls-4" points="1828.37 398.581 1740.473 310.684 1828.37 310.684 1828.37 398.581"/><rect class="cls-3" x="1736.5" y="407.5" width="96" height="96"/><polygon class="cls-4" points="1828.37 499.581 1740.473 411.684 1828.37 411.684 1828.37 499.581"/><rect class="cls-3" x="1736.5" y="508.5" width="96" height="96"/><polygon class="cls-4" points="1828.37 600.581 1740.473 512.684 1828.37 512.684 1828.37 600.581"/><rect class="cls-3" x="1736.5" y="609.5" width="96" height="96"/><polygon class="cls-4" points="1828.37 701.581 1740.473 613.684 1828.37 613.684 1828.37 701.581"/><rect class="cls-3" x="1736.5" y="710.5" width="96" height="96"/><polygon class="cls-4" points="1828.37 802.581 1740.473 714.684 1828.37 714.684 1828.37 802.581"/><rect class="cls-3" x="1736.5" y="811.5" width="96" height="96"/><polygon class="cls-4" points="1828.37 903.581 1740.473 815.684 1828.37 815.684 1828.37 903.581"/><path class="cls-3" d="M1839.5,3.5v96h81V3.5Z"/><polygon class="cls-4" points="1920.5 7.68 1920.5 84.71 1843.47 7.68 1920.5 7.68"/><path class="cls-3" d="M1839.5,104.5v96h81v-96Z"/><polygon class="cls-4" points="1920.5 108.68 1920.5 185.71 1843.47 108.68 1920.5 108.68"/><path class="cls-3" d="M1839.5,205.5v96h81v-96Z"/><polygon class="cls-4" points="1920.5 209.68 1920.5 286.71 1843.47 209.68 1920.5 209.68"/><path class="cls-3" d="M1839.5,306.5v96h81v-96Z"/><polygon class="cls-4" points="1920.5 310.68 1920.5 387.71 1843.47 310.68 1920.5 310.68"/><path class="cls-3" d="M1839.5,407.5v96h81v-96Z"/><polygon class="cls-4" points="1920.5 411.68 1920.5 488.71 1843.47 411.68 1920.5 411.68"/><path class="cls-3" d="M1839.5,508.5v96h81v-96Z"/><polygon class="cls-4" points="1920.5 512.68 1920.5 589.71 1843.47 512.68 1920.5 512.68"/><path class="cls-3" d="M1839.5,609.5v96h81v-96Z"/><polygon class="cls-4" points="1920.5 613.68 1920.5 690.71 1843.47 613.68 1920.5 613.68"/><path class="cls-3" d="M1839.5,710.5v96h81v-96Z"/><polygon class="cls-4" points="1920.5 714.68 1920.5 791.71 1843.47 714.68 1920.5 714.68"/><path class="cls-3" d="M1839.5,811.5v96h81v-96Z"/><polygon class="cls-4" points="1920.5 815.68 1920.5 892.71 1843.47 815.68 1920.5 815.68"/><rect class="cls-5" x="216.5" y="276.5" width="243" height="295"/><polygon class="cls-6" points="459.5 571.5 216.5 276.5 459.5 276.5 459.5 571.5"/><rect class="cls-5" x="653.5" y="276.5" width="243" height="295"/><polygon class="cls-6" points="896.5 571.5 653.5 276.5 896.5 276.5 896.5 571.5"/><ellipse class="cls-7" cx="771.9945" cy="942.9308" rx="120.9339" ry="28.2037"/><ellipse class="cls-3" cx="769.0032" cy="687.3886" rx="117.9426" ry="19.6571"/><path class="cls-3" d="M816.8639,929.2563c-2.3127,2.6184-17.8856,19.6571-43.5874,19.6571s-41.2748-17.0387-43.5875-19.6571a179.9238,179.9238,0,0,0,7.6919-17.0931c22.022-56.6659,10.6406-112.7668-.8547-147.8556l76.9191-1.7093c-11.7286,30.2833-28.0956,87.6612-5.9826,146.1463A165.8469,165.8469,0,0,0,816.8639,929.2563Z"/><path class="cls-8" d="M816.8639,929.2563a62.5867,62.5867,0,0,1-43.5874,19.6571l.9514-185.4435,39.2174-.8716c-11.7286,30.2833-28.0947,87.6609-5.9826,146.1463A165.8469,165.8469,0,0,0,816.8639,929.2563Z"/><path class="cls-9" d="M806.608,782.2554a111.7436,111.7436,0,0,1-64.0992.8547q-2.9914-10.256-5.9826-20.5118h76.0644Z"/><path class="cls-10" d="M770.7125,766.017c-126.4892,0-119.6519-52.7038-119.6519-77.7738,31.6223,10.2559,73.3974,13.2024,122.2159,13.6745,44.7563.4329,83.341-6.5313,113.6692-12.82C886.9457,712.7433,881.8178,766.017,770.7125,766.017Z"/><path class="cls-3" d="M770.0471,747.2145c-64.7158.4273-73.9422-31.5134-73.9422-47.0061,19.677,4.8287,43.1569,4.4089,73.3256,4.7006,27.6584.2675,53.704-.2863,72.4461-4.1724C841.8766,715.3489,826.6928,746.8405,770.0471,747.2145Z"/><path class="cls-11" d="M840.7943,651.493V640.3781a3.1283,3.1283,0,0,0-3.3748-3.1213c-18.7753,1.4566-43.8667.71-56.9945.1455l-1.166-3.3112V615.5974h29.87a5.17,5.17,0,0,0,5.17-5.17v-6.7525a5.17,5.17,0,0,0-5.17-5.17H738.2781a5.17,5.17,0,0,0-5.17,5.17v6.7525a5.17,5.17,0,0,0,5.17,5.17h29.0158V634.4c-1.0775,4.8568-.8643,12.7612,3.54,13.2529q14.72.3093,29.792.4216,16.0067.1166,31.6222,0v3.4186h-4.2732V660.04h17.9477V651.493Z"/><path class="cls-1" d="M750.6281,621.3881c-4.06.6766-14.8853,0-14.8853,0,.6766-4.7362,2.03-6.766,2.03-12.1788L726.27,605.15c4.06-8.7959,6.7561-11.5022,6.7561-11.5022l8.8057,8.1191s7.3505-4.0813,10.8257-8.1192c3.383,5.4128,6.0894,10.8257,6.0894,10.8257l-12.1789,4.7362A116.903,116.903,0,0,0,750.6281,621.3881Z"/><path class="cls-2" d="M749.9515,620.2448c-3.7214.62-13.6449,0-13.6449,0,.62-4.3415,1.8607-6.2022,1.8607-11.164q-5.2717-1.8606-10.5437-3.7213c3.7213-8.0628,6.1931-10.5436,6.1931-10.5436l8.0719,7.4425s6.7379-3.7412,9.9235-7.4426c3.1011,4.9618,5.582,9.9235,5.582,9.9235l-11.164,4.3415A107.17,107.17,0,0,0,749.9515,620.2448Z"/><circle class="cls-12" cx="742.5088" cy="607.0509" r="4.2733"/><circle class="cls-13" cx="742.5088" cy="607.0509" r="3.4186"/><path class="cls-1" d="M818.5946,615.828c-3.24,2.5372-13.0693,7.1249-13.0693,7.1249-1.673-4.4823-1.4564-6.9122-4.0473-11.6646L789.4358,613.23c-.6458-9.6659.4264-13.3328.4264-13.3328l11.6177,2.9138s4.5-7.1018,5.6186-12.3105c5.5612,3.1332,10.5283,6.59,10.5283,6.59l-8.426,9.9879A116.9086,116.9086,0,0,0,818.5946,615.828Z"/><path class="cls-2" d="M817.4533,615.148c-2.9705,2.3258-11.98,6.5312-11.98,6.5312-1.5336-4.1088-1.3351-6.3362-3.71-10.6926l-11.0387,1.78c-.592-8.8605.3908-12.2217.3908-12.2217l10.65,2.6709s4.1252-6.51,5.15-11.2846c5.0978,2.8721,9.651,6.041,9.651,6.041l-7.7239,9.1556A107.1576,107.1576,0,0,0,817.4533,615.148Z"/><circle class="cls-14" cx="804.0441" cy="607.0509" r="4.2733"/><circle class="cls-15" cx="804.0441" cy="607.0509" r="3.4186"/><rect class="cls-5" x="1060.5" y="276.5" width="243" height="295"/><polygon class="cls-6" points="1303.5 571.5 1060.5 276.5 1303.5 276.5 1303.5 571.5"/><ellipse class="cls-7" cx="1178.9945" cy="942.9308" rx="120.9339" ry="28.2037"/><ellipse class="cls-3" cx="1176.0032" cy="687.3886" rx="117.9426" ry="19.6571"/><path class="cls-3" d="M1223.8639,929.2563c-2.3127,2.6184-17.8856,19.6571-43.5874,19.6571s-41.2748-17.0387-43.5875-19.6571a179.9238,179.9238,0,0,0,7.6919-17.0931c22.022-56.6659,10.6406-112.7668-.8547-147.8556l76.9191-1.7093c-11.7286,30.2833-28.0956,87.6612-5.9826,146.1463A165.8469,165.8469,0,0,0,1223.8639,929.2563Z"/><path class="cls-8" d="M1223.8639,929.2563a62.5867,62.5867,0,0,1-43.5874,19.6571l.9514-185.4435,39.2174-.8716c-11.7286,30.2833-28.0947,87.6609-5.9826,146.1463A165.8469,165.8469,0,0,0,1223.8639,929.2563Z"/><path class="cls-9" d="M1213.608,782.2554a111.7436,111.7436,0,0,1-64.0992.8547q-2.9914-10.256-5.9826-20.5118h76.0644Z"/><path class="cls-10" d="M1177.7125,766.017c-126.4892,0-119.6519-52.7038-119.6519-77.7738,31.6223,10.2559,73.3974,13.2024,122.2159,13.6745,44.7563.4329,83.341-6.5313,113.6692-12.82C1293.9457,712.7433,1288.8178,766.017,1177.7125,766.017Z"/><path class="cls-3" d="M1177.0471,747.2145c-64.7158.4273-73.9422-31.5134-73.9422-47.0061,19.677,4.8287,43.1569,4.4089,73.3256,4.7006,27.6584.2675,53.704-.2863,72.4461-4.1724C1248.8766,715.3489,1233.6928,746.8405,1177.0471,747.2145Z"/><path class="cls-11" d="M1247.7943,651.493V640.3781a3.1283,3.1283,0,0,0-3.3748-3.1213c-18.7753,1.4566-43.8667.71-56.9945.1455l-1.166-3.3112V615.5974h29.87a5.17,5.17,0,0,0,5.17-5.17v-6.7525a5.17,5.17,0,0,0-5.17-5.17h-70.8514a5.17,5.17,0,0,0-5.17,5.17v6.7525a5.17,5.17,0,0,0,5.17,5.17h29.0158V634.4c-1.0775,4.8568-.8643,12.7612,3.54,13.2529q14.72.3093,29.792.4216,16.0066.1166,31.6222,0v3.4186h-4.2732V660.04h17.9477V651.493Z"/><path class="cls-1" d="M1157.6281,621.3881c-4.06.6766-14.8853,0-14.8853,0,.6766-4.7362,2.03-6.766,2.03-12.1788l-11.5022-4.06c4.06-8.7959,6.7561-11.5022,6.7561-11.5022l8.8057,8.1191s7.3505-4.0813,10.8257-8.1192c3.383,5.4128,6.0894,10.8257,6.0894,10.8257l-12.1789,4.7362A116.903,116.903,0,0,0,1157.6281,621.3881Z"/><path class="cls-2" d="M1156.9515,620.2448c-3.7214.62-13.6449,0-13.6449,0,.62-4.3415,1.8607-6.2022,1.8607-11.164q-5.2717-1.8606-10.5437-3.7213c3.7213-8.0628,6.1931-10.5436,6.1931-10.5436l8.0719,7.4425s6.7379-3.7412,9.9235-7.4426c3.1011,4.9618,5.582,9.9235,5.582,9.9235l-11.164,4.3415A107.17,107.17,0,0,0,1156.9515,620.2448Z"/><circle class="cls-12" cx="1149.5088" cy="607.0509" r="4.2733"/><circle class="cls-13" cx="1149.5088" cy="607.0509" r="3.4186"/><path class="cls-1" d="M1225.5946,615.828c-3.24,2.5372-13.0693,7.1249-13.0693,7.1249-1.673-4.4823-1.4564-6.9122-4.0473-11.6646l-12.0422,1.9412c-.6458-9.6659.4264-13.3328.4264-13.3328l11.6177,2.9138s4.5-7.1018,5.6186-12.3105c5.5612,3.1332,10.5283,6.59,10.5283,6.59l-8.426,9.9879A116.9086,116.9086,0,0,0,1225.5946,615.828Z"/><path class="cls-2" d="M1224.4533,615.148c-2.97,2.3258-11.98,6.5312-11.98,6.5312-1.5336-4.1088-1.3351-6.3362-3.71-10.6926l-11.0387,1.78c-.592-8.8605.3908-12.2217.3908-12.2217l10.65,2.6709s4.1252-6.51,5.15-11.2846c5.0978,2.8721,9.651,6.041,9.651,6.041l-7.7239,9.1556A107.1576,107.1576,0,0,0,1224.4533,615.148Z"/><circle class="cls-14" cx="1211.0441" cy="607.0509" r="4.2733"/><circle class="cls-15" cx="1211.0441" cy="607.0509" r="3.4186"/><ellipse class="cls-7" cx="336.9945" cy="941.9308" rx="120.9339" ry="28.2037"/><ellipse class="cls-3" cx="334.0032" cy="686.3886" rx="117.9426" ry="19.6571"/><path class="cls-3" d="M381.8639,928.2563c-2.3127,2.6184-17.8856,19.6571-43.5874,19.6571s-41.2748-17.0387-43.5875-19.6571a179.9238,179.9238,0,0,0,7.6919-17.0931c22.022-56.6659,10.6406-112.7668-.8547-147.8556l76.9191-1.7093c-11.7286,30.2833-28.0956,87.6612-5.9826,146.1463A165.8469,165.8469,0,0,0,381.8639,928.2563Z"/><path class="cls-8" d="M381.8639,928.2563a62.5867,62.5867,0,0,1-43.5874,19.6571l.9514-185.4435,39.2174-.8716c-11.7286,30.2833-28.0947,87.6609-5.9826,146.1463A165.8469,165.8469,0,0,0,381.8639,928.2563Z"/><path class="cls-9" d="M371.608,781.2554a111.7436,111.7436,0,0,1-64.0992.8547q-2.9915-10.256-5.9826-20.5118h76.0644Z"/><path class="cls-10" d="M335.7125,765.017c-126.4892,0-119.6519-52.7038-119.6519-77.7738,31.6223,10.2559,73.3974,13.2024,122.2159,13.6745,44.7563.4329,83.341-6.5313,113.6692-12.82C451.9457,711.7433,446.8178,765.017,335.7125,765.017Z"/><path class="cls-3" d="M335.0471,746.2145c-64.7158.4273-73.9422-31.5134-73.9422-47.0061,19.677,4.8287,43.1569,4.4089,73.3256,4.7006,27.6584.2675,53.704-.2863,72.4461-4.1724C406.8766,714.3489,391.6928,745.8405,335.0471,746.2145Z"/><path class="cls-11" d="M405.7943,650.493V639.3781a3.1283,3.1283,0,0,0-3.3748-3.1213c-18.7753,1.4566-43.8667.71-56.9945.1455l-1.166-3.3112V614.5974h29.87a5.17,5.17,0,0,0,5.1705-5.17v-6.7525a5.17,5.17,0,0,0-5.1705-5.17H303.2781a5.17,5.17,0,0,0-5.1705,5.17v6.7525a5.17,5.17,0,0,0,5.1705,5.17h29.0158V633.4c-1.0775,4.8568-.8643,12.7612,3.54,13.2529q14.72.3093,29.792.4216,16.0067.1166,31.6222,0v3.4186h-4.2732V659.04h17.9477V650.493Z"/><path class="cls-1" d="M315.6281,620.3881c-4.06.6766-14.8853,0-14.8853,0,.6766-4.7362,2.03-6.766,2.03-12.1788L291.27,604.15c4.06-8.7959,6.7561-11.5022,6.7561-11.5022l8.8057,8.1191s7.3505-4.0813,10.8257-8.1192c3.383,5.4128,6.0894,10.8257,6.0894,10.8257l-12.1789,4.7362A116.903,116.903,0,0,0,315.6281,620.3881Z"/><path class="cls-2" d="M314.9515,619.2448c-3.7214.62-13.6449,0-13.6449,0,.62-4.3415,1.8607-6.2022,1.8607-11.164q-5.2717-1.8606-10.5437-3.7213c3.7213-8.0628,6.1931-10.5436,6.1931-10.5436l8.0719,7.4425s6.7379-3.7412,9.9235-7.4426c3.1011,4.9618,5.582,9.9235,5.582,9.9235l-11.164,4.3415A107.17,107.17,0,0,0,314.9515,619.2448Z"/><circle class="cls-12" cx="307.5088" cy="606.0509" r="4.2733"/><circle class="cls-13" cx="307.5088" cy="606.0509" r="3.4186"/><path class="cls-1" d="M383.5946,614.828c-3.24,2.5372-13.0693,7.1249-13.0693,7.1249-1.673-4.4823-1.4564-6.9122-4.0473-11.6646L354.4358,612.23c-.6458-9.6659.4264-13.3328.4264-13.3328l11.6177,2.9138s4.5-7.1018,5.6186-12.3105c5.5612,3.1332,10.5283,6.59,10.5283,6.59l-8.426,9.9879A116.9086,116.9086,0,0,0,383.5946,614.828Z"/><path class="cls-2" d="M382.4533,614.148c-2.9705,2.3258-11.98,6.5312-11.98,6.5312-1.5336-4.1088-1.3351-6.3362-3.71-10.6926l-11.0387,1.78c-.592-8.8605.3908-12.2217.3908-12.2217l10.65,2.6709s4.1252-6.51,5.15-11.2846c5.0978,2.8721,9.651,6.041,9.651,6.041l-7.7239,9.1556A107.1576,107.1576,0,0,0,382.4533,614.148Z"/><circle class="cls-14" cx="369.0441" cy="606.0509" r="4.2733"/><circle class="cls-15" cx="369.0441" cy="606.0509" r="3.4186"/><path class="cls-12" d="M1416.5273,178.4028c1.8165-1.7534,2.9053.6934,3.2227,1.711.2061,11.2949-.7656,22.3979.0723,34.3569l3.2968-8.0547c3.087-7.21,5.2559-13.6123,7.6358-21.0552a2.298,2.298,0,0,1,2.7226-.7373,1.8335,1.8335,0,0,1,1.3985,1.3081c-5.2412,12.377-10.1641,25.7725-15.0283,39.1871l-.31.7465a2.4347,2.4347,0,0,1-1.7822.6548,2.8474,2.8474,0,0,1-1.2813-1.6611c-.0342-12.2168-.6172-24.353-.5127-36.59l-11.4443,33.4458c-2.3614,2.6186-3.9.35-3.3789-1.4366Z"/><path class="cls-12" d="M1453.5254,204.6553,1448.9766,218.5l13.3144,4.374-1.1611,3.5352-13.3145-4.374-4.5869,13.9624-3.77-1.2383,4.5869-13.9629-13.3144-4.374,1.1611-3.5347,13.3145,4.374,4.5488-13.8447Z"/><path class="cls-12" d="M1465.6406,236.3105c1.0225.4668,1.36,1.8184,2.5391,2.2051,1.59.5225,3.58-1.957,4.2031-3.0576,5.12-8.6309,8.1758-18.332,11.8779-28.4077a75.8276,75.8276,0,0,1,2.9659-7.8374c.4472-.7666.7187-1.5913,1.6621-1.2817.9619.4467,2.1816,1.3042,1.7363,2.6591-5.0879,11.3179-8.8184,24.0606-13.23,32.9243-2.0029,4.107-4.8408,9.7666-10.0244,8.0635a4.3209,4.3209,0,0,1-.8056-.33c-1.5333-.7-3.6573-2.1806-3.0186-4.1245l.1162-.3535C1464.07,235.9258,1464.9521,236.02,1465.6406,236.3105Z"/><path d="M1575.52,346.4111c-.3984-2.209.7871-3.809,4.2989-4.666,1.0839-.1953,4.332-1.2734,4.74.4863.1094.6065-.5527.9043-1.0215,1.0342-1.3066.1909-5.7324.4522-5.31,2.791l.0625.3467c.6817,2.7837,1.5235,6.209,2.2715,8.6226a15.247,15.247,0,0,0,2.4336-.3941c.6846-.1689,3.0166-1.6181,3.2979-.0586.3672,2.0352-4.2383,2.2852-5.1641,2.8545.5059,4.7832,2.4824,9.3,3.4785,14.5762l.0313.1729c.3359,1.8628-1.7256,1.832-2.2207.58-1.2852-4.1508-5.1436-17.8535-6.8828-26.2592Z"/><path d="M1600.3125,370.8242a10.1655,10.1655,0,0,1-1.0557.1016c-5.4423.3115-8.208-12.7837-11.3759-27.8633l-.4688-2.1064-.0391-.2164c-.1718-.9526,2.1309-1.3232,2.5909-.5117.9619,1.1226,4.1425,29.66,10.0761,28.5894,1.5157-.2735,1.5469-2.8281,1.3789-4.0059-.8388-5.3926-3.1054-17.46-4.8291-25.7793.09-.7314.334-.8652,1.1133-1.0058.6934-.125,1.3242-.1045,1.5.624,1.5928,7.5825,2.6358,15.3535,4.29,23.2832C1604.0859,365.7168,1604.8164,370.0117,1600.3125,370.8242Z"/><path d="M1613.9043,337.1152c.2734,1.5157-2.293,1.666-2.8994,1.7754l-.26.0469c-4.2.7578-4.4931,9.7988-3.61,14.6924,1,5.5434,2.0586,9.4219,6.4394,11.8955,2.1436,1.2236,4.7129-.895,5.5733.1572,1.14,1.3594-.3692,2.168-1.7549,2.418-9.87,1.5576-13.7373-11.2046-13.2686-20.0088.2266-4.6914,1.8252-11.1958,7.4551-12.2119C1612.4883,335.7158,1613.7246,336.1191,1613.9043,337.1152Z"/><path d="M1616.6191,335.3286a1.2141,1.2141,0,0,1,.9864-1.4746c.8652-.1562,1.35.293,1.5957,1.4111l3.0429,14.3868c1.6612-5.6661,2.9981-10.647,3.3819-14.4722.126-1.2749-.1426-3.0151,1.417-3.2969.6054-.1089,1.8222-.06,1.5586,1.9541L1624.5088,351.3l10.8105,13.5659a1.2983,1.2983,0,0,1-.7314,2.1445c-.5625.1016-.7793.1407-1.2275-.36-3.2149-3.9356-6.584-9.2305-10.3418-13.2031l.0625.3462c.3593,1.9921,2.2031,8.9926,3.1884,14.45-.2646,1.2553-1.998,2.06-2.3965.3432Z"/><path d="M1662.3574,333.8291l-2.5986,12.3633c.07.8818-1.95,1.3349-2.3672,1.0083a2.8,2.8,0,0,1-.3965-.4649c-1.7822-3.435-3.4267-6.85-5.4961-10.143.7324,8.2749,3.1416,16.4258,3.5625,24.7114a2.1555,2.1555,0,0,1-1.2881.5454c-.9091.1641-.9043-.06-1.0527-.8833-.25-1.3857-.0244-2.3652-5.04-29.6763-.2354-1.2993,1.5771-2.6547,2.3545-1.32l7.8935,13.5112c.9981-1.6552,2.57-14.5039,3.2334-16.2783.2774-.9448,1.252-.9863,2.4688-.4458.0429-.0078,2.8379,14.2442,3.9824,20.3428.7392,3.8467,1.6826,7.835,2.3857,11.7329a1.4031,1.4031,0,0,1-1.0771,1.7144c-.6934.125-.8965-.0166-1.2813-.6626C1666.1914,351.1128,1664.3613,342.4551,1662.3574,333.8291Z"/><path d="M1676.2461,350.104l-.2139.3066.1465,5.0269c.03.665.4111,2.5195-.8467,2.7461-.5605.1016-1.1552-.9541-1.2334-1.3877-1.1591-32.21-1.1318-32.3042-1.1318-32.3042.0664-.8623.15-2.1289,1.2344-2.3242a1.6444,1.6444,0,0,1,1.459.4072l.5107.8467c4.3018,9.4643,7.3076,19.43,10.3193,29.44l.77,2.7671c.0068.044-.0362.0518-.0284.0947-.1552.8775-.2656,1.2549-1.0888,1.4034l-.13.0234c-.26.0474-.6924.125-.79-.17l-2.5674-8.0327Zm.165-2.8022,5.4366-.8467-6.5508-19.7012Z"/><path d="M1685.3779,324.8906c-2.6533.6573-3.874.833-4.0937.1123-.1787-1.4873-.2735-2.0078,4.2783-2.56l3.6367-.6563c.961-.1284,2.5879-.2881,2.8145.9678a.9834.9834,0,0,1-.7188.98l-3.6367.6562,5.7832,27.3511c.07.39-.7568.7627-1.0156.81-.2608.0469-1.166-.0137-1.2363-.4033Z"/><path d="M1694.2422,323.9619a1.6221,1.6221,0,0,1,1.2422-1.79l6.8418-1.2349a2.4246,2.4246,0,0,1,1.3261.6563.3875.3875,0,0,1,.0831.2089c.1562.8653-.9434,1.4663-1.6368,1.5913l-5.1963.9375,2.8106,14.3394,4.5517-1.5371.2168-.0386c2.0352-.3677,1.6153,1.7652-.07,2.3374l-4.2138,1.4312,1.9091,11.3266c.3985-.0273,1.8711-.2929,2.26-.3633,2.9014-.5234,4.8447-1.9028,5.335.066.3515,1.457-9.3809,3.0337-9.5293,2.2114Z"/><path d="M1723.541,322.79l-2.5976,12.3637c.0693.8814-1.95,1.335-2.3682,1.0078a2.8214,2.8214,0,0,1-.3965-.4648c-1.7822-3.4346-3.4258-6.85-5.4961-10.1426.7324,8.2744,3.1416,16.4258,3.5625,24.7114a2.1553,2.1553,0,0,1-1.2871.5454c-.9092.1641-.9053-.06-1.0537-.8833-.25-1.3857-.0234-2.3652-5.04-29.6762-.2354-1.2993,1.5771-2.6553,2.3545-1.32l7.8935,13.5112c.9981-1.6558,2.57-14.5044,3.2334-16.2788.2773-.9444,1.252-.9864,2.4688-.4453.0429-.0079,2.8378,14.2441,3.9824,20.3427.74,3.8467,1.6826,7.835,2.3857,11.7329a1.4016,1.4016,0,0,1-1.0771,1.7144c-.6914.125-.8965-.0166-1.2813-.6626C1727.376,340.0737,1725.5449,331.416,1723.541,322.79Z"/><path d="M1750.4189,336.7212l-.2138.3066.1474,5.0269c.03.665.4092,2.5195-.8466,2.7461-.5625.1015-1.1553-.9541-1.2334-1.3877-1.1612-32.21-1.1319-32.3042-1.1319-32.3042.0664-.8623.15-2.1289,1.2334-2.3242a1.647,1.647,0,0,1,1.46.4072l.51.8467c4.3027,9.4643,7.3076,19.43,10.32,29.44l.77,2.7671c.0068.0439-.0371.0513-.0293.0947-.1553.877-.2656,1.2549-1.0879,1.4033l-.13.0235c-.2607.0473-.6924.125-.791-.17l-2.5674-8.0328Zm.1651-2.8023,5.4375-.8466-6.5508-19.7012Z"/><path d="M1759.5527,311.5078c-2.6543.6572-3.874.8325-4.0937.1123-.18-1.4878-.2735-2.0078,4.2773-2.56l3.6387-.6563c.959-.1289,2.5869-.2881,2.8125.9678a.9819.9819,0,0,1-.7178.9795l-3.6377.6562,5.7842,27.3516c.07.39-.7568.7627-1.0166.81s-1.165-.0137-1.2353-.4034Z"/><path d="M1770.3828,308.8379c.1465-.9209.3555-1.0029,1.2637-1.167,1.2578-.2266,1.3594.3359,1.5859,1.5928.0235.1289.0811.7.0967.7866l4.0449,29.8559c.2578,1.9219-2.1377,2.5328-2.3642,1.2769Z"/><path d="M1777.1777,306.36a1.2134,1.2134,0,0,1,.9864-1.4746c.8652-.1563,1.3486.2924,1.5957,1.4111l3.042,14.3867c1.6611-5.6665,2.999-10.647,3.3818-14.4722.1269-1.2754-.1426-3.0156,1.417-3.2968.6055-.1094,1.8232-.0606,1.56,1.9541l-4.0928,17.4633,10.81,13.566a1.298,1.298,0,0,1-.73,2.144c-.5645.1016-.7793.1406-1.2285-.36-3.2149-3.9355-6.584-9.23-10.3418-13.2031l.0625.3462c.3593,1.9922,2.2041,8.9927,3.1894,14.45-.2656,1.2549-1.999,2.06-2.3984.3433Z"/><path d="M1425.5381,710.5645a5.3182,5.3182,0,0,1-.8145,2.4863,5.1248,5.1248,0,0,1-1.6943,1.6279,5.5534,5.5534,0,0,1-2.2432.7261,6.124,6.124,0,0,1-2.42-.22,5.162,5.162,0,0,1-1.1221-.44,6.9587,6.9587,0,0,1-1.1-.7041,3.3533,3.3533,0,0,1-.8135-.9018,1.8459,1.8459,0,0,1-.2647-1.1221,1.35,1.35,0,0,1,.4619-.9458q.4629-.4621.8584-.8145a7.5855,7.5855,0,0,1,.9678-.4838.8759.8759,0,0,1,1.0127.2641,1.29,1.29,0,0,1,.1094,1.1q-.1977.5281-.33.9238-.1758.4849.44.66a3.8322,3.8322,0,0,0,1.4522.0879,2.8093,2.8093,0,0,0,1.9795-.814,3.5886,3.5886,0,0,0,.8584-1.8261,8.6213,8.6213,0,0,0,.0654-2.398q-.1318-1.2971-.3516-2.53a15.7253,15.7253,0,0,0-1.5625-4.2241,17.83,17.83,0,0,0-2.4853-3.52,2.1532,2.1532,0,0,1-.55-.99,1.0548,1.0548,0,0,1,.374-.99,1.4872,1.4872,0,0,1,1.1875-.352,2.76,2.76,0,0,1,1.0117.5717,15.7962,15.7962,0,0,1,3.916,6.1382A21.3334,21.3334,0,0,1,1425.5381,710.5645Z"/><path d="M1432.7969,702.5566q-.2637,1.188-.5283,2.6182t-.3741,2.75a12.8418,12.8418,0,0,0,0,2.376,2.4424,2.4424,0,0,0,.5508,1.4956,2.2328,2.2328,0,0,0,1.7158-.6377,11.5494,11.5494,0,0,0,1.8916-1.958,18.4655,18.4655,0,0,0,1.6719-2.5742,12.923,12.923,0,0,0,1.0566-2.4419c.1163-.3521.22-.7183.3077-1.1a5.2672,5.2672,0,0,0,.1318-1.188.8941.8941,0,0,1,.4619-.6821,1.9182,1.9182,0,0,1,.77-.3741.83.83,0,0,1,.5059.0884,1.8487,1.8487,0,0,1,.5283.374,3.0085,3.0085,0,0,1,.4395.5718,1.3125,1.3125,0,0,1,.1982.6821q.0879,1.32.2637,2.9038t.4179,3.168q.2418,1.5843.5059,3.08t.5283,2.6841a1.3722,1.3722,0,0,1-.2637,1.1,1.6061,1.6061,0,0,1-.88.748,1.3153,1.3153,0,0,1-.8145-.0884,1.2151,1.2151,0,0,1-.6377-.7036,12.5121,12.5121,0,0,1-.418-1.518q-.1977-.9016-.3525-1.8921t-.2851-1.8921q-.1334-.9009-.1768-1.5181a21.4592,21.4592,0,0,1-1.5615,2.398,17.5923,17.5923,0,0,1-1.9366,2.2,8.6147,8.6147,0,0,1-2.1552,1.54,4.1184,4.1184,0,0,1-2.3106.418q-1.7607-.22-2.6836-3.3a9.3468,9.3468,0,0,1-.33-2.7281,25.0831,25.0831,0,0,1,.22-2.97q.1977-1.4736.4844-2.7939t.5058-2.1563a1.4535,1.4535,0,0,1,.3516-.6377.5962.5962,0,0,1,.6162-.1982,2.1391,2.1391,0,0,1,1.21.792A1.493,1.493,0,0,1,1432.7969,702.5566Z"/><path d="M1450.748,694.9888q.22,4.7958.7481,9.9218t1.1435,9.79q.1334,1.9365-1.0556,1.98a.8791.8791,0,0,1-.5283-.1983,2.2737,2.2737,0,0,1-.4834-.5058,6.9092,6.9092,0,0,1-.418-.66,1.9663,1.9663,0,0,1-.2422-.6157q-.3529-2.2441-.66-4.752t-.55-5.0381q-.2432-2.53-.4179-4.95-.1773-2.4191-.22-4.4438a8.62,8.62,0,0,1,.3076-1.7822.84.84,0,0,1,.9238-.6817,1.2528,1.2528,0,0,1,1.0781.5938A2.8866,2.8866,0,0,1,1450.748,694.9888Z"/><path d="M1463.6406,697.6284a.5982.5982,0,0,1-.6162.4844q-.5287.044-.88.0439a20.5172,20.5172,0,0,0-4.708.7481,1.4637,1.4637,0,0,1-1.1445-.1323,1.4963,1.4963,0,0,1-.7481-1.232.7109.7109,0,0,1,.2647-.5717,3.15,3.15,0,0,1,.6162-.396,7.77,7.77,0,0,1,1.3633-.4624,11.9681,11.9681,0,0,1,1.6064-.2857,11.4086,11.4086,0,0,1,1.5616-.0659,5.4333,5.4333,0,0,1,1.2324.1538,2.5811,2.5811,0,0,1,1.122.66A1.2106,1.2106,0,0,1,1463.6406,697.6284Zm-1.0127,14.6524a4.0243,4.0243,0,0,1,.33,1.5175,1.184,1.184,0,0,1-.4619,1.1221,1.1484,1.1484,0,0,1-1.3193-.0439,2.7526,2.7526,0,0,1-1.0567-1.188,8.3409,8.3409,0,0,1-.748-2.2661q-.2637-1.3412-.3955-2.6617t-.1543-2.4643q-.022-1.1433-.0215-1.7158a2.5876,2.5876,0,0,1,.3515-1.1441,1.1572,1.1572,0,0,1,.792-.6157,1.6145,1.6145,0,0,1,1.2764.7256,2.65,2.65,0,0,1,.4395,1.6943q0,.7919.0439,1.76t.1758,1.936c.0889.6455.19,1.2691.3086,1.87A6.58,6.58,0,0,0,1462.6279,712.2808Z"/><path d="M1477.5439,705.2407a15.3029,15.3029,0,0,1-3.6962,1.562,15.8758,15.8758,0,0,1-4.2676.55,3.92,3.92,0,0,0,.88,2.4419,3.1719,3.1719,0,0,0,1.9795,1.0782,4.6929,4.6929,0,0,0,1.4306-.044,5.8762,5.8762,0,0,0,1.3633-.418,7.9061,7.9061,0,0,0,1.166-.6381,8.3294,8.3294,0,0,0,.9248-.7041,1.9853,1.9853,0,0,1,.836-.462,1.1429,1.1429,0,0,1,.6591-.0219q.6168.2211.44,1.32a6.7373,6.7373,0,0,1-2.0244,2.3979,6.61,6.61,0,0,1-2.9473,1.2539,6.5349,6.5349,0,0,1-2.9043-.1318,6.0694,6.0694,0,0,1-2.6836-1.54,6.7618,6.7618,0,0,1-1.54-2.376,10.3367,10.3367,0,0,1-.66-2.8164,6.6379,6.6379,0,0,1,.2422-2.5957,6.1081,6.1081,0,0,1,1.166-2.1782,6.3673,6.3673,0,0,1,1.9795-1.5621,6.8,6.8,0,0,1,2.7725-.7041,6.1564,6.1564,0,0,1,3.4316.7041,4.6235,4.6235,0,0,1,2.1562,2.3321,2.317,2.317,0,0,1,.1973,1.4521A1.914,1.914,0,0,1,1477.5439,705.2407Zm-5.06-2.9922a4.7483,4.7483,0,0,0-.9453.3081,4.1613,4.1613,0,0,0-.9238.55,4.5024,4.5024,0,0,0-.7481.7481,1.7164,1.7164,0,0,0-.374.9463,11.5046,11.5046,0,0,0,1.6494-.1323c.6006-.0879,1.1885-.1978,1.76-.33a13.4643,13.4643,0,0,0,1.584-.4619,6.1909,6.1909,0,0,0,1.21-.5718,1.6917,1.6917,0,0,0-1.2978-1.0342A4.9587,4.9587,0,0,0,1472.4834,702.2485Z"/><path d="M1504.4727,713.8647a1.5016,1.5016,0,0,1-.1983.99.716.716,0,0,1-.5937.33,1.8257,1.8257,0,0,1-1.3643-.418,2.8524,2.8524,0,0,1-.6162-1.0781q-.2637-1.188-.4395-2.5078t-.2646-2.5962q-1.6728.2211-3.0361.4179-1.3638.1986-1.8477.2862a2.1334,2.1334,0,0,1-1.4736-.2862,1.4671,1.4671,0,0,1-.8145-1.0776,1.1616,1.1616,0,0,1,.7266-1.0122,9.5426,9.5426,0,0,1,1.3418-.6162,21.0256,21.0256,0,0,1,2.1562-.418q1.32-.1977,2.8594-.374-.044-2.5079.11-4.4219a12.9524,12.9524,0,0,1,.374-2.5737q.1758-1.0122.8359-1.1221a1.3072,1.3072,0,0,1,.9678.11,3.286,3.286,0,0,1,.6377.6382.83.83,0,0,1,.2422.5937q-.1758,1.6729-.1973,3.2778-.0234,1.6069.0215,3.2344,1.54-.0879,2.9922-.1323a25.82,25.82,0,0,1,2.64.0439q1.4077.0894,1.2764,1.2764a1.1942,1.1942,0,0,1-.6377.9019,2.7778,2.7778,0,0,1-1.3428.4179q-1.0122.0886-2.2441.1983t-2.5957.2856q.0879,1.4093.22,2.8159Q1504.3414,712.4576,1504.4727,713.8647Z"/><path d="M1535.625,710.5645a5.3182,5.3182,0,0,1-.8145,2.4863,5.1248,5.1248,0,0,1-1.6943,1.6279,5.5529,5.5529,0,0,1-2.2432.7261,6.124,6.124,0,0,1-2.42-.22,5.1613,5.1613,0,0,1-1.122-.44,6.9551,6.9551,0,0,1-1.1006-.7041,3.355,3.355,0,0,1-.8135-.9018,1.8459,1.8459,0,0,1-.2647-1.1221,1.3494,1.3494,0,0,1,.462-.9458q.4629-.4621.8584-.8145a7.5775,7.5775,0,0,1,.9677-.4838.8759.8759,0,0,1,1.0127.2641,1.29,1.29,0,0,1,.1094,1.1q-.1977.5281-.33.9238-.1758.4849.44.66a3.8315,3.8315,0,0,0,1.4521.0879,2.8093,2.8093,0,0,0,1.9795-.814,3.5878,3.5878,0,0,0,.8584-1.8261,8.6213,8.6213,0,0,0,.0654-2.398q-.1318-1.2971-.3515-2.53a15.732,15.732,0,0,0-1.5625-4.2241,17.8343,17.8343,0,0,0-2.4854-3.52,2.1541,2.1541,0,0,1-.55-.99,1.0548,1.0548,0,0,1,.374-.99,1.4872,1.4872,0,0,1,1.1875-.352,2.76,2.76,0,0,1,1.0117.5717,15.7976,15.7976,0,0,1,3.9161,6.1382A21.3351,21.3351,0,0,1,1535.625,710.5645Z"/><path d="M1549.22,700.2246a5.6509,5.6509,0,0,1,2.2227,1.4522,6.9934,6.9934,0,0,1,1.3857,2.1777,7.7379,7.7379,0,0,1,.55,2.4858,6.6223,6.6223,0,0,1-.2861,2.3765,14.5628,14.5628,0,0,1-1.2314,2.42,11.0729,11.0729,0,0,1-1.7168,2.1118,8.1069,8.1069,0,0,1-2.1993,1.4961,6.4042,6.4042,0,0,1-2.7285.5718,5.28,5.28,0,0,1-3.0361-.8359,5.9406,5.9406,0,0,1-1.9356-2.1558,8.3856,8.3856,0,0,1-.9023-2.9922,13.0772,13.0772,0,0,1,.66-5.7422,8.098,8.098,0,0,1,1.0781-2.0678,6.042,6.042,0,0,1,1.5176-1.4742,3.4527,3.4527,0,0,1,1.958-.5717,6.3079,6.3079,0,0,1,1.54.2422,7.3828,7.3828,0,0,1,1.7158.6816A1.2222,1.2222,0,0,1,1549.22,700.2246Zm-1.6718,3.2119a13.28,13.28,0,0,1-1.1221-.8139,1.9212,1.9212,0,0,0-1.1221-.5059,1.5046,1.5046,0,0,0-1.0342.4839,5.1668,5.1668,0,0,0-.88,1.1221,9.656,9.656,0,0,0-.6376,1.2978,7.3131,7.3131,0,0,0-.3526,1.0562,10.8424,10.8424,0,0,0-.1758,1.5839,7.6142,7.6142,0,0,0,.1319,1.8257,4.2217,4.2217,0,0,0,.6826,1.6284,2.7419,2.7419,0,0,0,1.5176,1.0337,2.8674,2.8674,0,0,0,1.4521-.0219,5.2693,5.2693,0,0,0,1.65-.7261,6.8652,6.8652,0,0,0,1.54-1.4077,6.495,6.495,0,0,0,1.1221-2.0239,4.2441,4.2441,0,0,0,.0215-2.6622,3.1309,3.1309,0,0,0-1.6943-2.0019,1.0529,1.0529,0,0,1-.6153.22A1.09,1.09,0,0,1,1547.5479,703.4365Z"/><path d="M1559.9551,696.0884q0,1.0562-.0215,2.376-.0234,1.32,0,2.728.0205,1.4091.0439,2.9043t.0655,2.86a12.7074,12.7074,0,0,1,1.0566-1.7377,8.5294,8.5294,0,0,1,1.3858-1.5181,7.006,7.006,0,0,1,1.6279-1.0562,4.407,4.407,0,0,1,1.87-.396,3.007,3.007,0,0,1,1.958.7041,6.2877,6.2877,0,0,1,1.4961,1.87,14.0175,14.0175,0,0,1,1.0781,2.5957,28.3138,28.3138,0,0,1,.7256,2.9043q.2856,1.4743.418,2.8159t.22,2.31a1.7765,1.7765,0,0,1-.3516,1.1441,1.0452,1.0452,0,0,1-.8359.44,1.42,1.42,0,0,1-.8584-.4619,2.6144,2.6144,0,0,1-.7256-1.1221,14.5767,14.5767,0,0,1-.2636-1.54q-.1334-1.0122-.3086-2.1782t-.4395-2.354a14.3117,14.3117,0,0,0-.6387-2.1338,4.2937,4.2937,0,0,0-.9013-1.4741,1.3142,1.3142,0,0,0-1.2325-.396,3.0187,3.0187,0,0,0-1.914,1.54,15.6994,15.6994,0,0,0-1.4082,2.9922,27.8088,27.8088,0,0,0-.9678,3.3877q-.3735,1.716-.55,2.772a2.2549,2.2549,0,0,1-.4619,1.0781.8842.8842,0,0,1-.6387.2861.8181.8181,0,0,1-.6377-.352,4.197,4.197,0,0,1-.5273-.8579,8.1493,8.1493,0,0,1-.419-1.0562,5.0116,5.0116,0,0,1-.22-.9458q-.22-2.3768-.3516-4.5542t-.1982-4.3779q-.0658-2.1995-.0664-4.51t.0889-4.95q0-2.2,1.5839-1.98a1.3927,1.3927,0,0,1,.9239.77A2.8892,2.8892,0,0,1,1559.9551,696.0884Z"/><path d="M1586.0469,699.3008q.1758,1.232.2861,2.6177t.1758,2.7939q.0658,1.4092.0664,2.728,0,1.3206-.044,2.376a4.4392,4.4392,0,0,1,1.6944,1.7163,1.8128,1.8128,0,0,1,.0654,1.32,1.0119,1.0119,0,0,1-.9463.814,3.1,3.1,0,0,1-1.5615-.4619q-.6167.44-1.4082.9458t-1.6719.9683a18.86,18.86,0,0,1-1.76.8139,8.3148,8.3148,0,0,1-1.628.4839,3.4414,3.4414,0,0,1-2.53-.5278,3.7157,3.7157,0,0,1-1.5176-2.2442,5.5235,5.5235,0,0,1-.1328-2.09,5.9113,5.9113,0,0,1,.66-2.0684,6.3406,6.3406,0,0,1,1.4307-1.7817,6.5135,6.5135,0,0,1,2.1338-1.2319,3.78,3.78,0,0,1,.8574-.22,5.951,5.951,0,0,1,1.1445-.0659,4.06,4.06,0,0,1,1.21.2422,3.09,3.09,0,0,1,1.1435.7481q0-.7479-.0214-1.65-.0236-.9009-.0664-1.8257t-.1094-1.7383q-.066-.8138-.1543-1.3857a.8974.8974,0,0,0-.5059-.814,1.52,1.52,0,0,0-1.0342.0659,9.6886,9.6886,0,0,0-2.4638,1.3638,31.9431,31.9431,0,0,0-2.6846,2.1562,1.0958,1.0958,0,0,1-.9014.3521,1.3355,1.3355,0,0,1-.8584-.396,1.2922,1.2922,0,0,1-.3955-.814,1.44,1.44,0,0,1,.3516-.99q.747-.7917,1.6719-1.6279a17.3112,17.3112,0,0,1,1.9365-1.5181,11.88,11.88,0,0,1,2.0674-1.1221,6.1493,6.1493,0,0,1,2.1123-.4839,3.3641,3.3641,0,0,1,2.376.6822A3,3,0,0,1,1586.0469,699.3008Zm-5.1035,9.46a3.7968,3.7968,0,0,0-1.21.55,5.3461,5.3461,0,0,0-1.1445,1.0123,3.9469,3.9469,0,0,0-.7481,1.32,2.27,2.27,0,0,0-.0215,1.43.6606.6606,0,0,0,.3741.396.9368.9368,0,0,0,.6377.0439,10.8869,10.8869,0,0,0,2.3984-.8579,8.258,8.258,0,0,0,2.1338-1.3862,1.395,1.395,0,0,0-.2637-.6822,7.8437,7.8437,0,0,0-.6162-.8359,4.5528,4.5528,0,0,0-.7705-.7261A1.0964,1.0964,0,0,0,1580.9434,708.7607Z"/><path d="M1593.6592,701.0605q.1318.66.2861,1.4742t.33,1.6718q.1743.8585.3076,1.7378.1318.8811.22,1.6724.5289-1.144,1.1446-2.42a18.86,18.86,0,0,1,1.3418-2.354,8.9438,8.9438,0,0,1,1.54-1.7823,2.6693,2.6693,0,0,1,1.7822-.7041,3.2137,3.2137,0,0,1,2.4414,1.0562,9.1315,9.1315,0,0,1,1.6719,2.6182,18.59,18.59,0,0,1,1.0781,3.2778q.397,1.716.66,3.0361a1.4621,1.4621,0,0,1-1.0557,1.76q-.6166.3084-.9238.0879a.7752.7752,0,0,1-.3525-.44,14.774,14.774,0,0,1-.55-1.8476q-.33-1.3206-.7481-2.6841a14.0672,14.0672,0,0,0-.9463-2.376q-.5273-1.0122-1.1875-.9243-.7924.0447-1.4082,1.188-.5272.9243-1.0781,2.0464t-1.0781,2.2876q-.5274,1.1667-1.0342,2.332t-.9453,2.1343a1.5769,1.5769,0,0,1-.77.418,1.619,1.619,0,0,1-.9453-.066,1.4456,1.4456,0,0,1-.7041-.44.9471.9471,0,0,1-.2647-.6162q-.3955-3.4321-.8135-6.2481t-1.0781-5.7641a2.7238,2.7238,0,0,1-.11-1.606q.1977-.594,1.2978-.4619A2.2271,2.2271,0,0,1,1593.6592,701.0605Z"/><path d="M1509.3037,809.7783c-24.5176-36.1161-65.2024-55.978-92.9579-89.07a110.7673,110.7673,0,0,1-17.4553-27.6752c-4.5123-10.6377-8.48-24.173-4.2669-35.469,7.9591-21.34,38.2026-22.5946,56.3994-16.4783,20.9562,7.0438,38.1285,24.4862,43.05,46.2378a.3781.3781,0,0,0,.7232,0c6.121-20.08,22.5306-35.0749,41.7138-42.7072a108.3326,108.3326,0,0,1,32.7632-7.042c10.8576-.7332,22.7032-.9314,33.1591,2.4468,21.1965,6.8483,29.8821,33.765,30.925,53.9873,1.1834,22.9475-15.4778,39.0387-32.7072,51.4543a304.8006,304.8006,0,0,1-65.9885,35.9862c-.4435.1757-.25.9013.1994.7232a304.431,304.431,0,0,0,66.8881-36.5805c16.8844-12.2683,33.1747-28.2186,32.3913-50.6565-.3808-10.9075-3.4753-22.2548-7.83-32.2348-4.054-9.291-10.2689-17.6547-19.7251-21.9016-10.3506-4.6486-22.63-4.6362-33.7493-4.1686-12.4418.5231-24.9179,2.6513-36.5256,7.263a78.2018,78.2018,0,0,0-24.9925,15.7427,67.5365,67.5365,0,0,0-9.665,11.389c-2.8235,4.2139-4.378,8.8394-6.6747,13.2683-1.0925,2.1068.0825,1.7189-.8225.1572a19.032,19.032,0,0,1-.9853-3.2777,58.0957,58.0957,0,0,0-2.2834-5.8,61.64,61.64,0,0,0-7.0681-11.7324,68.47,68.47,0,0,0-21.8371-18.5942c-15.8411-8.5575-36.039-11.2311-52.6914-3.296-8.6,4.0982-15.1489,11.1426-16.7035,20.755-1.7479,10.807,1.8891,22.5123,6.2457,32.2966,22.349,50.1916,79.7664,71.0792,109.8233,115.355.27.3971.92.0223.6476-.3785Z"/></g></svg>
