<svg xmlns="http://www.w3.org/2000/svg" width="394" height="165" viewBox="0 0 394 165"><defs><style>.cls-1{fill:#f09638;}</style></defs><title>svar3</title><g id="Spørgsmål"><rect class="cls-1" x="6" y="7" width="380" height="147" rx="45.727"/><path d="M29.2642,44.1777v9.8711H40.6753V44.1777h3.0806V67.7705H40.6753V56.709H29.2642V67.7705H26.2188V44.1777Z"/><path d="M63.11,63.15c0,1.75.0346,3.29.14,4.62H60.52l-.1753-2.7656h-.07a6.3744,6.3744,0,0,1-5.6006,3.15c-2.66,0-5.8457-1.47-5.8457-7.4209V50.8291h3.0806V60.21c0,3.22.98,5.3906,3.78,5.3906A4.454,4.454,0,0,0,59.75,62.8a4.5078,4.5078,0,0,0,.28-1.5752V50.8291H63.11Z"/><path d="M68.2183,55.4141c0-1.75-.0347-3.1856-.14-4.585h2.73l.1748,2.8h.07a6.23,6.23,0,0,1,5.6006-3.1855c2.3452,0,5.9853,1.4,5.9853,7.2109V67.7705H79.56V58.0049c0-2.73-1.0152-5.0059-3.92-5.0059a4.3766,4.3766,0,0,0-4.13,3.15,4.4251,4.4251,0,0,0-.21,1.4346V67.7705H68.2183Z"/><path d="M94.6426,64.62a8.0756,8.0756,0,0,0,4.0605,1.2256c2.24,0,3.29-1.12,3.29-2.52,0-1.4707-.875-2.2754-3.15-3.1152-3.0449-1.085-4.48-2.7657-4.48-4.7959,0-2.73,2.2056-4.9707,5.8457-4.9707a8.45,8.45,0,0,1,4.1655,1.0507l-.77,2.24a6.5939,6.5939,0,0,0-3.4653-.98c-1.82,0-2.8355,1.05-2.8355,2.3106,0,1.3994,1.0152,2.03,3.22,2.87,2.94,1.12,4.4459,2.59,4.4459,5.11,0,2.9756-2.3106,5.0752-6.336,5.0752a9.67,9.67,0,0,1-4.76-1.1543Z"/><path d="M111.9678,58.6h.07c.42-.5947,1.0151-1.33,1.5054-1.9248l4.9707-5.8457h3.71l-6.5454,6.9658,7.4556,9.9756h-3.7451l-5.8457-8.1211-1.5752,1.75v6.3711h-3.0454V42.918h3.0454Z"/><path d="M135.3481,67.7705l-.2446-2.1348h-.105a6.3107,6.3107,0,0,1-5.1806,2.52,4.8266,4.8266,0,0,1-5.1807-4.8653c0-4.0957,3.6406-6.3359,10.186-6.3007v-.35c0-1.4-.3847-3.9208-3.8505-3.9208a8.4371,8.4371,0,0,0-4.41,1.2607l-.7-2.03a10.5159,10.5159,0,0,1,5.5654-1.5058c5.1807,0,6.441,3.5361,6.441,6.9306V63.71a23.867,23.867,0,0,0,.28,4.06Zm-.4545-8.6455c-3.36-.07-7.1758.5244-7.1758,3.8154a2.7252,2.7252,0,0,0,2.9052,2.94,4.2145,4.2145,0,0,0,4.0953-2.835,3.2153,3.2153,0,0,0,.1753-.98Z"/><path d="M142.8369,42.918h3.0806V67.7705h-3.0806Z"/><path d="M158.8311,67.7705V53.1738h-2.38V50.8291h2.38v-.8057c0-2.38.5253-4.55,1.96-5.915a5.8966,5.8966,0,0,1,4.1309-1.5752,7.16,7.16,0,0,1,2.625.4893l-.42,2.3808a4.6018,4.6018,0,0,0-1.96-.3847c-2.626,0-3.29,2.31-3.29,4.9v.91h4.0957v2.3447H161.877V67.7705Z"/><path d="M183.6133,59.1592c0,6.2656-4.3408,8.9961-8.4356,8.9961-4.5859,0-8.1211-3.36-8.1211-8.7158,0-5.67,3.71-8.9961,8.4-8.9961C180.3223,50.4434,183.6133,53.98,183.6133,59.1592Zm-13.4414.1758c0,3.71,2.1347,6.5107,5.1445,6.5107,2.9414,0,5.1465-2.7656,5.1465-6.5811,0-2.87-1.4356-6.5107-5.0762-6.5107S170.1719,56.1143,170.1719,59.335Z"/><path d="M187.4961,56.1143c0-1.9952-.0352-3.71-.1406-5.2852h2.6953l.1054,3.3252h.1407a5.0823,5.0823,0,0,1,4.6894-3.7109,3.3243,3.3243,0,0,1,.876.1054v2.9053a4.6088,4.6088,0,0,0-1.05-.1055c-2.1709,0-3.7109,1.6455-4.1309,3.9561a8.6326,8.6326,0,0,0-.1406,1.4346v9.0312h-3.0449Z"/><path d="M206.36,56.1143c0-1.9952-.0352-3.71-.14-5.2852h2.6953l.1045,3.3252h.14a5.0845,5.0845,0,0,1,4.6914-3.7109,3.3218,3.3218,0,0,1,.875.1054v2.9053a4.6186,4.6186,0,0,0-1.0508-.1055c-2.17,0-3.71,1.6455-4.13,3.9561a8.638,8.638,0,0,0-.14,1.4346v9.0312H206.36Z"/><path d="M219.17,59.8594c.07,4.166,2.73,5.8808,5.8106,5.8808a11.1448,11.1448,0,0,0,4.6914-.875l.5244,2.2051a13.721,13.721,0,0,1-5.6358,1.05c-5.2148,0-8.33-3.43-8.33-8.54s3.01-9.1367,7.9453-9.1367c5.5312,0,7.001,4.8662,7.001,7.9814a11.806,11.806,0,0,1-.1045,1.4346Zm9.0313-2.2051c.0351-1.96-.8047-5.0059-4.27-5.0059-3.1153,0-4.4805,2.8711-4.7256,5.0059Z"/><path d="M238.7,45.9629v4.8662h4.4111v2.3447H238.7V62.31c0,2.1006.5947,3.291,2.31,3.291a6.884,6.884,0,0,0,1.7861-.21l.14,2.31a7.5375,7.5375,0,0,1-2.73.42,4.2689,4.2689,0,0,1-3.3252-1.2949c-.875-.91-1.19-2.415-1.19-4.41V53.1738h-2.625V50.8291h2.625v-4.06Z"/><path d="M250.2852,45.9629v4.8662h4.41v2.3447h-4.41V62.31c0,2.1006.5957,3.291,2.31,3.291a6.8759,6.8759,0,0,0,1.7852-.21l.14,2.31a7.5356,7.5356,0,0,1-2.73.42,4.2714,4.2714,0,0,1-3.3262-1.2949c-.875-.91-1.1894-2.415-1.1894-4.41V53.1738h-2.626V50.8291h2.626v-4.06Z"/><path d="M259.665,59.8594c.0694,4.166,2.7305,5.8808,5.8106,5.8808a11.1358,11.1358,0,0,0,4.69-.875l.5254,2.2051a13.7243,13.7243,0,0,1-5.6357,1.05c-5.2159,0-8.3311-3.43-8.3311-8.54s3.01-9.1367,7.9453-9.1367c5.5313,0,7.002,4.8662,7.002,7.9814a11.5417,11.5417,0,0,1-.1055,1.4346Zm9.03-2.2051c.0352-1.96-.8047-5.0059-4.2695-5.0059-3.1153,0-4.4805,2.8711-4.7256,5.0059Z"/><path d="M275.4844,55.4141c0-1.75-.0342-3.1856-.14-4.585h2.7305l.1748,2.8h.07a6.23,6.23,0,0,1,5.6006-3.1855c2.3447,0,5.9853,1.4,5.9853,7.2109V67.7705h-3.08V58.0049c0-2.73-1.0157-5.0059-3.92-5.0059a4.5168,4.5168,0,0,0-4.3408,4.585V67.7705h-3.081Z"/><path d="M294.1748,65.95a2.07,2.07,0,0,1,2.1006-2.2051,2.2088,2.2088,0,1,1-2.1006,2.2051Z"/></g></svg>
