<svg xmlns="http://www.w3.org/2000/svg" width="389" height="163" viewBox="0 0 389 163"><defs><style>.cls-1{fill:#f09638;}</style></defs><title>svar1</title><g id="Spørgsmål"><rect class="cls-1" x="6" y="10" width="380" height="147" rx="45.727"/><path d="M24.0493,43.1777h3.0454V58.9648c0,6.2657-3.0805,8.1905-7.1406,8.1905a9.8762,9.8762,0,0,1-3.2554-.56l.4551-2.4853a7.26,7.26,0,0,0,2.5552.455c2.73,0,4.34-1.2256,4.34-5.8457Z"/><path d="M33.7788,58.8594c.07,4.166,2.73,5.8808,5.8106,5.8808a11.1362,11.1362,0,0,0,4.69-.875l.5249,2.2051a13.7185,13.7185,0,0,1-5.6353,1.05c-5.2158,0-8.331-3.43-8.331-8.54s3.01-9.1367,7.9458-9.1367c5.5307,0,7.001,4.8662,7.001,7.9814a11.6825,11.6825,0,0,1-.105,1.4346ZM42.81,56.6543c.0351-1.96-.8052-5.0059-4.2705-5.0059-3.1153,0-4.48,2.8711-4.7251,5.0059Z"/><path d="M64.1948,49.8291c-.07,1.2246-.14,2.59-.14,4.6553V64.32c0,3.8858-.77,6.2656-2.4151,7.7354a8.9772,8.9772,0,0,1-6.1606,2.03,10.9339,10.9339,0,0,1-5.6357-1.3994l.77-2.3457a9.5517,9.5517,0,0,0,4.9707,1.33c3.15,0,5.46-1.6455,5.46-5.915V63.8652h-.07A6.0483,6.0483,0,0,1,55.584,66.7c-4.2007,0-7.211-3.57-7.211-8.2607,0-5.74,3.7457-8.9961,7.6309-8.9961a5.635,5.635,0,0,1,5.2857,2.94h.07l.14-2.5547Zm-3.1855,6.6855a4.3841,4.3841,0,0,0-.1748-1.4,4.4372,4.4372,0,0,0-4.3057-3.2549c-2.94,0-5.04,2.4844-5.04,6.4052,0,3.3252,1.68,6.0909,5.0058,6.0909a4.504,4.504,0,0,0,4.27-3.15,5.3643,5.3643,0,0,0,.2447-1.6455Z"/><path d="M91.1787,49.8291c-.07,1.2246-.14,2.59-.14,4.6553V64.32c0,3.8858-.77,6.2656-2.4151,7.7354a8.9774,8.9774,0,0,1-6.1606,2.03,10.9345,10.9345,0,0,1-5.6358-1.3994l.77-2.3457a9.5532,9.5532,0,0,0,4.9707,1.33c3.15,0,5.46-1.6455,5.46-5.915V63.8652h-.07A6.0483,6.0483,0,0,1,82.5679,66.7c-4.2007,0-7.211-3.57-7.211-8.2607,0-5.74,3.7456-8.9961,7.6309-8.9961a5.6348,5.6348,0,0,1,5.2856,2.94h.07l.14-2.5547Zm-3.1855,6.6855a4.3841,4.3841,0,0,0-.1748-1.4,4.4372,4.4372,0,0,0-4.3057-3.2549c-2.94,0-5.04,2.4844-5.04,6.4052,0,3.3252,1.68,6.0909,5.0058,6.0909a4.5029,4.5029,0,0,0,4.27-3.15,5.3529,5.3529,0,0,0,.2452-1.6455Z"/><path d="M95.9365,55.1143c0-1.9952-.0351-3.71-.14-5.2852h2.6953l.105,3.3252h.14a5.0835,5.0835,0,0,1,4.69-3.7109,3.3225,3.3225,0,0,1,.8755.1054v2.9053a4.6128,4.6128,0,0,0-1.05-.1055c-2.17,0-3.71,1.6455-4.13,3.9561a8.635,8.635,0,0,0-.14,1.4346v9.0312H95.9365Z"/><path d="M110.9521,45.0684a1.9078,1.9078,0,0,1-3.8154,0,1.8772,1.8772,0,0,1,1.9248-1.9258A1.8291,1.8291,0,0,1,110.9521,45.0684Zm-3.4306,21.7021V49.8291h3.0806V66.7705Z"/><path d="M115.7114,54.4141c0-1.75-.0346-3.1856-.14-4.585h2.7305l.1748,2.8h.07a6.23,6.23,0,0,1,5.6006-3.1855c2.3452,0,5.9853,1.4,5.9853,7.2109V66.7705h-3.08V57.0049c0-2.73-1.0151-5.0059-3.92-5.0059a4.3766,4.3766,0,0,0-4.13,3.15,4.4224,4.4224,0,0,0-.21,1.4346V66.7705h-3.0806Z"/><path d="M136.8516,58.8594c.07,4.166,2.73,5.8808,5.8105,5.8808a11.1355,11.1355,0,0,0,4.69-.875l.5249,2.2051a13.7176,13.7176,0,0,1-5.6352,1.05c-5.2158,0-8.3311-3.43-8.3311-8.54s3.01-9.1367,7.9458-9.1367c5.5308,0,7.001,4.8662,7.001,7.9814a11.6623,11.6623,0,0,1-.105,1.4346Zm9.0307-2.2051c.0352-1.96-.8052-5.0059-4.27-5.0059-3.1152,0-4.48,2.8711-4.7251,5.0059Z"/><path d="M152.6709,55.1143c0-1.9952-.0352-3.71-.14-5.2852h2.6953l.105,3.3252h.14a5.0835,5.0835,0,0,1,4.69-3.7109,3.323,3.323,0,0,1,.8755.1054v2.9053a4.6134,4.6134,0,0,0-1.05-.1055c-2.17,0-3.71,1.6455-4.13,3.9561a8.6356,8.6356,0,0,0-.14,1.4346v9.0312h-3.0454Z"/><path d="M186.8667,58.1592c0,6.2656-4.34,8.9961-8.4355,8.9961-4.5855,0-8.1211-3.36-8.1211-8.7158,0-5.67,3.71-8.9961,8.4008-8.9961C183.5767,49.4434,186.8667,52.98,186.8667,58.1592Zm-13.4414.1758c0,3.71,2.1352,6.5107,5.1455,6.5107,2.94,0,5.1455-2.7656,5.1455-6.5811,0-2.87-1.4351-6.5107-5.0752-6.5107S173.4253,55.1143,173.4253,58.335Z"/><path d="M205.3467,49.8291c-.07,1.2246-.14,2.59-.14,4.6553V64.32c0,3.8858-.77,6.2656-2.415,7.7354a8.9774,8.9774,0,0,1-6.1606,2.03,10.9345,10.9345,0,0,1-5.6358-1.3994l.77-2.3457a9.5535,9.5535,0,0,0,4.9707,1.33c3.15,0,5.46-1.6455,5.46-5.915V63.8652h-.07a6.0484,6.0484,0,0,1-5.3907,2.835c-4.2006,0-7.2109-3.57-7.2109-8.2607,0-5.74,3.7456-8.9961,7.6309-8.9961a5.6348,5.6348,0,0,1,5.2856,2.94h.07l.14-2.5547Zm-3.1856,6.6855a4.3813,4.3813,0,0,0-.1748-1.4,4.437,4.437,0,0,0-4.3056-3.2549c-2.94,0-5.0406,2.4844-5.0406,6.4052,0,3.3252,1.68,6.0909,5.0059,6.0909a4.503,4.503,0,0,0,4.27-3.15,5.3527,5.3527,0,0,0,.2451-1.6455Z"/><path d="M217.314,63.62a8.0756,8.0756,0,0,0,4.0605,1.2256c2.24,0,3.29-1.12,3.29-2.52,0-1.4707-.875-2.2754-3.15-3.1152-3.045-1.085-4.48-2.7657-4.48-4.7959,0-2.73,2.2056-4.9707,5.8457-4.9707a8.4515,8.4515,0,0,1,4.1655,1.0507l-.77,2.24a6.5939,6.5939,0,0,0-3.4653-.98c-1.82,0-2.8355,1.05-2.8355,2.3106,0,1.3994,1.0152,2.03,3.22,2.87,2.9405,1.12,4.4458,2.59,4.4458,5.11,0,2.9756-2.31,5.0752-6.3359,5.0752a9.6705,9.6705,0,0,1-4.76-1.1543Z"/><path d="M233.3091,58.8594c.07,4.166,2.73,5.8808,5.81,5.8808a11.1363,11.1363,0,0,0,4.6905-.875l.5249,2.2051A13.7185,13.7185,0,0,1,238.7,67.12c-5.2158,0-8.331-3.43-8.331-8.54s3.01-9.1367,7.9458-9.1367c5.5307,0,7.0009,4.8662,7.0009,7.9814a11.6623,11.6623,0,0,1-.105,1.4346Zm9.0307-2.2051c.0352-1.96-.8051-5.0059-4.27-5.0059-3.1152,0-4.48,2.8711-4.7251,5.0059Z"/><path d="M249.1284,54.4141c0-1.75-.0346-3.1856-.14-4.585h2.73l.1748,2.8h.07a6.23,6.23,0,0,1,5.6006-3.1855c2.3452,0,5.9853,1.4,5.9853,7.2109V66.7705h-3.08V57.0049c0-2.73-1.0151-5.0059-3.92-5.0059a4.3766,4.3766,0,0,0-4.13,3.15,4.4252,4.4252,0,0,0-.21,1.4346V66.7705h-3.0806Z"/><path d="M283.1851,41.918V62.3955c0,1.5049.0346,3.22.14,4.375H280.56l-.14-2.94h-.07a6.2661,6.2661,0,0,1-5.7759,3.3252c-4.0952,0-7.2456-3.4649-7.2456-8.61-.0351-5.6357,3.4654-9.1015,7.5957-9.1015a5.665,5.665,0,0,1,5.1109,2.5908h.07V41.918Zm-3.0806,14.8066a5.4413,5.4413,0,0,0-.14-1.2949,4.53,4.53,0,0,0-4.4454-3.57c-3.1855,0-5.0756,2.8-5.0756,6.5449,0,3.4307,1.68,6.2656,5.0058,6.2656a4.6306,4.6306,0,0,0,4.5152-3.6748,5.3534,5.3534,0,0,0,.14-1.33Z"/><path d="M290.0083,58.8594c.07,4.166,2.73,5.8808,5.81,5.8808a11.1363,11.1363,0,0,0,4.69-.875l.5249,2.2051a13.7185,13.7185,0,0,1-5.6353,1.05c-5.2158,0-8.331-3.43-8.331-8.54s3.01-9.1367,7.9458-9.1367c5.5307,0,7.0009,4.8662,7.0009,7.9814a11.6867,11.6867,0,0,1-.1049,1.4346Zm9.0308-2.2051c.0351-1.96-.8052-5.0059-4.2705-5.0059-3.1153,0-4.4805,2.8711-4.7251,5.0059Z"/><path d="M305.8276,55.1143c0-1.9952-.0346-3.71-.14-5.2852h2.6953l.105,3.3252h.14a5.0835,5.0835,0,0,1,4.69-3.7109,3.3165,3.3165,0,0,1,.875.1054v2.9053a4.6063,4.6063,0,0,0-1.05-.1055c-2.1705,0-3.71,1.6455-4.13,3.9561a8.635,8.635,0,0,0-.14,1.4346v9.0312h-3.0454Z"/><path d="M339.3237,41.918V62.3955c0,1.5049.0347,3.22.14,4.375h-2.7652l-.14-2.94h-.07a6.2662,6.2662,0,0,1-5.7759,3.3252c-4.0952,0-7.2456-3.4649-7.2456-8.61-.0352-5.6357,3.4653-9.1015,7.5957-9.1015a5.6648,5.6648,0,0,1,5.1108,2.5908h.07V41.918Zm-3.08,14.8066a5.4363,5.4363,0,0,0-.14-1.2949,4.5294,4.5294,0,0,0-4.4453-3.57c-3.1855,0-5.0757,2.8-5.0757,6.5449,0,3.4307,1.68,6.2656,5.0059,6.2656a4.6305,4.6305,0,0,0,4.5151-3.6748,5.3485,5.3485,0,0,0,.14-1.33Z"/><path d="M346.147,58.8594c.07,4.166,2.73,5.8808,5.81,5.8808a11.1355,11.1355,0,0,0,4.69-.875l.525,2.2051a13.7185,13.7185,0,0,1-5.6353,1.05c-5.2158,0-8.3311-3.43-8.3311-8.54s3.01-9.1367,7.9458-9.1367c5.5308,0,7.001,4.8662,7.001,7.9814a11.6623,11.6623,0,0,1-.105,1.4346Zm9.0307-2.2051c.0352-1.96-.8051-5.0059-4.2705-5.0059-3.1152,0-4.48,2.8711-4.7251,5.0059Z"/><path d="M365.6768,44.9629v4.8662h4.4106v2.3447h-4.4106V61.31c0,2.1006.5952,3.291,2.31,3.291a6.88,6.88,0,0,0,1.7857-.21l.14,2.31a7.5367,7.5367,0,0,1-2.73.42,4.27,4.27,0,0,1-3.3257-1.2949c-.875-.91-1.19-2.415-1.19-4.41V52.1738H360.041V49.8291h2.6255v-4.06Z"/><path d="M20.3042,91.8291l3.3252,9.52a43.5461,43.5461,0,0,1,1.3652,4.3408H25.1c.3848-1.4.875-2.8008,1.4351-4.3408l3.29-9.52h3.22l-6.6509,16.9414h-2.94l-6.44-16.9414Z"/><path d="M39.3789,87.0684a1.9078,1.9078,0,0,1-3.8154,0,1.8772,1.8772,0,0,1,1.9248-1.9258A1.8291,1.8291,0,0,1,39.3789,87.0684Zm-3.4307,21.7021V91.8291h3.0806v16.9414Z"/><path d="M58.77,83.918v20.4775c0,1.5049.0347,3.22.14,4.375H56.1445l-.14-2.94h-.07a6.2662,6.2662,0,0,1-5.7759,3.3252c-4.0952,0-7.2456-3.4649-7.2456-8.61-.0352-5.6357,3.4653-9.1015,7.5957-9.1015A5.6648,5.6648,0,0,1,55.62,94.0342h.07V83.918ZM55.69,98.7246a5.4363,5.4363,0,0,0-.14-1.2949,4.5294,4.5294,0,0,0-4.4453-3.57c-3.1855,0-5.0757,2.8-5.0757,6.5449,0,3.4307,1.68,6.2656,5.0059,6.2656a4.6305,4.6305,0,0,0,4.5151-3.6748,5.3485,5.3485,0,0,0,.14-1.33Z"/><path d="M65.5933,100.8594c.07,4.166,2.73,5.8808,5.8105,5.8808a11.1355,11.1355,0,0,0,4.69-.875l.5249,2.2051a13.7176,13.7176,0,0,1-5.6352,1.05c-5.2158,0-8.3311-3.43-8.3311-8.54s3.01-9.1367,7.9458-9.1367c5.5308,0,7.001,4.8662,7.001,7.9814a11.6623,11.6623,0,0,1-.105,1.4346Zm9.0307-2.2051c.0352-1.96-.8052-5.0059-4.27-5.0059-3.1152,0-4.48,2.8711-4.7251,5.0059Z"/><path d="M81.4126,97.1143c0-1.9952-.0347-3.71-.14-5.2852h2.6953l.105,3.3252h.14a5.0835,5.0835,0,0,1,4.69-3.7109,3.3165,3.3165,0,0,1,.875.1054v2.9053a4.6057,4.6057,0,0,0-1.05-.1055c-2.17,0-3.71,1.6455-4.13,3.9561a8.6356,8.6356,0,0,0-.14,1.4346v9.0312H81.4126Z"/><path d="M94.2231,100.8594c.07,4.166,2.73,5.8808,5.8106,5.8808a11.1358,11.1358,0,0,0,4.69-.875l.5249,2.2051a13.7176,13.7176,0,0,1-5.6352,1.05c-5.2159,0-8.3311-3.43-8.3311-8.54s3.01-9.1367,7.9458-9.1367c5.5308,0,7.001,4.8662,7.001,7.9814a11.6623,11.6623,0,0,1-.105,1.4346Zm9.0308-2.2051c.0352-1.96-.8052-5.0059-4.27-5.0059-3.1152,0-4.4805,2.8711-4.7251,5.0059Z"/><path d="M121.1724,86.9629v4.8662h4.4106v2.3447h-4.4106V103.31c0,2.1006.5952,3.291,2.31,3.291a6.8728,6.8728,0,0,0,1.7852-.21l.14,2.31a7.5367,7.5367,0,0,1-2.73.42,4.27,4.27,0,0,1-3.3256-1.2949c-.875-.91-1.19-2.415-1.19-4.41V94.1738h-2.6255V91.8291h2.6255v-4.06Z"/><path d="M132.4775,87.0684a1.9078,1.9078,0,0,1-3.8154,0,1.8772,1.8772,0,0,1,1.9248-1.9258A1.8291,1.8291,0,0,1,132.4775,87.0684Zm-3.4306,21.7021V91.8291h3.0805v16.9414Z"/><path d="M137.2368,83.918h3.0806v24.8525h-3.0806Z"/><path d="M152.6011,105.0605a10.7934,10.7934,0,0,0,5.46,1.54c3.1153,0,4.9356-1.6455,4.9356-4.0254,0-2.2061-1.26-3.4658-4.4453-4.69-3.8506-1.3653-6.23-3.36-6.23-6.6866,0-3.6748,3.0449-6.4052,7.63-6.4052a10.7248,10.7248,0,0,1,5.2158,1.1552l-.84,2.4854a9.3975,9.3975,0,0,0-4.48-1.12c-3.22,0-4.4453,1.9248-4.4453,3.5351,0,2.2051,1.435,3.29,4.69,4.5508,3.99,1.54,6.02,3.4649,6.02,6.9307,0,3.6406-2.6953,6.79-8.2607,6.79a12.1934,12.1934,0,0,1-6.02-1.5049Z"/><path d="M185.7119,100.1592c0,6.2656-4.34,8.9961-8.4355,8.9961-4.5855,0-8.1211-3.36-8.1211-8.7158,0-5.67,3.71-8.9961,8.4009-8.9961C182.4219,91.4434,185.7119,94.98,185.7119,100.1592Zm-13.4414.1758c0,3.71,2.1353,6.5107,5.1455,6.5107,2.94,0,5.1455-2.7656,5.1455-6.5811,0-2.87-1.435-6.5107-5.0752-6.5107S172.2705,97.1143,172.2705,100.335Z"/><path d="M189.91,108.7705V94.1738h-2.38V91.8291h2.38v-.91c0-4.48,2.6254-7.3857,7.3857-7.3857a8.4717,8.4717,0,0,1,4.3057,1.12l-.875,2.3447a6.4824,6.4824,0,0,0-3.57-.9794c-3.2553,0-4.2006,2.2744-4.2006,4.97v.8408h9.8359v16.9414h-3.0449V94.1738h-6.791v14.5967Z"/><path d="M209.6152,100.8594c.07,4.166,2.7305,5.8808,5.8106,5.8808a11.1358,11.1358,0,0,0,4.69-.875l.5249,2.2051a13.7176,13.7176,0,0,1-5.6352,1.05c-5.2159,0-8.3311-3.43-8.3311-8.54s3.01-9.1367,7.9458-9.1367c5.5308,0,7.001,4.8662,7.001,7.9814a11.6623,11.6623,0,0,1-.105,1.4346Zm9.0308-2.2051c.0352-1.96-.8052-5.0059-4.27-5.0059-3.1152,0-4.48,2.8711-4.7251,5.0059Z"/></g></svg>
