<svg xmlns="http://www.w3.org/2000/svg" width="396" height="169" viewBox="0 0 396 169"><defs><style>.cls-1{fill:#f09638;}</style></defs><title>svar5</title><g id="Spørgsmål"><rect class="cls-1" x="8" y="11" width="380" height="147" rx="45.727"/><path d="M24.2637,44.1777v9.8711H35.6758V44.1777h3.08V67.7705h-3.08V56.709H24.2637V67.7705H21.2188V44.1777Z"/><path d="M53.3145,67.7705,53.07,65.6357h-.1055a6.3107,6.3107,0,0,1-5.1806,2.52A4.8266,4.8266,0,0,1,42.6035,63.29c0-4.0957,3.6406-6.3359,10.1856-6.3007v-.35c0-1.4-.3848-3.9208-3.85-3.9208a8.4349,8.4349,0,0,0-4.41,1.2607l-.7012-2.03a10.517,10.517,0,0,1,5.5664-1.5058c5.18,0,6.4405,3.5361,6.4405,6.9306V63.71a23.7614,23.7614,0,0,0,.28,4.06Zm-.4551-8.6455c-3.36-.07-7.1758.5244-7.1758,3.8154A2.7255,2.7255,0,0,0,48.59,65.88a4.2139,4.2139,0,0,0,4.0948-2.835,3.2266,3.2266,0,0,0,.1748-.98Z"/><path d="M60.8027,55.4141c0-1.75-.0341-3.1856-.14-4.585h2.73l.1748,2.8h.07a6.23,6.23,0,0,1,5.6006-3.1855c2.3447,0,5.9853,1.4,5.9853,7.2109V67.7705h-3.08V58.0049c0-2.73-1.0156-5.0059-3.92-5.0059a4.5168,4.5168,0,0,0-4.3408,4.585V67.7705H60.8027Z"/><path d="M87.2275,64.62a8.0776,8.0776,0,0,0,4.0606,1.2256c2.24,0,3.29-1.12,3.29-2.52,0-1.4707-.875-2.2754-3.15-3.1152-3.0449-1.085-4.48-2.7657-4.48-4.7959,0-2.73,2.205-4.9707,5.8457-4.9707a8.4551,8.4551,0,0,1,4.166,1.0507l-.77,2.24a6.5935,6.5935,0,0,0-3.4658-.98c-1.82,0-2.835,1.05-2.835,2.3106,0,1.3994,1.0146,2.03,3.22,2.87,2.9414,1.12,4.4463,2.59,4.4463,5.11,0,2.9756-2.3105,5.0752-6.3359,5.0752a9.6754,9.6754,0,0,1-4.7608-1.1543Z"/><path d="M102.627,50.8291,106.3379,60.84c.3848,1.12.8047,2.45,1.085,3.4649h.07c.3154-1.0147.665-2.31,1.0849-3.5352l3.36-9.94h3.2549l-4.62,12.0762c-2.205,5.8105-3.71,8.7861-5.8105,10.6054a8.3446,8.3446,0,0,1-3.78,1.9952l-.7695-2.59a8.1634,8.1634,0,0,0,2.6953-1.5049,9.3424,9.3424,0,0,0,2.59-3.4306,2.2117,2.2117,0,0,0,.2442-.7354,2.6831,2.6831,0,0,0-.209-.8047L99.2676,50.8291Z"/><path d="M117.9922,55.4141c0-1.75-.0352-3.1856-.1406-4.585h2.73l.1758,2.8h.07a6.2286,6.2286,0,0,1,5.6-3.1855c2.3457,0,5.9864,1.4,5.9864,7.2109V67.7705h-3.08V58.0049c0-2.73-1.0156-5.0059-3.9209-5.0059a4.52,4.52,0,0,0-4.3408,4.585V67.7705h-3.08Z"/><path d="M140.9873,45.9629v4.8662h4.4111v2.3447h-4.4111V62.31c0,2.1006.5947,3.291,2.31,3.291a6.884,6.884,0,0,0,1.7861-.21l.14,2.31a7.5385,7.5385,0,0,1-2.7305.42,4.2689,4.2689,0,0,1-3.3252-1.2949c-.875-.91-1.19-2.415-1.19-4.41V53.1738h-2.625V50.8291h2.625v-4.06Z"/><path d="M150.3672,59.8594c.07,4.166,2.7305,5.8808,5.81,5.8808a11.1441,11.1441,0,0,0,4.6914-.875l.5245,2.2051a13.7214,13.7214,0,0,1-5.6358,1.05c-5.2148,0-8.33-3.43-8.33-8.54s3.01-9.1367,7.9453-9.1367c5.5313,0,7.001,4.8662,7.001,7.9814a11.7854,11.7854,0,0,1-.1045,1.4346Zm9.0312-2.2051c.0352-1.96-.8046-5.0059-4.27-5.0059-3.1152,0-4.48,2.8711-4.7256,5.0059Z"/><path d="M165.7676,64.62a8.074,8.074,0,0,0,4.0605,1.2256c2.24,0,3.2891-1.12,3.2891-2.52,0-1.4707-.875-2.2754-3.15-3.1152-3.0449-1.085-4.4805-2.7657-4.4805-4.7959,0-2.73,2.2061-4.9707,5.8457-4.9707a8.4517,8.4517,0,0,1,4.166,1.0507l-.7695,2.24a6.599,6.599,0,0,0-3.4658-.98c-1.82,0-2.835,1.05-2.835,2.3106,0,1.3994,1.0147,2.03,3.22,2.87,2.94,1.12,4.4463,2.59,4.4463,5.11,0,2.9756-2.3106,5.0752-6.336,5.0752a9.6719,9.6719,0,0,1-4.7607-1.1543Z"/><path d="M202.0977,42.918V63.3955c0,1.5049.0351,3.22.1406,4.375h-2.7656l-.1407-2.94h-.0693a6.2669,6.2669,0,0,1-5.7764,3.3252c-4.0947,0-7.2451-3.4649-7.2451-8.61-.0351-5.6357,3.4658-9.1015,7.5957-9.1015a5.663,5.663,0,0,1,5.11,2.5908h.07V42.918Zm-3.08,14.8066a5.4163,5.4163,0,0,0-.1406-1.2949,4.5291,4.5291,0,0,0-4.4454-3.57c-3.1855,0-5.0752,2.8-5.0752,6.5449,0,3.4307,1.6807,6.2656,5.0059,6.2656a4.6294,4.6294,0,0,0,4.5147-3.6748,5.3292,5.3292,0,0,0,.1406-1.33Z"/><path d="M208.9219,59.8594c.0693,4.166,2.73,5.8808,5.8105,5.8808a11.1277,11.1277,0,0,0,4.6895-.875l.5254,2.2051a13.7157,13.7157,0,0,1-5.6348,1.05c-5.2168,0-8.332-3.43-8.332-8.54s3.0107-9.1367,7.9463-9.1367c5.53,0,7.0009,4.8662,7.0009,7.9814a11.5656,11.5656,0,0,1-.1054,1.4346Zm9.03-2.2051c.0352-1.96-.8056-5.0059-4.27-5.0059-3.1152,0-4.48,2.8711-4.7246,5.0059Z"/><path d="M228.4512,45.9629v4.8662h4.41v2.3447h-4.41V62.31c0,2.1006.5957,3.291,2.31,3.291a6.8759,6.8759,0,0,0,1.7852-.21l.14,2.31a7.5356,7.5356,0,0,1-2.73.42,4.2711,4.2711,0,0,1-3.3261-1.2949c-.875-.91-1.19-2.415-1.19-4.41V53.1738h-2.626V50.8291h2.626v-4.06Z"/><path d="M245.4609,59.8594c.0694,4.166,2.73,5.8808,5.8106,5.8808a11.1272,11.1272,0,0,0,4.6894-.875l.5254,2.2051a13.7148,13.7148,0,0,1-5.6347,1.05c-5.2168,0-8.3321-3.43-8.3321-8.54s3.0108-9.1367,7.9463-9.1367c5.53,0,7.001,4.8662,7.001,7.9814a11.5417,11.5417,0,0,1-.1055,1.4346Zm9.03-2.2051c.0352-1.96-.8057-5.0059-4.27-5.0059-3.1152,0-4.4805,2.8711-4.7246,5.0059Z"/><path d="M261.2793,56.1143c0-1.9952-.0342-3.71-.14-5.2852h2.6954l.1045,3.3252h.1406a5.0825,5.0825,0,0,1,4.69-3.7109,3.3165,3.3165,0,0,1,.875.1054v2.9053a4.6088,4.6088,0,0,0-1.05-.1055c-2.17,0-3.7109,1.6455-4.1309,3.9561a8.6386,8.6386,0,0,0-.14,1.4346v9.0312h-3.0459Z"/><path d="M280.459,67.7705V53.1738h-2.38V50.8291h2.38v-.8057c0-2.38.5254-4.55,1.9609-5.915a5.8926,5.8926,0,0,1,4.13-1.5752,7.1694,7.1694,0,0,1,2.626.4893l-.4209,2.3808a4.6018,4.6018,0,0,0-1.96-.3847c-2.625,0-3.291,2.31-3.291,4.9v.91H287.6v2.3447h-4.0957V67.7705Z"/><path d="M291.625,59.8594c.0693,4.166,2.7295,5.8808,5.81,5.8808a11.1277,11.1277,0,0,0,4.69-.875L302.65,67.07a13.7157,13.7157,0,0,1-5.6348,1.05c-5.2168,0-8.332-3.43-8.332-8.54s3.0107-9.1367,7.9463-9.1367c5.53,0,7.001,4.8662,7.001,7.9814a11.5615,11.5615,0,0,1-.1055,1.4346Zm9.03-2.2051c.0351-1.96-.8057-5.0059-4.2705-5.0059-3.1153,0-4.4805,2.8711-4.7246,5.0059Z"/><path d="M322.0762,42.918V63.3955c0,1.5049.0342,3.22.1386,4.375H319.45l-.14-2.94h-.07a6.2653,6.2653,0,0,1-5.7754,3.3252c-4.0957,0-7.246-3.4649-7.246-8.61-.0352-5.6357,3.4648-9.1015,7.5957-9.1015a5.667,5.667,0,0,1,5.1113,2.5908h.0693V42.918Zm-3.0811,14.8066a5.4613,5.4613,0,0,0-.14-1.2949,4.53,4.53,0,0,0-4.4453-3.57c-3.1856,0-5.0762,2.8-5.0762,6.5449,0,3.4307,1.68,6.2656,5.0058,6.2656a4.632,4.632,0,0,0,4.5157-3.6748,5.373,5.373,0,0,0,.14-1.33Z"/><path d="M330.8945,45.9629v4.8662h4.41v2.3447h-4.41V62.31c0,2.1006.5948,3.291,2.31,3.291a6.87,6.87,0,0,0,1.7852-.21l.14,2.31a7.528,7.528,0,0,1-2.7295.42,4.2677,4.2677,0,0,1-3.3252-1.2949c-.875-.91-1.19-2.415-1.19-4.41V53.1738h-2.626V50.8291h2.626v-4.06Z"/><path d="M36.4453,101.1592c0,6.2656-4.34,8.9961-8.4355,8.9961-4.586,0-8.1211-3.36-8.1211-8.7158,0-5.67,3.7109-8.9961,8.4-8.9961C33.1553,92.4434,36.4453,95.98,36.4453,101.1592Zm-13.4414.1758c0,3.71,2.1348,6.5107,5.1455,6.5107,2.94,0,5.1455-2.7656,5.1455-6.5811,0-2.87-1.4355-6.5107-5.0752-6.5107S23.0039,98.1143,23.0039,101.335Z"/><path d="M54.9258,92.8291c-.07,1.2246-.1406,2.59-.1406,4.6553V107.32c0,3.8858-.77,6.2656-2.4151,7.7354a8.9778,8.9778,0,0,1-6.1611,2.03,10.9333,10.9333,0,0,1-5.6348-1.3994l.77-2.3457a9.5517,9.5517,0,0,0,4.9707,1.33c3.15,0,5.4609-1.6455,5.4609-5.915v-1.8907h-.07a6.0483,6.0483,0,0,1-5.3906,2.835c-4.2012,0-7.211-3.57-7.211-8.2607,0-5.74,3.7461-8.9961,7.6309-8.9961a5.6327,5.6327,0,0,1,5.2851,2.94h.07l.1407-2.5547ZM51.74,99.5146a4.3692,4.3692,0,0,0-.1757-1.4A4.4356,4.4356,0,0,0,47.26,94.8594c-2.94,0-5.041,2.4844-5.041,6.4052,0,3.3252,1.68,6.0909,5.0058,6.0909a4.5031,4.5031,0,0,0,4.27-3.15A5.3679,5.3679,0,0,0,51.74,102.56Z"/><path d="M81.9092,92.8291c-.07,1.2246-.14,2.59-.14,4.6553V107.32c0,3.8858-.77,6.2656-2.416,7.7354a8.9753,8.9753,0,0,1-6.16,2.03,10.9345,10.9345,0,0,1-5.6358-1.3994l.7705-2.3457a9.5492,9.5492,0,0,0,4.9707,1.33c3.15,0,5.46-1.6455,5.46-5.915v-1.8907H78.69a6.0486,6.0486,0,0,1-5.3907,2.835c-4.2011,0-7.2109-3.57-7.2109-8.2607,0-5.74,3.7451-8.9961,7.6309-8.9961a5.6351,5.6351,0,0,1,5.2851,2.94h.07l.14-2.5547Zm-3.1856,6.6855a4.3673,4.3673,0,0,0-.1748-1.4,4.4375,4.4375,0,0,0-4.3056-3.2549c-2.94,0-5.04,2.4844-5.04,6.4052,0,3.3252,1.68,6.0909,5.0059,6.0909a4.5028,4.5028,0,0,0,4.2695-3.15,5.3377,5.3377,0,0,0,.2451-1.6455Z"/><path d="M86.667,98.1143c0-1.9952-.0352-3.71-.14-5.2852h2.6954l.1044,3.3252h.14a5.0846,5.0846,0,0,1,4.6914-3.7109,3.3218,3.3218,0,0,1,.875.1054v2.9053a4.618,4.618,0,0,0-1.0508-.1055c-2.17,0-3.71,1.6455-4.13,3.9561a8.6386,8.6386,0,0,0-.14,1.4346v9.0312H86.667Z"/><path d="M101.6826,88.0684a1.9078,1.9078,0,0,1-3.8154,0,1.8772,1.8772,0,0,1,1.9248-1.9258A1.8291,1.8291,0,0,1,101.6826,88.0684ZM98.252,109.7705V92.8291h3.08v16.9414Z"/><path d="M106.4414,97.4141c0-1.75-.0342-3.1856-.14-4.585h2.73l.1748,2.8h.07a6.23,6.23,0,0,1,5.6006-3.1855c2.3448,0,5.9854,1.4,5.9854,7.2109v10.1162h-3.08v-9.7656c0-2.7305-1.0156-5.0059-3.92-5.0059a4.5165,4.5165,0,0,0-4.3408,4.585v10.1865h-3.0811Z"/><path d="M127.582,101.8594c.07,4.166,2.7305,5.8808,5.8106,5.8808a11.1358,11.1358,0,0,0,4.69-.875l.5244,2.2051a13.7113,13.7113,0,0,1-5.6347,1.05c-5.2159,0-8.3311-3.43-8.3311-8.54s3.0107-9.1367,7.9463-9.1367c5.53,0,7,4.8662,7,7.9814a11.7854,11.7854,0,0,1-.1045,1.4346Zm9.0313-2.2051c.0351-1.96-.8057-5.0059-4.2715-5.0059-3.1152,0-4.4805,2.8711-4.7246,5.0059Z"/><path d="M143.4014,98.1143c0-1.9952-.0352-3.71-.14-5.2852h2.6953l.1045,3.3252h.14a5.0845,5.0845,0,0,1,4.6914-3.7109,3.3218,3.3218,0,0,1,.875.1054v2.9053a4.6186,4.6186,0,0,0-1.0508-.1055c-2.17,0-3.71,1.6455-4.13,3.9561a8.6386,8.6386,0,0,0-.14,1.4346v9.0312h-3.0459Z"/><path d="M171.6465,109.7705l-.2442-2.1348h-.1054a6.3109,6.3109,0,0,1-5.1807,2.52,4.8266,4.8266,0,0,1-5.1807-4.8653c0-4.0957,3.6407-6.3359,10.1856-6.3007v-.35c0-1.4-.3848-3.9208-3.85-3.9208a8.4349,8.4349,0,0,0-4.41,1.2607l-.7011-2.03a10.5165,10.5165,0,0,1,5.5664-1.5058c5.18,0,6.44,3.5361,6.44,6.9306v6.336a23.7506,23.7506,0,0,0,.28,4.0605Zm-.4551-8.6455c-3.36-.07-7.1758.5244-7.1758,3.8154a2.7255,2.7255,0,0,0,2.9063,2.94,4.2136,4.2136,0,0,0,4.0947-2.835,3.2266,3.2266,0,0,0,.1748-.98Z"/><path d="M179.45,109.7705V95.1738h-2.38V92.8291h2.38v-.8057c0-2.38.5254-4.55,1.96-5.915a5.8964,5.8964,0,0,1,4.1308-1.5752,7.1591,7.1591,0,0,1,2.625.4893l-.42,2.3808a4.6018,4.6018,0,0,0-1.96-.3847c-2.6259,0-3.29,2.31-3.29,4.9v.91h4.0957v2.3447h-4.0957v14.5967Z"/><path d="M211.4062,84.918v20.4775c0,1.5049.0352,3.22.14,4.375h-2.7647l-.1406-2.94h-.07a6.2655,6.2655,0,0,1-5.7754,3.3252c-4.0957,0-7.2461-3.4649-7.2461-8.61-.0351-5.6357,3.4658-9.1015,7.5957-9.1015a5.6647,5.6647,0,0,1,5.1114,2.5908h.07V84.918Zm-3.08,14.8066a5.4114,5.4114,0,0,0-.1407-1.2949,4.5289,4.5289,0,0,0-4.4453-3.57c-3.1855,0-5.0761,2.8-5.0761,6.5449,0,3.4307,1.6806,6.2656,5.0058,6.2656a4.631,4.631,0,0,0,4.5156-3.6748,5.3244,5.3244,0,0,0,.1407-1.33Z"/><path d="M218.23,101.8594c.0693,4.166,2.7305,5.8808,5.81,5.8808a11.1363,11.1363,0,0,0,4.6905-.875l.5254,2.2051a13.7252,13.7252,0,0,1-5.6358,1.05c-5.2158,0-8.331-3.43-8.331-8.54s3.01-9.1367,7.9453-9.1367c5.5312,0,7.0019,4.8662,7.0019,7.9814a11.5656,11.5656,0,0,1-.1054,1.4346Zm9.03-2.2051c.0351-1.96-.8047-5.0059-4.27-5.0059-3.1152,0-4.48,2.8711-4.7256,5.0059Z"/><path d="M237.76,87.9629v4.8662h4.41v2.3447h-4.41V104.31c0,2.1006.5947,3.291,2.3095,3.291a6.87,6.87,0,0,0,1.7852-.21l.14,2.31a7.5276,7.5276,0,0,1-2.73.42,4.2673,4.2673,0,0,1-3.3251-1.2949c-.875-.91-1.1905-2.415-1.1905-4.41V95.1738h-2.626V92.8291h2.626v-4.06Z"/></g></svg>
