<svg xmlns="http://www.w3.org/2000/svg" width="394" height="165" viewBox="0 0 394 165"><defs><style>.cls-1{fill:#f09638;}</style></defs><title>svar3</title><g id="Spørgsmål"><rect class="cls-1" x="6" y="7" width="380" height="147" rx="45.727"/><path d="M44.2617,65.9668V40.9209h1.69V51.86H61.0718V40.9209h1.6894V65.9668H61.0718V53.4648H45.9512v12.502Z"/><path d="M69.73,64.7842a5.1691,5.1691,0,0,1-1.8159-3.97v-12.84H69.603v12.84a4.0333,4.0333,0,0,0,1.3091,2.998,4.4663,4.4663,0,0,0,3.168,1.2256,5.4823,5.4823,0,0,0,3.9277-1.69,7.7025,7.7025,0,0,0,2.1963-4.2666V47.9746h1.69V65.9668h-1.69v-3.168a6.0138,6.0138,0,0,1-2.45,2.6612,7.0994,7.0994,0,0,1-3.6743.9716A6.25,6.25,0,0,1,69.73,64.7842Z"/><path d="M87.3,65.9668V47.9746h1.6895v3.041a5.7634,5.7634,0,0,1,2.3227-2.5342,6.72,6.72,0,0,1,7.9829.76,5.5847,5.5847,0,0,1,1.9,4.2236v12.502H99.5059V53.4648a4.189,4.189,0,0,0-1.3936-3.1679,4.7069,4.7069,0,0,0-3.3369-1.3086,5.5593,5.5593,0,0,0-3.7588,1.4355,6.2335,6.2335,0,0,0-2.0273,3.6748V65.9668Z"/><path d="M119.8213,65.9668V40.9209h1.6894V57.3086l9.63-9.334h2.1118l-6.9267,6.5889,7.729,11.4033h-1.7739l-7.0533-10.2637-3.7168,3.5479v6.7158Z"/><path d="M137.56,65.1221a4.3679,4.3679,0,0,1-.0425-7.18,8.066,8.066,0,0,1,4.5615-1.7744,18.8594,18.8594,0,0,0,4.3506-.8448q1.7315-.59,1.7314-1.3935V52.3242a2.7967,2.7967,0,0,0-1.52-2.3652,7.1811,7.1811,0,0,0-7.1377-.042,2.7607,2.7607,0,0,0-1.436,2.2812v.9288h-1.605V52.0293a3.6642,3.6642,0,0,1,1.9-3.084,8.3148,8.3148,0,0,1,4.646-1.2666,8.916,8.916,0,0,1,4.7729,1.2246,3.5014,3.5014,0,0,1,1.9849,2.9571V62.7568a3.4132,3.4132,0,0,0,.4649,1.8164,1.3363,1.3363,0,0,0,1.14.76,1.5681,1.5681,0,0,0,.38-.042.5288.5288,0,0,0,.2534-.1269v.8027a3.8134,3.8134,0,0,1-1.605.2959,2.16,2.16,0,0,1-1.69-.8447,3.1455,3.1455,0,0,1-.6757-2.0274,4.29,4.29,0,0,1-2.1543,2.3233,7.9,7.9,0,0,1-3.8013.8867A7.0331,7.0331,0,0,1,137.56,65.1221Zm8.4892-1.2666a5.9116,5.9116,0,0,0,2.1118-3.6748v-4.14a5.1169,5.1169,0,0,1-2.1538.8447,29.7709,29.7709,0,0,1-3.9282.55,5.6453,5.6453,0,0,0-3.3364,1.3516,3.4359,3.4359,0,0,0-1.3516,2.7031,3.325,3.325,0,0,0,1.3936,2.7032,4.9381,4.9381,0,0,0,3.2944,1.14A5.9407,5.9407,0,0,0,146.0493,63.8555Z"/><path d="M155.2568,65.9668V47.9746h1.69v3.041a5.7593,5.7593,0,0,1,2.3232-2.5342,6.7191,6.7191,0,0,1,7.9825.76,5.5832,5.5832,0,0,1,1.9,4.2236v12.502h-1.6894V53.4648a4.1907,4.1907,0,0,0-1.3936-3.1679,4.706,4.706,0,0,0-3.3369-1.3086,5.56,5.56,0,0,0-3.7588,1.4355,6.2282,6.2282,0,0,0-2.0273,3.6748V65.9668Z"/><path d="M187.7783,65.9668V47.9746h1.69v4.0547a7.655,7.655,0,0,1,2.1123-3.168,4.7137,4.7137,0,0,1,3.041-1.1826h.9707v1.9424a.6681.6681,0,0,1-.2949-.084.4392.4392,0,0,0-.17-.085,4.86,4.86,0,0,0-3.59,1.6895,8.1229,8.1229,0,0,0-2.0693,4.2666V65.9668Z"/><path d="M198.5479,40.9209h1.6894v2.5762h-1.6894Zm0,25.0459V47.9746h1.6894V65.9668Z"/><path d="M206.1924,64.7422a5.1556,5.1556,0,0,1-2.0274-4.0967h1.5635a3.9515,3.9515,0,0,0,1.5625,3.125,5.7787,5.7787,0,0,0,3.7588,1.2676,6.7919,6.7919,0,0,0,4.0967-1.1406,3.7245,3.7245,0,0,0,1.52-3.083,2.9041,2.9041,0,0,0-1.6045-2.45,10.162,10.162,0,0,0-4.3086-1.2247,8.3124,8.3124,0,0,1-4.5615-1.6054,4.0845,4.0845,0,0,1-1.7315-3.336,3.9936,3.9936,0,0,1,1.7315-3.4638A8.314,8.314,0,0,1,211.05,47.51a7.8635,7.8635,0,0,1,4.7725,1.31,4.1091,4.1091,0,0,1,1.8164,3.5049h-1.6055a3.8751,3.8751,0,0,0-1.6045-2.5762,5.7085,5.7085,0,0,0-3.3789-.9287,6.3108,6.3108,0,0,0-3.6318.9287,2.8453,2.8453,0,0,0-1.3516,2.45,2.8972,2.8972,0,0,0,1.6465,2.4493,10.1452,10.1452,0,0,0,4.3086,1.2246,8.0945,8.0945,0,0,1,4.56,1.6894,4.688,4.688,0,0,1-.2949,7.4336,8.6179,8.6179,0,0,1-5.2373,1.4365A7.2394,7.2394,0,0,1,206.1924,64.7422Z"/><path d="M222.2,40.9209H223.89v2.5762H222.2Zm0,25.0459V47.9746H223.89V65.9668Z"/><path d="M229.2959,65.9668V40.9209h1.69V57.3086l9.63-9.334h2.1114l-6.9258,6.5889,7.7285,11.4033h-1.7734l-7.0538-10.2637-3.7167,3.5479v6.7158Z"/><path d="M247.7109,63.9814a10.6556,10.6556,0,0,1-2.1972-7.0107,10.66,10.66,0,0,1,2.1972-7.0117,7.2258,7.2258,0,0,1,5.8282-2.6182,7.51,7.51,0,0,1,5.8281,2.4072,9.1566,9.1566,0,0,1,2.1973,6.42v.8027H247.2031a9.2177,9.2177,0,0,0,1.7324,5.8711,5.5685,5.5685,0,0,0,4.6036,2.1963,6.9175,6.9175,0,0,0,3.8857-1.1406,6.1017,6.1017,0,0,0,2.45-3.083h1.69a6.3067,6.3067,0,0,1-2.7032,4.1386,8.8563,8.8563,0,0,1-5.3222,1.6475A7.2237,7.2237,0,0,1,247.7109,63.9814Zm12.1641-8.6162v-.6328a6.4093,6.4093,0,0,0-2.0273-4.2236,6.2148,6.2148,0,0,0-4.3086-1.69,5.98,5.98,0,0,0-4.2657,1.7315,6.5574,6.5574,0,0,0-2.07,4.3506v.4638Z"/><path d="M265.5342,65.9668V47.9746h1.6894v4.0547a7.655,7.655,0,0,1,2.1123-3.168,4.7139,4.7139,0,0,1,3.0411-1.1826h.9707v1.9424a.6688.6688,0,0,1-.295-.084.4385.4385,0,0,0-.17-.085,4.86,4.86,0,0,0-3.59,1.6895,8.1238,8.1238,0,0,0-2.0694,4.2666V65.9668Z"/><path d="M277.4023,63.9814a10.6556,10.6556,0,0,1-2.1972-7.0107,10.66,10.66,0,0,1,2.1972-7.0117,7.2258,7.2258,0,0,1,5.8282-2.6182,7.51,7.51,0,0,1,5.8281,2.4072,9.1566,9.1566,0,0,1,2.1973,6.42v.8027H276.8945a9.2172,9.2172,0,0,0,1.7325,5.8711,5.5682,5.5682,0,0,0,4.6035,2.1963,6.9175,6.9175,0,0,0,3.8857-1.1406,6.1017,6.1017,0,0,0,2.45-3.083h1.69a6.3067,6.3067,0,0,1-2.7032,4.1386,8.8563,8.8563,0,0,1-5.3222,1.6475A7.2237,7.2237,0,0,1,277.4023,63.9814Zm12.1641-8.6162v-.6328a6.4093,6.4093,0,0,0-2.0273-4.2236,6.2148,6.2148,0,0,0-4.3086-1.69,5.9805,5.9805,0,0,0-4.2657,1.7315,6.5574,6.5574,0,0,0-2.07,4.3506v.4638Z"/><path d="M309.1631,65.1221a4.3669,4.3669,0,0,1-.042-7.18,8.0634,8.0634,0,0,1,4.56-1.7744,18.8681,18.8681,0,0,0,4.3516-.8448q1.7314-.59,1.73-1.3935V52.3242a2.7956,2.7956,0,0,0-1.52-2.3652,7.1828,7.1828,0,0,0-7.1386-.042,2.7611,2.7611,0,0,0-1.4356,2.2812v.9288h-1.6054V52.0293a3.6652,3.6652,0,0,1,1.9-3.084,8.3156,8.3156,0,0,1,4.6465-1.2666,8.92,8.92,0,0,1,4.7735,1.2246,3.5029,3.5029,0,0,1,1.9843,2.9571V62.7568a3.4086,3.4086,0,0,0,.4649,1.8164,1.3365,1.3365,0,0,0,1.1406.76,1.561,1.561,0,0,0,.38-.042.5264.5264,0,0,0,.2529-.1269v.8027a3.8093,3.8093,0,0,1-1.6045.2959,2.1607,2.1607,0,0,1-1.6894-.8447,3.1478,3.1478,0,0,1-.6758-2.0274,4.2885,4.2885,0,0,1-2.1543,2.3233,7.9015,7.9015,0,0,1-3.8018.8867A7.0336,7.0336,0,0,1,309.1631,65.1221Zm8.4892-1.2666a5.9093,5.9093,0,0,0,2.1114-3.6748v-4.14a5.1124,5.1124,0,0,1-2.1533.8447,29.77,29.77,0,0,1-3.9288.55,5.6438,5.6438,0,0,0-3.3359,1.3516,3.4359,3.4359,0,0,0-1.3516,2.7031,3.3264,3.3264,0,0,0,1.3936,2.7032,4.9388,4.9388,0,0,0,3.2939,1.14A5.9411,5.9411,0,0,0,317.6523,63.8555Z"/><path d="M328,65.46a3.9277,3.9277,0,0,1-.9707-2.7032V49.2832h-2.5772V47.9746h2.5772V42.8633h1.69v5.1113h2.4492v1.3086h-2.4492V62.7568a3.0111,3.0111,0,0,0,.5488,1.8164,1.4877,1.4877,0,0,0,1.2666.76,2.5768,2.5768,0,0,0,1.31-.2949v1.2246a4.6045,4.6045,0,0,1-1.4356.3379A3.1233,3.1233,0,0,1,328,65.46Z"/><path d="M44.2617,106.7666V81.7207h1.69V98.1084l9.63-9.334h2.1118l-6.9268,6.5889,7.729,11.4033H56.7212L49.668,96.5029l-3.7168,3.5479v6.7158Z"/><path d="M62.7607,104.5283a9.611,9.611,0,0,1-2.3232-6.7578,10.2787,10.2787,0,0,1,2.3232-7.0117,7.7125,7.7125,0,0,1,6.1241-2.6182,7.7935,7.7935,0,0,1,6.1245,2.6182A10.4013,10.4013,0,0,1,77.29,97.7705a9.7214,9.7214,0,0,1-2.2807,6.7578,7.9141,7.9141,0,0,1-6.1245,2.5342A7.831,7.831,0,0,1,62.7607,104.5283Zm11.0235-1.0137a8.62,8.62,0,0,0,1.8164-5.7441,8.9952,8.9952,0,0,0-1.8164-5.9131,6.0556,6.0556,0,0,0-4.8994-2.2383,5.9788,5.9788,0,0,0-4.8994,2.2383,8.8535,8.8535,0,0,0-1.8584,5.9131,8.487,8.487,0,0,0,1.8584,5.7441,6.0778,6.0778,0,0,0,4.8994,2.1543A6.1568,6.1568,0,0,0,73.7842,103.5146Z"/><path d="M81.5557,106.7666V88.7744h1.6894v3.041a6.1194,6.1194,0,0,1,2.1538-2.5342,5.1465,5.1465,0,0,1,2.999-.9716,5.6389,5.6389,0,0,1,3.3365,1.0136,4.6843,4.6843,0,0,1,1.9009,2.6612,6.11,6.11,0,0,1,2.4072-2.6612,6.7228,6.7228,0,0,1,3.59-1.0136,5.7959,5.7959,0,0,1,4.1392,1.6474,5.3467,5.3467,0,0,1,1.6894,3.97v12.84H103.772v-12.84a4.2211,4.2211,0,0,0-1.2251-3.0411,3.8288,3.8288,0,0,0-2.9141-1.2666,5.1792,5.1792,0,0,0-3.5478,1.3936,6.004,6.004,0,0,0-1.9429,3.5478v12.2061H92.4526v-12.84a4.3891,4.3891,0,0,0-1.1406-3.0411,3.5647,3.5647,0,0,0-2.7451-1.2666,4.79,4.79,0,0,0-3.4214,1.4776,7.1849,7.1849,0,0,0-1.9,3.8017v11.8682Z"/><path d="M110.6138,106.7666V88.7744h1.6894v3.041a6.1194,6.1194,0,0,1,2.1538-2.5342,5.1465,5.1465,0,0,1,2.9991-.9716,5.6388,5.6388,0,0,1,3.3364,1.0136,4.6843,4.6843,0,0,1,1.9009,2.6612,6.11,6.11,0,0,1,2.4072-2.6612,6.7228,6.7228,0,0,1,3.59-1.0136A5.7959,5.7959,0,0,1,132.83,89.957a5.3467,5.3467,0,0,1,1.6894,3.97v12.84H132.83v-12.84a4.2211,4.2211,0,0,0-1.2251-3.0411,3.8288,3.8288,0,0,0-2.9141-1.2666,5.1792,5.1792,0,0,0-3.5478,1.3936A6.004,6.004,0,0,0,123.2,94.5605v12.2061h-1.6895v-12.84a4.3891,4.3891,0,0,0-1.1406-3.0411,3.5647,3.5647,0,0,0-2.7451-1.2666,4.79,4.79,0,0,0-3.4214,1.4776,7.1849,7.1849,0,0,0-1.9,3.8017v11.8682Z"/><path d="M140.77,104.7812a10.6579,10.6579,0,0,1-2.1963-7.0107,10.6626,10.6626,0,0,1,2.1963-7.0117,7.2281,7.2281,0,0,1,5.8286-2.6182,7.5115,7.5115,0,0,1,5.8286,2.4073,9.16,9.16,0,0,1,2.1963,6.42v.8027h-14.36a9.22,9.22,0,0,0,1.7314,5.8711,5.5694,5.5694,0,0,0,4.604,2.1963,6.9152,6.9152,0,0,0,3.8858-1.1406,6.0981,6.0981,0,0,0,2.45-3.083h1.6894a6.3011,6.3011,0,0,1-2.7031,4.1386,8.8527,8.8527,0,0,1-5.3218,1.6475A7.2259,7.2259,0,0,1,140.77,104.7812Zm12.1641-8.6162v-.6328a6.4044,6.4044,0,0,0-2.0274-4.2236,6.2116,6.2116,0,0,0-4.3081-1.6895,5.9814,5.9814,0,0,0-4.2661,1.7315,6.56,6.56,0,0,0-2.0693,4.3506v.4638Z"/><path d="M172.4883,106.7666V90.59h-2.8291V88.9434h2.8291V85.5645a3.6072,3.6072,0,0,1,1.1406-2.7032,3.7428,3.7428,0,0,1,2.7461-1.1406h1.0137v1.31h-.9717a1.9593,1.9593,0,0,0-1.5635.76,2.4936,2.4936,0,0,0-.6758,1.7745v3.3789h3.211V90.59h-3.211v16.1768Z"/><path d="M181.5273,104.5283a9.611,9.611,0,0,1-2.3232-6.7578,10.2787,10.2787,0,0,1,2.3232-7.0117,7.7126,7.7126,0,0,1,6.1241-2.6182,7.7924,7.7924,0,0,1,6.124,2.6182,10.3964,10.3964,0,0,1,2.2812,7.0117,9.7169,9.7169,0,0,1-2.2812,6.7578,7.9129,7.9129,0,0,1-6.124,2.5342A7.8311,7.8311,0,0,1,181.5273,104.5283Zm11.0235-1.0137a8.6173,8.6173,0,0,0,1.8164-5.7441,8.9925,8.9925,0,0,0-1.8164-5.9131,6.0556,6.0556,0,0,0-4.8994-2.2383,5.98,5.98,0,0,0-4.8994,2.2383,8.8535,8.8535,0,0,0-1.8584,5.9131,8.487,8.487,0,0,0,1.8584,5.7441,6.0784,6.0784,0,0,0,4.8994,2.1543A6.1568,6.1568,0,0,0,192.5508,103.5146Z"/><path d="M200.3223,106.7666V88.7744h1.6894v4.0547a7.6627,7.6627,0,0,1,2.1113-3.168,4.7141,4.7141,0,0,1,3.0411-1.1826h.9716v1.9424a.6757.6757,0,0,1-.2959-.084.4348.4348,0,0,0-.1679-.0849,4.8582,4.8582,0,0,0-3.5908,1.6894,8.123,8.123,0,0,0-2.0694,4.2666v10.5586Z"/><path d="M224.6074,106.7666V88.7744h1.6895v4.0547a7.6531,7.6531,0,0,1,2.1113-3.168,4.7137,4.7137,0,0,1,3.041-1.1826h.9707v1.9424a.6716.6716,0,0,1-.2949-.084.43.43,0,0,0-.1689-.0849,4.8614,4.8614,0,0,0-3.5909,1.6894,8.1151,8.1151,0,0,0-2.0683,4.2666v10.5586Z"/><path d="M236.4746,104.7812a10.6552,10.6552,0,0,1-2.1963-7.0107,10.66,10.66,0,0,1,2.1963-7.0117,7.2271,7.2271,0,0,1,5.8281-2.6182,7.5111,7.5111,0,0,1,5.8291,2.4073,9.16,9.16,0,0,1,2.1963,6.42v.8027h-14.36a9.2229,9.2229,0,0,0,1.7314,5.8711,5.57,5.57,0,0,0,4.6035,2.1963,6.9185,6.9185,0,0,0,3.8868-1.1406,6.1049,6.1049,0,0,0,2.4492-3.083h1.6894a6.2993,6.2993,0,0,1-2.7031,4.1386,8.8542,8.8542,0,0,1-5.3223,1.6475A7.225,7.225,0,0,1,236.4746,104.7812Zm12.1641-8.6162v-.6328a6.4,6.4,0,0,0-2.0274-4.2236,6.2128,6.2128,0,0,0-4.3086-1.6895,5.9818,5.9818,0,0,0-4.2656,1.7315,6.56,6.56,0,0,0-2.0693,4.3506v.4638Z"/><path d="M255.4375,106.26a3.9318,3.9318,0,0,1-.9707-2.7032V90.083h-2.5762V88.7744h2.5762V83.6631h1.6894v5.1113h2.4493V90.083h-2.4493v13.4736a3.0179,3.0179,0,0,0,.5489,1.8164,1.488,1.488,0,0,0,1.2676.76,2.5725,2.5725,0,0,0,1.3085-.2949v1.2246a4.6034,4.6034,0,0,1-1.4355.3379A3.1233,3.1233,0,0,1,255.4375,106.26Z"/><path d="M263.42,106.26a3.9323,3.9323,0,0,1-.9707-2.7032V90.083H259.873V88.7744h2.5762V83.6631h1.6895v5.1113h2.4492V90.083h-2.4492v13.4736a3.0178,3.0178,0,0,0,.5488,1.8164,1.4881,1.4881,0,0,0,1.2676.76,2.5729,2.5729,0,0,0,1.3086-.2949v1.2246a4.6045,4.6045,0,0,1-1.4356.3379A3.1233,3.1233,0,0,1,263.42,106.26Z"/><path d="M271.3613,104.7812a10.6556,10.6556,0,0,1-2.1972-7.0107,10.66,10.66,0,0,1,2.1972-7.0117,7.2258,7.2258,0,0,1,5.8282-2.6182,7.5092,7.5092,0,0,1,5.8281,2.4073,9.1561,9.1561,0,0,1,2.1972,6.42v.8027H270.8535a9.2177,9.2177,0,0,0,1.7324,5.8711,5.5685,5.5685,0,0,0,4.6036,2.1963,6.9175,6.9175,0,0,0,3.8857-1.1406,6.1017,6.1017,0,0,0,2.45-3.083h1.6894a6.3066,6.3066,0,0,1-2.7031,4.1386A8.8563,8.8563,0,0,1,277.19,107.4,7.2237,7.2237,0,0,1,271.3613,104.7812Zm12.1641-8.6162v-.6328a6.409,6.409,0,0,0-2.0274-4.2236,6.2143,6.2143,0,0,0-4.3085-1.6895,5.98,5.98,0,0,0-4.2657,1.7315,6.5569,6.5569,0,0,0-2.07,4.3506v.4638Z"/><path d="M289.1846,106.7666V88.7744h1.6894v3.041a5.76,5.76,0,0,1,2.3233-2.5342,6.719,6.719,0,0,1,7.9824.76,5.583,5.583,0,0,1,1.9,4.2236v12.502h-1.69V94.2646a4.1906,4.1906,0,0,0-1.3935-3.1679,4.706,4.706,0,0,0-3.3369-1.3086,5.56,5.56,0,0,0-3.7588,1.4355,6.2283,6.2283,0,0,0-2.0274,3.6748v11.8682Z"/><path d="M308.1914,104.19h2.4492v2.5762h-2.4492Z"/></g></svg>
