<svg xmlns="http://www.w3.org/2000/svg" width="399" height="173" viewBox="0 0 399 173"><defs><style>.cls-1{fill:#202531;}.cls-2{fill:#fff;}</style></defs><title>svar4</title><g id="Spørgsmål"><rect class="cls-1" x="6" y="13" width="380" height="147" rx="45.727"/><path class="cls-2" d="M23.2188,46.4932a43.5836,43.5836,0,0,1,6.4755-.49c4.3755,0,7.4912,1.0157,9.5562,2.9405,2.1,1.9248,3.3252,4.6552,3.3252,8.4707a12.4777,12.4777,0,0,1-3.395,9.1709C36.9751,68.79,33.335,69.9805,28.75,69.9805a48.96,48.96,0,0,1-5.5307-.28Zm3.0454,20.8623a19.2818,19.2818,0,0,0,3.0805.1748c6.51,0,10.0459-3.6407,10.0459-10.0108.0352-5.5654-3.1152-9.1015-9.5561-9.1015a17.3127,17.3127,0,0,0-3.57.3154Z"/><path class="cls-2" d="M48.2788,61.8594c.07,4.166,2.73,5.8808,5.8106,5.8808a11.1362,11.1362,0,0,0,4.69-.875l.5249,2.2051a13.7185,13.7185,0,0,1-5.6353,1.05c-5.2158,0-8.331-3.43-8.331-8.54s3.01-9.1367,7.9458-9.1367c5.5307,0,7.001,4.8662,7.001,7.9814a11.6825,11.6825,0,0,1-.105,1.4346ZM57.31,59.6543c.0351-1.96-.8052-5.0059-4.2705-5.0059-3.1153,0-4.48,2.8711-4.7251,5.0059Z"/><path class="cls-2" d="M64.0981,58.1143c0-1.9952-.0346-3.71-.14-5.2852h2.6953l.105,3.3252h.14a5.0836,5.0836,0,0,1,4.6905-3.7109,3.3165,3.3165,0,0,1,.875.1054v2.9053a4.6063,4.6063,0,0,0-1.05-.1055c-2.17,0-3.7105,1.6455-4.13,3.9561a8.6356,8.6356,0,0,0-.14,1.4346v9.0312H64.0981Z"/><path class="cls-2" d="M84.6777,61.8594c.07,4.166,2.73,5.8808,5.8106,5.8808a11.1358,11.1358,0,0,0,4.69-.875l.5249,2.2051a13.7176,13.7176,0,0,1-5.6352,1.05c-5.2159,0-8.3311-3.43-8.3311-8.54s3.01-9.1367,7.9458-9.1367c5.5308,0,7.001,4.8662,7.001,7.9814a11.6623,11.6623,0,0,1-.105,1.4346Zm9.0308-2.2051c.0352-1.96-.8052-5.0059-4.27-5.0059-3.1152,0-4.4805,2.8711-4.7251,5.0059Z"/><path class="cls-2" d="M100.4971,58.1143c0-1.9952-.0352-3.71-.14-5.2852h2.6953l.105,3.3252h.14a5.0835,5.0835,0,0,1,4.69-3.7109,3.323,3.323,0,0,1,.8755.1054v2.9053a4.6134,4.6134,0,0,0-1.05-.1055c-2.17,0-3.71,1.6455-4.13,3.9561a8.6356,8.6356,0,0,0-.14,1.4346v9.0312h-3.0454Z"/><path class="cls-2" d="M122.792,48.0684a1.9078,1.9078,0,0,1-3.8154,0,1.8771,1.8771,0,0,1,1.9248-1.9258A1.8292,1.8292,0,0,1,122.792,48.0684Zm-3.4307,21.7021V52.8291h3.0806V69.7705Z"/><path class="cls-2" d="M127.5513,57.4141c0-1.75-.0347-3.1856-.14-4.585h2.7305l.1748,2.8h.07a6.23,6.23,0,0,1,5.6006-3.1855c2.3452,0,5.9854,1.4,5.9854,7.2109V69.7705h-3.08V60.0049c0-2.73-1.0152-5.0059-3.92-5.0059a4.3766,4.3766,0,0,0-4.13,3.15,4.4251,4.4251,0,0,0-.21,1.4346V69.7705h-3.0805Z"/><path class="cls-2" d="M161.5723,52.8291c-.0694,1.2246-.14,2.59-.14,4.6553V67.32c0,3.8858-.77,6.2656-2.415,7.7354a8.9775,8.9775,0,0,1-6.1607,2.03,10.9341,10.9341,0,0,1-5.6357-1.3994l.77-2.3457a9.5517,9.5517,0,0,0,4.9707,1.33c3.15,0,5.46-1.6455,5.46-5.915V66.8652h-.0694a6.0483,6.0483,0,0,1-5.3906,2.835c-4.2007,0-7.2109-3.57-7.2109-8.2607,0-5.74,3.7456-8.9961,7.6308-8.9961a5.6364,5.6364,0,0,1,5.2862,2.94h.0693l.14-2.5547Zm-3.1856,6.6855a4.5029,4.5029,0,0,0-4.48-4.6552c-2.94,0-5.0405,2.4844-5.0405,6.4052,0,3.3252,1.68,6.0909,5.0059,6.0909a4.5041,4.5041,0,0,0,4.27-3.15,5.3665,5.3665,0,0,0,.2441-1.6455Z"/><path class="cls-2" d="M168.2559,61.8594c.07,4.166,2.73,5.8808,5.81,5.8808a11.1355,11.1355,0,0,0,4.69-.875l.5244,2.2051a13.7109,13.7109,0,0,1-5.6347,1.05c-5.2158,0-8.3311-3.43-8.3311-8.54s3.0108-9.1367,7.9463-9.1367c5.53,0,7,4.8662,7,7.9814a11.7854,11.7854,0,0,1-.1045,1.4346Zm9.0312-2.2051c.0352-1.96-.8057-5.0059-4.2715-5.0059-3.1152,0-4.48,2.8711-4.7246,5.0059Z"/><path class="cls-2" d="M184.0752,57.4141c0-1.75-.0352-3.1856-.14-4.585h2.7305l.1748,2.8h.0694a6.23,6.23,0,0,1,5.6015-3.1855c2.3447,0,5.9844,1.4,5.9844,7.2109V69.7705h-3.08V60.0049c0-2.73-1.0146-5.0059-3.92-5.0059a4.3777,4.3777,0,0,0-4.1309,3.15,4.44,4.44,0,0,0-.209,1.4346V69.7705h-3.081Z"/><path class="cls-2" d="M213.9648,60.6h.07c.42-.5947,1.0146-1.33,1.5048-1.9248l4.9707-5.8457h3.71l-6.5449,6.9658,7.4551,9.9756h-3.7452L215.54,61.6494l-1.5752,1.75v6.3711H210.92V44.918h3.0449Z"/><path class="cls-2" d="M242.666,61.1592c0,6.2656-4.3408,8.9961-8.4355,8.9961-4.586,0-8.1211-3.36-8.1211-8.7158,0-5.67,3.71-8.9961,8.4-8.9961C239.375,52.4434,242.666,55.98,242.666,61.1592Zm-13.4414.1758c0,3.71,2.1348,6.5107,5.1445,6.5107,2.9414,0,5.1465-2.7656,5.1465-6.5811,0-2.87-1.4355-6.5107-5.0761-6.5107S229.2246,58.1143,229.2246,61.335Z"/><path class="cls-2" d="M246.5488,57.4141c0-1.75-.0351-3.1856-.1406-4.585h2.7305l.1758,2.8h.07a6.2284,6.2284,0,0,1,5.6-3.1855c2.3457,0,5.9863,1.4,5.9863,7.2109V69.7705h-3.08V60.0049c0-2.73-1.0156-5.0059-3.9209-5.0059a4.52,4.52,0,0,0-4.3408,4.585V69.7705h-3.08Z"/><path class="cls-2" d="M265.5537,66.62a8.0776,8.0776,0,0,0,4.0606,1.2256c2.24,0,3.29-1.12,3.29-2.52,0-1.4707-.875-2.2754-3.15-3.1152-3.0449-1.085-4.4805-2.7657-4.4805-4.7959,0-2.73,2.2051-4.9707,5.8457-4.9707a8.4555,8.4555,0,0,1,4.1661,1.0507l-.7706,2.24a6.5929,6.5929,0,0,0-3.4658-.98c-1.82,0-2.8349,1.05-2.8349,2.3106,0,1.3994,1.0146,2.03,3.22,2.87,2.9414,1.12,4.4463,2.59,4.4463,5.11,0,2.9756-2.3106,5.0752-6.336,5.0752a9.675,9.675,0,0,1-4.7607-1.1543Z"/><path class="cls-2" d="M281.5488,61.8594c.07,4.166,2.73,5.8808,5.8106,5.8808a11.1358,11.1358,0,0,0,4.69-.875l.5244,2.2051a13.7113,13.7113,0,0,1-5.6347,1.05c-5.2159,0-8.3311-3.43-8.3311-8.54s3.0107-9.1367,7.9463-9.1367c5.53,0,7,4.8662,7,7.9814a11.7854,11.7854,0,0,1-.1045,1.4346Zm9.0313-2.2051c.0351-1.96-.8057-5.0059-4.2715-5.0059-3.1152,0-4.4805,2.8711-4.7246,5.0059Z"/><path class="cls-2" d="M300.4141,60.6h.0693c.4209-.5947,1.0146-1.33,1.5049-1.9248l4.9707-5.8457H310.67l-6.5459,6.9658,7.4561,9.9756H307.834l-5.8457-8.1211-1.5742,1.75v6.3711h-3.0459V44.918h3.0459Z"/><path class="cls-2" d="M315.4277,52.8291l3.3252,9.5205a43.8113,43.8113,0,0,1,1.3653,4.3408h.1045c.3847-1.4.875-2.8008,1.4355-4.3408l3.291-9.5205h3.22l-6.6513,16.9414h-2.94l-6.4414-16.9414Z"/><path class="cls-2" d="M332.4375,61.8594c.07,4.166,2.7305,5.8808,5.81,5.8808a11.1363,11.1363,0,0,0,4.69-.875l.5244,2.2051a13.7119,13.7119,0,0,1-5.6348,1.05c-5.2158,0-8.331-3.43-8.331-8.54s3.0107-9.1367,7.9463-9.1367c5.53,0,7,4.8662,7,7.9814a11.806,11.806,0,0,1-.1045,1.4346Zm9.0313-2.2051c.0351-1.96-.8057-5.0059-4.2715-5.0059-3.1153,0-4.4805,2.8711-4.7246,5.0059Z"/><path class="cls-2" d="M348.2568,57.4141c0-1.75-.0351-3.1856-.14-4.585h2.73l.1748,2.8h.0693a6.2306,6.2306,0,0,1,5.6016-3.1855c2.3447,0,5.9843,1.4,5.9843,7.2109V69.7705h-3.08V60.0049c0-2.73-1.0147-5.0059-3.92-5.0059a4.3777,4.3777,0,0,0-4.1308,3.15,4.4373,4.4373,0,0,0-.209,1.4346V69.7705h-3.0811Z"/><path class="cls-2" d="M374.8223,59.1641V61.44h-8.6455V59.1641Z"/><path class="cls-2" d="M22.6938,108.62a8.0763,8.0763,0,0,0,4.0606,1.2256c2.24,0,3.29-1.12,3.29-2.52,0-1.4707-.875-2.2754-3.15-3.1152-3.0449-1.085-4.48-2.7657-4.48-4.7959,0-2.7305,2.2055-4.9707,5.8457-4.9707a8.4515,8.4515,0,0,1,4.1655,1.0507l-.77,2.24a6.5945,6.5945,0,0,0-3.4653-.98c-1.82,0-2.8355,1.05-2.8355,2.3106,0,1.3994,1.0151,2.03,3.22,2.87,2.94,1.12,4.4458,2.59,4.4458,5.11,0,2.9756-2.3105,5.0752-6.3359,5.0752a9.6705,9.6705,0,0,1-4.76-1.1543Z"/><path class="cls-2" d="M38.689,103.8594c.07,4.166,2.73,5.8808,5.81,5.8808a11.1355,11.1355,0,0,0,4.69-.875l.5249,2.2051a13.7176,13.7176,0,0,1-5.6352,1.05c-5.2158,0-8.3311-3.43-8.3311-8.54s3.01-9.1367,7.9458-9.1367c5.5308,0,7.001,4.8662,7.001,7.9814a11.6623,11.6623,0,0,1-.105,1.4346Zm9.0307-2.2051c.0352-1.96-.8051-5.0059-4.2705-5.0059-3.1152,0-4.48,2.8711-4.7251,5.0059Z"/><path class="cls-2" d="M54.5083,100.1143c0-1.9952-.0347-3.71-.14-5.2852h2.6953l.105,3.3252h.14a5.0835,5.0835,0,0,1,4.69-3.7109,3.3165,3.3165,0,0,1,.875.1054v2.9053a4.6057,4.6057,0,0,0-1.05-.1055c-2.17,0-3.71,1.6455-4.13,3.9561a8.6356,8.6356,0,0,0-.14,1.4346v9.0312H54.5083Z"/><path class="cls-2" d="M73.6875,111.7705V97.1738h-2.38V94.8291h2.38v-.8057c0-2.38.5254-4.55,1.96-5.915a5.8948,5.8948,0,0,1,4.13-1.5752,7.1643,7.1643,0,0,1,2.6255.4893l-.42,2.3808a4.6018,4.6018,0,0,0-1.96-.3847c-2.6255,0-3.29,2.31-3.29,4.9v.91h4.0957v2.3447H76.7329v14.5967Z"/><path class="cls-2" d="M98.4692,103.1592c0,6.2656-4.34,8.9961-8.4355,8.9961-4.5855,0-8.1211-3.36-8.1211-8.7158,0-5.67,3.71-8.9961,8.4009-8.9961C95.1792,94.4434,98.4692,97.98,98.4692,103.1592Zm-13.4414.1758c0,3.71,2.1353,6.5107,5.1455,6.5107,2.9405,0,5.1455-2.7656,5.1455-6.5811,0-2.87-1.435-6.5107-5.0751-6.5107S85.0278,100.1143,85.0278,103.335Z"/><path class="cls-2" d="M102.3525,100.1143c0-1.9952-.0351-3.71-.14-5.2852h2.6953l.105,3.3252h.14a5.0836,5.0836,0,0,1,4.6905-3.7109,3.323,3.323,0,0,1,.8755.1054v2.9053a4.614,4.614,0,0,0-1.05-.1055c-2.17,0-3.71,1.6455-4.13,3.9561a8.635,8.635,0,0,0-.14,1.4346v9.0312h-3.0454Z"/><path class="cls-2" d="M121.2168,86.918h3.0806V97.4893h.07a5.7226,5.7226,0,0,1,2.2051-2.1709,6.3466,6.3466,0,0,1,3.15-.875c2.2753,0,5.9155,1.4,5.9155,7.2461v10.081h-3.08v-9.7314c0-2.73-1.0151-5.04-3.92-5.04a4.4262,4.4262,0,0,0-4.13,3.08,3.725,3.725,0,0,0-.21,1.4707v10.2207h-3.0806Z"/><path class="cls-2" d="M142.3569,103.8594c.07,4.166,2.73,5.8808,5.8106,5.8808a11.1358,11.1358,0,0,0,4.69-.875l.5249,2.2051a13.7176,13.7176,0,0,1-5.6352,1.05c-5.2159,0-8.3311-3.43-8.3311-8.54s3.01-9.1367,7.9458-9.1367c5.5308,0,7.001,4.8662,7.001,7.9814a11.6623,11.6623,0,0,1-.105,1.4346Zm9.0308-2.2051c.0352-1.96-.8052-5.0059-4.27-5.0059-3.1152,0-4.4805,2.8711-4.7251,5.0059Z"/><path class="cls-2" d="M158.1758,99.4141c0-1.75-.0342-3.1856-.14-4.585h2.7305l.1748,2.8h.07a6.23,6.23,0,0,1,5.6006-3.1855c2.3447,0,5.9854,1.4,5.9854,7.2109v10.1162h-3.08v-9.7656c0-2.7305-1.0156-5.0059-3.92-5.0059a4.5168,4.5168,0,0,0-4.3409,4.585v10.1865h-3.081Z"/><path class="cls-2" d="M192.2324,86.918v20.4775c0,1.5049.0352,3.22.1406,4.375h-2.7656l-.1406-2.94h-.0693a6.2672,6.2672,0,0,1-5.7764,3.3252c-4.0947,0-7.2451-3.4649-7.2451-8.61-.0352-5.6357,3.4658-9.1015,7.5957-9.1015a5.6627,5.6627,0,0,1,5.11,2.5908h.07V86.918Zm-3.08,14.8066a5.4112,5.4112,0,0,0-.1406-1.2949,4.529,4.529,0,0,0-4.4453-3.57c-3.1855,0-5.0752,2.8-5.0752,6.5449,0,3.4307,1.6807,6.2656,5.0059,6.2656a4.6293,4.6293,0,0,0,4.5146-3.6748,5.3245,5.3245,0,0,0,.1406-1.33Z"/><path class="cls-2" d="M199.0566,103.8594c.0694,4.166,2.73,5.8808,5.8106,5.8808a11.1272,11.1272,0,0,0,4.6894-.875l.5254,2.2051a13.7148,13.7148,0,0,1-5.6347,1.05c-5.2168,0-8.3321-3.43-8.3321-8.54s3.0108-9.1367,7.9463-9.1367c5.53,0,7.001,4.8662,7.001,7.9814a11.5417,11.5417,0,0,1-.1055,1.4346Zm9.03-2.2051c.0352-1.96-.8057-5.0059-4.2705-5.0059-3.1152,0-4.48,2.8711-4.7246,5.0059Z"/></g></svg>
