<svg xmlns="http://www.w3.org/2000/svg" width="399" height="165" viewBox="0 0 399 165"><defs><style>.cls-1{fill:#202531;}.cls-2{fill:#fff;}</style></defs><title>svar2</title><g id="Spørgsmål"><rect class="cls-1" x="9" y="11" width="380" height="147" rx="45.727"/><path class="cls-2" d="M28.0493,44.1777h3.0454V59.9648c0,6.2657-3.0805,8.1905-7.1406,8.1905a9.8762,9.8762,0,0,1-3.2554-.56l.4551-2.4853a7.26,7.26,0,0,0,2.5552.455c2.73,0,4.34-1.2256,4.34-5.8457Z"/><path class="cls-2" d="M37.7788,59.8594c.07,4.166,2.73,5.8808,5.8106,5.8808a11.1362,11.1362,0,0,0,4.69-.875l.5249,2.2051a13.7185,13.7185,0,0,1-5.6353,1.05c-5.2158,0-8.331-3.43-8.331-8.54s3.01-9.1367,7.9458-9.1367c5.5307,0,7.001,4.8662,7.001,7.9814a11.6825,11.6825,0,0,1-.105,1.4346ZM46.81,57.6543c.0351-1.96-.8052-5.0059-4.2705-5.0059-3.1153,0-4.48,2.8711-4.7251,5.0059Z"/><path class="cls-2" d="M68.1948,50.8291c-.07,1.2246-.14,2.59-.14,4.6553V65.32c0,3.8858-.77,6.2656-2.4151,7.7354a8.9772,8.9772,0,0,1-6.1606,2.03,10.9339,10.9339,0,0,1-5.6357-1.3994l.77-2.3457a9.5517,9.5517,0,0,0,4.9707,1.33c3.15,0,5.46-1.6455,5.46-5.915V64.8652h-.07A6.0483,6.0483,0,0,1,59.584,67.7c-4.2007,0-7.211-3.57-7.211-8.2607,0-5.74,3.7457-8.9961,7.6309-8.9961a5.635,5.635,0,0,1,5.2857,2.94h.07l.14-2.5547Zm-3.1855,6.6855a4.3841,4.3841,0,0,0-.1748-1.4,4.4372,4.4372,0,0,0-4.3057-3.2549c-2.94,0-5.04,2.4844-5.04,6.4052,0,3.3252,1.68,6.0909,5.0058,6.0909a4.504,4.504,0,0,0,4.27-3.15,5.3643,5.3643,0,0,0,.2447-1.6455Z"/><path class="cls-2" d="M80.897,67.7705V53.1738h-2.38V50.8291h2.38v-.8057c0-2.38.5254-4.55,1.96-5.915a5.8946,5.8946,0,0,1,4.13-1.5752,7.1643,7.1643,0,0,1,2.6255.4893l-.42,2.3808a4.6018,4.6018,0,0,0-1.96-.3847c-2.6255,0-3.29,2.31-3.29,4.9v.91h4.0957v2.3447H83.9424V67.7705Z"/><path class="cls-2" d="M105.6787,59.1592c0,6.2656-4.34,8.9961-8.4355,8.9961-4.5855,0-8.1211-3.36-8.1211-8.7158,0-5.67,3.71-8.9961,8.4008-8.9961C102.3887,50.4434,105.6787,53.98,105.6787,59.1592Zm-13.4414.1758c0,3.71,2.1353,6.5107,5.1455,6.5107,2.94,0,5.1455-2.7656,5.1455-6.5811,0-2.87-1.435-6.5107-5.0752-6.5107S92.2373,56.1143,92.2373,59.335Z"/><path class="cls-2" d="M109.562,56.1143c0-1.9952-.0347-3.71-.14-5.2852h2.6953l.105,3.3252h.14a5.0835,5.0835,0,0,1,4.69-3.7109,3.3165,3.3165,0,0,1,.875.1054v2.9053a4.6051,4.6051,0,0,0-1.05-.1055c-2.17,0-3.71,1.6455-4.13,3.9561a8.6243,8.6243,0,0,0-.14,1.4346v9.0312H109.562Z"/><path class="cls-2" d="M125.5571,45.9629v4.8662h4.4107v2.3447h-4.4107V62.31c0,2.1006.5952,3.291,2.31,3.291a6.8713,6.8713,0,0,0,1.7851-.21l.14,2.31a7.5371,7.5371,0,0,1-2.73.42,4.27,4.27,0,0,1-3.3257-1.2949c-.875-.91-1.19-2.415-1.19-4.41V53.1738h-2.6255V50.8291h2.6255v-4.06Z"/><path class="cls-2" d="M145.228,59.6143c-.105,4.0253,2.2051,6.1611,5.3907,6.1611a9.8435,9.8435,0,0,0,4.6206-.9805l.56,2.1709a12.0493,12.0493,0,0,1-5.5654,1.1895c-2.87,0-5.46-1.3653-6.44-3.7451h-.07a6.6227,6.6227,0,0,1-6.3,3.7451c-3.5357,0-5.2857-2.38-5.2857-4.83,0-3.9209,3.64-6.1963,10.2207-6.126v-.7a3.7506,3.7506,0,0,0-3.9551-3.78,8.2672,8.2672,0,0,0-4.34,1.2949l-.7353-2.03a10.7507,10.7507,0,0,1,5.2856-1.54c3.0454,0,4.76,1.4355,5.46,3.6054h.07a6.4376,6.4376,0,0,1,5.9155-3.6054c5.1807,0,6.6157,5.0058,6.6157,7.8066a7.2,7.2,0,0,1-.105,1.3643Zm-2.8354-.35c-3.2554-.07-7.21.49-7.21,3.8155a2.7368,2.7368,0,0,0,2.94,2.8,4.1415,4.1415,0,0,0,4.0957-2.9053,3.59,3.59,0,0,0,.1748-1.2246Zm11.3061-1.8554c.105-1.7149-.84-4.7608-3.955-4.7608-3.0455,0-4.4458,2.836-4.5508,4.7608Z"/><path class="cls-2" d="M160.4863,42.918h3.0806V67.7705h-3.0806Z"/><path class="cls-2" d="M168.7461,42.918h3.0806V67.7705h-3.0806Z"/><path class="cls-2" d="M178.7212,59.8594c.07,4.166,2.73,5.8808,5.81,5.8808a11.1363,11.1363,0,0,0,4.69-.875l.5249,2.2051a13.7185,13.7185,0,0,1-5.6353,1.05c-5.2158,0-8.331-3.43-8.331-8.54s3.01-9.1367,7.9458-9.1367c5.5307,0,7.0009,4.8662,7.0009,7.9814a11.6867,11.6867,0,0,1-.1049,1.4346Zm9.0308-2.2051c.0351-1.96-.8052-5.0059-4.2706-5.0059-3.1152,0-4.48,2.8711-4.7251,5.0059Z"/><path class="cls-2" d="M194.5405,56.1143c0-1.9952-.0346-3.71-.14-5.2852h2.6953l.105,3.3252h.14a5.0835,5.0835,0,0,1,4.69-3.7109,3.3159,3.3159,0,0,1,.875.1054v2.9053a4.6051,4.6051,0,0,0-1.05-.1055c-2.17,0-3.71,1.6455-4.13,3.9561a8.635,8.635,0,0,0-.14,1.4346v9.0312h-3.0454Z"/><path class="cls-2" d="M228.0366,42.918V63.3955c0,1.5049.0347,3.22.14,4.375h-2.7652l-.14-2.94h-.07a6.2662,6.2662,0,0,1-5.7759,3.3252c-4.0952,0-7.2456-3.4649-7.2456-8.61-.0352-5.6357,3.4653-9.1015,7.5957-9.1015a5.6648,5.6648,0,0,1,5.1108,2.5908h.07V42.918Zm-3.0805,14.8066a5.4363,5.4363,0,0,0-.14-1.2949,4.5294,4.5294,0,0,0-4.4453-3.57c-3.1855,0-5.0757,2.8-5.0757,6.5449,0,3.4307,1.68,6.2656,5.0059,6.2656a4.6305,4.6305,0,0,0,4.5151-3.6748,5.3485,5.3485,0,0,0,.14-1.33Z"/><path class="cls-2" d="M234.86,59.8594c.07,4.166,2.73,5.8808,5.81,5.8808a11.1355,11.1355,0,0,0,4.69-.875l.5249,2.2051a13.7176,13.7176,0,0,1-5.6352,1.05c-5.2158,0-8.3311-3.43-8.3311-8.54s3.01-9.1367,7.9458-9.1367c5.5308,0,7.001,4.8662,7.001,7.9814a11.6623,11.6623,0,0,1-.105,1.4346Zm9.0307-2.2051c.0352-1.96-.8052-5.0059-4.27-5.0059-3.1152,0-4.4805,2.8711-4.7251,5.0059Z"/><path class="cls-2" d="M254.39,45.9629v4.8662H258.8v2.3447H254.39V62.31c0,2.1006.5953,3.291,2.31,3.291a6.88,6.88,0,0,0,1.7857-.21l.14,2.31a7.5367,7.5367,0,0,1-2.73.42,4.27,4.27,0,0,1-3.3257-1.2949c-.875-.91-1.19-2.415-1.19-4.41V53.1738h-2.6255V50.8291h2.6255v-4.06Z"/><path class="cls-2" d="M270.874,50.8291l3.3252,9.5205a43.5478,43.5478,0,0,1,1.3653,4.3408h.1049c.3848-1.4.875-2.8008,1.4351-4.3408l3.2905-9.5205h3.22l-6.6508,16.9414h-2.94l-6.44-16.9414Z"/><path class="cls-2" d="M289.9487,46.0684a1.9078,1.9078,0,0,1-3.8154,0,1.8772,1.8772,0,0,1,1.9248-1.9258A1.8291,1.8291,0,0,1,289.9487,46.0684Zm-3.4306,21.7021V50.8291h3.08V67.7705Z"/><path class="cls-2" d="M309.34,42.918V63.3955c0,1.5049.0347,3.22.14,4.375h-2.7651l-.14-2.94h-.07a6.2662,6.2662,0,0,1-5.7759,3.3252c-4.0952,0-7.2456-3.4649-7.2456-8.61-.0351-5.6357,3.4653-9.1015,7.5957-9.1015a5.6652,5.6652,0,0,1,5.1109,2.5908h.07V42.918Zm-3.0805,14.8066a5.4363,5.4363,0,0,0-.14-1.2949,4.5294,4.5294,0,0,0-4.4453-3.57c-3.1855,0-5.0757,2.8-5.0757,6.5449,0,3.4307,1.68,6.2656,5.0059,6.2656a4.6305,4.6305,0,0,0,4.5151-3.6748,5.3485,5.3485,0,0,0,.14-1.33Z"/><path class="cls-2" d="M316.1631,59.8594c.07,4.166,2.7305,5.8808,5.81,5.8808a11.1363,11.1363,0,0,0,4.6905-.875l.5249,2.2051a13.7185,13.7185,0,0,1-5.6353,1.05c-5.2158,0-8.331-3.43-8.331-8.54s3.01-9.1367,7.9458-9.1367c5.5307,0,7.0009,4.8662,7.0009,7.9814a11.6867,11.6867,0,0,1-.1049,1.4346Zm9.0307-2.2051c.0352-1.96-.8051-5.0059-4.2705-5.0059-3.1152,0-4.48,2.8711-4.7251,5.0059Z"/><path class="cls-2" d="M331.9824,56.1143c0-1.9952-.0351-3.71-.14-5.2852h2.6953l.105,3.3252h.14a5.0835,5.0835,0,0,1,4.69-3.7109,3.3225,3.3225,0,0,1,.8755.1054v2.9053a4.6128,4.6128,0,0,0-1.05-.1055c-2.17,0-3.71,1.6455-4.13,3.9561a8.635,8.635,0,0,0-.14,1.4346v9.0312h-3.0454Z"/><path class="cls-2" d="M344.7925,59.8594c.07,4.166,2.73,5.8808,5.81,5.8808a11.1363,11.1363,0,0,0,4.69-.875l.5249,2.2051a13.7185,13.7185,0,0,1-5.6353,1.05c-5.2158,0-8.331-3.43-8.331-8.54s3.01-9.1367,7.9458-9.1367c5.5307,0,7.0009,4.8662,7.0009,7.9814a11.6623,11.6623,0,0,1-.105,1.4346Zm9.0307-2.2051c.0352-1.96-.8051-5.0059-4.27-5.0059-3.1152,0-4.48,2.8711-4.7251,5.0059Z"/><path class="cls-2" d="M26.8242,87.9629v4.8662h4.4107v2.3447H26.8242V104.31c0,2.1006.5952,3.291,2.31,3.291a6.8789,6.8789,0,0,0,1.7856-.21l.14,2.31a7.5375,7.5375,0,0,1-2.73.42,4.27,4.27,0,0,1-3.3257-1.2949c-.875-.91-1.19-2.415-1.19-4.41V95.1738H21.1885V92.8291H23.814v-4.06Z"/><path class="cls-2" d="M38.1294,88.0684a1.9078,1.9078,0,0,1-3.8154,0,1.8772,1.8772,0,0,1,1.9248-1.9258A1.8292,1.8292,0,0,1,38.1294,88.0684Zm-3.4307,21.7021V92.8291h3.0806v16.9414Z"/><path class="cls-2" d="M42.8887,84.918h3.0805v24.8525H42.8887Z"/><path class="cls-2" d="M60.2832,101.8594c.07,4.166,2.73,5.8808,5.8106,5.8808a11.1362,11.1362,0,0,0,4.69-.875l.5249,2.2051a13.7185,13.7185,0,0,1-5.6353,1.05c-5.2158,0-8.331-3.43-8.331-8.54s3.01-9.1367,7.9458-9.1367c5.5307,0,7.001,4.8662,7.001,7.9814a11.6825,11.6825,0,0,1-.105,1.4346Zm9.0308-2.2051c.0351-1.96-.8052-5.0059-4.27-5.0059-3.1153,0-4.48,2.8711-4.7251,5.0059Z"/><path class="cls-2" d="M76.1025,97.4141c0-1.75-.0351-3.1856-.14-4.585h2.73l.1753,2.8h.07a6.23,6.23,0,0,1,5.6006-3.1855c2.3452,0,5.9853,1.4,5.9853,7.2109v10.1162h-3.08v-9.7656c0-2.7305-1.0151-5.0059-3.92-5.0059a4.3766,4.3766,0,0,0-4.13,3.15,4.4224,4.4224,0,0,0-.21,1.4346v10.1865H76.1025Z"/><path class="cls-2" d="M104.1372,92.8291l3.3252,9.52a43.5461,43.5461,0,0,1,1.3652,4.3408h.105c.3848-1.4.875-2.8008,1.4351-4.3408l3.29-9.52h3.22l-6.6509,16.9414h-2.94l-6.44-16.9414Z"/><path class="cls-2" d="M134.7632,101.1592c0,6.2656-4.34,8.9961-8.4356,8.9961-4.5854,0-8.1211-3.36-8.1211-8.7158,0-5.67,3.71-8.9961,8.4009-8.9961C131.4731,92.4434,134.7632,95.98,134.7632,101.1592Zm-13.4414.1758c0,3.71,2.1352,6.5107,5.1455,6.5107,2.94,0,5.1455-2.7656,5.1455-6.5811,0-2.87-1.4351-6.5107-5.0752-6.5107S121.3218,98.1143,121.3218,101.335Z"/><path class="cls-2" d="M141.6919,100.6h.07c.42-.5947,1.0152-1.33,1.5054-1.9248l4.9707-5.8457h3.71l-6.5455,6.9658,7.4556,9.9756h-3.7451l-5.8457-8.1211-1.5752,1.75v6.3711h-3.0454V84.918h3.0454Z"/><path class="cls-2" d="M154.6411,106.62a8.076,8.076,0,0,0,4.0606,1.2256c2.24,0,3.29-1.12,3.29-2.52,0-1.4707-.875-2.2754-3.15-3.1152-3.0449-1.085-4.48-2.7657-4.48-4.7959,0-2.7305,2.2056-4.9707,5.8457-4.9707a8.4516,8.4516,0,0,1,4.1656,1.0507l-.77,2.24a6.5946,6.5946,0,0,0-3.4654-.98c-1.82,0-2.8354,1.05-2.8354,2.3106,0,1.3994,1.0151,2.03,3.22,2.87,2.94,1.12,4.4458,2.59,4.4458,5.11,0,2.9756-2.3106,5.0752-6.336,5.0752a9.67,9.67,0,0,1-4.76-1.1543Z"/><path class="cls-2" d="M170.6362,101.8594c.07,4.166,2.73,5.8808,5.8106,5.8808a11.1358,11.1358,0,0,0,4.69-.875l.5249,2.2051a13.718,13.718,0,0,1-5.6352,1.05c-5.2159,0-8.3311-3.43-8.3311-8.54s3.01-9.1367,7.9458-9.1367c5.5308,0,7.001,4.8662,7.001,7.9814a11.6623,11.6623,0,0,1-.105,1.4346Zm9.0308-2.2051c.0351-1.96-.8052-5.0059-4.27-5.0059-3.1153,0-4.4805,2.8711-4.7251,5.0059Z"/><path class="cls-2" d="M186.4556,97.4141c0-1.75-.0347-3.1856-.14-4.585h2.73l.1748,2.8h.07a6.23,6.23,0,0,1,5.6006-3.1855c2.3452,0,5.9854,1.4,5.9854,7.2109v10.1162h-3.08v-9.7656c0-2.7305-1.0152-5.0059-3.92-5.0059a4.3766,4.3766,0,0,0-4.13,3.15,4.4251,4.4251,0,0,0-.21,1.4346v10.1865h-3.0805Z"/></g></svg>
