<svg xmlns="http://www.w3.org/2000/svg" width="396" height="164" viewBox="0 0 396 164"><defs><style>.cls-1{fill:#202531;}.cls-2{fill:#fff;}</style></defs><title>svar6</title><g id="Spørgsmål"><rect class="cls-1" x="9" y="7" width="380" height="147" rx="45.727"/><path class="cls-2" d="M32.2637,35.1777v9.8711H43.6758V35.1777h3.08V58.7705h-3.08V47.709H32.2637V58.7705H29.2188V35.1777Z"/><path class="cls-2" d="M61.3145,58.7705,61.07,56.6357h-.1055a6.3107,6.3107,0,0,1-5.1806,2.52A4.8266,4.8266,0,0,1,50.6035,54.29c0-4.0957,3.6406-6.3359,10.1856-6.3007v-.35c0-1.4-.3848-3.9208-3.85-3.9208a8.4349,8.4349,0,0,0-4.41,1.2607l-.7012-2.03a10.517,10.517,0,0,1,5.5664-1.5058c5.18,0,6.4405,3.5361,6.4405,6.9306V54.71a23.7614,23.7614,0,0,0,.28,4.06Zm-.4551-8.6455c-3.36-.07-7.1758.5244-7.1758,3.8154A2.7255,2.7255,0,0,0,56.59,56.88a4.2139,4.2139,0,0,0,4.0948-2.835,3.2266,3.2266,0,0,0,.1748-.98Z"/><path class="cls-2" d="M68.8027,46.4141c0-1.75-.0341-3.1856-.14-4.585h2.7305l.1748,2.8h.07a6.23,6.23,0,0,1,5.6006-3.1855c2.3447,0,5.9853,1.4,5.9853,7.2109V58.7705h-3.08V49.0049c0-2.73-1.0156-5.0059-3.92-5.0059a4.5168,4.5168,0,0,0-4.3408,4.585V58.7705H68.8027Z"/><path class="cls-2" d="M95.5078,58.7705c.07-1.1553.14-2.87.14-4.375V33.918h3.0459V44.5586h.0693a6.312,6.312,0,0,1,5.7764-3.1152c4.1992,0,7.1757,3.5009,7.1406,8.6464,0,6.0557-3.8164,9.0655-7.5957,9.0655a6.034,6.034,0,0,1-5.6709-3.1846h-.1055l-.14,2.8Zm3.1856-6.791a5.7339,5.7339,0,0,0,.14,1.12,4.7517,4.7517,0,0,0,4.62,3.6055c3.2207,0,5.1465-2.625,5.1465-6.5108,0-3.3955-1.751-6.3007-5.041-6.3007a4.9125,4.9125,0,0,0-4.6914,3.7812,6.1153,6.1153,0,0,0-.1738,1.26Z"/><path class="cls-2" d="M115.5625,33.918h3.08V58.7705h-3.08Z"/><path class="cls-2" d="M127.252,37.0684a1.9073,1.9073,0,0,1-3.8145,0,1.8769,1.8769,0,0,1,1.9238-1.9258A1.8286,1.8286,0,0,1,127.252,37.0684Zm-3.43,21.7021V41.8291h3.08V58.7705Z"/><path class="cls-2" d="M133.2021,41.8291l3.3252,9.5205a43.2874,43.2874,0,0,1,1.3653,4.3408h.1054c.3848-1.4.875-2.8008,1.4346-4.3408l3.29-9.5205h3.2207l-6.65,16.9414h-2.9414l-6.4395-16.9414Z"/><path class="cls-2" d="M150.2119,50.8594c.0693,4.166,2.73,5.8808,5.8106,5.8808a11.1362,11.1362,0,0,0,4.69-.875l.5254,2.2051a13.7248,13.7248,0,0,1-5.6358,1.05c-5.2158,0-8.331-3.43-8.331-8.54s3.01-9.1367,7.9453-9.1367c5.5312,0,7.002,4.8662,7.002,7.9814a11.5615,11.5615,0,0,1-.1055,1.4346Zm9.03-2.2051c.0351-1.96-.8047-5.0059-4.2695-5.0059-3.1153,0-4.4805,2.8711-4.7256,5.0059Z"/><path class="cls-2" d="M166.0312,47.1143c0-1.9952-.0351-3.71-.1406-5.2852h2.6953l.1055,3.3252h.1406a5.0824,5.0824,0,0,1,4.69-3.7109,3.3243,3.3243,0,0,1,.876.1054v2.9053a4.6094,4.6094,0,0,0-1.05-.1055c-2.1709,0-3.711,1.6455-4.1309,3.9561a8.6326,8.6326,0,0,0-.1406,1.4346v9.0312h-3.045Z"/><path class="cls-2" d="M187.9414,49.6h.0693c.4209-.5947,1.0147-1.33,1.5049-1.9248l4.9707-5.8457h3.711l-6.5459,6.9658,7.456,9.9756h-3.7461l-5.8457-8.1211-1.5742,1.75v6.3711h-3.0459V33.918h3.0459Z"/><path class="cls-2" d="M203.0254,50.8594c.07,4.166,2.7305,5.8808,5.8105,5.8808a11.1363,11.1363,0,0,0,4.69-.875l.5244,2.2051a13.7119,13.7119,0,0,1-5.6348,1.05c-5.2158,0-8.331-3.43-8.331-8.54s3.0107-9.1367,7.9462-9.1367c5.53,0,7,4.8662,7,7.9814a11.81,11.81,0,0,1-.1044,1.4346Zm9.0312-2.2051c.0352-1.96-.8056-5.0059-4.2714-5.0059-3.1153,0-4.4805,2.8711-4.7247,5.0059Z"/><path class="cls-2" d="M233.4766,33.918V54.3955c0,1.5049.0351,3.22.14,4.375h-2.7646l-.1407-2.94h-.07a6.2653,6.2653,0,0,1-5.7754,3.3252c-4.0957,0-7.2461-3.4649-7.2461-8.61-.0351-5.6357,3.4659-9.1015,7.5957-9.1015a5.6647,5.6647,0,0,1,5.1114,2.5908h.07V33.918Zm-3.08,14.8066a5.4163,5.4163,0,0,0-.1406-1.2949,4.5291,4.5291,0,0,0-4.4454-3.57c-3.1855,0-5.0761,2.8-5.0761,6.5449,0,3.4307,1.6806,6.2656,5.0058,6.2656a4.6312,4.6312,0,0,0,4.5157-3.6748,5.3292,5.3292,0,0,0,.1406-1.33Z"/><path class="cls-2" d="M255.3848,58.7705l-.2442-2.1348h-.1054a6.311,6.311,0,0,1-5.1807,2.52,4.8266,4.8266,0,0,1-5.1807-4.8653c0-4.0957,3.6407-6.3359,10.1856-6.3007v-.35c0-1.4-.3848-3.9208-3.85-3.9208A8.4349,8.4349,0,0,0,246.6,44.98l-.7012-2.03a10.517,10.517,0,0,1,5.5664-1.5058c5.18,0,6.4405,3.5361,6.4405,6.9306V54.71a23.7614,23.7614,0,0,0,.28,4.06ZM254.93,50.125c-3.36-.07-7.1758.5244-7.1758,3.8154a2.7255,2.7255,0,0,0,2.9063,2.94,4.2138,4.2138,0,0,0,4.0947-2.835,3.2266,3.2266,0,0,0,.1748-.98Z"/><path class="cls-2" d="M263.1885,58.7705V44.1738h-2.38V41.8291h2.38v-.8057c0-2.38.5254-4.55,1.96-5.915a5.8968,5.8968,0,0,1,4.1309-1.5752,7.1591,7.1591,0,0,1,2.625.4893l-.42,2.3808a4.6018,4.6018,0,0,0-1.96-.3847c-2.626,0-3.29,2.31-3.29,4.9v.91H270.33v2.3447h-4.0957V58.7705Z"/><path class="cls-2" d="M295.1445,33.918V54.3955c0,1.5049.0352,3.22.14,4.375H292.52l-.1406-2.94h-.07a6.2655,6.2655,0,0,1-5.7754,3.3252c-4.0957,0-7.2461-3.4649-7.2461-8.61-.0351-5.6357,3.4658-9.1015,7.5957-9.1015a5.6645,5.6645,0,0,1,5.1113,2.5908h.07V33.918Zm-3.08,14.8066a5.4114,5.4114,0,0,0-.1407-1.2949,4.5289,4.5289,0,0,0-4.4453-3.57c-3.1855,0-5.0762,2.8-5.0762,6.5449,0,3.4307,1.6807,6.2656,5.0059,6.2656a4.631,4.631,0,0,0,4.5156-3.6748,5.3244,5.3244,0,0,0,.1407-1.33Z"/><path class="cls-2" d="M301.9678,50.8594c.0693,4.166,2.73,5.8808,5.81,5.8808a11.1363,11.1363,0,0,0,4.69-.875l.5253,2.2051a13.7243,13.7243,0,0,1-5.6357,1.05c-5.2158,0-8.3311-3.43-8.3311-8.54s3.01-9.1367,7.9454-9.1367c5.5312,0,7.0019,4.8662,7.0019,7.9814a11.5417,11.5417,0,0,1-.1055,1.4346Zm9.03-2.2051c.0352-1.96-.8046-5.0059-4.2695-5.0059-3.1152,0-4.4805,2.8711-4.7256,5.0059Z"/><path class="cls-2" d="M321.498,36.9629v4.8662h4.41v2.3447h-4.41V53.31c0,2.1006.5948,3.291,2.31,3.291a6.87,6.87,0,0,0,1.7852-.21l.14,2.31a7.5276,7.5276,0,0,1-2.7295.42,4.2677,4.2677,0,0,1-3.3252-1.2949c-.875-.91-1.19-2.415-1.19-4.41V44.1738h-2.626V41.8291h2.626v-4.06Z"/><path class="cls-2" d="M352.123,50.1592c0,6.2656-4.34,8.9961-8.4355,8.9961-4.5859,0-8.1211-3.36-8.1211-8.7158,0-5.67,3.7109-8.9961,8.4-8.9961C348.833,41.4434,352.123,44.98,352.123,50.1592Zm-13.4414.1758c0,3.71,2.1348,6.5107,5.1455,6.5107,2.9405,0,5.1456-2.7656,5.1456-6.5811,0-2.87-1.4356-6.5107-5.0752-6.5107S338.6816,47.1143,338.6816,50.335Z"/><path class="cls-2" d="M370.6035,41.8291c-.07,1.2246-.1406,2.59-.1406,4.6553V56.32c0,3.8858-.7695,6.2656-2.415,7.7354a8.9781,8.9781,0,0,1-6.1612,2.03,10.9327,10.9327,0,0,1-5.6347-1.3994l.7695-2.3457a9.5517,9.5517,0,0,0,4.9707,1.33c3.15,0,5.4609-1.6455,5.4609-5.915V55.8652h-.07a6.0483,6.0483,0,0,1-5.3906,2.835c-4.2012,0-7.211-3.57-7.211-8.2607,0-5.74,3.7461-8.9961,7.6309-8.9961a5.633,5.633,0,0,1,5.2852,2.94h.07l.1406-2.5547Zm-3.1855,6.6855a4.3691,4.3691,0,0,0-.1758-1.4,4.4356,4.4356,0,0,0-4.3047-3.2549c-2.94,0-5.041,2.4844-5.041,6.4052,0,3.3252,1.68,6.0909,5.0058,6.0909a4.5033,4.5033,0,0,0,4.2706-3.15,5.3679,5.3679,0,0,0,.2451-1.6455Z"/><path class="cls-2" d="M30.8291,92.8594C30.8984,97.0254,33.56,98.74,36.64,98.74a11.1363,11.1363,0,0,0,4.6905-.875l.5254,2.2051a13.7252,13.7252,0,0,1-5.6358,1.05c-5.2158,0-8.331-3.43-8.331-8.54s3.01-9.1367,7.9453-9.1367c5.5312,0,7.0019,4.8662,7.0019,7.9814a11.5656,11.5656,0,0,1-.1054,1.4346Zm9.03-2.2051c.0351-1.96-.8047-5.0059-4.27-5.0059-3.1152,0-4.48,2.8711-4.7255,5.0059Z"/><path class="cls-2" d="M46.6484,88.4141c0-1.75-.0351-3.1856-.1406-4.585h2.73l.1758,2.8h.07a6.2284,6.2284,0,0,1,5.6-3.1855c2.3457,0,5.9863,1.4,5.9863,7.2109v10.1162H57.99V91.0049c0-2.7305-1.0156-5.0059-3.9209-5.0059a4.5205,4.5205,0,0,0-4.3408,4.585v10.1865h-3.08Z"/><path class="cls-2" d="M80.7051,75.918V96.3955c0,1.5049.0351,3.22.14,4.375H78.08L77.94,97.83h-.07a6.2653,6.2653,0,0,1-5.7753,3.3252c-4.0958,0-7.2461-3.4649-7.2461-8.61-.0352-5.6357,3.4658-9.1015,7.5957-9.1015a5.6645,5.6645,0,0,1,5.1113,2.5908h.07V75.918Zm-3.08,14.8066a5.4163,5.4163,0,0,0-.1406-1.2949,4.5291,4.5291,0,0,0-4.4453-3.57c-3.1856,0-5.0762,2.8-5.0762,6.5449,0,3.4307,1.6807,6.2656,5.0059,6.2656a4.6311,4.6311,0,0,0,4.5156-3.6748,5.3292,5.3292,0,0,0,.1406-1.33Z"/><path class="cls-2" d="M87.5283,92.8594c.0694,4.166,2.73,5.8808,5.8106,5.8808a11.1362,11.1362,0,0,0,4.69-.875l.5254,2.2051a13.7244,13.7244,0,0,1-5.6358,1.05c-5.2158,0-8.331-3.43-8.331-8.54s3.01-9.1367,7.9453-9.1367c5.5313,0,7.002,4.8662,7.002,7.9814a11.5615,11.5615,0,0,1-.1055,1.4346Zm9.03-2.2051c.0352-1.96-.8047-5.0059-4.2695-5.0059-3.1153,0-4.4805,2.8711-4.7256,5.0059Z"/><path class="cls-2" d="M103.3477,89.1143c0-1.9952-.0352-3.71-.1407-5.2852h2.6953l.1055,3.3252h.1406a5.0824,5.0824,0,0,1,4.69-3.7109,3.3243,3.3243,0,0,1,.876.1054v2.9053a4.6094,4.6094,0,0,0-1.05-.1055c-2.1709,0-3.711,1.6455-4.1309,3.9561a8.6326,8.6326,0,0,0-.1406,1.4346v9.0312h-3.0449Z"/><path class="cls-2" d="M122.2119,88.4141c0-1.75-.0351-3.1856-.14-4.585h2.6953l.14,2.73h.1045a5.8427,5.8427,0,0,1,5.3213-3.1152,5.0109,5.0109,0,0,1,4.7959,3.3955h.0693a6.9944,6.9944,0,0,1,1.89-2.2051,5.7819,5.7819,0,0,1,3.7461-1.19c2.24,0,5.5654,1.4707,5.5654,7.3515v9.9756h-3.0107V91.18c0-3.2559-1.19-5.2158-3.6748-5.2158a3.9884,3.9884,0,0,0-3.6407,2.8007,5.082,5.082,0,0,0-.2451,1.54v10.4658h-3.01V90.6191c0-2.6953-1.19-4.6552-3.5352-4.6552a4.21,4.21,0,0,0-3.8164,3.08,4.2762,4.2762,0,0,0-.2441,1.5059v10.2207h-3.0108Z"/><path class="cls-2" d="M153.1172,92.8594c.07,4.166,2.7305,5.8808,5.81,5.8808a11.1363,11.1363,0,0,0,4.6905-.875l.5244,2.2051a13.7119,13.7119,0,0,1-5.6348,1.05c-5.2158,0-8.331-3.43-8.331-8.54s3.0107-9.1367,7.9462-9.1367c5.53,0,7,4.8662,7,7.9814a11.81,11.81,0,0,1-.1044,1.4346Zm9.0312-2.2051c.0352-1.96-.8056-5.0059-4.2714-5.0059-3.1153,0-4.4805,2.8711-4.7247,5.0059Z"/><path class="cls-2" d="M183.5684,75.918V96.3955c0,1.5049.0351,3.22.14,4.375h-2.7646l-.1407-2.94h-.07a6.2653,6.2653,0,0,1-5.7754,3.3252c-4.0957,0-7.2461-3.4649-7.2461-8.61-.0351-5.6357,3.4659-9.1015,7.5957-9.1015a5.6647,5.6647,0,0,1,5.1114,2.5908h.07V75.918Zm-3.08,14.8066a5.4163,5.4163,0,0,0-.1406-1.2949,4.5291,4.5291,0,0,0-4.4454-3.57c-3.1855,0-5.0761,2.8-5.0761,6.5449,0,3.4307,1.6806,6.2656,5.0058,6.2656a4.6312,4.6312,0,0,0,4.5157-3.6748,5.3292,5.3292,0,0,0,.1406-1.33Z"/><path class="cls-2" d="M205.4766,100.7705l-.2442-2.1348h-.1054a6.311,6.311,0,0,1-5.1807,2.52,4.8266,4.8266,0,0,1-5.1807-4.8653c0-4.0957,3.6406-6.3359,10.1856-6.3007v-.35c0-1.4-.3848-3.9208-3.85-3.9208a8.4349,8.4349,0,0,0-4.41,1.2607l-.7012-2.03a10.517,10.517,0,0,1,5.5664-1.5058c5.18,0,6.44,3.5361,6.44,6.9306V96.71a23.7614,23.7614,0,0,0,.28,4.0605Zm-.4551-8.6455c-3.36-.07-7.1758.5244-7.1758,3.8154a2.7255,2.7255,0,0,0,2.9063,2.94,4.2138,4.2138,0,0,0,4.0947-2.835,3.2266,3.2266,0,0,0,.1748-.98Z"/><path class="cls-2" d="M216.5352,78.9629v4.8662h4.4111v2.3447h-4.4111V95.31c0,2.1006.5957,3.291,2.31,3.291a6.8759,6.8759,0,0,0,1.7852-.21l.1406,2.31a7.5457,7.5457,0,0,1-2.7305.42,4.2729,4.2729,0,0,1-3.3262-1.2949c-.875-.91-1.1894-2.415-1.1894-4.41V86.1738H210.9V83.8291h2.625v-4.06Z"/><path class="cls-2" d="M232.1445,100.7705V86.1738h-2.38V83.8291h2.38v-.8057c0-2.38.5254-4.55,1.961-5.915a5.8926,5.8926,0,0,1,4.13-1.5752,7.1693,7.1693,0,0,1,2.6259.4893l-.4209,2.3808a4.601,4.601,0,0,0-1.96-.3847c-2.625,0-3.291,2.31-3.291,4.9v.91h4.0957v2.3447H235.19v14.5967Z"/><path class="cls-2" d="M251.43,100.7705l-.2442-2.1348H251.08a6.31,6.31,0,0,1-5.18,2.52,4.8268,4.8268,0,0,1-5.1816-4.8653c0-4.0957,3.6406-6.3359,10.1865-6.3007v-.35c0-1.4-.3848-3.9208-3.8506-3.9208a8.4376,8.4376,0,0,0-4.41,1.2607l-.7-2.03a10.516,10.516,0,0,1,5.5655-1.5058c5.1806,0,6.4414,3.5361,6.4414,6.9306V96.71a23.8594,23.8594,0,0,0,.2793,4.0605Zm-.4541-8.6455c-3.36-.07-7.1758.5244-7.1758,3.8154a2.7253,2.7253,0,0,0,2.9053,2.94,4.2151,4.2151,0,0,0,4.0957-2.835,3.2266,3.2266,0,0,0,.1748-.98Zm-6.6162-13.3369a3.3047,3.3047,0,0,1,3.57-3.3252,3.2477,3.2477,0,0,1,3.4658,3.29,3.5336,3.5336,0,0,1-7.0361.0352Zm5.32-.07a1.7774,1.7774,0,1,0-3.5352.07,1.7745,1.7745,0,1,0,3.5352-.07Z"/><path class="cls-2" d="M268.0537,92.8594c.0693,4.166,2.7305,5.8808,5.8106,5.8808a11.1362,11.1362,0,0,0,4.69-.875l.5254,2.2051a13.7252,13.7252,0,0,1-5.6358,1.05c-5.2158,0-8.331-3.43-8.331-8.54s3.01-9.1367,7.9453-9.1367c5.5312,0,7.0019,4.8662,7.0019,7.9814a11.5656,11.5656,0,0,1-.1054,1.4346Zm9.03-2.2051c.0351-1.96-.8047-5.0059-4.2695-5.0059-3.1153,0-4.4805,2.8711-4.7256,5.0059Z"/><path class="cls-2" d="M283.873,88.4141c0-1.75-.0351-3.1856-.1406-4.585h2.7305l.1758,2.8h.07a6.2284,6.2284,0,0,1,5.6-3.1855c2.3457,0,5.9863,1.4,5.9863,7.2109v10.1162h-3.08V91.0049c0-2.7305-1.0156-5.0059-3.9209-5.0059a4.5205,4.5205,0,0,0-4.3408,4.585v10.1865h-3.08Z"/><path class="cls-2" d="M43.7461,117.918v20.4775c0,1.5049.0342,3.22.1387,4.375H41.12l-.14-2.94h-.07a6.2656,6.2656,0,0,1-5.7754,3.3252c-4.0957,0-7.2461-3.4649-7.2461-8.61-.0352-5.6357,3.4648-9.1015,7.5957-9.1015a5.667,5.667,0,0,1,5.1113,2.5908h.0693V117.918ZM40.665,132.7246a5.4613,5.4613,0,0,0-.14-1.2949,4.53,4.53,0,0,0-4.4453-3.57c-3.1856,0-5.0762,2.8-5.0762,6.5449,0,3.4307,1.68,6.2656,5.0059,6.2656a4.6319,4.6319,0,0,0,4.5156-3.6748,5.373,5.373,0,0,0,.14-1.33Z"/><path class="cls-2" d="M50.5684,134.8594c.07,4.166,2.73,5.8808,5.8105,5.8808a11.1441,11.1441,0,0,0,4.6914-.875l.5244,2.2051a13.72,13.72,0,0,1-5.6357,1.05c-5.2149,0-8.33-3.43-8.33-8.54s3.01-9.1367,7.9453-9.1367c5.5313,0,7.001,4.8662,7.001,7.9814a11.7854,11.7854,0,0,1-.1045,1.4346ZM59.6,132.6543c.0352-1.96-.8047-5.0059-4.2705-5.0059-3.1152,0-4.48,2.8711-4.7256,5.0059Z"/><path class="cls-2" d="M66.3887,131.3594c0-2.17-.07-3.9209-.1407-5.53h2.7657l.14,2.9053h.07a6.6606,6.6606,0,0,1,6.02-3.291c4.0957,0,7.1758,3.4658,7.1758,8.6113,0,6.0908-3.7109,9.1006-7.7011,9.1006a5.9382,5.9382,0,0,1-5.2149-2.66h-.07v9.2061H66.3887Zm3.0449,4.5156a6.902,6.902,0,0,0,.1406,1.26,4.751,4.751,0,0,0,4.62,3.6054c3.2549,0,5.1455-2.66,5.1455-6.5459,0-3.3955-1.7851-6.3007-5.041-6.3007a4.9159,4.9159,0,0,0-4.6552,3.8154,5.029,5.029,0,0,0-.21,1.2607Z"/><path class="cls-2" d="M86.3027,131.1143c0-1.9952-.0351-3.71-.1406-5.2852h2.6953l.1055,3.3252h.1406a5.0823,5.0823,0,0,1,4.69-3.7109,3.323,3.323,0,0,1,.8759.1054v2.9053a4.6082,4.6082,0,0,0-1.05-.1055c-2.1709,0-3.7109,1.6455-4.1308,3.9561a8.6326,8.6326,0,0,0-.1406,1.4346v9.0312h-3.045Z"/><path class="cls-2" d="M99.1133,134.8594c.07,4.166,2.7305,5.8808,5.8105,5.8808a11.1363,11.1363,0,0,0,4.6905-.875l.5244,2.2051a13.7119,13.7119,0,0,1-5.6348,1.05c-5.2158,0-8.331-3.43-8.331-8.54s3.0107-9.1367,7.9462-9.1367c5.53,0,7,4.8662,7,7.9814a11.7854,11.7854,0,0,1-.1045,1.4346Zm9.0312-2.2051c.0352-1.96-.8056-5.0059-4.2715-5.0059-3.1152,0-4.48,2.8711-4.7246,5.0059Z"/><path class="cls-2" d="M114.5127,139.62a8.0775,8.0775,0,0,0,4.0605,1.2256c2.24,0,3.29-1.12,3.29-2.52,0-1.4707-.875-2.2754-3.15-3.1152-3.0449-1.085-4.4805-2.7657-4.4805-4.7959,0-2.73,2.2051-4.9707,5.8457-4.9707a8.4548,8.4548,0,0,1,4.166,1.0507l-.77,2.24a6.5929,6.5929,0,0,0-3.4658-.98c-1.82,0-2.8349,1.05-2.8349,2.3106,0,1.3994,1.0146,2.03,3.22,2.87,2.9414,1.12,4.4463,2.59,4.4463,5.11,0,2.9756-2.3106,5.0752-6.336,5.0752a9.6747,9.6747,0,0,1-4.7607-1.1543Z"/><path class="cls-2" d="M128.373,139.62a8.0747,8.0747,0,0,0,4.0606,1.2256c2.24,0,3.2891-1.12,3.2891-2.52,0-1.4707-.875-2.2754-3.15-3.1152-3.045-1.085-4.4805-2.7657-4.4805-4.7959,0-2.73,2.2061-4.9707,5.8457-4.9707a8.452,8.452,0,0,1,4.166,1.0507l-.7695,2.24a6.599,6.599,0,0,0-3.4658-.98c-1.82,0-2.835,1.05-2.835,2.3106,0,1.3994,1.0147,2.03,3.22,2.87,2.94,1.12,4.4463,2.59,4.4463,5.11,0,2.9756-2.31,5.0752-6.3359,5.0752a9.6725,9.6725,0,0,1-4.7608-1.1543Z"/><path class="cls-2" d="M146.083,121.0684a1.9078,1.9078,0,0,1-3.8154,0,1.8772,1.8772,0,0,1,1.9248-1.9258A1.8291,1.8291,0,0,1,146.083,121.0684Zm-3.4307,21.7021V125.8291h3.08v16.9414Z"/><path class="cls-2" d="M166.1738,134.1592c0,6.2656-4.34,8.9961-8.4355,8.9961-4.586,0-8.1211-3.36-8.1211-8.7158,0-5.67,3.7109-8.9961,8.4-8.9961C162.8838,125.4434,166.1738,128.98,166.1738,134.1592Zm-13.4414.1758c0,3.71,2.1348,6.5107,5.1455,6.5107,2.94,0,5.1455-2.7656,5.1455-6.5811,0-2.87-1.4355-6.5107-5.0752-6.5107S152.7324,131.1143,152.7324,134.335Z"/><path class="cls-2" d="M170.0566,130.4141c0-1.75-.0341-3.1856-.14-4.585h2.7305l.1748,2.8h.07a6.23,6.23,0,0,1,5.6006-3.1855c2.3447,0,5.9853,1.4,5.9853,7.2109v10.1162h-3.08v-9.7656c0-2.73-1.0156-5.0059-3.92-5.0059a4.5168,4.5168,0,0,0-4.3408,4.585v10.1865h-3.0811Z"/></g></svg>
