<svg xmlns="http://www.w3.org/2000/svg" width="389" height="163" viewBox="0 0 389 163"><defs><style>.cls-1{fill:#f09638;}</style></defs><title>svar1</title><g id="Spørgsmål"><rect class="cls-1" x="6" y="10" width="380" height="147" rx="45.727"/><path d="M56.0176,71.0586a5.8179,5.8179,0,0,1-1.5493-4.251v-.793h1.4409v.793a4.82,4.82,0,0,0,1.1528,3.3858A3.894,3.894,0,0,0,60.124,71.49a4.2065,4.2065,0,0,0,3.2066-1.2968,4.733,4.733,0,0,0,1.1884-3.3858V50.9209H65.96V66.8076a5.745,5.745,0,0,1-1.5854,4.251A5.6766,5.6766,0,0,1,60.124,72.68,5.4172,5.4172,0,0,1,56.0176,71.0586Z"/><path d="M71.2915,70.59a9.09,9.09,0,0,1-1.873-5.9794,9.093,9.093,0,0,1,1.873-5.98,6.1628,6.1628,0,0,1,4.9717-2.2334,6.408,6.408,0,0,1,4.9712,2.0527,7.8156,7.8156,0,0,1,1.8735,5.4766V64.61H70.8594a7.8589,7.8589,0,0,0,1.477,5.0068,4.748,4.748,0,0,0,3.9268,1.873,5.8936,5.8936,0,0,0,3.3139-.9726,5.1963,5.1963,0,0,0,2.0894-2.63h1.4414a5.3766,5.3766,0,0,1-2.3057,3.5312,7.5478,7.5478,0,0,1-4.539,1.4043A6.1628,6.1628,0,0,1,71.2915,70.59Zm10.375-7.3486V62.7a5.4659,5.4659,0,0,0-1.729-3.6025,5.2992,5.2992,0,0,0-3.6743-1.44,5.1008,5.1008,0,0,0-3.6387,1.4766,5.5949,5.5949,0,0,0-1.7651,3.7109v.3965Z"/><path d="M87.5029,76.3184a4.3387,4.3387,0,0,1-1.9453-3.5313h1.3687a3.2523,3.2523,0,0,0,1.5132,2.666,6.3181,6.3181,0,0,0,3.71,1.0811,5.4562,5.4562,0,0,0,3.7827-1.2608,4.2744,4.2744,0,0,0,1.4409-3.3867V68.7529a5.2956,5.2956,0,0,1-2.0893,2.378,5.7419,5.7419,0,0,1-3.0982.9,6.0014,6.0014,0,0,1-4.8271-2.1259,8.4851,8.4851,0,0,1-1.8374-5.6914,8.4894,8.4894,0,0,1,1.8374-5.6924,6.0034,6.0034,0,0,1,4.8271-2.125,5.7632,5.7632,0,0,1,3.2061.9365,5.0394,5.0394,0,0,1,1.9814,2.4854V56.9365h1.441V71.9229A5.34,5.34,0,0,1,97.0493,76.21,7.0983,7.0983,0,0,1,92.15,77.7588,7.4948,7.4948,0,0,1,87.5029,76.3184Zm8.3575-7.35a8.2292,8.2292,0,0,0,0-9.5108,4.62,4.62,0,0,0-7.4571-.1074,7.6579,7.6579,0,0,0-1.4409,4.8633,7.6578,7.6578,0,0,0,1.4409,4.8632,4.621,4.621,0,0,0,7.4571-.1083Z"/><path d="M115.9624,76.3184a4.3384,4.3384,0,0,1-1.9453-3.5313h1.3686a3.2523,3.2523,0,0,0,1.5132,2.666,6.3186,6.3186,0,0,0,3.71,1.0811,5.4563,5.4563,0,0,0,3.7827-1.2608,4.2747,4.2747,0,0,0,1.4409-3.3867V68.7529a5.2956,5.2956,0,0,1-2.0893,2.378,5.7419,5.7419,0,0,1-3.0982.9,6.0013,6.0013,0,0,1-4.8271-2.1259,8.4851,8.4851,0,0,1-1.8374-5.6914,8.4894,8.4894,0,0,1,1.8374-5.6924,6.0033,6.0033,0,0,1,4.8271-2.125,5.7634,5.7634,0,0,1,3.2061.9365,5.04,5.04,0,0,1,1.9814,2.4854V56.9365h1.4409V71.9229a5.34,5.34,0,0,1-1.7651,4.2871,7.0983,7.0983,0,0,1-4.8994,1.5488A7.4948,7.4948,0,0,1,115.9624,76.3184Zm8.3574-7.35a8.2288,8.2288,0,0,0,0-9.5108,4.62,4.62,0,0,0-7.457-.1074,7.6579,7.6579,0,0,0-1.4409,4.8633,7.6578,7.6578,0,0,0,1.4409,4.8632,4.6209,4.6209,0,0,0,7.457-.1083Z"/><path d="M131.8853,72.2832V56.9365h1.4409v3.458a6.5364,6.5364,0,0,1,1.8012-2.7011,4.0221,4.0221,0,0,1,2.5938-1.0088h.8286v1.6572a.5682.5682,0,0,1-.2524-.0723.3753.3753,0,0,0-.1441-.0722,4.1424,4.1424,0,0,0-3.062,1.4414,6.9262,6.9262,0,0,0-1.7651,3.6386v9.0059Z"/><path d="M141.0713,50.9209h1.4409v2.1973h-1.4409Zm0,21.3623V56.9365h1.4409V72.2832Z"/><path d="M147.1235,72.2832V56.9365h1.441V59.53a4.9207,4.9207,0,0,1,1.9814-2.1612,5.7287,5.7287,0,0,1,6.8086.6485,4.7645,4.7645,0,0,1,1.6211,3.6025V72.2832h-1.4409V61.62a3.5736,3.5736,0,0,0-1.189-2.7021A4.0137,4.0137,0,0,0,153.5,57.8008a4.744,4.744,0,0,0-3.2065,1.2256,5.3157,5.3157,0,0,0-1.729,3.1338v10.123Z"/><path d="M164.271,70.59a9.09,9.09,0,0,1-1.8731-5.9794,9.093,9.093,0,0,1,1.8731-5.98,6.1628,6.1628,0,0,1,4.9717-2.2334,6.4082,6.4082,0,0,1,4.9712,2.0527,7.8156,7.8156,0,0,1,1.8735,5.4766V64.61H163.8389a7.8589,7.8589,0,0,0,1.477,5.0068,4.748,4.748,0,0,0,3.9268,1.873,5.8936,5.8936,0,0,0,3.3139-.9726,5.1963,5.1963,0,0,0,2.0894-2.63h1.4414a5.3766,5.3766,0,0,1-2.3057,3.5312,7.5478,7.5478,0,0,1-4.539,1.4043A6.1628,6.1628,0,0,1,164.271,70.59Zm10.375-7.3486V62.7a5.4659,5.4659,0,0,0-1.729-3.6025,5.2992,5.2992,0,0,0-3.6743-1.44,5.1008,5.1008,0,0,0-3.6387,1.4766,5.5949,5.5949,0,0,0-1.7651,3.7109v.3965Z"/><path d="M179.4736,72.2832V56.9365h1.441v3.458a6.5354,6.5354,0,0,1,1.8012-2.7011,4.0221,4.0221,0,0,1,2.5938-1.0088h.8286v1.6572a.5686.5686,0,0,1-.2525-.0723.3745.3745,0,0,0-.144-.0722,4.1424,4.1424,0,0,0-3.062,1.4414,6.9262,6.9262,0,0,0-1.7651,3.6386v9.0059Z"/><path d="M201.1963,70.374a8.1962,8.1962,0,0,1-1.9815-5.7636,8.7646,8.7646,0,0,1,1.9815-5.98,6.5756,6.5756,0,0,1,5.2236-2.2334,6.6452,6.6452,0,0,1,5.2237,2.2334,8.8709,8.8709,0,0,1,1.9453,5.98,8.2921,8.2921,0,0,1-1.9453,5.7636,6.7522,6.7522,0,0,1-5.2237,2.1612A6.6807,6.6807,0,0,1,201.1963,70.374Zm9.4023-.8642a7.3545,7.3545,0,0,0,1.5489-4.8994,7.6747,7.6747,0,0,0-1.5489-5.044,5.1658,5.1658,0,0,0-4.1787-1.9092,5.1007,5.1007,0,0,0-4.1792,1.9092,7.553,7.553,0,0,0-1.5849,5.044,7.24,7.24,0,0,0,1.5849,4.8994,5.1835,5.1835,0,0,0,4.1792,1.8369A5.25,5.25,0,0,0,210.5986,69.51Z"/><path d="M218.2358,76.3184a4.3387,4.3387,0,0,1-1.9453-3.5313h1.3687a3.2523,3.2523,0,0,0,1.5132,2.666,6.3181,6.3181,0,0,0,3.71,1.0811,5.4562,5.4562,0,0,0,3.7827-1.2608,4.2744,4.2744,0,0,0,1.4409-3.3867V68.7529a5.2956,5.2956,0,0,1-2.0893,2.378,5.7416,5.7416,0,0,1-3.0982.9,6.0014,6.0014,0,0,1-4.8271-2.1259,8.4851,8.4851,0,0,1-1.8374-5.6914,8.4894,8.4894,0,0,1,1.8374-5.6924,6.0034,6.0034,0,0,1,4.8271-2.125,5.7632,5.7632,0,0,1,3.2061.9365,5.0394,5.0394,0,0,1,1.9814,2.4854V56.9365h1.441V71.9229a5.34,5.34,0,0,1-1.7652,4.2871,7.0983,7.0983,0,0,1-4.8994,1.5488A7.4948,7.4948,0,0,1,218.2358,76.3184Zm8.3575-7.35a8.2292,8.2292,0,0,0,0-9.5108,4.62,4.62,0,0,0-7.4571-.1074,7.6579,7.6579,0,0,0-1.4409,4.8633,7.6578,7.6578,0,0,0,1.4409,4.8632,4.621,4.621,0,0,0,7.4571-.1083Z"/><path d="M246.1548,71.2383a4.3957,4.3957,0,0,1-1.729-3.4942h1.3325a3.3746,3.3746,0,0,0,1.333,2.6661,4.927,4.927,0,0,0,3.2066,1.08,5.79,5.79,0,0,0,3.4941-.9726,3.1757,3.1757,0,0,0,1.2969-2.63,2.4767,2.4767,0,0,0-1.3687-2.0889,8.6675,8.6675,0,0,0-3.6748-1.0449,7.08,7.08,0,0,1-3.8906-1.3691,3.4852,3.4852,0,0,1-1.4771-2.8457,3.4073,3.4073,0,0,1,1.4771-2.9541,7.0905,7.0905,0,0,1,4.1431-1.045,6.7122,6.7122,0,0,1,4.0708,1.1172,3.506,3.506,0,0,1,1.5488,2.99h-1.3692a3.3048,3.3048,0,0,0-1.3686-2.1983,4.8753,4.8753,0,0,0-2.8818-.792,5.3905,5.3905,0,0,0-3.0982.792,2.4291,2.4291,0,0,0-1.1528,2.09,2.4727,2.4727,0,0,0,1.4048,2.09,8.6483,8.6483,0,0,0,3.6743,1.044,6.9117,6.9117,0,0,1,3.8911,1.4414,3.9985,3.9985,0,0,1-.2525,6.3408,7.3556,7.3556,0,0,1-4.4667,1.2246A6.1715,6.1715,0,0,1,246.1548,71.2383Z"/><path d="M260.7446,70.59a9.09,9.09,0,0,1-1.873-5.9794,9.093,9.093,0,0,1,1.873-5.98,6.163,6.163,0,0,1,4.9717-2.2334,6.408,6.408,0,0,1,4.9712,2.0527,7.8156,7.8156,0,0,1,1.8735,5.4766V64.61H260.3125a7.8583,7.8583,0,0,0,1.4771,5.0068,4.7477,4.7477,0,0,0,3.9267,1.873,5.8941,5.8941,0,0,0,3.314-.9726,5.1955,5.1955,0,0,0,2.0893-2.63h1.4414a5.3768,5.3768,0,0,1-2.3056,3.5312,7.5483,7.5483,0,0,1-4.5391,1.4043A6.163,6.163,0,0,1,260.7446,70.59Zm10.375-7.3486V62.7a5.4655,5.4655,0,0,0-1.729-3.6025,5.2992,5.2992,0,0,0-3.6743-1.44,5.1011,5.1011,0,0,0-3.6387,1.4766,5.5949,5.5949,0,0,0-1.7651,3.7109v.3965Z"/><path d="M275.9473,72.2832V56.9365h1.4409V59.53a4.9213,4.9213,0,0,1,1.9814-2.1612,5.7287,5.7287,0,0,1,6.8086.6485,4.7645,4.7645,0,0,1,1.6211,3.6025V72.2832h-1.4409V61.62a3.5736,3.5736,0,0,0-1.189-2.7021,4.0135,4.0135,0,0,0-2.8457-1.1172,4.7442,4.7442,0,0,0-3.2065,1.2256,5.3162,5.3162,0,0,0-1.729,3.1338v10.123Z"/><path d="M293.0947,70.3018a8.5113,8.5113,0,0,1-1.9814-5.6914,8.8482,8.8482,0,0,1,1.9814-5.8008,5.9711,5.9711,0,0,1,4.7554-2.4131,5.4964,5.4964,0,0,1,3.2422,1.0449,6.1135,6.1135,0,0,1,2.0893,2.81v-9.33h1.441V72.2832h-1.441V69.1494a5.09,5.09,0,0,1-2.0532,2.5576,5.7239,5.7239,0,0,1-3.2783.9727A6.0012,6.0012,0,0,1,293.0947,70.3018Zm8.5381-.7569a7.9591,7.9591,0,0,0,1.5488-4.9345,7.8079,7.8079,0,0,0-1.5488-4.8995,4.67,4.67,0,0,0-3.7827-2.0537,4.5744,4.5744,0,0,0-3.7466,2.0537,7.8052,7.8052,0,0,0-1.5493,4.8995,7.9563,7.9563,0,0,0,1.5493,4.9345,4.5741,4.5741,0,0,0,3.7466,2.0537A4.67,4.67,0,0,0,301.6328,69.5449Z"/><path d="M310.17,70.59a9.09,9.09,0,0,1-1.873-5.9794,9.093,9.093,0,0,1,1.873-5.98,6.163,6.163,0,0,1,4.9717-2.2334,6.408,6.408,0,0,1,4.9712,2.0527,7.8156,7.8156,0,0,1,1.8735,5.4766V64.61H309.7378a7.8589,7.8589,0,0,0,1.477,5.0068,4.748,4.748,0,0,0,3.9268,1.873,5.8941,5.8941,0,0,0,3.314-.9726,5.1961,5.1961,0,0,0,2.0893-2.63h1.4414a5.3768,5.3768,0,0,1-2.3056,3.5312,7.5483,7.5483,0,0,1-4.5391,1.4043A6.163,6.163,0,0,1,310.17,70.59Zm10.375-7.3486V62.7a5.4659,5.4659,0,0,0-1.729-3.6025,5.2992,5.2992,0,0,0-3.6743-1.44,5.101,5.101,0,0,0-3.6387,1.4766,5.5949,5.5949,0,0,0-1.7651,3.7109v.3965Z"/><path d="M325.3726,72.2832V56.9365h1.4409v3.458a6.5364,6.5364,0,0,1,1.8012-2.7011,4.0223,4.0223,0,0,1,2.5938-1.0088h.8286v1.6572a.5682.5682,0,0,1-.2524-.0723.3747.3747,0,0,0-.1441-.0722,4.1424,4.1424,0,0,0-3.062,1.4414,6.9262,6.9262,0,0,0-1.7651,3.6386v9.0059Z"/><path d="M57.2422,105.1016A8.5114,8.5114,0,0,1,55.2607,99.41a8.8485,8.8485,0,0,1,1.9815-5.8008,5.9709,5.9709,0,0,1,4.7554-2.4131A5.4961,5.4961,0,0,1,65.24,92.2412a6.113,6.113,0,0,1,2.0894,2.81v-9.33H68.77V107.083H67.3291v-3.1338a5.09,5.09,0,0,1-2.0532,2.5576,5.7242,5.7242,0,0,1-3.2783.9727A6.0011,6.0011,0,0,1,57.2422,105.1016Zm8.5381-.7569A7.9589,7.9589,0,0,0,67.3291,99.41a7.8079,7.8079,0,0,0-1.5488-4.9,4.6707,4.6707,0,0,0-3.7827-2.0537,4.5743,4.5743,0,0,0-3.7466,2.0537,7.8052,7.8052,0,0,0-1.5493,4.9,7.9561,7.9561,0,0,0,1.5493,4.9345,4.574,4.574,0,0,0,3.7466,2.0537A4.67,4.67,0,0,0,65.78,104.3447Z"/><path d="M74.3174,105.39a10.4822,10.4822,0,0,1,0-11.96,6.1627,6.1627,0,0,1,4.9717-2.2334A6.4082,6.4082,0,0,1,84.26,93.249a7.8156,7.8156,0,0,1,1.8735,5.4766V99.41H73.8853a7.8589,7.8589,0,0,0,1.477,5.0068,4.748,4.748,0,0,0,3.9268,1.873,5.8936,5.8936,0,0,0,3.3139-.9726,5.1963,5.1963,0,0,0,2.0894-2.63h1.4414a5.377,5.377,0,0,1-2.3057,3.5313,7.5486,7.5486,0,0,1-4.539,1.4042A6.1627,6.1627,0,0,1,74.3174,105.39Zm10.375-7.3486V97.5a5.4659,5.4659,0,0,0-1.729-3.6025,5.3,5.3,0,0,0-3.6743-1.44A5.1008,5.1008,0,0,0,75.65,93.9336a5.5949,5.5949,0,0,0-1.7651,3.7109v.3965Z"/><path d="M90.4927,106.65a3.3516,3.3516,0,0,1-.8286-2.3057V92.8535H87.4663V91.7363h2.1978V87.377H91.105v4.3593h2.0893v1.1172H91.105v11.4912a2.5752,2.5752,0,0,0,.4682,1.55,1.2716,1.2716,0,0,0,1.0811.6485,2.1888,2.1888,0,0,0,1.1167-.253v1.045a3.9093,3.9093,0,0,1-1.2251.288A2.6609,2.6609,0,0,1,90.4927,106.65Z"/><path d="M111.7471,107.083,106.019,91.7363h1.3331l5.2236,13.6895,4.9355-13.6895H118.88l-5.62,15.3467Z"/><path d="M121.6538,85.7207h1.4409V87.918h-1.4409Zm0,21.3623V91.7363h1.4409V107.083Z"/><path d="M128.6426,105.1016a8.5114,8.5114,0,0,1-1.9815-5.6914,8.8485,8.8485,0,0,1,1.9815-5.8008,5.9709,5.9709,0,0,1,4.7553-2.4131,5.4961,5.4961,0,0,1,3.2422,1.0449,6.113,6.113,0,0,1,2.0894,2.81v-9.33H140.17V107.083H138.73v-3.1338a5.0909,5.0909,0,0,1-2.0532,2.5576,5.7242,5.7242,0,0,1-3.2784.9727A6.001,6.001,0,0,1,128.6426,105.1016Zm8.5381-.7569A7.9589,7.9589,0,0,0,138.73,99.41a7.8079,7.8079,0,0,0-1.5488-4.9,4.6708,4.6708,0,0,0-3.7828-2.0537,4.5742,4.5742,0,0,0-3.7465,2.0537,7.8052,7.8052,0,0,0-1.5493,4.9,7.9561,7.9561,0,0,0,1.5493,4.9345,4.574,4.574,0,0,0,3.7465,2.0537A4.6705,4.6705,0,0,0,137.1807,104.3447Z"/><path d="M145.7178,105.39a10.4822,10.4822,0,0,1,0-11.96,6.1627,6.1627,0,0,1,4.9717-2.2334,6.4078,6.4078,0,0,1,4.9711,2.0527,7.8151,7.8151,0,0,1,1.8736,5.4766V99.41H145.2856a7.8583,7.8583,0,0,0,1.4771,5.0068,4.748,4.748,0,0,0,3.9268,1.873,5.8936,5.8936,0,0,0,3.3139-.9726,5.1963,5.1963,0,0,0,2.0894-2.63h1.4414a5.377,5.377,0,0,1-2.3057,3.5313,7.5486,7.5486,0,0,1-4.539,1.4042A6.1627,6.1627,0,0,1,145.7178,105.39Zm10.375-7.3486V97.5a5.4659,5.4659,0,0,0-1.729-3.6025,5.3,5.3,0,0,0-3.6743-1.44,5.1008,5.1008,0,0,0-3.6387,1.4766,5.5954,5.5954,0,0,0-1.7652,3.7109v.3965Z"/><path d="M160.92,107.083V91.7363h1.4409v3.458a6.5363,6.5363,0,0,1,1.8013-2.7011,4.0221,4.0221,0,0,1,2.5937-1.0088h.8287v1.6572a.5686.5686,0,0,1-.2525-.0723.3752.3752,0,0,0-.144-.0722,4.1424,4.1424,0,0,0-3.062,1.4414,6.927,6.927,0,0,0-1.7652,3.6386v9.0059Z"/><path d="M171.043,105.39a10.4822,10.4822,0,0,1,0-11.96,6.1627,6.1627,0,0,1,4.9716-2.2334,6.4079,6.4079,0,0,1,4.9712,2.0527,7.8151,7.8151,0,0,1,1.8736,5.4766V99.41H170.6108a7.8583,7.8583,0,0,0,1.4771,5.0068,4.748,4.748,0,0,0,3.9267,1.873,5.8937,5.8937,0,0,0,3.314-.9726,5.1963,5.1963,0,0,0,2.0894-2.63h1.4414a5.377,5.377,0,0,1-2.3057,3.5313,7.5487,7.5487,0,0,1-4.5391,1.4042A6.1627,6.1627,0,0,1,171.043,105.39Zm10.375-7.3486V97.5a5.4659,5.4659,0,0,0-1.729-3.6025,5.3,5.3,0,0,0-3.6744-1.44,5.1007,5.1007,0,0,0-3.6386,1.4766,5.595,5.595,0,0,0-1.7652,3.7109v.3965Z"/><path d="M198.7461,106.65a3.3521,3.3521,0,0,1-.8286-2.3057V92.8535H195.72V91.7363h2.1978V87.377h1.4409v4.3593h2.0894v1.1172h-2.0894v11.4912a2.5753,2.5753,0,0,0,.4683,1.55,1.2713,1.2713,0,0,0,1.081.6485,2.1888,2.1888,0,0,0,1.1167-.253v1.045a3.9093,3.9093,0,0,1-1.2251.288A2.661,2.661,0,0,1,198.7461,106.65Z"/><path d="M204.582,85.7207h1.4409V87.918H204.582Zm0,21.3623V91.7363h1.4409V107.083Z"/><path d="M210.6343,107.083V85.7207h1.4409V107.083Z"/><path d="M229.0068,105.5342a6.594,6.594,0,0,1-2.1977-5.0078h1.4414a5.44,5.44,0,0,0,1.7651,4.0713,5.9185,5.9185,0,0,0,4.251,1.6923,7.5869,7.5869,0,0,0,4.647-1.44,4.2638,4.2638,0,0,0,1.9092-3.4941,3.5139,3.5139,0,0,0-1.6929-2.9541,8.9322,8.9322,0,0,0-4.4673-1.4414,9.8165,9.8165,0,0,1-5.4756-1.9454,5.0353,5.0353,0,0,1,.0361-8.1416,7.7546,7.7546,0,0,1,5.0435-1.6933,8.5959,8.5959,0,0,1,5.4395,1.7656,5.2686,5.2686,0,0,1,2.2338,4.251h-1.4414a4.0063,4.0063,0,0,0-1.8369-3.2783,7.05,7.05,0,0,0-4.395-1.3692,6.4443,6.4443,0,0,0-4.0352,1.2969,3.774,3.774,0,0,0-1.6567,3.0986,3.6117,3.6117,0,0,0,1.729,3.0254,9.4856,9.4856,0,0,0,4.647,1.4776,9.6476,9.6476,0,0,1,5.332,1.9091,4.98,4.98,0,0,1,1.9815,3.9991,5.4764,5.4764,0,0,1-2.3418,4.4306,8.886,8.886,0,0,1-5.6558,1.8369A7.2866,7.2866,0,0,1,229.0068,105.5342Z"/><path d="M246.4785,105.1738a8.1962,8.1962,0,0,1-1.9814-5.7636,8.7645,8.7645,0,0,1,1.9814-5.9805,6.5756,6.5756,0,0,1,5.2236-2.2334,6.6452,6.6452,0,0,1,5.2237,2.2334,8.87,8.87,0,0,1,1.9453,5.9805,8.2916,8.2916,0,0,1-1.9453,5.7636,6.7522,6.7522,0,0,1-5.2237,2.1612A6.6807,6.6807,0,0,1,246.4785,105.1738Zm9.4024-.8642A7.355,7.355,0,0,0,257.43,99.41a7.6752,7.6752,0,0,0-1.5488-5.044,5.1663,5.1663,0,0,0-4.1788-1.9092,5.1011,5.1011,0,0,0-4.1792,1.9092,7.553,7.553,0,0,0-1.5849,5.044,7.24,7.24,0,0,0,1.5849,4.8994,5.1836,5.1836,0,0,0,4.1792,1.8369A5.2506,5.2506,0,0,0,255.8809,104.31Z"/><path d="M262.8335,107.083V93.2852H260.42V91.8809h2.4136V88.999a3.0734,3.0734,0,0,1,.9727-2.3056,3.1914,3.1914,0,0,1,2.3417-.9727h.8643v1.1162h-.8286a1.67,1.67,0,0,0-1.333.6485,2.1256,2.1256,0,0,0-.5762,1.5136v2.8819h2.7378v1.4043h-2.7378V107.083Z"/><path d="M269.5342,85.7207h1.4409V87.918h-1.4409Zm0,21.3623V91.7363h1.4409V107.083Z"/><path d="M276.5229,105.39a10.4826,10.4826,0,0,1,0-11.96,6.163,6.163,0,0,1,4.9717-2.2334,6.4079,6.4079,0,0,1,4.9712,2.0527,7.8151,7.8151,0,0,1,1.8736,5.4766V99.41H276.0908a7.8583,7.8583,0,0,0,1.4771,5.0068,4.7477,4.7477,0,0,0,3.9267,1.873,5.8941,5.8941,0,0,0,3.314-.9726,5.1955,5.1955,0,0,0,2.0893-2.63h1.4415a5.3774,5.3774,0,0,1-2.3057,3.5313,7.5489,7.5489,0,0,1-4.5391,1.4042A6.163,6.163,0,0,1,276.5229,105.39Zm10.375-7.3486V97.5a5.4655,5.4655,0,0,0-1.729-3.6025,5.2992,5.2992,0,0,0-3.6743-1.44,5.1007,5.1007,0,0,0-3.6386,1.4766,5.5945,5.5945,0,0,0-1.7652,3.7109v.3965Z"/><path d="M291.7256,104.8857h2.0893v2.1973h-2.0893Z"/></g></svg>
