<svg xmlns="http://www.w3.org/2000/svg" width="396" height="169" viewBox="0 0 396 169"><defs><style>.cls-1{fill:#f09638;}</style></defs><title>svar5</title><g id="Spørgsmål"><rect class="cls-1" x="8" y="11" width="380" height="147" rx="45.727"/><path d="M60.3057,69.2832V47.9209h1.44v9.33H74.6436v-9.33h1.44V69.2832h-1.44V58.62H61.7461V69.2832Z"/><path d="M81.0557,68.5625a3.726,3.726,0,0,1-.0362-6.124A6.8767,6.8767,0,0,1,84.91,60.9258a16.0872,16.0872,0,0,0,3.7109-.7207q1.4766-.504,1.4766-1.1885V57.6475A2.3831,2.3831,0,0,0,88.8008,55.63a6.1182,6.1182,0,0,0-6.0879-.0361,2.3545,2.3545,0,0,0-1.2246,1.9453v.7929H80.1191v-.9375A3.1226,3.1226,0,0,1,81.74,54.7656a7.0892,7.0892,0,0,1,3.9629-1.081,7.6052,7.6052,0,0,1,4.07,1.0449,2.9847,2.9847,0,0,1,1.6934,2.5215v9.2939a2.9038,2.9038,0,0,0,.3965,1.55,1.1411,1.1411,0,0,0,.9726.6485,1.3294,1.3294,0,0,0,.3243-.0362.4437.4437,0,0,0,.2158-.1084v.6846a3.2471,3.2471,0,0,1-1.3692.252,1.84,1.84,0,0,1-1.44-.7207,2.6749,2.6749,0,0,1-.5762-1.7286,3.6632,3.6632,0,0,1-1.8379,1.9815,6.7376,6.7376,0,0,1-3.2421.7558A5.9934,5.9934,0,0,1,81.0557,68.5625Zm7.2412-1.08a5.045,5.045,0,0,0,1.8008-3.1347v-3.53a4.3768,4.3768,0,0,1-1.8379.7207,25.2673,25.2673,0,0,1-3.35.4678,4.82,4.82,0,0,0-2.8457,1.1533,2.9286,2.9286,0,0,0-1.1524,2.3056A2.8364,2.8364,0,0,0,82.1,67.7705a4.2131,4.2131,0,0,0,2.8106.9727A5.068,5.068,0,0,0,88.2969,67.4824Z"/><path d="M96.15,69.2832V53.9365h1.44V56.53a4.9238,4.9238,0,0,1,1.9815-2.1612,5.7287,5.7287,0,0,1,6.8086.6485A4.7666,4.7666,0,0,1,108.002,58.62V69.2832h-1.4415V58.62a3.5748,3.5748,0,0,0-1.1884-2.7021,4.012,4.012,0,0,0-2.8457-1.1172A4.7421,4.7421,0,0,0,99.32,56.0264a5.309,5.309,0,0,0-1.73,3.1338v10.123Z"/><path d="M124.3574,68.2383a4.3947,4.3947,0,0,1-1.73-3.4942h1.333A3.3736,3.3736,0,0,0,125.293,67.41a4.9281,4.9281,0,0,0,3.207,1.08,5.7886,5.7886,0,0,0,3.4941-.9726,3.1741,3.1741,0,0,0,1.2969-2.63,2.4772,2.4772,0,0,0-1.3691-2.0889,8.66,8.66,0,0,0-3.6739-1.0449,7.0773,7.0773,0,0,1-3.8906-1.3691,3.4845,3.4845,0,0,1-1.4775-2.8457,3.4067,3.4067,0,0,1,1.4775-2.9541A7.09,7.09,0,0,1,128.5,53.54a6.7073,6.7073,0,0,1,4.07,1.1172,3.5036,3.5036,0,0,1,1.5488,2.99H132.75a3.3043,3.3043,0,0,0-1.3682-2.1983,4.8772,4.8772,0,0,0-2.8818-.792,5.3877,5.3877,0,0,0-3.0977.792,2.4285,2.4285,0,0,0-1.1533,2.09,2.4715,2.4715,0,0,0,1.4053,2.09,8.6437,8.6437,0,0,0,3.6738,1.044,6.9061,6.9061,0,0,1,3.8907,1.4414,3.9981,3.9981,0,0,1-.252,6.3408A7.3571,7.3571,0,0,1,128.5,69.68,6.17,6.17,0,0,1,124.3574,68.2383Z"/><path d="M137.3613,73.9668h1.1172q.8291,0,1.8008-1.333a14.3066,14.3066,0,0,0,1.7656-3.4951l-5.872-15.2022h1.333L142.73,67.374l5.1875-13.4375h1.4053L142.73,70.94a8.827,8.827,0,0,1-1.7647,2.99,3.2216,3.2216,0,0,1-2.2343,1.1162h-1.3692Z"/><path d="M152.06,69.2832V53.9365h1.44V56.53a4.9264,4.9264,0,0,1,1.9824-2.1612,5.7287,5.7287,0,0,1,6.8086.6485,4.7662,4.7662,0,0,1,1.6211,3.6025V69.2832h-1.4414V58.62a3.5723,3.5723,0,0,0-1.1895-2.7021,4.0118,4.0118,0,0,0-2.8457-1.1172,4.7421,4.7421,0,0,0-3.206,1.2256A5.32,5.32,0,0,0,153.5,59.16v10.123Z"/><path d="M169.2432,68.8506a3.352,3.352,0,0,1-.8291-2.3057V55.0537h-2.1973V53.9365h2.1973V49.5771h1.4414v4.3594h2.09v1.1172h-2.09V66.5449a2.5755,2.5755,0,0,0,.4687,1.55,1.27,1.27,0,0,0,1.08.6485,2.19,2.19,0,0,0,1.1172-.253v1.045a3.9129,3.9129,0,0,1-1.2246.288A2.6611,2.6611,0,0,1,169.2432,68.8506Z"/><path d="M176.0156,67.59a9.09,9.09,0,0,1-1.873-5.9794,9.093,9.093,0,0,1,1.873-5.98,6.163,6.163,0,0,1,4.9717-2.2334,6.41,6.41,0,0,1,4.9717,2.0527,7.8176,7.8176,0,0,1,1.873,5.4766V61.61H175.584a7.8587,7.8587,0,0,0,1.4765,5.0068,4.748,4.748,0,0,0,3.9268,1.873,5.8914,5.8914,0,0,0,3.3135-.9726,5.1945,5.1945,0,0,0,2.09-2.63h1.4414a5.375,5.375,0,0,1-2.3056,3.5312,7.5472,7.5472,0,0,1-4.5391,1.4043A6.163,6.163,0,0,1,176.0156,67.59Zm10.375-7.3486V59.7a5.4694,5.4694,0,0,0-1.7285-3.6025,5.3013,5.3013,0,0,0-3.6748-1.44,5.1011,5.1011,0,0,0-3.6387,1.4766,5.59,5.59,0,0,0-1.7646,3.7109v.3965Z"/><path d="M191.6865,68.2383a4.3947,4.3947,0,0,1-1.73-3.4942h1.333a3.3749,3.3749,0,0,0,1.333,2.6661,4.9286,4.9286,0,0,0,3.2071,1.08,5.7909,5.7909,0,0,0,3.4941-.9726,3.1768,3.1768,0,0,0,1.2969-2.63,2.4772,2.4772,0,0,0-1.3691-2.0889,8.67,8.67,0,0,0-3.6749-1.0449,7.0773,7.0773,0,0,1-3.8906-1.3691,3.4845,3.4845,0,0,1-1.4775-2.8457,3.4067,3.4067,0,0,1,1.4775-2.9541A7.0914,7.0914,0,0,1,195.83,53.54a6.7114,6.7114,0,0,1,4.07,1.1172,3.506,3.506,0,0,1,1.5488,2.99H200.08a3.3055,3.3055,0,0,0-1.3692-2.1983,4.8718,4.8718,0,0,0-2.8808-.792,5.3933,5.3933,0,0,0-3.0987.792,2.4307,2.4307,0,0,0-1.1533,2.09,2.4735,2.4735,0,0,0,1.4053,2.09,8.6529,8.6529,0,0,0,3.6748,1.044,6.9112,6.9112,0,0,1,3.8906,1.4414,3.9982,3.9982,0,0,1-.2519,6.3408A7.3571,7.3571,0,0,1,195.83,69.68,6.17,6.17,0,0,1,191.6865,68.2383Z"/><path d="M217.2285,68.5625a3.7266,3.7266,0,0,1-.0371-6.124,6.8821,6.8821,0,0,1,3.8906-1.5127,16.0882,16.0882,0,0,0,3.711-.7207q1.4764-.504,1.4765-1.1885V57.6475a2.3829,2.3829,0,0,0-1.2968-2.0176,6.1182,6.1182,0,0,0-6.0879-.0361,2.3545,2.3545,0,0,0-1.2246,1.9453v.7929H216.291v-.9375a3.1246,3.1246,0,0,1,1.6211-2.6289,7.0913,7.0913,0,0,1,3.9629-1.081,7.6028,7.6028,0,0,1,4.07,1.0449,2.9847,2.9847,0,0,1,1.6934,2.5215v9.2939a2.9119,2.9119,0,0,0,.3965,1.55,1.1409,1.1409,0,0,0,.9726.6485,1.3177,1.3177,0,0,0,.3242-.0362.4517.4517,0,0,0,.2168-.1084v.6846a3.25,3.25,0,0,1-1.3691.252,1.8415,1.8415,0,0,1-1.4414-.7207,2.6749,2.6749,0,0,1-.5762-1.7286,3.6566,3.6566,0,0,1-1.8379,1.9815,6.7352,6.7352,0,0,1-3.2422.7558A5.9927,5.9927,0,0,1,217.2285,68.5625Zm7.24-1.08a5.04,5.04,0,0,0,1.8007-3.1347v-3.53a4.37,4.37,0,0,1-1.8369.7207,25.3059,25.3059,0,0,1-3.3506.4678,4.8227,4.8227,0,0,0-2.8457,1.1533,2.9318,2.9318,0,0,0-1.1523,2.3056,2.8375,2.8375,0,0,0,1.1885,2.3057,4.21,4.21,0,0,0,2.8095.9727A5.0644,5.0644,0,0,0,224.4688,67.4824Z"/><path d="M233.2949,68.8506a3.3517,3.3517,0,0,1-.8281-2.3057V55.0537h-2.1982V53.9365h2.1982V49.5771h1.44v4.3594h2.0889v1.1172h-2.0889V66.5449a2.575,2.575,0,0,0,.4678,1.55,1.273,1.273,0,0,0,1.082.6485,2.1878,2.1878,0,0,0,1.1162-.253v1.045a3.9059,3.9059,0,0,1-1.2255.288A2.661,2.661,0,0,1,233.2949,68.8506Z"/><path d="M251.5957,67.3018a8.507,8.507,0,0,1-1.9824-5.6914,8.8436,8.8436,0,0,1,1.9824-5.8008,5.9694,5.9694,0,0,1,4.7549-2.4131,5.4966,5.4966,0,0,1,3.2422,1.0449,6.1125,6.1125,0,0,1,2.0888,2.81v-9.33h1.4414V69.2832h-1.4414V66.1494a5.0863,5.0863,0,0,1-2.0527,2.5576,5.7239,5.7239,0,0,1-3.2783.9727A6,6,0,0,1,251.5957,67.3018Zm8.5371-.7569a7.9529,7.9529,0,0,0,1.5488-4.9345,7.8019,7.8019,0,0,0-1.5488-4.8995,4.67,4.67,0,0,0-3.7822-2.0537,4.5759,4.5759,0,0,0-3.7471,2.0537,7.8079,7.8079,0,0,0-1.5488,4.8995,7.9591,7.9591,0,0,0,1.5488,4.9345,4.5757,4.5757,0,0,0,3.7471,2.0537A4.6694,4.6694,0,0,0,260.1328,66.5449Z"/><path d="M268.67,67.59a9.0955,9.0955,0,0,1-1.873-5.9794,9.0984,9.0984,0,0,1,1.873-5.98,6.1648,6.1648,0,0,1,4.9727-2.2334,6.4077,6.4077,0,0,1,4.9707,2.0527,7.8176,7.8176,0,0,1,1.873,5.4766V61.61h-12.248a7.8647,7.8647,0,0,0,1.4765,5.0068,4.7486,4.7486,0,0,0,3.9278,1.873,5.8937,5.8937,0,0,0,3.3135-.9726,5.193,5.193,0,0,0,2.0888-2.63h1.4414a5.3733,5.3733,0,0,1-2.3047,3.5312,7.5488,7.5488,0,0,1-4.539,1.4043A6.1648,6.1648,0,0,1,268.67,67.59Zm10.375-7.3486V59.7a5.4608,5.4608,0,0,0-1.7285-3.6025,5.2972,5.2972,0,0,0-3.6738-1.44,5.0976,5.0976,0,0,0-3.6387,1.4766,5.5909,5.5909,0,0,0-1.7656,3.7109v.3965Z"/><path d="M284.8457,68.8506a3.3517,3.3517,0,0,1-.8281-2.3057V55.0537h-2.1983V53.9365h2.1983V49.5771h1.44v4.3594h2.0889v1.1172H285.458V66.5449a2.575,2.575,0,0,0,.4678,1.55,1.2728,1.2728,0,0,0,1.082.6485,2.1881,2.1881,0,0,0,1.1162-.253v1.045a3.9058,3.9058,0,0,1-1.2256.288A2.6608,2.6608,0,0,1,284.8457,68.8506Z"/><path d="M303.1465,67.59a9.0846,9.0846,0,0,1-1.8731-5.9794,9.0875,9.0875,0,0,1,1.8731-5.98,6.1609,6.1609,0,0,1,4.9707-2.2334,6.4085,6.4085,0,0,1,4.9717,2.0527,7.8135,7.8135,0,0,1,1.874,5.4766V61.61h-12.249a7.853,7.853,0,0,0,1.4775,5.0068,4.7475,4.7475,0,0,0,3.9258,1.873,5.894,5.894,0,0,0,3.3144-.9726,5.2,5.2,0,0,0,2.09-2.63h1.4414a5.38,5.38,0,0,1-2.3067,3.5312,7.5467,7.5467,0,0,1-4.539,1.4043A6.1609,6.1609,0,0,1,303.1465,67.59Zm10.375-7.3486V59.7a5.471,5.471,0,0,0-1.73-3.6025,5.3013,5.3013,0,0,0-3.6748-1.44,5.1042,5.1042,0,0,0-3.6387,1.4766,5.5988,5.5988,0,0,0-1.7646,3.7109v.3965Z"/><path d="M318.3486,69.2832V53.9365h1.4405v3.458a6.5411,6.5411,0,0,1,1.8017-2.7011,4.0221,4.0221,0,0,1,2.5938-1.0088h.8291v1.6572a.57.57,0,0,1-.253-.0723.3738.3738,0,0,0-.1435-.0722,4.1427,4.1427,0,0,0-3.0625,1.4414,6.93,6.93,0,0,0-1.7656,3.6386v9.0059Z"/><path d="M60.63,104.083V90.2852H58.2168V88.8809H60.63V85.999a3.0737,3.0737,0,0,1,.9726-2.3056,3.1916,3.1916,0,0,1,2.3418-.9727h.8643v1.1162h-.8281a1.6715,1.6715,0,0,0-1.334.6485A2.1278,2.1278,0,0,0,62.07,85.999v2.8819h2.7383v1.4043H62.07V104.083Z"/><path d="M68.2676,102.39a10.4822,10.4822,0,0,1,0-11.96,6.1609,6.1609,0,0,1,4.9707-2.2334A6.4085,6.4085,0,0,1,78.21,90.249a7.8135,7.8135,0,0,1,1.874,5.4766V96.41H67.835a7.853,7.853,0,0,0,1.4775,5.0068,4.7475,4.7475,0,0,0,3.9258,1.873,5.894,5.894,0,0,0,3.3144-.9726,5.2,5.2,0,0,0,2.09-2.63H80.084a5.38,5.38,0,0,1-2.3067,3.5313,7.5473,7.5473,0,0,1-4.539,1.4042A6.1609,6.1609,0,0,1,68.2676,102.39Zm10.375-7.3486V94.5a5.471,5.471,0,0,0-1.73-3.6025,5.3013,5.3013,0,0,0-3.6748-1.44A5.1042,5.1042,0,0,0,69.6,90.9336a5.5988,5.5988,0,0,0-1.7646,3.7109v.3965Z"/><path d="M84.4062,102.1016A8.5118,8.5118,0,0,1,82.4248,96.41a8.849,8.849,0,0,1,1.9814-5.8008,5.9714,5.9714,0,0,1,4.7559-2.4131,5.4986,5.4986,0,0,1,3.2422,1.0449,6.12,6.12,0,0,1,2.0889,2.81v-9.33h1.44V104.083h-1.44v-3.1338a5.0893,5.0893,0,0,1-2.0537,2.5576,5.7213,5.7213,0,0,1-3.2774.9727A6.0016,6.0016,0,0,1,84.4062,102.1016Zm8.5381-.7569A7.9583,7.9583,0,0,0,94.4932,96.41a7.8074,7.8074,0,0,0-1.5489-4.9,4.671,4.671,0,0,0-3.7822-2.0537,4.5747,4.5747,0,0,0-3.7471,2.0537,7.8085,7.8085,0,0,0-1.55,4.9,7.96,7.96,0,0,0,1.55,4.9345,4.5745,4.5745,0,0,0,3.7471,2.0537A4.6707,4.6707,0,0,0,92.9443,101.3447Z"/><path d="M101.5176,103.65a3.3512,3.3512,0,0,1-.8281-2.3057V89.8535H98.4912V88.7363H100.69V84.377h1.44v4.3593h2.0889v1.1172H102.13v11.4912a2.575,2.575,0,0,0,.4678,1.55,1.2728,1.2728,0,0,0,1.082.6485,2.1881,2.1881,0,0,0,1.1162-.253v1.045a3.9058,3.9058,0,0,1-1.2256.288A2.6608,2.6608,0,0,1,101.5176,103.65Z"/><path d="M119.8906,102.1738a8.1926,8.1926,0,0,1-1.9824-5.7636,8.7605,8.7605,0,0,1,1.9824-5.9805,6.5743,6.5743,0,0,1,5.2227-2.2334,6.6473,6.6473,0,0,1,5.2246,2.2334,8.87,8.87,0,0,1,1.9453,5.9805,8.2916,8.2916,0,0,1-1.9453,5.7636,6.7543,6.7543,0,0,1-5.2246,2.1612A6.6793,6.6793,0,0,1,119.8906,102.1738Zm9.4024-.8642a7.36,7.36,0,0,0,1.5488-4.8994,7.6807,7.6807,0,0,0-1.5488-5.044,5.168,5.168,0,0,0-4.18-1.9092,5.1007,5.1007,0,0,0-4.1787,1.9092,7.55,7.55,0,0,0-1.585,5.044,7.2378,7.2378,0,0,0,1.585,4.8994,5.1832,5.1832,0,0,0,4.1787,1.8369A5.2525,5.2525,0,0,0,129.293,101.31Z"/><path d="M136.93,108.1182a4.3383,4.3383,0,0,1-1.9453-3.5313h1.3691a3.2517,3.2517,0,0,0,1.5127,2.666,6.3177,6.3177,0,0,0,3.71,1.0811,5.4559,5.4559,0,0,0,3.7832-1.2608,4.2735,4.2735,0,0,0,1.4414-3.3867v-3.1338a5.2993,5.2993,0,0,1-2.09,2.378,5.7422,5.7422,0,0,1-3.0976.9,6.0046,6.0046,0,0,1-4.8281-2.126,9.7366,9.7366,0,0,1,0-11.3838,6.0065,6.0065,0,0,1,4.8281-2.125,5.7613,5.7613,0,0,1,3.2051.9365,5.0391,5.0391,0,0,1,1.9824,2.4854V88.7363h1.44v14.9864a5.3419,5.3419,0,0,1-1.7646,4.2871,7.1021,7.1021,0,0,1-4.9,1.5488A7.4952,7.4952,0,0,1,136.93,108.1182Zm8.3574-7.35a8.2266,8.2266,0,0,0,0-9.5108,4.62,4.62,0,0,0-7.457-.1074,8.9251,8.9251,0,0,0,0,9.7266,4.6209,4.6209,0,0,0,7.457-.1084Z"/><path d="M165.3887,108.1182a4.3383,4.3383,0,0,1-1.9453-3.5313h1.3691a3.25,3.25,0,0,0,1.5137,2.666,6.3154,6.3154,0,0,0,3.71,1.0811,5.4536,5.4536,0,0,0,3.7823-1.2608,4.2735,4.2735,0,0,0,1.4414-3.3867v-3.1338a5.2945,5.2945,0,0,1-2.09,2.378,5.74,5.74,0,0,1-3.0976.9,6.0016,6.0016,0,0,1-4.8272-2.126,9.737,9.737,0,0,1,0-11.3838,6.0035,6.0035,0,0,1,4.8272-2.125,5.7643,5.7643,0,0,1,3.206.9365,5.0428,5.0428,0,0,1,1.9815,2.4854V88.7363h1.4414v14.9864a5.3422,5.3422,0,0,1-1.7657,4.2871,7.0975,7.0975,0,0,1-4.8994,1.5488A7.4978,7.4978,0,0,1,165.3887,108.1182Zm8.3574-7.35a8.2266,8.2266,0,0,0,0-9.5108,4.62,4.62,0,0,0-7.457-.1074,8.93,8.93,0,0,0,0,9.7266,4.6209,4.6209,0,0,0,7.457-.1084Z"/><path d="M181.3125,104.083V88.7363h1.44v3.458a6.5324,6.5324,0,0,1,1.8018-2.7011,4.02,4.02,0,0,1,2.5937-1.0088h.8282v1.6572a.5668.5668,0,0,1-.252-.0723.3828.3828,0,0,0-.1445-.0722,4.1443,4.1443,0,0,0-3.0625,1.4414,6.9375,6.9375,0,0,0-1.7647,3.6386v9.0059Z"/><path d="M190.498,82.7207H191.94V84.918H190.498Zm0,21.3623V88.7363H191.94V104.083Z"/><path d="M196.5508,104.083V88.7363h1.44V91.33a4.9238,4.9238,0,0,1,1.9815-2.1612,5.7285,5.7285,0,0,1,6.8085.6485,4.7662,4.7662,0,0,1,1.6211,3.6025V104.083h-1.4414V93.42a3.5748,3.5748,0,0,0-1.1884-2.7021,4.0122,4.0122,0,0,0-2.8457-1.1172,4.7421,4.7421,0,0,0-3.2061,1.2256,5.309,5.309,0,0,0-1.73,3.1338v10.123Z"/><path d="M213.6973,102.39a10.4822,10.4822,0,0,1,0-11.96,6.1646,6.1646,0,0,1,4.9726-2.2334,6.4075,6.4075,0,0,1,4.9707,2.0527,7.8172,7.8172,0,0,1,1.8731,5.4766V96.41H213.2656a7.8641,7.8641,0,0,0,1.4766,5.0068,4.7486,4.7486,0,0,0,3.9277,1.873,5.8937,5.8937,0,0,0,3.3135-.9726,5.1927,5.1927,0,0,0,2.0889-2.63h1.4414a5.3741,5.3741,0,0,1-2.3047,3.5313,7.55,7.55,0,0,1-4.5391,1.4042A6.1646,6.1646,0,0,1,213.6973,102.39Zm10.375-7.3486V94.5a5.4613,5.4613,0,0,0-1.7285-3.6025,5.2976,5.2976,0,0,0-3.6739-1.44,5.0978,5.0978,0,0,0-3.6387,1.4766,5.5914,5.5914,0,0,0-1.7656,3.7109v.3965Z"/><path d="M228.9,104.083V88.7363h1.4414v3.458a6.5305,6.5305,0,0,1,1.8008-2.7011,4.0219,4.0219,0,0,1,2.5937-1.0088h.8282v1.6572a.5668.5668,0,0,1-.252-.0723.376.376,0,0,0-.1445-.0722,4.1424,4.1424,0,0,0-3.0616,1.4414,6.9234,6.9234,0,0,0-1.7646,3.6386v9.0059Z"/><path d="M249.9746,103.3623a3.726,3.726,0,0,1-.0361-6.124,6.8764,6.8764,0,0,1,3.8906-1.5127,16.084,16.084,0,0,0,3.71-.7207q1.4764-.504,1.4775-1.1885V92.4473A2.3849,2.3849,0,0,0,257.72,90.43a6.12,6.12,0,0,0-6.0888-.0361,2.3547,2.3547,0,0,0-1.2247,1.9453v.7929h-1.3691v-.9375a3.1246,3.1246,0,0,1,1.6211-2.6289,7.0936,7.0936,0,0,1,3.9629-1.081,7.6042,7.6042,0,0,1,4.0713,1.0449,2.9865,2.9865,0,0,1,1.6933,2.5215v9.2939a2.9216,2.9216,0,0,0,.3955,1.55,1.1435,1.1435,0,0,0,.9727.6485,1.3121,1.3121,0,0,0,.3242-.0362.4517.4517,0,0,0,.2168-.1084v.6846a3.2435,3.2435,0,0,1-1.3691.252,1.8413,1.8413,0,0,1-1.4414-.7207,2.68,2.68,0,0,1-.5762-1.7286,3.6545,3.6545,0,0,1-1.8369,1.9815,6.738,6.738,0,0,1-3.2422.7558A5.9972,5.9972,0,0,1,249.9746,103.3623Zm7.24-1.08a5.0413,5.0413,0,0,0,1.8018-3.1347v-3.53a4.3761,4.3761,0,0,1-1.8369.7207,25.3307,25.3307,0,0,1-3.3506.4678,4.8257,4.8257,0,0,0-2.8467,1.1533,2.9344,2.9344,0,0,0-1.1523,2.3056A2.836,2.836,0,0,0,251.02,102.57a4.2083,4.2083,0,0,0,2.81.9727A5.0633,5.0633,0,0,0,257.2148,102.2822Z"/><path d="M265.3926,104.083V90.2852H262.98V88.8809h2.4131V85.999a3.0737,3.0737,0,0,1,.9726-2.3056,3.1932,3.1932,0,0,1,2.3418-.9727h.8653v1.1162h-.8291a1.67,1.67,0,0,0-1.333.6485,2.1235,2.1235,0,0,0-.5762,1.5136v2.8819h2.7383v1.4043H266.834V104.083Z"/><path d="M284.5586,102.1016a8.507,8.507,0,0,1-1.9824-5.6914,8.8438,8.8438,0,0,1,1.9824-5.8008,5.9694,5.9694,0,0,1,4.7549-2.4131,5.4966,5.4966,0,0,1,3.2422,1.0449,6.1125,6.1125,0,0,1,2.0888,2.81v-9.33h1.4414V104.083h-1.4414v-3.1338a5.0868,5.0868,0,0,1-2.0527,2.5576,5.7239,5.7239,0,0,1-3.2783.9727A6,6,0,0,1,284.5586,102.1016Zm8.5371-.7569a7.9527,7.9527,0,0,0,1.5488-4.9345,7.8019,7.8019,0,0,0-1.5488-4.9,4.67,4.67,0,0,0-3.7822-2.0537,4.5759,4.5759,0,0,0-3.7471,2.0537,7.8079,7.8079,0,0,0-1.5488,4.9,7.9589,7.9589,0,0,0,1.5488,4.9345,4.5757,4.5757,0,0,0,3.7471,2.0537A4.67,4.67,0,0,0,293.0957,101.3447Z"/><path d="M301.6328,102.39a10.4826,10.4826,0,0,1,0-11.96,6.1648,6.1648,0,0,1,4.9727-2.2334,6.4078,6.4078,0,0,1,4.9707,2.0527,7.8176,7.8176,0,0,1,1.873,5.4766V96.41h-12.248a7.8647,7.8647,0,0,0,1.4765,5.0068,4.7486,4.7486,0,0,0,3.9278,1.873,5.8931,5.8931,0,0,0,3.3134-.9726,5.1927,5.1927,0,0,0,2.0889-2.63h1.4414a5.3737,5.3737,0,0,1-2.3047,3.5313,7.5494,7.5494,0,0,1-4.539,1.4042A6.1648,6.1648,0,0,1,301.6328,102.39Zm10.375-7.3486V94.5a5.4608,5.4608,0,0,0-1.7285-3.6025,5.2973,5.2973,0,0,0-3.6738-1.44,5.0975,5.0975,0,0,0-3.6387,1.4766,5.5909,5.5909,0,0,0-1.7656,3.7109v.3965Z"/><path d="M317.8086,103.65a3.3517,3.3517,0,0,1-.8281-2.3057V89.8535h-2.1983V88.7363h2.1983V84.377h1.44v4.3593H320.51v1.1172h-2.0889v11.4912a2.575,2.575,0,0,0,.4678,1.55,1.2728,1.2728,0,0,0,1.082.6485,2.1881,2.1881,0,0,0,1.1162-.253v1.045a3.9058,3.9058,0,0,1-1.2256.288A2.6608,2.6608,0,0,1,317.8086,103.65Z"/><path d="M323.6445,101.8857h2.09v2.1973h-2.09Z"/></g></svg>
