<svg xmlns="http://www.w3.org/2000/svg" width="399" height="173" viewBox="0 0 399 173"><defs><style>.cls-1{fill:#202531;}.cls-2{fill:#fff;}</style></defs><title>svar4</title><g id="Spørgsmål"><rect class="cls-1" x="6" y="13" width="380" height="147" rx="45.727"/><path class="cls-2" d="M42.9878,57.9209h7.2978a6.1955,6.1955,0,0,1,5,2.64,9.9379,9.9379,0,0,1,2.05,6.335,10.8942,10.8942,0,0,1-2.05,6.6777,6.1163,6.1163,0,0,1-5,2.7637H42.9878Zm7.2978,17.2363a4.9456,4.9456,0,0,0,4.1-2.4228,9.8753,9.8753,0,0,0,1.708-5.8389,8.874,8.874,0,0,0-1.708-5.4961,5.0188,5.0188,0,0,0-4.1-2.2676H44.23V75.1572Z"/><path class="cls-2" d="M61.0615,74.877a7.8376,7.8376,0,0,1-1.6147-5.1553,7.8409,7.8409,0,0,1,1.6147-5.1553,5.314,5.314,0,0,1,4.2857-1.9248,5.524,5.524,0,0,1,4.2861,1.77,6.7368,6.7368,0,0,1,1.6147,4.7207v.59H60.689a6.7788,6.7788,0,0,0,1.2734,4.3174,4.094,4.094,0,0,0,3.3848,1.6142,5.0844,5.0844,0,0,0,2.8574-.8379,4.4871,4.4871,0,0,0,1.8013-2.2675H71.248A4.6368,4.6368,0,0,1,69.26,75.5918a6.5053,6.5053,0,0,1-3.9131,1.2109A5.312,5.312,0,0,1,61.0615,74.877Zm8.9444-6.335v-.4658a4.7108,4.7108,0,0,0-1.4908-3.1055,4.5676,4.5676,0,0,0-3.1679-1.2422,4.3931,4.3931,0,0,0-3.1363,1.2735A4.8208,4.8208,0,0,0,60.689,68.2v.3418Z"/><path class="cls-2" d="M74.1675,76.3369v-13.23H75.41v2.9815a5.64,5.64,0,0,1,1.5527-2.33,3.4666,3.4666,0,0,1,2.2358-.8692h.7144v1.4288a.4925.4925,0,0,1-.2173-.0625.3218.3218,0,0,0-.1245-.0616,3.5717,3.5717,0,0,0-2.64,1.2422A5.9683,5.9683,0,0,0,75.41,68.5732v7.7637Z"/><path class="cls-2" d="M92.8311,74.877a7.8371,7.8371,0,0,1-1.6148-5.1553,7.84,7.84,0,0,1,1.6148-5.1553,5.3136,5.3136,0,0,1,4.2856-1.9248,5.5239,5.5239,0,0,1,4.2861,1.77,6.7369,6.7369,0,0,1,1.6148,4.7207v.59H92.4585a6.7788,6.7788,0,0,0,1.2734,4.3174,4.0942,4.0942,0,0,0,3.3848,1.6142,5.0841,5.0841,0,0,0,2.8574-.8379,4.4866,4.4866,0,0,0,1.8013-2.2675h1.2422a4.6369,4.6369,0,0,1-1.9878,3.0439,6.5053,6.5053,0,0,1-3.9131,1.2109A5.3117,5.3117,0,0,1,92.8311,74.877Zm8.9443-6.335v-.4658a4.7112,4.7112,0,0,0-1.4907-3.1055,4.568,4.568,0,0,0-3.168-1.2422,4.3927,4.3927,0,0,0-3.1362,1.2735A4.82,4.82,0,0,0,92.4585,68.2v.3418Z"/><path class="cls-2" d="M105.937,76.3369v-13.23h1.2422v2.9815a5.6408,5.6408,0,0,1,1.5527-2.33,3.4668,3.4668,0,0,1,2.2359-.8692h.7143v1.4288a.4929.4929,0,0,1-.2173-.0625.3218.3218,0,0,0-.1245-.0616,3.5717,3.5717,0,0,0-2.64,1.2422,5.969,5.969,0,0,0-1.5215,3.1367v7.7637Z"/><path class="cls-2" d="M123.7935,57.9209h1.2421v1.8945h-1.2421Zm0,18.416v-13.23h1.2421v13.23Z"/><path class="cls-2" d="M129.0107,76.3369v-13.23h1.2422v2.2354a4.246,4.246,0,0,1,1.708-1.8633,4.9414,4.9414,0,0,1,5.87.56,4.1063,4.1063,0,0,1,1.3974,3.1054v9.1924h-1.2422V67.1445a3.0788,3.0788,0,0,0-1.0249-2.3291,3.46,3.46,0,0,0-2.4536-.9629,4.0893,4.0893,0,0,0-2.7636,1.0557,4.5826,4.5826,0,0,0-1.4908,2.7022v8.7265Z"/><path class="cls-2" d="M143.855,79.8154a3.74,3.74,0,0,1-1.6768-3.0439h1.18a2.806,2.806,0,0,0,1.3042,2.2988,5.4486,5.4486,0,0,0,3.1987.9317,4.7041,4.7041,0,0,0,3.2608-1.087,3.6863,3.6863,0,0,0,1.2426-2.92V73.293a4.556,4.556,0,0,1-1.8012,2.05,4.9436,4.9436,0,0,1-2.6709.7763,5.1761,5.1761,0,0,1-4.1616-1.832,7.3164,7.3164,0,0,1-1.584-4.9062,7.3194,7.3194,0,0,1,1.584-4.9073,5.1764,5.1764,0,0,1,4.1616-1.832,4.9654,4.9654,0,0,1,2.7636.8066,4.3454,4.3454,0,0,1,1.7085,2.1436V63.1074h1.2422v12.919a4.6032,4.6032,0,0,1-1.5219,3.6953,6.1157,6.1157,0,0,1-4.2237,1.3359A6.4637,6.4637,0,0,1,143.855,79.8154ZM151.06,73.48a7.0922,7.0922,0,0,0,0-8.1983,3.9831,3.9831,0,0,0-6.4288-.0937,7.6978,7.6978,0,0,0,0,8.3857A3.9831,3.9831,0,0,0,151.06,73.48Z"/><path class="cls-2" d="M158.3887,74.877a7.84,7.84,0,0,1-1.6143-5.1553,7.8429,7.8429,0,0,1,1.6143-5.1553,5.3153,5.3153,0,0,1,4.2861-1.9248,5.5246,5.5246,0,0,1,4.2861,1.77,6.7371,6.7371,0,0,1,1.6153,4.7207v.59h-10.56a6.7818,6.7818,0,0,0,1.2734,4.3174,4.0942,4.0942,0,0,0,3.3848,1.6142,5.0841,5.0841,0,0,0,2.8574-.8379,4.4876,4.4876,0,0,0,1.8018-2.2675h1.2422a4.6391,4.6391,0,0,1-1.9883,3.0439,6.5032,6.5032,0,0,1-3.9131,1.2109A5.3134,5.3134,0,0,1,158.3887,74.877Zm8.9453-6.335v-.4658a4.714,4.714,0,0,0-1.4912-3.1055,4.568,4.568,0,0,0-3.168-1.2422,4.3907,4.3907,0,0,0-3.1357,1.2735A4.8192,4.8192,0,0,0,158.0166,68.2v.3418Z"/><path class="cls-2" d="M171.4951,76.3369v-13.23h1.2422v2.2354a4.246,4.246,0,0,1,1.708-1.8633,4.9407,4.9407,0,0,1,5.8692.56,4.1073,4.1073,0,0,1,1.3984,3.1054v9.1924h-1.2422V67.1445a3.0775,3.0775,0,0,0-1.0254-2.3291,3.4611,3.4611,0,0,0-2.4531-.9629,4.0879,4.0879,0,0,0-2.7637,1.0557,4.5805,4.5805,0,0,0-1.4912,2.7022v8.7265Z"/><path class="cls-2" d="M195.4082,76.3369V57.9209H196.65v12.05l7.08-6.8633h1.5527L200.19,67.9521l5.6835,8.3848h-1.3046L199.3828,68.79,196.65,71.3994v4.9375Z"/><path class="cls-2" d="M209.01,74.6914a7.069,7.069,0,0,1-1.708-4.97,7.5587,7.5587,0,0,1,1.708-5.1553,6.2295,6.2295,0,0,1,9.0058,0,7.6426,7.6426,0,0,1,1.6778,5.1553,7.1446,7.1446,0,0,1-1.6778,4.97,6.3726,6.3726,0,0,1-9.0058,0Zm8.1054-.7461a6.3324,6.3324,0,0,0,1.336-4.2236,6.6122,6.6122,0,0,0-1.336-4.3477,4.4523,4.4523,0,0,0-3.6015-1.6455A4.4,4.4,0,0,0,209.91,65.374a6.5171,6.5171,0,0,0-1.3663,4.3477,6.2435,6.2435,0,0,0,1.3663,4.2236,4.4682,4.4682,0,0,0,3.6035,1.584A4.522,4.522,0,0,0,217.1152,73.9453Z"/><path class="cls-2" d="M222.83,76.3369v-13.23h1.2422v2.2354A4.2454,4.2454,0,0,1,225.78,63.48a4.942,4.942,0,0,1,5.87.56,4.1053,4.1053,0,0,1,1.3965,3.1054v9.1924h-1.2422V67.1445a3.08,3.08,0,0,0-1.0244-2.3291,3.4585,3.4585,0,0,0-2.4541-.9629,4.0912,4.0912,0,0,0-2.7637,1.0557,4.5844,4.5844,0,0,0-1.49,2.7022v8.7265Z"/><path class="cls-2" d="M237.209,75.4365a3.7914,3.7914,0,0,1-1.4912-3.0127h1.1494a2.9091,2.9091,0,0,0,1.1484,2.2979,4.25,4.25,0,0,0,2.7647.9316,4.9963,4.9963,0,0,0,3.0127-.8379,2.74,2.74,0,0,0,1.1172-2.2675,2.1332,2.1332,0,0,0-1.18-1.8008,7.46,7.46,0,0,0-3.168-.9,6.1137,6.1137,0,0,1-3.3535-1.1807,3.003,3.003,0,0,1-1.2735-2.4531,2.9352,2.9352,0,0,1,1.2735-2.5469,6.11,6.11,0,0,1,3.5713-.9,5.7822,5.7822,0,0,1,3.5088.9629,3.0209,3.0209,0,0,1,1.3359,2.5772h-1.18a2.85,2.85,0,0,0-1.1807-1.8946,4.1977,4.1977,0,0,0-2.4843-.6826,4.6433,4.6433,0,0,0-2.6709.6826,2.0941,2.0941,0,0,0-.9942,1.8018,2.1312,2.1312,0,0,0,1.211,1.8008,7.4746,7.4746,0,0,0,3.1679.9013,5.9537,5.9537,0,0,1,3.3545,1.2422,3.4465,3.4465,0,0,1-.2177,5.4658,6.3393,6.3393,0,0,1-3.8506,1.0557A5.3206,5.3206,0,0,1,237.209,75.4365Z"/><path class="cls-2" d="M249.7861,74.877a7.8347,7.8347,0,0,1-1.6142-5.1553,7.838,7.838,0,0,1,1.6142-5.1553,5.3143,5.3143,0,0,1,4.2862-1.9248,5.5213,5.5213,0,0,1,4.2851,1.77,6.7371,6.7371,0,0,1,1.6153,4.7207v.59H249.4141a6.7758,6.7758,0,0,0,1.2734,4.3174,4.0929,4.0929,0,0,0,3.3848,1.6142,5.0867,5.0867,0,0,0,2.8574-.8379,4.4914,4.4914,0,0,0,1.8008-2.2675h1.2422a4.6326,4.6326,0,0,1-1.9883,3.0439,6.5023,6.5023,0,0,1-3.9121,1.2109A5.3123,5.3123,0,0,1,249.7861,74.877Zm8.9444-6.335v-.4658a4.7125,4.7125,0,0,0-1.49-3.1055,4.5693,4.5693,0,0,0-3.1679-1.2422,4.3934,4.3934,0,0,0-3.1368,1.2735A4.818,4.818,0,0,0,249.4141,68.2v.3418Z"/><path class="cls-2" d="M262.8926,76.3369V57.9209h1.2422v12.05l7.08-6.8633h1.5528l-5.0938,4.8447,5.6836,8.3848h-1.3047L266.8672,68.79l-2.7324,2.6094v4.9375Z"/><path class="cls-2" d="M278.9785,76.3369l-4.9375-13.23H275.19l4.5039,11.8008,4.2539-11.8008h1.1806l-4.8447,13.23Z"/><path class="cls-2" d="M288.3262,74.877a7.84,7.84,0,0,1-1.6153-5.1553,7.8433,7.8433,0,0,1,1.6153-5.1553,5.3134,5.3134,0,0,1,4.2851-1.9248,5.5267,5.5267,0,0,1,4.2871,1.77,6.7366,6.7366,0,0,1,1.6143,4.7207v.59h-10.56a6.7812,6.7812,0,0,0,1.2735,4.3174,4.0952,4.0952,0,0,0,3.3847,1.6142,5.0824,5.0824,0,0,0,2.8575-.8379,4.4822,4.4822,0,0,0,1.8017-2.2675h1.2422a4.6413,4.6413,0,0,1-1.9873,3.0439,6.5083,6.5083,0,0,1-3.9141,1.2109A5.3115,5.3115,0,0,1,288.3262,74.877Zm8.9443-6.335v-.4658a4.71,4.71,0,0,0-1.4912-3.1055,4.566,4.566,0,0,0-3.168-1.2422,4.3924,4.3924,0,0,0-3.1357,1.2735A4.8237,4.8237,0,0,0,287.9531,68.2v.3418Z"/><path class="cls-2" d="M301.4316,76.3369v-13.23h1.2422v2.2354a4.2482,4.2482,0,0,1,1.709-1.8633,4.9407,4.9407,0,0,1,5.8692.56,4.1063,4.1063,0,0,1,1.3974,3.1054v9.1924h-1.2422V67.1445a3.08,3.08,0,0,0-1.0244-2.3291,3.4617,3.4617,0,0,0-2.4541-.9629,4.09,4.09,0,0,0-2.7637,1.0557,4.5863,4.5863,0,0,0-1.4912,2.7022v8.7265Z"/><path class="cls-2" d="M315.8105,75.4365a3.7906,3.7906,0,0,1-1.49-3.0127h1.1485a2.9072,2.9072,0,0,0,1.1494,2.2979,4.2479,4.2479,0,0,0,2.7646.9316,4.991,4.991,0,0,0,3.0117-.8379,2.7382,2.7382,0,0,0,1.1182-2.2675,2.1345,2.1345,0,0,0-1.1807-1.8008,7.4554,7.4554,0,0,0-3.1679-.9,6.1144,6.1144,0,0,1-3.3536-1.1807,3.0028,3.0028,0,0,1-1.2734-2.4531,2.9352,2.9352,0,0,1,1.2734-2.5469,6.1135,6.1135,0,0,1,3.5723-.9,5.7859,5.7859,0,0,1,3.5088.9629,3.0225,3.0225,0,0,1,1.335,2.5772h-1.18a2.8493,2.8493,0,0,0-1.18-1.8946,4.2021,4.2021,0,0,0-2.4844-.6826,4.6448,4.6448,0,0,0-2.6719.6826,2.0952,2.0952,0,0,0-.9931,1.8018,2.1292,2.1292,0,0,0,1.2109,1.8008,7.4706,7.4706,0,0,0,3.168.9013,5.954,5.954,0,0,1,3.3545,1.2422,3.4457,3.4457,0,0,1-.2188,5.4658,6.3338,6.3338,0,0,1-3.85,1.0557A5.3234,5.3234,0,0,1,315.8105,75.4365Z"/><path class="cls-2" d="M328.3887,74.877a7.8345,7.8345,0,0,1-1.6153-5.1553,7.8379,7.8379,0,0,1,1.6153-5.1553,5.3121,5.3121,0,0,1,4.2851-1.9248,5.5235,5.5235,0,0,1,4.2862,1.77,6.737,6.737,0,0,1,1.6142,4.7207v.59H328.0156a6.7758,6.7758,0,0,0,1.2735,4.3174,4.0938,4.0938,0,0,0,3.3847,1.6142,5.0841,5.0841,0,0,0,2.8574-.8379,4.4851,4.4851,0,0,0,1.8008-2.2675h1.2422a4.634,4.634,0,0,1-1.9873,3.0439,6.507,6.507,0,0,1-3.9131,1.2109A5.31,5.31,0,0,1,328.3887,74.877Zm8.9433-6.335v-.4658a4.7083,4.7083,0,0,0-1.49-3.1055,4.5678,4.5678,0,0,0-3.168-1.2422,4.3948,4.3948,0,0,0-3.1367,1.2735A4.8226,4.8226,0,0,0,328.0156,68.2v.3418Z"/><path class="cls-2" d="M341.4941,76.3369v-13.23h1.2422v2.9815a5.6362,5.6362,0,0,1,1.5528-2.33,3.4668,3.4668,0,0,1,2.2363-.8692h.7139v1.4288a.4975.4975,0,0,1-.2178-.0625.3178.3178,0,0,0-.124-.0616,3.5717,3.5717,0,0,0-2.64,1.2422,5.97,5.97,0,0,0-1.5215,3.1367v7.7637Z"/><path class="cls-2" d="M43.2671,106.3369V94.4424H41.1865v-1.211h2.0806V90.7471a2.6527,2.6527,0,0,1,.8384-1.9883,2.752,2.752,0,0,1,2.0185-.8379H46.87v.9629h-.7143a1.4411,1.4411,0,0,0-1.149.5586,1.8314,1.8314,0,0,0-.497,1.3047v2.4843h2.36v1.211h-2.36v11.8945Z"/><path class="cls-2" d="M49.9126,104.6914a7.069,7.069,0,0,1-1.708-4.97,7.5587,7.5587,0,0,1,1.708-5.1553,5.6715,5.6715,0,0,1,4.5034-1.9248,5.7289,5.7289,0,0,1,4.5029,1.9248,7.6475,7.6475,0,0,1,1.6773,5.1553,7.149,7.149,0,0,1-1.6773,4.97,5.8181,5.8181,0,0,1-4.5029,1.8633A5.7592,5.7592,0,0,1,49.9126,104.6914Zm8.106-.7461a6.338,6.338,0,0,0,1.3354-4.2236,6.618,6.618,0,0,0-1.3354-4.3477,4.4546,4.4546,0,0,0-3.6026-1.6455,4.3973,4.3973,0,0,0-3.6025,1.6455,6.512,6.512,0,0,0-1.3667,4.3477,6.2385,6.2385,0,0,0,1.3667,4.2236,4.4655,4.4655,0,0,0,3.6025,1.584A4.5244,4.5244,0,0,0,58.0186,103.9453Z"/><path class="cls-2" d="M63.7329,106.3369v-13.23h1.2422v2.9815a5.6408,5.6408,0,0,1,1.5527-2.33,3.4668,3.4668,0,0,1,2.2359-.8692h.7143v1.4288a.4929.4929,0,0,1-.2173-.0625.3218.3218,0,0,0-.1245-.0616,3.5717,3.5717,0,0,0-2.64,1.2422,5.969,5.969,0,0,0-1.5215,3.1367v7.7637Z"/><path class="cls-2" d="M81.5894,106.3369V87.9209h1.2421v7.6709a5.0466,5.0466,0,0,1,1.8633-2.1436,4.6634,4.6634,0,0,1,2.64-.8066,4.27,4.27,0,0,1,3.1987,1.3975,4.5774,4.5774,0,0,1,1.3355,3.3222v8.9756H90.6265V97.61a4.0479,4.0479,0,0,0-.9629-2.7334,2.94,2.94,0,0,0-2.3291-1.1485A4.0315,4.0315,0,0,0,84.57,94.8467a5.4784,5.4784,0,0,0-1.7388,2.8564v8.6338Z"/><path class="cls-2" d="M96.4336,104.877a9.0366,9.0366,0,0,1,0-10.3106,5.3139,5.3139,0,0,1,4.2856-1.9248,5.5242,5.5242,0,0,1,4.2862,1.77,6.7373,6.7373,0,0,1,1.6147,4.7207v.59H96.061a6.7788,6.7788,0,0,0,1.2735,4.3174,4.0938,4.0938,0,0,0,3.3847,1.6142,5.0847,5.0847,0,0,0,2.8575-.8379,4.4864,4.4864,0,0,0,1.8012-2.2675H106.62a4.6365,4.6365,0,0,1-1.9878,3.0439,6.5051,6.5051,0,0,1-3.9131,1.2109A5.312,5.312,0,0,1,96.4336,104.877Zm8.9443-6.335v-.4658a4.7107,4.7107,0,0,0-1.4907-3.1055,4.5678,4.5678,0,0,0-3.168-1.2422A4.393,4.393,0,0,0,97.583,95.002,4.8213,4.8213,0,0,0,96.061,98.2v.3418Z"/><path class="cls-2" d="M109.54,106.3369v-13.23h1.2421v2.2354A4.246,4.246,0,0,1,112.49,93.48a4.9414,4.9414,0,0,1,5.87.56,4.1063,4.1063,0,0,1,1.3974,3.1054v9.1924h-1.2422V97.1445a3.0785,3.0785,0,0,0-1.0249-2.3291,3.46,3.46,0,0,0-2.4536-.9629,4.0893,4.0893,0,0,0-2.7636,1.0557,4.5826,4.5826,0,0,0-1.4908,2.7022v8.7265Z"/><path class="cls-2" d="M124.3218,104.6289a7.3411,7.3411,0,0,1-1.708-4.9072,7.6306,7.6306,0,0,1,1.708-5,5.1467,5.1467,0,0,1,4.1-2.08,4.7352,4.7352,0,0,1,2.7949.9,5.2818,5.2818,0,0,1,1.8013,2.4219v-8.043H134.26v18.416h-1.2422v-2.7021a4.3882,4.3882,0,0,1-1.77,2.205,4.9316,4.9316,0,0,1-2.8262.8389A5.1735,5.1735,0,0,1,124.3218,104.6289Zm7.36-.6523a6.86,6.86,0,0,0,1.3355-4.2549,6.7317,6.7317,0,0,0-1.3355-4.2237,4.0259,4.0259,0,0,0-3.2607-1.77,3.9447,3.9447,0,0,0-3.23,1.77,6.7292,6.7292,0,0,0-1.3354,4.2237,6.8575,6.8575,0,0,0,1.3354,4.2549,3.9433,3.9433,0,0,0,3.23,1.77A4.0244,4.0244,0,0,0,131.6821,103.9766Z"/><path class="cls-2" d="M139.042,104.877a9.0366,9.0366,0,0,1,0-10.3106,5.3139,5.3139,0,0,1,4.2856-1.9248,5.5242,5.5242,0,0,1,4.2862,1.77,6.7373,6.7373,0,0,1,1.6147,4.7207v.59H138.6694a6.7788,6.7788,0,0,0,1.2735,4.3174,4.0938,4.0938,0,0,0,3.3847,1.6142,5.0847,5.0847,0,0,0,2.8575-.8379,4.4864,4.4864,0,0,0,1.8012-2.2675h1.2422a4.6365,4.6365,0,0,1-1.9878,3.0439,6.5051,6.5051,0,0,1-3.9131,1.2109A5.312,5.312,0,0,1,139.042,104.877Zm8.9443-6.335v-.4658a4.7107,4.7107,0,0,0-1.4907-3.1055,4.5678,4.5678,0,0,0-3.168-1.2422,4.393,4.393,0,0,0-3.1362,1.2735,4.8209,4.8209,0,0,0-1.522,3.1982v.3418Z"/><path class="cls-2" d="M152.1479,104.4424h1.8013v1.8945h-1.8013Z"/></g></svg>
