<svg xmlns="http://www.w3.org/2000/svg" width="396" height="164" viewBox="0 0 396 164"><defs><style>.cls-1{fill:#202531;}.cls-2{fill:#fff;}</style></defs><title>svar6</title><g id="Spørgsmål"><rect class="cls-1" x="9" y="7" width="380" height="147" rx="45.727"/><path class="cls-2" d="M56.3057,55.2832V33.9209h1.44v9.33H70.6436v-9.33h1.44V55.2832h-1.44V44.62H57.7461V55.2832Z"/><path class="cls-2" d="M77.0557,54.5625a3.726,3.726,0,0,1-.0362-6.124A6.8767,6.8767,0,0,1,80.91,46.9258a16.0872,16.0872,0,0,0,3.7109-.7207q1.4766-.504,1.4766-1.1885V43.6475A2.3831,2.3831,0,0,0,84.8008,41.63a6.1182,6.1182,0,0,0-6.0879-.0361,2.3545,2.3545,0,0,0-1.2246,1.9453v.7929H76.1191v-.9375A3.1226,3.1226,0,0,1,77.74,40.7656a7.0892,7.0892,0,0,1,3.9629-1.081,7.6052,7.6052,0,0,1,4.07,1.0449,2.9847,2.9847,0,0,1,1.6934,2.5215v9.2939a2.9038,2.9038,0,0,0,.3965,1.55,1.1411,1.1411,0,0,0,.9726.6485,1.3294,1.3294,0,0,0,.3243-.0362.4437.4437,0,0,0,.2158-.1084v.6846a3.2471,3.2471,0,0,1-1.3692.252,1.84,1.84,0,0,1-1.44-.7207,2.6749,2.6749,0,0,1-.5762-1.7286,3.6632,3.6632,0,0,1-1.8379,1.9815,6.7376,6.7376,0,0,1-3.2421.7558A5.9934,5.9934,0,0,1,77.0557,54.5625Zm7.2412-1.08a5.045,5.045,0,0,0,1.8008-3.1347v-3.53a4.3768,4.3768,0,0,1-1.8379.7207,25.2673,25.2673,0,0,1-3.35.4678,4.82,4.82,0,0,0-2.8457,1.1533,2.9286,2.9286,0,0,0-1.1524,2.3056A2.8364,2.8364,0,0,0,78.1,53.7705a4.2131,4.2131,0,0,0,2.8106.9727A5.068,5.068,0,0,0,84.2969,53.4824Z"/><path class="cls-2" d="M92.15,55.2832V39.9365h1.44V42.53a4.9238,4.9238,0,0,1,1.9815-2.1612,5.7287,5.7287,0,0,1,6.8086.6485A4.7666,4.7666,0,0,1,104.002,44.62V55.2832h-1.4415V44.62a3.5748,3.5748,0,0,0-1.1884-2.7021,4.012,4.012,0,0,0-2.8457-1.1172A4.7421,4.7421,0,0,0,95.32,42.0264a5.309,5.309,0,0,0-1.73,3.1338v10.123Z"/><path class="cls-2" d="M123.5273,54.8506A6.0007,6.0007,0,0,1,121.33,52.293v2.99h-1.4414V33.9209H121.33v9.4736a5.6621,5.6621,0,0,1,5.3672-3.71,5.9214,5.9214,0,0,1,4.8271,2.1972,8.8567,8.8567,0,0,1,1.8369,5.8721,8.8549,8.8549,0,0,1-1.8369,5.8721,5.9214,5.9214,0,0,1-4.8271,2.1972A5.6574,5.6574,0,0,1,123.5273,54.8506Zm7.0606-2.125a7.94,7.94,0,0,0,1.4414-4.9717,7.94,7.94,0,0,0-1.4414-4.9717,4.7151,4.7151,0,0,0-3.8906-1.873,4.63,4.63,0,0,0-3.7832,2.0176,8.1472,8.1472,0,0,0,0,9.6543,4.6271,4.6271,0,0,0,3.7832,2.0175A4.7124,4.7124,0,0,0,130.5879,52.7256Z"/><path class="cls-2" d="M137.0361,55.2832V33.9209h1.44V55.2832Z"/><path class="cls-2" d="M143.0879,33.9209h1.4414v2.1973h-1.4414Zm0,21.3623V39.9365h1.4414V55.2832Z"/><path class="cls-2" d="M153.0312,55.2832l-5.7285-15.3467h1.334l5.2227,13.6895,4.9355-13.6895h1.3692l-5.6192,15.3467Z"/><path class="cls-2" d="M163.875,53.59a9.0846,9.0846,0,0,1-1.873-5.9794,9.0875,9.0875,0,0,1,1.873-5.98,6.1609,6.1609,0,0,1,4.9707-2.2334,6.4084,6.4084,0,0,1,4.9717,2.0527,7.8135,7.8135,0,0,1,1.874,5.4766V47.61h-12.249a7.853,7.853,0,0,0,1.4775,5.0068,4.7475,4.7475,0,0,0,3.9258,1.873,5.8946,5.8946,0,0,0,3.3145-.9726,5.2,5.2,0,0,0,2.09-2.63h1.4414a5.38,5.38,0,0,1-2.3066,3.5312,7.5472,7.5472,0,0,1-4.5391,1.4043A6.1609,6.1609,0,0,1,163.875,53.59Zm10.375-7.3486V45.7a5.471,5.471,0,0,0-1.73-3.6025,5.3013,5.3013,0,0,0-3.6748-1.44,5.1042,5.1042,0,0,0-3.6387,1.4766,5.5988,5.5988,0,0,0-1.7646,3.7109v.3965Z"/><path class="cls-2" d="M179.0771,55.2832V39.9365h1.44v3.458a6.5411,6.5411,0,0,1,1.8017-2.7011,4.0221,4.0221,0,0,1,2.5938-1.0088h.8291v1.6572a.57.57,0,0,1-.2529-.0723.3746.3746,0,0,0-.1436-.0722,4.1427,4.1427,0,0,0-3.0625,1.4414,6.93,6.93,0,0,0-1.7656,3.6386v9.0059Z"/><path class="cls-2" d="M199.791,55.2832V33.9209h1.4414V47.8984l8.2129-7.9619h1.8018l-5.9082,5.62,6.5927,9.7266H210.418l-6.0157-8.7539-3.17,3.0264v5.7275Z"/><path class="cls-2" d="M215.498,53.59a9.0846,9.0846,0,0,1-1.873-5.9794,9.0875,9.0875,0,0,1,1.873-5.98,6.1611,6.1611,0,0,1,4.9708-2.2334,6.4082,6.4082,0,0,1,4.9716,2.0527,7.8131,7.8131,0,0,1,1.8741,5.4766V47.61H215.0654a7.8525,7.8525,0,0,0,1.4776,5.0068,4.7472,4.7472,0,0,0,3.9258,1.873,5.8943,5.8943,0,0,0,3.3144-.9726,5.1991,5.1991,0,0,0,2.09-2.63h1.4415a5.38,5.38,0,0,1-2.3067,3.5312,7.5472,7.5472,0,0,1-4.539,1.4043A6.1611,6.1611,0,0,1,215.498,53.59Zm10.375-7.3486V45.7a5.47,5.47,0,0,0-1.7294-3.6025,5.3017,5.3017,0,0,0-3.6748-1.44,5.1042,5.1042,0,0,0-3.6387,1.4766,5.5985,5.5985,0,0,0-1.7647,3.7109v.3965Z"/><path class="cls-2" d="M231.6367,53.3018a8.5113,8.5113,0,0,1-1.9814-5.6914,8.8482,8.8482,0,0,1,1.9814-5.8008,5.9713,5.9713,0,0,1,4.7559-2.4131,5.4986,5.4986,0,0,1,3.2422,1.0449,6.1194,6.1194,0,0,1,2.0888,2.81v-9.33h1.44V55.2832h-1.44V52.1494A5.0888,5.0888,0,0,1,239.67,54.707a5.7207,5.7207,0,0,1-3.2773.9727A6.0015,6.0015,0,0,1,231.6367,53.3018Zm8.5381-.7569a7.9591,7.9591,0,0,0,1.5488-4.9345,7.8079,7.8079,0,0,0-1.5488-4.8995,4.6711,4.6711,0,0,0-3.7822-2.0537,4.5746,4.5746,0,0,0-3.7471,2.0537,7.8085,7.8085,0,0,0-1.55,4.8995,7.96,7.96,0,0,0,1.55,4.9345,4.5743,4.5743,0,0,0,3.7471,2.0537A4.6708,4.6708,0,0,0,240.1748,52.5449Z"/><path class="cls-2" d="M259.6641,54.5625a3.7266,3.7266,0,0,1-.0371-6.124,6.8818,6.8818,0,0,1,3.8906-1.5127,16.0872,16.0872,0,0,0,3.7109-.7207q1.4766-.504,1.4766-1.1885V43.6475a2.3831,2.3831,0,0,0-1.2969-2.0176,6.1182,6.1182,0,0,0-6.0879-.0361,2.3545,2.3545,0,0,0-1.2246,1.9453v.7929h-1.3691v-.9375a3.1246,3.1246,0,0,1,1.6211-2.6289,7.0907,7.0907,0,0,1,3.9628-1.081,7.6031,7.6031,0,0,1,4.07,1.0449,2.9845,2.9845,0,0,1,1.6933,2.5215v9.2939a2.9128,2.9128,0,0,0,.3965,1.55,1.1412,1.1412,0,0,0,.9727.6485,1.3177,1.3177,0,0,0,.3242-.0362.4521.4521,0,0,0,.2168-.1084v.6846a3.25,3.25,0,0,1-1.3692.252,1.8415,1.8415,0,0,1-1.4414-.7207,2.6754,2.6754,0,0,1-.5761-1.7286,3.6566,3.6566,0,0,1-1.8379,1.9815,6.7355,6.7355,0,0,1-3.2422.7558A5.9925,5.9925,0,0,1,259.6641,54.5625Zm7.24-1.08a5.04,5.04,0,0,0,1.8008-3.1347v-3.53a4.3713,4.3713,0,0,1-1.8369.7207,25.3084,25.3084,0,0,1-3.3506.4678,4.8225,4.8225,0,0,0-2.8457,1.1533,2.9316,2.9316,0,0,0-1.1524,2.3056,2.8375,2.8375,0,0,0,1.1885,2.3057,4.2106,4.2106,0,0,0,2.81.9727A5.0643,5.0643,0,0,0,266.9043,53.4824Z"/><path class="cls-2" d="M275.082,55.2832V41.4854h-2.414V40.0811h2.414V37.1992a3.0734,3.0734,0,0,1,.9727-2.3056,3.1914,3.1914,0,0,1,2.3418-.9727h.8642v1.1162h-.8291a1.6681,1.6681,0,0,0-1.332.6484,2.1239,2.1239,0,0,0-.5762,1.5137v2.8819h2.7373v1.4043h-2.7373V55.2832Z"/><path class="cls-2" d="M294.2471,53.3018a8.5114,8.5114,0,0,1-1.9815-5.6914,8.8483,8.8483,0,0,1,1.9815-5.8008,5.9707,5.9707,0,0,1,4.7549-2.4131,5.4938,5.4938,0,0,1,3.2421,1.0449,6.1078,6.1078,0,0,1,2.09,2.81v-9.33h1.4414V55.2832H304.334V52.1494a5.0922,5.0922,0,0,1-2.0528,2.5576,5.7268,5.7268,0,0,1-3.2792.9727A6.0009,6.0009,0,0,1,294.2471,53.3018Zm8.5381-.7569A7.9591,7.9591,0,0,0,304.334,47.61a7.8079,7.8079,0,0,0-1.5488-4.8995,4.67,4.67,0,0,0-3.7832-2.0537,4.5741,4.5741,0,0,0-3.7461,2.0537A7.8019,7.8019,0,0,0,293.707,47.61a7.9529,7.9529,0,0,0,1.5489,4.9345,4.5738,4.5738,0,0,0,3.7461,2.0537A4.67,4.67,0,0,0,302.7852,52.5449Z"/><path class="cls-2" d="M311.3223,53.59a9.09,9.09,0,0,1-1.8731-5.9794,9.0925,9.0925,0,0,1,1.8731-5.98,6.1627,6.1627,0,0,1,4.9716-2.2334,6.41,6.41,0,0,1,4.9717,2.0527,7.8172,7.8172,0,0,1,1.8731,5.4766V47.61H310.8906a7.8582,7.8582,0,0,0,1.4766,5.0068,4.748,4.748,0,0,0,3.9267,1.873,5.8911,5.8911,0,0,0,3.3135-.9726,5.1947,5.1947,0,0,0,2.09-2.63h1.4414a5.3751,5.3751,0,0,1-2.3057,3.5312,7.5472,7.5472,0,0,1-4.5391,1.4043A6.1627,6.1627,0,0,1,311.3223,53.59Zm10.375-7.3486V45.7a5.47,5.47,0,0,0-1.7285-3.6025,5.3017,5.3017,0,0,0-3.6749-1.44,5.1007,5.1007,0,0,0-3.6386,1.4766,5.59,5.59,0,0,0-1.7647,3.7109v.3965Z"/><path class="cls-2" d="M327.498,54.8506a3.3525,3.3525,0,0,1-.8291-2.3057V41.0537h-2.1982V39.9365h2.1982V35.5771h1.44v4.3594h2.09v1.1172h-2.09V52.5449a2.5755,2.5755,0,0,0,.4687,1.55,1.2716,1.2716,0,0,0,1.0811.6485,2.1833,2.1833,0,0,0,1.1162-.253v1.045a3.9017,3.9017,0,0,1-1.2246.288A2.66,2.66,0,0,1,327.498,54.8506Z"/><path class="cls-2" d="M57.3145,88.1738A8.1962,8.1962,0,0,1,55.333,82.41,8.7646,8.7646,0,0,1,57.3145,76.43a6.5748,6.5748,0,0,1,5.2236-2.2334A6.6452,6.6452,0,0,1,67.7617,76.43,8.87,8.87,0,0,1,69.707,82.41a8.2916,8.2916,0,0,1-1.9453,5.7636,6.7521,6.7521,0,0,1-5.2236,2.1612A6.68,6.68,0,0,1,57.3145,88.1738Zm9.4023-.8642A7.355,7.355,0,0,0,68.2656,82.41a7.6752,7.6752,0,0,0-1.5488-5.044,5.1647,5.1647,0,0,0-4.1787-1.9092,5.0993,5.0993,0,0,0-4.1787,1.9092,7.5507,7.5507,0,0,0-1.586,5.044,7.2382,7.2382,0,0,0,1.586,4.8994,5.1818,5.1818,0,0,0,4.1787,1.8369A5.2491,5.2491,0,0,0,66.7168,87.31Z"/><path class="cls-2" d="M74.3535,94.1182a4.3383,4.3383,0,0,1-1.9453-3.5313h1.3691a3.25,3.25,0,0,0,1.5137,2.666,6.3157,6.3157,0,0,0,3.71,1.0811,5.4533,5.4533,0,0,0,3.7822-1.2608,4.2735,4.2735,0,0,0,1.4414-3.3867V86.5527a5.2937,5.2937,0,0,1-2.09,2.378,5.74,5.74,0,0,1-3.0977.9,6.0014,6.0014,0,0,1-4.8271-2.126,9.7366,9.7366,0,0,1,0-11.3838,6.0033,6.0033,0,0,1,4.8271-2.125,5.7646,5.7646,0,0,1,3.2061.9365,5.0426,5.0426,0,0,1,1.9814,2.4854V74.7363H85.666V89.7227A5.3422,5.3422,0,0,1,83.9,94.01a7.0977,7.0977,0,0,1-4.8994,1.5488A7.4983,7.4983,0,0,1,74.3535,94.1182Zm8.3574-7.35a8.2266,8.2266,0,0,0,0-9.5108,4.62,4.62,0,0,0-7.457-.1074,8.93,8.93,0,0,0,0,9.7266,4.6209,4.6209,0,0,0,7.457-.1084Z"/><path class="cls-2" d="M101.8047,90.083V74.7363h1.4414v3.458a6.5305,6.5305,0,0,1,1.8008-2.7011,4.0219,4.0219,0,0,1,2.5937-1.0088h.8282v1.6572a.5668.5668,0,0,1-.252-.0723.376.376,0,0,0-.1445-.0722,4.1424,4.1424,0,0,0-3.0616,1.4414,6.9234,6.9234,0,0,0-1.7646,3.6386V90.083Z"/><path class="cls-2" d="M110.99,68.7207h1.4414V70.918H110.99Zm0,21.3623V74.7363h1.4414V90.083Z"/><path class="cls-2" d="M117.5117,89.0381a4.3947,4.3947,0,0,1-1.73-3.4942h1.333a3.3736,3.3736,0,0,0,1.3321,2.6661,4.9281,4.9281,0,0,0,3.207,1.08,5.7886,5.7886,0,0,0,3.4941-.9726,3.1741,3.1741,0,0,0,1.2969-2.63,2.4772,2.4772,0,0,0-1.3691-2.0889,8.66,8.66,0,0,0-3.6739-1.0449,7.0773,7.0773,0,0,1-3.8906-1.3691,3.4845,3.4845,0,0,1-1.4775-2.8457,3.4067,3.4067,0,0,1,1.4775-2.9541,7.09,7.09,0,0,1,4.1426-1.045,6.7073,6.7073,0,0,1,4.07,1.1172,3.5036,3.5036,0,0,1,1.5488,2.99h-1.3691a3.3043,3.3043,0,0,0-1.3682-2.1983,4.8772,4.8772,0,0,0-2.8818-.792,5.3877,5.3877,0,0,0-3.0977.792,2.4285,2.4285,0,0,0-1.1533,2.09,2.4715,2.4715,0,0,0,1.4053,2.09,8.6437,8.6437,0,0,0,3.6738,1.044,6.9055,6.9055,0,0,1,3.8906,1.4414,3.998,3.998,0,0,1-.2519,6.3408,7.3571,7.3571,0,0,1-4.4668,1.2246A6.1693,6.1693,0,0,1,117.5117,89.0381Z"/><path class="cls-2" d="M131.1641,68.7207h1.4414V70.918h-1.4414Zm0,21.3623V74.7363h1.4414V90.083Z"/><path class="cls-2" d="M137.2168,90.083V68.7207h1.4414V82.6982l8.2129-7.9619h1.8018l-5.9083,5.62,6.5928,9.7266h-1.5136l-6.0157-8.7539-3.17,3.0264V90.083Z"/><path class="cls-2" d="M152.9238,88.39a9.0844,9.0844,0,0,1-1.873-5.9794,9.0875,9.0875,0,0,1,1.873-5.9805,6.161,6.161,0,0,1,4.9707-2.2334,6.4082,6.4082,0,0,1,4.9717,2.0527,7.8135,7.8135,0,0,1,1.874,5.4766V82.41h-12.249a7.8525,7.8525,0,0,0,1.4776,5.0068,4.7472,4.7472,0,0,0,3.9257,1.873,5.8946,5.8946,0,0,0,3.3145-.9726,5.1991,5.1991,0,0,0,2.09-2.63H164.74a5.38,5.38,0,0,1-2.3066,3.5313,7.5478,7.5478,0,0,1-4.5391,1.4042A6.161,6.161,0,0,1,152.9238,88.39Zm10.375-7.3486V80.5a5.4706,5.4706,0,0,0-1.73-3.6025,5.3013,5.3013,0,0,0-3.6748-1.44,5.1041,5.1041,0,0,0-3.6386,1.4766,5.5985,5.5985,0,0,0-1.7647,3.7109v.3965Z"/><path class="cls-2" d="M168.126,90.083V74.7363h1.44v3.458a6.542,6.542,0,0,1,1.8018-2.7011,4.0219,4.0219,0,0,1,2.5937-1.0088h.8291v1.6572a.57.57,0,0,1-.2529-.0723.3739.3739,0,0,0-.1436-.0722,4.1427,4.1427,0,0,0-3.0625,1.4414,6.9312,6.9312,0,0,0-1.7656,3.6386V90.083Z"/><path class="cls-2" d="M178.248,88.39a9.0953,9.0953,0,0,1-1.873-5.9794,9.0984,9.0984,0,0,1,1.873-5.9805,6.165,6.165,0,0,1,4.9727-2.2334,6.4075,6.4075,0,0,1,4.9707,2.0527,7.8172,7.8172,0,0,1,1.8731,5.4766V82.41H177.8164a7.8641,7.8641,0,0,0,1.4766,5.0068,4.7483,4.7483,0,0,0,3.9277,1.873,5.8937,5.8937,0,0,0,3.3135-.9726,5.192,5.192,0,0,0,2.0888-2.63h1.4415a5.3744,5.3744,0,0,1-2.3047,3.5313,7.55,7.55,0,0,1-4.5391,1.4042A6.165,6.165,0,0,1,178.248,88.39Zm10.375-7.3486V80.5a5.46,5.46,0,0,0-1.7285-3.6025,5.2972,5.2972,0,0,0-3.6738-1.44,5.0978,5.0978,0,0,0-3.6387,1.4766,5.5909,5.5909,0,0,0-1.7656,3.7109v.3965Z"/><path class="cls-2" d="M193.4512,90.083V74.7363h1.4414v3.458a6.5305,6.5305,0,0,1,1.8008-2.7011,4.0219,4.0219,0,0,1,2.5937-1.0088h.8281v1.6572a.5667.5667,0,0,1-.2519-.0723.376.376,0,0,0-.1445-.0722,4.1423,4.1423,0,0,0-3.0616,1.4414,6.9219,6.9219,0,0,0-1.7646,3.6386V90.083Z"/><path class="cls-2" d="M214.5254,89.3623a3.726,3.726,0,0,1-.0361-6.124,6.8764,6.8764,0,0,1,3.8906-1.5127,16.082,16.082,0,0,0,3.71-.7207q1.4766-.504,1.4776-1.1885V78.4473a2.3849,2.3849,0,0,0-1.2969-2.0176,6.12,6.12,0,0,0-6.0889-.0361,2.3545,2.3545,0,0,0-1.2246,1.9453v.7929h-1.3691v-.9375a3.1246,3.1246,0,0,1,1.6211-2.6289,7.0936,7.0936,0,0,1,3.9629-1.081,7.6042,7.6042,0,0,1,4.0713,1.0449,2.9865,2.9865,0,0,1,1.6933,2.5215v9.2939a2.9216,2.9216,0,0,0,.3955,1.55,1.1435,1.1435,0,0,0,.9727.6485,1.3121,1.3121,0,0,0,.3242-.0362.4517.4517,0,0,0,.2168-.1084v.6846a3.2435,3.2435,0,0,1-1.3691.252,1.8413,1.8413,0,0,1-1.4414-.7207,2.68,2.68,0,0,1-.5762-1.7286,3.6545,3.6545,0,0,1-1.8369,1.9815,6.7383,6.7383,0,0,1-3.2422.7558A5.9972,5.9972,0,0,1,214.5254,89.3623Zm7.24-1.08a5.0413,5.0413,0,0,0,1.8018-3.1347v-3.53a4.3767,4.3767,0,0,1-1.8369.7207,25.3307,25.3307,0,0,1-3.3506.4678,4.8254,4.8254,0,0,0-2.8467,1.1533,2.9344,2.9344,0,0,0-1.1523,2.3056A2.8357,2.8357,0,0,0,215.57,88.57a4.2083,4.2083,0,0,0,2.81.9727A5.0636,5.0636,0,0,0,221.7656,88.2822Z"/><path class="cls-2" d="M230.5918,89.65a3.3517,3.3517,0,0,1-.8281-2.3057V75.8535h-2.1973V74.7363h2.1973V70.377h1.4414v4.3593h2.0888v1.1172h-2.0888V87.3447a2.575,2.575,0,0,0,.4678,1.55,1.2713,1.2713,0,0,0,1.081.6485,2.1946,2.1946,0,0,0,1.1172-.253v1.045a3.9176,3.9176,0,0,1-1.2256.288A2.6628,2.6628,0,0,1,230.5918,89.65Z"/><path class="cls-2" d="M248.28,90.083V76.2852h-2.4131V74.8809H248.28V71.999a3.0737,3.0737,0,0,1,.9726-2.3056,3.1916,3.1916,0,0,1,2.3418-.9727h.8643v1.1162h-.8281a1.6715,1.6715,0,0,0-1.334.6485,2.1278,2.1278,0,0,0-.5762,1.5136v2.8819h2.7383v1.4043h-2.7383V90.083Z"/><path class="cls-2" d="M255.3418,89.3623a3.7266,3.7266,0,0,1-.0371-6.124,6.8821,6.8821,0,0,1,3.8906-1.5127,16.0808,16.0808,0,0,0,3.7109-.7207q1.4766-.504,1.4766-1.1885V78.4473a2.3829,2.3829,0,0,0-1.2969-2.0176,6.1182,6.1182,0,0,0-6.0879-.0361,2.3545,2.3545,0,0,0-1.2246,1.9453v.7929h-1.3691v-.9375a3.1246,3.1246,0,0,1,1.6211-2.6289,7.0913,7.0913,0,0,1,3.9629-1.081,7.603,7.603,0,0,1,4.07,1.0449,2.9847,2.9847,0,0,1,1.6934,2.5215v9.2939a2.9128,2.9128,0,0,0,.3964,1.55,1.1412,1.1412,0,0,0,.9727.6485,1.3177,1.3177,0,0,0,.3242-.0362.4517.4517,0,0,0,.2168-.1084v.6846a3.25,3.25,0,0,1-1.3691.252,1.8413,1.8413,0,0,1-1.4414-.7207,2.6749,2.6749,0,0,1-.5762-1.7286,3.6566,3.6566,0,0,1-1.8379,1.9815,6.7352,6.7352,0,0,1-3.2422.7558A5.9927,5.9927,0,0,1,255.3418,89.3623Zm7.24-1.08a5.04,5.04,0,0,0,1.8008-3.1347v-3.53a4.37,4.37,0,0,1-1.8369.7207,25.3059,25.3059,0,0,1-3.3506.4678A4.8227,4.8227,0,0,0,256.35,83.959a2.9318,2.9318,0,0,0-1.1523,2.3056,2.8376,2.8376,0,0,0,1.1884,2.3057,4.21,4.21,0,0,0,2.81.9727A5.0639,5.0639,0,0,0,262.582,88.2822ZM258.1152,69.08a2.7058,2.7058,0,0,1,1.9805-.8281,2.8292,2.8292,0,0,1,2.8467,2.8457,2.7006,2.7006,0,0,1-.8291,1.9814,2.7453,2.7453,0,0,1-2.0176.8291,2.8293,2.8293,0,0,1-2.8086-2.81A2.7458,2.7458,0,0,1,258.1152,69.08Zm.7207,3.2783a1.7648,1.7648,0,0,0,3.0254-1.2607,1.7653,1.7653,0,1,0-3.53,0A1.7837,1.7837,0,0,0,258.8359,72.3584Z"/><path class="cls-2" d="M282.9,88.39a9.0844,9.0844,0,0,1-1.8731-5.9794A9.0875,9.0875,0,0,1,282.9,76.43a6.1609,6.1609,0,0,1,4.9707-2.2334,6.4084,6.4084,0,0,1,4.9717,2.0527,7.8135,7.8135,0,0,1,1.874,5.4766V82.41h-12.249a7.853,7.853,0,0,0,1.4775,5.0068,4.7475,4.7475,0,0,0,3.9258,1.873,5.894,5.894,0,0,0,3.3144-.9726,5.2,5.2,0,0,0,2.09-2.63h1.4414a5.3805,5.3805,0,0,1-2.3066,3.5313,7.5478,7.5478,0,0,1-4.5391,1.4042A6.1609,6.1609,0,0,1,282.9,88.39Zm10.375-7.3486V80.5a5.471,5.471,0,0,0-1.7295-3.6025,5.3013,5.3013,0,0,0-3.6748-1.44,5.1042,5.1042,0,0,0-3.6387,1.4766,5.5988,5.5988,0,0,0-1.7646,3.7109v.3965Z"/><path class="cls-2" d="M298.1025,90.083V74.7363h1.44V77.33a4.9259,4.9259,0,0,1,1.9824-2.1612,5.7287,5.7287,0,0,1,6.8086.6485,4.7662,4.7662,0,0,1,1.6211,3.6025V90.083h-1.4414V79.42a3.5723,3.5723,0,0,0-1.1895-2.7021,4.012,4.012,0,0,0-2.8457-1.1172,4.7419,4.7419,0,0,0-3.206,1.2256A5.319,5.319,0,0,0,299.543,79.96V90.083Z"/><path class="cls-2" d="M57.2422,122.9014a8.5114,8.5114,0,0,1-1.9815-5.6914,8.8485,8.8485,0,0,1,1.9815-5.8008,5.9711,5.9711,0,0,1,4.7558-2.4131A5.4983,5.4983,0,0,1,65.24,110.041a6.1189,6.1189,0,0,1,2.0889,2.81v-9.33h1.44v21.3623h-1.44V121.749a5.0888,5.0888,0,0,1-2.0537,2.5576,5.7208,5.7208,0,0,1-3.2774.9727A6.0013,6.0013,0,0,1,57.2422,122.9014Zm8.5381-.7569a7.9589,7.9589,0,0,0,1.5488-4.9345,7.8079,7.8079,0,0,0-1.5488-4.8995,4.6711,4.6711,0,0,0-3.7823-2.0537,4.5744,4.5744,0,0,0-3.747,2.0537,7.8085,7.8085,0,0,0-1.55,4.8995,7.96,7.96,0,0,0,1.55,4.9345,4.5742,4.5742,0,0,0,3.747,2.0537A4.6709,4.6709,0,0,0,65.78,122.1445Z"/><path class="cls-2" d="M74.3174,123.19a10.4823,10.4823,0,0,1,0-11.96,6.1628,6.1628,0,0,1,4.9717-2.2334,6.4064,6.4064,0,0,1,4.9707,2.0527,7.8135,7.8135,0,0,1,1.874,5.4766v.6846H73.8848a7.8588,7.8588,0,0,0,1.4775,5.0068,4.748,4.748,0,0,0,3.9268,1.873,5.8964,5.8964,0,0,0,3.3144-.9726,5.1979,5.1979,0,0,0,2.0889-2.63h1.4414a5.3788,5.3788,0,0,1-2.3057,3.5313,7.55,7.55,0,0,1-4.539,1.4043A6.1631,6.1631,0,0,1,74.3174,123.19Zm10.375-7.3487V115.3a5.4619,5.4619,0,0,0-1.73-3.6025,5.2975,5.2975,0,0,0-3.6738-1.44,5.1008,5.1008,0,0,0-3.6387,1.4766,5.6,5.6,0,0,0-1.7656,3.7109v.3965Z"/><path class="cls-2" d="M89.52,130.6465v-21.11h1.4414v3.17a5.7191,5.7191,0,0,1,2.0528-2.7012,5.4067,5.4067,0,0,1,3.1709-1.0088A6.0611,6.0611,0,0,1,101.12,111.23a9.093,9.093,0,0,1,1.8731,5.98,8.7134,8.7134,0,0,1-1.8018,5.7636,6.1442,6.1442,0,0,1-7.9971,1.1885,5.919,5.919,0,0,1-2.2334-2.5576v9.042Zm10.5918-8.4658a8.3845,8.3845,0,0,0,1.4414-5.1153,8.0661,8.0661,0,0,0-1.4414-5.0439,4.4577,4.4577,0,0,0-3.7832-1.9092,4.6045,4.6045,0,0,0-3.7822,2.0537,7.6841,7.6841,0,0,0-1.585,4.8994,7.8889,7.8889,0,0,0,1.585,4.9717,4.6034,4.6034,0,0,0,3.7822,2.0527A4.4554,4.4554,0,0,0,100.1113,122.1807Z"/><path class="cls-2" d="M106.668,124.8828V109.5361h1.44v3.458a6.5324,6.5324,0,0,1,1.8018-2.7011,4.02,4.02,0,0,1,2.5937-1.0088h.8281v1.6572a.5667.5667,0,0,1-.2519-.0723.3822.3822,0,0,0-.1446-.0722,4.1443,4.1443,0,0,0-3.0625,1.4414,6.9366,6.9366,0,0,0-1.7646,3.6387v9.0058Z"/><path class="cls-2" d="M116.79,123.19a10.4828,10.4828,0,0,1,0-11.96,6.163,6.163,0,0,1,4.9717-2.2334,6.4061,6.4061,0,0,1,4.9707,2.0527,7.8135,7.8135,0,0,1,1.874,5.4766v.6846h-12.249a7.8582,7.8582,0,0,0,1.4776,5.0068,4.7477,4.7477,0,0,0,3.9267,1.873,5.8969,5.8969,0,0,0,3.3145-.9726,5.1977,5.1977,0,0,0,2.0888-2.63h1.4414a5.3787,5.3787,0,0,1-2.3056,3.5313,7.55,7.55,0,0,1-4.5391,1.4043A6.1633,6.1633,0,0,1,116.79,123.19Zm10.375-7.3487V115.3a5.4615,5.4615,0,0,0-1.73-3.6025,5.2972,5.2972,0,0,0-3.6738-1.44,5.1011,5.1011,0,0,0-3.6387,1.4766,5.6,5.6,0,0,0-1.7656,3.7109v.3965Z"/><path class="cls-2" d="M132.4609,123.8379a4.3966,4.3966,0,0,1-1.7285-3.4941h1.3321a3.3744,3.3744,0,0,0,1.333,2.666,4.9256,4.9256,0,0,0,3.206,1.08,5.7892,5.7892,0,0,0,3.4942-.9726,3.1743,3.1743,0,0,0,1.2968-2.63,2.476,2.476,0,0,0-1.3681-2.0889,8.6653,8.6653,0,0,0-3.6748-1.0449,7.0832,7.0832,0,0,1-3.8907-1.3691,3.4862,3.4862,0,0,1-1.4765-2.8457,3.4082,3.4082,0,0,1,1.4765-2.9541,7.09,7.09,0,0,1,4.1426-1.045,6.7126,6.7126,0,0,1,4.0713,1.1172,3.506,3.506,0,0,1,1.5488,2.99h-1.3691a3.3043,3.3043,0,0,0-1.3682-2.1983,4.8783,4.8783,0,0,0-2.8828-.792,5.3871,5.3871,0,0,0-3.0976.792,2.4273,2.4273,0,0,0-1.1524,2.09,2.4723,2.4723,0,0,0,1.4043,2.09,8.6437,8.6437,0,0,0,3.6738,1.044,6.9116,6.9116,0,0,1,3.8916,1.4414,3.9989,3.9989,0,0,1-.2529,6.3408,7.3549,7.3549,0,0,1-4.4668,1.2246A6.173,6.173,0,0,1,132.4609,123.8379Z"/><path class="cls-2" d="M146.582,123.8379a4.3966,4.3966,0,0,1-1.7285-3.4941h1.332a3.3758,3.3758,0,0,0,1.334,2.666,4.9258,4.9258,0,0,0,3.2061,1.08,5.7907,5.7907,0,0,0,3.4941-.9726,3.1768,3.1768,0,0,0,1.2969-2.63,2.4761,2.4761,0,0,0-1.3682-2.0889,8.6736,8.6736,0,0,0-3.6757-1.0449,7.0829,7.0829,0,0,1-3.8907-1.3691,3.4862,3.4862,0,0,1-1.4765-2.8457,3.4082,3.4082,0,0,1,1.4765-2.9541,7.0914,7.0914,0,0,1,4.1436-1.045,6.7167,6.7167,0,0,1,4.0713,1.1172,3.5084,3.5084,0,0,1,1.5488,2.99h-1.3691a3.3055,3.3055,0,0,0-1.3692-2.1983,4.8732,4.8732,0,0,0-2.8818-.792,5.3928,5.3928,0,0,0-3.0986.792,2.43,2.43,0,0,0-1.1524,2.09,2.4743,2.4743,0,0,0,1.4043,2.09,8.6529,8.6529,0,0,0,3.6748,1.044,6.9173,6.9173,0,0,1,3.8916,1.4414,3.999,3.999,0,0,1-.2529,6.3408,7.3551,7.3551,0,0,1-4.4668,1.2246A6.1738,6.1738,0,0,1,146.582,123.8379Z"/><path class="cls-2" d="M160.2363,103.5205h1.44v2.1973h-1.44Zm0,21.3623V109.5361h1.44v15.3467Z"/><path class="cls-2" d="M167.2969,122.9736a8.1962,8.1962,0,0,1-1.9815-5.7636,8.7646,8.7646,0,0,1,1.9815-5.98,6.5749,6.5749,0,0,1,5.2236-2.2334,6.645,6.645,0,0,1,5.2236,2.2334,8.87,8.87,0,0,1,1.9454,5.98,8.2916,8.2916,0,0,1-1.9454,5.7636,6.752,6.752,0,0,1-5.2236,2.1612A6.68,6.68,0,0,1,167.2969,122.9736Zm9.4023-.8642a7.355,7.355,0,0,0,1.5488-4.8994,7.6752,7.6752,0,0,0-1.5488-5.044,5.1647,5.1647,0,0,0-4.1787-1.9092,5.0993,5.0993,0,0,0-4.1787,1.9092,7.5507,7.5507,0,0,0-1.5859,5.044,7.2382,7.2382,0,0,0,1.5859,4.8994,5.1818,5.1818,0,0,0,4.1787,1.8369A5.2491,5.2491,0,0,0,176.6992,122.1094Z"/><path class="cls-2" d="M183.3281,124.8828V109.5361h1.44V112.13a4.9228,4.9228,0,0,1,1.9814-2.1611,5.7284,5.7284,0,0,1,6.8086.6484A4.7662,4.7662,0,0,1,195.18,114.22v10.6631h-1.4414V114.22a3.5749,3.5749,0,0,0-1.1885-2.7021,4.012,4.012,0,0,0-2.8457-1.1172,4.7423,4.7423,0,0,0-3.2061,1.2256,5.3089,5.3089,0,0,0-1.7294,3.1338v10.123Z"/><path class="cls-2" d="M199.5391,122.6855h2.0888v2.1973h-2.0888Z"/></g></svg>
