<svg xmlns="http://www.w3.org/2000/svg" width="399" height="165" viewBox="0 0 399 165"><defs><style>.cls-1{fill:#202531;}.cls-2{fill:#fff;}</style></defs><title>svar2</title><g id="Spørgsmål"><rect class="cls-1" x="9" y="11" width="380" height="147" rx="45.727"/><path class="cls-2" d="M44.0176,70.0586a5.8179,5.8179,0,0,1-1.5493-4.251v-.793h1.4409v.793a4.82,4.82,0,0,0,1.1528,3.3858A3.894,3.894,0,0,0,48.124,70.49a4.2065,4.2065,0,0,0,3.2066-1.2968,4.733,4.733,0,0,0,1.1884-3.3858V49.9209H53.96V65.8076a5.745,5.745,0,0,1-1.5854,4.251A5.6766,5.6766,0,0,1,48.124,71.68,5.4172,5.4172,0,0,1,44.0176,70.0586Z"/><path class="cls-2" d="M59.2915,69.59a9.09,9.09,0,0,1-1.873-5.9794,9.093,9.093,0,0,1,1.873-5.98,6.1628,6.1628,0,0,1,4.9717-2.2334,6.408,6.408,0,0,1,4.9712,2.0527,7.8156,7.8156,0,0,1,1.8735,5.4766V63.61H58.8594a7.8589,7.8589,0,0,0,1.477,5.0068,4.748,4.748,0,0,0,3.9268,1.873,5.8936,5.8936,0,0,0,3.3139-.9726,5.1963,5.1963,0,0,0,2.0894-2.63h1.4414a5.3766,5.3766,0,0,1-2.3057,3.5312,7.5478,7.5478,0,0,1-4.539,1.4043A6.1628,6.1628,0,0,1,59.2915,69.59Zm10.375-7.3486V61.7a5.4659,5.4659,0,0,0-1.729-3.6025,5.2992,5.2992,0,0,0-3.6743-1.44,5.1008,5.1008,0,0,0-3.6387,1.4766,5.5949,5.5949,0,0,0-1.7651,3.7109v.3965Z"/><path class="cls-2" d="M75.5029,75.3184a4.3387,4.3387,0,0,1-1.9453-3.5313h1.3687a3.2523,3.2523,0,0,0,1.5132,2.666,6.3181,6.3181,0,0,0,3.71,1.0811,5.4562,5.4562,0,0,0,3.7827-1.2608,4.2744,4.2744,0,0,0,1.4409-3.3867V67.7529a5.2956,5.2956,0,0,1-2.0893,2.378,5.7419,5.7419,0,0,1-3.0982.9,6.0014,6.0014,0,0,1-4.8271-2.1259,8.4851,8.4851,0,0,1-1.8374-5.6914,8.4894,8.4894,0,0,1,1.8374-5.6924,6.0034,6.0034,0,0,1,4.8271-2.125,5.7632,5.7632,0,0,1,3.2061.9365,5.0394,5.0394,0,0,1,1.9814,2.4854V55.9365h1.441V70.9229A5.34,5.34,0,0,1,85.0493,75.21,7.0983,7.0983,0,0,1,80.15,76.7588,7.4948,7.4948,0,0,1,75.5029,75.3184Zm8.3575-7.35a8.2292,8.2292,0,0,0,0-9.5108,4.62,4.62,0,0,0-7.4571-.1074,7.6579,7.6579,0,0,0-1.4409,4.8633,7.6578,7.6578,0,0,0,1.4409,4.8632,4.621,4.621,0,0,0,7.4571-.1083Z"/><path class="cls-2" d="M103.2778,71.2832V57.4854h-2.4135V56.0811h2.4135V53.1992a3.0738,3.0738,0,0,1,.9727-2.3056,3.1914,3.1914,0,0,1,2.3418-.9727h.8642v1.1162h-.8286a1.67,1.67,0,0,0-1.333.6484,2.126,2.126,0,0,0-.5761,1.5137v2.8819h2.7377v1.4043h-2.7377V71.2832Z"/><path class="cls-2" d="M110.9873,69.374a8.1962,8.1962,0,0,1-1.9814-5.7636,8.7645,8.7645,0,0,1,1.9814-5.98,6.5756,6.5756,0,0,1,5.2236-2.2334,6.6452,6.6452,0,0,1,5.2237,2.2334,8.8709,8.8709,0,0,1,1.9453,5.98,8.2921,8.2921,0,0,1-1.9453,5.7636,6.7522,6.7522,0,0,1-5.2237,2.1612A6.6807,6.6807,0,0,1,110.9873,69.374ZM120.39,68.51a7.3545,7.3545,0,0,0,1.5489-4.8994,7.6747,7.6747,0,0,0-1.5489-5.044,5.1658,5.1658,0,0,0-4.1787-1.9092,5.1008,5.1008,0,0,0-4.1792,1.9092,7.553,7.553,0,0,0-1.5849,5.044,7.24,7.24,0,0,0,1.5849,4.8994,5.1836,5.1836,0,0,0,4.1792,1.8369A5.25,5.25,0,0,0,120.39,68.51Z"/><path class="cls-2" d="M127.0181,71.2832V55.9365h1.4409v3.458a6.5356,6.5356,0,0,1,1.8013-2.7011,4.0219,4.0219,0,0,1,2.5937-1.0088h.8286v1.6572a.5686.5686,0,0,1-.2524-.0723.3747.3747,0,0,0-.1441-.0722,4.1424,4.1424,0,0,0-3.062,1.4414,6.9262,6.9262,0,0,0-1.7651,3.6386v9.0059Z"/><path class="cls-2" d="M137.1768,70.8506a3.3517,3.3517,0,0,1-.8287-2.3057V57.0537H134.15V55.9365h2.1977V51.5771h1.441v4.3594h2.0893v1.1172h-2.0893V68.5449a2.5752,2.5752,0,0,0,.4682,1.55,1.2716,1.2716,0,0,0,1.0811.6485,2.189,2.189,0,0,0,1.1167-.253v1.045a3.9093,3.9093,0,0,1-1.2251.288A2.6609,2.6609,0,0,1,137.1768,70.8506Z"/><path class="cls-2" d="M143.373,70.5625a3.7261,3.7261,0,0,1-.0361-6.124,6.8764,6.8764,0,0,1,3.8906-1.5127,16.0877,16.0877,0,0,0,3.71-.7207q1.4766-.504,1.477-1.1885V59.6475a2.7118,2.7118,0,0,0-1.2968-2.2334,5.1913,5.1913,0,0,0-3.0982-.9014,5.009,5.009,0,0,0-2.99.9014,2.54,2.54,0,0,0-1.2246,2.125v.7929H142.436v-.9375a3.3763,3.3763,0,0,1,1.6211-2.8095,6.621,6.621,0,0,1,3.9629-1.1885,7.0454,7.0454,0,0,1,3.6026.9,3.9088,3.9088,0,0,1,1.9453,2.3418,6.2816,6.2816,0,0,1,2.3774-2.378,6.4994,6.4994,0,0,1,3.2783-.8642,6.4082,6.4082,0,0,1,4.9717,2.0527,7.8154,7.8154,0,0,1,1.8731,5.4766V63.61H153.82v1.4042a5.2419,5.2419,0,0,0,1.585,3.8545,5.1451,5.1451,0,0,0,3.8183,1.6211,5.8946,5.8946,0,0,0,3.3145-.9726,5.1955,5.1955,0,0,0,2.0893-2.63h1.441a5.3733,5.3733,0,0,1-2.3057,3.5312,7.5472,7.5472,0,0,1-4.5391,1.4043,6.4321,6.4321,0,0,1-3.6743-1.1162,6.3065,6.3065,0,0,1-2.3418-2.9541,6.0883,6.0883,0,0,1-2.3056,2.9541,6.4345,6.4345,0,0,1-3.6744,1.1162A5.9957,5.9957,0,0,1,143.373,70.5625Zm7.2408-1.08a5.0433,5.0433,0,0,0,1.8012-3.1347v-3.53a4.3758,4.3758,0,0,1-1.8374.7207,25.2965,25.2965,0,0,1-3.35.4678,4.8229,4.8229,0,0,0-2.8462,1.1533,2.9318,2.9318,0,0,0-1.1523,2.3056,2.8361,2.8361,0,0,0,1.1885,2.3057,4.2108,4.2108,0,0,0,2.81.9727A5.0659,5.0659,0,0,0,150.6138,69.4824Zm14.0136-7.2412V61.7a5.4677,5.4677,0,0,0-1.729-3.6025,5.3,5.3,0,0,0-3.6748-1.44,5.1008,5.1008,0,0,0-3.6382,1.4766,5.5949,5.5949,0,0,0-1.7651,3.7109v.3965Z"/><path class="cls-2" d="M169.4546,71.2832V49.9209h1.4409V71.2832Z"/><path class="cls-2" d="M175.5068,71.2832V49.9209h1.441V71.2832Z"/><path class="cls-2" d="M182.4956,69.59a9.09,9.09,0,0,1-1.873-5.9794,9.093,9.093,0,0,1,1.873-5.98,6.1628,6.1628,0,0,1,4.9717-2.2334,6.408,6.408,0,0,1,4.9712,2.0527,7.8156,7.8156,0,0,1,1.8735,5.4766V63.61H182.0635a7.8589,7.8589,0,0,0,1.477,5.0068,4.748,4.748,0,0,0,3.9268,1.873,5.8936,5.8936,0,0,0,3.3139-.9726,5.1963,5.1963,0,0,0,2.0894-2.63h1.4414a5.3766,5.3766,0,0,1-2.3057,3.5312,7.5478,7.5478,0,0,1-4.539,1.4043A6.1628,6.1628,0,0,1,182.4956,69.59Zm10.375-7.3486V61.7a5.4659,5.4659,0,0,0-1.729-3.6025,5.2992,5.2992,0,0,0-3.6743-1.44,5.1008,5.1008,0,0,0-3.6387,1.4766,5.5949,5.5949,0,0,0-1.7651,3.7109v.3965Z"/><path class="cls-2" d="M197.6982,71.2832V55.9365h1.441v3.458a6.5354,6.5354,0,0,1,1.8012-2.7011,4.0221,4.0221,0,0,1,2.5938-1.0088h.8286v1.6572a.5682.5682,0,0,1-.2524-.0723.3753.3753,0,0,0-.1441-.0722,4.1424,4.1424,0,0,0-3.062,1.4414,6.9262,6.9262,0,0,0-1.7651,3.6386v9.0059Z"/><path class="cls-2" d="M219.3486,69.3018a8.5113,8.5113,0,0,1-1.9814-5.6914,8.8482,8.8482,0,0,1,1.9814-5.8008,5.9711,5.9711,0,0,1,4.7554-2.4131,5.4964,5.4964,0,0,1,3.2422,1.0449,6.1135,6.1135,0,0,1,2.0893,2.81v-9.33h1.441V71.2832h-1.441V68.1494a5.09,5.09,0,0,1-2.0532,2.5576,5.7239,5.7239,0,0,1-3.2783.9727A6.0012,6.0012,0,0,1,219.3486,69.3018Zm8.5381-.7569a7.9591,7.9591,0,0,0,1.5488-4.9345,7.8079,7.8079,0,0,0-1.5488-4.8995,4.67,4.67,0,0,0-3.7827-2.0537,4.5744,4.5744,0,0,0-3.7466,2.0537,7.8052,7.8052,0,0,0-1.5493,4.8995,7.9563,7.9563,0,0,0,1.5493,4.9345,4.5741,4.5741,0,0,0,3.7466,2.0537A4.67,4.67,0,0,0,227.8867,68.5449Z"/><path class="cls-2" d="M236.4238,69.59a9.09,9.09,0,0,1-1.873-5.9794,9.093,9.093,0,0,1,1.873-5.98,6.163,6.163,0,0,1,4.9717-2.2334,6.408,6.408,0,0,1,4.9712,2.0527,7.8156,7.8156,0,0,1,1.8735,5.4766V63.61H235.9917a7.8583,7.8583,0,0,0,1.4771,5.0068,4.7477,4.7477,0,0,0,3.9267,1.873,5.8941,5.8941,0,0,0,3.314-.9726,5.1955,5.1955,0,0,0,2.0893-2.63H248.24a5.3768,5.3768,0,0,1-2.3056,3.5312,7.5483,7.5483,0,0,1-4.5391,1.4043A6.163,6.163,0,0,1,236.4238,69.59Zm10.375-7.3486V61.7a5.4655,5.4655,0,0,0-1.729-3.6025,5.2992,5.2992,0,0,0-3.6743-1.44,5.1011,5.1011,0,0,0-3.6387,1.4766,5.5949,5.5949,0,0,0-1.7651,3.7109v.3965Z"/><path class="cls-2" d="M252.5991,70.8506a3.3521,3.3521,0,0,1-.8286-2.3057V57.0537h-2.1977V55.9365h2.1977V51.5771h1.4409v4.3594h2.0894v1.1172h-2.0894V68.5449a2.5753,2.5753,0,0,0,.4683,1.55,1.2714,1.2714,0,0,0,1.081.6485,2.1885,2.1885,0,0,0,1.1167-.253v1.045a3.9093,3.9093,0,0,1-1.2251.288A2.6612,2.6612,0,0,1,252.5991,70.8506Z"/><path class="cls-2" d="M270.9355,70.8506a3.3521,3.3521,0,0,1-.8286-2.3057V57.0537h-2.1977V55.9365h2.1977V51.5771h1.441v4.3594h2.0893v1.1172h-2.0893V68.5449a2.5752,2.5752,0,0,0,.4682,1.55,1.2716,1.2716,0,0,0,1.0811.6485,2.189,2.189,0,0,0,1.1167-.253v1.045a3.91,3.91,0,0,1-1.2251.288A2.6612,2.6612,0,0,1,270.9355,70.8506Z"/><path class="cls-2" d="M276.7715,49.9209h1.4409v2.1973h-1.4409Zm0,21.3623V55.9365h1.4409V71.2832Z"/><path class="cls-2" d="M282.8237,71.2832V49.9209h1.4409V71.2832Z"/><path class="cls-2" d="M301.34,69.59a9.09,9.09,0,0,1-1.873-5.9794,9.093,9.093,0,0,1,1.873-5.98,6.163,6.163,0,0,1,4.9717-2.2334,6.4079,6.4079,0,0,1,4.9712,2.0527,7.8156,7.8156,0,0,1,1.8735,5.4766V63.61H300.9082a7.8583,7.8583,0,0,0,1.4771,5.0068,4.7477,4.7477,0,0,0,3.9267,1.873,5.8941,5.8941,0,0,0,3.314-.9726,5.1955,5.1955,0,0,0,2.0893-2.63h1.4414a5.3768,5.3768,0,0,1-2.3056,3.5312,7.5483,7.5483,0,0,1-4.5391,1.4043A6.163,6.163,0,0,1,301.34,69.59Zm10.375-7.3486V61.7a5.4655,5.4655,0,0,0-1.729-3.6025,5.2992,5.2992,0,0,0-3.6743-1.44,5.1011,5.1011,0,0,0-3.6387,1.4766,5.5949,5.5949,0,0,0-1.7651,3.7109v.3965Z"/><path class="cls-2" d="M316.543,71.2832V55.9365h1.4409V58.53a4.9213,4.9213,0,0,1,1.9814-2.1612,5.7287,5.7287,0,0,1,6.8086.6485A4.7645,4.7645,0,0,1,328.395,60.62V71.2832h-1.4409V60.62a3.5736,3.5736,0,0,0-1.189-2.7021,4.0135,4.0135,0,0,0-2.8457-1.1172,4.7442,4.7442,0,0,0-3.2065,1.2256,5.3162,5.3162,0,0,0-1.729,3.1338v10.123Z"/><path class="cls-2" d="M48.1963,106.083l-5.728-15.3467h1.333l5.2236,13.6895L53.96,90.7363h1.3687L49.71,106.083Z"/><path class="cls-2" d="M59.1118,104.1738A8.1962,8.1962,0,0,1,57.13,98.41,8.7645,8.7645,0,0,1,59.1118,92.43a6.5756,6.5756,0,0,1,5.2236-2.2334A6.6452,6.6452,0,0,1,69.5591,92.43,8.87,8.87,0,0,1,71.5044,98.41a8.2916,8.2916,0,0,1-1.9453,5.7636,6.7522,6.7522,0,0,1-5.2237,2.1612A6.6807,6.6807,0,0,1,59.1118,104.1738Zm9.4024-.8642A7.355,7.355,0,0,0,70.063,98.41a7.6752,7.6752,0,0,0-1.5488-5.044,5.1663,5.1663,0,0,0-4.1788-1.9092,5.1011,5.1011,0,0,0-4.1792,1.9092,7.553,7.553,0,0,0-1.5849,5.044,7.24,7.24,0,0,0,1.5849,4.8994,5.1836,5.1836,0,0,0,4.1792,1.8369A5.2506,5.2506,0,0,0,68.5142,103.31Z"/><path class="cls-2" d="M75.1426,106.083V84.7207h1.4409V98.6982l8.2139-7.9619h1.8012l-5.9082,5.62,6.5923,9.7266H85.77l-6.0161-8.7539-3.17,3.0264v5.7275Z"/><path class="cls-2" d="M90.3809,105.0381a4.3954,4.3954,0,0,1-1.729-3.4942h1.3325a3.3746,3.3746,0,0,0,1.333,2.6661,4.9269,4.9269,0,0,0,3.2065,1.08,5.79,5.79,0,0,0,3.4942-.9726,3.1756,3.1756,0,0,0,1.2968-2.63,2.4766,2.4766,0,0,0-1.3686-2.0889,8.6675,8.6675,0,0,0-3.6748-1.0449,7.08,7.08,0,0,1-3.8906-1.3691,3.4852,3.4852,0,0,1-1.4771-2.8457,3.4073,3.4073,0,0,1,1.4771-2.9541,7.09,7.09,0,0,1,4.143-1.045,6.712,6.712,0,0,1,4.0708,1.1172,3.5058,3.5058,0,0,1,1.5489,2.99H98.7744a3.3052,3.3052,0,0,0-1.3686-2.1983,4.8756,4.8756,0,0,0-2.8819-.792,5.39,5.39,0,0,0-3.0981.792,2.4289,2.4289,0,0,0-1.1529,2.09,2.4729,2.4729,0,0,0,1.4048,2.09,8.6483,8.6483,0,0,0,3.6744,1.044,6.912,6.912,0,0,1,3.8911,1.4414,3.9985,3.9985,0,0,1-.2525,6.3408,7.3559,7.3559,0,0,1-4.4668,1.2246A6.1713,6.1713,0,0,1,90.3809,105.0381Z"/><path class="cls-2" d="M104.9707,104.39a10.4826,10.4826,0,0,1,0-11.96,6.1628,6.1628,0,0,1,4.9717-2.2334,6.408,6.408,0,0,1,4.9712,2.0527,7.8156,7.8156,0,0,1,1.8735,5.4766V98.41H104.5386a7.8589,7.8589,0,0,0,1.477,5.0068,4.748,4.748,0,0,0,3.9268,1.873,5.8936,5.8936,0,0,0,3.3139-.9726,5.1963,5.1963,0,0,0,2.0894-2.63h1.4414a5.377,5.377,0,0,1-2.3057,3.5313,7.5484,7.5484,0,0,1-4.539,1.4042A6.1628,6.1628,0,0,1,104.9707,104.39Zm10.375-7.3486V96.5a5.4659,5.4659,0,0,0-1.729-3.6025,5.2992,5.2992,0,0,0-3.6743-1.44,5.1008,5.1008,0,0,0-3.6387,1.4766,5.5949,5.5949,0,0,0-1.7651,3.7109v.3965Z"/><path class="cls-2" d="M120.1733,106.083V90.7363h1.441V93.33a4.9207,4.9207,0,0,1,1.9814-2.1612,5.7287,5.7287,0,0,1,6.8086.6485,4.7645,4.7645,0,0,1,1.6211,3.6025V106.083h-1.4409V95.42a3.5736,3.5736,0,0,0-1.189-2.7021,4.0137,4.0137,0,0,0-2.8457-1.1172,4.744,4.744,0,0,0-3.2065,1.2256,5.3157,5.3157,0,0,0-1.729,3.1338v10.123Z"/><path class="cls-2" d="M136.3843,103.8857h2.0893v2.1973h-2.0893Z"/></g></svg>
