<svg xmlns="http://www.w3.org/2000/svg" xmlns:xlink="http://www.w3.org/1999/xlink" width="588" height="1080" viewBox="0 0 588 1080"><defs><style>.cls-1{fill:gray;}.cls-2{fill:url(#radial-gradient);}.cls-3{fill:#999;}.cls-4{fill:url(#radial-gradient-2);}.cls-5{fill:#4d4d4d;}.cls-6{fill:url(#radial-gradient-3);}.cls-7{fill:url(#radial-gradient-4);}.cls-8{fill:url(#radial-gradient-5);}.cls-9{fill:url(#radial-gradient-6);}.cls-10,.cls-14,.cls-18,.cls-19{fill:none;}.cls-11{fill:#29abe2;}.cls-12,.cls-14{stroke:#000;stroke-width:3px;}.cls-12,.cls-14,.cls-17,.cls-18,.cls-19,.cls-20{stroke-miterlimit:10;}.cls-13{fill:#efc39c;}.cls-15{fill:#e82121;}.cls-16{fill:#fff;}.cls-17,.cls-20{fill:#ffcda5;}.cls-17,.cls-18,.cls-19,.cls-20{stroke:#a67c52;}.cls-17,.cls-18{stroke-width:0.75px;}.cls-21{fill:#e6e6e6;}.cls-22,.cls-23{fill:#bababa;}.cls-22{opacity:0.73;}</style><radialGradient id="radial-gradient" cx="290.5" cy="524.5" r="376.4845" gradientTransform="translate(0 -314.1382) scale(1 1.5989)" gradientUnits="userSpaceOnUse"><stop offset="0" stop-color="#fff"/><stop offset="0.2473" stop-color="#f8f8f8"/><stop offset="0.4249" stop-color="#d8d8d8"/><stop offset="0.813" stop-color="#858585"/><stop offset="0.9987" stop-color="#5c5c5c"/></radialGradient><radialGradient id="radial-gradient-2" r="368.7645" gradientTransform="translate(0 -326.7223) scale(1 1.6229)" xlink:href="#radial-gradient"/><radialGradient id="radial-gradient-3" cx="291" cy="909" r="46" gradientTransform="matrix(1, 0, 0, 1, 0, 0)" xlink:href="#radial-gradient"/><radialGradient id="radial-gradient-4" cx="217" cy="117.2349" r="8.1845" gradientTransform="translate(0 -5.3471) scale(1 1.0456)" xlink:href="#radial-gradient"/><radialGradient id="radial-gradient-5" cx="291" cy="92.1402" r="8.1845" gradientTransform="translate(0 -4.2025) scale(1 1.0456)" xlink:href="#radial-gradient"/><radialGradient id="radial-gradient-6" cx="291" cy="909" r="35" gradientTransform="matrix(1, 0, 0, 1, 0, 0)" xlink:href="#radial-gradient"/></defs><title>Artboard 1 copy 2</title><g id="iphonebund"><rect class="cls-1" x="33.8702" y="58" width="513.2595" height="933" rx="41.256"/><path class="cls-2" d="M505.8738,59A40.3017,40.3017,0,0,1,546.13,99.256V949.744A40.3017,40.3017,0,0,1,505.8738,990H75.1262A40.3017,40.3017,0,0,1,34.87,949.744V99.256A40.3017,40.3017,0,0,1,75.1262,59H505.8738m0-1H75.1262A41.3773,41.3773,0,0,0,33.87,99.256V949.744A41.3773,41.3773,0,0,0,75.1262,991H505.8738A41.3773,41.3773,0,0,0,547.13,949.744V99.256A41.3773,41.3773,0,0,0,505.8738,58Z"/><rect class="cls-3" x="42" y="66" width="497" height="917" rx="35.2253"/><path class="cls-4" d="M503.7747,67A34.2641,34.2641,0,0,1,538,101.2253V947.7747A34.2641,34.2641,0,0,1,503.7747,982H77.2253A34.2641,34.2641,0,0,1,43,947.7747V101.2253A34.2641,34.2641,0,0,1,77.2253,67H503.7747m0-1H77.2253A35.3288,35.3288,0,0,0,42,101.2253V947.7747A35.3287,35.3287,0,0,0,77.2253,983H503.7747A35.3287,35.3287,0,0,0,539,947.7747V101.2253A35.3288,35.3288,0,0,0,503.7747,66Z"/><circle class="cls-5" cx="291" cy="909" r="46"/><path class="cls-6" d="M291,864a45,45,0,1,1-45,45,45.051,45.051,0,0,1,45-45m0-1a46,46,0,1,0,46,46,46,46,0,0,0-46-46Z"/><rect class="cls-5" x="245" y="108.87" width="92" height="16.7298" rx="8"/><rect class="cls-5" x="209" y="108.87" width="16" height="16.7298" rx="8"/><path class="cls-7" d="M217,109.87a7.0079,7.0079,0,0,1,7,7v.73a7,7,0,1,1-14,0v-.73a7.0079,7.0079,0,0,1,7-7m0-1a8.0236,8.0236,0,0,0-8,8v.73a8,8,0,1,0,16,0v-.73a8.0236,8.0236,0,0,0-8-8Z"/><rect class="cls-5" x="283" y="83.7754" width="16" height="16.7298" rx="8"/><path class="cls-8" d="M291,84.7754a7.0079,7.0079,0,0,1,7,7v.73a7,7,0,0,1-14,0v-.73a7.0079,7.0079,0,0,1,7-7m0-1a8.0236,8.0236,0,0,0-8,8v.73a8,8,0,0,0,16,0v-.73a8.0236,8.0236,0,0,0-8-8Z"/><circle class="cls-3" cx="291" cy="909" r="35"/><path class="cls-9" d="M291,875a34,34,0,1,1-34,34,34.0385,34.0385,0,0,1,34-34m0-1a35,35,0,1,0,35,35,35,35,0,0,0-35-35Z"/><path class="cls-10" d="M429.041,172.6631h2.4131v16.6723h7.9893v2.025H429.041Z"/><path class="cls-10" d="M453.8135,184.5361c0,4.9659-3.44,7.1294-6.6856,7.1294-3.6347,0-6.4365-2.6631-6.4365-6.9072,0-4.4941,2.9414-7.1294,6.6582-7.1294C451.2051,177.6289,453.8135,180.4307,453.8135,184.5361Zm-10.6524.1387c0,2.94,1.6914,5.16,4.0772,5.16,2.33,0,4.0781-2.1914,4.0781-5.2149,0-2.2749-1.1377-5.16-4.0225-5.16S443.1611,182.1226,443.1611,184.6748Z"/></g><g id="snap_personer" data-name="snap personer"><rect class="cls-11" x="83" y="154.83" width="422" height="694.29"/><rect class="cls-11" x="83" y="155" width="422" height="694.12"/><polygon class="cls-12" points="488.15 849.12 382.69 849.12 352.02 810.19 416.74 759.2 417.09 758.92 455.72 807.95 488.15 849.12"/><path class="cls-13" d="M362.6,283.11c-6.4,23.31-18.76,46.39-35.93,68.67l-.01.01c-27.12,35.16-66.26,68.3-112.98,97.08-12.09,7.45-24.24,14.33-36.35,20.57h-.01c-32.09,16.54-63.98,28.68-94.32,35.43V154.83H328.96a1.2488,1.2488,0,0,1,.16.17,152.0424,152.0424,0,0,1,18.46,24.16C368.4,212.97,372.15,248.28,362.6,283.11Z"/><path class="cls-14" d="M235.45,297.3366c-.6713-12.944-2.9452,108.4379-113.455,83.7419"/><path class="cls-11" d="M83,503.39v1.48c-.87.2-1.73.38-2.59.57Z"/><polygon class="cls-15" points="505 455.06 505 687.9 473.21 712.95 463.84 720.33 426.57 749.69 416.98 757.25 325.17 829.59 295.6 792.06 290.61 785.73 213.53 687.9 193.05 661.89 153.24 611.36 147.56 604.16 127.08 578.16 83 522.21 83 503.39 362.6 283.11 366.87 279.74 386.49 304.65 406.98 330.65 452.1 387.91 472.59 413.92 505 455.06"/><polygon class="cls-16" points="479.67 641.66 505 621.7 505 663.85 499.08 668.51 414.92 734.82 313.7 814.57 295.8 791.86 293.21 788.57 300.49 782.83 393.65 709.43 479.67 641.66"/><polygon class="cls-16" points="448.8 600.9 505 556.63 505 598.77 468.15 627.81 384.08 694.04 282.27 774.25 261.79 748.25 364.02 667.7 448.8 600.9"/><polygon class="cls-16" points="413.88 556.94 505 485.15 505 527.28 433.56 583.57 349.2 650.04 247.51 730.16 227.03 704.16 327.36 625.11 413.88 556.94"/><polygon class="cls-16" points="505 455.06 505 458.25 399.8 541.14 316.82 606.51 213.53 687.9 193.04 661.9 193.05 661.89 294.46 581.99 378.78 515.56 486.06 431.03 505 455.06"/><rect class="cls-16" x="129.3486" y="499.7648" width="373.0414" height="33.1031" transform="translate(-251.7768 306.2356) rotate(-38.2337)"/><rect class="cls-16" x="97.0342" y="459.3929" width="373.0414" height="33.1031" transform="translate(-233.7235 277.5772) rotate(-38.2337)"/><rect class="cls-16" x="63.9955" y="416.2989" width="373.0414" height="33.1031" transform="translate(-214.1409 247.8865) rotate(-38.2337)"/><path class="cls-17" d="M424.9334,604.821c4.673,13.0787-9.1831,18.7568-22.2,21.3164-8.2773,1.6276-14.173,13.5694-20.3184,22.0433-10.5814,14.5909-27.9243-31.3535-40.0324-48.6018-8.4862-12.0889-4.2138-29.926,9.07-34.7753,4.9161-1.7946,10.3674-3.3282,15.1856-5.6313,3.37-1.6108,7.4148-1.3068,11.5013-.5976,13.47,2.3378,20.8933,8.33,27.0525,18.3566C410.8016,586.0636,420.533,592.5054,424.9334,604.821Z"/><path class="cls-18" d="M365.0279,573.5886c.2554-5.994-3.7686-11.0262-8.9968-11.2511"/><path class="cls-19" d="M400.385,625.62c1.2885-9.0081-4.9735-11.8085-9.9857-16.2222-5.3251-3.9746-9.4-9.5626-10.9707-14.0059"/><path class="cls-20" d="M505,708.8365v11.39l-19.4243,15.2214-.8033.6288-20.2333,15.8561a3.4767,3.4767,0,0,1-4.86-.5655l-.3318-.4154-3.0618-3.837L453.8,743.999l-1.2341-1.6271-3.5159-4.6333-6.8627-6.601-2.0024-3.4158-4.5694-7.8011-1.0011-1.0789-6.0247-6.4625-5.652-8.7358-.3086-.4789-4.9186-4.42-3.3994-5.291-.39-.6059-10.2913-9.9014-2.0316-3.8774-4.93-9.4225-1.205-1.31-13.0155-14.1481-1.8394-2.0023c-1.1816-1.4886-.5239-3.11.9721-4.2871l15.6058-19.9354,2.2992-.8713,4.5462-1.7252.0116-.0058h.0058l.0175-.0058,10.6754-4.039,8.1143-5.17a19.52,19.52,0,0,1,1.333-2.7292c3.19-5.268,5.8617-.75,7.34,2.4407.2328.5078.4365.9809.6112,1.3733l4.9186,4.42,6.7057,8.9666.9662,1.2867,6.8337,7.1145.3958.7155,4.2667,7.8068,7.1889,7.5587.6111.6463,7.8,8.1991.46,1.1541,3.1374,7.8241,5.8908,5.51,2.2351,2.1926,1.6823,1.65,4.3424,5.4123.681.9289,11.2984,15.4926Z"/><path class="cls-20" d="M505,688v79.02c-7.9794-2.7355-8.36-13.1579-14.7419-22.4039-1.2818-1.8511-3.6226-3.4651-6.1492-5.17H484.1c-4.0781-2.7629-8.6017-5.772-9.8-10.477a9.3148,9.3148,0,0,1-.2973-2.2522,11.9487,11.9487,0,0,1,.0558-1.386,49.5058,49.5058,0,0,1,1.412-7.614C479.5943,702.4435,490.8806,690.7629,505,688Z"/><path class="cls-20" d="M422.43,756.6381c-1.3422,21.739,14.2394,40.3911,34.8024,41.6606s38.3207-15.3242,39.6629-37.0632c.7047-11.4151-4.8745-16.9031-11.7733-24.5462-6.2394-6.9124-13.2638-16.5116-23.0292-17.1145C441.53,718.3053,423.7723,734.899,422.43,756.6381Z"/><path class="cls-14" d="M225.3263,295.5435l27.5619,1.7016"/><path class="cls-14" d="M123.42,370.4678c-1.0315,16.7088-2.2639,30.2047-2.7554,30.1744"/><circle class="cls-21" cx="487" cy="170.9412" r="7"/><circle class="cls-21" cx="487" cy="186.5882" r="7"/><circle class="cls-21" cx="487" cy="203.0588" r="7"/><path class="cls-21" d="M275.55,832.0684a14.6651,14.6651,0,0,1-6.0508,1.0878c-6.46,0-11.3213-4.0791-11.3213-11.5917,0-7.1739,4.8614-12.0352,11.9668-12.0352a12.2794,12.2794,0,0,1,5.44,1.0195l-.7139,2.4141a10.7719,10.7719,0,0,0-4.623-.9522c-5.3721,0-8.9414,3.4346-8.9414,9.4512,0,5.6094,3.2295,9.2139,8.8047,9.2139a11.8412,11.8412,0,0,0,4.8281-.9531Z"/><path class="cls-21" d="M282.2148,809.9033V819.49h11.0831v-9.5869H296.29v22.9131h-2.9921V822.0742H282.2148v10.7422h-2.957V809.9033Z"/><path class="cls-21" d="M305.1309,825.6094l-2.38,7.207h-3.06l7.7852-22.9131h3.57l7.8193,22.9131h-3.1621l-2.4482-7.207Zm7.5136-2.3115L310.4,816.7031c-.51-1.4961-.85-2.8564-1.19-4.1816h-.0683c-.34,1.3594-.7139,2.7529-1.1553,4.1465l-2.2441,6.63Z"/><path class="cls-21" d="M323.9668,812.4189h-6.97v-2.5156h16.9648v2.5156H326.958v20.3975h-2.9912Z"/><path class="cls-21" d="M312.1782,794.5213,302.6569,785l-3.1781-3.1782L297,779.3431l-2.4788,2.4787L291.3431,785l-9.5213,9.5213a3.02,3.02,0,0,0,0,4.2711l1.3857,1.3858a3.02,3.02,0,0,0,4.2713,0L297,790.6569l9.5212,9.5213a3.02,3.02,0,0,0,4.2713,0l1.3857-1.3858A3.02,3.02,0,0,0,312.1782,794.5213Z"/><rect class="cls-22" x="82" y="674" width="423" height="34.4246"/><path class="cls-16" d="M228.74,682.0781v7.8233h9.044v-7.8233h2.44v18.6973h-2.44V692.01H228.74v8.7656h-2.4131V682.0781Z"/><path class="cls-16" d="M245.5215,687.35l2.6357,7.5449a34.3424,34.3424,0,0,1,1.0821,3.4405h.083c.3056-1.11.6933-2.22,1.1377-3.4405l2.6074-7.5449h2.5517l-5.27,13.4258h-2.33L242.9141,687.35Z"/><path class="cls-16" d="M265.2461,700.7754l-.1943-1.6914h-.084a5.0017,5.0017,0,0,1-4.1055,1.9971,3.8257,3.8257,0,0,1-4.1055-3.8565c0-3.2451,2.8848-5.02,8.0723-4.9922v-.2773a2.7674,2.7674,0,0,0-3.0508-3.1074,6.6927,6.6927,0,0,0-3.4951.998l-.5557-1.6084a8.3317,8.3317,0,0,1,4.4112-1.1924c4.1054,0,5.1045,2.8008,5.1045,5.4922v5.0215a18.943,18.943,0,0,0,.2216,3.2168Zm-.3613-6.8516c-2.6631-.0547-5.6866.416-5.6866,3.0235a2.16,2.16,0,0,0,2.3028,2.33,3.34,3.34,0,0,0,3.2451-2.2461,2.5581,2.5581,0,0,0,.1387-.7773Z"/><path class="cls-16" d="M282.7764,681.08v16.2285c0,1.1924.0283,2.5518.1113,3.4668h-2.1914l-.1113-2.33H280.53a4.9668,4.9668,0,0,1-4.5772,2.6358c-3.2461,0-5.7431-2.7461-5.7431-6.8243-.0274-4.4658,2.747-7.2119,6.0205-7.2119a4.4884,4.4884,0,0,1,4.05,2.0528h.0556V681.08Zm-2.4405,11.7344a4.3266,4.3266,0,0,0-.1113-1.0264,3.59,3.59,0,0,0-3.5234-2.8291c-2.5235,0-4.0215,2.2187-4.0215,5.1875,0,2.7178,1.331,4.9648,3.9668,4.9648a3.6691,3.6691,0,0,0,3.5781-2.9121,4.2591,4.2591,0,0,0,.1113-1.0547Z"/><path class="cls-16" d="M292.707,681.08h2.44v19.6953h-2.44Z"/><path class="cls-16" d="M306.6875,700.7754l-.1943-1.6914h-.084a5.0017,5.0017,0,0,1-4.1055,1.9971,3.8257,3.8257,0,0,1-4.1055-3.8565c0-3.2451,2.8848-5.02,8.0723-4.9922v-.2773a2.7674,2.7674,0,0,0-3.0508-3.1074,6.6927,6.6927,0,0,0-3.4951.998l-.5557-1.6084a8.3317,8.3317,0,0,1,4.4112-1.1924c4.1054,0,5.1045,2.8008,5.1045,5.4922v5.0215a18.943,18.943,0,0,0,.2216,3.2168Zm-.3613-6.8516c-2.6631-.0547-5.6866.416-5.6866,3.0235a2.16,2.16,0,0,0,2.3028,2.33,3.34,3.34,0,0,0,3.2451-2.2461,2.5581,2.5581,0,0,0,.1387-.7773Z"/><path class="cls-16" d="M313.3438,687.35l2.6357,7.5449a34.3407,34.3407,0,0,1,1.082,3.4405h.083c.3057-1.11.6934-2.22,1.1377-3.4405L320.89,687.35h2.5518l-5.27,13.4258h-2.33L310.7363,687.35Z"/><path class="cls-16" d="M326.8262,694.5059c.0547,3.3017,2.1631,4.6611,4.6045,4.6611a8.8338,8.8338,0,0,0,3.7168-.6934l.417,1.7471a10.8762,10.8762,0,0,1-4.4668.832c-4.1329,0-6.6026-2.7177-6.6026-6.7675s2.3858-7.24,6.2979-7.24c4.3828,0,5.5478,3.8555,5.5478,6.3242a9.2533,9.2533,0,0,1-.083,1.1368Zm7.1562-1.7471c.0283-1.5537-.6377-3.9668-3.3838-3.9668-2.4687,0-3.5507,2.2744-3.7451,3.9668Z"/><path class="cls-16" d="M339.3643,691.5381c0-1.5811-.0284-2.94-.1114-4.1885h2.1358l.084,2.6348h.11a4.0285,4.0285,0,0,1,3.7178-2.94,2.6786,2.6786,0,0,1,.6933.0821V689.43a3.7189,3.7189,0,0,0-.832-.083,3.4231,3.4231,0,0,0-3.2734,3.1347,6.8527,6.8527,0,0,0-.1114,1.1377v7.1563h-2.413Z"/><path class="cls-16" d="M365.91,681.08v16.2285c0,1.1924.0283,2.5518.1113,3.4668H363.83l-.1113-2.33h-.0547a4.9668,4.9668,0,0,1-4.5772,2.6358c-3.2461,0-5.7431-2.7461-5.7431-6.8243-.0274-4.4658,2.747-7.2119,6.0205-7.2119a4.4884,4.4884,0,0,1,4.05,2.0528h.0556V681.08Zm-2.44,11.7344a4.3266,4.3266,0,0,0-.1113-1.0264,3.59,3.59,0,0,0-3.5225-2.8291c-2.5244,0-4.0224,2.2187-4.0224,5.1875,0,2.7178,1.331,4.9648,3.9668,4.9648a3.6691,3.6691,0,0,0,3.5781-2.9121,4.2591,4.2591,0,0,0,.1113-1.0547Z"/><path class="cls-16" d="M381.1943,697.1143c0,1.3867.0284,2.6074.1114,3.6611h-2.1641l-.1387-2.1914h-.0556a5.0512,5.0512,0,0,1-4.4385,2.4971c-2.1084,0-4.6328-1.1651-4.6328-5.8809V687.35h2.4414v7.4346c0,2.5517.7773,4.2724,2.9961,4.2724a3.53,3.53,0,0,0,3.2177-2.22,3.5706,3.5706,0,0,0,.2217-1.249V687.35h2.4414Z"/><path class="cls-16" d="M387.13,695.4775l-.0557-.7216a6.3666,6.3666,0,0,1,1.7207-4.7989c1.2481-1.4707,1.9414-2.5527,1.9414-3.8008,0-1.414-.8877-2.3574-2.6347-2.3847a4.9321,4.9321,0,0,0-2.8028.8594l-.665-1.7481a7.2687,7.2687,0,0,1,3.9668-1.1094c3.19,0,4.6328,1.97,4.6328,4.0782,0,1.8867-1.0547,3.2461-2.3857,4.8261a5.479,5.479,0,0,0-1.5811,4.0782l.0273.7216Zm-.61,3.8838a1.6405,1.6405,0,0,1,1.6651-1.748,1.736,1.736,0,1,1-1.6651,1.748Z"/><rect class="cls-23" x="420.2361" y="165.9511" width="41.2132" height="41.2132"/><path class="cls-16" d="M442.5869,194.8677v-4.91H434.209v-1.6089l8.0449-11.5122h2.6348v11.2071h2.5244v1.914h-2.5244v4.91Zm0-6.8242v-6.02q0-1.415.083-2.83h-.083c-.5547,1.0542-.999,1.8311-1.498,2.6631l-4.4112,6.1309v.0552Z"/></g></svg>
