<svg xmlns="http://www.w3.org/2000/svg" xmlns:xlink="http://www.w3.org/1999/xlink" width="588" height="1080" viewBox="0 0 588 1080"><defs><style>.cls-1{fill:gray;}.cls-2{fill:url(#radial-gradient);}.cls-3{fill:#999;}.cls-4{fill:url(#radial-gradient-2);}.cls-5{fill:#4d4d4d;}.cls-6{fill:url(#radial-gradient-3);}.cls-7{fill:url(#radial-gradient-4);}.cls-8{fill:url(#radial-gradient-5);}.cls-9{fill:url(#radial-gradient-6);}.cls-10,.cls-12,.cls-13,.cls-21{fill:none;}.cls-11{fill:#29abe2;}.cls-12,.cls-13{stroke:#a67c52;}.cls-12,.cls-13,.cls-21{stroke-miterlimit:10;}.cls-12{stroke-width:0.75px;}.cls-14{fill:#f4aaad;}.cls-15{fill:#0071bc;}.cls-16{fill:#ffcda5;}.cls-17{fill:#f1ac97;}.cls-18{fill:#ffbca5;}.cls-19{fill:#ee9f83;}.cls-19,.cls-25{opacity:0.73;}.cls-20{fill:#ffbc94;}.cls-21{stroke:#f4aaad;stroke-width:2px;}.cls-22{opacity:0.63;}.cls-23{fill:#998675;}.cls-24{fill:#e6e6e6;}.cls-25,.cls-27{fill:#bababa;}.cls-26{fill:#fff;}.cls-28{fill:url(#radial-gradient-7);}.cls-29{fill:#fbb03b;}.cls-30{fill:#754c24;}</style><radialGradient id="radial-gradient" cx="292.5" cy="541.5" r="376.4845" gradientTransform="translate(0 -324.32) scale(1 1.5989)" gradientUnits="userSpaceOnUse"><stop offset="0" stop-color="#fff"/><stop offset="0.2473" stop-color="#f8f8f8"/><stop offset="0.4249" stop-color="#d8d8d8"/><stop offset="0.813" stop-color="#858585"/><stop offset="0.9987" stop-color="#5c5c5c"/></radialGradient><radialGradient id="radial-gradient-2" r="368.7645" gradientTransform="translate(0 -337.312) scale(1 1.6229)" xlink:href="#radial-gradient"/><radialGradient id="radial-gradient-3" cx="293" cy="926" r="46" gradientTransform="matrix(1, 0, 0, 1, 0, 0)" xlink:href="#radial-gradient"/><radialGradient id="radial-gradient-4" cx="219" cy="134.2349" r="8.1845" gradientTransform="translate(0 -6.1225) scale(1 1.0456)" xlink:href="#radial-gradient"/><radialGradient id="radial-gradient-5" cx="293" cy="109.1402" r="8.1845" gradientTransform="translate(0 -4.9779) scale(1 1.0456)" xlink:href="#radial-gradient"/><radialGradient id="radial-gradient-6" cx="293" cy="926" r="35" gradientTransform="matrix(1, 0, 0, 1, 0, 0)" xlink:href="#radial-gradient"/><radialGradient id="radial-gradient-7" cx="412.5" cy="520" r="14.3398" gradientUnits="userSpaceOnUse"><stop offset="0" stop-color="#fff"/><stop offset="0.1746" stop-color="#fffdfc"/><stop offset="0.3124" stop-color="#fff9f2"/><stop offset="0.4376" stop-color="#fff1e1"/><stop offset="0.5553" stop-color="#ffe5ca"/><stop offset="0.6678" stop-color="#ffd7ab"/><stop offset="0.7764" stop-color="#ffc586"/><stop offset="0.8819" stop-color="#ffb05a"/><stop offset="0.9824" stop-color="#ff9828"/><stop offset="1" stop-color="#ff931e"/></radialGradient></defs><title>tissemand</title><g id="iphonebund"><rect class="cls-1" x="35.8702" y="75" width="513.2595" height="933" rx="41.256"/><path class="cls-2" d="M507.8738,76A40.3017,40.3017,0,0,1,548.13,116.256V966.744A40.3017,40.3017,0,0,1,507.8738,1007H77.1262A40.3017,40.3017,0,0,1,36.87,966.744V116.256A40.3017,40.3017,0,0,1,77.1262,76H507.8738m0-1H77.1262A41.3773,41.3773,0,0,0,35.87,116.256V966.744A41.3773,41.3773,0,0,0,77.1262,1008H507.8738A41.3773,41.3773,0,0,0,549.13,966.744V116.256A41.3773,41.3773,0,0,0,507.8738,75Z"/><rect class="cls-3" x="44" y="83" width="497" height="917" rx="35.2253"/><path class="cls-4" d="M505.7747,84A34.2641,34.2641,0,0,1,540,118.2253V964.7747A34.2641,34.2641,0,0,1,505.7747,999H79.2253A34.2641,34.2641,0,0,1,45,964.7747V118.2253A34.2641,34.2641,0,0,1,79.2253,84H505.7747m0-1H79.2253A35.3288,35.3288,0,0,0,44,118.2253V964.7747A35.3287,35.3287,0,0,0,79.2253,1000H505.7747A35.3287,35.3287,0,0,0,541,964.7747V118.2253A35.3288,35.3288,0,0,0,505.7747,83Z"/><circle class="cls-5" cx="293" cy="926" r="46"/><path class="cls-6" d="M293,881a45,45,0,1,1-45,45,45.051,45.051,0,0,1,45-45m0-1a46,46,0,1,0,46,46,46,46,0,0,0-46-46Z"/><rect class="cls-5" x="247" y="125.87" width="92" height="16.7298" rx="8"/><rect class="cls-5" x="211" y="125.87" width="16" height="16.7298" rx="8"/><path class="cls-7" d="M219,126.87a7.0079,7.0079,0,0,1,7,7v.73a7,7,0,0,1-14,0v-.73a7.0079,7.0079,0,0,1,7-7m0-1a8.0236,8.0236,0,0,0-8,8v.73a8,8,0,0,0,16,0v-.73a8.0236,8.0236,0,0,0-8-8Z"/><rect class="cls-5" x="285" y="100.7754" width="16" height="16.7298" rx="8"/><path class="cls-8" d="M293,101.7754a7.0079,7.0079,0,0,1,7,7v.73a7,7,0,0,1-14,0v-.73a7.0079,7.0079,0,0,1,7-7m0-1a8.0236,8.0236,0,0,0-8,8v.73a8,8,0,0,0,16,0v-.73a8.0236,8.0236,0,0,0-8-8Z"/><circle class="cls-3" cx="293" cy="926" r="35"/><path class="cls-9" d="M293,892a34,34,0,1,1-34,34,34.0385,34.0385,0,0,1,34-34m0-1a35,35,0,1,0,35,35,35,35,0,0,0-35-35Z"/><path class="cls-10" d="M431.041,189.6631h2.4131v16.6723h7.9893v2.025H431.041Z"/><path class="cls-10" d="M455.8135,201.5361c0,4.9659-3.44,7.1294-6.6856,7.1294-3.6347,0-6.4365-2.6631-6.4365-6.9072,0-4.4941,2.9414-7.1294,6.6582-7.1294C453.2051,194.6289,455.8135,197.4307,455.8135,201.5361Zm-10.6524.1387c0,2.94,1.6914,5.16,4.0772,5.16,2.33,0,4.0781-2.1914,4.0781-5.2149,0-2.2749-1.1377-5.16-4.0225-5.16S445.1611,199.1226,445.1611,201.6748Z"/></g><g id="snap_personer" data-name="snap personer"><path class="cls-11" d="M85,520.39v1.48c-.87.2-1.73.38-2.59.57Z"/><path class="cls-12" d="M367.0279,590.5886c.2554-5.994-3.7686-11.0262-8.9968-11.2511"/><path class="cls-13" d="M402.3853,642.62c1.2878-9.0075-4.9734-11.8081-9.9852-16.2221-5.3256-3.975-9.4008-9.5632-10.9716-14.0059"/></g><g id="Layer_5" data-name="Layer 5"><path class="cls-14" d="M568.57,592.0406a1.5009,1.5009,0,0,0,0-3,1.5009,1.5009,0,0,0,0,3Z"/><path class="cls-15" d="M504.21,860.99l-35.35.02-140.22.09-120.99.07-125.44.08-.06-91.43-.05-92.35-.01-8.31L81.9,343.51l-.02-26.03-.09-150.35H82.8l260.58-.16,96.76-.06,63.65-.04.02,34.42v.01Z"/><path class="cls-16" d="M503.81,201.29v.01c-2.7152,10.67-5.9615,22.54-9.8087,35.77-32.9624,113.2-44.7949,100.62-54.7537,128.7a22.94,22.94,0,0,1-7.314,10.69c-7.9051,6.18-18.1144,4.36-19.3567,4.12-7.3641-1.43-14.6479-6.26-17.7838-13.3-.6413-1.43-1.2724-3.07-1.8634-4.72-16.241-11.89-36.83-33.97-47.0594-44.06-15.6-15.37-11.4617-14.55-25.2178-23.5-11.572-7.53-24.5265-12.33-27.0513-17,3.3565,25.4,4.8393,35.13,16.7116,71.58,6.3321,19.42,15.83,39.98,26.37,74.42,10.41,34.02,12.4937,39.44,25.5986,86.77,8.4861,30.65,12.8043,36.81,19.2966,65.06,1.1922,5.2,2.2643,10.24,3.196,15.07,1.1423,5.91,2.1139,11.53,2.9255,16.8,1.543,9.94,2.5449,18.67,3.2263,25.87v.01c.11,1.25.23,2.46.3305,3.62a44.674,44.674,0,0,1-7.3139,7.69c-18.9258,15.9-55.1647,24.09-97.5048,28.63-.4912.06-.9818.11-1.473.16-3.0957.33-6.2218.63-9.3777.92-2.5348.23-5.08.45-7.6546.66-.5809.05-1.1722.1-1.7631.14-8.6566.7-17.4934,1.27-26.41,1.76-.14.01-.2906.01-.4408.02-.13.01-.27.02-.4109.02q-4.4634.255-8.9469.46c-3.1158.15-6.2419.29-9.3576.42-50.4458,2.14-101.5728,2.29-138.2926,5.93v-7.54l-.01-8.1L82.11,342.96l-.02-24.93L82,167.13l261.075-.16c10.8306,10.23,21.8916,25.55,60.004,69.54,1.4727-4.14,3.0957-8.36,4.9693-12.71,5.7911-13.47,4.1779-5.34,22.2023-38.46,3.4666-6.38,6.7127-12.54,9.7685-18.43l63.7709-.04Z"/><path class="cls-16" d="M82.152,769.8155l-.06-100.66c28.3966-22.3767,72.1352-41.5228,122.8293-51.4629,40.3854-7.924,79.1349-8.8171,110.8778-3.8259,37.5937,5.9276,65.3521,20.131,74.3443,40.7058v.01a37.0991,37.0991,0,0,1,2.6855,9.2884c8.9353,59.1246-44.9329,62.2968-120.5449,76.0117-11.5886,2.0969-23.6873,4.444-36.1456,7.2714q-8.3089,1.8951-16.3976,3.81C162.4089,764.5577,113.337,778.2569,82.152,769.8155Z"/><path class="cls-16" d="M468.86,861.01l-140.22.09c-15.58-39.5-45.1-65.76-60.59-106.47-.07-.17-.14-.35-.21-.53-1.52-4.05-2.91-8.26-4.13-12.63-.09-.31-.17-.61-.25-.92-.18-.62-.34-1.24-.5-1.87-.35-1.36-.69-2.74-1.01-4.14-.19-.83-.39-1.66-.56-2.5a36.1615,36.1615,0,0,1-.43-7.2c0-.45.01-.92.03-1.4.09-3.28.37-7.21.84-11.63a.0367.0367,0,0,1,.01-.03c.16-1.55.35-3.17.57-4.84.76-5.95,1.84-12.58,3.25-19.57.02-.1.04-.21.06-.31.07-.37.15-.73.23-1.1q.96-4.695,2.15-9.56c.09-.38.18-.76.28-1.14a243.94,243.94,0,0,1,8.33-27.16c.14-.4.29-.79.44-1.18,5.06-13.26,11.43-25.69,19.27-35.29a60.7638,60.7638,0,0,1,11.99-11.43c.26-.19.54-.38.8-.56,8.24-5.55,18.26-8.44,29.99-8.19,14.4.31,26.59,2.25,37.44,8.13.72.4,1.44.81,2.15,1.23a50.8034,50.8034,0,0,1,9.13,6.89c16.66,15.71,44.42,60.87,75.05,218.86C465.81,841.17,467.77,852.09,468.86,861.01Z"/><path class="cls-16" d="M82.2064,861.2454l-.1093-183.78c15.5608-15.5693,33.9956-24.25,53.7563-23.1619,71.1723,3.9277,91.7717,19.6755,93.6265,44.3543,1.0884,14.5294-4.321,32.1625-9.7389,52.3058-4.9293,18.3929-9.8771,38.8858-9.8639,61.0159.01,17.15-.68,33.68-2.2308,49.1913Z"/><path class="cls-17" d="M270.2869,753.1506c14.6262-.4839,24.6531-11.8662,22.3958-25.4232s-15.9441-24.1547-30.57-23.6709c-7.68.2541-10.4805,4.255-14.5117,9.2561-3.6459,4.5229-8.9561,9.7289-7.8841,16.1671C241.974,743.0367,255.6608,753.6345,270.2869,753.1506Z"/><path class="cls-17" d="M233.4849,744.4121c3.2612-5.9872-4.82-10.5733-5.9959-14.6177-2.2132-7.6116,1.0078-14.66-6.4257-17.2709-13.2151-4.6408-29.08,2.1119-35.4344,15.0826s-.7934,27.2477,12.4216,31.8886S226.54,757.1628,233.4849,744.4121Z"/><path class="cls-18" d="M232.966,748.7885c5.0035-5.121-1.446-11.8839-1.35-16.25.18-8.2178,5.47-14.4129-.955-19.0232-11.4224-8.1962-28.91-5.6923-39.0592,5.5926s-9.1174,27.0775,2.305,35.2737S222.31,759.6946,232.966,748.7885Z"/><path class="cls-18" d="M284.8206,743.9154c10.31-11.2433,9.4215-27.13-1.9841-35.4837s-29.0093-6.0115-39.3191,5.2318c-5.4137,5.9038-4.5737,10.949-3.9107,17.65.6,6.0609.4782,13.8659,5.8947,17.8332C256.907,757.501,274.5108,755.1587,284.8206,743.9154Z"/><path class="cls-19" d="M262.3985,734.4667c-2.2437,11.5405-4.4874,15.0027-8.8649,16.4231-6.6454,2.1564-17.8844.5243-26.4814-1.8507-8.6167-2.38-14.6778-4.8176-15.1363-8.8022-.9279-8.0634,2.0117-13.7279,4.4873-23.081.4894-1.8487,4.4181-6.2512,6.731-9.2324,4.3554-5.6133,3.93-8.2724,6.0809-9.0729,5.3528-1.9918,13.2837,11.6685,17.1436,10.48,1.4157-.4361,2.4069-2.9976,2.8667-9.3539.9715-13.4257,15.8043,4.1746,19.9041,3.3311,5.6092-1.154,1.4387,8.0862-2.2437,15.0027-.2955.5552-.7066,7.0555-1.1218,8.0783C263.9257,730.9179,262.7835,732.4866,262.3985,734.4667Z"/><path class="cls-20" d="M244.2462,753.9869c-5.4853-1.4686-4.4618-1.24-9.9471-2.7088s-5.3431-2.1266-10.7144-3.9746c-1.7795-.6122-8.7971-3.0117-10.5685-6.333a8.3977,8.3977,0,0,1-.3017-5.462c.6259-2.7279.9644-5.0685,1.4989-6.5049.4453-1.1969,1.6993-4.82,1.6993-4.82l1.0052-6.1548,3.8677-7.5172,1.4948-6.5607,2.9427-6.4988.3284-4.3721,1.8921-4.1442,1.7154-9.17,4.9391-8.4325,3.5506-15.07c.379-1.1771,1.6228-1.3351,2.9554-.8569l18.4539,2.427,11.3987,7.9562,6.5111,2.9835c8.0852-1.0093,4.613,3.8522,3.2971,5.73l-.5363,4.31-2.83,7.8342-1.3232,6.3062-3.0808,5.5208-1.5577,7.2287-1.5575,7.2289-3.8,5.0523-.7706,5.2323-.62,3.5388-1.3732,4.3026-7.272,19.2924A25.5548,25.5548,0,0,1,244.2462,753.9869Z"/><path class="cls-19" d="M283.7624,677.1475c-4.0929,7.5573-15.7275,2.9836-22.6232-3.7718-4.385-4.2956-13.43-4.1915-20.6987-4.9779-14.5981-1.5794,2.9729-21.1,6.2316-33.84,1.2863-5.029,14.6238-12.6738,24.2124-8.0416,3.4144,1.6495,7.9718,6.4936,11.27,8.5759,2.3071,1.4563,3.8556,5.897,5.1877,8.4843,4.3908,8.5284-.0983,6.308-.8209,13.6476C285.9272,663.263,287.7137,669.8516,283.7624,677.1475Z"/><path class="cls-20" d="M282.68,676.2883c-5.4654,6.5334-15.6527,1.0337-22.433-5.5659-4.3115-4.1966-13.2929-4-20.5016-4.7016-14.478-1.4086,3.1579-20.867,6.5178-33.4812,1.3263-4.9794,14.6429-12.6667,24.1174-8.1916,3.3739,1.5935,7.8512,6.33,11.1058,8.3521,2.2764,1.4143,3.77,5.7834,5.0676,8.3245,4.276,8.3765,2.5385,8.5717,1.7493,15.8271C287.6541,662.8211,288.233,669.65,282.68,676.2883Z"/><path class="cls-19" d="M257.9111,699.8452c-6.68,3.6693-26.5595-3.6072-30.2895-10.3865,0,0,0-1.154,1.1218,0,5.2093,5.3589,17.9494,9.2324,27.2422,9.375C257.6682,698.86,259.3955,699.03,257.9111,699.8452Z"/><path class="cls-19" d="M274.5092,627.6129c-6.34.8338-12.7716,14.682-10.2783,20.6622,0,0,.7887.7209.6436-.525-.6739-5.7852,3.9876-14.1666,9.2214-18.6043C275.0435,628.3423,275.9181,627.4276,274.5092,627.6129Z"/><path class="cls-19" d="M235.2526,710.9145c3.9478,6.6475,24.6686,10.7483,31.2256,6.8518,0,0,.5689-.9946-.9669-.5853-7.1316,1.9006-20.0212-1.408-28.1005-6.1336C235.948,710.1917,234.3753,709.4373,235.2526,710.9145Z"/><path class="cls-21" d="M203.1228,555.2793c3.7329-6.9635,10.48-6.8793,15.07.1882,3.6721,5.6539,4.228,14.7534,1.2417,20.3243-2.389,4.4566-6.7072,4.4027-9.6449-.12-2.35-3.6185-2.706-9.4422-.7947-13.0075,1.529-2.8523,4.2926-2.8178,6.1727.0771a9.0317,9.0317,0,0,1,.5086,8.3248c-.9785,1.8254-2.7472,1.8034-3.9505-.0493a5.78,5.78,0,0,1-.3255-5.3279c.6262-1.1683,1.7582-1.1542,2.5283.0315a3.7,3.7,0,0,1,.2084,3.41"/><circle class="cls-14" cx="237.5" cy="305.5" r="14.5"/><circle class="cls-20" cx="237.5" cy="305.5" r="5.5"/><path class="cls-14" d="M82.89,318.03a11.0673,11.0673,0,0,0-1.01-.55l.02,26.03c.34-.17.68-.35,1.01-.55a14.492,14.492,0,0,0-.02-24.93Z"/><g class="cls-22"><path class="cls-23" d="M174.8132,704.8643a13.84,13.84,0,0,0-5.2866,12.3007c.0906.9526,1.5915.962,1.5,0a12.4816,12.4816,0,0,1,4.8473-11.24c.76-.5935-.3082-1.6482-1.0607-1.0606Z"/><path class="cls-23" d="M175.0216,763.3562v7.8452a.75.75,0,0,0,1.5,0v-7.8452a.75.75,0,0,0-1.5,0Z"/><path class="cls-23" d="M138.418,747.2283a25.9591,25.9591,0,0,0-3.3477,17.179c.1367.9518,1.5823.547,1.4464-.3987a24.2908,24.2908,0,0,1,3.1965-16.0233.7505.7505,0,0,0-1.2952-.757Z"/><path class="cls-23" d="M124.7474,719.2344a16.8825,16.8825,0,0,0-2.407,9.2518c.0283.9631,1.5285.9672,1.5,0a15.37,15.37,0,0,1,2.2022-8.4948.7505.7505,0,0,0-1.2952-.757Z"/><path class="cls-23" d="M101.2659,742.1743A16.4582,16.4582,0,0,0,95,759.5908a.7506.7506,0,0,0,1.4464-.3988A14.8756,14.8756,0,0,1,102.023,743.47c.7674-.568.02-1.87-.7571-1.2952Z"/><path class="cls-23" d="M108.0539,703.66a120.3709,120.3709,0,0,1-2.4237,15.0134c-.213.94,1.2328,1.3413,1.4464.3987a123.581,123.581,0,0,0,2.4773-15.4121c.093-.96-1.4076-.9538-1.5,0Z"/><path class="cls-23" d="M156.4171,733.7316a116.8445,116.8445,0,0,0-.2659,16.1211c.05.96,1.5507.9663,1.5,0a116.8437,116.8437,0,0,1,.2659-16.1211c.0824-.9617-1.4181-.9562-1.5,0Z"/><path class="cls-23" d="M110.746,793.8672c-.5674,5.66-.837,11.6531,3.0362,16.2559.6223.74,1.6787-.3262,1.0607-1.0607-3.5786-4.2526-3.1155-10.0217-2.5969-15.1952.0962-.96-1.4045-.953-1.5,0Z"/><path class="cls-23" d="M144.6456,790.6343a21.1394,21.1394,0,0,0,1.4772,11.9974c.38.8844,1.6724.1212,1.2952-.7571a19.31,19.31,0,0,1-1.326-10.8415c.1538-.9443-1.2914-1.3506-1.4464-.3988Z"/><path class="cls-23" d="M190.33,788.007a29.0154,29.0154,0,0,0-.6662,11.1144c.1256.9429,1.6273.9554,1.5,0a27.9321,27.9321,0,0,1,.6126-10.7156.7506.7506,0,0,0-1.4464-.3988Z"/><path class="cls-23" d="M205.069,823.5056l1.46,10.8756c.1265.9427,1.6282.9552,1.5,0l-1.46-10.8756c-.1265-.9426-1.6282-.9551-1.5,0Z"/><path class="cls-23" d="M210.0846,789.1868a13.6936,13.6936,0,0,1,3.32,9.474.75.75,0,0,0,1.5,0,15.2912,15.2912,0,0,0-3.7588-10.5347c-.629-.7343-1.6858.3309-1.0607,1.0607Z"/><path class="cls-23" d="M176.8517,809.1664a25.2778,25.2778,0,0,0-3.9873,14.3349.75.75,0,0,0,1.5,0,23.7626,23.7626,0,0,1,3.7825-13.5778c.52-.8171-.7782-1.57-1.2952-.7571Z"/><path class="cls-23" d="M135.6988,819.0678a20.9061,20.9061,0,0,0-3.3089,12.2745c.04.9618,1.54.9668,1.5,0a19.4743,19.4743,0,0,1,3.1041-11.5174c.5209-.8161-.7768-1.5693-1.2952-.7571Z"/><path class="cls-23" d="M95.7945,824.8629a41.3478,41.3478,0,0,0-5.7289,15.8743c-.135.9442,1.31,1.3521,1.4464.3988A40.2552,40.2552,0,0,1,97.09,825.62c.5055-.8255-.7913-1.58-1.2952-.7571Z"/><path class="cls-23" d="M113.9647,845.9437a18.8681,18.8681,0,0,0,.0327,11.7652c.2983.9136,1.7472.5226,1.4464-.3988a17.4416,17.4416,0,0,1-.0327-10.9676c.2951-.9215-1.1527-1.3161-1.4464-.3988Z"/><path class="cls-23" d="M159.64,847.0423a18.1862,18.1862,0,0,0,4.7776,11.3533c.651.7156,1.7093-.3476,1.0607-1.0607a16.508,16.508,0,0,1-4.3383-10.2926c-.0568-.9593-1.5572-.9658-1.5,0Z"/><path class="cls-23" d="M90.6046,785.6515a26.9172,26.9172,0,0,0-8.9151,11.255c-.3713.8787.92,1.6442,1.2953.7571a25.56,25.56,0,0,1,8.3769-10.7169c.7675-.568.02-1.87-.7571-1.2952Z"/><path class="cls-23" d="M158.1334,683.2241a34.8018,34.8018,0,0,0-5.7382,13.2512c-.1926.9423,1.2529,1.3453,1.4464.3987a33.7388,33.7388,0,0,1,5.587-12.8928c.5588-.7894-.7413-1.54-1.2952-.7571Z"/><path class="cls-23" d="M318.9771,687.5085a4.77,4.77,0,0,1,5.8083,2.4961c.418.87,1.7119.11,1.2952-.7571a6.2555,6.2555,0,0,0-7.5022-3.1854c-.9135.2986-.5225,1.7475.3987,1.4464Z"/><path class="cls-23" d="M314.0539,710.8952a42.9119,42.9119,0,0,1,5.8673,9.6489c.39.8809,1.6828.1185,1.2952-.7571a44.3091,44.3091,0,0,0-6.1018-9.9525c-.6069-.7509-1.6623.3162-1.0607,1.0607Z"/><path class="cls-23" d="M310.1425,739.1512,312.004,750.9c.1507.9508,1.5963.5472,1.4465-.3987l-1.8616-11.749c-.1507-.9507-1.5963-.5471-1.4464.3988Z"/><path class="cls-23" d="M294.1687,763.98c2.7829,3.69,6.4314,7.474,7.0753,12.2261.129.9522,1.5745.5467,1.4464-.3988-.6647-4.9058-4.3571-8.78-7.2265-12.5844-.5741-.7612-1.8771-.0145-1.2952.7571Z"/><path class="cls-23" d="M329.5359,782.8348a25.7827,25.7827,0,0,1,3.5985,14.9451c-.0574.9642,1.4428.9608,1.5,0a27.2943,27.2943,0,0,0-3.8033-15.7022.7506.7506,0,0,0-1.2952.7571Z"/><path class="cls-23" d="M314.6322,801.0961a22.0931,22.0931,0,0,0,1.0318,11.3361c.3284.8995,1.7785.511,1.4464-.3988a20.5951,20.5951,0,0,1-1.0318-10.5385c.1542-.9443-1.291-1.3506-1.4464-.3988Z"/><path class="cls-23" d="M337.99,822.6282a24.8214,24.8214,0,0,0,3.6888,14.2867c.5039.8216,1.8018.0689,1.2952-.757a23.3185,23.3185,0,0,1-3.484-13.53c.0439-.9651-1.4562-.9629-1.5,0Z"/><path class="cls-23" d="M342.4338,761.4769c1.7221-.6157,2.2343,1.8454,2.4484,3.0054.1748.948,1.6207.5465,1.4464-.3987a5.9617,5.9617,0,0,0-1.3673-3.2881,2.8525,2.8525,0,0,0-2.9263-.765c-.9024.3227-.5134,1.7726.3988,1.4464Z"/><path class="cls-23" d="M347.4951,713.1371a11.4884,11.4884,0,0,1,11.5158,7.2571c.3447.8907,1.7956.5036,1.4464-.3988a12.9978,12.9978,0,0,0-12.9622-8.3583c-.9583.0632-.9654,1.5636,0,1.5Z"/><path class="cls-23" d="M363.1815,690.8739a9.9381,9.9381,0,0,1,8.5838,3.3121c.6456.72,1.7035-.3433,1.0607-1.0607a11.34,11.34,0,0,0-9.6445-3.7514c-.9512.0962-.9612,1.5972,0,1.5Z"/><path class="cls-23" d="M391.8527,679.3351a13.5734,13.5734,0,0,1,5.0352,8.3848c.1711.9485,1.617.5466,1.4464-.3988a14.7791,14.7791,0,0,0-5.4209-9.0466c-.75-.5922-1.818.4623-1.0607,1.0606Z"/><path class="cls-23" d="M388.131,709.6164c-2.5182,5.972,2.7489,10.5988,7.1589,13.656.7952.5513,1.5459-.7484.7571-1.2952-3.8807-2.69-8.719-6.6274-6.47-11.9621.3744-.8881-1.0765-1.2761-1.4465-.3987Z"/><path class="cls-23" d="M413.8035,725.7857a10.4673,10.4673,0,0,1,3.0643,4.668c.2941.9154,1.7429.524,1.4464-.3988a11.95,11.95,0,0,0-3.45-5.33c-.7193-.6395-1.7839.4177-1.0606,1.0606Z"/><path class="cls-23" d="M378.71,744.9629a45.8949,45.8949,0,0,1,6.7757,21.8817c.0494.9605,1.55.9663,1.5,0a47.6248,47.6248,0,0,0-6.98-22.6387c-.5022-.8228-1.8-.07-1.2952.757Z"/><path class="cls-23" d="M375.1121,773.8184a105.3877,105.3877,0,0,0,.2513,13.5218c.0792.9552,1.58.9637,1.5,0a105.3884,105.3884,0,0,1-.2513-13.5218c.0439-.965-1.4562-.9628-1.5,0Z"/><path class="cls-23" d="M365.9715,796.4842a70.1125,70.1125,0,0,0,.7237,15.9063c.151.9507,1.5966.5471,1.4464-.3988a68.3756,68.3756,0,0,1-.67-15.5075c.0665-.9635-1.4338-.9594-1.5,0Z"/><path class="cls-23" d="M401.3235,785.8557a14.1974,14.1974,0,0,1,2.8415,10.8374c-.1379.9443,1.3072,1.3519,1.4465.3988a15.8773,15.8773,0,0,0-3.2273-12.2969c-.59-.7626-1.6442.306-1.0607,1.0607Z"/><path class="cls-23" d="M418.6174,756.7624a24.7427,24.7427,0,0,1,4.35,7.69c.3172.905,1.7669.5156,1.4464-.3988a26.8427,26.8427,0,0,0-4.7361-8.3518c-.6177-.743-1.6738.3232-1.0606,1.0607Z"/><path class="cls-23" d="M440.4049,751.2312c5.3613,1.9663,5.81,8.1494,5.9782,13.0291.0333.9626,1.5334.9671,1.5,0-.196-5.6722-.9956-12.2442-7.0794-14.4755-.9077-.3329-1.2991,1.1162-.3988,1.4464Z"/><path class="cls-23" d="M436.7907,794.5433a117.0976,117.0976,0,0,1,2.4337,20.24c.0317.9627,1.5318.9671,1.5,0a119.3186,119.3186,0,0,0-2.4873-20.6388c-.198-.9442-1.6443-.5446-1.4464.3988Z"/><path class="cls-23" d="M401.7837,816.782a14.63,14.63,0,0,0,7.2,14.8147.7506.7506,0,0,0,.7571-1.2952,13.0752,13.0752,0,0,1-6.51-13.1208c.1288-.944-1.3163-1.3524-1.4465-.3987Z"/><path class="cls-23" d="M382.49,827.8615A27.4339,27.4339,0,0,0,385.23,842.17c.4216.8682,1.7155.1085,1.2952-.7571a25.9186,25.9186,0,0,1-2.5346-13.5518c.0751-.9626-1.4253-.9577-1.5,0Z"/><path class="cls-23" d="M360.9869,851.1821l2.3186,16.9788c.13.9521,1.5755.5467,1.4464-.3988l-2.3186-16.9787c-.13-.9522-1.5756-.5468-1.4464.3987Z"/><path class="cls-23" d="M421.7072,845.73v14.3827a.75.75,0,0,0,1.5,0V845.73a.75.75,0,0,0-1.5,0Z"/><path class="cls-23" d="M449.4808,834.6467a4.6777,4.6777,0,0,1,4.3428,4.119c.0934.9519,1.5943.9616,1.5,0a6.2168,6.2168,0,0,0-5.8428-5.619c-.9647-.0509-.9619,1.4492,0,1.5Z"/><path class="cls-23" d="M342.3082,849.4226a9.5868,9.5868,0,0,0,1.0769,7.5647.7505.7505,0,0,0,1.2952-.757,8.0549,8.0549,0,0,1-.9257-6.409.7506.7506,0,0,0-1.4464-.3987Z"/><path class="cls-23" d="M456.1146,854.4468a26.0424,26.0424,0,0,0,1.33,8.0545c.3027.9117,1.7518.521,1.4464-.3988a24.72,24.72,0,0,1-1.2761-7.6557.75.75,0,0,0-1.5,0Z"/><path class="cls-23" d="M414.4774,693.6311a11.5824,11.5824,0,0,1,8.4776,8.9226c.1961.9446,1.6423.5449,1.4465-.3987a13.0663,13.0663,0,0,0-9.5253-9.97.7506.7506,0,0,0-.3988,1.4464Z"/><path class="cls-23" d="M389.2745,638.9159c3.9589-.4629,5.1554,3.9821,5.8035,6.9885.2034.9432,1.65.5441,1.4465-.3987-.7881-3.6556-2.571-8.6368-7.25-8.09-.9474.1107-.9586,1.612,0,1.5Z"/><path class="cls-23" d="M359.67,649.8672l5.7032,15.0754c.3383.8943,1.7889.5067,1.4464-.3987l-5.7032-15.0755c-.3383-.8942-1.7889-.5066-1.4464.3988Z"/><path class="cls-23" d="M122.6178,667.4689c-2.996.288-4.8456,2.6-6.62,4.8391a40.52,40.52,0,0,0-5.4112,9.1506c-.3791.8769.9128,1.6417,1.2952.7571a40.95,40.95,0,0,1,3.6105-6.6922c1.571-2.3288,4.0244-6.2565,7.1256-6.5546.9524-.0915.9619-1.5924,0-1.5Z"/><path class="cls-23" d="M87.95,657.9352a33.0766,33.0766,0,0,0-6.5436,21.2982c.0379.962,1.5381.9669,1.5,0a31.7394,31.7394,0,0,1,6.3388-20.5411c.5744-.7767-.7269-1.5256-1.2952-.7571Z"/><path class="cls-23" d="M202.3282,697.9968a13.7547,13.7547,0,0,0-8.0336,11.3221c-.0935.96,1.4071.9536,1.5,0a12.2808,12.2808,0,0,1,7.2907-10.0269c.8789-.3954.117-1.6884-.7571-1.2952Z"/><path class="cls-23" d="M185.3884,676.3529a9.6346,9.6346,0,0,0-5.1474,7.68c-.0976.9595,1.4031.9527,1.5,0a8.1045,8.1045,0,0,1,4.4045-6.3844c.8571-.445.0994-1.74-.7571-1.2952Z"/><path class="cls-23" d="M292.3258,684.3974a11.3215,11.3215,0,0,1,6.43,8.793c.12.9447,1.6212.9567,1.5,0a12.8271,12.8271,0,0,0-7.1731-10.0882c-.8659-.4164-1.6277.8766-.757,1.2952Z"/><path class="cls-23" d="M332.4744,657.736a5.9817,5.9817,0,0,1,4.3465,4.25.7506.7506,0,0,0,1.4464-.3988,7.4976,7.4976,0,0,0-5.3942-5.2976.7506.7506,0,0,0-.3987,1.4464Z"/></g><circle class="cls-24" cx="488" cy="185.9412" r="7"/><circle class="cls-24" cx="488" cy="201.5882" r="7"/><circle class="cls-24" cx="488" cy="218.0588" r="7"/><path class="cls-24" d="M271.55,843.0684a14.6651,14.6651,0,0,1-6.0508,1.0878c-6.46,0-11.3213-4.0791-11.3213-11.5917,0-7.1739,4.8614-12.0352,11.9668-12.0352a12.2794,12.2794,0,0,1,5.44,1.0195l-.7139,2.4141a10.7719,10.7719,0,0,0-4.623-.9522c-5.3721,0-8.9414,3.4346-8.9414,9.4512,0,5.6094,3.2295,9.2139,8.8047,9.2139a11.8412,11.8412,0,0,0,4.8281-.9531Z"/><path class="cls-24" d="M278.2148,820.9033V830.49h11.0831v-9.5869H292.29v22.9131h-2.9921V833.0742H278.2148v10.7422h-2.957V820.9033Z"/><path class="cls-24" d="M301.1309,836.6094l-2.38,7.207h-3.06l7.7852-22.9131h3.57l7.8193,22.9131h-3.1621l-2.4482-7.207Zm7.5136-2.3115L306.4,827.7031c-.51-1.4961-.85-2.8564-1.19-4.1816h-.0683c-.34,1.3594-.7139,2.7529-1.1553,4.1465l-2.2441,6.63Z"/><path class="cls-24" d="M319.9668,823.4189h-6.97v-2.5156h16.9648v2.5156H322.958v20.3975h-2.9912Z"/><path class="cls-24" d="M308.1782,805.5213,298.6569,796l-3.1781-3.1782L293,790.3431l-2.4788,2.4787L287.3431,796l-9.5213,9.5213a3.02,3.02,0,0,0,0,4.2711l1.3857,1.3858a3.02,3.02,0,0,0,4.2713,0L293,801.6569l9.5212,9.5213a3.02,3.02,0,0,0,4.2713,0l1.3857-1.3858A3.02,3.02,0,0,0,308.1782,805.5213Z"/><rect class="cls-25" x="81" y="501" width="423" height="34.4246"/><path class="cls-26" d="M174.7178,509.0786h2.4131v9.0156h.083c.5-.7212.999-1.3867,1.4707-1.997l5.7148-7.0186h2.9961l-6.7695,7.9341,7.2959,10.7632h-2.8574l-6.1583-9.1821-1.7753,2.0527v7.1294h-2.4131Z"/><path class="cls-26" d="M201.8193,520.9517c0,4.9658-3.44,7.1294-6.6855,7.1294-3.6348,0-6.4365-2.6631-6.4365-6.9073,0-4.4941,2.9414-7.1294,6.6582-7.1294C199.2109,514.0444,201.8193,516.8462,201.8193,520.9517Zm-10.6523.1386c0,2.9405,1.6914,5.16,4.0771,5.16,2.33,0,4.0782-2.1914,4.0782-5.2148,0-2.2749-1.1377-5.16-4.0225-5.16S191.167,518.5381,191.167,521.09Z"/><path class="cls-26" d="M204.8975,517.9834c0-1.3867-.0284-2.5244-.1114-3.6338h2.1358l.1113,2.1636h.083a4.6278,4.6278,0,0,1,4.2168-2.4688,3.9694,3.9694,0,0,1,3.8008,2.691h.0547a5.5361,5.5361,0,0,1,1.498-1.7481,4.5855,4.5855,0,0,1,2.9688-.9429c1.7754,0,4.41,1.1651,4.41,5.8252v7.9063H221.68v-7.6011c0-2.58-.9424-4.1333-2.9121-4.1333a3.1594,3.1594,0,0,0-2.8848,2.2192,4.0117,4.0117,0,0,0-.1943,1.2207v8.2945h-2.3858V519.731c0-2.1358-.9433-3.6895-2.8017-3.6895a3.6357,3.6357,0,0,0-3.2178,3.6343v8.1h-2.3857Z"/><path class="cls-26" d="M228.0322,517.9834c0-1.3867-.0283-2.5244-.1113-3.6338h2.1357l.1114,2.1636h.083a4.6277,4.6277,0,0,1,4.2168-2.4688,3.97,3.97,0,0,1,3.8008,2.691h.0546a5.5376,5.5376,0,0,1,1.4981-1.7481,4.5854,4.5854,0,0,1,2.9687-.9429c1.7754,0,4.41,1.1651,4.41,5.8252v7.9063h-2.3857v-7.6011c0-2.58-.9424-4.1333-2.9122-4.1333a3.1593,3.1593,0,0,0-2.8847,2.2192,4.0085,4.0085,0,0,0-.1944,1.2207v8.2945h-2.3857V519.731c0-2.1358-.9434-3.6895-2.8018-3.6895a3.6353,3.6353,0,0,0-3.2177,3.6343v8.1h-2.3858Z"/><path class="cls-26" d="M252.5264,521.5063c.0547,3.3013,2.1631,4.6607,4.6045,4.6607a8.8259,8.8259,0,0,0,3.7168-.6934l.4169,1.7476a10.8836,10.8836,0,0,1-4.4667.832c-4.1329,0-6.6026-2.7182-6.6026-6.7685s2.3858-7.24,6.2979-7.24c4.3828,0,5.5478,3.856,5.5478,6.3247a9.2747,9.2747,0,0,1-.083,1.1372Zm7.1562-1.7475c.0283-1.5532-.6377-3.9668-3.3838-3.9668-2.4687,0-3.5508,2.2749-3.7451,3.9668Z"/><path class="cls-26" d="M265.0645,518.5381c0-1.5811-.0284-2.94-.1114-4.1885h2.1358l.084,2.6353h.11a4.0289,4.0289,0,0,1,3.7178-2.9405,2.6542,2.6542,0,0,1,.6933.083V516.43a3.659,3.659,0,0,0-.832-.0835,3.4238,3.4238,0,0,0-3.2734,3.1347,6.8465,6.8465,0,0,0-.1114,1.1373v7.1572h-2.413Z"/><path class="cls-26" d="M291.61,508.08v16.228c0,1.1929.0283,2.5523.1113,3.4678H289.53l-.1114-2.33h-.0546a4.9666,4.9666,0,0,1-4.5772,2.6353c-3.2461,0-5.7432-2.7461-5.7432-6.8243-.0273-4.4663,2.7471-7.2124,6.0206-7.2124a4.4884,4.4884,0,0,1,4.05,2.0528h.0556V508.08ZM289.17,519.8145a4.321,4.321,0,0,0-.1113-1.0264,3.59,3.59,0,0,0-3.5234-2.83c-2.5235,0-4.0215,2.2192-4.0215,5.1875,0,2.7183,1.331,4.9653,3.9668,4.9653a3.6686,3.6686,0,0,0,3.5781-2.9126,4.2524,4.2524,0,0,0,.1113-1.0542Z"/><path class="cls-26" d="M306.8945,524.1143c0,1.3867.0284,2.6074.1114,3.6616h-2.1641l-.1387-2.1914h-.0556a5.052,5.052,0,0,1-4.4385,2.4966c-2.1084,0-4.6328-1.1651-4.6328-5.8809V514.35h2.4414v7.4346c0,2.5517.7773,4.272,2.9961,4.272a3.5287,3.5287,0,0,0,3.2177-2.2193,3.572,3.572,0,0,0,.2217-1.2485V514.35h2.4414Z"/><path class="cls-26" d="M316.4922,525.2793a6.394,6.394,0,0,0,3.2178.9707c1.7754,0,2.6074-.8877,2.6074-1.9971,0-1.165-.6934-1.8032-2.4961-2.4687-2.4141-.86-3.5508-2.1919-3.5508-3.8008,0-2.1636,1.7471-3.939,4.6318-3.939a6.7034,6.7034,0,0,1,3.3018.8321l-.61,1.7754a5.2244,5.2244,0,0,0-2.7461-.7769c-1.4434,0-2.2471.8325-2.2471,1.8311,0,1.11.8037,1.6088,2.5517,2.2749,2.33.8877,3.5235,2.0527,3.5235,4.05,0,2.3579-1.8311,4.0224-5.0215,4.0224a7.654,7.654,0,0,1-3.7725-.9155Z"/><path class="cls-26" d="M329.1689,521.5063c.0547,3.3013,2.1631,4.6607,4.6045,4.6607a8.8252,8.8252,0,0,0,3.7168-.6934l.417,1.7476a10.8838,10.8838,0,0,1-4.4668.832c-4.1328,0-6.6025-2.7182-6.6025-6.7685s2.3857-7.24,6.2978-7.24c4.3829,0,5.5479,3.856,5.5479,6.3247a9.295,9.295,0,0,1-.083,1.1372Zm7.1563-1.7475c.0283-1.5532-.6377-3.9668-3.3838-3.9668-2.4687,0-3.5508,2.2749-3.7451,3.9668Z"/><path class="cls-26" d="M341.707,517.9834c0-1.3867-.0283-2.5244-.1113-3.6338H343.76l.1386,2.2192h.0557a4.9354,4.9354,0,0,1,4.4385-2.5244c1.8584,0,4.7431,1.1094,4.7431,5.7144v8.0171h-2.4414v-7.74c0-2.1635-.8037-3.9668-3.1064-3.9668a3.5816,3.5816,0,0,0-3.44,3.6343v8.0723h-2.44Z"/><path class="cls-26" d="M358.4619,521.5063c.0547,3.3013,2.1631,4.6607,4.6045,4.6607a8.8252,8.8252,0,0,0,3.7168-.6934l.417,1.7476a10.8846,10.8846,0,0,1-4.4668.832c-4.1328,0-6.6025-2.7182-6.6025-6.7685s2.3857-7.24,6.2978-7.24c4.3828,0,5.5479,3.856,5.5479,6.3247a9.295,9.295,0,0,1-.083,1.1372Zm7.1563-1.7475c.0283-1.5532-.6377-3.9668-3.3838-3.9668-2.4688,0-3.5508,2.2749-3.7451,3.9668Z"/><path class="cls-26" d="M371,518.5381c0-1.5811-.0283-2.94-.1113-4.1885h2.1357l.084,2.6353h.11a4.0287,4.0287,0,0,1,3.7177-2.9405,2.655,2.655,0,0,1,.6934.083V516.43a3.659,3.659,0,0,0-.832-.0835,3.4239,3.4239,0,0,0-3.2735,3.1347,6.8578,6.8578,0,0,0-.1113,1.1373v7.1572H371Z"/><path class="cls-26" d="M381.1523,521.5063c.0547,3.3013,2.1631,4.6607,4.6045,4.6607a8.8252,8.8252,0,0,0,3.7168-.6934l.417,1.7476a10.8838,10.8838,0,0,1-4.4668.832c-4.1328,0-6.6025-2.7182-6.6025-6.7685s2.3857-7.24,6.2978-7.24c4.3829,0,5.5479,3.856,5.5479,6.3247a9.295,9.295,0,0,1-.083,1.1372Zm7.1563-1.7475c.0283-1.5532-.6377-3.9668-3.3838-3.9668-2.4687,0-3.5508,2.2749-3.7451,3.9668Z"/><path class="cls-26" d="M436.7422,522.4775l-.0557-.7212a6.3682,6.3682,0,0,1,1.7207-4.7993c1.2481-1.47,1.9414-2.5522,1.9414-3.8,0-1.415-.8877-2.3579-2.6357-2.3857a4.9354,4.9354,0,0,0-2.8018.86l-.665-1.7476a7.2688,7.2688,0,0,1,3.9668-1.11c3.19,0,4.6328,1.97,4.6328,4.0782,0,1.8862-1.0547,3.2456-2.3857,4.8266a5.4769,5.4769,0,0,0-1.5811,4.0781l.0273.7212Zm-.61,3.8838a1.6411,1.6411,0,0,1,1.6651-1.748,1.736,1.736,0,1,1-1.6651,1.748Z"/><rect class="cls-27" x="90.2361" y="173.9511" width="41.2132" height="41.2132"/><path class="cls-26" d="M112.5869,202.8677v-4.91H104.209v-1.6089l8.0449-11.5122h2.6348v11.2071h2.5244v1.914h-2.5244v4.91Zm0-6.8242v-6.02q0-1.415.083-2.83h-.083c-.5547,1.0542-.999,1.8311-1.498,2.6631l-4.4112,6.1309v.0552Z"/><ellipse class="cls-28" cx="412.5" cy="520" rx="14.5" ry="14.1778"/><ellipse class="cls-29" cx="412.5" cy="520" rx="13.1818" ry="12.8889"/><path class="cls-30" d="M407.223,512.7577a25.3277,25.3277,0,0,1-3.089,2.1267c-1.3487.9285-2.2628,2.8149-2.354,2.51a3.7787,3.7787,0,0,1,2.0239-3.6155C405.22,512.9523,408.1976,511.8645,407.223,512.7577Z"/><path class="cls-30" d="M423.4013,516.6669a26.8669,26.8669,0,0,1-4.008-.74c-1.75-.323-3.9273.4473-3.7553.1357a4.1734,4.1734,0,0,1,4.378-1.2641C421.7361,515.2548,424.8412,516.7255,423.4013,516.6669Z"/><ellipse class="cls-30" cx="407.6667" cy="519.3556" rx="1.2889" ry="2.5778"/><path class="cls-30" d="M417.9778,520c-1.2457,0-2.5778.6444-2.5778-.6444,0-.7119,1.3321-1.2889,2.5778-1.2889s3.2222.577,3.2222,1.2889C421.2,520.6444,419.9111,520,417.9778,520Z"/><path class="cls-30" d="M417.3333,526.4444c0,.5339-2.1976,3.2223-4.5111,3.2223s-4.5111-2.6884-4.5111-3.2223,2.52.6445,4.8333.6445S417.3333,525.9106,417.3333,526.4444Z"/></g></svg>
