<svg id="Layer_1" data-name="Layer 1" xmlns="http://www.w3.org/2000/svg" xmlns:xlink="http://www.w3.org/1999/xlink" viewBox="0 0 1920 1080"><defs><style>.cls-1{fill:#bcbfb8;}.cls-2{fill:#bbe1f5;}.cls-3{fill:#8dbc4f;}.cls-4{fill:#ffd485;}.cls-5{fill:#b4e3d7;}.cls-10,.cls-5,.cls-6,.cls-7{stroke:#000;}.cls-10,.cls-11,.cls-13,.cls-5,.cls-6,.cls-7{stroke-miterlimit:10;}.cls-6{fill:#997355;}.cls-7{fill:#3d423d;}.cls-8{fill:#797c79;}.cls-9{fill:#0a0a0a;}.cls-10{fill:#020202;}.cls-11{fill:#353835;stroke:#353835;}.cls-12{fill:#27a038;}.cls-13{fill:#b7bcb7;stroke:#2d2c2c;}.cls-14{fill:#187bbe;}.cls-15{fill:#5b4d45;}.cls-16{fill:#e73845;}.cls-17{fill:#237c2b;}.cls-18{fill:#2d2b2b;}.cls-19{fill:#824a1c;}.cls-20{fill:url(#radial-gradient);}.cls-21{fill:#efd90a;}.cls-22{fill:#fff;}</style><radialGradient id="radial-gradient" cx="679.5" cy="120.5" r="81" gradientUnits="userSpaceOnUse"><stop offset="0" stop-color="#ffba1e"/><stop offset="0.51" stop-color="#ffbc1f"/><stop offset="0.7" stop-color="#ffc323"/><stop offset="0.83" stop-color="#ffce29"/><stop offset="0.93" stop-color="#ffdf31"/><stop offset="0.96" stop-color="#ffe635"/></radialGradient></defs><title>baggrund</title><rect class="cls-1" x="638" y="-201" width="643" height="1919" transform="translate(1718 -201) rotate(90)"/><rect class="cls-2" x="4" y="4" width="839" height="451"/><polygon class="cls-3" points="482.7 454 479 799.19 1216.77 800 1326 454 482.7 454"/><polygon class="cls-3" points="1918.8 784.46 1920.9 559.41 1461.58 559.17 1485.59 785.13 1918.8 784.46"/><rect class="cls-4" x="839" width="1080" height="575"/><rect class="cls-5" x="889" y="355" width="153" height="153"/><rect class="cls-5" x="1086" y="355" width="153" height="153"/><rect class="cls-5" x="1506" y="355" width="153" height="153"/><rect class="cls-5" x="1705" y="357" width="153" height="153"/><polygon class="cls-6" points="1294.9 575 1294.5 344.5 1458.5 346.5 1458.5 575 1294.9 575"/><rect class="cls-5" x="1084" y="135" width="153" height="153"/><rect class="cls-5" x="889" y="137" width="153" height="153"/><rect class="cls-5" x="1706" y="137" width="153" height="153"/><rect class="cls-5" x="1506" y="137" width="153" height="153"/><rect class="cls-5" x="1294" y="137" width="153" height="153"/><rect class="cls-7" x="888" y="212" width="153" height="3" transform="translate(1178 -751) rotate(90)"/><rect class="cls-7" x="889" y="212" width="153" height="3" transform="translate(1931 427) rotate(180)"/><rect class="cls-7" x="1084" y="210" width="153" height="3" transform="translate(1372 -949) rotate(90)"/><rect class="cls-7" x="1083" y="212" width="153" height="3" transform="translate(2319 427) rotate(180)"/><rect class="cls-7" x="888" y="430" width="153" height="3" transform="translate(1396 -533) rotate(90)"/><rect class="cls-7" x="889" y="430" width="153" height="3" transform="translate(1931 863) rotate(180)"/><rect class="cls-7" x="1084" y="430" width="153" height="3" transform="translate(1592 -729) rotate(90)"/><rect class="cls-7" x="1085" y="430" width="153" height="3" transform="translate(2323 863) rotate(180)"/><rect class="cls-7" x="1704" y="211" width="153" height="3" transform="translate(1993 -1568) rotate(90)"/><rect class="cls-7" x="1705" y="211" width="153" height="3" transform="translate(3563 425) rotate(180)"/><rect class="cls-7" x="1705" y="431" width="153" height="3" transform="translate(2214 -1349) rotate(90)"/><rect class="cls-7" x="1706" y="432" width="153" height="3" transform="translate(3565 867) rotate(180)"/><rect class="cls-7" x="1505" y="212" width="153" height="3" transform="translate(1795 -1368) rotate(90)"/><rect class="cls-7" x="1506" y="212" width="153" height="3" transform="translate(3165 427) rotate(180)"/><rect class="cls-7" x="1506" y="430" width="153" height="3" transform="translate(2014 -1151) rotate(90)"/><rect class="cls-7" x="1507" y="430" width="153" height="3" transform="translate(3167 863) rotate(180)"/><rect class="cls-7" x="1293" y="212" width="153" height="3" transform="translate(1583 -1156) rotate(90)"/><rect class="cls-7" x="1294" y="213" width="153" height="3" transform="translate(2741 429) rotate(180)"/><circle class="cls-8" cx="1368" cy="72" r="52.5"/><rect class="cls-9" x="1364.5" y="21.5" width="6" height="17"/><rect class="cls-9" x="1364.5" y="105.5" width="6" height="17"/><rect class="cls-9" x="1323" y="64" width="6" height="17" transform="translate(1398.5 -1253.5) rotate(90)"/><rect class="cls-9" x="1407" y="64" width="6" height="17" transform="translate(1482.5 -1337.5) rotate(90)"/><circle class="cls-10" cx="1367.5" cy="72.5" r="3.5"/><rect class="cls-11" x="1364.43" y="62.43" width="35.87" height="2.95" transform="translate(153.25 699.74) rotate(-30)"/><rect class="cls-11" x="1346" y="62" width="28" height="2" transform="translate(558.65 -1037.64) rotate(51.29)"/><polygon class="cls-11" points="1351.26 52.07 1354 50 1349 49 1349 54 1351.26 52.07"/><polygon class="cls-11" points="1397.97 54.18 1399.64 57.18 1401.32 52.37 1396.37 51.68 1397.97 54.18"/><path class="cls-12" d="M1275,564.87c0-15-22.73-27.21-50.76-27.21-2.47,0-4.88.13-7.25.31-9.13-7.22-24.56-12-42.06-12-23.45,0-43.13,8.54-49,20.13-18.41-2.19-36.08,1.91-44.3,11.45-7.13,8.28-5.42,18.63,3,27.49-7.16,4.24-11.81,9.77-12.54,16-1.75,15,19.49,28.31,47.44,29.78a84.87,84.87,0,0,0,30.73-3.78c7.23.47,15,.73,23.2.73,27.52,0,51.16-2.93,61.6-7.12,20.38-5.71,34.11-16.39,34.11-28.62a18.67,18.67,0,0,0-4-11.18C1271.33,576.4,1275,570.87,1275,564.87Z"/><path class="cls-12" d="M1631.49,631.62c34.9-.65,63-13.2,62.69-28a12.12,12.12,0,0,0-.79-3.83c16.68-5.14,27.56-13.5,27.38-22.76-.23-12.4-20.25-22.44-47.22-25,4.89-9.84-4.8-19-27-22.94-19.29-3.41-43.31-2.06-63.8,2.78-9.92-3.61-22.81-5.83-37.33-5.94-34.81-.28-65.56,11.53-68.69,26.38-1.26,6,2.22,11.56,9.08,16.09a44.75,44.75,0,0,0-1.46,12.3c.27,14.55,7.3,26.93,17.14,32.27,13.47,10.54,38.39,17.33,66.8,16.8a156.71,156.71,0,0,0,25.92-2.6A127.67,127.67,0,0,0,1631.49,631.62Z"/><path class="cls-12" d="M969.07,650.29c26.61-.5,47.91-15.85,47.57-34.29a23.52,23.52,0,0,0-.64-4.76c12.68-6.25,20.9-16.55,20.69-28.06-.29-15.43-15.66-28.1-36.25-31.54,3.64-12.19-3.83-23.68-20.84-28.77-14.74-4.42-33.05-3-48.64,2.88-7.6-4.57-17.45-7.45-28.53-7.72-26.56-.66-49.91,13.75-52.17,32.19-.91,7.45,1.8,14.4,7.07,20.09a89.25,89.25,0,0,0-1,15.28c.34,18.1,5.81,33.56,13.37,40.29,10.37,13.22,29.44,21.89,51.1,21.49a74.58,74.58,0,0,0,19.75-3A63.31,63.31,0,0,0,969.07,650.29Z"/><path class="cls-12" d="M1921.59,577c.1-15-19.74-27.34-44.32-27.51-2.17,0-4.28.09-6.37.26-8-7.27-21.45-12.12-36.79-12.22-20.57-.14-37.89,8.28-43.07,19.83-16.13-2.29-31.66,1.7-38.94,11.19-6.3,8.23-4.87,18.6,2.45,27.51-6.31,4.19-10.43,9.69-11.11,15.94-1.64,15,16.89,28.43,41.39,30.06a65.83,65.83,0,0,0,27-3.59c6.34.51,13.19.82,20.34.87,24.13.16,44.88-2.62,54.06-6.75,17.92-5.59,30-16.18,30.11-28.41a20.41,20.41,0,0,0-3.44-11.21C1918.29,588.49,1921.55,583,1921.59,577Z"/><g id="hinkebane"><rect class="cls-13" x="222.13" y="815.23" width="60.57" height="46.08" transform="translate(-208.53 94) rotate(-15.01)"/><rect class="cls-13" x="260.77" y="852.58" width="60.57" height="46.08" transform="translate(-216.89 105.28) rotate(-15.01)"/><rect class="cls-13" x="201.63" y="868.44" width="60.57" height="46.08" transform="translate(-223.01 90.51) rotate(-15.01)"/><rect class="cls-13" x="243.46" y="904.93" width="60.57" height="46.08" transform="translate(-231.04 102.59) rotate(-15.01)"/><rect class="cls-13" x="254.76" y="949.61" width="60.57" height="46.08" transform="translate(-242.23 107.04) rotate(-15.01)"/><rect class="cls-13" x="266.25" y="994.98" width="60.57" height="46.08" transform="translate(-253.59 111.56) rotate(-15.01)"/><rect class="cls-13" x="195" y="726.26" width="60.57" height="46.08" transform="translate(-186.41 83.94) rotate(-15.01)"/><rect class="cls-13" x="232.16" y="764.56" width="60.57" height="46.08" transform="translate(-195.06 94.87) rotate(-15.01)"/><rect class="cls-13" x="175.06" y="779.1" width="60.57" height="46.08" transform="translate(-200.78 80.57) rotate(-15.01)"/></g><polygon class="cls-14" points="51.57 502.88 63.14 503.91 81.92 243.1 70.35 242.06 51.57 502.88"/><rect class="cls-14" x="227.41" y="86.94" width="9.55" height="321.74" transform="translate(479.99 15.63) rotate(90)"/><polygon class="cls-14" points="398.64 503.54 410 502.88 397.73 242 386.37 242.66 398.64 503.54"/><rect class="cls-15" x="124.39" y="252.58" width="6.67" height="159.13"/><rect class="cls-15" x="186.31" y="252.58" width="6.67" height="159.13"/><rect class="cls-16" x="111.05" y="410.65" width="97.18" height="27.58" rx="12" ry="12"/><rect class="cls-15" x="268.24" y="251.52" width="6.67" height="159.13"/><rect class="cls-15" x="330.17" y="251.52" width="6.67" height="159.13"/><rect class="cls-16" x="254.91" y="409.59" width="97.18" height="27.58" rx="12" ry="12"/><path class="cls-12" d="M829.15,454.62c.12-17-25-31-56.17-31.24-2.74,0-5.42.11-8.06.3-10.08-8.26-27.18-13.76-46.61-13.9-26-.18-48,9.36-54.54,22.45-20.43-2.62-40.09,1.9-49.3,12.66-8,9.33-6.16,21.08,3.12,31.19-8,4.75-13.2,11-14.06,18.07-2.06,17,21.43,32.25,52.46,34.13a92.4,92.4,0,0,0,34.16-4c8,.59,16.71.94,25.76,1,30.57.21,56.86-2.93,68.48-7.61,22.69-6.32,38-18.32,38.11-32.19a21.41,21.41,0,0,0-4.37-12.7C825,467.67,829.11,461.43,829.15,454.62Z"/><path class="cls-12" d="M729,384.87c0-15-22.73-27.21-50.76-27.21-2.47,0-4.88.13-7.25.31-9.13-7.22-24.56-12-42.06-12-23.45,0-43.13,8.54-49,20.13-18.41-2.19-36.08,1.91-44.3,11.45-7.13,8.28-5.42,18.63,3,27.49-7.16,4.24-11.81,9.77-12.54,16-1.75,15,19.49,28.31,47.44,29.78a84.87,84.87,0,0,0,30.73-3.78c7.23.47,15.05.73,23.2.73,27.52,0,51.16-2.93,61.6-7.12,20.38-5.71,34.11-16.39,34.11-28.62a18.67,18.67,0,0,0-4-11.18C725.33,396.4,729,390.87,729,384.87Z"/><path class="cls-12" d="M618.76,528.32c26.43-3.24,46-20.7,43.79-39a23.06,23.06,0,0,0-1.13-4.67c12-7.52,19.09-18.61,17.69-30-1.88-15.32-18.47-26.33-39.3-27.64,2.36-12.49-6.25-23.15-23.69-26.47-15.13-2.87-33.19.48-48.09,7.88-8-3.76-18.13-5.61-29.18-4.74-26.48,2.08-48.23,18.83-48.57,37.39-.13,7.51,3.27,14.14,9.11,19.26a88.82,88.82,0,0,0,.57,15.3c2.2,18,9.24,32.79,17.45,38.7C529.08,526.36,549,533,570.46,530.39a74.49,74.49,0,0,0,19.33-5A63.05,63.05,0,0,0,618.76,528.32Z"/><path class="cls-17" d="M539,404c.27-.38,5-6.61,13-6s11.8,7.61,12,8c16.48-10,26.15-9.55,32-7,5.44,2.37,6.12,5.78,14,9,9.7,4,14.52.93,20,5,2.93,2.18,6.2,6.49,7,16,11.37.95,15.94,4.69,18,8,3.18,5.09.11,8.72,3,18,2.73,8.76,6.74,9.64,8,16,.9,4.56.28,11.4-7,21a31.6,31.6,0,0,1-7,22,31.23,31.23,0,0,1-17.65,10.52L628,519c9.3,1.14,18.26-2.73,23-10s3.38-15.14,3-17c7.49-8.46,8.49-14.78,8-19-.7-6-4.4-7.37-8-18-2.76-8.15-1.47-10-4-14s-7.33-8.05-18-10c.15-3.26-.22-7.62-3-11-4-4.81-9.33-3.39-19-7-10.62-4-11-7.88-18-10-6-1.82-15.5-1.71-30,8a17.23,17.23,0,0,0-7-7C547.54,400.09,540,403.55,539,404Z"/><path class="cls-17" d="M635.94,430.53a21.37,21.37,0,0,1,22,.17,32.22,32.22,0,0,1,15.16-5.87A33.25,33.25,0,0,1,689.24,427a50.34,50.34,0,0,1,19.54-12.83,52.59,52.59,0,0,1,13-2.88l18.33,2.16a59.38,59.38,0,0,0-23.76,1.79,40.16,40.16,0,0,0-7.58,2.93A37.1,37.1,0,0,0,694.6,431c-1.55-.83-12.22-6.4-23.73-2.21a25.51,25.51,0,0,0-10.52,7.27,32.9,32.9,0,0,0-13.25-5.48A34,34,0,0,0,635.94,430.53Z"/><rect class="cls-18" x="1656.94" y="685" width="10" height="78.89"/><rect class="cls-18" x="1835.83" y="685" width="10" height="78.89"/><polygon class="cls-18" points="1680.64 807.74 1689.22 805.42 1666.55 759.75 1656.89 762.35 1680.64 807.74"/><rect class="cls-18" x="1835.28" y="751.11" width="10" height="76.67"/><rect class="cls-18" x="1656.39" y="751.11" width="10" height="76.67"/><polygon class="cls-18" points="1862.65 812.01 1871.94 808.89 1843.11 757.58 1832.65 761.08 1862.65 812.01"/><rect class="cls-18" x="1856.39" y="797.78" width="10" height="52.22"/><rect class="cls-18" x="1674.17" y="794.44" width="10" height="52.22"/><rect class="cls-19" x="1632.5" y="685" width="240" height="21.11"/><rect class="cls-19" x="1632.5" y="713.89" width="240" height="21.11"/><rect class="cls-19" x="1632.5" y="742.78" width="240" height="21.11"/><polygon class="cls-19" points="1889.63 798.89 1644.72 798.33 1652.57 813.33 1899.72 812.22 1889.63 798.89"/><polygon class="cls-19" points="1875.83 776.11 1635.83 776.11 1643.61 791.11 1886.39 790 1875.83 776.11"/><rect class="cls-18" x="885.5" y="715.5" width="9" height="71"/><rect class="cls-18" x="1046.5" y="715.5" width="9" height="71"/><polygon class="cls-18" points="906.82 825.96 914.55 823.88 894.14 782.78 885.45 785.12 906.82 825.96"/><rect class="cls-18" x="1046" y="775" width="9" height="69"/><rect class="cls-18" x="885" y="775" width="9" height="69"/><polygon class="cls-18" points="1070.63 829.8 1079 827 1053.05 780.82 1043.63 783.98 1070.63 829.8"/><rect class="cls-18" x="1065" y="817" width="9" height="47"/><rect class="cls-18" x="901" y="814" width="9" height="47"/><rect class="cls-19" x="863.5" y="715.5" width="216" height="19"/><rect class="cls-19" x="863.5" y="741.5" width="216" height="19"/><rect class="cls-19" x="863.5" y="767.5" width="216" height="19"/><polygon class="cls-19" points="1094.92 818 874.5 817.5 881.56 831 1104 830 1094.92 818"/><polygon class="cls-19" points="1082.5 797.5 866.5 797.5 873.5 811 1092 810 1082.5 797.5"/><circle class="cls-20" cx="679.5" cy="120.5" r="81"/><path class="cls-21" d="M679.5,40A80.5,80.5,0,1,1,599,120.5,80.59,80.59,0,0,1,679.5,40m0-1A81.5,81.5,0,1,0,761,120.5,81.5,81.5,0,0,0,679.5,39Z"/><path class="cls-22" d="M149.65,184.42,422,185c-1.36-14.73-8.27-81.66-32-87.4-2.75-.66-13.66-3.29-18.2,1.74-2.86,3.17-1.91,8-1.26,10.42q3.6-8.73,1.26-10.42-6.6-4.74-60.25,46.3c1.95-27.37-8-50.23-25.73-57.3A35.06,35.06,0,0,0,271.39,86a34.26,34.26,0,0,0-7.53,1.16c-26.63,7.25-34.12,45.34-35.14,50.93-1.58-6.16-8.6-30.42-32-41.09A54.23,54.23,0,0,0,183.53,93,40,40,0,0,0,172.24,97C137.93,115.72,148.83,179.91,149.65,184.42Z"/></svg>
