<svg id="Layer_1" data-name="Layer 1" xmlns="http://www.w3.org/2000/svg" xmlns:xlink="http://www.w3.org/1999/xlink" width="722" height="921" viewBox="0 0 722 921"><defs><style>.cls-1{fill:#8c6239;}.cls-2{fill:#754c24;}.cls-14,.cls-15,.cls-19,.cls-3{fill:none;}.cls-3{stroke:#754c24;stroke-width:15px;}.cls-18,.cls-19,.cls-3{stroke-miterlimit:10;}.cls-4{fill:#999;}.cls-5{fill:url(#radial-gradient);}.cls-6{fill:#4d4d4d;}.cls-7{fill:url(#radial-gradient-2);}.cls-8{fill:#333;}.cls-9{fill:url(#radial-gradient-3);}.cls-10{fill:url(#radial-gradient-4);}.cls-11{fill:url(#radial-gradient-5);}.cls-12{fill:url(#radial-gradient-6);}.cls-13,.cls-18{fill:#f9e8c0;}.cls-14,.cls-15{stroke:#f9e8c0;stroke-linecap:round;stroke-linejoin:round;}.cls-14{stroke-width:23px;}.cls-15{stroke-width:21px;}.cls-16{fill:#b21212;}.cls-17{fill:#1485cc;}.cls-18,.cls-19{stroke:#000;stroke-width:5px;}.cls-20{fill:#fcb9ec;opacity:0.5;}</style><radialGradient id="radial-gradient" cx="636.65" cy="297.47" r="58.63" gradientTransform="translate(-160.12 237.86) rotate(-32.89) scale(1 1.62)" gradientUnits="userSpaceOnUse"><stop offset="0" stop-color="#fff"/><stop offset="0.25" stop-color="#f8f8f8"/><stop offset="0.42" stop-color="#d8d8d8"/><stop offset="0.81" stop-color="#858585"/><stop offset="1" stop-color="#5c5c5c"/></radialGradient><radialGradient id="radial-gradient-2" cx="635.11" cy="294.12" r="48.86" gradientTransform="translate(-140.25 264.78) rotate(-32.89) scale(1 1.52)" xlink:href="#radial-gradient"/><radialGradient id="radial-gradient-3" cx="664.76" cy="340" r="6.33" gradientTransform="matrix(1, 0, 0, 1, 0, 0)" xlink:href="#radial-gradient"/><radialGradient id="radial-gradient-4" cx="597.03" cy="254.03" r="1.13" gradientTransform="translate(-48.53 355.25) rotate(-32.89) scale(1 1.05)" xlink:href="#radial-gradient"/><radialGradient id="radial-gradient-5" cx="603.71" cy="245.6" r="1.13" gradientTransform="translate(-42.68 357.85) rotate(-32.89) scale(1 1.05)" xlink:href="#radial-gradient"/><radialGradient id="radial-gradient-6" cx="664.76" cy="340" r="4.82" gradientTransform="matrix(1, 0, 0, 1, 0, 0)" xlink:href="#radial-gradient"/></defs><title>Artboard 1</title><path class="cls-1" d="M251,732l-80.77-.5a9,9,0,0,1-8.73-9.25v-529a9,9,0,0,1,8.73-9.25H531.77a9,9,0,0,1,8.73,9.25v529a9,9,0,0,1-8.73,9.25L440,732"/><g id="hår_skygge"><ellipse class="cls-2" cx="513" cy="541.5" rx="4" ry="56.5"/><ellipse class="cls-2" cx="494" cy="485.5" rx="4" ry="56.5"/><ellipse class="cls-2" cx="469" cy="517.5" rx="4" ry="56.5"/><ellipse class="cls-2" cx="228" cy="479.5" rx="4" ry="56.5"/><ellipse class="cls-2" cx="202" cy="536.5" rx="4" ry="56.5"/><ellipse class="cls-2" cx="178" cy="475.5" rx="4" ry="56.5"/><path class="cls-3" d="M236,101c0-22.11,23.26-40,52-40"/><path class="cls-4" d="M670.24,349.59h0C654.44,359.8,641,370,623,339.44l-31.4-48.53C572,264,585.9,253.83,601.7,243.62h0C617.49,233.4,634,228,649,253.76l31.39,48.54C703,331,686,339.37,670.24,349.59Z"/><path class="cls-5" d="M624,235.14v1h0c9.12,0,17,5.93,24.12,18.16l31.39,48.54,0,0,0,0c8.22,10.43,11.66,18.77,10.53,25.49-1.39,8.2-9.39,13.3-17.87,18.71l-2.56,1.64-1.57,1c-7.15,4.65-13.9,9-20.7,9-8.1,0-15.6-6.31-23.63-19.9l-31.4-48.53v0l0,0c-7.42-10.21-10.39-18.54-9.1-25.48,1.59-8.54,9.2-14.06,19-20.38,8.89-5.76,15.61-8.32,21.79-8.32v-1m0,0c-7.45,0-15,3.72-22.33,8.48h0C585.9,253.83,572,264,591.55,290.91L623,339.44c9,15.27,16.89,20.36,24.47,20.36s14.91-5.1,22.82-10.21h0C686,339.37,703,331,680.38,302.3L649,253.76c-8-13.75-16.44-18.62-25-18.62Z"/><rect class="cls-6" x="609.37" y="249.31" width="51.49" height="89.62" transform="translate(-57.91 392.09) rotate(-32.89)"/><path class="cls-7" d="M632.1,243.9l47.58,73.57-41.55,26.88-47.59-73.57L632.1,243.9m.29-1.38-43.23,28,48.67,75.25,43.24-28-48.68-75.25Z"/><polygon class="cls-8" points="681.07 317.77 637.83 345.73 634.32 287.73 632.39 242.52 681.07 317.77"/><circle class="cls-6" cx="664.76" cy="340" r="6.33"/><path class="cls-9" d="M664.76,334.67h0a5.32,5.32,0,1,1-2.89.85,5.32,5.32,0,0,1,2.89-.85m0-1a6.25,6.25,0,0,0-3.43,1,6.33,6.33,0,0,0,3.44,11.65,6.34,6.34,0,0,0,5.31-9.77,6.33,6.33,0,0,0-5.32-2.89Z"/><rect class="cls-6" x="599.25" y="247.35" width="12.66" height="2.3" rx="1.15" ry="1.15" transform="translate(-37.87 368.73) rotate(-32.89)"/><rect class="cls-6" x="595.93" y="252.88" width="2.2" height="2.3" rx="1.1" ry="1.1" transform="translate(-42.24 364.98) rotate(-32.89)"/><path class="cls-10" d="M597,253.89a.09.09,0,0,1,.09.05l0,.08a.1.1,0,0,1,0,.14h-.05a.11.11,0,0,1-.09,0l-.05-.08a.11.11,0,0,1,0-.14l0,0m0-1a1.07,1.07,0,0,0-.59.18,1.1,1.1,0,0,0-.33,1.52l0,.08a1.11,1.11,0,0,0,.93.5,1.09,1.09,0,0,0,.92-1.69l-.05-.09a1.12,1.12,0,0,0-.93-.5Z"/><rect class="cls-6" x="602.61" y="244.45" width="2.2" height="2.3" rx="1.1" ry="1.1" transform="translate(-36.59 367.25) rotate(-32.89)"/><path class="cls-11" d="M603.68,245.46a.11.11,0,0,1,.09,0l.05.09a.11.11,0,0,1,0,.14h0a.1.1,0,0,1-.09,0l0-.09a.11.11,0,0,1,0-.14h0m0-1a1.19,1.19,0,0,0-.6.17,1.11,1.11,0,0,0-.32,1.53l0,.08a1.1,1.1,0,0,0,.93.5,1.06,1.06,0,0,0,.59-.17,1.1,1.1,0,0,0,.33-1.52l0-.09a1.12,1.12,0,0,0-.93-.5Z"/><circle class="cls-4" cx="664.76" cy="340" r="4.82"/><path class="cls-12" d="M664.76,336.18h0a3.81,3.81,0,1,1-2.07.61,3.82,3.82,0,0,1,2.07-.61m0-1a4.82,4.82,0,1,0,4,2.2,4.81,4.81,0,0,0-4-2.2Z"/><ellipse class="cls-13" cx="606.88" cy="317.9" rx="2.73" ry="5.62" transform="translate(-77.69 290.92) rotate(-25.39)"/><ellipse class="cls-13" cx="71.88" cy="369.9" rx="5.62" ry="2.73" transform="translate(-298.4 299.99) rotate(-68.31)"/></g><g id="arme_og_ben" data-name="arme og ben"><path class="cls-14" d="M619.11,324.29C603.43,418.65,520.63,483.36,434,469"/><path class="cls-15" d="M263.81,476.63C171,499.91,78.66,449.81,57.28,364.62"/><path class="cls-15" d="M387.42,639.17c83.65,46.4,116.86,146.1,74.25,222.91"/><path class="cls-15" d="M304.5,639.5C278.91,729.69,203.54,787.17,136,768"/></g><g id="tøj"><rect class="cls-16" x="257" y="419" width="189" height="134" rx="12" ry="12"/><polygon class="cls-17" points="465 654.21 235 654.21 258.39 536 446.06 536 465 654.21"/><rect x="257" y="525" width="189" height="15"/></g><path class="cls-13" d="M521,209.5c0-82-75.89-148.5-169.5-148.5S182,127.49,182,209.5c0,2.59.08,5.15.23,7.71a37.3,37.3,0,0,1,0,5.07q-.18,2.43-.18,4.92V327.54C182,387.75,231.25,437,291.46,437H411.54C471.75,437,521,387.75,521,327.54V227.2q0-2.49-.18-4.92a37.3,37.3,0,0,1-.05-5.07C520.92,214.65,521,212.09,521,209.5Z"/><g id="øjne"><path class="cls-18" d="M250,302c0-28.72,20.15-52,45-52s45,23.28,45,52"/><path class="cls-18" d="M249.82,299.21c-15.46-.23-27.84-10.72-27.64-23.42"/><path class="cls-18" d="M251.76,292.28c-15.22-2.72-25.75-15-23.52-27.56"/><path class="cls-18" d="M252.24,286.11c-13.77-7-20.26-21.9-14.48-33.22"/><path class="cls-18" d="M455.18,305c0-28.72-20.15-52-45-52s-45,23.28-45,52"/><path class="cls-18" d="M455.36,302.21c15.46-.23,27.83-10.72,27.64-23.42"/><path class="cls-18" d="M453.41,295.28c15.23-2.72,25.76-15,23.53-27.56"/><path class="cls-18" d="M452.93,289.11c13.78-7,20.26-21.9,14.49-33.22"/></g><path class="cls-19" d="M382,353c0,22.37-14.21,40.5-31.75,40.5S318.5,375.37,318.5,353"/><path class="cls-1" d="M224,224H526.64C534,224,540,217.43,540,209.39v-4.86a14,14,0,0,0-1-4.53c10.77-91.71-87.12-161-188.53-161C247.8,39,151,114,161.57,203a14.58,14.58,0,0,0-.07,1.49v4.86c0,8,6,14.61,13.36,14.61h53.08"/><path class="cls-13" d="M232.5,226.25c0-28.3,2.57-51.25,5.75-51.25S244,198,244,226.25"/><path class="cls-13" d="M251.5,231c0-40.32,3.69-73,8.25-73S268,190.68,268,231"/><ellipse class="cls-20" cx="247.5" cy="342.5" rx="11.5" ry="36.5" transform="translate(-136.28 519.34) rotate(-78.89)"/><ellipse class="cls-20" cx="452.5" cy="342.5" rx="36.5" ry="11.5" transform="translate(-67.93 116.19) rotate(-13.62)"/><polygon points="494 246.5 448.35 221.17 448.18 221.02 448.11 221.04 448.09 221.03 448.07 221.05 360.15 246.97 371.49 257 446.59 234.85 494 246.5"/><polygon points="206.16 242.5 251.81 217.17 251.98 217.02 252.04 217.04 252.06 217.03 252.09 217.05 340 242.97 328.67 253 253.57 230.85 206.16 242.5"/><path d="M115.34,808.28l-4.5-49.09,27.58-2.64,4.51,47.06a13.09,13.09,0,0,1-11.78,14.27l-3.53.4A11.09,11.09,0,0,1,115.34,808.28Z"/><path d="M483.23,900.26l-40.5-28.09,15.69-22.83,39,26.78a13.1,13.1,0,0,1,3.37,18.2l-2,3A11.07,11.07,0,0,1,483.23,900.26Z"/></svg>
