<svg xmlns="http://www.w3.org/2000/svg" xmlns:xlink="http://www.w3.org/1999/xlink" width="1600" height="600" viewBox="0 0 1600 600"><defs><style>.cls-1{fill:#8c6239;}.cls-2{fill:#754c24;}.cls-14,.cls-15,.cls-19,.cls-21,.cls-3{fill:none;}.cls-3{stroke:#754c24;}.cls-18,.cls-19,.cls-23,.cls-3{stroke-miterlimit:10;}.cls-21,.cls-3{stroke-width:15px;}.cls-4{fill:#999;}.cls-5{fill:url(#radial-gradient);}.cls-6{fill:#4d4d4d;}.cls-7{fill:url(#radial-gradient-2);}.cls-23,.cls-8{fill:#333;}.cls-9{fill:url(#radial-gradient-3);}.cls-10{fill:url(#radial-gradient-4);}.cls-11{fill:url(#radial-gradient-5);}.cls-12{fill:url(#radial-gradient-6);}.cls-13,.cls-18{fill:#f9e8c0;}.cls-14,.cls-15,.cls-21{stroke:#f9e8c0;stroke-linecap:round;stroke-linejoin:round;}.cls-14{stroke-width:23px;}.cls-15{stroke-width:21px;}.cls-16{fill:#b21212;}.cls-17{fill:#1485cc;}.cls-18,.cls-19{stroke:#000;stroke-width:2px;}.cls-20{fill:#fcb9ec;opacity:0.5;}.cls-22{fill:url(#radial-gradient-7);}.cls-23{stroke:#1a1a1a;}.cls-24{fill:#fff;}.cls-25{fill:url(#radial-gradient-8);}.cls-26{fill:url(#radial-gradient-9);}.cls-27{fill:url(#radial-gradient-10);}.cls-28{fill:url(#radial-gradient-11);}.cls-29{fill:url(#radial-gradient-12);}.cls-30{fill:url(#radial-gradient-13);}.cls-31{fill:url(#radial-gradient-14);}.cls-32{fill:url(#radial-gradient-15);}.cls-33{fill:url(#radial-gradient-16);}.cls-34{fill:url(#radial-gradient-17);}.cls-35{fill:url(#radial-gradient-18);}.cls-36{fill:url(#radial-gradient-19);}</style><radialGradient id="radial-gradient" cx="355.7" cy="192.21" r="31.42" gradientTransform="matrix(0.84, -0.54, 0.88, 1.36, -112.38, 123.46)" gradientUnits="userSpaceOnUse"><stop offset="0" stop-color="#fff"/><stop offset="0.25" stop-color="#f8f8f8"/><stop offset="0.42" stop-color="#d8d8d8"/><stop offset="0.81" stop-color="#858585"/><stop offset="1" stop-color="#5c5c5c"/></radialGradient><radialGradient id="radial-gradient-2" cx="354.88" cy="190.42" r="26.18" gradientTransform="translate(-99.82 140.85) rotate(-32.89) scale(1 1.52)" xlink:href="#radial-gradient"/><radialGradient id="radial-gradient-3" cx="370.77" cy="214.99" r="3.39" gradientTransform="matrix(1, 0, 0, 1, 0, 0)" xlink:href="#radial-gradient"/><radialGradient id="radial-gradient-4" cx="334.48" cy="168.93" r="0.61" gradientTransform="matrix(0.84, -0.54, 0.57, 0.88, -42.31, 202.27)" xlink:href="#radial-gradient"/><radialGradient id="radial-gradient-5" cx="338.05" cy="164.42" r="0.61" gradientTransform="matrix(0.84, -0.54, 0.57, 0.88, -39.17, 203.66)" xlink:href="#radial-gradient"/><radialGradient id="radial-gradient-6" cx="370.77" cy="214.99" r="2.58" gradientTransform="matrix(1, 0, 0, 1, 0, 0)" xlink:href="#radial-gradient"/><radialGradient id="radial-gradient-7" cx="1402.93" cy="298.67" r="20.76" gradientUnits="userSpaceOnUse"><stop offset="0" stop-color="#fff"/><stop offset="0"/><stop offset="0.38" stop-color="#202020"/><stop offset="1" stop-color="#5c5c5c"/></radialGradient><radialGradient id="radial-gradient-8" cx="1141.96" cy="349.03" r="31.57" gradientTransform="matrix(0.82, 0.57, -0.93, 1.33, 532.35, -770.48)" xlink:href="#radial-gradient"/><radialGradient id="radial-gradient-9" cx="1143.4" cy="347.74" r="26.36" gradientTransform="matrix(0.82, 0.57, -0.87, 1.24, 509.96, -740.3)" xlink:href="#radial-gradient"/><radialGradient id="radial-gradient-10" cx="1126.59" cy="371.69" r="3.39" gradientTransform="matrix(1, 0, 0, 1, 0, 0)" xlink:href="#radial-gradient"/><radialGradient id="radial-gradient-11" cx="1155.65" cy="320.76" r="0.61" gradientTransform="matrix(0.82, 0.57, -0.6, 0.86, 402.15, -617.46)" xlink:href="#radial-gradient"/><radialGradient id="radial-gradient-12" cx="1161.18" cy="322.38" r="0.61" gradientTransform="matrix(0.82, 0.57, -0.6, 0.86, 404.12, -620.4)" xlink:href="#radial-gradient"/><radialGradient id="radial-gradient-13" cx="1126.59" cy="371.69" r="2.58" gradientTransform="matrix(1, 0, 0, 1, 0, 0)" xlink:href="#radial-gradient"/><radialGradient id="radial-gradient-14" cx="755.61" cy="297.09" r="29.88" gradientTransform="translate(-112 71.99) rotate(-18) scale(1 1.62)" xlink:href="#radial-gradient"/><radialGradient id="radial-gradient-15" cx="755.23" cy="295.32" r="24.04" gradientTransform="matrix(0.95, -0.31, 0.47, 1.44, -101.33, 103)" xlink:href="#radial-gradient"/><radialGradient id="radial-gradient-16" cx="764.26" cy="323.16" r="3.39" gradientTransform="matrix(1, 0, 0, 1, 0, 0)" xlink:href="#radial-gradient"/><radialGradient id="radial-gradient-17" cx="741.03" cy="269.32" r="0.61" gradientTransform="translate(-50.75 230.45) rotate(-18) scale(1 1.05)" xlink:href="#radial-gradient"/><radialGradient id="radial-gradient-18" cx="745.65" cy="265.87" r="0.61" gradientTransform="translate(-49.41 231.86) rotate(-18) scale(1 1.05)" xlink:href="#radial-gradient"/><radialGradient id="radial-gradient-19" cx="764.26" cy="323.16" r="2.58" gradientTransform="matrix(1, 0, 0, 1, 0, 0)" xlink:href="#radial-gradient"/></defs><title>Artboard 1</title><g id="Layer_1" data-name="Layer 1"><path class="cls-1" d="M149.07,425l-43.27-.27a4.82,4.82,0,0,1-4.68-5V136.37a4.82,4.82,0,0,1,4.68-5H299.51a4.83,4.83,0,0,1,4.68,5V419.8a4.83,4.83,0,0,1-4.68,5l-49.17.27"/><ellipse class="cls-2" cx="289.45" cy="322.96" rx="2.14" ry="30.27"/><ellipse class="cls-2" cx="279.27" cy="292.95" rx="2.14" ry="30.27"/><ellipse class="cls-2" cx="265.88" cy="310.1" rx="2.14" ry="30.27"/><ellipse class="cls-2" cx="136.75" cy="289.74" rx="2.14" ry="30.27"/><ellipse class="cls-2" cx="122.82" cy="320.28" rx="2.14" ry="30.27"/><ellipse class="cls-2" cx="109.96" cy="287.6" rx="2.14" ry="30.27"/><path class="cls-3" d="M141,86.94c0-11.85,12.46-21.43,27.86-21.43"/><path class="cls-4" d="M373.7,220.13h0c-8.46,5.48-15.67,10.94-25.34-5.43l-16.82-26c-10.48-14.41-3-19.86,5.43-25.34h0c8.47-5.47,17.31-8.36,25.34,5.44l16.82,26C391.25,210.17,382.16,214.66,373.7,220.13Z"/><path class="cls-5" d="M348.94,159.81h0c4.71,0,8.8,3.1,12.53,9.52l16.82,26,0,0,0,0c4.32,5.48,6.13,9.83,5.54,13.29-.71,4.19-4.91,6.87-9.36,9.71l-1.37.88-.85.55c-3.77,2.45-7.33,4.77-10.83,4.77-4.17,0-8.06-3.31-12.28-10.46l-16.82-26v0l0,0c-3.9-5.36-5.47-9.7-4.8-13.29.82-4.39,4.82-7.29,10-10.62,4.68-3,8.21-4.38,11.42-4.38m0-1c-4,0-8,2-12,4.54h0c-8.46,5.48-15.91,10.93-5.43,25.34l16.82,26c4.83,8.18,9.05,10.91,13.12,10.91s8-2.74,12.22-5.48h0c8.46-5.47,17.55-10,5.43-25.34l-16.82-26c-4.28-7.37-8.8-10-13.37-10Z"/><rect class="cls-6" x="341.08" y="166.41" width="27.59" height="48.02" transform="translate(-46.52 223.26) rotate(-32.89)"/><path class="cls-7" d="M353.13,164.15l25,38.64-21.49,13.89-25-38.64,21.49-13.89m.29-1.39-23.16,15,26.07,40.32,23.17-15-26.08-40.32Z"/><polygon class="cls-8" points="379.5 203.08 356.33 218.07 354.45 186.99 353.42 162.76 379.5 203.08"/><circle class="cls-6" cx="370.77" cy="214.99" r="3.39"/><path class="cls-9" d="M370.76,212.6h0a2.37,2.37,0,0,1,2,1.1,2.38,2.38,0,0,1-.71,3.3,2.37,2.37,0,0,1-3.3-.71,2.38,2.38,0,0,1,.71-3.3,2.3,2.3,0,0,1,1.29-.39m0-1a3.39,3.39,0,1,0,2.85,1.55,3.38,3.38,0,0,0-2.85-1.55Z"/><rect class="cls-6" x="335.67" y="165.35" width="6.78" height="1.23" rx="0.62" transform="translate(-35.78 210.75) rotate(-32.89)"/><rect class="cls-6" x="333.89" y="168.32" width="1.18" height="1.23" rx="0.59" transform="translate(-38.12 208.74) rotate(-32.89)"/><path class="cls-10" d="M334.46,168.32a.55.55,0,0,0-.32.1.58.58,0,0,0-.17.81l0,.05a.59.59,0,0,0,.49.27.55.55,0,0,0,.32-.1.59.59,0,0,0,.18-.81l0,0a.62.62,0,0,0-.5-.27Z"/><rect class="cls-6" x="337.46" y="163.8" width="1.18" height="1.23" rx="0.59" transform="translate(-35.09 209.96) rotate(-32.89)"/><path class="cls-11" d="M338,163.81a.62.62,0,0,0-.32.09.61.61,0,0,0-.18.82l0,0a.6.6,0,0,0,.5.27.62.62,0,0,0,.32-.09.6.6,0,0,0,.17-.82l0-.05a.58.58,0,0,0-.49-.26Z"/><circle class="cls-4" cx="370.77" cy="214.99" r="2.58"/><path class="cls-12" d="M370.76,213.41a1.58,1.58,0,0,1,.86,2.91,1.52,1.52,0,0,1-.85.26,1.58,1.58,0,0,1-.86-2.91,1.52,1.52,0,0,1,.85-.26m0-1a2.58,2.58,0,1,0,2.17,1.18,2.6,2.6,0,0,0-2.17-1.18Z"/><ellipse class="cls-13" cx="339.75" cy="203.15" rx="1.47" ry="3.01" transform="translate(-54.29 165.3) rotate(-25.39)"/><ellipse class="cls-13" cx="51.49" cy="228.34" rx="3.01" ry="1.47" transform="translate(-179.71 191.8) rotate(-68.31)"/><path class="cls-14" d="M346.31,206.58c-8.41,50.56-52.77,85.22-99.2,77.51"/><path class="cls-15" d="M155.94,288.2c-49.71,12.47-99.2-14.37-110.66-60"/><path class="cls-15" d="M222.17,375.29C267,400.15,284.78,453.57,262,494.72"/><path class="cls-15" d="M177.74,375.46c-13.71,48.33-54.09,79.12-90.28,68.85"/><rect class="cls-16" x="152.29" y="257.32" width="101.26" height="71.8" rx="12"/><polygon class="cls-17" points="263.73 383.35 140.5 383.35 153.03 320.01 253.59 320.01 263.73 383.35"/><rect x="152.29" y="314.12" width="101.26" height="8.04"/><path class="cls-13" d="M293.74,145.07c0-43.94-40.66-79.56-90.82-79.56s-90.82,35.62-90.82,79.56c0,1.39.05,2.77.13,4.13a20.56,20.56,0,0,1,0,2.72c-.06.87-.1,1.75-.1,2.64v53.76A58.82,58.82,0,0,0,170.75,267h64.34a58.82,58.82,0,0,0,58.65-58.65V154.56c0-.89,0-1.77-.1-2.64a22.42,22.42,0,0,1,0-2.72C293.69,147.84,293.74,146.46,293.74,145.07Z"/><g id="øjne"><path class="cls-18" d="M148.54,194.64c0-15.39,10.79-27.87,24.11-27.87s24.11,12.48,24.11,27.87"/><path class="cls-18" d="M148.44,193.14c-8.28-.12-14.91-5.75-14.81-12.55"/><path class="cls-18" d="M149.48,189.43c-8.15-1.46-13.8-8.07-12.6-14.77"/><path class="cls-18" d="M149.74,186.12c-7.38-3.77-10.86-11.73-7.76-17.8"/><path class="cls-18" d="M258.47,196.24c0-15.38-10.79-27.86-24.11-27.86s-24.11,12.48-24.11,27.86"/><path class="cls-18" d="M258.57,194.75c8.28-.13,14.91-5.75,14.81-12.55"/><path class="cls-18" d="M257.53,191c8.15-1.45,13.8-8.06,12.6-14.76"/><path class="cls-18" d="M257.27,187.73c7.38-3.77,10.85-11.74,7.76-17.8"/></g><path class="cls-19" d="M219.26,222c0,12-7.61,21.7-17,21.7s-17-9.71-17-21.7"/><path class="cls-1" d="M134.61,148.84H296.76c3.94,0,7.16-3.52,7.16-7.82v-2.61a7.55,7.55,0,0,0-.54-2.43c5.77-49.13-46.67-86.26-101-86.26-55,0-106.88,40.19-101.21,87.89a7,7,0,0,0,0,.8V141c0,4.3,3.22,7.82,7.16,7.82h28.44"/><path class="cls-13" d="M139.16,154.05c0-15.17,1.38-27.46,3.08-27.46s3.08,12.29,3.08,27.46"/><path class="cls-13" d="M149.34,156.59c0-21.6,2-39.11,4.42-39.11s4.42,17.51,4.42,39.11"/><ellipse class="cls-20" cx="147.2" cy="216.33" rx="6.16" ry="19.56" transform="translate(-93.45 319.07) rotate(-78.89)"/><ellipse class="cls-20" cx="257.04" cy="216.33" rx="19.56" ry="6.16" transform="translate(-43.72 66.61) rotate(-13.62)"/><polygon points="279.27 164.9 254.81 151.33 254.72 151.25 254.69 151.26 254.68 151.25 254.66 151.26 207.56 165.15 213.63 170.53 253.87 158.66 279.27 164.9"/><polygon points="125.05 162.76 149.51 149.18 149.6 149.1 149.63 149.11 149.64 149.11 149.66 149.12 196.76 163.01 190.69 168.38 150.45 156.52 125.05 162.76"/><path d="M77.39,460.9,75,434.6l14.78-1.42,2.41,25.21A7,7,0,0,1,85.86,466l-1.89.21A5.93,5.93,0,0,1,77.39,460.9Z"/><path d="M269.59,511.36l-21.85-15.15,8.47-12.31,21,14.44a7.07,7.07,0,0,1,1.82,9.82l-1.06,1.6A6,6,0,0,1,269.59,511.36Z"/><path class="cls-1" d="M1349.07,425l-43.27-.27a4.82,4.82,0,0,1-4.68-5V136.37a4.82,4.82,0,0,1,4.68-5h193.71a4.83,4.83,0,0,1,4.68,5V419.8a4.83,4.83,0,0,1-4.68,5l-49.17.27"/><ellipse class="cls-2" cx="1489.45" cy="322.96" rx="2.14" ry="30.27"/><ellipse class="cls-2" cx="1479.27" cy="292.95" rx="2.14" ry="30.27"/><ellipse class="cls-2" cx="1465.88" cy="310.1" rx="2.14" ry="30.27"/><ellipse class="cls-2" cx="1336.75" cy="289.74" rx="2.14" ry="30.27"/><ellipse class="cls-2" cx="1322.82" cy="320.28" rx="2.14" ry="30.27"/><ellipse class="cls-2" cx="1309.96" cy="287.6" rx="2.14" ry="30.27"/><path class="cls-3" d="M1341,86.94c0-11.85,12.46-21.43,27.86-21.43"/><path class="cls-15" d="M1372.5,377.5c-7,56,0,100,0,100"/><path class="cls-15" d="M1427.39,375.5c7,56,0,100,0,100"/><rect class="cls-16" x="1352.29" y="257.32" width="101.26" height="71.8" rx="12"/><polygon class="cls-17" points="1463.73 383.35 1340.5 383.35 1353.03 320.01 1453.59 320.01 1463.73 383.35"/><rect x="1352.29" y="314.12" width="101.26" height="8.04"/><path class="cls-13" d="M1493.74,145.07c0-43.94-40.66-79.56-90.82-79.56s-90.82,35.62-90.82,79.56c0,1.39.05,2.77.13,4.13a20.56,20.56,0,0,1,0,2.72c-.06.87-.1,1.75-.1,2.64v53.76A58.82,58.82,0,0,0,1370.75,267h64.34a58.82,58.82,0,0,0,58.65-58.65V154.56c0-.89,0-1.77-.1-2.64a22.42,22.42,0,0,1,0-2.72C1493.69,147.84,1493.74,146.46,1493.74,145.07Z"/><g id="øjne-2" data-name="øjne"><path class="cls-18" d="M1348.54,194.64c0-15.39,10.79-27.87,24.11-27.87s24.11,12.48,24.11,27.87"/><path class="cls-18" d="M1348.44,193.14c-8.28-.12-14.91-5.75-14.81-12.55"/><path class="cls-18" d="M1349.48,189.43c-8.15-1.46-13.8-8.07-12.6-14.77"/><path class="cls-18" d="M1349.74,186.12c-7.38-3.77-10.86-11.73-7.76-17.8"/><path class="cls-18" d="M1458.47,196.24c0-15.38-10.79-27.86-24.11-27.86s-24.11,12.48-24.11,27.86"/><path class="cls-18" d="M1458.57,194.75c8.28-.13,14.91-5.75,14.81-12.55"/><path class="cls-18" d="M1457.53,191c8.15-1.45,13.8-8.06,12.6-14.76"/><path class="cls-18" d="M1457.27,187.73c7.38-3.77,10.85-11.74,7.76-17.8"/></g><path class="cls-19" d="M1419.26,222c0,12-7.61,21.7-17,21.7s-17-9.71-17-21.7"/><path class="cls-1" d="M1334.61,148.84h162.15c3.94,0,7.16-3.52,7.16-7.82v-2.61a7.55,7.55,0,0,0-.54-2.43c5.77-49.13-46.67-86.26-101-86.26-55,0-106.88,40.19-101.21,87.89a7,7,0,0,0,0,.8V141c0,4.3,3.22,7.82,7.16,7.82h28.44"/><path class="cls-13" d="M1339.16,154.05c0-15.17,1.38-27.46,3.08-27.46s3.08,12.29,3.08,27.46"/><path class="cls-13" d="M1349.34,156.59c0-21.6,2-39.11,4.42-39.11s4.42,17.51,4.42,39.11"/><ellipse class="cls-20" cx="1347.2" cy="216.33" rx="6.16" ry="19.56" transform="translate(875.24 1496.57) rotate(-78.89)"/><ellipse class="cls-20" cx="1457.04" cy="216.33" rx="19.56" ry="6.16" transform="translate(-9.97 349.2) rotate(-13.62)"/><polygon points="1479.27 164.9 1454.81 151.33 1454.72 151.25 1454.69 151.26 1454.68 151.25 1454.66 151.26 1407.56 165.15 1413.63 170.53 1453.87 158.66 1479.27 164.9"/><polygon points="1325.05 162.76 1349.51 149.18 1349.6 149.1 1349.63 149.11 1349.64 149.11 1349.65 149.12 1396.76 163.01 1390.69 168.38 1350.45 156.52 1325.05 162.76"/><path d="M1442.65,488.88l-26.58-.16,0-15,25.5.05a7.07,7.07,0,0,1,7.05,7.07l0,1.92A6,6,0,0,1,1442.65,488.88Z"/><path d="M1356.08,488.88l26.59-.16,0-15-25.5.05a7.07,7.07,0,0,0-7.05,7.07l0,1.92A6,6,0,0,0,1356.08,488.88Z"/><path class="cls-21" d="M1451.49,278.12a24.4,24.4,0,0,1-41.83,25.14"/><path class="cls-21" d="M1398.14,303.11a24.4,24.4,0,0,1-43.68-21.76"/><path class="cls-4" d="M1402.8,324.42h0c-7.68,0-14.55.44-13.89-14l.12-23.6c-.66-13.56,6.36-13.93,14-13.89h0c7.68,0,14.53,1.89,13.89,14l-.12,23.6C1418.15,325.39,1410.48,324.46,1402.8,324.42Z"/><path class="cls-22" d="M1402.33,272.89v1h.73c3.49,0,7.82.39,10.36,3.08,1.95,2.07,2.78,5.31,2.54,9.95l-.12,23.6v.1c.46,5.2-.17,8.66-1.92,10.58s-4.42,2.24-8.24,2.24H1402c-4.09,0-7.63,0-9.78-2.29-1.82-1.91-2.59-5.41-2.35-10.74l.12-23.6v-.06c-.24-5,.55-8.33,2.41-10.28,2.25-2.36,6-2.56,9.89-2.56v-1m0,0c-7.39,0-13.94.77-13.3,13.89l-.12,23.6c-.66,14.48,6.21,14,13.89,14h0l2.88,0c6.59,0,12.31-.92,11.16-13.91l.12-23.6c.64-12.15-6.21-14-13.89-14Z"/><rect class="cls-23" x="1393.16" y="277.93" width="4.57" height="10.67" rx="2.29"/><circle class="cls-23" cx="1395.45" cy="280.21" r="0.76"/><circle class="cls-23" cx="1395.45" cy="286.31" r="0.76"/><circle class="cls-24" cx="1395.45" cy="283.26" r="1.14"/><ellipse class="cls-13" cx="334.88" cy="198.9" rx="2.73" ry="5.62" transform="translate(-52.94 162.8) rotate(-25.39)"/><ellipse class="cls-13" cx="57.88" cy="226.9" rx="5.62" ry="2.73" transform="translate(-167.56 163.57) rotate(-60)"/><ellipse class="cls-13" cx="1416.88" cy="307.9" rx="2.73" ry="5.62" transform="matrix(0.77, -0.64, 0.64, 0.77, 128.28, 972.63)"/><ellipse class="cls-13" cx="1390.88" cy="308.9" rx="5.62" ry="2.73" transform="translate(620.41 1507.37) rotate(-69.79)"/><path class="cls-3" d="M541,86.94c0-11.85,12.46-21.43,27.86-21.43"/><ellipse class="cls-13" cx="1325.75" cy="236.15" rx="1.47" ry="3.01" transform="translate(26.8 591.27) rotate(-25.39)"/><path class="cls-3" d="M942,86.94c0-11.85,12.46-21.43,27.86-21.43"/></g><g id="pige_3" data-name="pige 3"><path class="cls-1" d="M950.07,425l-43.27-.27a4.82,4.82,0,0,1-4.68-5V136.37a4.82,4.82,0,0,1,4.68-5h193.71a4.83,4.83,0,0,1,4.68,5V419.8a4.83,4.83,0,0,1-4.68,5l-49.17.27"/><ellipse class="cls-2" cx="1090.45" cy="322.96" rx="2.14" ry="30.27"/><ellipse class="cls-2" cx="1080.27" cy="292.95" rx="2.14" ry="30.27"/><ellipse class="cls-2" cx="1066.88" cy="310.1" rx="2.14" ry="30.27"/><ellipse class="cls-2" cx="937.75" cy="289.74" rx="2.14" ry="30.27"/><ellipse class="cls-2" cx="923.82" cy="320.28" rx="2.14" ry="30.27"/><ellipse class="cls-2" cx="910.96" cy="287.6" rx="2.14" ry="30.27"/><path class="cls-4" d="M1122.93,376.34h0c-8.25-5.79-16-10.41-4.48-25.52l17.79-25.36c9.42-15.12,17.27-10.26,25.52-4.48h0c8.25,5.79,14.26,12.9,4.48,25.53l-17.79,25.35C1138.75,388.87,1131.18,382.13,1122.93,376.34Z"/><path class="cls-25" d="M1149.33,316.38h0c3.82,0,7.63,2.46,11.86,5.42,3.79,2.67,8.25,6.35,9,11.28.57,3.77-1,8-4.76,12.85l-17.78,25.36,0,0,0,0c-5.88,10.3-10.37,10.3-11.84,10.3-3.59,0-7.15-2.53-10.91-5.2l-1.34-1-.82-.58c-4.46-3.11-8.32-5.8-9-10-.54-3.51,1.27-7.94,5.56-13.57L1137.06,326v0l0,0c6-9.61,10.69-9.61,12.24-9.61m0-1c-4.14,0-8.42,2.59-13.09,10.08l-17.79,25.36c-11.54,15.11-3.77,19.73,4.48,25.52h0c4.33,3,8.46,6.33,12.82,6.33,4,0,8.09-2.72,12.7-10.81l17.79-25.35c9.78-12.63,3.77-19.74-4.48-25.53h0c-4.16-2.92-8.22-5.6-12.43-5.6Z"/><rect class="cls-6" x="1119.4" y="333.94" width="48.02" height="27.59" transform="translate(202.11 1084.12) rotate(-54.95)"/><path class="cls-26" d="M1146.14,321.55l20.95,14.7-26.42,37.67-21-14.69,26.42-37.68m-.24-1.39-27.58,39.31,22.59,15.85L1168.48,336l-22.58-15.84Z"/><polygon class="cls-8" points="1140.91 375.32 1118.32 359.47 1146.42 346.06 1168.48 336 1140.91 375.32"/><circle class="cls-6" cx="1126.59" cy="371.69" r="3.39"/><path class="cls-27" d="M1126.59,369.3h0a2.31,2.31,0,0,1,1.37.44,2.39,2.39,0,0,1,.59,3.33,2.42,2.42,0,0,1-2,1,2.33,2.33,0,0,1-1.37-.44,2.39,2.39,0,0,1,1.37-4.35m0-1a3.4,3.4,0,1,0,2,.62,3.34,3.34,0,0,0-2-.62Z"/><rect class="cls-6" x="1159.5" y="320.5" width="1.23" height="6.78" rx="0.62" transform="translate(228.75 1087.66) rotate(-54.95)"/><rect class="cls-6" x="1155.03" y="320.17" width="1.23" height="1.18" rx="0.59" transform="translate(229.41 1082.67) rotate(-54.95)"/><path class="cls-28" d="M1155.67,320.15a.61.61,0,0,0-.49.25l0,.05a.59.59,0,0,0,.15.82.6.6,0,0,0,.82-.15l0,0a.59.59,0,0,0-.14-.82.65.65,0,0,0-.34-.11Z"/><rect class="cls-6" x="1160.56" y="321.79" width="1.23" height="1.18" rx="0.59" transform="translate(230.44 1087.88) rotate(-54.95)"/><path class="cls-29" d="M1161.2,321.77a.61.61,0,0,0-.49.25l0,0a.6.6,0,0,0,.15.83.6.6,0,0,0,.82-.15l0,0a.59.59,0,0,0-.14-.82.57.57,0,0,0-.34-.11Z"/><circle class="cls-4" cx="1126.59" cy="371.69" r="2.58"/><path class="cls-30" d="M1126.59,370.11h0a1.56,1.56,0,0,1,.91.29,1.6,1.6,0,0,1,.65,1,1.58,1.58,0,0,1-.26,1.18,1.61,1.61,0,0,1-1.3.67,1.55,1.55,0,0,1-.91-.28,1.63,1.63,0,0,1-.65-1,1.6,1.6,0,0,1,1.56-1.86m0-1a2.59,2.59,0,1,0,1.48.47,2.52,2.52,0,0,0-1.48-.47Z"/><path class="cls-15" d="M1027.63,362.5c13.72,66.36,0,118.5,0,118.5"/><line class="cls-15" x1="923.65" y1="430.77" x2="989.57" y2="439.48"/><line class="cls-15" x1="977.13" y1="370.66" x2="989.59" y2="439.07"/><path d="M1039.09,498.48l-25.45-7.69,4.26-14.32,24.44,7.27a7,7,0,0,1,4.75,8.78l-.51,1.85A6,6,0,0,1,1039.09,498.48Z"/><path d="M910.44,444.29,914.55,418l16.84,2.55-3.82,25.21c-.58,3.85-4.62,6.44-9,5.77l-2.17-.29C912.61,450.74,909.92,447.6,910.44,444.29Z"/><line class="cls-14" x1="1047.5" y1="291.5" x2="1120.5" y2="344.5"/><line class="cls-14" x1="955.49" y1="288.96" x2="928.51" y2="375.04"/><rect class="cls-16" x="953.29" y="257.32" width="101.26" height="71.8" rx="12"/><polygon class="cls-17" points="1064.73 383.35 941.5 383.35 954.03 320.01 1054.59 320.01 1064.73 383.35"/><path class="cls-13" d="M1094.74,145.07c0-43.94-40.66-79.56-90.82-79.56s-90.82,35.62-90.82,79.56c0,1.39,0,2.77.13,4.13a20.56,20.56,0,0,1,0,2.72c-.06.87-.1,1.75-.1,2.64v53.76A58.82,58.82,0,0,0,971.75,267h64.34a58.82,58.82,0,0,0,58.65-58.65V154.56c0-.89,0-1.77-.1-2.64a22.42,22.42,0,0,1,0-2.72C1094.69,147.84,1094.74,146.46,1094.74,145.07Z"/><path class="cls-19" d="M1020.26,222c0,12-7.61,21.7-17,21.7s-17-9.71-17-21.7"/><g id="øjne-3" data-name="øjne"><path class="cls-18" d="M949.54,194.64c0-15.39,10.79-27.87,24.11-27.87s24.11,12.48,24.11,27.87"/><path class="cls-18" d="M949.44,193.14c-8.28-.12-14.91-5.75-14.81-12.55"/><path class="cls-18" d="M950.48,189.43c-8.15-1.46-13.8-8.07-12.6-14.77"/><path class="cls-18" d="M950.74,186.12c-7.38-3.77-10.86-11.73-7.76-17.8"/><path class="cls-18" d="M1059.47,196.24c0-15.38-10.79-27.86-24.11-27.86s-24.11,12.48-24.11,27.86"/><path class="cls-18" d="M1059.57,194.75c8.28-.13,14.91-5.75,14.81-12.55"/><path class="cls-18" d="M1058.53,191c8.15-1.45,13.8-8.06,12.6-14.76"/><path class="cls-18" d="M1058.27,187.73c7.38-3.77,10.85-11.74,7.76-17.8"/></g><ellipse class="cls-20" cx="948.2" cy="216.33" rx="6.16" ry="19.56" transform="translate(553.15 1105.05) rotate(-78.89)"/><ellipse class="cls-20" cx="1058.04" cy="216.33" rx="19.56" ry="6.16" transform="translate(-21.19 255.24) rotate(-13.62)"/><path class="cls-1" d="M935.61,148.84h162.15c3.94,0,7.16-3.52,7.16-7.82v-2.61a7.55,7.55,0,0,0-.54-2.43c5.77-49.13-46.67-86.26-101-86.26-55,0-106.88,40.19-101.21,87.89a7,7,0,0,0,0,.8V141c0,4.3,3.22,7.82,7.16,7.82h28.44"/><path class="cls-13" d="M940.16,154.05c0-15.17,1.38-27.46,3.08-27.46s3.08,12.29,3.08,27.46"/><path class="cls-13" d="M950.34,156.59c0-21.6,2-39.11,4.42-39.11s4.42,17.51,4.42,39.11"/><polygon points="1080.27 164.9 1055.81 151.33 1055.72 151.25 1055.69 151.26 1055.68 151.25 1055.66 151.26 1008.56 165.15 1014.63 170.53 1054.87 158.66 1080.27 164.9"/><polygon points="926.05 162.76 950.51 149.18 950.6 149.1 950.63 149.11 950.64 149.11 950.65 149.12 997.76 163.01 991.69 168.38 951.45 156.52 926.05 162.76"/><rect x="953.29" y="314.12" width="101.26" height="8.04"/></g><g id="pige_2" data-name="pige 2"><path class="cls-4" d="M765.78,328.88h0c-9.59,3.11-17.95,6.54-23.09-11.77l-9.57-29.45c-6.42-16.63,2.18-20,11.76-23.09h0c9.59-3.11,18.88-3.64,23.09,11.77l9.57,29.45C785.3,323.77,775.36,325.77,765.78,328.88Z"/><path class="cls-31" d="M754,262.81v1h0c4.07,0,9.86,1.33,13,12.84l9.57,29.45,0,0v.05c2.77,6.4,3.4,11.07,2,14.27-1.77,3.86-6.52,5.37-11.55,7l-1.55.5-1,.31c-3.33,1.09-6.47,2.12-9.28,2.12-3.63,0-8.22-1.54-11.59-13.55l-9.57-29.46v-.05c-2.39-6.18-2.78-10.79-1.22-14.08,1.92-4,6.53-5.8,12.36-7.7a29.11,29.11,0,0,1,8.82-1.71v-1m0,0a30.23,30.23,0,0,0-9.13,1.76h0c-9.58,3.11-18.18,6.46-11.76,23.09l9.57,29.45c3.13,11.17,7.46,14.25,12.54,14.25,3.25,0,6.81-1.26,10.55-2.48,9.58-3.11,19.52-5.11,11.76-23.09L768,276.34c-2.83-10.38-8-13.53-14-13.53Z"/><rect class="cls-6" x="741.43" y="271.32" width="27.59" height="48.02" transform="translate(-54.29 247.79) rotate(-18)"/><path class="cls-32" d="M760.29,269.49l14.22,43.76-24.34,7.91L736,277.39l24.34-7.9m.64-1.26-26.24,8.52,14.84,45.67,26.24-8.52-14.84-45.67Z"/><polygon class="cls-8" points="775.77 313.9 749.53 322.42 755.7 291.9 760.93 268.23 775.77 313.9"/><circle class="cls-6" cx="764.26" cy="323.16" r="3.39"/><path class="cls-33" d="M764.26,320.77h0a2.39,2.39,0,0,1,.74,4.67,2.65,2.65,0,0,1-.74.11A2.37,2.37,0,0,1,762,323.9a2.39,2.39,0,0,1,2.27-3.13m0-1a3.25,3.25,0,0,0-1,.17,3.39,3.39,0,0,0,1,6.61,3.48,3.48,0,0,0,1-.16,3.39,3.39,0,0,0-1-6.62Z"/><rect class="cls-6" x="742.83" y="267.02" width="6.78" height="1.23" rx="0.62" transform="translate(-46.18 243.65) rotate(-18)"/><rect class="cls-6" x="740.44" y="268.7" width="1.18" height="1.23" rx="0.59" transform="translate(-46.95 242.13) rotate(-18)"/><path class="cls-34" d="M741,268.7a.63.63,0,0,0-.19,0,.6.6,0,0,0-.37.75v0a.6.6,0,0,0,.56.41.63.63,0,0,0,.19,0,.6.6,0,0,0,.37-.75v-.05a.6.6,0,0,0-.56-.41Z"/><rect class="cls-6" x="745.06" y="265.26" width="1.18" height="1.23" rx="0.59" transform="translate(-45.66 243.39) rotate(-18)"/><path class="cls-35" d="M745.64,265.26a.57.57,0,0,0-.18,0,.59.59,0,0,0-.38.74l0,.05a.59.59,0,0,0,.56.41.57.57,0,0,0,.18,0,.59.59,0,0,0,.38-.74v-.05a.61.61,0,0,0-.57-.41Z"/><circle class="cls-4" cx="764.26" cy="323.16" r="2.58"/><path class="cls-36" d="M764.26,321.58h0a1.58,1.58,0,0,1,.49,3.09,1.61,1.61,0,0,1-.49.07,1.58,1.58,0,0,1-.49-3.08,1.67,1.67,0,0,1,.49-.08m0-1a2.42,2.42,0,0,0-.79.13,2.58,2.58,0,0,0,.79,5,2.72,2.72,0,0,0,.8-.12,2.58,2.58,0,0,0-.8-5Z"/><path class="cls-1" d="M549.07,425l-43.27-.27a4.82,4.82,0,0,1-4.68-5V136.37a4.82,4.82,0,0,1,4.68-5H699.51a4.83,4.83,0,0,1,4.68,5V419.8a4.83,4.83,0,0,1-4.68,5l-49.17.27"/><ellipse class="cls-2" cx="689.45" cy="322.96" rx="2.14" ry="30.27"/><ellipse class="cls-2" cx="679.27" cy="292.95" rx="2.14" ry="30.27"/><ellipse class="cls-2" cx="665.88" cy="310.1" rx="2.14" ry="30.27"/><ellipse class="cls-2" cx="536.75" cy="289.74" rx="2.14" ry="30.27"/><ellipse class="cls-2" cx="522.82" cy="320.28" rx="2.14" ry="30.27"/><ellipse class="cls-2" cx="509.96" cy="287.6" rx="2.14" ry="30.27"/><path class="cls-14" d="M640.39,276.94c7.15,27.55,49.52,40.35,94.72,28.62"/><path class="cls-14" d="M559.13,287.18c-18,28.64-56.92,36.5-87.08,17.58"/><path class="cls-15" d="M573.63,374.5c13.72,66.36,0,118.5,0,118.5"/><line class="cls-15" x1="602.5" y1="451.5" x2="667.5" y2="437.5"/><line class="cls-15" x1="632.62" y1="376.89" x2="667.38" y2="437.11"/><rect class="cls-16" x="552.29" y="257.32" width="101.26" height="71.8" rx="12"/><polygon class="cls-17" points="663.73 383.35 540.5 383.35 553.03 320.01 653.59 320.01 663.73 383.35"/><rect x="552.29" y="314.12" width="101.26" height="8.04"/><path d="M585.09,510.48l-25.45-7.69,4.26-14.32,24.44,7.27a7,7,0,0,1,4.75,8.78l-.51,1.85A6,6,0,0,1,585.09,510.48Z"/><path d="M600.76,469.81,589.9,445.54l13.62-6.16L614,462.61A7.05,7.05,0,0,1,610.5,472l-1.73.82A6,6,0,0,1,600.76,469.81Z"/><path class="cls-13" d="M693.74,145.07c0-43.94-40.66-79.56-90.82-79.56s-90.82,35.62-90.82,79.56c0,1.39,0,2.77.13,4.13a20.56,20.56,0,0,1,0,2.72c-.06.87-.1,1.75-.1,2.64v53.76A58.82,58.82,0,0,0,570.75,267h64.34a58.82,58.82,0,0,0,58.65-58.65V154.56c0-.89,0-1.77-.1-2.64a22.42,22.42,0,0,1,0-2.72C693.69,147.84,693.74,146.46,693.74,145.07Z"/><path class="cls-19" d="M619.26,222c0,12-7.61,21.7-17,21.7s-17-9.71-17-21.7"/><g id="øjne-4" data-name="øjne"><path class="cls-18" d="M548.54,194.64c0-15.39,10.79-27.87,24.11-27.87s24.11,12.48,24.11,27.87"/><path class="cls-18" d="M548.44,193.14c-8.28-.12-14.91-5.75-14.81-12.55"/><path class="cls-18" d="M549.48,189.43c-8.15-1.46-13.8-8.07-12.6-14.77"/><path class="cls-18" d="M549.74,186.12c-7.38-3.77-10.86-11.73-7.76-17.8"/><path class="cls-18" d="M658.47,196.24c0-15.38-10.79-27.86-24.11-27.86s-24.11,12.48-24.11,27.86"/><path class="cls-18" d="M658.57,194.75c8.28-.13,14.91-5.75,14.81-12.55"/><path class="cls-18" d="M657.53,191c8.15-1.45,13.8-8.06,12.6-14.76"/><path class="cls-18" d="M657.27,187.73c7.38-3.77,10.85-11.74,7.76-17.8"/></g><path class="cls-1" d="M534.61,148.84H696.76c3.94,0,7.16-3.52,7.16-7.82v-2.61a7.55,7.55,0,0,0-.54-2.43c5.77-49.13-46.67-86.26-101-86.26-55,0-106.88,40.19-101.21,87.89a7,7,0,0,0,0,.8V141c0,4.3,3.22,7.82,7.16,7.82h28.44"/><path class="cls-13" d="M539.16,154.05c0-15.17,1.38-27.46,3.08-27.46s3.08,12.29,3.08,27.46"/><path class="cls-13" d="M549.34,156.59c0-21.6,2-39.11,4.42-39.11s4.42,17.51,4.42,39.11"/><polygon points="679.27 164.9 654.81 151.33 654.72 151.25 654.69 151.26 654.68 151.25 654.66 151.26 607.56 165.15 613.63 170.53 653.87 158.66 679.27 164.9"/><polygon points="525.05 162.76 549.51 149.18 549.6 149.1 549.63 149.11 549.64 149.11 549.65 149.12 596.76 163.01 590.69 168.38 550.45 156.52 525.05 162.76"/><ellipse class="cls-20" cx="547.2" cy="216.33" rx="6.16" ry="19.56" transform="translate(229.45 711.57) rotate(-78.89)"/><ellipse class="cls-20" cx="657.04" cy="216.33" rx="19.56" ry="6.16" transform="translate(-32.47 160.81) rotate(-13.62)"/><ellipse class="cls-13" cx="734.88" cy="291.9" rx="5.62" ry="2.73" transform="translate(154.12 828.53) rotate(-64.4)"/><ellipse class="cls-13" cx="478.88" cy="292.9" rx="2.73" ry="5.62" transform="translate(-40.74 80.51) rotate(-9.22)"/><ellipse class="cls-13" cx="1129.88" cy="334.9" rx="2.73" ry="5.62" transform="translate(653.86 1412.95) rotate(-82.69)"/><ellipse class="cls-13" cx="941.88" cy="377.9" rx="2.73" ry="5.62" transform="translate(-71.26 436.95) rotate(-25.2)"/></g></svg>
