<svg id="Layer_1" data-name="Layer 1" xmlns="http://www.w3.org/2000/svg" width="411" height="574" viewBox="0 0 411 574"><defs><style>.cls-1{fill:#42210b;}.cls-11,.cls-12,.cls-2,.cls-4{fill:none;stroke-miterlimit:10;}.cls-2{stroke:#c69c6d;stroke-width:12px;}.cls-3{fill:#0071bc;}.cls-4{stroke:#1b1464;}.cls-5{fill:#ff7bac;}.cls-6{fill:#c69c6d;}.cls-7{fill:#fbb03b;}.cls-8{fill:#4d4d4d;}.cls-9{fill:#333;}.cls-10{fill:#fff;}.cls-11,.cls-12{stroke:#000;}.cls-11{stroke-width:2px;}.cls-13{fill:#fd7fff;}</style></defs><title>Artboard 2</title><path class="cls-1" d="M348,169c0,40.84-57,184,20,217,58.45,25.05-125.84,35-167,35s-225.65-.94-168-28c49-23,21-183.21,21-224C54,86.16,119.81,19,201,19S348,86.16,348,169Z"/><line class="cls-2" x1="176" y1="375" x2="174" y2="534"/><line class="cls-2" x1="220" y1="376" x2="218" y2="535"/><path d="M180,534H152.5A11.53,11.53,0,0,0,141,545.5h0A11.53,11.53,0,0,0,152.5,557H180"/><path d="M212,535h27.5A11.53,11.53,0,0,1,251,546.5h0A11.53,11.53,0,0,1,239.5,558H212"/><polygon class="cls-3" points="280 387 122 387 150 315 256 315 280 387"/><line class="cls-4" x1="136.5" y1="387.5" x2="150.5" y2="332.5"/><line class="cls-4" x1="155.5" y1="387.5" x2="164.5" y2="334.5"/><line class="cls-4" x1="178.5" y1="387.5" x2="182.5" y2="333.5"/><line class="cls-4" x1="201.5" y1="387.5" x2="199.5" y2="331.5"/><line class="cls-4" x1="223.5" y1="387.5" x2="216.5" y2="331.5"/><line class="cls-4" x1="243.5" y1="387.5" x2="234.5" y2="332.5"/><line class="cls-4" x1="264.5" y1="387.5" x2="251.5" y2="330.5"/><path class="cls-2" d="M253,263c60.49,42.34-3.87,103.54-46,104"/><path class="cls-2" d="M153,263c-59,53,15.65,107,35,107"/><path class="cls-5" d="M245,324l-86,1c-12.76,0-16-3.44-16-16.2V268.2A23.27,23.27,0,0,1,166.2,245h68.6A23.27,23.27,0,0,1,258,268.2v40.6C258,321.56,257.76,324,245,324Z"/><path class="cls-6" d="M309,154c0,28.53,1.47,57.08-17,76-19.07,19.54-61.54,29-91,29-31.33,0-72.76-7.24-92-29-16.37-18.52-16-49.34-16-76C93,96,143,49,201,49S309,96,309,154Z"/><path class="cls-7" d="M93,159c1,41,2,31,17,4C127.3,131.86,250,44,222,44c-27.61,0-78.81,13.81-104,39S92.33,131.39,93,159Z"/><path class="cls-7" d="M309.29,159c-1,41-2,31-17,4C275,131.86,151,44,179,44c27.61,0,80.11,13.81,105.29,39S310,131.39,309.29,159Z"/><rect class="cls-8" x="184" y="351" width="23" height="38" rx="6.97" ry="6.97"/><circle class="cls-9" cx="189" cy="356" r="2"/><circle cx="189" cy="356" r="1"/><path class="cls-10" d="M199,368c0,1-1.12,3-2.5,3s-2.5-1.9-2.5-3,1.25-1,2.5-1S199,366.59,199,368Z"/><circle class="cls-8" cx="199" cy="369" r="1"/><polyline class="cls-10" points="196 367 196 366 197 366"/><path class="cls-11" d="M138.5,171.63c0-10.91,32-52.13,46-2.13"/><path class="cls-12" d="M128,163c0,5,4.47,9,10,9"/><path class="cls-12" d="M133,157c0,5,2.68,9,6,9"/><path class="cls-12" d="M138,152c0,5,1.79,9,4,9"/><path class="cls-11" d="M260,171.63c0-10.91-32-52.13-46-2.13"/><path class="cls-12" d="M270.5,163c0,5-4.47,9-10,9"/><path class="cls-12" d="M265.5,157c0,5-2.68,9-6,9"/><path class="cls-12" d="M260.5,152c0,5-1.79,9-4,9"/><path class="cls-11" d="M174,207c6.24,11.35,35.16,23.73,51-4"/><ellipse class="cls-13" cx="253" cy="190" rx="16" ry="6"/><ellipse class="cls-13" cx="152" cy="190" rx="16" ry="6"/></svg>
