<svg id="Layer_1" data-name="Layer 1" xmlns="http://www.w3.org/2000/svg" width="424" height="574" viewBox="0 0 424 574"><defs><style>.cls-1,.cls-2,.cls-6,.cls-7{fill:none;stroke-miterlimit:10;}.cls-1{stroke:#ffb79f;}.cls-1,.cls-2{stroke-width:12px;}.cls-2{stroke:#ed1c24;}.cls-3{fill:#ed1c24;}.cls-4{fill:#ffb79f;}.cls-5{fill:#f7931e;}.cls-6,.cls-7{stroke:#000;}.cls-6{stroke-width:2px;}.cls-8{fill:#fd7fff;}.cls-9{fill:#2e3192;}.cls-10{fill:#0071bc;}</style></defs><title>Artboard 1</title><line class="cls-1" x1="247" y1="354" x2="245" y2="513"/><path d="M239,513h27.5A11.53,11.53,0,0,1,278,524.5h0A11.53,11.53,0,0,1,266.5,536H239"/><line class="cls-1" x1="193" y1="355" x2="191" y2="514"/><path d="M197,514H169.5A11.53,11.53,0,0,0,158,525.5h0A11.53,11.53,0,0,0,169.5,537H197"/><path class="cls-2" d="M268,290c35,46,6.13,98.54-36,99"/><path class="cls-2" d="M168,290c-41,59,1.65,93,21,93"/><path class="cls-3" d="M262,353l-86,1c-12.76,0-16-3.44-16-16.2V297.2A23.27,23.27,0,0,1,183.2,274h68.6A23.27,23.27,0,0,1,275,297.2v40.6C275,350.56,274.76,353,262,353Z"/><path class="cls-4" d="M326,180c0,28.53,1.47,57.08-17,76-19.07,19.54-61.54,29-91,29-31.33,0-72.76-7.24-92-29-10-11.33-13.77-27.28-15.17-44.05-.89-10.64-.83-21.61-.83-31.95,0-58,50-105,108-105S326,122,326,180Z"/><path class="cls-5" d="M110,185c1,41-.71,29.3,17,4C148,159,268.76,85.23,242,77c-13-4-37.25-5.32-57,0-19,5.12-37.64,19.64-50,32C109.81,134.19,109.33,157.39,110,185Z"/><path class="cls-5" d="M325.29,183c-1,41,4.15,26.52-17,4C282,159,168,76,196,76c15.22,0,37.68-1.8,59,4,17.37,4.72,34,15.69,45.29,27C325.48,132.19,326,155.39,325.29,183Z"/><path class="cls-6" d="M155.5,197.63c0-10.91,32-52.13,46-2.13"/><path class="cls-7" d="M145,189c0,5,4.47,9,10,9"/><path class="cls-7" d="M150,183c0,5,2.68,9,6,9"/><path class="cls-7" d="M155,178c0,5,1.79,9,4,9"/><path class="cls-6" d="M277,197.63c0-10.91-32-52.13-46-2.13"/><path class="cls-7" d="M287.5,189c0,5-4.47,9-10,9"/><path class="cls-7" d="M282.5,183c0,5-2.68,9-6,9"/><path class="cls-7" d="M277.5,178c0,5-1.79,9-4,9"/><path class="cls-6" d="M191,233c6.24,11.35,35.16,23.73,51-4"/><ellipse class="cls-8" cx="270" cy="216" rx="16" ry="6"/><ellipse class="cls-8" cx="169" cy="216" rx="16" ry="6"/><path class="cls-5" d="M26,130c-8,15.11,67-11,85-15,16.71-3.71,39-27.88,39-45s-31.88-30-49-30S59,68,26,130Z"/><path class="cls-5" d="M404.36,125c8,15.11-61.88-16-79-16s-39-27.88-39-45,31.88-30,49-30S371.36,63,404.36,125Z"/><rect class="cls-9" x="120" y="81" width="48" height="26" rx="10.35" ry="10.35" transform="translate(-21.54 140.56) rotate(-48.84)"/><rect class="cls-9" x="272" y="81" width="48" height="26" rx="10.35" ry="10.35" transform="translate(118.65 -160.95) rotate(37.56)"/><rect class="cls-10" x="167" y="353" width="42" height="50"/><rect class="cls-10" x="227" y="353" width="42" height="50"/></svg>
