<svg id="Layer_1" data-name="Layer 1" xmlns="http://www.w3.org/2000/svg" width="366" height="558" viewBox="0 0 366 558"><defs><style>.cls-1{fill:#603813;}.cls-2,.cls-5,.cls-6,.cls-7{fill:none;stroke-miterlimit:10;}.cls-2{stroke:#a67c52;}.cls-2,.cls-5{stroke-width:12px;}.cls-3{fill:#f15a24;}.cls-4{fill:#a67c52;}.cls-5{stroke:#f15a24;}.cls-6,.cls-7{stroke:#000;}.cls-6{stroke-width:2px;}.cls-8{fill:#fd7fff;}</style></defs><title>Artboard 3</title><circle class="cls-1" cx="320" cy="235" r="16"/><circle class="cls-1" cx="316.5" cy="221.5" r="14.5"/><circle class="cls-1" cx="320" cy="251" r="16"/><ellipse class="cls-1" cx="316" cy="268.5" rx="16" ry="19.5"/><circle class="cls-1" cx="316" cy="289" r="12"/><ellipse class="cls-1" cx="310" cy="302.5" rx="10" ry="13.5"/><line class="cls-2" x1="209" y1="352" x2="207" y2="511"/><path d="M201,511h27.5A11.53,11.53,0,0,1,240,522.5h0A11.53,11.53,0,0,1,228.5,534H201"/><line class="cls-2" x1="155" y1="353" x2="153" y2="512"/><path d="M159,512H131.5A11.53,11.53,0,0,0,120,523.5h0A11.53,11.53,0,0,0,131.5,535H159"/><ellipse class="cls-1" cx="128" cy="263" rx="10" ry="7"/><ellipse class="cls-1" cx="244" cy="277" rx="10" ry="7"/><ellipse class="cls-1" cx="234" cy="267" rx="10" ry="7"/><ellipse class="cls-1" cx="87.5" cy="252" rx="11.5" ry="16"/><ellipse class="cls-1" cx="102" cy="262.5" rx="20" ry="12.5"/><ellipse class="cls-1" cx="110" cy="275.5" rx="20" ry="12.5"/><ellipse class="cls-1" cx="254" cy="257.5" rx="20" ry="12.5"/><circle class="cls-1" cx="264.5" cy="243.5" r="7.5"/><path class="cls-3" d="M223,406.09,137,408c-44,1-21-6.59-21-31l5-77.62C121,275,131.44,255,144.2,255h68.6c12.76,0,23.2,20,23.2,44.38L241,377C241,401.41,272,408,223,406.09Z"/><path class="cls-4" d="M281,166c0,28.53,1.47,57.08-17,76-19.07,19.54-61.54,29-91,29-31.33,0-72.76-7.24-92-29C71,230.67,67.23,214.72,65.83,198,64.94,187.31,65,176.34,65,166c0-58,50-105,108-105S281,108,281,166Z"/><circle class="cls-1" cx="93" cy="103" r="28"/><circle class="cls-1" cx="129.5" cy="79.5" r="23.5"/><ellipse class="cls-1" cx="102.5" cy="72" rx="18.5" ry="16"/><ellipse class="cls-1" cx="162.5" cy="70.5" rx="16.5" ry="21.5"/><ellipse class="cls-1" cx="145.5" cy="53.5" rx="16.5" ry="13.5"/><ellipse class="cls-1" cx="78" cy="128" rx="16" ry="12" transform="translate(-11.21 7.55) rotate(-5.17)"/><circle class="cls-1" cx="65" cy="164" r="26"/><circle class="cls-1" cx="70" cy="134" r="18"/><ellipse class="cls-1" cx="197.5" cy="61" rx="24.5" ry="31"/><circle class="cls-1" cx="253.5" cy="107.5" r="15.5"/><circle class="cls-1" cx="244.5" cy="74.5" r="24.5"/><ellipse class="cls-1" cx="286" cy="144" rx="20" ry="28" transform="translate(-2.49 282.94) rotate(-52.44)"/><ellipse class="cls-1" cx="295" cy="204" rx="26" ry="20"/><ellipse class="cls-1" cx="68" cy="214.5" rx="16" ry="30.5"/><ellipse class="cls-1" cx="58.5" cy="203.5" rx="32.5" ry="20.5"/><ellipse class="cls-1" cx="271.5" cy="103.5" rx="14.5" ry="19.5"/><ellipse class="cls-1" cx="302" cy="188" rx="30" ry="24"/><ellipse class="cls-1" cx="299.5" cy="133.5" rx="21.5" ry="30.5"/><ellipse class="cls-1" cx="230.5" cy="53" rx="23.5" ry="26"/><ellipse class="cls-1" cx="165.5" cy="46.5" rx="20.5" ry="16.5"/><ellipse class="cls-1" cx="123.5" cy="62" rx="17.5" ry="13"/><ellipse class="cls-1" cx="285" cy="95.5" rx="19" ry="32.5"/><circle class="cls-1" cx="266.5" cy="66.5" r="17.5"/><circle class="cls-1" cx="282" cy="173" r="13"/><ellipse class="cls-1" cx="55" cy="236" rx="13" ry="15"/><circle class="cls-1" cx="291.5" cy="232.5" r="18.5"/><circle class="cls-1" cx="304" cy="165" r="13"/><ellipse class="cls-1" cx="43" cy="232.5" rx="12" ry="18.5"/><ellipse class="cls-1" cx="63.5" cy="239" rx="17.5" ry="12"/><circle class="cls-1" cx="57" cy="272" r="21"/><ellipse class="cls-1" cx="59.5" cy="255" rx="28.5" ry="16"/><ellipse class="cls-1" cx="295" cy="262.5" rx="22" ry="30.5"/><ellipse class="cls-1" cx="87" cy="145.5" rx="6" ry="14.5"/><ellipse class="cls-1" cx="79.5" cy="190.5" rx="11.5" ry="12.5"/><ellipse class="cls-1" cx="81.5" cy="256" rx="5.5" ry="32"/><ellipse class="cls-1" cx="283.5" cy="237.5" rx="11.5" ry="25.5"/><ellipse class="cls-1" cx="66.5" cy="271" rx="20.5" ry="17"/><ellipse class="cls-1" cx="79" cy="301.5" rx="20" ry="14.5"/><ellipse class="cls-1" cx="88" cy="278.5" rx="18" ry="22.5"/><ellipse class="cls-1" cx="53.5" cy="301" rx="14.5" ry="18"/><ellipse class="cls-1" cx="280.5" cy="251" rx="14.5" ry="27"/><ellipse class="cls-1" cx="269" cy="257.5" rx="7" ry="20.5"/><circle class="cls-1" cx="280" cy="286" r="15"/><circle class="cls-1" cx="297.5" cy="291.5" r="12.5"/><ellipse class="cls-1" cx="57" cy="316" rx="11" ry="18"/><ellipse class="cls-1" cx="77" cy="316" rx="18" ry="11"/><ellipse class="cls-1" cx="287" cy="306" rx="20" ry="13"/><path class="cls-5" d="M222,270c56,42,13.14,98.54-28.92,99"/><path class="cls-5" d="M132,272c-61.18,56-1.17,91,18.15,91"/><circle class="cls-1" cx="263" cy="269" r="14"/><ellipse class="cls-1" cx="244" cy="270" rx="10" ry="7"/><ellipse class="cls-1" cx="253.5" cy="284" rx="9.5" ry="14"/><ellipse class="cls-1" cx="269" cy="293.5" rx="20" ry="12.5"/><ellipse class="cls-1" cx="89" cy="293.5" rx="20" ry="12.5"/><path class="cls-6" d="M242,172.63c0-10.91-32-52.13-46-2.13"/><path class="cls-7" d="M252.5,164c0,5-4.47,9-10,9"/><path class="cls-7" d="M247.5,158c0,5-2.68,9-6,9"/><path class="cls-7" d="M242.5,153c0,5-1.79,9-4,9"/><path class="cls-6" d="M120.5,172.63c0-10.91,32-52.13,46-2.13"/><path class="cls-7" d="M110,164c0,5,4.47,9,10,9"/><path class="cls-7" d="M115,158c0,5,2.68,9,6,9"/><path class="cls-7" d="M120,153c0,5,1.79,9,4,9"/><path class="cls-6" d="M157,219c6.24,11.35,35.16,23.73,51-4"/><ellipse class="cls-8" cx="236" cy="202" rx="16" ry="6"/><ellipse class="cls-8" cx="135" cy="202" rx="16" ry="6"/></svg>
