<svg id="Layer_1" data-name="Layer 1" xmlns="http://www.w3.org/2000/svg" width="290" height="134" viewBox="0 0 290 134"><defs><style>.cls-1{fill:gray;}.cls-2{fill:#f7931e;}</style></defs><title>Artboard 1</title><rect class="cls-1" x="7" y="17" width="266" height="111" rx="12" ry="12"/><rect class="cls-2" x="19" y="7" width="266" height="111" rx="12" ry="12"/><path d="M76.19,29.07v9.22q-5.47-3.09-9.86-3.09a11.28,11.28,0,0,0-7.74,2.64,8.23,8.23,0,0,0-3,6.67,9.75,9.75,0,0,0,2.14,6.32,29.68,29.68,0,0,0,3.6,3.63c1.68,1.48,3.84,3.27,6.5,5.36q7.32,5.87,10,10.13a18.45,18.45,0,0,1,2.65,10.13,17.25,17.25,0,0,1-5.83,13.4q-5.82,5.13-14.94,5.13a24.66,24.66,0,0,1-13.1-3.32V85.94q6.4,3.68,11.66,3.68,4.91,0,7.67-2.57a9,9,0,0,0,2.77-7,11.67,11.67,0,0,0-2.13-6.86,29.26,29.26,0,0,0-3.06-3.34,64,64,0,0,0-4.91-4.2Q54,62.14,51,59.41a31.91,31.91,0,0,1-4.45-4.77,17.32,17.32,0,0,1-2.77-10.08q0-8.22,5.43-13T64,26.66A31.79,31.79,0,0,1,76.19,29.07Z"/><path d="M84.9,27.62H124v8.26H110.52V97.75H98.75V35.88H84.9Z"/><path d="M141.62,27.62H151l19.1,70.13H158.17l-3.34-13.67H137.17l-3.4,13.67H122.23ZM153.1,76.76l-2.66-11.17a245.66,245.66,0,0,1-4.32-24.35Q145.31,47.56,144,54t-3,13.74l-2.19,9Z"/><path d="M177.1,27.62h15.8q9.81,0,14.6,3.68,6.06,4.77,6.06,14.58,0,7.53-3.2,12.1a13.75,13.75,0,0,1-9.15,5.66L217.6,97.75H205.42L189.1,63.41V97.75h-12Zm12,31.07q7,0,9.86-2.55c1.93-1.69,2.89-4.56,2.89-8.58a22,22,0,0,0-.61-5.59,9,9,0,0,0-1.9-3.77A7.56,7.56,0,0,0,196,36.07a15.29,15.29,0,0,0-4.87-.69h-2Z"/><path d="M220.94,27.62H260v8.26H246.56V97.75H234.79V35.88H220.94Z"/></svg>
